%TF.GenerationSoftware,KiCad,Pcbnew,(6.0.9)*%
%TF.CreationDate,2023-01-22T20:13:33-05:00*%
%TF.ProjectId,Temps_North_DCT_HSK,54656d70-735f-44e6-9f72-74685f444354,rev?*%
%TF.SameCoordinates,Original*%
%TF.FileFunction,Copper,L1,Top*%
%TF.FilePolarity,Positive*%
%FSLAX46Y46*%
G04 Gerber Fmt 4.6, Leading zero omitted, Abs format (unit mm)*
G04 Created by KiCad (PCBNEW (6.0.9)) date 2023-01-22 20:13:33*
%MOMM*%
%LPD*%
G01*
G04 APERTURE LIST*
%TA.AperFunction,ComponentPad*%
%ADD10R,0.940800X0.940800*%
%TD*%
%TA.AperFunction,ComponentPad*%
%ADD11C,0.940800*%
%TD*%
%TA.AperFunction,ComponentPad*%
%ADD12C,0.890000*%
%TD*%
%TA.AperFunction,Conductor*%
%ADD13C,0.127000*%
%TD*%
G04 APERTURE END LIST*
D10*
%TO.P,J2,1,Pin_1*%
%TO.N,/TD2_1*%
X93944440Y-79857600D03*
D11*
%TO.P,J2,2,Pin_2*%
%TO.N,/TD2_2*%
X96504760Y-79857600D03*
%TO.P,J2,3,Pin_3*%
%TO.N,/TD2_3*%
X93954600Y-81127600D03*
%TO.P,J2,4,Pin_4*%
%TO.N,/TD2_4*%
X96494600Y-81127600D03*
%TO.P,J2,5,Pin_5*%
%TO.N,/TD2_5*%
X93954600Y-82397600D03*
%TO.P,J2,6,Pin_6*%
%TO.N,/TD2_6*%
X96494600Y-82397600D03*
%TO.P,J2,7,Pin_7*%
%TO.N,/TD2_7*%
X93954600Y-83667600D03*
%TO.P,J2,8,Pin_8*%
%TO.N,/TD2_8*%
X96494600Y-83667600D03*
%TO.P,J2,9,Pin_9*%
%TO.N,/TD2_9*%
X93954600Y-84937600D03*
%TO.P,J2,10,Pin_10*%
%TO.N,/TD2_10*%
X96494600Y-84937600D03*
%TO.P,J2,11,Pin_11*%
%TO.N,/TD2_11*%
X93954600Y-86207600D03*
%TO.P,J2,12,Pin_12*%
%TO.N,unconnected-(J2-Pad12)*%
X96494600Y-86207600D03*
%TO.P,J2,13,Pin_13*%
%TO.N,/TD2_13*%
X93954600Y-87477600D03*
%TO.P,J2,14,Pin_14*%
%TO.N,/TD2_14*%
X96494600Y-87477600D03*
%TO.P,J2,15,Pin_15*%
%TO.N,/TD2_15*%
X93954600Y-88747600D03*
%TO.P,J2,16,Pin_16*%
%TO.N,/TD2_16*%
X96494600Y-88747600D03*
%TO.P,J2,17,Pin_17*%
%TO.N,/TD2_17*%
X93954600Y-90017600D03*
%TO.P,J2,18,Pin_18*%
%TO.N,/TD2_18*%
X96494600Y-90017600D03*
%TO.P,J2,19,Pin_19*%
%TO.N,/TD2_19*%
X93954600Y-91287600D03*
%TO.P,J2,20,Pin_20*%
%TO.N,/TD2_20*%
X96494600Y-91287600D03*
%TO.P,J2,21,Pin_21*%
%TO.N,/TD2_21*%
X93954600Y-92557600D03*
%TO.P,J2,22,Pin_22*%
%TO.N,/TD2_22*%
X96494600Y-92557600D03*
%TO.P,J2,23,Pin_23*%
%TO.N,/TD2_23*%
X93954600Y-93827600D03*
%TO.P,J2,24,Pin_24*%
%TO.N,/TD2_24*%
X96494600Y-93827600D03*
%TO.P,J2,25,Pin_25*%
%TO.N,/TD2_25*%
X93954600Y-95097600D03*
%TO.P,J2,26,Pin_26*%
%TO.N,/TD2_26*%
X96494600Y-95097600D03*
%TO.P,J2,27,Pin_27*%
%TO.N,/TD2_27*%
X93954600Y-96367600D03*
%TO.P,J2,28,Pin_28*%
%TO.N,/TD2_28*%
X96494600Y-96367600D03*
%TO.P,J2,29,Pin_29*%
%TO.N,/TD2_29*%
X93954600Y-97637600D03*
%TO.P,J2,30,Pin_30*%
%TO.N,/TD2_30*%
X96494600Y-97637600D03*
%TO.P,J2,31,Pin_31*%
%TO.N,/TD2_31*%
X93954600Y-98907600D03*
%TO.P,J2,32,Pin_32*%
%TO.N,/TD2_32*%
X96494600Y-98907600D03*
%TO.P,J2,33,Pin_33*%
%TO.N,/TD2_33*%
X93954600Y-100177600D03*
%TO.P,J2,34,Pin_34*%
%TO.N,/TD2_34*%
X96494600Y-100177600D03*
%TD*%
D10*
%TO.P,J3,1,Pin_1*%
%TO.N,/TD1_1*%
X139664440Y-50952400D03*
D11*
%TO.P,J3,2,Pin_2*%
%TO.N,/TD1_2*%
X142224760Y-50952400D03*
%TO.P,J3,3,Pin_3*%
%TO.N,/TD1_3*%
X139674600Y-52222400D03*
%TO.P,J3,4,Pin_4*%
%TO.N,/TD1_4*%
X142214600Y-52222400D03*
%TO.P,J3,5,Pin_5*%
%TO.N,/TD1_5*%
X139674600Y-53492400D03*
%TO.P,J3,6,Pin_6*%
%TO.N,/TD1_6*%
X142214600Y-53492400D03*
%TO.P,J3,7,Pin_7*%
%TO.N,/TD1_7*%
X139674600Y-54762400D03*
%TO.P,J3,8,Pin_8*%
%TO.N,/TD1_8*%
X142214600Y-54762400D03*
%TO.P,J3,9,Pin_9*%
%TO.N,/TD1_9*%
X139674600Y-56032400D03*
%TO.P,J3,10,Pin_10*%
%TO.N,/TD1_10*%
X142214600Y-56032400D03*
%TO.P,J3,11,Pin_11*%
%TO.N,/TD1_11*%
X139674600Y-57302400D03*
%TO.P,J3,12,Pin_12*%
%TO.N,/TD1_12*%
X142214600Y-57302400D03*
%TO.P,J3,13,Pin_13*%
%TO.N,/TD1_13*%
X139674600Y-58572400D03*
%TO.P,J3,14,Pin_14*%
%TO.N,/TD1_14*%
X142214600Y-58572400D03*
%TO.P,J3,15,Pin_15*%
%TO.N,/TD1_15*%
X139674600Y-59842400D03*
%TO.P,J3,16,Pin_16*%
%TO.N,/TD1_16*%
X142214600Y-59842400D03*
%TO.P,J3,17,Pin_17*%
%TO.N,/TD1_17*%
X139674600Y-61112400D03*
%TO.P,J3,18,Pin_18*%
%TO.N,/TD1_18*%
X142214600Y-61112400D03*
%TO.P,J3,19,Pin_19*%
%TO.N,/TD1_19*%
X139674600Y-62382400D03*
%TO.P,J3,20,Pin_20*%
%TO.N,/TD1_20*%
X142214600Y-62382400D03*
%TO.P,J3,21,Pin_21*%
%TO.N,/TD1_21*%
X139674600Y-63652400D03*
%TO.P,J3,22,Pin_22*%
%TO.N,/TD1_22*%
X142214600Y-63652400D03*
%TO.P,J3,23,Pin_23*%
%TO.N,/TD1_23*%
X139674600Y-64922400D03*
%TO.P,J3,24,Pin_24*%
%TO.N,/TD1_24*%
X142214600Y-64922400D03*
%TO.P,J3,25,Pin_25*%
%TO.N,/TD1_25*%
X139674600Y-66192400D03*
%TO.P,J3,26,Pin_26*%
%TO.N,/TD1_26*%
X142214600Y-66192400D03*
%TO.P,J3,27,Pin_27*%
%TO.N,/TD1_27*%
X139674600Y-67462400D03*
%TO.P,J3,28,Pin_28*%
%TO.N,/TD1_28*%
X142214600Y-67462400D03*
%TO.P,J3,29,Pin_29*%
%TO.N,/TD1_29*%
X139674600Y-68732400D03*
%TO.P,J3,30,Pin_30*%
%TO.N,/TD1_30*%
X142214600Y-68732400D03*
%TO.P,J3,31,Pin_31*%
%TO.N,/TD1_31*%
X139674600Y-70002400D03*
%TO.P,J3,32,Pin_32*%
%TO.N,/TD1_32*%
X142214600Y-70002400D03*
%TO.P,J3,33,Pin_33*%
%TO.N,/TD1_33*%
X139674600Y-71272400D03*
%TO.P,J3,34,Pin_34*%
%TO.N,/TD1_34*%
X142214600Y-71272400D03*
%TD*%
D10*
%TO.P,J4,1,Pin_1*%
%TO.N,/TD2_1*%
X139659840Y-79857600D03*
D11*
%TO.P,J4,2,Pin_2*%
%TO.N,/TD2_2*%
X142220160Y-79857600D03*
%TO.P,J4,3,Pin_3*%
%TO.N,/TD2_3*%
X139670000Y-81127600D03*
%TO.P,J4,4,Pin_4*%
%TO.N,/TD2_4*%
X142210000Y-81127600D03*
%TO.P,J4,5,Pin_5*%
%TO.N,/TD2_5*%
X139670000Y-82397600D03*
%TO.P,J4,6,Pin_6*%
%TO.N,/TD2_6*%
X142210000Y-82397600D03*
%TO.P,J4,7,Pin_7*%
%TO.N,/TD2_7*%
X139670000Y-83667600D03*
%TO.P,J4,8,Pin_8*%
%TO.N,/TD2_8*%
X142210000Y-83667600D03*
%TO.P,J4,9,Pin_9*%
%TO.N,/TD2_10*%
X139670000Y-84937600D03*
%TO.P,J4,10,Pin_10*%
%TO.N,/TD2_9*%
X142210000Y-84937600D03*
%TO.P,J4,11,Pin_11*%
%TO.N,unconnected-(J4-Pad11)*%
X139670000Y-86207600D03*
%TO.P,J4,12,Pin_12*%
%TO.N,/TD2_11*%
X142210000Y-86207600D03*
%TO.P,J4,13,Pin_13*%
%TO.N,/TD2_13*%
X139670000Y-87477600D03*
%TO.P,J4,14,Pin_14*%
%TO.N,/TD2_14*%
X142210000Y-87477600D03*
%TO.P,J4,15,Pin_15*%
%TO.N,/TD2_15*%
X139670000Y-88747600D03*
%TO.P,J4,16,Pin_16*%
%TO.N,/TD2_16*%
X142210000Y-88747600D03*
%TO.P,J4,17,Pin_17*%
%TO.N,/TD2_17*%
X139670000Y-90017600D03*
%TO.P,J4,18,Pin_18*%
%TO.N,/TD2_18*%
X142210000Y-90017600D03*
%TO.P,J4,19,Pin_19*%
%TO.N,/TD2_19*%
X139670000Y-91287600D03*
%TO.P,J4,20,Pin_20*%
%TO.N,/TD2_20*%
X142210000Y-91287600D03*
%TO.P,J4,21,Pin_21*%
%TO.N,/TD2_21*%
X139670000Y-92557600D03*
%TO.P,J4,22,Pin_22*%
%TO.N,/TD2_22*%
X142210000Y-92557600D03*
%TO.P,J4,23,Pin_23*%
%TO.N,/TD2_23*%
X139670000Y-93827600D03*
%TO.P,J4,24,Pin_24*%
%TO.N,/TD2_24*%
X142210000Y-93827600D03*
%TO.P,J4,25,Pin_25*%
%TO.N,/TD2_25*%
X139670000Y-95097600D03*
%TO.P,J4,26,Pin_26*%
%TO.N,/TD2_26*%
X142210000Y-95097600D03*
%TO.P,J4,27,Pin_27*%
%TO.N,/TD2_27*%
X139670000Y-96367600D03*
%TO.P,J4,28,Pin_28*%
%TO.N,/TD2_28*%
X142210000Y-96367600D03*
%TO.P,J4,29,Pin_29*%
%TO.N,/TD2_29*%
X139670000Y-97637600D03*
%TO.P,J4,30,Pin_30*%
%TO.N,/TD2_30*%
X142210000Y-97637600D03*
%TO.P,J4,31,Pin_31*%
%TO.N,/TD2_31*%
X139670000Y-98907600D03*
%TO.P,J4,32,Pin_32*%
%TO.N,/TD2_32*%
X142210000Y-98907600D03*
%TO.P,J4,33,Pin_33*%
%TO.N,/TD2_33*%
X139670000Y-100177600D03*
%TO.P,J4,34,Pin_34*%
%TO.N,/TD2_34*%
X142210000Y-100177600D03*
%TD*%
D10*
%TO.P,J1,1,Pin_1*%
%TO.N,/TD1_1*%
X93969840Y-50901600D03*
D11*
%TO.P,J1,2,Pin_2*%
%TO.N,/TD1_2*%
X96530160Y-50901600D03*
%TO.P,J1,3,Pin_3*%
%TO.N,/TD1_3*%
X93980000Y-52171600D03*
%TO.P,J1,4,Pin_4*%
%TO.N,/TD1_4*%
X96520000Y-52171600D03*
%TO.P,J1,5,Pin_5*%
%TO.N,/TD1_5*%
X93980000Y-53441600D03*
%TO.P,J1,6,Pin_6*%
%TO.N,/TD1_6*%
X96520000Y-53441600D03*
%TO.P,J1,7,Pin_7*%
%TO.N,/TD1_7*%
X93980000Y-54711600D03*
%TO.P,J1,8,Pin_8*%
%TO.N,/TD1_8*%
X96520000Y-54711600D03*
%TO.P,J1,9,Pin_9*%
%TO.N,/TD1_9*%
X93980000Y-55981600D03*
%TO.P,J1,10,Pin_10*%
%TO.N,/TD1_10*%
X96520000Y-55981600D03*
%TO.P,J1,11,Pin_11*%
%TO.N,/TD1_11*%
X93980000Y-57251600D03*
%TO.P,J1,12,Pin_12*%
%TO.N,/TD1_12*%
X96520000Y-57251600D03*
%TO.P,J1,13,Pin_13*%
%TO.N,/TD1_13*%
X93980000Y-58521600D03*
%TO.P,J1,14,Pin_14*%
%TO.N,/TD1_14*%
X96520000Y-58521600D03*
%TO.P,J1,15,Pin_15*%
%TO.N,/TD1_15*%
X93980000Y-59791600D03*
%TO.P,J1,16,Pin_16*%
%TO.N,/TD1_16*%
X96520000Y-59791600D03*
%TO.P,J1,17,Pin_17*%
%TO.N,/TD1_17*%
X93980000Y-61061600D03*
%TO.P,J1,18,Pin_18*%
%TO.N,/TD1_18*%
X96520000Y-61061600D03*
%TO.P,J1,19,Pin_19*%
%TO.N,/TD1_19*%
X93980000Y-62331600D03*
%TO.P,J1,20,Pin_20*%
%TO.N,/TD1_20*%
X96520000Y-62331600D03*
%TO.P,J1,21,Pin_21*%
%TO.N,/TD1_21*%
X93980000Y-63601600D03*
%TO.P,J1,22,Pin_22*%
%TO.N,/TD1_22*%
X96520000Y-63601600D03*
%TO.P,J1,23,Pin_23*%
%TO.N,/TD1_23*%
X93980000Y-64871600D03*
%TO.P,J1,24,Pin_24*%
%TO.N,/TD1_24*%
X96520000Y-64871600D03*
%TO.P,J1,25,Pin_25*%
%TO.N,/TD1_25*%
X93980000Y-66141600D03*
%TO.P,J1,26,Pin_26*%
%TO.N,/TD1_26*%
X96520000Y-66141600D03*
%TO.P,J1,27,Pin_27*%
%TO.N,/TD1_27*%
X93980000Y-67411600D03*
%TO.P,J1,28,Pin_28*%
%TO.N,/TD1_28*%
X96520000Y-67411600D03*
%TO.P,J1,29,Pin_29*%
%TO.N,/TD1_29*%
X93980000Y-68681600D03*
%TO.P,J1,30,Pin_30*%
%TO.N,/TD1_30*%
X96520000Y-68681600D03*
%TO.P,J1,31,Pin_31*%
%TO.N,/TD1_31*%
X93980000Y-69951600D03*
D12*
%TO.P,J1,32,Pin_32*%
%TO.N,/TD1_32*%
X96520000Y-69951600D03*
D11*
%TO.P,J1,33,Pin_33*%
%TO.N,/TD1_33*%
X93980000Y-71221600D03*
D12*
%TO.P,J1,34,Pin_34*%
%TO.N,/TD1_34*%
X96520000Y-71221600D03*
%TD*%
D13*
%TO.N,/TD1_1*%
X95072200Y-50558700D02*
X93980000Y-50876200D01*
X97301812Y-50241200D02*
X97624900Y-50241200D01*
X135794709Y-50903716D02*
X100545662Y-50267554D01*
X138375139Y-50927000D02*
X139665459Y-50927000D01*
X95072200Y-50558699D02*
G75*
G02*
X97301812Y-50241200I2229600J-7669801D01*
G01*
X97624900Y-50241200D02*
G75*
G02*
X100545662Y-50267555I100J-161848900D01*
G01*
X138375139Y-50926999D02*
G75*
G02*
X135794709Y-50903716I161J143020199D01*
G01*
%TO.N,/TD1_2*%
X97820480Y-50901600D02*
X96530160Y-50901600D01*
X138892787Y-51587400D02*
X138569700Y-51587400D01*
X100400909Y-50924884D02*
X135648937Y-51561045D01*
X141122400Y-51269900D02*
X142214600Y-50952400D01*
X97820480Y-50901600D02*
G75*
G02*
X100400909Y-50924884I20J-142995600D01*
G01*
X138892787Y-51587395D02*
G75*
G03*
X141122400Y-51269900I13J7987395D01*
G01*
X138569700Y-51587399D02*
G75*
G02*
X135648937Y-51561044I0J161861099D01*
G01*
%TO.N,/TD1_3*%
X95072200Y-51854100D02*
X93980000Y-52171600D01*
X138369024Y-52197000D02*
X139659344Y-52197000D01*
X135788578Y-52174575D02*
X100545679Y-51561982D01*
X97301812Y-51536600D02*
X97624900Y-51536600D01*
X95072200Y-51854099D02*
G75*
G02*
X97301812Y-51536600I2229600J-7669801D01*
G01*
X138369024Y-52197000D02*
G75*
G02*
X135788578Y-52174575I176J148494200D01*
G01*
X97624900Y-51536600D02*
G75*
G02*
X100545679Y-51561983I100J-168047600D01*
G01*
%TO.N,/TD1_4*%
X97817573Y-52171600D02*
X96527253Y-52171600D01*
X138569700Y-52857400D02*
X138892787Y-52857400D01*
X141122400Y-52539900D02*
X142214600Y-52222400D01*
X135648937Y-52831047D02*
X100398002Y-52194882D01*
X138892787Y-52857395D02*
G75*
G03*
X141122400Y-52539900I13J7987395D01*
G01*
X97817573Y-52171600D02*
G75*
G02*
X100398002Y-52194882I127J-142995600D01*
G01*
X138569700Y-52857399D02*
G75*
G02*
X135648937Y-52831047I100J161885699D01*
G01*
%TO.N,/TD1_5*%
X95072200Y-53124100D02*
X93980000Y-53441600D01*
X138375139Y-53467000D02*
X139665459Y-53467000D01*
X135794693Y-53444578D02*
X100545679Y-52831978D01*
X97301812Y-52806600D02*
X97624900Y-52806600D01*
X138375139Y-53466999D02*
G75*
G02*
X135794693Y-53444578I61J148507499D01*
G01*
X95072200Y-53124099D02*
G75*
G02*
X97301812Y-52806600I2229600J-7669801D01*
G01*
X97624900Y-52806600D02*
G75*
G02*
X100545679Y-52831979I100J-168074100D01*
G01*
%TO.N,/TD1_6*%
X138564604Y-54127400D02*
X138887691Y-54127400D01*
X97820480Y-53416200D02*
X96530160Y-53416200D01*
X141117304Y-53809900D02*
X142209504Y-53492400D01*
X135643859Y-54100065D02*
X100400893Y-53440349D01*
X138887691Y-54127396D02*
G75*
G03*
X141117304Y-53809900I9J7987396D01*
G01*
X138564604Y-54127399D02*
G75*
G02*
X135643859Y-54100064I-4J156056699D01*
G01*
X97820480Y-53416201D02*
G75*
G02*
X100400893Y-53440349I120J-137866799D01*
G01*
%TO.N,/TD1_7*%
X95067180Y-54394100D02*
X93974980Y-54711600D01*
X100540659Y-54101975D02*
X135794693Y-54714581D01*
X97619880Y-54076600D02*
X97296792Y-54076600D01*
X138375139Y-54737000D02*
X139665459Y-54737000D01*
X138375139Y-54737000D02*
G75*
G02*
X135794693Y-54714581I61J148520700D01*
G01*
X97619880Y-54076601D02*
G75*
G02*
X100540659Y-54101976I220J-168087299D01*
G01*
X95067181Y-54394105D02*
G75*
G02*
X97296792Y-54076600I2229619J-7669795D01*
G01*
%TO.N,/TD1_8*%
X97820480Y-54737000D02*
X96530160Y-54737000D01*
X141122400Y-55079900D02*
X142214600Y-54762400D01*
X100400925Y-54759421D02*
X135648920Y-55372020D01*
X138569700Y-55397400D02*
X138892787Y-55397400D01*
X138892787Y-55397395D02*
G75*
G03*
X141122400Y-55079900I13J7987395D01*
G01*
X138569700Y-55397399D02*
G75*
G02*
X135648920Y-55372019I200J168100599D01*
G01*
X97820480Y-54737001D02*
G75*
G02*
X100400925Y-54759421I120J-148494199D01*
G01*
%TO.N,/TD1_9*%
X97624900Y-55346600D02*
X97301812Y-55346600D01*
X138375139Y-56007000D02*
X139665459Y-56007000D01*
X95072200Y-55664100D02*
X93980000Y-55981600D01*
X100545679Y-55371978D02*
X135794693Y-55984578D01*
X97624900Y-55346600D02*
G75*
G02*
X100545679Y-55371979I100J-168074100D01*
G01*
X95072200Y-55664099D02*
G75*
G02*
X97301812Y-55346600I2229600J-7669801D01*
G01*
X138375139Y-56006999D02*
G75*
G02*
X135794693Y-55984578I61J148507499D01*
G01*
%TO.N,/TD1_10*%
X100394794Y-56004880D02*
X135648937Y-56641049D01*
X138569700Y-56667400D02*
X138892787Y-56667400D01*
X97814365Y-55981600D02*
X96524045Y-55981600D01*
X141122400Y-56349900D02*
X142214600Y-56032400D01*
X97814365Y-55981601D02*
G75*
G02*
X100394794Y-56004881I35J-143020199D01*
G01*
X138569700Y-56667399D02*
G75*
G02*
X135648937Y-56641048I0J161885699D01*
G01*
X138892787Y-56667395D02*
G75*
G03*
X141122400Y-56349900I13J7987395D01*
G01*
%TO.N,/TD1_11*%
X95067104Y-56934100D02*
X93974904Y-57251600D01*
X97619804Y-56616600D02*
X97296716Y-56616600D01*
X138369024Y-57302400D02*
X139659344Y-57302400D01*
X100540566Y-56642954D02*
X135788594Y-57279115D01*
X138369024Y-57302400D02*
G75*
G02*
X135788594Y-57279114I176J143007900D01*
G01*
X95067103Y-56934098D02*
G75*
G02*
X97296716Y-56616600I2229597J-7669802D01*
G01*
X97619804Y-56616600D02*
G75*
G02*
X100540566Y-56642955I96J-161848900D01*
G01*
%TO.N,/TD1_12*%
X97814365Y-57251600D02*
X96524045Y-57251600D01*
X141122400Y-57619900D02*
X142214600Y-57302400D01*
X138892787Y-57937400D02*
X138569700Y-57937400D01*
X100394794Y-57274880D02*
X135648937Y-57911049D01*
X97814365Y-57251601D02*
G75*
G02*
X100394794Y-57274881I35J-143020199D01*
G01*
X138892787Y-57937395D02*
G75*
G03*
X141122400Y-57619900I13J7987395D01*
G01*
X138569700Y-57937399D02*
G75*
G02*
X135648937Y-57911048I0J161885699D01*
G01*
%TO.N,/TD1_13*%
X95072200Y-58204100D02*
X93980000Y-58521600D01*
X100545679Y-57911978D02*
X135794693Y-58524578D01*
X97301812Y-57886600D02*
X97624900Y-57886600D01*
X138375139Y-58547000D02*
X139665459Y-58547000D01*
X138375139Y-58546999D02*
G75*
G02*
X135794693Y-58524578I61J148507499D01*
G01*
X95072200Y-58204099D02*
G75*
G02*
X97301812Y-57886600I2229600J-7669801D01*
G01*
X97624900Y-57886600D02*
G75*
G02*
X100545679Y-57911979I100J-168074100D01*
G01*
%TO.N,/TD1_14*%
X138892787Y-59207400D02*
X138569700Y-59207400D01*
X141122400Y-58889900D02*
X142214600Y-58572400D01*
X97814365Y-58496200D02*
X96524045Y-58496200D01*
X135648955Y-59180073D02*
X100394779Y-58520342D01*
X138892787Y-59207395D02*
G75*
G03*
X141122400Y-58889900I13J7987395D01*
G01*
X97814365Y-58496201D02*
G75*
G02*
X100394779Y-58520343I135J-137901299D01*
G01*
X138569700Y-59207399D02*
G75*
G02*
X135648955Y-59180072I0J156102299D01*
G01*
%TO.N,/TD1_15*%
X95067104Y-59474100D02*
X93974904Y-59791600D01*
X138375139Y-59817000D02*
X139665459Y-59817000D01*
X97296716Y-59156600D02*
X97619804Y-59156600D01*
X135794693Y-59794581D02*
X100540583Y-59181975D01*
X97619804Y-59156600D02*
G75*
G02*
X100540583Y-59181975I196J-168087300D01*
G01*
X138375139Y-59817000D02*
G75*
G02*
X135794693Y-59794581I61J148520700D01*
G01*
X95067103Y-59474098D02*
G75*
G02*
X97296716Y-59156600I2229597J-7669802D01*
G01*
%TO.N,/TD1_16*%
X137147300Y-60477400D02*
X137121900Y-60477400D01*
X137121901Y-60477179D02*
X100400925Y-59839406D01*
X97820480Y-59817000D02*
X96530160Y-59817000D01*
X141122400Y-60159900D02*
X142214600Y-59842400D01*
X137121900Y-60477400D02*
X137109200Y-60477400D01*
X137147300Y-60477400D02*
X138892787Y-60477400D01*
X137147300Y-60477400D02*
G75*
G02*
X137121901Y-60477179I200J1479700D01*
G01*
X138892787Y-60477395D02*
G75*
G03*
X141122400Y-60159900I13J7987395D01*
G01*
X137121901Y-60477200D02*
G75*
G02*
X137121900Y-60477400I-1J-100D01*
G01*
X97820480Y-59817000D02*
G75*
G02*
X100400925Y-59839406I120J-148587000D01*
G01*
%TO.N,/TD1_17*%
X138375139Y-61087000D02*
X139665459Y-61087000D01*
X97296716Y-60426600D02*
X97619804Y-60426600D01*
X135794693Y-61064581D02*
X100540583Y-60451975D01*
X95067104Y-60744100D02*
X93974904Y-61061600D01*
X138375139Y-61087000D02*
G75*
G02*
X135794693Y-61064581I61J148520700D01*
G01*
X97619804Y-60426600D02*
G75*
G02*
X100540583Y-60451975I196J-168087300D01*
G01*
X95067103Y-60744098D02*
G75*
G02*
X97296716Y-60426600I2229597J-7669802D01*
G01*
%TO.N,/TD1_18*%
X97814365Y-61087000D02*
X96524045Y-61087000D01*
X138569700Y-61747400D02*
X138892787Y-61747400D01*
X135648920Y-61722024D02*
X100394810Y-61109418D01*
X141122400Y-61429900D02*
X142214600Y-61112400D01*
X97814365Y-61087000D02*
G75*
G02*
X100394810Y-61109418I135J-148507500D01*
G01*
X138892787Y-61747395D02*
G75*
G03*
X141122400Y-61429900I13J7987395D01*
G01*
X138569700Y-61747399D02*
G75*
G02*
X135648920Y-61722023I200J168127099D01*
G01*
%TO.N,/TD1_19*%
X100540583Y-61721979D02*
X135788578Y-62334578D01*
X97619804Y-61696600D02*
X97296716Y-61696600D01*
X95067104Y-62014100D02*
X93974904Y-62331600D01*
X138369024Y-62357000D02*
X139659344Y-62357000D01*
X97619804Y-61696600D02*
G75*
G02*
X100540583Y-61721979I196J-168060800D01*
G01*
X138369024Y-62356999D02*
G75*
G02*
X135788578Y-62334577I76J148507499D01*
G01*
X95067103Y-62014098D02*
G75*
G02*
X97296716Y-61696600I2229597J-7669802D01*
G01*
%TO.N,/TD1_20*%
X97814365Y-62357000D02*
X96524045Y-62357000D01*
X141122400Y-62699900D02*
X142214600Y-62382400D01*
X135648920Y-62992024D02*
X100394810Y-62379418D01*
X138569700Y-63017400D02*
X138892787Y-63017400D01*
X138569700Y-63017399D02*
G75*
G02*
X135648920Y-62992023I200J168127099D01*
G01*
X97814365Y-62357000D02*
G75*
G02*
X100394810Y-62379418I135J-148507500D01*
G01*
X138892787Y-63017395D02*
G75*
G03*
X141122400Y-62699900I13J7987395D01*
G01*
%TO.N,/TD1_21*%
X97619804Y-62966600D02*
X97296716Y-62966600D01*
X138375139Y-63677800D02*
X139665459Y-63677800D01*
X95067104Y-63284100D02*
X93974904Y-63601600D01*
X135794724Y-63653657D02*
X100540548Y-62993926D01*
X97619804Y-62966600D02*
G75*
G02*
X100540548Y-62993927I96J-156091100D01*
G01*
X95067103Y-63284098D02*
G75*
G02*
X97296716Y-62966600I2229597J-7669802D01*
G01*
X138375139Y-63677800D02*
G75*
G02*
X135794724Y-63653656I61J137912700D01*
G01*
%TO.N,/TD1_22*%
X141117304Y-63969900D02*
X142209504Y-63652400D01*
X97814365Y-63627000D02*
X96524045Y-63627000D01*
X100394810Y-63649421D02*
X135643824Y-64262021D01*
X138887691Y-64287400D02*
X138564604Y-64287400D01*
X138564604Y-64287399D02*
G75*
G02*
X135643824Y-64262021I-4J168087299D01*
G01*
X97814365Y-63627000D02*
G75*
G02*
X100394810Y-63649422I35J-148494200D01*
G01*
X138887691Y-64287396D02*
G75*
G03*
X141117304Y-63969900I9J7987396D01*
G01*
%TO.N,/TD1_23*%
X138375139Y-64922400D02*
X139665459Y-64922400D01*
X97619804Y-64236600D02*
X97296716Y-64236600D01*
X95067104Y-64554100D02*
X93974904Y-64871600D01*
X100540566Y-64262950D02*
X135794709Y-64899119D01*
X95067103Y-64554098D02*
G75*
G02*
X97296716Y-64236600I2229597J-7669802D01*
G01*
X97619804Y-64236600D02*
G75*
G02*
X100540566Y-64262951I96J-161873400D01*
G01*
X138375139Y-64922400D02*
G75*
G02*
X135794709Y-64899119I161J143032500D01*
G01*
%TO.N,/TD1_24*%
X141122400Y-65239900D02*
X142214600Y-64922400D01*
X135648937Y-65531044D02*
X100400909Y-64894884D01*
X97820480Y-64871600D02*
X96530160Y-64871600D01*
X138892787Y-65557400D02*
X138569700Y-65557400D01*
X97820480Y-64871600D02*
G75*
G02*
X100400909Y-64894884I20J-142995600D01*
G01*
X138569700Y-65557400D02*
G75*
G02*
X135648937Y-65531044I200J161873400D01*
G01*
X138892787Y-65557395D02*
G75*
G03*
X141122400Y-65239900I13J7987395D01*
G01*
%TO.N,/TD1_25*%
X138375139Y-66192400D02*
X139665459Y-66192400D01*
X135794709Y-66169119D02*
X100540566Y-65532950D01*
X97296716Y-65506600D02*
X97619804Y-65506600D01*
X95067104Y-65824100D02*
X93974904Y-66141600D01*
X95067103Y-65824098D02*
G75*
G02*
X97296716Y-65506600I2229597J-7669802D01*
G01*
X138375139Y-66192400D02*
G75*
G02*
X135794709Y-66169119I161J143032500D01*
G01*
X97619804Y-65506600D02*
G75*
G02*
X100540566Y-65532951I96J-161873400D01*
G01*
%TO.N,/TD1_26*%
X135643824Y-66802021D02*
X100394810Y-66189421D01*
X138564604Y-66827400D02*
X138887691Y-66827400D01*
X97814365Y-66167000D02*
X96524045Y-66167000D01*
X141117304Y-66509900D02*
X142209504Y-66192400D01*
X138564604Y-66827399D02*
G75*
G02*
X135643824Y-66802021I-4J168087299D01*
G01*
X138887691Y-66827396D02*
G75*
G03*
X141117304Y-66509900I9J7987396D01*
G01*
X97814365Y-66167000D02*
G75*
G02*
X100394810Y-66189422I35J-148494200D01*
G01*
%TO.N,/TD1_27*%
X135788578Y-67414578D02*
X100540583Y-66801979D01*
X138369024Y-67437000D02*
X139659344Y-67437000D01*
X95067104Y-67094100D02*
X93974904Y-67411600D01*
X97296716Y-66776600D02*
X97619804Y-66776600D01*
X97619804Y-66776600D02*
G75*
G02*
X100540583Y-66801979I196J-168060800D01*
G01*
X138369024Y-67436999D02*
G75*
G02*
X135788578Y-67414577I76J148507499D01*
G01*
X95067103Y-67094098D02*
G75*
G02*
X97296716Y-66776600I2229597J-7669802D01*
G01*
%TO.N,/TD1_28*%
X141122324Y-67779900D02*
X142214524Y-67462400D01*
X100394810Y-67459418D02*
X135648844Y-68072024D01*
X138892711Y-68097400D02*
X138569624Y-68097400D01*
X97814365Y-67437000D02*
X96524045Y-67437000D01*
X138892711Y-68097401D02*
G75*
G03*
X141122324Y-67779899I-11J7987401D01*
G01*
X138569624Y-68097399D02*
G75*
G02*
X135648844Y-68072023I176J168127099D01*
G01*
X97814365Y-67437000D02*
G75*
G02*
X100394810Y-67459418I135J-148507500D01*
G01*
%TO.N,/TD1_29*%
X95072200Y-68364100D02*
X93980000Y-68681600D01*
X97301812Y-68046600D02*
X97624900Y-68046600D01*
X138369024Y-68757800D02*
X139659344Y-68757800D01*
X135788610Y-68733650D02*
X100545644Y-68073934D01*
X138369024Y-68757799D02*
G75*
G02*
X135788610Y-68733649I76J137878299D01*
G01*
X97624900Y-68046600D02*
G75*
G02*
X100545644Y-68073935I100J-156045500D01*
G01*
X95072200Y-68364099D02*
G75*
G02*
X97301812Y-68046600I2229600J-7669801D01*
G01*
%TO.N,/TD1_30*%
X97814365Y-68707000D02*
X96524045Y-68707000D01*
X138564604Y-69367400D02*
X138887691Y-69367400D01*
X100394810Y-68729421D02*
X135643824Y-69342021D01*
X141117304Y-69049900D02*
X142209504Y-68732400D01*
X138564604Y-69367399D02*
G75*
G02*
X135643824Y-69342021I-4J168087299D01*
G01*
X138887691Y-69367396D02*
G75*
G03*
X141117304Y-69049900I9J7987396D01*
G01*
X97814365Y-68707000D02*
G75*
G02*
X100394810Y-68729422I35J-148494200D01*
G01*
%TO.N,/TD1_31*%
X100540566Y-69342952D02*
X135791501Y-69979117D01*
X97619804Y-69316600D02*
X97296716Y-69316600D01*
X138371931Y-70002400D02*
X139662251Y-70002400D01*
X95067104Y-69634100D02*
X93974904Y-69951600D01*
X138371931Y-70002400D02*
G75*
G02*
X135791501Y-69979116I69J143007900D01*
G01*
X95067103Y-69634098D02*
G75*
G02*
X97296716Y-69316600I2229597J-7669802D01*
G01*
X97619804Y-69316600D02*
G75*
G02*
X100540566Y-69342953I-4J-161873400D01*
G01*
%TO.N,/TD1_32*%
X100400925Y-69999424D02*
X135643824Y-70612017D01*
X141117304Y-70319900D02*
X142209504Y-70002400D01*
X138564604Y-70637400D02*
X138887691Y-70637400D01*
X97820480Y-69977000D02*
X96530160Y-69977000D01*
X138564604Y-70637399D02*
G75*
G02*
X135643824Y-70612017I-4J168060799D01*
G01*
X97820480Y-69977000D02*
G75*
G02*
X100400925Y-69999424I20J-148481000D01*
G01*
X138887691Y-70637396D02*
G75*
G03*
X141117304Y-70319900I9J7987396D01*
G01*
%TO.N,/TD1_33*%
X135788594Y-71249115D02*
X100540566Y-70612954D01*
X97619804Y-70586600D02*
X97296716Y-70586600D01*
X138369024Y-71272400D02*
X139659344Y-71272400D01*
X95067104Y-70904100D02*
X93974904Y-71221600D01*
X95067103Y-70904098D02*
G75*
G02*
X97296716Y-70586600I2229597J-7669802D01*
G01*
X97619804Y-70586600D02*
G75*
G02*
X100540566Y-70612955I96J-161848900D01*
G01*
X138369024Y-71272400D02*
G75*
G02*
X135788594Y-71249114I176J143007900D01*
G01*
%TO.N,/TD1_34*%
X138564604Y-71932800D02*
X138887691Y-71932800D01*
X97814365Y-71247000D02*
X96524045Y-71247000D01*
X141117304Y-71615300D02*
X142209504Y-71297800D01*
X135643841Y-71906445D02*
X100394794Y-71270283D01*
X138887691Y-71932796D02*
G75*
G03*
X141117304Y-71615300I9J7987396D01*
G01*
X97814365Y-71247001D02*
G75*
G02*
X100394794Y-71270283I235J-142983399D01*
G01*
X138564604Y-71932799D02*
G75*
G02*
X135643841Y-71906445I-4J161861099D01*
G01*
%TO.N,/TD2_1*%
X97357708Y-79146400D02*
X97680796Y-79146400D01*
X138431035Y-79832200D02*
X139721355Y-79832200D01*
X95128096Y-79463900D02*
X94035896Y-79781400D01*
X100601558Y-79172754D02*
X135850605Y-79808916D01*
X138431035Y-79832199D02*
G75*
G02*
X135850605Y-79808916I165J143020199D01*
G01*
X97680796Y-79146400D02*
G75*
G02*
X100601558Y-79172755I104J-161848900D01*
G01*
X95128096Y-79463900D02*
G75*
G02*
X97357708Y-79146400I2229604J-7669800D01*
G01*
%TO.N,/TD2_2*%
X97876376Y-79806800D02*
X96586056Y-79806800D01*
X141178296Y-80175100D02*
X142270496Y-79857600D01*
X138625596Y-80492600D02*
X138948683Y-80492600D01*
X135704833Y-80466244D02*
X100456805Y-79830084D01*
X138948683Y-80492594D02*
G75*
G03*
X141178296Y-80175100I17J7987394D01*
G01*
X138625596Y-80492600D02*
G75*
G02*
X135704833Y-80466244I204J161873400D01*
G01*
X97876376Y-79806800D02*
G75*
G02*
X100456805Y-79830084I24J-142995600D01*
G01*
%TO.N,/TD2_3*%
X100601575Y-80467182D02*
X135844474Y-81079775D01*
X97357708Y-80441800D02*
X97680796Y-80441800D01*
X95128096Y-80759300D02*
X94035896Y-81076800D01*
X138424920Y-81102200D02*
X139715240Y-81102200D01*
X95128096Y-80759300D02*
G75*
G02*
X97357708Y-80441800I2229604J-7669800D01*
G01*
X97680796Y-80441800D02*
G75*
G02*
X100601575Y-80467183I104J-168047600D01*
G01*
X138424920Y-81102200D02*
G75*
G02*
X135844474Y-81079774I180J148494200D01*
G01*
%TO.N,/TD2_4*%
X138948683Y-81762600D02*
X138625596Y-81762600D01*
X100453898Y-81100082D02*
X135704833Y-81736247D01*
X97873469Y-81076800D02*
X96583149Y-81076800D01*
X141178296Y-81445100D02*
X142270496Y-81127600D01*
X138625596Y-81762599D02*
G75*
G02*
X135704833Y-81736247I104J161885699D01*
G01*
X97873469Y-81076800D02*
G75*
G02*
X100453898Y-81100082I131J-142995600D01*
G01*
X138948683Y-81762594D02*
G75*
G03*
X141178296Y-81445100I17J7987394D01*
G01*
%TO.N,/TD2_5*%
X95128096Y-82029300D02*
X94035896Y-82346800D01*
X138431035Y-82372200D02*
X139721355Y-82372200D01*
X97680796Y-81711800D02*
X97357708Y-81711800D01*
X135850589Y-82349778D02*
X100601575Y-81737178D01*
X95128096Y-82029300D02*
G75*
G02*
X97357708Y-81711800I2229604J-7669800D01*
G01*
X138431035Y-82372199D02*
G75*
G02*
X135850589Y-82349777I65J148507499D01*
G01*
X97680796Y-81711800D02*
G75*
G02*
X100601575Y-81737179I104J-168074100D01*
G01*
%TO.N,/TD2_6*%
X138620500Y-83032600D02*
X138943587Y-83032600D01*
X97876376Y-82321400D02*
X96586056Y-82321400D01*
X141173200Y-82715100D02*
X142265400Y-82397600D01*
X135699755Y-83005265D02*
X100456789Y-82345549D01*
X138620500Y-83032599D02*
G75*
G02*
X135699755Y-83005264I0J156056699D01*
G01*
X97876376Y-82321401D02*
G75*
G02*
X100456789Y-82345549I124J-137866799D01*
G01*
X138943587Y-83032595D02*
G75*
G03*
X141173200Y-82715100I13J7987395D01*
G01*
%TO.N,/TD2_7*%
X138431035Y-83642200D02*
X139721355Y-83642200D01*
X135850589Y-83619781D02*
X100596555Y-83007175D01*
X95123076Y-83299300D02*
X94030876Y-83616800D01*
X97675776Y-82981800D02*
X97352688Y-82981800D01*
X95123078Y-83299306D02*
G75*
G02*
X97352688Y-82981800I2229622J-7669794D01*
G01*
X97675776Y-82981801D02*
G75*
G02*
X100596555Y-83007176I224J-168087299D01*
G01*
X138431035Y-83642200D02*
G75*
G02*
X135850589Y-83619780I65J148520700D01*
G01*
%TO.N,/TD2_8*%
X97876376Y-83642200D02*
X96586056Y-83642200D01*
X138625596Y-84302600D02*
X138948683Y-84302600D01*
X135704816Y-84277220D02*
X100456821Y-83664621D01*
X141178296Y-83985100D02*
X142270496Y-83667600D01*
X138625596Y-84302600D02*
G75*
G02*
X135704816Y-84277220I204J168100600D01*
G01*
X138948683Y-84302594D02*
G75*
G03*
X141178296Y-83985100I17J7987394D01*
G01*
X97876376Y-83642201D02*
G75*
G02*
X100456821Y-83664621I124J-148494199D01*
G01*
%TO.N,/TD2_13*%
X138431035Y-87452200D02*
X139721355Y-87452200D01*
X97680796Y-86791800D02*
X97357708Y-86791800D01*
X95128096Y-87109300D02*
X94035896Y-87426800D01*
X100601575Y-86817178D02*
X135850589Y-87429778D01*
X97680796Y-86791800D02*
G75*
G02*
X100601575Y-86817179I104J-168074100D01*
G01*
X138431035Y-87452199D02*
G75*
G02*
X135850589Y-87429777I65J148507499D01*
G01*
X95128096Y-87109300D02*
G75*
G02*
X97357708Y-86791800I2229604J-7669800D01*
G01*
%TO.N,/TD2_14*%
X135704851Y-88085273D02*
X100450675Y-87425542D01*
X97870261Y-87401400D02*
X96579941Y-87401400D01*
X138948683Y-88112600D02*
X138625596Y-88112600D01*
X141178296Y-87795100D02*
X142270496Y-87477600D01*
X97870261Y-87401401D02*
G75*
G02*
X100450675Y-87425543I139J-137901299D01*
G01*
X138948683Y-88112594D02*
G75*
G03*
X141178296Y-87795100I17J7987394D01*
G01*
X138625596Y-88112599D02*
G75*
G02*
X135704851Y-88085272I4J156102299D01*
G01*
%TO.N,/TD2_15*%
X138431035Y-88722200D02*
X139721355Y-88722200D01*
X100596479Y-88087175D02*
X135850589Y-88699781D01*
X97675700Y-88061800D02*
X97352612Y-88061800D01*
X95123000Y-88379300D02*
X94030800Y-88696800D01*
X95123000Y-88379299D02*
G75*
G02*
X97352612Y-88061800I2229600J-7669801D01*
G01*
X97675700Y-88061801D02*
G75*
G02*
X100596479Y-88087176I200J-168087299D01*
G01*
X138431035Y-88722200D02*
G75*
G02*
X135850589Y-88699780I65J148520700D01*
G01*
%TO.N,/TD2_16*%
X141178296Y-89065100D02*
X142270496Y-88747600D01*
X137177796Y-89382600D02*
X137165096Y-89382600D01*
X138948683Y-89382600D02*
X137203196Y-89382600D01*
X97876376Y-88722200D02*
X96586056Y-88722200D01*
X137203196Y-89382600D02*
X137177796Y-89382600D01*
X137177797Y-89382379D02*
X100456821Y-88744606D01*
X138948683Y-89382594D02*
G75*
G03*
X141178296Y-89065100I17J7987394D01*
G01*
X137203196Y-89382600D02*
G75*
G02*
X137177797Y-89382378I204J1479700D01*
G01*
X137177798Y-89382400D02*
G75*
G02*
X137177796Y-89382600I2J-100D01*
G01*
X97876376Y-88722200D02*
G75*
G02*
X100456821Y-88744606I124J-148587000D01*
G01*
%TO.N,/TD2_17*%
X135850589Y-89969781D02*
X100596479Y-89357175D01*
X138431035Y-89992200D02*
X139721355Y-89992200D01*
X95123000Y-89649300D02*
X94030800Y-89966800D01*
X97675700Y-89331800D02*
X97352612Y-89331800D01*
X138431035Y-89992200D02*
G75*
G02*
X135850589Y-89969780I65J148520700D01*
G01*
X97675700Y-89331801D02*
G75*
G02*
X100596479Y-89357176I200J-168087299D01*
G01*
X95123000Y-89649299D02*
G75*
G02*
X97352612Y-89331800I2229600J-7669801D01*
G01*
%TO.N,/TD2_18*%
X135704816Y-90627224D02*
X100450706Y-90014618D01*
X138948683Y-90652600D02*
X138625596Y-90652600D01*
X97870261Y-89992200D02*
X96579941Y-89992200D01*
X141178296Y-90335100D02*
X142270496Y-90017600D01*
X138948683Y-90652594D02*
G75*
G03*
X141178296Y-90335100I17J7987394D01*
G01*
X97870261Y-89992201D02*
G75*
G02*
X100450706Y-90014619I139J-148507499D01*
G01*
X138625596Y-90652600D02*
G75*
G02*
X135704816Y-90627224I204J168127100D01*
G01*
%TO.N,/TD2_19*%
X100596479Y-90627179D02*
X135844474Y-91239778D01*
X95123000Y-90919300D02*
X94030800Y-91236800D01*
X97675700Y-90601800D02*
X97352612Y-90601800D01*
X138424920Y-91262200D02*
X139715240Y-91262200D01*
X95123000Y-90919299D02*
G75*
G02*
X97352612Y-90601800I2229600J-7669801D01*
G01*
X138424920Y-91262199D02*
G75*
G02*
X135844474Y-91239777I80J148507499D01*
G01*
X97675700Y-90601801D02*
G75*
G02*
X100596479Y-90627180I200J-168060799D01*
G01*
%TO.N,/TD2_20*%
X97870261Y-91262200D02*
X96579941Y-91262200D01*
X141178296Y-91605100D02*
X142270496Y-91287600D01*
X135704816Y-91897224D02*
X100450706Y-91284618D01*
X138948683Y-91922600D02*
X138625596Y-91922600D01*
X138625596Y-91922600D02*
G75*
G02*
X135704816Y-91897224I204J168127100D01*
G01*
X138948683Y-91922594D02*
G75*
G03*
X141178296Y-91605100I17J7987394D01*
G01*
X97870261Y-91262201D02*
G75*
G02*
X100450706Y-91284619I139J-148507499D01*
G01*
%TO.N,/TD2_21*%
X97352612Y-91871800D02*
X97675700Y-91871800D01*
X138431035Y-92583000D02*
X139721355Y-92583000D01*
X135850620Y-92558857D02*
X100596444Y-91899126D01*
X95123000Y-92189300D02*
X94030800Y-92506800D01*
X97675700Y-91871800D02*
G75*
G02*
X100596444Y-91899127I100J-156091100D01*
G01*
X95123000Y-92189299D02*
G75*
G02*
X97352612Y-91871800I2229600J-7669801D01*
G01*
X138431035Y-92583000D02*
G75*
G02*
X135850620Y-92558856I65J137912700D01*
G01*
%TO.N,/TD2_22*%
X97870261Y-92532200D02*
X96579941Y-92532200D01*
X138943587Y-93192600D02*
X138620500Y-93192600D01*
X141173200Y-92875100D02*
X142265400Y-92557600D01*
X135699720Y-93167221D02*
X100450706Y-92554621D01*
X97870261Y-92532200D02*
G75*
G02*
X100450706Y-92554622I39J-148494200D01*
G01*
X138620500Y-93192599D02*
G75*
G02*
X135699720Y-93167221I0J168087299D01*
G01*
X138943587Y-93192595D02*
G75*
G03*
X141173200Y-92875100I13J7987395D01*
G01*
%TO.N,/TD2_23*%
X135850605Y-93804319D02*
X100596462Y-93168150D01*
X97675700Y-93141800D02*
X97352612Y-93141800D01*
X95123000Y-93459300D02*
X94030800Y-93776800D01*
X138431035Y-93827600D02*
X139721355Y-93827600D01*
X138431035Y-93827600D02*
G75*
G02*
X135850605Y-93804319I165J143032500D01*
G01*
X95123000Y-93459299D02*
G75*
G02*
X97352612Y-93141800I2229600J-7669801D01*
G01*
X97675700Y-93141800D02*
G75*
G02*
X100596462Y-93168151I100J-161873400D01*
G01*
%TO.N,/TD2_24*%
X138625596Y-94462600D02*
X138948683Y-94462600D01*
X97876376Y-93776800D02*
X96586056Y-93776800D01*
X135704833Y-94436244D02*
X100456805Y-93800084D01*
X141178296Y-94145100D02*
X142270496Y-93827600D01*
X97876376Y-93776800D02*
G75*
G02*
X100456805Y-93800084I24J-142995600D01*
G01*
X138948683Y-94462594D02*
G75*
G03*
X141178296Y-94145100I17J7987394D01*
G01*
X138625596Y-94462600D02*
G75*
G02*
X135704833Y-94436244I204J161873400D01*
G01*
%TO.N,/TD2_25*%
X138431035Y-95097600D02*
X139721355Y-95097600D01*
X100596462Y-94438150D02*
X135850605Y-95074319D01*
X97675700Y-94411800D02*
X97352612Y-94411800D01*
X95123000Y-94729300D02*
X94030800Y-95046800D01*
X97675700Y-94411800D02*
G75*
G02*
X100596462Y-94438151I100J-161873400D01*
G01*
X138431035Y-95097600D02*
G75*
G02*
X135850605Y-95074319I165J143032500D01*
G01*
X95123000Y-94729299D02*
G75*
G02*
X97352612Y-94411800I2229600J-7669801D01*
G01*
%TO.N,/TD2_26*%
X141173200Y-95415100D02*
X142265400Y-95097600D01*
X97870261Y-95072200D02*
X96579941Y-95072200D01*
X138620500Y-95732600D02*
X138943587Y-95732600D01*
X135699720Y-95707221D02*
X100450706Y-95094621D01*
X138943587Y-95732595D02*
G75*
G03*
X141173200Y-95415100I13J7987395D01*
G01*
X97870261Y-95072200D02*
G75*
G02*
X100450706Y-95094622I39J-148494200D01*
G01*
X138620500Y-95732599D02*
G75*
G02*
X135699720Y-95707221I0J168087299D01*
G01*
%TO.N,/TD2_27*%
X97675700Y-95681800D02*
X97352612Y-95681800D01*
X100596479Y-95707179D02*
X135844474Y-96319778D01*
X95123000Y-95999300D02*
X94030800Y-96316800D01*
X138424920Y-96342200D02*
X139715240Y-96342200D01*
X138424920Y-96342199D02*
G75*
G02*
X135844474Y-96319777I80J148507499D01*
G01*
X95123000Y-95999299D02*
G75*
G02*
X97352612Y-95681800I2229600J-7669801D01*
G01*
X97675700Y-95681801D02*
G75*
G02*
X100596479Y-95707180I200J-168060799D01*
G01*
%TO.N,/TD2_28*%
X97870261Y-96342200D02*
X96579941Y-96342200D01*
X100450706Y-96364618D02*
X135704740Y-96977224D01*
X138625520Y-97002600D02*
X138948607Y-97002600D01*
X141178220Y-96685100D02*
X142270420Y-96367600D01*
X138625520Y-97002599D02*
G75*
G02*
X135704740Y-96977223I180J168127099D01*
G01*
X97870261Y-96342201D02*
G75*
G02*
X100450706Y-96364619I139J-148507499D01*
G01*
X138948607Y-97002600D02*
G75*
G03*
X141178220Y-96685099I-7J7987400D01*
G01*
%TO.N,/TD2_29*%
X138424920Y-97663000D02*
X139715240Y-97663000D01*
X97680796Y-96951800D02*
X97357708Y-96951800D01*
X100601540Y-96979134D02*
X135844506Y-97638850D01*
X95128096Y-97269300D02*
X94035896Y-97586800D01*
X97680796Y-96951800D02*
G75*
G02*
X100601540Y-96979135I104J-156045500D01*
G01*
X95128096Y-97269300D02*
G75*
G02*
X97357708Y-96951800I2229604J-7669800D01*
G01*
X138424920Y-97663000D02*
G75*
G02*
X135844506Y-97638850I80J137878300D01*
G01*
%TO.N,/TD2_30*%
X141173200Y-97955100D02*
X142265400Y-97637600D01*
X135699720Y-98247221D02*
X100450706Y-97634621D01*
X97870261Y-97612200D02*
X96579941Y-97612200D01*
X138620500Y-98272600D02*
X138943587Y-98272600D01*
X97870261Y-97612200D02*
G75*
G02*
X100450706Y-97634622I39J-148494200D01*
G01*
X138620500Y-98272599D02*
G75*
G02*
X135699720Y-98247221I0J168087299D01*
G01*
X138943587Y-98272595D02*
G75*
G03*
X141173200Y-97955100I13J7987395D01*
G01*
%TO.N,/TD2_31*%
X138427827Y-98907600D02*
X139718147Y-98907600D01*
X135847397Y-98884317D02*
X100596462Y-98248152D01*
X97352612Y-98221800D02*
X97675700Y-98221800D01*
X95123000Y-98539300D02*
X94030800Y-98856800D01*
X97675700Y-98221800D02*
G75*
G02*
X100596462Y-98248153I0J-161873400D01*
G01*
X95123000Y-98539299D02*
G75*
G02*
X97352612Y-98221800I2229600J-7669801D01*
G01*
X138427827Y-98907600D02*
G75*
G02*
X135847397Y-98884316I73J143007900D01*
G01*
%TO.N,/TD2_32*%
X100456821Y-98904624D02*
X135699720Y-99517217D01*
X97876376Y-98882200D02*
X96586056Y-98882200D01*
X141173200Y-99225100D02*
X142265400Y-98907600D01*
X138943587Y-99542600D02*
X138620500Y-99542600D01*
X138943587Y-99542595D02*
G75*
G03*
X141173200Y-99225100I13J7987395D01*
G01*
X97876376Y-98882201D02*
G75*
G02*
X100456821Y-98904625I24J-148480999D01*
G01*
X138620500Y-99542599D02*
G75*
G02*
X135699720Y-99517217I0J168060799D01*
G01*
%TO.N,/TD2_33*%
X97352612Y-99491800D02*
X97675700Y-99491800D01*
X135844490Y-100154315D02*
X100596462Y-99518154D01*
X95123000Y-99809300D02*
X94030800Y-100126800D01*
X138424920Y-100177600D02*
X139715240Y-100177600D01*
X95123000Y-99809299D02*
G75*
G02*
X97352612Y-99491800I2229600J-7669801D01*
G01*
X97675700Y-99491800D02*
G75*
G02*
X100596462Y-99518155I100J-161848900D01*
G01*
X138424920Y-100177600D02*
G75*
G02*
X135844490Y-100154314I180J143007900D01*
G01*
%TO.N,/TD2_34*%
X141173200Y-100520500D02*
X142265400Y-100203000D01*
X97870261Y-100152200D02*
X96579941Y-100152200D01*
X100450690Y-100175483D02*
X135699737Y-100811645D01*
X138943587Y-100838000D02*
X138620500Y-100838000D01*
X97870261Y-100152201D02*
G75*
G02*
X100450690Y-100175483I239J-142983399D01*
G01*
X138620500Y-100837999D02*
G75*
G02*
X135699737Y-100811644I0J161861099D01*
G01*
X138943587Y-100837995D02*
G75*
G03*
X141173200Y-100520500I13J7987395D01*
G01*
%TD*%
M02*
