%TF.GenerationSoftware,KiCad,Pcbnew,(6.0.8)*%
%TF.CreationDate,2022-10-20T17:28:58-04:00*%
%TF.ProjectId,DCT_2_to_1_mini_board,4443545f-325f-4746-9f5f-315f6d696e69,rev?*%
%TF.SameCoordinates,Original*%
%TF.FileFunction,Drillmap*%
%TF.FilePolarity,Positive*%
%FSLAX45Y45*%
G04 Gerber Fmt 4.5, Leading zero omitted, Abs format (unit mm)*
G04 Created by KiCad (PCBNEW (6.0.8)) date 2022-10-20 17:28:58*
%MOMM*%
%LPD*%
G01*
G04 APERTURE LIST*
%ADD10C,0.100000*%
%ADD11C,0.200000*%
%ADD12C,0.056000*%
G04 APERTURE END LIST*
D10*
X9144000Y-4699000D02*
X14478000Y-4699000D01*
X14478000Y-4699000D02*
X14478000Y-10414000D01*
X14478000Y-10414000D02*
X9144000Y-10414000D01*
X9144000Y-10414000D02*
X9144000Y-4699000D01*
D11*
D12*
X9368984Y-5052000D02*
X9424984Y-5108000D01*
X9424984Y-5052000D02*
X9368984Y-5108000D01*
X9368984Y-7973000D02*
X9424984Y-8029000D01*
X9424984Y-7973000D02*
X9368984Y-8029000D01*
X9370000Y-5179000D02*
X9426000Y-5235000D01*
X9426000Y-5179000D02*
X9370000Y-5235000D01*
X9370000Y-5306000D02*
X9426000Y-5362000D01*
X9426000Y-5306000D02*
X9370000Y-5362000D01*
X9370000Y-5433000D02*
X9426000Y-5489000D01*
X9426000Y-5433000D02*
X9370000Y-5489000D01*
X9370000Y-5560000D02*
X9426000Y-5616000D01*
X9426000Y-5560000D02*
X9370000Y-5616000D01*
X9370000Y-5687000D02*
X9426000Y-5743000D01*
X9426000Y-5687000D02*
X9370000Y-5743000D01*
X9370000Y-5814000D02*
X9426000Y-5870000D01*
X9426000Y-5814000D02*
X9370000Y-5870000D01*
X9370000Y-5941000D02*
X9426000Y-5997000D01*
X9426000Y-5941000D02*
X9370000Y-5997000D01*
X9370000Y-6068000D02*
X9426000Y-6124000D01*
X9426000Y-6068000D02*
X9370000Y-6124000D01*
X9370000Y-6195000D02*
X9426000Y-6251000D01*
X9426000Y-6195000D02*
X9370000Y-6251000D01*
X9370000Y-6322000D02*
X9426000Y-6378000D01*
X9426000Y-6322000D02*
X9370000Y-6378000D01*
X9370000Y-6449000D02*
X9426000Y-6505000D01*
X9426000Y-6449000D02*
X9370000Y-6505000D01*
X9370000Y-6576000D02*
X9426000Y-6632000D01*
X9426000Y-6576000D02*
X9370000Y-6632000D01*
X9370000Y-6703000D02*
X9426000Y-6759000D01*
X9426000Y-6703000D02*
X9370000Y-6759000D01*
X9370000Y-6830000D02*
X9426000Y-6886000D01*
X9426000Y-6830000D02*
X9370000Y-6886000D01*
X9370000Y-6957000D02*
X9426000Y-7013000D01*
X9426000Y-6957000D02*
X9370000Y-7013000D01*
X9370000Y-7084000D02*
X9426000Y-7140000D01*
X9426000Y-7084000D02*
X9370000Y-7140000D01*
X9370000Y-8100000D02*
X9426000Y-8156000D01*
X9426000Y-8100000D02*
X9370000Y-8156000D01*
X9370000Y-8227000D02*
X9426000Y-8283000D01*
X9426000Y-8227000D02*
X9370000Y-8283000D01*
X9370000Y-8354000D02*
X9426000Y-8410000D01*
X9426000Y-8354000D02*
X9370000Y-8410000D01*
X9370000Y-8481000D02*
X9426000Y-8537000D01*
X9426000Y-8481000D02*
X9370000Y-8537000D01*
X9370000Y-8608000D02*
X9426000Y-8664000D01*
X9426000Y-8608000D02*
X9370000Y-8664000D01*
X9370000Y-8735000D02*
X9426000Y-8791000D01*
X9426000Y-8735000D02*
X9370000Y-8791000D01*
X9370000Y-8862000D02*
X9426000Y-8918000D01*
X9426000Y-8862000D02*
X9370000Y-8918000D01*
X9370000Y-8989000D02*
X9426000Y-9045000D01*
X9426000Y-8989000D02*
X9370000Y-9045000D01*
X9370000Y-9116000D02*
X9426000Y-9172000D01*
X9426000Y-9116000D02*
X9370000Y-9172000D01*
X9370000Y-9243000D02*
X9426000Y-9299000D01*
X9426000Y-9243000D02*
X9370000Y-9299000D01*
X9370000Y-9370000D02*
X9426000Y-9426000D01*
X9426000Y-9370000D02*
X9370000Y-9426000D01*
X9370000Y-9497000D02*
X9426000Y-9553000D01*
X9426000Y-9497000D02*
X9370000Y-9553000D01*
X9370000Y-9624000D02*
X9426000Y-9680000D01*
X9426000Y-9624000D02*
X9370000Y-9680000D01*
X9370000Y-9751000D02*
X9426000Y-9807000D01*
X9426000Y-9751000D02*
X9370000Y-9807000D01*
X9370000Y-9878000D02*
X9426000Y-9934000D01*
X9426000Y-9878000D02*
X9370000Y-9934000D01*
X9370000Y-10005000D02*
X9426000Y-10061000D01*
X9426000Y-10005000D02*
X9370000Y-10061000D01*
X9624000Y-5179000D02*
X9680000Y-5235000D01*
X9680000Y-5179000D02*
X9624000Y-5235000D01*
X9624000Y-5306000D02*
X9680000Y-5362000D01*
X9680000Y-5306000D02*
X9624000Y-5362000D01*
X9624000Y-5433000D02*
X9680000Y-5489000D01*
X9680000Y-5433000D02*
X9624000Y-5489000D01*
X9624000Y-5560000D02*
X9680000Y-5616000D01*
X9680000Y-5560000D02*
X9624000Y-5616000D01*
X9624000Y-5687000D02*
X9680000Y-5743000D01*
X9680000Y-5687000D02*
X9624000Y-5743000D01*
X9624000Y-5814000D02*
X9680000Y-5870000D01*
X9680000Y-5814000D02*
X9624000Y-5870000D01*
X9624000Y-5941000D02*
X9680000Y-5997000D01*
X9680000Y-5941000D02*
X9624000Y-5997000D01*
X9624000Y-6068000D02*
X9680000Y-6124000D01*
X9680000Y-6068000D02*
X9624000Y-6124000D01*
X9624000Y-6195000D02*
X9680000Y-6251000D01*
X9680000Y-6195000D02*
X9624000Y-6251000D01*
X9624000Y-6322000D02*
X9680000Y-6378000D01*
X9680000Y-6322000D02*
X9624000Y-6378000D01*
X9624000Y-6449000D02*
X9680000Y-6505000D01*
X9680000Y-6449000D02*
X9624000Y-6505000D01*
X9624000Y-6576000D02*
X9680000Y-6632000D01*
X9680000Y-6576000D02*
X9624000Y-6632000D01*
X9624000Y-6703000D02*
X9680000Y-6759000D01*
X9680000Y-6703000D02*
X9624000Y-6759000D01*
X9624000Y-6830000D02*
X9680000Y-6886000D01*
X9680000Y-6830000D02*
X9624000Y-6886000D01*
X9624000Y-6957000D02*
X9680000Y-7013000D01*
X9680000Y-6957000D02*
X9624000Y-7013000D01*
X9624000Y-7084000D02*
X9680000Y-7140000D01*
X9680000Y-7084000D02*
X9624000Y-7140000D01*
X9624000Y-8100000D02*
X9680000Y-8156000D01*
X9680000Y-8100000D02*
X9624000Y-8156000D01*
X9624000Y-8227000D02*
X9680000Y-8283000D01*
X9680000Y-8227000D02*
X9624000Y-8283000D01*
X9624000Y-8354000D02*
X9680000Y-8410000D01*
X9680000Y-8354000D02*
X9624000Y-8410000D01*
X9624000Y-8481000D02*
X9680000Y-8537000D01*
X9680000Y-8481000D02*
X9624000Y-8537000D01*
X9624000Y-8608000D02*
X9680000Y-8664000D01*
X9680000Y-8608000D02*
X9624000Y-8664000D01*
X9624000Y-8735000D02*
X9680000Y-8791000D01*
X9680000Y-8735000D02*
X9624000Y-8791000D01*
X9624000Y-8862000D02*
X9680000Y-8918000D01*
X9680000Y-8862000D02*
X9624000Y-8918000D01*
X9624000Y-8989000D02*
X9680000Y-9045000D01*
X9680000Y-8989000D02*
X9624000Y-9045000D01*
X9624000Y-9116000D02*
X9680000Y-9172000D01*
X9680000Y-9116000D02*
X9624000Y-9172000D01*
X9624000Y-9243000D02*
X9680000Y-9299000D01*
X9680000Y-9243000D02*
X9624000Y-9299000D01*
X9624000Y-9370000D02*
X9680000Y-9426000D01*
X9680000Y-9370000D02*
X9624000Y-9426000D01*
X9624000Y-9497000D02*
X9680000Y-9553000D01*
X9680000Y-9497000D02*
X9624000Y-9553000D01*
X9624000Y-9624000D02*
X9680000Y-9680000D01*
X9680000Y-9624000D02*
X9624000Y-9680000D01*
X9624000Y-9751000D02*
X9680000Y-9807000D01*
X9680000Y-9751000D02*
X9624000Y-9807000D01*
X9624000Y-9878000D02*
X9680000Y-9934000D01*
X9680000Y-9878000D02*
X9624000Y-9934000D01*
X9624000Y-10005000D02*
X9680000Y-10061000D01*
X9680000Y-10005000D02*
X9624000Y-10061000D01*
X9625016Y-5052000D02*
X9681016Y-5108000D01*
X9681016Y-5052000D02*
X9625016Y-5108000D01*
X9625016Y-7973000D02*
X9681016Y-8029000D01*
X9681016Y-7973000D02*
X9625016Y-8029000D01*
X13432984Y-6512500D02*
X13488984Y-6568500D01*
X13488984Y-6512500D02*
X13432984Y-6568500D01*
X13434000Y-6639500D02*
X13490000Y-6695500D01*
X13490000Y-6639500D02*
X13434000Y-6695500D01*
X13434000Y-6766500D02*
X13490000Y-6822500D01*
X13490000Y-6766500D02*
X13434000Y-6822500D01*
X13434000Y-6893500D02*
X13490000Y-6949500D01*
X13490000Y-6893500D02*
X13434000Y-6949500D01*
X13434000Y-7020500D02*
X13490000Y-7076500D01*
X13490000Y-7020500D02*
X13434000Y-7076500D01*
X13434000Y-7147500D02*
X13490000Y-7203500D01*
X13490000Y-7147500D02*
X13434000Y-7203500D01*
X13434000Y-7274500D02*
X13490000Y-7330500D01*
X13490000Y-7274500D02*
X13434000Y-7330500D01*
X13434000Y-7401500D02*
X13490000Y-7457500D01*
X13490000Y-7401500D02*
X13434000Y-7457500D01*
X13434000Y-7528500D02*
X13490000Y-7584500D01*
X13490000Y-7528500D02*
X13434000Y-7584500D01*
X13434000Y-7655500D02*
X13490000Y-7711500D01*
X13490000Y-7655500D02*
X13434000Y-7711500D01*
X13434000Y-7782500D02*
X13490000Y-7838500D01*
X13490000Y-7782500D02*
X13434000Y-7838500D01*
X13434000Y-7909500D02*
X13490000Y-7965500D01*
X13490000Y-7909500D02*
X13434000Y-7965500D01*
X13434000Y-8036500D02*
X13490000Y-8092500D01*
X13490000Y-8036500D02*
X13434000Y-8092500D01*
X13434000Y-8163500D02*
X13490000Y-8219500D01*
X13490000Y-8163500D02*
X13434000Y-8219500D01*
X13434000Y-8290500D02*
X13490000Y-8346500D01*
X13490000Y-8290500D02*
X13434000Y-8346500D01*
X13434000Y-8417500D02*
X13490000Y-8473500D01*
X13490000Y-8417500D02*
X13434000Y-8473500D01*
X13434000Y-8544500D02*
X13490000Y-8600500D01*
X13490000Y-8544500D02*
X13434000Y-8600500D01*
X13688000Y-6639500D02*
X13744000Y-6695500D01*
X13744000Y-6639500D02*
X13688000Y-6695500D01*
X13688000Y-6766500D02*
X13744000Y-6822500D01*
X13744000Y-6766500D02*
X13688000Y-6822500D01*
X13688000Y-6893500D02*
X13744000Y-6949500D01*
X13744000Y-6893500D02*
X13688000Y-6949500D01*
X13688000Y-7020500D02*
X13744000Y-7076500D01*
X13744000Y-7020500D02*
X13688000Y-7076500D01*
X13688000Y-7147500D02*
X13744000Y-7203500D01*
X13744000Y-7147500D02*
X13688000Y-7203500D01*
X13688000Y-7274500D02*
X13744000Y-7330500D01*
X13744000Y-7274500D02*
X13688000Y-7330500D01*
X13688000Y-7401500D02*
X13744000Y-7457500D01*
X13744000Y-7401500D02*
X13688000Y-7457500D01*
X13688000Y-7528500D02*
X13744000Y-7584500D01*
X13744000Y-7528500D02*
X13688000Y-7584500D01*
X13688000Y-7655500D02*
X13744000Y-7711500D01*
X13744000Y-7655500D02*
X13688000Y-7711500D01*
X13688000Y-7782500D02*
X13744000Y-7838500D01*
X13744000Y-7782500D02*
X13688000Y-7838500D01*
X13688000Y-7909500D02*
X13744000Y-7965500D01*
X13744000Y-7909500D02*
X13688000Y-7965500D01*
X13688000Y-8036500D02*
X13744000Y-8092500D01*
X13744000Y-8036500D02*
X13688000Y-8092500D01*
X13688000Y-8163500D02*
X13744000Y-8219500D01*
X13744000Y-8163500D02*
X13688000Y-8219500D01*
X13688000Y-8290500D02*
X13744000Y-8346500D01*
X13744000Y-8290500D02*
X13688000Y-8346500D01*
X13688000Y-8417500D02*
X13744000Y-8473500D01*
X13744000Y-8417500D02*
X13688000Y-8473500D01*
X13688000Y-8544500D02*
X13744000Y-8600500D01*
X13744000Y-8544500D02*
X13688000Y-8600500D01*
X13689016Y-6512500D02*
X13745016Y-6568500D01*
X13745016Y-6512500D02*
X13689016Y-6568500D01*
D11*
X9396619Y-10729476D02*
X9396619Y-10529476D01*
X9444238Y-10529476D01*
X9472810Y-10539000D01*
X9491857Y-10558048D01*
X9501381Y-10577095D01*
X9510905Y-10615190D01*
X9510905Y-10643762D01*
X9501381Y-10681857D01*
X9491857Y-10700905D01*
X9472810Y-10719952D01*
X9444238Y-10729476D01*
X9396619Y-10729476D01*
X9596619Y-10729476D02*
X9596619Y-10596143D01*
X9596619Y-10634238D02*
X9606143Y-10615190D01*
X9615667Y-10605667D01*
X9634714Y-10596143D01*
X9653762Y-10596143D01*
X9720429Y-10729476D02*
X9720429Y-10596143D01*
X9720429Y-10529476D02*
X9710905Y-10539000D01*
X9720429Y-10548524D01*
X9729952Y-10539000D01*
X9720429Y-10529476D01*
X9720429Y-10548524D01*
X9844238Y-10729476D02*
X9825190Y-10719952D01*
X9815667Y-10700905D01*
X9815667Y-10529476D01*
X9949000Y-10729476D02*
X9929952Y-10719952D01*
X9920429Y-10700905D01*
X9920429Y-10529476D01*
X10177571Y-10729476D02*
X10177571Y-10529476D01*
X10244238Y-10672333D01*
X10310905Y-10529476D01*
X10310905Y-10729476D01*
X10491857Y-10729476D02*
X10491857Y-10624714D01*
X10482333Y-10605667D01*
X10463286Y-10596143D01*
X10425190Y-10596143D01*
X10406143Y-10605667D01*
X10491857Y-10719952D02*
X10472810Y-10729476D01*
X10425190Y-10729476D01*
X10406143Y-10719952D01*
X10396619Y-10700905D01*
X10396619Y-10681857D01*
X10406143Y-10662810D01*
X10425190Y-10653286D01*
X10472810Y-10653286D01*
X10491857Y-10643762D01*
X10587095Y-10596143D02*
X10587095Y-10796143D01*
X10587095Y-10605667D02*
X10606143Y-10596143D01*
X10644238Y-10596143D01*
X10663286Y-10605667D01*
X10672810Y-10615190D01*
X10682333Y-10634238D01*
X10682333Y-10691381D01*
X10672810Y-10710429D01*
X10663286Y-10719952D01*
X10644238Y-10729476D01*
X10606143Y-10729476D01*
X10587095Y-10719952D01*
X10768048Y-10710429D02*
X10777571Y-10719952D01*
X10768048Y-10729476D01*
X10758524Y-10719952D01*
X10768048Y-10710429D01*
X10768048Y-10729476D01*
X10768048Y-10605667D02*
X10777571Y-10615190D01*
X10768048Y-10624714D01*
X10758524Y-10615190D01*
X10768048Y-10605667D01*
X10768048Y-10624714D01*
D12*
X9083000Y-11031000D02*
X9139000Y-11087000D01*
X9139000Y-11031000D02*
X9083000Y-11087000D01*
D11*
X9434714Y-10949476D02*
X9453762Y-10949476D01*
X9472810Y-10959000D01*
X9482333Y-10968524D01*
X9491857Y-10987571D01*
X9501381Y-11025667D01*
X9501381Y-11073286D01*
X9491857Y-11111381D01*
X9482333Y-11130429D01*
X9472810Y-11139952D01*
X9453762Y-11149476D01*
X9434714Y-11149476D01*
X9415667Y-11139952D01*
X9406143Y-11130429D01*
X9396619Y-11111381D01*
X9387095Y-11073286D01*
X9387095Y-11025667D01*
X9396619Y-10987571D01*
X9406143Y-10968524D01*
X9415667Y-10959000D01*
X9434714Y-10949476D01*
X9587095Y-11130429D02*
X9596619Y-11139952D01*
X9587095Y-11149476D01*
X9577571Y-11139952D01*
X9587095Y-11130429D01*
X9587095Y-11149476D01*
X9777571Y-10949476D02*
X9682333Y-10949476D01*
X9672810Y-11044714D01*
X9682333Y-11035190D01*
X9701381Y-11025667D01*
X9749000Y-11025667D01*
X9768048Y-11035190D01*
X9777571Y-11044714D01*
X9787095Y-11063762D01*
X9787095Y-11111381D01*
X9777571Y-11130429D01*
X9768048Y-11139952D01*
X9749000Y-11149476D01*
X9701381Y-11149476D01*
X9682333Y-11139952D01*
X9672810Y-11130429D01*
X9958524Y-10949476D02*
X9920429Y-10949476D01*
X9901381Y-10959000D01*
X9891857Y-10968524D01*
X9872810Y-10997095D01*
X9863286Y-11035190D01*
X9863286Y-11111381D01*
X9872810Y-11130429D01*
X9882333Y-11139952D01*
X9901381Y-11149476D01*
X9939476Y-11149476D01*
X9958524Y-11139952D01*
X9968048Y-11130429D01*
X9977571Y-11111381D01*
X9977571Y-11063762D01*
X9968048Y-11044714D01*
X9958524Y-11035190D01*
X9939476Y-11025667D01*
X9901381Y-11025667D01*
X9882333Y-11035190D01*
X9872810Y-11044714D01*
X9863286Y-11063762D01*
X10101381Y-10949476D02*
X10120429Y-10949476D01*
X10139476Y-10959000D01*
X10149000Y-10968524D01*
X10158524Y-10987571D01*
X10168048Y-11025667D01*
X10168048Y-11073286D01*
X10158524Y-11111381D01*
X10149000Y-11130429D01*
X10139476Y-11139952D01*
X10120429Y-11149476D01*
X10101381Y-11149476D01*
X10082333Y-11139952D01*
X10072810Y-11130429D01*
X10063286Y-11111381D01*
X10053762Y-11073286D01*
X10053762Y-11025667D01*
X10063286Y-10987571D01*
X10072810Y-10968524D01*
X10082333Y-10959000D01*
X10101381Y-10949476D01*
X10253762Y-11149476D02*
X10253762Y-11016143D01*
X10253762Y-11035190D02*
X10263286Y-11025667D01*
X10282333Y-11016143D01*
X10310905Y-11016143D01*
X10329952Y-11025667D01*
X10339476Y-11044714D01*
X10339476Y-11149476D01*
X10339476Y-11044714D02*
X10349000Y-11025667D01*
X10368048Y-11016143D01*
X10396619Y-11016143D01*
X10415667Y-11025667D01*
X10425190Y-11044714D01*
X10425190Y-11149476D01*
X10520429Y-11149476D02*
X10520429Y-11016143D01*
X10520429Y-11035190D02*
X10529952Y-11025667D01*
X10549000Y-11016143D01*
X10577571Y-11016143D01*
X10596619Y-11025667D01*
X10606143Y-11044714D01*
X10606143Y-11149476D01*
X10606143Y-11044714D02*
X10615667Y-11025667D01*
X10634714Y-11016143D01*
X10663286Y-11016143D01*
X10682333Y-11025667D01*
X10691857Y-11044714D01*
X10691857Y-11149476D01*
X11082333Y-10939952D02*
X10910905Y-11197095D01*
X11339476Y-10949476D02*
X11358524Y-10949476D01*
X11377571Y-10959000D01*
X11387095Y-10968524D01*
X11396619Y-10987571D01*
X11406143Y-11025667D01*
X11406143Y-11073286D01*
X11396619Y-11111381D01*
X11387095Y-11130429D01*
X11377571Y-11139952D01*
X11358524Y-11149476D01*
X11339476Y-11149476D01*
X11320428Y-11139952D01*
X11310905Y-11130429D01*
X11301381Y-11111381D01*
X11291857Y-11073286D01*
X11291857Y-11025667D01*
X11301381Y-10987571D01*
X11310905Y-10968524D01*
X11320428Y-10959000D01*
X11339476Y-10949476D01*
X11491857Y-11130429D02*
X11501381Y-11139952D01*
X11491857Y-11149476D01*
X11482333Y-11139952D01*
X11491857Y-11130429D01*
X11491857Y-11149476D01*
X11625190Y-10949476D02*
X11644238Y-10949476D01*
X11663286Y-10959000D01*
X11672809Y-10968524D01*
X11682333Y-10987571D01*
X11691857Y-11025667D01*
X11691857Y-11073286D01*
X11682333Y-11111381D01*
X11672809Y-11130429D01*
X11663286Y-11139952D01*
X11644238Y-11149476D01*
X11625190Y-11149476D01*
X11606143Y-11139952D01*
X11596619Y-11130429D01*
X11587095Y-11111381D01*
X11577571Y-11073286D01*
X11577571Y-11025667D01*
X11587095Y-10987571D01*
X11596619Y-10968524D01*
X11606143Y-10959000D01*
X11625190Y-10949476D01*
X11768048Y-10968524D02*
X11777571Y-10959000D01*
X11796619Y-10949476D01*
X11844238Y-10949476D01*
X11863286Y-10959000D01*
X11872809Y-10968524D01*
X11882333Y-10987571D01*
X11882333Y-11006619D01*
X11872809Y-11035190D01*
X11758524Y-11149476D01*
X11882333Y-11149476D01*
X11958524Y-10968524D02*
X11968048Y-10959000D01*
X11987095Y-10949476D01*
X12034714Y-10949476D01*
X12053762Y-10959000D01*
X12063286Y-10968524D01*
X12072809Y-10987571D01*
X12072809Y-11006619D01*
X12063286Y-11035190D01*
X11949000Y-11149476D01*
X12072809Y-11149476D01*
X12196619Y-10949476D02*
X12215667Y-10949476D01*
X12234714Y-10959000D01*
X12244238Y-10968524D01*
X12253762Y-10987571D01*
X12263286Y-11025667D01*
X12263286Y-11073286D01*
X12253762Y-11111381D01*
X12244238Y-11130429D01*
X12234714Y-11139952D01*
X12215667Y-11149476D01*
X12196619Y-11149476D01*
X12177571Y-11139952D01*
X12168048Y-11130429D01*
X12158524Y-11111381D01*
X12149000Y-11073286D01*
X12149000Y-11025667D01*
X12158524Y-10987571D01*
X12168048Y-10968524D01*
X12177571Y-10959000D01*
X12196619Y-10949476D01*
X12339476Y-10949476D02*
X12339476Y-10987571D01*
X12415667Y-10949476D02*
X12415667Y-10987571D01*
X12710905Y-11225667D02*
X12701381Y-11216143D01*
X12682333Y-11187571D01*
X12672809Y-11168524D01*
X12663286Y-11139952D01*
X12653762Y-11092333D01*
X12653762Y-11054238D01*
X12663286Y-11006619D01*
X12672809Y-10978048D01*
X12682333Y-10959000D01*
X12701381Y-10930429D01*
X12710905Y-10920905D01*
X12891857Y-11149476D02*
X12777571Y-11149476D01*
X12834714Y-11149476D02*
X12834714Y-10949476D01*
X12815667Y-10978048D01*
X12796619Y-10997095D01*
X12777571Y-11006619D01*
X13015667Y-10949476D02*
X13034714Y-10949476D01*
X13053762Y-10959000D01*
X13063286Y-10968524D01*
X13072809Y-10987571D01*
X13082333Y-11025667D01*
X13082333Y-11073286D01*
X13072809Y-11111381D01*
X13063286Y-11130429D01*
X13053762Y-11139952D01*
X13034714Y-11149476D01*
X13015667Y-11149476D01*
X12996619Y-11139952D01*
X12987095Y-11130429D01*
X12977571Y-11111381D01*
X12968048Y-11073286D01*
X12968048Y-11025667D01*
X12977571Y-10987571D01*
X12987095Y-10968524D01*
X12996619Y-10959000D01*
X13015667Y-10949476D01*
X13158524Y-10968524D02*
X13168048Y-10959000D01*
X13187095Y-10949476D01*
X13234714Y-10949476D01*
X13253762Y-10959000D01*
X13263286Y-10968524D01*
X13272809Y-10987571D01*
X13272809Y-11006619D01*
X13263286Y-11035190D01*
X13149000Y-11149476D01*
X13272809Y-11149476D01*
X13510905Y-11149476D02*
X13510905Y-10949476D01*
X13596619Y-11149476D02*
X13596619Y-11044714D01*
X13587095Y-11025667D01*
X13568048Y-11016143D01*
X13539476Y-11016143D01*
X13520428Y-11025667D01*
X13510905Y-11035190D01*
X13720428Y-11149476D02*
X13701381Y-11139952D01*
X13691857Y-11130429D01*
X13682333Y-11111381D01*
X13682333Y-11054238D01*
X13691857Y-11035190D01*
X13701381Y-11025667D01*
X13720428Y-11016143D01*
X13749000Y-11016143D01*
X13768048Y-11025667D01*
X13777571Y-11035190D01*
X13787095Y-11054238D01*
X13787095Y-11111381D01*
X13777571Y-11130429D01*
X13768048Y-11139952D01*
X13749000Y-11149476D01*
X13720428Y-11149476D01*
X13901381Y-11149476D02*
X13882333Y-11139952D01*
X13872809Y-11120905D01*
X13872809Y-10949476D01*
X14053762Y-11139952D02*
X14034714Y-11149476D01*
X13996619Y-11149476D01*
X13977571Y-11139952D01*
X13968048Y-11120905D01*
X13968048Y-11044714D01*
X13977571Y-11025667D01*
X13996619Y-11016143D01*
X14034714Y-11016143D01*
X14053762Y-11025667D01*
X14063286Y-11044714D01*
X14063286Y-11063762D01*
X13968048Y-11082810D01*
X14139476Y-11139952D02*
X14158524Y-11149476D01*
X14196619Y-11149476D01*
X14215667Y-11139952D01*
X14225190Y-11120905D01*
X14225190Y-11111381D01*
X14215667Y-11092333D01*
X14196619Y-11082810D01*
X14168048Y-11082810D01*
X14149000Y-11073286D01*
X14139476Y-11054238D01*
X14139476Y-11044714D01*
X14149000Y-11025667D01*
X14168048Y-11016143D01*
X14196619Y-11016143D01*
X14215667Y-11025667D01*
X14291857Y-11225667D02*
X14301381Y-11216143D01*
X14320428Y-11187571D01*
X14329952Y-11168524D01*
X14339476Y-11139952D01*
X14349000Y-11092333D01*
X14349000Y-11054238D01*
X14339476Y-11006619D01*
X14329952Y-10978048D01*
X14320428Y-10959000D01*
X14301381Y-10930429D01*
X14291857Y-10920905D01*
M02*
