%TF.GenerationSoftware,KiCad,Pcbnew,(6.0.8)*%
%TF.CreationDate,2022-10-20T17:28:58-04:00*%
%TF.ProjectId,DCT_2_to_1_mini_board,4443545f-325f-4746-9f5f-315f6d696e69,rev?*%
%TF.SameCoordinates,Original*%
%TF.FileFunction,Drillmap*%
%TF.FilePolarity,Positive*%
%FSLAX45Y45*%
G04 Gerber Fmt 4.5, Leading zero omitted, Abs format (unit mm)*
G04 Created by KiCad (PCBNEW (6.0.8)) date 2022-10-20 17:28:58*
%MOMM*%
%LPD*%
G01*
G04 APERTURE LIST*
%ADD10C,0.100000*%
%ADD11C,0.200000*%
G04 APERTURE END LIST*
D10*
X9144000Y-4699000D02*
X14478000Y-4699000D01*
X14478000Y-4699000D02*
X14478000Y-10414000D01*
X14478000Y-10414000D02*
X9144000Y-10414000D01*
X9144000Y-10414000D02*
X9144000Y-4699000D01*
D11*
X9396619Y-10729476D02*
X9396619Y-10529476D01*
X9444238Y-10529476D01*
X9472810Y-10539000D01*
X9491857Y-10558048D01*
X9501381Y-10577095D01*
X9510905Y-10615190D01*
X9510905Y-10643762D01*
X9501381Y-10681857D01*
X9491857Y-10700905D01*
X9472810Y-10719952D01*
X9444238Y-10729476D01*
X9396619Y-10729476D01*
X9596619Y-10729476D02*
X9596619Y-10596143D01*
X9596619Y-10634238D02*
X9606143Y-10615190D01*
X9615667Y-10605667D01*
X9634714Y-10596143D01*
X9653762Y-10596143D01*
X9720429Y-10729476D02*
X9720429Y-10596143D01*
X9720429Y-10529476D02*
X9710905Y-10539000D01*
X9720429Y-10548524D01*
X9729952Y-10539000D01*
X9720429Y-10529476D01*
X9720429Y-10548524D01*
X9844238Y-10729476D02*
X9825190Y-10719952D01*
X9815667Y-10700905D01*
X9815667Y-10529476D01*
X9949000Y-10729476D02*
X9929952Y-10719952D01*
X9920429Y-10700905D01*
X9920429Y-10529476D01*
X10177571Y-10729476D02*
X10177571Y-10529476D01*
X10244238Y-10672333D01*
X10310905Y-10529476D01*
X10310905Y-10729476D01*
X10491857Y-10729476D02*
X10491857Y-10624714D01*
X10482333Y-10605667D01*
X10463286Y-10596143D01*
X10425190Y-10596143D01*
X10406143Y-10605667D01*
X10491857Y-10719952D02*
X10472810Y-10729476D01*
X10425190Y-10729476D01*
X10406143Y-10719952D01*
X10396619Y-10700905D01*
X10396619Y-10681857D01*
X10406143Y-10662810D01*
X10425190Y-10653286D01*
X10472810Y-10653286D01*
X10491857Y-10643762D01*
X10587095Y-10596143D02*
X10587095Y-10796143D01*
X10587095Y-10605667D02*
X10606143Y-10596143D01*
X10644238Y-10596143D01*
X10663286Y-10605667D01*
X10672810Y-10615190D01*
X10682333Y-10634238D01*
X10682333Y-10691381D01*
X10672810Y-10710429D01*
X10663286Y-10719952D01*
X10644238Y-10729476D01*
X10606143Y-10729476D01*
X10587095Y-10719952D01*
X10768048Y-10710429D02*
X10777571Y-10719952D01*
X10768048Y-10729476D01*
X10758524Y-10719952D01*
X10768048Y-10710429D01*
X10768048Y-10729476D01*
X10768048Y-10605667D02*
X10777571Y-10615190D01*
X10768048Y-10624714D01*
X10758524Y-10615190D01*
X10768048Y-10605667D01*
X10768048Y-10624714D01*
M02*
