%TF.GenerationSoftware,KiCad,Pcbnew,(6.0.9)*%
%TF.CreationDate,2023-01-22T20:54:45-05:00*%
%TF.ProjectId,Temps_North_DCT_HSK,54656d70-735f-44e6-9f72-74685f444354,rev?*%
%TF.SameCoordinates,Original*%
%TF.FileFunction,Legend,Bot*%
%TF.FilePolarity,Positive*%
%FSLAX46Y46*%
G04 Gerber Fmt 4.6, Leading zero omitted, Abs format (unit mm)*
G04 Created by KiCad (PCBNEW (6.0.9)) date 2023-01-22 20:54:45*
%MOMM*%
%LPD*%
G01*
G04 APERTURE LIST*
%ADD10C,0.254000*%
%ADD11C,0.500000*%
G04 APERTURE END LIST*
D10*
X92680002Y-50830000D02*
G75*
G03*
X92680002Y-50830000I-1J0D01*
G01*
X92690001Y-80020000D02*
G75*
G03*
X92690001Y-80020000I-1J0D01*
G01*
D11*
X135373619Y-52120933D02*
X135373619Y-48620933D01*
X133373619Y-52120933D01*
X133373619Y-48620933D01*
X131206952Y-52120933D02*
X131540285Y-51954266D01*
X131706952Y-51787600D01*
X131873619Y-51454266D01*
X131873619Y-50454266D01*
X131706952Y-50120933D01*
X131540285Y-49954266D01*
X131206952Y-49787600D01*
X130706952Y-49787600D01*
X130373619Y-49954266D01*
X130206952Y-50120933D01*
X130040285Y-50454266D01*
X130040285Y-51454266D01*
X130206952Y-51787600D01*
X130373619Y-51954266D01*
X130706952Y-52120933D01*
X131206952Y-52120933D01*
X128540285Y-52120933D02*
X128540285Y-49787600D01*
X128540285Y-50454266D02*
X128373619Y-50120933D01*
X128206952Y-49954266D01*
X127873619Y-49787600D01*
X127540285Y-49787600D01*
X126873619Y-49787600D02*
X125540285Y-49787600D01*
X126373619Y-48620933D02*
X126373619Y-51620933D01*
X126206952Y-51954266D01*
X125873619Y-52120933D01*
X125540285Y-52120933D01*
X124373619Y-52120933D02*
X124373619Y-48620933D01*
X122873619Y-52120933D02*
X122873619Y-50287600D01*
X123040285Y-49954266D01*
X123373619Y-49787600D01*
X123873619Y-49787600D01*
X124206952Y-49954266D01*
X124373619Y-50120933D01*
%TO.C,G\u002A\u002A\u002A*%
G36*
X131499801Y-90578042D02*
G01*
X131514286Y-90579255D01*
X131576825Y-90588533D01*
X131611982Y-90613393D01*
X131632084Y-90670030D01*
X131649460Y-90774637D01*
X131677472Y-90961163D01*
X133678125Y-90961163D01*
X133700145Y-90766527D01*
X133722166Y-90571891D01*
X133973300Y-90571891D01*
X133973300Y-92810205D01*
X133292074Y-92810205D01*
X133292074Y-92555639D01*
X133462381Y-92528567D01*
X133632687Y-92501495D01*
X133650641Y-91545071D01*
X132773045Y-91545071D01*
X132773045Y-92153060D01*
X132935242Y-92174576D01*
X133017518Y-92186809D01*
X133072961Y-92205684D01*
X133094080Y-92241693D01*
X133097438Y-92308512D01*
X133097438Y-92420933D01*
X132124258Y-92420933D01*
X132124258Y-92311958D01*
X132126813Y-92253787D01*
X132145344Y-92215330D01*
X132195910Y-92193096D01*
X132294565Y-92174090D01*
X132464871Y-92145198D01*
X132474198Y-91845135D01*
X132483526Y-91545071D01*
X131700813Y-91545071D01*
X131718767Y-92501495D01*
X131889073Y-92528567D01*
X132059380Y-92555639D01*
X132059380Y-92810205D01*
X131378154Y-92810205D01*
X131378154Y-90567974D01*
X131499801Y-90578042D01*
G37*
G36*
X136542378Y-69356565D02*
G01*
X138543271Y-69356565D01*
X138563900Y-69202478D01*
X138573562Y-69132895D01*
X138591559Y-69039818D01*
X138616472Y-68990359D01*
X138657702Y-68970768D01*
X138724645Y-68967293D01*
X138839201Y-68967293D01*
X138839201Y-70333662D01*
X138717553Y-70323593D01*
X138703068Y-70322381D01*
X138640529Y-70313103D01*
X138605372Y-70288243D01*
X138585270Y-70231606D01*
X138567894Y-70126999D01*
X138539882Y-69940473D01*
X136542378Y-69940473D01*
X136497198Y-70329745D01*
X136244054Y-70329745D01*
X136244054Y-68967293D01*
X136497198Y-68967293D01*
X136542378Y-69356565D01*
G37*
G36*
X136518133Y-86077026D02*
G01*
X136540172Y-86253426D01*
X137138345Y-86644714D01*
X137736517Y-87036003D01*
X138539882Y-87036003D01*
X138567894Y-86849477D01*
X138571238Y-86827269D01*
X138588204Y-86732108D01*
X138610027Y-86682119D01*
X138649034Y-86661109D01*
X138717553Y-86652883D01*
X138839201Y-86642815D01*
X138839201Y-88009183D01*
X138724645Y-88009183D01*
X138686318Y-88008554D01*
X138633814Y-87998482D01*
X138602175Y-87965199D01*
X138582004Y-87894955D01*
X138563900Y-87773998D01*
X138543271Y-87619911D01*
X137703147Y-87619911D01*
X137121724Y-87994465D01*
X136540301Y-88369020D01*
X136518197Y-88545934D01*
X136496093Y-88722849D01*
X136244054Y-88722849D01*
X136244054Y-87587472D01*
X136493068Y-87587472D01*
X136522648Y-87765558D01*
X136552228Y-87943643D01*
X136892841Y-87730426D01*
X137029746Y-87644642D01*
X137154727Y-87566173D01*
X137252234Y-87504790D01*
X137308499Y-87469146D01*
X137320207Y-87461469D01*
X137341930Y-87441872D01*
X137342644Y-87419645D01*
X137315594Y-87388360D01*
X137254027Y-87341591D01*
X137151189Y-87272911D01*
X137000326Y-87175894D01*
X136955408Y-87147219D01*
X136818288Y-87060521D01*
X136702509Y-86988539D01*
X136619127Y-86938097D01*
X136579198Y-86916018D01*
X136564828Y-86918326D01*
X136539234Y-86970073D01*
X136518692Y-87082205D01*
X136496093Y-87263078D01*
X136244054Y-87263078D01*
X136244054Y-85900626D01*
X136496093Y-85900626D01*
X136518133Y-86077026D01*
G37*
G36*
X138839201Y-83017442D02*
G01*
X138717553Y-83007374D01*
X138702557Y-83006118D01*
X138640291Y-82996813D01*
X138605272Y-82971859D01*
X138585212Y-82915083D01*
X138567825Y-82810316D01*
X138539745Y-82623327D01*
X137545986Y-82631900D01*
X136552228Y-82640473D01*
X136493068Y-83013525D01*
X136242738Y-83013525D01*
X136260274Y-81667293D01*
X136373811Y-81667293D01*
X136387058Y-81667307D01*
X136445589Y-81671460D01*
X136478710Y-81693686D01*
X136498080Y-81749351D01*
X136515361Y-81853819D01*
X136543373Y-82040345D01*
X138543271Y-82040345D01*
X138563900Y-81886259D01*
X138573562Y-81816675D01*
X138591559Y-81723598D01*
X138616472Y-81674139D01*
X138657702Y-81654548D01*
X138724645Y-81651073D01*
X138839201Y-81651073D01*
X138839201Y-83017442D01*
G37*
G36*
X126666123Y-72738145D02*
G01*
X127550312Y-73621895D01*
X127550312Y-77350094D01*
X125816408Y-79088366D01*
X119619337Y-79088366D01*
X118751363Y-78220839D01*
X117883390Y-77353312D01*
X117883390Y-76607863D01*
X119667553Y-76607863D01*
X120016806Y-76956033D01*
X120366058Y-77304202D01*
X125069862Y-77304202D01*
X125401786Y-76971145D01*
X125733709Y-76638088D01*
X125733709Y-74334897D01*
X125384457Y-73986727D01*
X125035204Y-73638557D01*
X120396380Y-73638557D01*
X120031967Y-74004007D01*
X119667553Y-74369458D01*
X119667553Y-76607863D01*
X117883390Y-76607863D01*
X117883390Y-73622772D01*
X118767141Y-72738583D01*
X119650891Y-71854394D01*
X125781934Y-71854394D01*
X126666123Y-72738145D01*
G37*
G36*
X136522648Y-70739750D02*
G01*
X136552228Y-70922679D01*
X137638945Y-71333095D01*
X137870169Y-71420433D01*
X138107417Y-71510073D01*
X138320377Y-71590566D01*
X138501767Y-71659157D01*
X138644306Y-71713092D01*
X138740712Y-71749619D01*
X138783703Y-71765983D01*
X138796369Y-71771910D01*
X138819496Y-71796576D01*
X138831786Y-71845873D01*
X138835366Y-71933165D01*
X138832362Y-72071818D01*
X138822981Y-72355181D01*
X137687604Y-72780761D01*
X136552228Y-73206340D01*
X136522648Y-73390009D01*
X136493068Y-73573679D01*
X136242522Y-73573679D01*
X136251398Y-73014100D01*
X136260274Y-72454522D01*
X136373424Y-72454522D01*
X136437037Y-72457903D01*
X136473915Y-72478383D01*
X136496855Y-72531536D01*
X136518655Y-72632938D01*
X136536274Y-72707490D01*
X136562362Y-72779900D01*
X136585279Y-72805612D01*
X136596650Y-72802646D01*
X136662484Y-72781004D01*
X136773892Y-72741934D01*
X136921186Y-72689030D01*
X137094677Y-72625885D01*
X137284676Y-72556093D01*
X137481497Y-72483247D01*
X137675450Y-72410941D01*
X137856846Y-72342768D01*
X138015998Y-72282322D01*
X138143216Y-72233197D01*
X138228813Y-72198986D01*
X138263101Y-72183282D01*
X138246477Y-72172067D01*
X138178253Y-72140993D01*
X138066109Y-72094026D01*
X137919281Y-72034711D01*
X137747005Y-71966591D01*
X137558516Y-71893211D01*
X137363049Y-71818115D01*
X137169840Y-71744848D01*
X136988123Y-71676955D01*
X136827135Y-71617979D01*
X136696110Y-71571465D01*
X136604284Y-71540957D01*
X136560893Y-71530001D01*
X136550520Y-71546080D01*
X136533881Y-71610884D01*
X136518385Y-71708417D01*
X136496093Y-71886833D01*
X136244054Y-71886833D01*
X136244054Y-70556820D01*
X136493068Y-70556820D01*
X136522648Y-70739750D01*
G37*
G36*
X138563900Y-76631086D02*
G01*
X138573562Y-76561503D01*
X138591559Y-76468426D01*
X138616472Y-76418967D01*
X138657702Y-76399376D01*
X138724645Y-76395901D01*
X138839201Y-76395901D01*
X138839201Y-77762269D01*
X138717553Y-77752201D01*
X138703068Y-77750989D01*
X138640529Y-77741711D01*
X138605372Y-77716850D01*
X138585270Y-77660214D01*
X138567894Y-77555607D01*
X138539882Y-77369081D01*
X137662947Y-77369081D01*
X137679856Y-77519098D01*
X137683980Y-77549381D01*
X137711165Y-77647587D01*
X137763362Y-77733841D01*
X137848019Y-77814189D01*
X137972583Y-77894676D01*
X138144504Y-77981348D01*
X138371228Y-78080249D01*
X138822981Y-78268674D01*
X138832033Y-78694740D01*
X138841084Y-79120805D01*
X138725587Y-79120805D01*
X138689961Y-79120296D01*
X138635548Y-79110803D01*
X138602947Y-79078450D01*
X138582489Y-79009362D01*
X138564507Y-78889668D01*
X138544486Y-78739629D01*
X138255617Y-78619895D01*
X138209753Y-78600375D01*
X138050647Y-78526534D01*
X137896655Y-78447247D01*
X137775597Y-78376613D01*
X137584446Y-78253066D01*
X137522487Y-78368332D01*
X137498578Y-78405394D01*
X137416310Y-78496329D01*
X137318449Y-78573770D01*
X137222981Y-78626048D01*
X137026923Y-78684953D01*
X136833173Y-78681837D01*
X136649352Y-78617441D01*
X136483081Y-78492506D01*
X136424953Y-78430947D01*
X136375092Y-78365610D01*
X136336532Y-78292774D01*
X136307824Y-78204243D01*
X136287517Y-78091823D01*
X136274160Y-77947316D01*
X136266303Y-77762527D01*
X136264045Y-77624221D01*
X136568447Y-77624221D01*
X136569883Y-77725495D01*
X136578933Y-77832694D01*
X136599459Y-77906087D01*
X136635066Y-77964053D01*
X136733041Y-78048089D01*
X136868964Y-78096631D01*
X137017708Y-78099401D01*
X137161841Y-78056312D01*
X137283927Y-77967277D01*
X137323424Y-77917215D01*
X137350105Y-77854227D01*
X137365534Y-77763358D01*
X137374628Y-77626118D01*
X137386300Y-77369081D01*
X136568447Y-77369081D01*
X136568447Y-77624221D01*
X136264045Y-77624221D01*
X136262495Y-77529262D01*
X136261286Y-77239324D01*
X136260274Y-76412121D01*
X136373811Y-76412121D01*
X136387058Y-76412135D01*
X136445589Y-76416288D01*
X136478710Y-76438514D01*
X136498080Y-76494178D01*
X136515361Y-76598647D01*
X136543373Y-76785173D01*
X138543271Y-76785173D01*
X138563900Y-76631086D01*
G37*
G36*
X138839201Y-66895092D02*
G01*
X138717553Y-66885024D01*
X138703068Y-66883811D01*
X138640529Y-66874533D01*
X138605372Y-66849673D01*
X138585270Y-66793036D01*
X138567894Y-66688430D01*
X138539882Y-66501903D01*
X137006378Y-66504237D01*
X137098365Y-66579493D01*
X137111543Y-66589817D01*
X137179269Y-66640092D01*
X137289852Y-66720325D01*
X137435924Y-66825235D01*
X137610114Y-66949542D01*
X137805056Y-67087965D01*
X138013379Y-67235223D01*
X138836407Y-67815697D01*
X138839201Y-68286067D01*
X136542378Y-68286067D01*
X136497198Y-68675339D01*
X136244054Y-68675339D01*
X136244054Y-67507523D01*
X136497198Y-67507523D01*
X136542378Y-67896795D01*
X138010214Y-67896795D01*
X137795248Y-67742708D01*
X137744466Y-67706291D01*
X137628591Y-67623141D01*
X137476998Y-67514321D01*
X137300023Y-67387253D01*
X137108000Y-67249354D01*
X136911266Y-67108047D01*
X136242250Y-66627473D01*
X136260274Y-65739579D01*
X136373811Y-65739579D01*
X136387058Y-65739593D01*
X136445589Y-65743746D01*
X136478710Y-65765972D01*
X136498080Y-65821637D01*
X136515361Y-65926105D01*
X136543373Y-66112631D01*
X138543271Y-66112631D01*
X138563900Y-65958545D01*
X138573562Y-65888962D01*
X138591559Y-65795884D01*
X138616472Y-65746425D01*
X138657702Y-65726834D01*
X138724645Y-65723359D01*
X138839201Y-65723359D01*
X138839201Y-66895092D01*
G37*
G36*
X133903414Y-80653564D02*
G01*
X133938296Y-80785923D01*
X133976262Y-80960608D01*
X134002342Y-81115824D01*
X134011559Y-81201925D01*
X134017963Y-81489476D01*
X133991453Y-81777388D01*
X133934198Y-82036357D01*
X133892999Y-82145283D01*
X133773144Y-82336779D01*
X133610612Y-82487144D01*
X133412987Y-82592910D01*
X133187852Y-82650604D01*
X132942790Y-82656757D01*
X132685385Y-82607897D01*
X132572777Y-82565178D01*
X132435807Y-82478442D01*
X132316409Y-82353592D01*
X132209733Y-82183944D01*
X132110935Y-81962812D01*
X132015167Y-81683513D01*
X131968325Y-81541220D01*
X131884593Y-81337301D01*
X131795277Y-81188974D01*
X131695297Y-81090334D01*
X131579575Y-81035479D01*
X131443032Y-81018506D01*
X131281301Y-81043720D01*
X131148771Y-81123154D01*
X131040392Y-81260973D01*
X131029843Y-81281490D01*
X130995690Y-81403797D01*
X130979604Y-81572933D01*
X130982208Y-81776179D01*
X131004126Y-82000814D01*
X131010801Y-82050604D01*
X131023064Y-82112586D01*
X131047329Y-82151471D01*
X131096521Y-82176110D01*
X131183564Y-82195351D01*
X131321385Y-82218045D01*
X131370838Y-82226925D01*
X131420938Y-82247646D01*
X131440007Y-82292729D01*
X131443032Y-82382428D01*
X131443032Y-82526935D01*
X130799277Y-82526935D01*
X130766147Y-82421508D01*
X130686006Y-82123470D01*
X130630857Y-81791352D01*
X130617306Y-81484379D01*
X130644418Y-81207357D01*
X130711259Y-80965092D01*
X130816894Y-80762390D01*
X130960388Y-80604058D01*
X131140807Y-80494901D01*
X131307267Y-80444589D01*
X131530415Y-80425126D01*
X131752944Y-80452264D01*
X131957847Y-80523562D01*
X132128119Y-80636582D01*
X132158942Y-80665729D01*
X132239143Y-80757671D01*
X132312968Y-80871495D01*
X132385775Y-81017507D01*
X132462926Y-81206012D01*
X132549781Y-81447317D01*
X132601069Y-81590894D01*
X132654077Y-81729266D01*
X132699221Y-81837087D01*
X132730287Y-81898822D01*
X132799618Y-81975646D01*
X132934837Y-82047700D01*
X133104443Y-82072785D01*
X133109773Y-82072761D01*
X133287817Y-82041442D01*
X133436803Y-81952863D01*
X133551589Y-81810044D01*
X133566015Y-81784086D01*
X133596252Y-81720143D01*
X133615619Y-81652973D01*
X133626435Y-81567168D01*
X133631019Y-81447320D01*
X133631693Y-81278021D01*
X133630817Y-81149680D01*
X133624962Y-80989963D01*
X133609071Y-80879047D01*
X133577935Y-80807031D01*
X133526349Y-80764015D01*
X133449102Y-80740099D01*
X133340989Y-80725382D01*
X133129878Y-80702774D01*
X133129878Y-80418379D01*
X133834092Y-80418379D01*
X133903414Y-80653564D01*
G37*
G36*
X125879281Y-71467522D02*
G01*
X125977004Y-71467558D01*
X126974514Y-72443246D01*
X127972023Y-73418933D01*
X127972023Y-77514672D01*
X126974710Y-78512374D01*
X125977397Y-79510077D01*
X119407363Y-79510077D01*
X117429239Y-77554589D01*
X117429239Y-77483038D01*
X117623875Y-77483038D01*
X118562076Y-78420820D01*
X119500277Y-79358603D01*
X125912125Y-79314779D01*
X127777387Y-77450599D01*
X127777387Y-73524607D01*
X125879281Y-71627319D01*
X119488717Y-71627319D01*
X117623875Y-73492993D01*
X117623875Y-77483038D01*
X117429239Y-77483038D01*
X117429239Y-73428094D01*
X118410330Y-72446608D01*
X119391420Y-71465122D01*
X125879281Y-71467522D01*
G37*
G36*
X133724287Y-85089643D02*
G01*
X133973300Y-85089643D01*
X133973300Y-86228936D01*
X133851786Y-86218868D01*
X133784725Y-86210773D01*
X133743660Y-86189107D01*
X133721209Y-86137366D01*
X133703335Y-86038493D01*
X133691718Y-85978809D01*
X133664842Y-85898212D01*
X133635724Y-85868187D01*
X133594587Y-85877222D01*
X133509380Y-85905496D01*
X133403013Y-85946316D01*
X133210976Y-86024445D01*
X133210976Y-87010886D01*
X133438051Y-87101312D01*
X133665127Y-87191738D01*
X133698328Y-87008443D01*
X133700697Y-86995384D01*
X133720922Y-86897561D01*
X133744307Y-86845749D01*
X133783817Y-86823677D01*
X133852414Y-86815079D01*
X133973300Y-86805011D01*
X133973300Y-88175296D01*
X133851653Y-88165228D01*
X133842154Y-88164437D01*
X133776951Y-88155388D01*
X133740447Y-88131407D01*
X133719919Y-88076078D01*
X133702640Y-87972984D01*
X133675274Y-87790807D01*
X133021414Y-87538317D01*
X132804924Y-87454638D01*
X132551576Y-87356555D01*
X132298098Y-87258282D01*
X132064712Y-87167659D01*
X131871642Y-87092528D01*
X131375730Y-86899228D01*
X131385052Y-86619144D01*
X131388452Y-86516974D01*
X131929622Y-86516974D01*
X131933616Y-86520796D01*
X131981323Y-86544108D01*
X132072911Y-86582505D01*
X132195718Y-86631227D01*
X132337078Y-86685513D01*
X132484327Y-86740605D01*
X132624802Y-86791740D01*
X132745837Y-86834159D01*
X132834769Y-86863101D01*
X132878932Y-86873806D01*
X132887216Y-86851521D01*
X132895291Y-86776242D01*
X132900779Y-86660362D01*
X132902802Y-86516974D01*
X132901312Y-86393147D01*
X132896276Y-86272427D01*
X132888524Y-86190395D01*
X132878932Y-86160141D01*
X132868763Y-86161642D01*
X132806746Y-86179574D01*
X132704595Y-86214001D01*
X132574976Y-86260163D01*
X132430553Y-86313298D01*
X132283989Y-86368647D01*
X132147950Y-86421450D01*
X132035100Y-86466945D01*
X131958102Y-86500373D01*
X131929622Y-86516974D01*
X131388452Y-86516974D01*
X131394373Y-86339060D01*
X132529750Y-85899886D01*
X132878932Y-85764820D01*
X133665127Y-85460713D01*
X133724287Y-85089643D01*
G37*
G36*
X138473638Y-79381594D02*
G01*
X138597523Y-79387920D01*
X138686224Y-79398346D01*
X138724900Y-79411525D01*
X138726448Y-79414381D01*
X138745321Y-79466475D01*
X138773721Y-79560794D01*
X138806127Y-79679150D01*
X138839297Y-79841563D01*
X138864559Y-80079878D01*
X138869405Y-80327221D01*
X138853600Y-80560135D01*
X138816908Y-80755161D01*
X138750738Y-80922722D01*
X138628576Y-81095294D01*
X138468994Y-81222248D01*
X138279622Y-81295904D01*
X138127311Y-81316262D01*
X137914664Y-81298444D01*
X137724073Y-81227241D01*
X137564798Y-81106603D01*
X137446100Y-80940479D01*
X137424234Y-80891627D01*
X137381333Y-80780027D01*
X137331852Y-80638339D01*
X137282686Y-80485743D01*
X137281456Y-80481756D01*
X137210686Y-80276987D01*
X137140580Y-80129772D01*
X137065807Y-80033188D01*
X136981033Y-79980314D01*
X136880925Y-79964228D01*
X136770155Y-79983520D01*
X136663286Y-80056148D01*
X136589722Y-80177893D01*
X136552346Y-80343606D01*
X136554042Y-80548136D01*
X136560250Y-80609625D01*
X136575262Y-80733576D01*
X136593650Y-80810595D01*
X136622372Y-80853500D01*
X136668387Y-80875112D01*
X136738652Y-80888250D01*
X136835906Y-80904101D01*
X136923255Y-80924766D01*
X136969252Y-80952840D01*
X136987139Y-80997856D01*
X136990159Y-81069351D01*
X136990159Y-81196923D01*
X136681182Y-81196923D01*
X136576758Y-81196995D01*
X136470715Y-81192430D01*
X136398302Y-81173557D01*
X136349953Y-81130575D01*
X136316100Y-81053687D01*
X136287175Y-80933092D01*
X136253613Y-80758992D01*
X136241176Y-80686965D01*
X136217563Y-80424225D01*
X136226735Y-80171381D01*
X136266778Y-79940912D01*
X136335777Y-79745298D01*
X136431819Y-79597019D01*
X136451306Y-79576788D01*
X136595401Y-79476619D01*
X136773687Y-79415055D01*
X136967891Y-79396415D01*
X137159742Y-79425015D01*
X137170939Y-79428343D01*
X137301854Y-79481551D01*
X137412504Y-79559590D01*
X137508500Y-79670377D01*
X137595452Y-79821827D01*
X137678973Y-80021856D01*
X137764672Y-80278378D01*
X137773736Y-80307425D01*
X137837166Y-80486786D01*
X137899884Y-80611513D01*
X137969026Y-80690094D01*
X138051729Y-80731017D01*
X138155132Y-80742772D01*
X138165684Y-80742672D01*
X138297558Y-80718642D01*
X138396102Y-80649740D01*
X138463576Y-80532143D01*
X138502243Y-80362030D01*
X138514365Y-80135576D01*
X138514296Y-80097196D01*
X138512300Y-79937633D01*
X138503203Y-79829439D01*
X138481060Y-79761323D01*
X138439929Y-79721995D01*
X138373865Y-79700164D01*
X138276926Y-79684540D01*
X138076876Y-79656054D01*
X138056926Y-79380320D01*
X138381270Y-79380320D01*
X138473638Y-79381594D01*
G37*
G36*
X131499801Y-71438834D02*
G01*
X131514286Y-71440047D01*
X131576825Y-71449325D01*
X131611982Y-71474185D01*
X131632084Y-71530822D01*
X131649460Y-71635428D01*
X131677472Y-71821955D01*
X133678125Y-71821955D01*
X133700145Y-71627319D01*
X133722166Y-71432683D01*
X133973300Y-71432683D01*
X133973300Y-72799051D01*
X133851653Y-72788983D01*
X133837168Y-72787770D01*
X133774629Y-72778492D01*
X133739472Y-72753632D01*
X133719370Y-72696996D01*
X133701994Y-72592389D01*
X133673982Y-72405863D01*
X132773045Y-72405863D01*
X132773045Y-73411482D01*
X133209062Y-73411482D01*
X133232943Y-73411440D01*
X133398926Y-73408601D01*
X133533678Y-73401865D01*
X133625989Y-73392010D01*
X133664649Y-73379815D01*
X133672456Y-73359303D01*
X133688701Y-73285461D01*
X133703521Y-73185179D01*
X133722823Y-73022210D01*
X133973300Y-73022210D01*
X133973300Y-74388578D01*
X133851653Y-74378510D01*
X133837168Y-74377298D01*
X133774629Y-74368020D01*
X133739472Y-74343160D01*
X133719370Y-74286523D01*
X133701994Y-74181916D01*
X133673982Y-73995390D01*
X131677472Y-73995390D01*
X131649460Y-74181916D01*
X131646116Y-74204125D01*
X131629150Y-74299285D01*
X131607327Y-74349274D01*
X131568320Y-74370284D01*
X131499801Y-74378510D01*
X131378154Y-74388578D01*
X131378154Y-73018294D01*
X131498234Y-73028362D01*
X131499729Y-73028487D01*
X131568018Y-73037518D01*
X131607221Y-73060921D01*
X131630826Y-73115197D01*
X131652321Y-73216846D01*
X131686327Y-73395262D01*
X132067489Y-73404402D01*
X132448652Y-73413541D01*
X132448652Y-72405863D01*
X131677472Y-72405863D01*
X131649460Y-72592389D01*
X131646116Y-72614597D01*
X131629150Y-72709758D01*
X131607327Y-72759746D01*
X131568320Y-72780757D01*
X131499801Y-72788983D01*
X131378154Y-72799051D01*
X131378154Y-71428766D01*
X131499801Y-71438834D01*
G37*
G36*
X135688918Y-62252543D02*
G01*
X135757412Y-62261094D01*
X135789334Y-62295590D01*
X135806522Y-62373998D01*
X135808195Y-62384337D01*
X135825683Y-62486697D01*
X135841049Y-62568634D01*
X135856018Y-62641622D01*
X136931880Y-62641622D01*
X136990699Y-62641635D01*
X137284155Y-62642230D01*
X137521775Y-62643960D01*
X137711230Y-62647159D01*
X137860190Y-62652159D01*
X137976326Y-62659293D01*
X138067306Y-62668894D01*
X138140803Y-62681294D01*
X138204485Y-62696826D01*
X138357450Y-62756986D01*
X138538439Y-62887027D01*
X138684986Y-63070733D01*
X138796066Y-63306721D01*
X138870651Y-63593610D01*
X138884129Y-63707713D01*
X138888800Y-63903604D01*
X138878195Y-64118229D01*
X138853816Y-64326106D01*
X138817163Y-64501751D01*
X138791844Y-64579553D01*
X138719944Y-64720974D01*
X138606959Y-64863194D01*
X138597287Y-64873778D01*
X138532087Y-64943815D01*
X138472263Y-65001143D01*
X138410792Y-65047096D01*
X138340647Y-65083011D01*
X138254804Y-65110222D01*
X138146237Y-65130065D01*
X138007920Y-65143875D01*
X137832829Y-65152989D01*
X137613938Y-65158740D01*
X137344223Y-65162466D01*
X137016657Y-65165501D01*
X135859119Y-65175613D01*
X135841840Y-65262960D01*
X135840508Y-65269739D01*
X135822444Y-65366071D01*
X135803299Y-65473678D01*
X135798492Y-65500704D01*
X135779153Y-65566104D01*
X135741497Y-65589168D01*
X135664322Y-65587216D01*
X135546608Y-65577382D01*
X135537767Y-64985365D01*
X135528925Y-64393347D01*
X135657944Y-64393347D01*
X135689558Y-64393556D01*
X135757676Y-64402206D01*
X135789412Y-64436748D01*
X135806522Y-64514994D01*
X135808131Y-64524933D01*
X135825801Y-64628106D01*
X135841534Y-64711562D01*
X135856988Y-64786483D01*
X138076876Y-64766399D01*
X138227848Y-64677649D01*
X138356673Y-64578755D01*
X138453338Y-64440955D01*
X138508932Y-64263568D01*
X138527179Y-64038645D01*
X138527185Y-64036018D01*
X138521850Y-63896829D01*
X138507484Y-63766782D01*
X138487142Y-63673711D01*
X138437053Y-63576702D01*
X138333342Y-63455609D01*
X138204294Y-63354502D01*
X138071063Y-63292749D01*
X138007340Y-63283376D01*
X137882007Y-63274795D01*
X137702996Y-63267811D01*
X137476075Y-63262595D01*
X137207010Y-63259318D01*
X136901569Y-63258151D01*
X135856018Y-63257970D01*
X135841049Y-63330958D01*
X135839741Y-63337429D01*
X135823777Y-63423637D01*
X135806522Y-63525594D01*
X135801713Y-63554242D01*
X135782462Y-63617887D01*
X135742062Y-63642898D01*
X135658676Y-63647242D01*
X135530389Y-63647242D01*
X135530389Y-62252350D01*
X135658676Y-62252350D01*
X135688918Y-62252543D01*
G37*
G36*
X131410593Y-58294133D02*
G01*
X131410603Y-58305331D01*
X131408471Y-58367678D01*
X131393384Y-58407090D01*
X131352599Y-58432072D01*
X131273375Y-58451130D01*
X131142968Y-58472769D01*
X131021321Y-58492327D01*
X131021321Y-59235492D01*
X132332928Y-59235492D01*
X132417741Y-59235521D01*
X132732062Y-59235991D01*
X132988869Y-59236205D01*
X133194091Y-59235072D01*
X133353656Y-59231500D01*
X133473494Y-59224397D01*
X133559534Y-59212671D01*
X133617705Y-59195230D01*
X133653936Y-59170983D01*
X133674157Y-59138837D01*
X133684297Y-59097700D01*
X133690284Y-59046481D01*
X133698048Y-58984087D01*
X133706533Y-58932981D01*
X133726309Y-58872841D01*
X133766505Y-58849890D01*
X133846394Y-58846220D01*
X133973300Y-58846220D01*
X133973300Y-60241112D01*
X133846394Y-60241112D01*
X133799261Y-60240528D01*
X133742141Y-60229205D01*
X133714827Y-60189414D01*
X133698048Y-60103244D01*
X133695701Y-60087164D01*
X133688906Y-60027557D01*
X133682462Y-59978861D01*
X133670440Y-59939986D01*
X133646911Y-59909839D01*
X133605946Y-59887328D01*
X133541615Y-59871361D01*
X133447990Y-59860846D01*
X133319142Y-59854692D01*
X133149140Y-59851806D01*
X132932057Y-59851097D01*
X132661963Y-59851472D01*
X132332928Y-59851840D01*
X131021321Y-59851840D01*
X131021321Y-60224274D01*
X131020989Y-60315318D01*
X131021374Y-60447741D01*
X131029428Y-60533424D01*
X131052682Y-60584241D01*
X131098667Y-60612062D01*
X131174911Y-60628759D01*
X131288945Y-60646204D01*
X131317593Y-60651013D01*
X131381238Y-60670264D01*
X131406249Y-60710664D01*
X131410593Y-60794050D01*
X131410593Y-60922338D01*
X130664488Y-60922338D01*
X130664488Y-58164994D01*
X131410593Y-58164994D01*
X131410593Y-58294133D01*
G37*
G36*
X133973300Y-76039068D02*
G01*
X133722823Y-76039068D01*
X133703521Y-75876099D01*
X133695790Y-75818814D01*
X133679576Y-75730125D01*
X133664649Y-75681463D01*
X133633994Y-75673145D01*
X133542273Y-75665125D01*
X133394351Y-75658635D01*
X133194810Y-75653821D01*
X132948233Y-75650826D01*
X132659204Y-75649796D01*
X131673329Y-75649796D01*
X131651309Y-75844432D01*
X131629288Y-76039068D01*
X131378154Y-76039068D01*
X131378154Y-74672700D01*
X131499801Y-74682768D01*
X131514286Y-74683980D01*
X131576825Y-74693258D01*
X131611982Y-74718119D01*
X131632084Y-74774755D01*
X131649460Y-74879362D01*
X131677472Y-75065888D01*
X133673982Y-75065888D01*
X133701994Y-74879362D01*
X133705338Y-74857154D01*
X133722304Y-74761993D01*
X133744127Y-74712004D01*
X133783134Y-74690994D01*
X133851653Y-74682768D01*
X133973300Y-74672700D01*
X133973300Y-76039068D01*
G37*
G36*
X131499801Y-61123125D02*
G01*
X131514286Y-61124338D01*
X131576825Y-61133616D01*
X131611982Y-61158476D01*
X131632084Y-61215113D01*
X131649460Y-61319720D01*
X131677472Y-61506246D01*
X133678125Y-61506246D01*
X133700145Y-61311610D01*
X133722166Y-61116974D01*
X133973300Y-61116974D01*
X133973300Y-62483342D01*
X133851653Y-62473274D01*
X133837168Y-62472061D01*
X133774629Y-62462783D01*
X133739472Y-62437923D01*
X133719370Y-62381287D01*
X133701994Y-62276680D01*
X133673982Y-62090154D01*
X132773045Y-62090154D01*
X132773045Y-63095773D01*
X133209062Y-63095773D01*
X133232943Y-63095731D01*
X133398926Y-63092892D01*
X133533678Y-63086156D01*
X133625989Y-63076301D01*
X133664649Y-63064107D01*
X133672456Y-63043594D01*
X133688701Y-62969753D01*
X133703521Y-62869471D01*
X133722823Y-62706501D01*
X133973300Y-62706501D01*
X133973300Y-64072870D01*
X133851653Y-64062802D01*
X133837168Y-64061589D01*
X133774629Y-64052311D01*
X133739472Y-64027451D01*
X133719370Y-63970814D01*
X133701994Y-63866207D01*
X133673982Y-63679681D01*
X131677472Y-63679681D01*
X131649460Y-63866207D01*
X131646116Y-63888416D01*
X131629150Y-63983576D01*
X131607327Y-64033565D01*
X131568320Y-64054575D01*
X131499801Y-64062802D01*
X131378154Y-64072870D01*
X131378154Y-62702585D01*
X131499801Y-62712653D01*
X131514286Y-62713865D01*
X131576825Y-62723143D01*
X131611982Y-62748004D01*
X131632084Y-62804640D01*
X131649460Y-62909247D01*
X131677472Y-63095773D01*
X132448652Y-63095773D01*
X132448652Y-62090154D01*
X131677472Y-62090154D01*
X131649460Y-62276680D01*
X131646116Y-62298888D01*
X131629150Y-62394049D01*
X131607327Y-62444037D01*
X131568320Y-62465048D01*
X131499801Y-62473274D01*
X131378154Y-62483342D01*
X131378154Y-61113057D01*
X131499801Y-61123125D01*
G37*
G36*
X138839201Y-76006629D02*
G01*
X138157975Y-76006629D01*
X138157975Y-75751783D01*
X138514807Y-75707199D01*
X138514807Y-74741495D01*
X137638945Y-74741495D01*
X137638945Y-75355608D01*
X137801142Y-75377124D01*
X137881466Y-75389045D01*
X137937998Y-75407742D01*
X137959765Y-75442936D01*
X137963339Y-75507998D01*
X137963339Y-75617357D01*
X136986048Y-75617357D01*
X136996213Y-75513483D01*
X137001704Y-75472600D01*
X137022292Y-75426948D01*
X137072103Y-75399201D01*
X137168575Y-75375387D01*
X137330772Y-75341164D01*
X137330772Y-74757714D01*
X136949610Y-74748575D01*
X136568447Y-74739436D01*
X136568447Y-75707199D01*
X136746864Y-75729491D01*
X136925280Y-75751783D01*
X136925280Y-76006629D01*
X136243202Y-76006629D01*
X136251738Y-74895582D01*
X136260274Y-73784534D01*
X136373811Y-73784534D01*
X136387058Y-73784548D01*
X136445589Y-73788701D01*
X136478710Y-73810928D01*
X136498080Y-73866592D01*
X136515361Y-73971061D01*
X136543373Y-74157587D01*
X138543271Y-74157587D01*
X138563900Y-74003500D01*
X138573562Y-73933917D01*
X138591559Y-73840840D01*
X138616472Y-73791381D01*
X138657702Y-73771789D01*
X138724645Y-73768315D01*
X138839201Y-73768315D01*
X138839201Y-76006629D01*
G37*
G36*
X140818000Y-88917485D02*
G01*
X140623364Y-88917485D01*
X140623364Y-62057714D01*
X140818000Y-62057714D01*
X140818000Y-88917485D01*
G37*
G36*
X133973300Y-66566782D02*
G01*
X133292074Y-66566782D01*
X133292074Y-66311936D01*
X133470491Y-66289644D01*
X133648907Y-66267353D01*
X133648907Y-65301648D01*
X132773045Y-65301648D01*
X132773045Y-65911907D01*
X132935242Y-65934215D01*
X133016067Y-65946618D01*
X133072310Y-65965677D01*
X133093915Y-66001291D01*
X133097438Y-66067016D01*
X133097438Y-66177510D01*
X132120148Y-66177510D01*
X132130313Y-66073636D01*
X132135804Y-66032753D01*
X132156392Y-65987101D01*
X132206203Y-65959354D01*
X132302675Y-65935540D01*
X132464871Y-65901317D01*
X132464871Y-65317868D01*
X132083709Y-65308728D01*
X131702547Y-65299589D01*
X131702547Y-66267353D01*
X131880963Y-66289644D01*
X132059380Y-66311936D01*
X132059380Y-66566782D01*
X131378154Y-66566782D01*
X131378154Y-64324552D01*
X131499801Y-64334620D01*
X131514286Y-64335832D01*
X131576825Y-64345110D01*
X131611982Y-64369971D01*
X131632084Y-64426607D01*
X131649460Y-64531214D01*
X131677472Y-64717740D01*
X133673982Y-64717740D01*
X133701994Y-64531214D01*
X133705338Y-64509005D01*
X133722304Y-64413845D01*
X133744127Y-64363856D01*
X133783134Y-64342846D01*
X133851653Y-64334620D01*
X133973300Y-64324552D01*
X133973300Y-66566782D01*
G37*
G36*
X132497137Y-68244935D02*
G01*
X132859869Y-68283625D01*
X133172670Y-68363446D01*
X133435933Y-68484668D01*
X133650053Y-68647564D01*
X133815423Y-68852404D01*
X133932437Y-69099461D01*
X134001490Y-69389004D01*
X134013711Y-69514392D01*
X134019374Y-69684299D01*
X134014924Y-69843155D01*
X133992309Y-70039604D01*
X133918994Y-70327876D01*
X133799938Y-70572041D01*
X133634070Y-70773019D01*
X133420321Y-70931732D01*
X133157621Y-71049100D01*
X132844901Y-71126044D01*
X132481091Y-71163484D01*
X132152070Y-71164018D01*
X131806840Y-71127635D01*
X131501584Y-71052942D01*
X131240293Y-70941301D01*
X131026958Y-70794072D01*
X130865571Y-70612617D01*
X130769721Y-70443843D01*
X130675716Y-70185479D01*
X130624761Y-69907508D01*
X130616438Y-69632963D01*
X130983541Y-69632963D01*
X130985190Y-69813917D01*
X131017974Y-69978991D01*
X131075762Y-70086347D01*
X131178243Y-70204289D01*
X131305331Y-70309986D01*
X131438505Y-70385534D01*
X131550595Y-70424810D01*
X131775194Y-70475310D01*
X132034082Y-70507082D01*
X132309607Y-70518959D01*
X132584116Y-70509771D01*
X132839957Y-70478350D01*
X133075559Y-70421346D01*
X133298754Y-70325796D01*
X133467301Y-70198226D01*
X133582624Y-70037791D01*
X133600164Y-70000091D01*
X133653151Y-69808675D01*
X133657423Y-69609536D01*
X133614329Y-69420932D01*
X133525219Y-69261123D01*
X133491540Y-69221835D01*
X133343731Y-69096481D01*
X133155950Y-69001902D01*
X132923188Y-68936567D01*
X132640433Y-68898945D01*
X132302675Y-68887505D01*
X132000076Y-68898329D01*
X131715608Y-68934625D01*
X131482700Y-68998180D01*
X131296734Y-69090767D01*
X131153092Y-69214164D01*
X131047153Y-69370145D01*
X131011691Y-69463974D01*
X130983541Y-69632963D01*
X130616438Y-69632963D01*
X130616103Y-69621897D01*
X130648990Y-69340611D01*
X130722670Y-69075619D01*
X130836391Y-68838887D01*
X130989400Y-68642381D01*
X131147347Y-68511638D01*
X131373476Y-68390374D01*
X131644371Y-68305559D01*
X131963695Y-68256099D01*
X132302675Y-68242229D01*
X132335114Y-68240902D01*
X132497137Y-68244935D01*
G37*
G36*
X132091819Y-83012056D02*
G01*
X132091627Y-83042297D01*
X132083075Y-83110791D01*
X132048579Y-83142714D01*
X131970171Y-83159902D01*
X131891678Y-83172151D01*
X131792277Y-83190630D01*
X131735406Y-83216862D01*
X131709323Y-83265091D01*
X131702284Y-83349561D01*
X131702547Y-83484514D01*
X131702547Y-83759630D01*
X133676678Y-83759630D01*
X133698970Y-83581214D01*
X133721261Y-83402797D01*
X133973300Y-83402797D01*
X133973300Y-84732810D01*
X133721261Y-84732810D01*
X133698970Y-84554394D01*
X133676678Y-84375978D01*
X131702547Y-84375978D01*
X131702547Y-84652730D01*
X131702491Y-84717783D01*
X131705262Y-84832668D01*
X131720182Y-84902183D01*
X131757241Y-84940043D01*
X131826427Y-84959967D01*
X131937732Y-84975671D01*
X132091819Y-84996300D01*
X132091819Y-85251840D01*
X131378154Y-85251840D01*
X131378154Y-82883768D01*
X132091819Y-82883768D01*
X132091819Y-83012056D01*
G37*
G36*
X132091819Y-88260318D02*
G01*
X131897183Y-88282338D01*
X131702547Y-88304359D01*
X131702547Y-88885045D01*
X133678125Y-88885045D01*
X133700145Y-88690409D01*
X133722166Y-88495773D01*
X133973300Y-88495773D01*
X133973300Y-89858225D01*
X133722166Y-89858225D01*
X133700145Y-89663589D01*
X133678125Y-89468953D01*
X131702547Y-89468953D01*
X131702547Y-90049640D01*
X131897183Y-90071660D01*
X132091819Y-90093681D01*
X132091819Y-90344815D01*
X131378154Y-90344815D01*
X131378154Y-88009183D01*
X132091819Y-88009183D01*
X132091819Y-88260318D01*
G37*
G36*
X125205892Y-74197420D02*
G01*
X125474194Y-74464328D01*
X125474194Y-76514150D01*
X125202424Y-76779419D01*
X124930653Y-77044688D01*
X120503049Y-77044688D01*
X119959507Y-76514150D01*
X119959507Y-76413861D01*
X120121704Y-76413861D01*
X120341484Y-76631956D01*
X120561263Y-76850052D01*
X124875941Y-76850052D01*
X125077750Y-76646433D01*
X125279558Y-76442814D01*
X125279558Y-74528765D01*
X125075940Y-74326956D01*
X124872321Y-74125147D01*
X120557895Y-74125147D01*
X120339800Y-74344927D01*
X120121704Y-74564707D01*
X120121704Y-76413861D01*
X119959507Y-76413861D01*
X119959507Y-74467116D01*
X120226416Y-74198813D01*
X120493324Y-73930511D01*
X124937590Y-73930511D01*
X125205892Y-74197420D01*
G37*
G36*
X132956603Y-76287466D02*
G01*
X133077686Y-76295018D01*
X133172169Y-76308581D01*
X133254902Y-76329875D01*
X133340733Y-76360621D01*
X133493672Y-76436410D01*
X133685463Y-76585585D01*
X133837138Y-76772573D01*
X133937007Y-76985132D01*
X133943614Y-77006714D01*
X133988313Y-77225549D01*
X134003918Y-77487311D01*
X133996501Y-77688481D01*
X133948086Y-77972936D01*
X133854078Y-78211815D01*
X133713779Y-78405781D01*
X133526491Y-78555493D01*
X133291518Y-78661612D01*
X133008163Y-78724799D01*
X132675727Y-78745714D01*
X132437935Y-78737617D01*
X132199148Y-78704363D01*
X131999527Y-78641712D01*
X131827185Y-78545723D01*
X131670234Y-78412456D01*
X131584392Y-78320968D01*
X131491774Y-78196657D01*
X131427925Y-78064807D01*
X131388159Y-77911277D01*
X131367792Y-77721927D01*
X131363035Y-77520576D01*
X131675505Y-77520576D01*
X131717210Y-77710132D01*
X131759361Y-77799555D01*
X131859021Y-77924360D01*
X131998566Y-78017196D01*
X132183161Y-78080231D01*
X132417972Y-78115630D01*
X132708166Y-78125557D01*
X132850288Y-78121988D01*
X133095561Y-78097756D01*
X133289502Y-78048272D01*
X133438892Y-77970546D01*
X133550511Y-77861587D01*
X133631139Y-77718403D01*
X133636075Y-77706066D01*
X133667974Y-77594840D01*
X133680634Y-77491770D01*
X133673382Y-77419797D01*
X133629036Y-77277797D01*
X133555607Y-77147416D01*
X133466161Y-77055252D01*
X133378010Y-76999303D01*
X133286229Y-76955970D01*
X133183590Y-76926915D01*
X133056614Y-76909466D01*
X132891819Y-76900954D01*
X132675727Y-76898711D01*
X132652238Y-76898716D01*
X132471303Y-76899650D01*
X132339492Y-76903502D01*
X132242614Y-76912154D01*
X132166480Y-76927488D01*
X132096899Y-76951388D01*
X132019682Y-76985734D01*
X131905422Y-77052586D01*
X131772984Y-77183724D01*
X131695221Y-77342414D01*
X131675505Y-77520576D01*
X131363035Y-77520576D01*
X131362138Y-77482619D01*
X131362326Y-77406866D01*
X131364942Y-77257783D01*
X131372833Y-77149065D01*
X131388758Y-77063271D01*
X131415474Y-76982957D01*
X131455740Y-76890683D01*
X131463119Y-76874976D01*
X131601695Y-76656424D01*
X131785463Y-76484373D01*
X132013354Y-76359838D01*
X132073819Y-76336684D01*
X132152552Y-76312683D01*
X132237431Y-76297064D01*
X132343135Y-76288138D01*
X132484341Y-76284216D01*
X132675727Y-76283607D01*
X132794072Y-76284207D01*
X132956603Y-76287466D01*
G37*
G36*
X136957719Y-83558624D02*
G01*
X136568447Y-83603804D01*
X136568447Y-84181342D01*
X138539882Y-84181342D01*
X138567894Y-83994815D01*
X138571238Y-83972607D01*
X138588204Y-83877446D01*
X138610027Y-83827458D01*
X138649034Y-83806447D01*
X138717553Y-83798221D01*
X138839201Y-83788153D01*
X138839201Y-85158438D01*
X138717553Y-85148370D01*
X138703068Y-85147157D01*
X138640529Y-85137879D01*
X138605372Y-85113019D01*
X138585270Y-85056383D01*
X138567894Y-84951776D01*
X138539882Y-84765250D01*
X136568447Y-84765250D01*
X136568447Y-85345936D01*
X136763083Y-85367957D01*
X136957719Y-85389977D01*
X136957719Y-85641112D01*
X136244054Y-85641112D01*
X136244054Y-83305479D01*
X136957719Y-83305479D01*
X136957719Y-83558624D01*
G37*
%TD*%
M02*
