%TF.GenerationSoftware,KiCad,Pcbnew,(6.0.9)*%
%TF.CreationDate,2023-01-22T20:12:46-05:00*%
%TF.ProjectId,Temps_South_DCT_HSK,54656d70-735f-4536-9f75-74685f444354,rev?*%
%TF.SameCoordinates,Original*%
%TF.FileFunction,Legend,Top*%
%TF.FilePolarity,Positive*%
%FSLAX46Y46*%
G04 Gerber Fmt 4.6, Leading zero omitted, Abs format (unit mm)*
G04 Created by KiCad (PCBNEW (6.0.9)) date 2023-01-22 20:12:46*
%MOMM*%
%LPD*%
G01*
G04 APERTURE LIST*
%ADD10C,0.254000*%
%ADD11C,0.400000*%
%ADD12C,0.150000*%
%ADD13C,0.200000*%
%ADD14C,0.300000*%
%ADD15C,0.127000*%
G04 APERTURE END LIST*
D10*
X138392956Y-50900000D02*
G75*
G03*
X138392956Y-50900000I-102956J0D01*
G01*
X92670001Y-50830000D02*
G75*
G03*
X92670001Y-50830000I-1J0D01*
G01*
X92680001Y-80020000D02*
G75*
G03*
X92680001Y-80020000I-1J0D01*
G01*
X138312956Y-79920000D02*
G75*
G03*
X138312956Y-79920000I-102956J0D01*
G01*
D11*
X131663352Y-86514980D02*
X131663352Y-85086409D01*
X134163352Y-85800695D02*
X131663352Y-85800695D01*
X134163352Y-83895933D02*
X134044304Y-84134028D01*
X133925257Y-84253076D01*
X133687161Y-84372123D01*
X132972876Y-84372123D01*
X132734780Y-84253076D01*
X132615733Y-84134028D01*
X132496685Y-83895933D01*
X132496685Y-83538790D01*
X132615733Y-83300695D01*
X132734780Y-83181647D01*
X132972876Y-83062600D01*
X133687161Y-83062600D01*
X133925257Y-83181647D01*
X134044304Y-83300695D01*
X134163352Y-83538790D01*
X134163352Y-83895933D01*
X134163352Y-80086409D02*
X131663352Y-80086409D01*
X131663352Y-79491171D01*
X131782400Y-79134028D01*
X132020495Y-78895933D01*
X132258590Y-78776885D01*
X132734780Y-78657838D01*
X133091923Y-78657838D01*
X133568114Y-78776885D01*
X133806209Y-78895933D01*
X134044304Y-79134028D01*
X134163352Y-79491171D01*
X134163352Y-80086409D01*
X133925257Y-76157838D02*
X134044304Y-76276885D01*
X134163352Y-76634028D01*
X134163352Y-76872123D01*
X134044304Y-77229266D01*
X133806209Y-77467361D01*
X133568114Y-77586409D01*
X133091923Y-77705457D01*
X132734780Y-77705457D01*
X132258590Y-77586409D01*
X132020495Y-77467361D01*
X131782400Y-77229266D01*
X131663352Y-76872123D01*
X131663352Y-76634028D01*
X131782400Y-76276885D01*
X131901447Y-76157838D01*
X131663352Y-75443552D02*
X131663352Y-74014980D01*
X134163352Y-74729266D02*
X131663352Y-74729266D01*
X134163352Y-71276885D02*
X131663352Y-71276885D01*
X132853828Y-71276885D02*
X132853828Y-69848314D01*
X134163352Y-69848314D02*
X131663352Y-69848314D01*
X134044304Y-68776885D02*
X134163352Y-68419742D01*
X134163352Y-67824504D01*
X134044304Y-67586409D01*
X133925257Y-67467361D01*
X133687161Y-67348314D01*
X133449066Y-67348314D01*
X133210971Y-67467361D01*
X133091923Y-67586409D01*
X132972876Y-67824504D01*
X132853828Y-68300695D01*
X132734780Y-68538790D01*
X132615733Y-68657838D01*
X132377638Y-68776885D01*
X132139542Y-68776885D01*
X131901447Y-68657838D01*
X131782400Y-68538790D01*
X131663352Y-68300695D01*
X131663352Y-67705457D01*
X131782400Y-67348314D01*
X134163352Y-66276885D02*
X131663352Y-66276885D01*
X134163352Y-64848314D02*
X132734780Y-65919742D01*
X131663352Y-64848314D02*
X133091923Y-66276885D01*
D12*
X120921114Y-100118494D02*
X121356542Y-100118494D01*
X121138828Y-100880494D02*
X121138828Y-100118494D01*
X121900828Y-100844208D02*
X121828257Y-100880494D01*
X121683114Y-100880494D01*
X121610542Y-100844208D01*
X121574257Y-100771637D01*
X121574257Y-100481351D01*
X121610542Y-100408780D01*
X121683114Y-100372494D01*
X121828257Y-100372494D01*
X121900828Y-100408780D01*
X121937114Y-100481351D01*
X121937114Y-100553922D01*
X121574257Y-100626494D01*
X122263685Y-100880494D02*
X122263685Y-100372494D01*
X122263685Y-100445065D02*
X122299971Y-100408780D01*
X122372542Y-100372494D01*
X122481400Y-100372494D01*
X122553971Y-100408780D01*
X122590257Y-100481351D01*
X122590257Y-100880494D01*
X122590257Y-100481351D02*
X122626542Y-100408780D01*
X122699114Y-100372494D01*
X122807971Y-100372494D01*
X122880542Y-100408780D01*
X122916828Y-100481351D01*
X122916828Y-100880494D01*
X123279685Y-100372494D02*
X123279685Y-101134494D01*
X123279685Y-100408780D02*
X123352257Y-100372494D01*
X123497400Y-100372494D01*
X123569971Y-100408780D01*
X123606257Y-100445065D01*
X123642542Y-100517637D01*
X123642542Y-100735351D01*
X123606257Y-100807922D01*
X123569971Y-100844208D01*
X123497400Y-100880494D01*
X123352257Y-100880494D01*
X123279685Y-100844208D01*
X123932828Y-100844208D02*
X124005400Y-100880494D01*
X124150542Y-100880494D01*
X124223114Y-100844208D01*
X124259400Y-100771637D01*
X124259400Y-100735351D01*
X124223114Y-100662780D01*
X124150542Y-100626494D01*
X124041685Y-100626494D01*
X123969114Y-100590208D01*
X123932828Y-100517637D01*
X123932828Y-100481351D01*
X123969114Y-100408780D01*
X124041685Y-100372494D01*
X124150542Y-100372494D01*
X124223114Y-100408780D01*
X124404542Y-100953065D02*
X124985114Y-100953065D01*
X125130257Y-100844208D02*
X125239114Y-100880494D01*
X125420542Y-100880494D01*
X125493114Y-100844208D01*
X125529400Y-100807922D01*
X125565685Y-100735351D01*
X125565685Y-100662780D01*
X125529400Y-100590208D01*
X125493114Y-100553922D01*
X125420542Y-100517637D01*
X125275400Y-100481351D01*
X125202828Y-100445065D01*
X125166542Y-100408780D01*
X125130257Y-100336208D01*
X125130257Y-100263637D01*
X125166542Y-100191065D01*
X125202828Y-100154780D01*
X125275400Y-100118494D01*
X125456828Y-100118494D01*
X125565685Y-100154780D01*
X126001114Y-100880494D02*
X125928542Y-100844208D01*
X125892257Y-100807922D01*
X125855971Y-100735351D01*
X125855971Y-100517637D01*
X125892257Y-100445065D01*
X125928542Y-100408780D01*
X126001114Y-100372494D01*
X126109971Y-100372494D01*
X126182542Y-100408780D01*
X126218828Y-100445065D01*
X126255114Y-100517637D01*
X126255114Y-100735351D01*
X126218828Y-100807922D01*
X126182542Y-100844208D01*
X126109971Y-100880494D01*
X126001114Y-100880494D01*
X126908257Y-100372494D02*
X126908257Y-100880494D01*
X126581685Y-100372494D02*
X126581685Y-100771637D01*
X126617971Y-100844208D01*
X126690542Y-100880494D01*
X126799400Y-100880494D01*
X126871971Y-100844208D01*
X126908257Y-100807922D01*
X127162257Y-100372494D02*
X127452542Y-100372494D01*
X127271114Y-100118494D02*
X127271114Y-100771637D01*
X127307400Y-100844208D01*
X127379971Y-100880494D01*
X127452542Y-100880494D01*
X127706542Y-100880494D02*
X127706542Y-100118494D01*
X128033114Y-100880494D02*
X128033114Y-100481351D01*
X127996828Y-100408780D01*
X127924257Y-100372494D01*
X127815400Y-100372494D01*
X127742828Y-100408780D01*
X127706542Y-100445065D01*
X128214542Y-100953065D02*
X128795114Y-100953065D01*
X128976542Y-100880494D02*
X128976542Y-100118494D01*
X129157971Y-100118494D01*
X129266828Y-100154780D01*
X129339400Y-100227351D01*
X129375685Y-100299922D01*
X129411971Y-100445065D01*
X129411971Y-100553922D01*
X129375685Y-100699065D01*
X129339400Y-100771637D01*
X129266828Y-100844208D01*
X129157971Y-100880494D01*
X128976542Y-100880494D01*
X130173971Y-100807922D02*
X130137685Y-100844208D01*
X130028828Y-100880494D01*
X129956257Y-100880494D01*
X129847400Y-100844208D01*
X129774828Y-100771637D01*
X129738542Y-100699065D01*
X129702257Y-100553922D01*
X129702257Y-100445065D01*
X129738542Y-100299922D01*
X129774828Y-100227351D01*
X129847400Y-100154780D01*
X129956257Y-100118494D01*
X130028828Y-100118494D01*
X130137685Y-100154780D01*
X130173971Y-100191065D01*
X130391685Y-100118494D02*
X130827114Y-100118494D01*
X130609400Y-100880494D02*
X130609400Y-100118494D01*
X130899685Y-100953065D02*
X131480257Y-100953065D01*
X131661685Y-100880494D02*
X131661685Y-100118494D01*
X131661685Y-100481351D02*
X132097114Y-100481351D01*
X132097114Y-100880494D02*
X132097114Y-100118494D01*
X132423685Y-100844208D02*
X132532542Y-100880494D01*
X132713971Y-100880494D01*
X132786542Y-100844208D01*
X132822828Y-100807922D01*
X132859114Y-100735351D01*
X132859114Y-100662780D01*
X132822828Y-100590208D01*
X132786542Y-100553922D01*
X132713971Y-100517637D01*
X132568828Y-100481351D01*
X132496257Y-100445065D01*
X132459971Y-100408780D01*
X132423685Y-100336208D01*
X132423685Y-100263637D01*
X132459971Y-100191065D01*
X132496257Y-100154780D01*
X132568828Y-100118494D01*
X132750257Y-100118494D01*
X132859114Y-100154780D01*
X133185685Y-100880494D02*
X133185685Y-100118494D01*
X133621114Y-100880494D02*
X133294542Y-100445065D01*
X133621114Y-100118494D02*
X133185685Y-100553922D01*
X121918971Y-102107314D02*
X121918971Y-101345314D01*
X122100400Y-101345314D01*
X122209257Y-101381600D01*
X122281828Y-101454171D01*
X122318114Y-101526742D01*
X122354400Y-101671885D01*
X122354400Y-101780742D01*
X122318114Y-101925885D01*
X122281828Y-101998457D01*
X122209257Y-102071028D01*
X122100400Y-102107314D01*
X121918971Y-102107314D01*
X122971257Y-102071028D02*
X122898685Y-102107314D01*
X122753542Y-102107314D01*
X122680971Y-102071028D01*
X122644685Y-101998457D01*
X122644685Y-101708171D01*
X122680971Y-101635600D01*
X122753542Y-101599314D01*
X122898685Y-101599314D01*
X122971257Y-101635600D01*
X123007542Y-101708171D01*
X123007542Y-101780742D01*
X122644685Y-101853314D01*
X123334114Y-101599314D02*
X123334114Y-102107314D01*
X123334114Y-101671885D02*
X123370400Y-101635600D01*
X123442971Y-101599314D01*
X123551828Y-101599314D01*
X123624400Y-101635600D01*
X123660685Y-101708171D01*
X123660685Y-102107314D01*
X124023542Y-101599314D02*
X124023542Y-102107314D01*
X124023542Y-101671885D02*
X124059828Y-101635600D01*
X124132400Y-101599314D01*
X124241257Y-101599314D01*
X124313828Y-101635600D01*
X124350114Y-101708171D01*
X124350114Y-102107314D01*
X124712971Y-102107314D02*
X124712971Y-101599314D01*
X124712971Y-101345314D02*
X124676685Y-101381600D01*
X124712971Y-101417885D01*
X124749257Y-101381600D01*
X124712971Y-101345314D01*
X124712971Y-101417885D01*
X125039542Y-102071028D02*
X125112114Y-102107314D01*
X125257257Y-102107314D01*
X125329828Y-102071028D01*
X125366114Y-101998457D01*
X125366114Y-101962171D01*
X125329828Y-101889600D01*
X125257257Y-101853314D01*
X125148400Y-101853314D01*
X125075828Y-101817028D01*
X125039542Y-101744457D01*
X125039542Y-101708171D01*
X125075828Y-101635600D01*
X125148400Y-101599314D01*
X125257257Y-101599314D01*
X125329828Y-101635600D01*
X126273257Y-102107314D02*
X126273257Y-101345314D01*
X126273257Y-101708171D02*
X126708685Y-101708171D01*
X126708685Y-102107314D02*
X126708685Y-101345314D01*
X127071542Y-102034742D02*
X127107828Y-102071028D01*
X127071542Y-102107314D01*
X127035257Y-102071028D01*
X127071542Y-102034742D01*
X127071542Y-102107314D01*
X128450400Y-102034742D02*
X128414114Y-102071028D01*
X128305257Y-102107314D01*
X128232685Y-102107314D01*
X128123828Y-102071028D01*
X128051257Y-101998457D01*
X128014971Y-101925885D01*
X127978685Y-101780742D01*
X127978685Y-101671885D01*
X128014971Y-101526742D01*
X128051257Y-101454171D01*
X128123828Y-101381600D01*
X128232685Y-101345314D01*
X128305257Y-101345314D01*
X128414114Y-101381600D01*
X128450400Y-101417885D01*
X129103542Y-102107314D02*
X129103542Y-101708171D01*
X129067257Y-101635600D01*
X128994685Y-101599314D01*
X128849542Y-101599314D01*
X128776971Y-101635600D01*
X129103542Y-102071028D02*
X129030971Y-102107314D01*
X128849542Y-102107314D01*
X128776971Y-102071028D01*
X128740685Y-101998457D01*
X128740685Y-101925885D01*
X128776971Y-101853314D01*
X128849542Y-101817028D01*
X129030971Y-101817028D01*
X129103542Y-101780742D01*
X129575257Y-102107314D02*
X129502685Y-102071028D01*
X129466400Y-101998457D01*
X129466400Y-101345314D01*
X130192114Y-102107314D02*
X130192114Y-101345314D01*
X130192114Y-102071028D02*
X130119542Y-102107314D01*
X129974400Y-102107314D01*
X129901828Y-102071028D01*
X129865542Y-102034742D01*
X129829257Y-101962171D01*
X129829257Y-101744457D01*
X129865542Y-101671885D01*
X129901828Y-101635600D01*
X129974400Y-101599314D01*
X130119542Y-101599314D01*
X130192114Y-101635600D01*
X130845257Y-102071028D02*
X130772685Y-102107314D01*
X130627542Y-102107314D01*
X130554971Y-102071028D01*
X130518685Y-101998457D01*
X130518685Y-101708171D01*
X130554971Y-101635600D01*
X130627542Y-101599314D01*
X130772685Y-101599314D01*
X130845257Y-101635600D01*
X130881542Y-101708171D01*
X130881542Y-101780742D01*
X130518685Y-101853314D01*
X131208114Y-102107314D02*
X131208114Y-101599314D01*
X131208114Y-101744457D02*
X131244400Y-101671885D01*
X131280685Y-101635600D01*
X131353257Y-101599314D01*
X131425828Y-101599314D01*
X131788685Y-102107314D02*
X131716114Y-102071028D01*
X131679828Y-102034742D01*
X131643542Y-101962171D01*
X131643542Y-101744457D01*
X131679828Y-101671885D01*
X131716114Y-101635600D01*
X131788685Y-101599314D01*
X131897542Y-101599314D01*
X131970114Y-101635600D01*
X132006400Y-101671885D01*
X132042685Y-101744457D01*
X132042685Y-101962171D01*
X132006400Y-102034742D01*
X131970114Y-102071028D01*
X131897542Y-102107314D01*
X131788685Y-102107314D01*
X132369257Y-101599314D02*
X132369257Y-102107314D01*
X132369257Y-101671885D02*
X132405542Y-101635600D01*
X132478114Y-101599314D01*
X132586971Y-101599314D01*
X132659542Y-101635600D01*
X132695828Y-101708171D01*
X132695828Y-102107314D01*
X123932828Y-102572134D02*
X124005400Y-102572134D01*
X124077971Y-102608420D01*
X124114257Y-102644705D01*
X124150542Y-102717277D01*
X124186828Y-102862420D01*
X124186828Y-103043848D01*
X124150542Y-103188991D01*
X124114257Y-103261562D01*
X124077971Y-103297848D01*
X124005400Y-103334134D01*
X123932828Y-103334134D01*
X123860257Y-103297848D01*
X123823971Y-103261562D01*
X123787685Y-103188991D01*
X123751400Y-103043848D01*
X123751400Y-102862420D01*
X123787685Y-102717277D01*
X123823971Y-102644705D01*
X123860257Y-102608420D01*
X123932828Y-102572134D01*
X124912542Y-103334134D02*
X124477114Y-103334134D01*
X124694828Y-103334134D02*
X124694828Y-102572134D01*
X124622257Y-102680991D01*
X124549685Y-102753562D01*
X124477114Y-102789848D01*
X125783400Y-102535848D02*
X125130257Y-103515562D01*
X126001114Y-102644705D02*
X126037400Y-102608420D01*
X126109971Y-102572134D01*
X126291400Y-102572134D01*
X126363971Y-102608420D01*
X126400257Y-102644705D01*
X126436542Y-102717277D01*
X126436542Y-102789848D01*
X126400257Y-102898705D01*
X125964828Y-103334134D01*
X126436542Y-103334134D01*
X126690542Y-102572134D02*
X127162257Y-102572134D01*
X126908257Y-102862420D01*
X127017114Y-102862420D01*
X127089685Y-102898705D01*
X127125971Y-102934991D01*
X127162257Y-103007562D01*
X127162257Y-103188991D01*
X127125971Y-103261562D01*
X127089685Y-103297848D01*
X127017114Y-103334134D01*
X126799400Y-103334134D01*
X126726828Y-103297848D01*
X126690542Y-103261562D01*
X128033114Y-102535848D02*
X127379971Y-103515562D01*
X128250828Y-102644705D02*
X128287114Y-102608420D01*
X128359685Y-102572134D01*
X128541114Y-102572134D01*
X128613685Y-102608420D01*
X128649971Y-102644705D01*
X128686257Y-102717277D01*
X128686257Y-102789848D01*
X128649971Y-102898705D01*
X128214542Y-103334134D01*
X128686257Y-103334134D01*
X129157971Y-102572134D02*
X129230542Y-102572134D01*
X129303114Y-102608420D01*
X129339400Y-102644705D01*
X129375685Y-102717277D01*
X129411971Y-102862420D01*
X129411971Y-103043848D01*
X129375685Y-103188991D01*
X129339400Y-103261562D01*
X129303114Y-103297848D01*
X129230542Y-103334134D01*
X129157971Y-103334134D01*
X129085400Y-103297848D01*
X129049114Y-103261562D01*
X129012828Y-103188991D01*
X128976542Y-103043848D01*
X128976542Y-102862420D01*
X129012828Y-102717277D01*
X129049114Y-102644705D01*
X129085400Y-102608420D01*
X129157971Y-102572134D01*
X129702257Y-102644705D02*
X129738542Y-102608420D01*
X129811114Y-102572134D01*
X129992542Y-102572134D01*
X130065114Y-102608420D01*
X130101400Y-102644705D01*
X130137685Y-102717277D01*
X130137685Y-102789848D01*
X130101400Y-102898705D01*
X129665971Y-103334134D01*
X130137685Y-103334134D01*
X130391685Y-102572134D02*
X130863400Y-102572134D01*
X130609400Y-102862420D01*
X130718257Y-102862420D01*
X130790828Y-102898705D01*
X130827114Y-102934991D01*
X130863400Y-103007562D01*
X130863400Y-103188991D01*
X130827114Y-103261562D01*
X130790828Y-103297848D01*
X130718257Y-103334134D01*
X130500542Y-103334134D01*
X130427971Y-103297848D01*
X130391685Y-103261562D01*
D13*
X100587161Y-91660458D02*
X100634780Y-91517601D01*
X100634780Y-91279505D01*
X100587161Y-91184267D01*
X100539542Y-91136648D01*
X100444304Y-91089029D01*
X100349066Y-91089029D01*
X100253828Y-91136648D01*
X100206209Y-91184267D01*
X100158590Y-91279505D01*
X100110971Y-91469981D01*
X100063352Y-91565220D01*
X100015733Y-91612839D01*
X99920495Y-91660458D01*
X99825257Y-91660458D01*
X99730019Y-91612839D01*
X99682400Y-91565220D01*
X99634780Y-91469981D01*
X99634780Y-91231886D01*
X99682400Y-91089029D01*
X99634780Y-90803315D02*
X99634780Y-90231886D01*
X100634780Y-90517601D02*
X99634780Y-90517601D01*
X100110971Y-89565220D02*
X100158590Y-89422362D01*
X100206209Y-89374743D01*
X100301447Y-89327124D01*
X100444304Y-89327124D01*
X100539542Y-89374743D01*
X100587161Y-89422362D01*
X100634780Y-89517601D01*
X100634780Y-89898553D01*
X99634780Y-89898553D01*
X99634780Y-89565220D01*
X99682400Y-89469981D01*
X99730019Y-89422362D01*
X99825257Y-89374743D01*
X99920495Y-89374743D01*
X100015733Y-89422362D01*
X100063352Y-89469981D01*
X100110971Y-89565220D01*
X100110971Y-89898553D01*
X99730019Y-88946172D02*
X99682400Y-88898553D01*
X99634780Y-88803315D01*
X99634780Y-88565220D01*
X99682400Y-88469981D01*
X99730019Y-88422362D01*
X99825257Y-88374743D01*
X99920495Y-88374743D01*
X100063352Y-88422362D01*
X100634780Y-88993791D01*
X100634780Y-88374743D01*
X136712161Y-91630457D02*
X136759780Y-91487600D01*
X136759780Y-91249504D01*
X136712161Y-91154266D01*
X136664542Y-91106647D01*
X136569304Y-91059028D01*
X136474066Y-91059028D01*
X136378828Y-91106647D01*
X136331209Y-91154266D01*
X136283590Y-91249504D01*
X136235971Y-91439980D01*
X136188352Y-91535219D01*
X136140733Y-91582838D01*
X136045495Y-91630457D01*
X135950257Y-91630457D01*
X135855019Y-91582838D01*
X135807400Y-91535219D01*
X135759780Y-91439980D01*
X135759780Y-91201885D01*
X135807400Y-91059028D01*
X135759780Y-90773314D02*
X135759780Y-90201885D01*
X136759780Y-90487600D02*
X135759780Y-90487600D01*
X136235971Y-89535219D02*
X136283590Y-89392361D01*
X136331209Y-89344742D01*
X136426447Y-89297123D01*
X136569304Y-89297123D01*
X136664542Y-89344742D01*
X136712161Y-89392361D01*
X136759780Y-89487600D01*
X136759780Y-89868552D01*
X135759780Y-89868552D01*
X135759780Y-89535219D01*
X135807400Y-89439980D01*
X135855019Y-89392361D01*
X135950257Y-89344742D01*
X136045495Y-89344742D01*
X136140733Y-89392361D01*
X136188352Y-89439980D01*
X136235971Y-89535219D01*
X136235971Y-89868552D01*
X135855019Y-88916171D02*
X135807400Y-88868552D01*
X135759780Y-88773314D01*
X135759780Y-88535219D01*
X135807400Y-88439980D01*
X135855019Y-88392361D01*
X135950257Y-88344742D01*
X136045495Y-88344742D01*
X136188352Y-88392361D01*
X136759780Y-88963790D01*
X136759780Y-88344742D01*
D11*
X102678828Y-83381647D02*
X102678828Y-84214980D01*
X103988352Y-84214980D02*
X101488352Y-84214980D01*
X101488352Y-83024504D01*
X103988352Y-82072123D02*
X102321685Y-82072123D01*
X102797876Y-82072123D02*
X102559780Y-81953076D01*
X102440733Y-81834028D01*
X102321685Y-81595933D01*
X102321685Y-81357838D01*
X103988352Y-80167361D02*
X103869304Y-80405457D01*
X103750257Y-80524504D01*
X103512161Y-80643552D01*
X102797876Y-80643552D01*
X102559780Y-80524504D01*
X102440733Y-80405457D01*
X102321685Y-80167361D01*
X102321685Y-79810219D01*
X102440733Y-79572123D01*
X102559780Y-79453076D01*
X102797876Y-79334028D01*
X103512161Y-79334028D01*
X103750257Y-79453076D01*
X103869304Y-79572123D01*
X103988352Y-79810219D01*
X103988352Y-80167361D01*
X103988352Y-78262600D02*
X102321685Y-78262600D01*
X102559780Y-78262600D02*
X102440733Y-78143552D01*
X102321685Y-77905457D01*
X102321685Y-77548314D01*
X102440733Y-77310219D01*
X102678828Y-77191171D01*
X103988352Y-77191171D01*
X102678828Y-77191171D02*
X102440733Y-77072123D01*
X102321685Y-76834028D01*
X102321685Y-76476885D01*
X102440733Y-76238790D01*
X102678828Y-76119742D01*
X103988352Y-76119742D01*
X103988352Y-73024504D02*
X101488352Y-73024504D01*
X101488352Y-72429266D01*
X101607400Y-72072123D01*
X101845495Y-71834028D01*
X102083590Y-71714980D01*
X102559780Y-71595933D01*
X102916923Y-71595933D01*
X103393114Y-71714980D01*
X103631209Y-71834028D01*
X103869304Y-72072123D01*
X103988352Y-72429266D01*
X103988352Y-73024504D01*
X103750257Y-69095933D02*
X103869304Y-69214980D01*
X103988352Y-69572123D01*
X103988352Y-69810219D01*
X103869304Y-70167361D01*
X103631209Y-70405457D01*
X103393114Y-70524504D01*
X102916923Y-70643552D01*
X102559780Y-70643552D01*
X102083590Y-70524504D01*
X101845495Y-70405457D01*
X101607400Y-70167361D01*
X101488352Y-69810219D01*
X101488352Y-69572123D01*
X101607400Y-69214980D01*
X101726447Y-69095933D01*
X101488352Y-68381647D02*
X101488352Y-66953076D01*
X103988352Y-67667361D02*
X101488352Y-67667361D01*
D13*
X136712161Y-62755258D02*
X136759780Y-62612401D01*
X136759780Y-62374305D01*
X136712161Y-62279067D01*
X136664542Y-62231448D01*
X136569304Y-62183829D01*
X136474066Y-62183829D01*
X136378828Y-62231448D01*
X136331209Y-62279067D01*
X136283590Y-62374305D01*
X136235971Y-62564781D01*
X136188352Y-62660020D01*
X136140733Y-62707639D01*
X136045495Y-62755258D01*
X135950257Y-62755258D01*
X135855019Y-62707639D01*
X135807400Y-62660020D01*
X135759780Y-62564781D01*
X135759780Y-62326686D01*
X135807400Y-62183829D01*
X135759780Y-61898115D02*
X135759780Y-61326686D01*
X136759780Y-61612401D02*
X135759780Y-61612401D01*
X136235971Y-60660020D02*
X136283590Y-60517162D01*
X136331209Y-60469543D01*
X136426447Y-60421924D01*
X136569304Y-60421924D01*
X136664542Y-60469543D01*
X136712161Y-60517162D01*
X136759780Y-60612401D01*
X136759780Y-60993353D01*
X135759780Y-60993353D01*
X135759780Y-60660020D01*
X135807400Y-60564781D01*
X135855019Y-60517162D01*
X135950257Y-60469543D01*
X136045495Y-60469543D01*
X136140733Y-60517162D01*
X136188352Y-60564781D01*
X136235971Y-60660020D01*
X136235971Y-60993353D01*
X136759780Y-59469543D02*
X136759780Y-60040972D01*
X136759780Y-59755258D02*
X135759780Y-59755258D01*
X135902638Y-59850496D01*
X135997876Y-59945734D01*
X136045495Y-60040972D01*
X100587161Y-62704458D02*
X100634780Y-62561601D01*
X100634780Y-62323505D01*
X100587161Y-62228267D01*
X100539542Y-62180648D01*
X100444304Y-62133029D01*
X100349066Y-62133029D01*
X100253828Y-62180648D01*
X100206209Y-62228267D01*
X100158590Y-62323505D01*
X100110971Y-62513981D01*
X100063352Y-62609220D01*
X100015733Y-62656839D01*
X99920495Y-62704458D01*
X99825257Y-62704458D01*
X99730019Y-62656839D01*
X99682400Y-62609220D01*
X99634780Y-62513981D01*
X99634780Y-62275886D01*
X99682400Y-62133029D01*
X99634780Y-61847315D02*
X99634780Y-61275886D01*
X100634780Y-61561601D02*
X99634780Y-61561601D01*
X100110971Y-60609220D02*
X100158590Y-60466362D01*
X100206209Y-60418743D01*
X100301447Y-60371124D01*
X100444304Y-60371124D01*
X100539542Y-60418743D01*
X100587161Y-60466362D01*
X100634780Y-60561601D01*
X100634780Y-60942553D01*
X99634780Y-60942553D01*
X99634780Y-60609220D01*
X99682400Y-60513981D01*
X99730019Y-60466362D01*
X99825257Y-60418743D01*
X99920495Y-60418743D01*
X100015733Y-60466362D01*
X100063352Y-60513981D01*
X100110971Y-60609220D01*
X100110971Y-60942553D01*
X100634780Y-59418743D02*
X100634780Y-59990172D01*
X100634780Y-59704458D02*
X99634780Y-59704458D01*
X99777638Y-59799696D01*
X99872876Y-59894934D01*
X99920495Y-59990172D01*
D12*
%TO.C,J2*%
X99147380Y-103406533D02*
X99861666Y-103406533D01*
X100004523Y-103454152D01*
X100099761Y-103549390D01*
X100147380Y-103692247D01*
X100147380Y-103787485D01*
X99242619Y-102977961D02*
X99195000Y-102930342D01*
X99147380Y-102835104D01*
X99147380Y-102597009D01*
X99195000Y-102501771D01*
X99242619Y-102454152D01*
X99337857Y-102406533D01*
X99433095Y-102406533D01*
X99575952Y-102454152D01*
X100147380Y-103025580D01*
X100147380Y-102406533D01*
D14*
%TO.C,G\u002A\u002A\u002A*%
X125951529Y-53557023D02*
X125806386Y-53484451D01*
X125588672Y-53484451D01*
X125370958Y-53557023D01*
X125225815Y-53702165D01*
X125153243Y-53847308D01*
X125080672Y-54137594D01*
X125080672Y-54355308D01*
X125153243Y-54645594D01*
X125225815Y-54790737D01*
X125370958Y-54935880D01*
X125588672Y-55008451D01*
X125733815Y-55008451D01*
X125951529Y-54935880D01*
X126024101Y-54863308D01*
X126024101Y-54355308D01*
X125733815Y-54355308D01*
X126894958Y-53484451D02*
X126894958Y-53847308D01*
X126532101Y-53702165D02*
X126894958Y-53847308D01*
X127257815Y-53702165D01*
X126677243Y-54137594D02*
X126894958Y-53847308D01*
X127112672Y-54137594D01*
X128056101Y-53484451D02*
X128056101Y-53847308D01*
X127693243Y-53702165D02*
X128056101Y-53847308D01*
X128418958Y-53702165D01*
X127838386Y-54137594D02*
X128056101Y-53847308D01*
X128273815Y-54137594D01*
X129217243Y-53484451D02*
X129217243Y-53847308D01*
X128854386Y-53702165D02*
X129217243Y-53847308D01*
X129580101Y-53702165D01*
X128999529Y-54137594D02*
X129217243Y-53847308D01*
X129434958Y-54137594D01*
D12*
%TO.C,J3*%
X135748780Y-48644133D02*
X136463066Y-48644133D01*
X136605923Y-48691752D01*
X136701161Y-48786990D01*
X136748780Y-48929847D01*
X136748780Y-49025085D01*
X135748780Y-48263180D02*
X135748780Y-47644133D01*
X136129733Y-47977466D01*
X136129733Y-47834609D01*
X136177352Y-47739371D01*
X136224971Y-47691752D01*
X136320209Y-47644133D01*
X136558304Y-47644133D01*
X136653542Y-47691752D01*
X136701161Y-47739371D01*
X136748780Y-47834609D01*
X136748780Y-48120323D01*
X136701161Y-48215561D01*
X136653542Y-48263180D01*
%TO.C,J4*%
X135494780Y-77574733D02*
X136209066Y-77574733D01*
X136351923Y-77622352D01*
X136447161Y-77717590D01*
X136494780Y-77860447D01*
X136494780Y-77955685D01*
X135828114Y-76669971D02*
X136494780Y-76669971D01*
X135447161Y-76908066D02*
X136161447Y-77146161D01*
X136161447Y-76527114D01*
%TO.C,J1*%
X99172780Y-74450533D02*
X99887066Y-74450533D01*
X100029923Y-74498152D01*
X100125161Y-74593390D01*
X100172780Y-74736247D01*
X100172780Y-74831485D01*
X100172780Y-73450533D02*
X100172780Y-74021961D01*
X100172780Y-73736247D02*
X99172780Y-73736247D01*
X99315638Y-73831485D01*
X99410876Y-73926723D01*
X99458495Y-74021961D01*
D15*
%TO.C,J2*%
X98831600Y-103911600D02*
X91617600Y-103911600D01*
X98831600Y-76123600D02*
X98831600Y-103911600D01*
X91617600Y-76123600D02*
X98831600Y-76123600D01*
X91617600Y-103911600D02*
X91617600Y-76123600D01*
D13*
X90183080Y-79583280D02*
G75*
G03*
X90183080Y-79583280I-100000J0D01*
G01*
%TO.C,G\u002A\u002A\u002A*%
G36*
X122996079Y-55006933D02*
G01*
X123024447Y-55047606D01*
X123045427Y-55092474D01*
X123049598Y-55113403D01*
X123031571Y-55130379D01*
X122982616Y-55164851D01*
X122910416Y-55211844D01*
X122822658Y-55266380D01*
X122727027Y-55323481D01*
X122709306Y-55333800D01*
X122603579Y-55395112D01*
X122577570Y-55338028D01*
X122567573Y-55278479D01*
X122589431Y-55232207D01*
X122636561Y-55212640D01*
X122639053Y-55212603D01*
X122666982Y-55199617D01*
X122669827Y-55190263D01*
X122687921Y-55170444D01*
X122703336Y-55167924D01*
X122733064Y-55155861D01*
X122736845Y-55145584D01*
X122754939Y-55125765D01*
X122770354Y-55123245D01*
X122800083Y-55111182D01*
X122803863Y-55100905D01*
X122820988Y-55079362D01*
X122827137Y-55078566D01*
X122859000Y-55064594D01*
X122898368Y-55033887D01*
X122941287Y-55001433D01*
X122972036Y-54989208D01*
X122996079Y-55006933D01*
G37*
G36*
X130571018Y-52448284D02*
G01*
X130587288Y-52468053D01*
X130595675Y-52493132D01*
X130596105Y-52532729D01*
X130588503Y-52596054D01*
X130572793Y-52692317D01*
X130568832Y-52715400D01*
X130518995Y-52947720D01*
X130453168Y-53165315D01*
X130374349Y-53360764D01*
X130285538Y-53526645D01*
X130189732Y-53655535D01*
X130188527Y-53656854D01*
X130136746Y-53702311D01*
X130084284Y-53731574D01*
X130041909Y-53740711D01*
X130020387Y-53725788D01*
X130019519Y-53718592D01*
X130034819Y-53689599D01*
X130053842Y-53670502D01*
X130106976Y-53608316D01*
X130165208Y-53508624D01*
X130225949Y-53377932D01*
X130286606Y-53222746D01*
X130344587Y-53049572D01*
X130397302Y-52864915D01*
X130432451Y-52719993D01*
X130457071Y-52615360D01*
X130480371Y-52526355D01*
X130499753Y-52462288D01*
X130512617Y-52432466D01*
X130512779Y-52432293D01*
X130543777Y-52428392D01*
X130571018Y-52448284D01*
G37*
G36*
X123723128Y-56257238D02*
G01*
X123760981Y-56297515D01*
X123793949Y-56344878D01*
X123809082Y-56383156D01*
X123809140Y-56384836D01*
X123791562Y-56404010D01*
X123744827Y-56440447D01*
X123677935Y-56488170D01*
X123599889Y-56541199D01*
X123519687Y-56593556D01*
X123446331Y-56639262D01*
X123388821Y-56672339D01*
X123356158Y-56686807D01*
X123354244Y-56687009D01*
X123335278Y-56670230D01*
X123301925Y-56627817D01*
X123284650Y-56603236D01*
X123251000Y-56550761D01*
X123241548Y-56520953D01*
X123254204Y-56500348D01*
X123267090Y-56490094D01*
X123316223Y-56456447D01*
X123385764Y-56412480D01*
X123465842Y-56363978D01*
X123546587Y-56316727D01*
X123618129Y-56276514D01*
X123670598Y-56249124D01*
X123693339Y-56240219D01*
X123723128Y-56257238D01*
G37*
G36*
X123537711Y-55967363D02*
G01*
X123573665Y-56010741D01*
X123611119Y-56065999D01*
X123640631Y-56119196D01*
X123652762Y-56156393D01*
X123652764Y-56156660D01*
X123634841Y-56177415D01*
X123587275Y-56214108D01*
X123519369Y-56260788D01*
X123440430Y-56311500D01*
X123359761Y-56360292D01*
X123286668Y-56401210D01*
X123230453Y-56428301D01*
X123224641Y-56430583D01*
X123193831Y-56427505D01*
X123158731Y-56391441D01*
X123129698Y-56346025D01*
X123096546Y-56285590D01*
X123075655Y-56240076D01*
X123071937Y-56226273D01*
X123089781Y-56207446D01*
X123137060Y-56172368D01*
X123204400Y-56126918D01*
X123282426Y-56076977D01*
X123361761Y-56028426D01*
X123433032Y-55987146D01*
X123486861Y-55959017D01*
X123512694Y-55949806D01*
X123537711Y-55967363D01*
G37*
G36*
X127390623Y-48782039D02*
G01*
X127611593Y-48784395D01*
X127828536Y-48788527D01*
X128034531Y-48794336D01*
X128222660Y-48801724D01*
X128386003Y-48810592D01*
X128517641Y-48820841D01*
X128601195Y-48830835D01*
X128926176Y-48890135D01*
X129235275Y-48963879D01*
X129523060Y-49050201D01*
X129784100Y-49147237D01*
X130012963Y-49253122D01*
X130204218Y-49365990D01*
X130246720Y-49395960D01*
X130426155Y-49555103D01*
X130582333Y-49751479D01*
X130714553Y-49983754D01*
X130822117Y-50250595D01*
X130904323Y-50550667D01*
X130934658Y-50706636D01*
X130948505Y-50797596D01*
X130963045Y-50910160D01*
X130977576Y-51036657D01*
X130991395Y-51169415D01*
X131003800Y-51300760D01*
X131014089Y-51423022D01*
X131021561Y-51528528D01*
X131025512Y-51609606D01*
X131025241Y-51658583D01*
X131022772Y-51669357D01*
X130998421Y-51669029D01*
X130939650Y-51661599D01*
X130855913Y-51648404D01*
X130779061Y-51634915D01*
X130161016Y-51534790D01*
X129530099Y-51458401D01*
X128874958Y-51404453D01*
X128634470Y-51390458D01*
X128483912Y-51384471D01*
X128295483Y-51379984D01*
X128075961Y-51376939D01*
X127832129Y-51375282D01*
X127570765Y-51374957D01*
X127298650Y-51375909D01*
X127022564Y-51378080D01*
X126749287Y-51381417D01*
X126485600Y-51385863D01*
X126238283Y-51391362D01*
X126014115Y-51397859D01*
X125819878Y-51405299D01*
X125662350Y-51413624D01*
X125640979Y-51415037D01*
X125369174Y-51436650D01*
X125078492Y-51465172D01*
X124779193Y-51499266D01*
X124481536Y-51537597D01*
X124195781Y-51578829D01*
X123932188Y-51621625D01*
X123701017Y-51664651D01*
X123661058Y-51672855D01*
X123609149Y-51677234D01*
X123579107Y-51667841D01*
X123578505Y-51666981D01*
X123574625Y-51635946D01*
X123575162Y-51568533D01*
X123579513Y-51472762D01*
X123587080Y-51356651D01*
X123597260Y-51228221D01*
X123609454Y-51095490D01*
X123623060Y-50966477D01*
X123637479Y-50849201D01*
X123642407Y-50813794D01*
X123679833Y-50589689D01*
X123724150Y-50397137D01*
X123779114Y-50223120D01*
X123848478Y-50054624D01*
X123881438Y-49985162D01*
X123939698Y-49871596D01*
X123993166Y-49782788D01*
X124052580Y-49703826D01*
X124128677Y-49619797D01*
X124187664Y-49559892D01*
X124303084Y-49450950D01*
X124406617Y-49368420D01*
X124511798Y-49301968D01*
X124557513Y-49277497D01*
X124886846Y-49130305D01*
X125251914Y-49008033D01*
X125651100Y-48911087D01*
X126082788Y-48839869D01*
X126467540Y-48800363D01*
X126604856Y-48792355D01*
X126772742Y-48786618D01*
X126964278Y-48783052D01*
X127172545Y-48781558D01*
X127390623Y-48782039D01*
G37*
G36*
X131289220Y-55670530D02*
G01*
X131345878Y-55700014D01*
X131418728Y-55741955D01*
X131498300Y-55790462D01*
X131575121Y-55839644D01*
X131639720Y-55883610D01*
X131682627Y-55916470D01*
X131694980Y-55931036D01*
X131684002Y-55969179D01*
X131657088Y-56022474D01*
X131623268Y-56076289D01*
X131591572Y-56115989D01*
X131573584Y-56127752D01*
X131545670Y-56116651D01*
X131488396Y-56087169D01*
X131410634Y-56044046D01*
X131337549Y-56001678D01*
X131251515Y-55950764D01*
X131180971Y-55908795D01*
X131134005Y-55880598D01*
X131118679Y-55871075D01*
X131123697Y-55849774D01*
X131147465Y-55805891D01*
X131181513Y-55752271D01*
X131217372Y-55701763D01*
X131246573Y-55667215D01*
X131258225Y-55659392D01*
X131289220Y-55670530D01*
G37*
G36*
X123447208Y-52293658D02*
G01*
X123455129Y-52235166D01*
X123460670Y-52220955D01*
X123493458Y-52208019D01*
X123564139Y-52189511D01*
X123666446Y-52166632D01*
X123794111Y-52140584D01*
X123940863Y-52112570D01*
X124100436Y-52083792D01*
X124266560Y-52055452D01*
X124432968Y-52028753D01*
X124568683Y-52008430D01*
X125106212Y-51941953D01*
X125680335Y-51891791D01*
X126286007Y-51858054D01*
X126918186Y-51840853D01*
X127571828Y-51840297D01*
X128241889Y-51856499D01*
X128923326Y-51889567D01*
X129192958Y-51907191D01*
X129508106Y-51933270D01*
X129818060Y-51967524D01*
X130138994Y-52011958D01*
X130466308Y-52065000D01*
X130661191Y-52098854D01*
X130816422Y-52126991D01*
X130936492Y-52150587D01*
X131025894Y-52170817D01*
X131089119Y-52188857D01*
X131130660Y-52205883D01*
X131155008Y-52223072D01*
X131166655Y-52241597D01*
X131168607Y-52248832D01*
X131171388Y-52282555D01*
X131174660Y-52355124D01*
X131178249Y-52460711D01*
X131181986Y-52593487D01*
X131185698Y-52747624D01*
X131189213Y-52917293D01*
X131190753Y-53000993D01*
X131194927Y-53196400D01*
X131200517Y-53397280D01*
X131207160Y-53593858D01*
X131214490Y-53776357D01*
X131222144Y-53935002D01*
X131229757Y-54060016D01*
X131230725Y-54073289D01*
X131243616Y-54256679D01*
X131251570Y-54402186D01*
X131254370Y-54516355D01*
X131251797Y-54605730D01*
X131243630Y-54676858D01*
X131229652Y-54736285D01*
X131209643Y-54790554D01*
X131206482Y-54797809D01*
X131175700Y-54857829D01*
X131132086Y-54931198D01*
X131082226Y-55008235D01*
X131032707Y-55079261D01*
X130990117Y-55134595D01*
X130961041Y-55164557D01*
X130955079Y-55167272D01*
X130946259Y-55147211D01*
X130936023Y-55093776D01*
X130926465Y-55018133D01*
X130925738Y-55010900D01*
X130918699Y-54928882D01*
X130920348Y-54872644D01*
X130935087Y-54825058D01*
X130967319Y-54768994D01*
X131001040Y-54717941D01*
X131042662Y-54651726D01*
X131070833Y-54592630D01*
X131086553Y-54531274D01*
X131090824Y-54458279D01*
X131084647Y-54364265D01*
X131069021Y-54239852D01*
X131059279Y-54172166D01*
X131046246Y-54070410D01*
X131032068Y-53938165D01*
X131018116Y-53789549D01*
X131005760Y-53638681D01*
X131000869Y-53570650D01*
X130992076Y-53445604D01*
X130983932Y-53337176D01*
X130977032Y-53252751D01*
X130971975Y-53199712D01*
X130969680Y-53184864D01*
X130963786Y-53203498D01*
X130950860Y-53258887D01*
X130932450Y-53343936D01*
X130910103Y-53451552D01*
X130892704Y-53537724D01*
X130853140Y-53727678D01*
X130816681Y-53879719D01*
X130780263Y-54000185D01*
X130740823Y-54095414D01*
X130695296Y-54171745D01*
X130640620Y-54235516D01*
X130573730Y-54293065D01*
X130503587Y-54342756D01*
X130400675Y-54401802D01*
X130318720Y-54425866D01*
X130252366Y-54416069D01*
X130226159Y-54400905D01*
X130201984Y-54391638D01*
X130198235Y-54397211D01*
X130184491Y-54399220D01*
X130164725Y-54386041D01*
X130137709Y-54370445D01*
X130131216Y-54374872D01*
X130117472Y-54376881D01*
X130097707Y-54363702D01*
X130070686Y-54348037D01*
X130064198Y-54352366D01*
X130048379Y-54353460D01*
X130010135Y-54333409D01*
X130008349Y-54332247D01*
X129969425Y-54310672D01*
X129952522Y-54309089D01*
X129952500Y-54309461D01*
X129935364Y-54307210D01*
X129891444Y-54286478D01*
X129854914Y-54266079D01*
X129796770Y-54236021D01*
X129754954Y-54221788D01*
X129743216Y-54223000D01*
X129730356Y-54219718D01*
X129729105Y-54209730D01*
X129716001Y-54192912D01*
X129706766Y-54196156D01*
X129686213Y-54193643D01*
X129684426Y-54184986D01*
X129670818Y-54170418D01*
X129662087Y-54173816D01*
X129641535Y-54171304D01*
X129639747Y-54162647D01*
X129626139Y-54148079D01*
X129617408Y-54151477D01*
X129596779Y-54150693D01*
X129595068Y-54143358D01*
X129576018Y-54122768D01*
X129528987Y-54099888D01*
X129516880Y-54095628D01*
X129465929Y-54074393D01*
X129439659Y-54054808D01*
X129438692Y-54051638D01*
X129419780Y-54033280D01*
X129382843Y-54019436D01*
X129341003Y-54001497D01*
X129326994Y-53983505D01*
X129308894Y-53964061D01*
X129293485Y-53961591D01*
X129263757Y-53949528D01*
X129259976Y-53939252D01*
X129241882Y-53919432D01*
X129226467Y-53916912D01*
X129196738Y-53904849D01*
X129192958Y-53894573D01*
X129174864Y-53874753D01*
X129159448Y-53872233D01*
X129129720Y-53860170D01*
X129125939Y-53849894D01*
X129107797Y-53830189D01*
X129091729Y-53827554D01*
X129054454Y-53809481D01*
X129044660Y-53794045D01*
X129016532Y-53764355D01*
X129000682Y-53760536D01*
X128972520Y-53747674D01*
X128969563Y-53738196D01*
X128951647Y-53717980D01*
X128938443Y-53715857D01*
X128903957Y-53697837D01*
X128894466Y-53682347D01*
X128864611Y-53652630D01*
X128847397Y-53648838D01*
X128817221Y-53636991D01*
X128813186Y-53626499D01*
X128795270Y-53606283D01*
X128782067Y-53604159D01*
X128747580Y-53586140D01*
X128738089Y-53570650D01*
X128708234Y-53540932D01*
X128691020Y-53537141D01*
X128660844Y-53525294D01*
X128656810Y-53514801D01*
X128638667Y-53495096D01*
X128622599Y-53492462D01*
X128585325Y-53474389D01*
X128575530Y-53458953D01*
X128548736Y-53429287D01*
X128533943Y-53425443D01*
X128501611Y-53407469D01*
X128492355Y-53391934D01*
X128462500Y-53362216D01*
X128445286Y-53358425D01*
X128415110Y-53346578D01*
X128411075Y-53336085D01*
X128393159Y-53315869D01*
X128379956Y-53313746D01*
X128345469Y-53295726D01*
X128335978Y-53280237D01*
X128306123Y-53250519D01*
X128288909Y-53246727D01*
X128258733Y-53234880D01*
X128254699Y-53224388D01*
X128236605Y-53204569D01*
X128221190Y-53202048D01*
X128191461Y-53189986D01*
X128187681Y-53179709D01*
X128169586Y-53159890D01*
X128154171Y-53157369D01*
X128124443Y-53145307D01*
X128120662Y-53135030D01*
X128102568Y-53115211D01*
X128087153Y-53112690D01*
X128057424Y-53100628D01*
X128053644Y-53090351D01*
X128035666Y-53070268D01*
X128021730Y-53068011D01*
X127979786Y-53053304D01*
X127959204Y-53037399D01*
X127915558Y-53003347D01*
X127860958Y-52972314D01*
X127810489Y-52951567D01*
X127779237Y-52948370D01*
X127777232Y-52949759D01*
X127764327Y-52946684D01*
X127763230Y-52937698D01*
X127752149Y-52914932D01*
X127746476Y-52914281D01*
X127712966Y-52911488D01*
X127676517Y-52901135D01*
X127673872Y-52900465D01*
X127647518Y-52891393D01*
X127645948Y-52890379D01*
X127622518Y-52882171D01*
X127595684Y-52875136D01*
X127388087Y-52840329D01*
X127202041Y-52841478D01*
X127137724Y-52850970D01*
X127042788Y-52869817D01*
X126983253Y-52883719D01*
X126964593Y-52890379D01*
X126942254Y-52899498D01*
X126849707Y-52935225D01*
X126727934Y-52998547D01*
X126580797Y-53087036D01*
X126412162Y-53198268D01*
X126225891Y-53329814D01*
X126057640Y-53454984D01*
X125802541Y-53645223D01*
X125574207Y-53807444D01*
X125367654Y-53945065D01*
X125177896Y-54061506D01*
X125148289Y-54078671D01*
X125027370Y-54146263D01*
X124912616Y-54206903D01*
X124812305Y-54256482D01*
X124734714Y-54290891D01*
X124691550Y-54305410D01*
X124656095Y-54318985D01*
X124618947Y-54337638D01*
X124581868Y-54353226D01*
X124568683Y-54350583D01*
X124554945Y-54348721D01*
X124540759Y-54357801D01*
X124504123Y-54377354D01*
X124442291Y-54402486D01*
X124405121Y-54415574D01*
X124327832Y-54435665D01*
X124268514Y-54432075D01*
X124210090Y-54400874D01*
X124158742Y-54358890D01*
X124119702Y-54334183D01*
X124096171Y-54332284D01*
X124078374Y-54327390D01*
X124077214Y-54319788D01*
X124058741Y-54294523D01*
X124023561Y-54275179D01*
X123961237Y-54232681D01*
X123898475Y-54157911D01*
X123843820Y-54062364D01*
X123818083Y-53998706D01*
X123802200Y-53942330D01*
X123780539Y-53851744D01*
X123755265Y-53736704D01*
X123728544Y-53606965D01*
X123709589Y-53509752D01*
X123685514Y-53383635D01*
X123666376Y-53288835D01*
X123651229Y-53226928D01*
X123639126Y-53199492D01*
X123629122Y-53208105D01*
X123620270Y-53254343D01*
X123611624Y-53339783D01*
X123602238Y-53466002D01*
X123591166Y-53634578D01*
X123585948Y-53715857D01*
X123575912Y-53859884D01*
X123564056Y-54010975D01*
X123551719Y-54153118D01*
X123540236Y-54270301D01*
X123537885Y-54291782D01*
X123525887Y-54435613D01*
X123528033Y-54546588D01*
X123546335Y-54634850D01*
X123582807Y-54710544D01*
X123634437Y-54778139D01*
X123670205Y-54820976D01*
X123689314Y-54856434D01*
X123694823Y-54899092D01*
X123689786Y-54963526D01*
X123683693Y-55013023D01*
X123663934Y-55169303D01*
X123613296Y-55133575D01*
X123580654Y-55101132D01*
X123575618Y-55076879D01*
X123569958Y-55052602D01*
X123553652Y-55042508D01*
X123523088Y-55014673D01*
X123518727Y-54997987D01*
X123505866Y-54969826D01*
X123496388Y-54966868D01*
X123476568Y-54948774D01*
X123474048Y-54933359D01*
X123463893Y-54903603D01*
X123455294Y-54899850D01*
X123433668Y-54881748D01*
X123409139Y-54839709D01*
X123385153Y-54777003D01*
X123368642Y-54706506D01*
X123359284Y-54621400D01*
X123356752Y-54514862D01*
X123360724Y-54380074D01*
X123370874Y-54210214D01*
X123375894Y-54140307D01*
X123384664Y-54003649D01*
X123393504Y-53832629D01*
X123402004Y-53637561D01*
X123409758Y-53428759D01*
X123416355Y-53216538D01*
X123421387Y-53011212D01*
X123422148Y-52973002D01*
X123427424Y-52736269D01*
X123433357Y-52544164D01*
X123434587Y-52516657D01*
X123955276Y-52516657D01*
X123963991Y-52614047D01*
X123987984Y-52744112D01*
X124027492Y-52910185D01*
X124065788Y-53054333D01*
X124130812Y-53262183D01*
X124203784Y-53442983D01*
X124282500Y-53592828D01*
X124364757Y-53707812D01*
X124448351Y-53784029D01*
X124490165Y-53806463D01*
X124589370Y-53825163D01*
X124698775Y-53810788D01*
X124766901Y-53784323D01*
X124807564Y-53761304D01*
X124880213Y-53717821D01*
X124979134Y-53657389D01*
X125098613Y-53583525D01*
X125232938Y-53499744D01*
X125376395Y-53409562D01*
X125397101Y-53396488D01*
X125621019Y-53255638D01*
X125813810Y-53135852D01*
X125981600Y-53033521D01*
X126130511Y-52945036D01*
X126266666Y-52866789D01*
X126396189Y-52795171D01*
X126525203Y-52726572D01*
X126595565Y-52690155D01*
X126693469Y-52636593D01*
X126781509Y-52582447D01*
X126848795Y-52534761D01*
X126880393Y-52505958D01*
X126924964Y-52426586D01*
X126933274Y-52362901D01*
X127673872Y-52362901D01*
X127676597Y-52405752D01*
X127687479Y-52444383D01*
X127710584Y-52481884D01*
X127749976Y-52521343D01*
X127809719Y-52565848D01*
X127893878Y-52618490D01*
X128006518Y-52682357D01*
X128151702Y-52760537D01*
X128299378Y-52838272D01*
X128359192Y-52871477D01*
X128450896Y-52924849D01*
X128568534Y-52994808D01*
X128706151Y-53077770D01*
X128857791Y-53170155D01*
X129017500Y-53268382D01*
X129114769Y-53328661D01*
X129316597Y-53454093D01*
X129484221Y-53557843D01*
X129621457Y-53641698D01*
X129732122Y-53707447D01*
X129820031Y-53756875D01*
X129889000Y-53791771D01*
X129942844Y-53813920D01*
X129985379Y-53825111D01*
X130020422Y-53827131D01*
X130051787Y-53821766D01*
X130083291Y-53810803D01*
X130115528Y-53797373D01*
X130200508Y-53742251D01*
X130285323Y-53651725D01*
X130362641Y-53534491D01*
X130400285Y-53459630D01*
X130460141Y-53314988D01*
X130515027Y-53159881D01*
X130563115Y-53001951D01*
X130602576Y-52848842D01*
X130631584Y-52708195D01*
X130648308Y-52587653D01*
X130650921Y-52494858D01*
X130642380Y-52447690D01*
X130606928Y-52399587D01*
X130572822Y-52378138D01*
X130536669Y-52371678D01*
X130462859Y-52363842D01*
X130358368Y-52355180D01*
X130230176Y-52346240D01*
X130085263Y-52337569D01*
X129997179Y-52332924D01*
X129851881Y-52325387D01*
X129702947Y-52317113D01*
X129545432Y-52307778D01*
X129374389Y-52297053D01*
X129184873Y-52284613D01*
X128971936Y-52270132D01*
X128730635Y-52253282D01*
X128456022Y-52233738D01*
X128143151Y-52211173D01*
X128050927Y-52204481D01*
X127908014Y-52199119D01*
X127803478Y-52208081D01*
X127732779Y-52233273D01*
X127691374Y-52276604D01*
X127674721Y-52339983D01*
X127673872Y-52362901D01*
X126933274Y-52362901D01*
X126935903Y-52342749D01*
X126912629Y-52267694D01*
X126891990Y-52241450D01*
X126875885Y-52226800D01*
X126857052Y-52215243D01*
X126831164Y-52206826D01*
X126793895Y-52201592D01*
X126740918Y-52199587D01*
X126667907Y-52200854D01*
X126570534Y-52205438D01*
X126444474Y-52213385D01*
X126285399Y-52224737D01*
X126088983Y-52239541D01*
X125935865Y-52251294D01*
X125724548Y-52267230D01*
X125493677Y-52284064D01*
X125256265Y-52300886D01*
X125025324Y-52316787D01*
X124813867Y-52330855D01*
X124646871Y-52341450D01*
X124488025Y-52351465D01*
X124342057Y-52361179D01*
X124215475Y-52370118D01*
X124114786Y-52377809D01*
X124046496Y-52383777D01*
X124018431Y-52387215D01*
X123982732Y-52406574D01*
X123961602Y-52448610D01*
X123955276Y-52516657D01*
X123434587Y-52516657D01*
X123439951Y-52396643D01*
X123447208Y-52293658D01*
G37*
G36*
X123099532Y-55207659D02*
G01*
X123131374Y-55247734D01*
X123155650Y-55292318D01*
X123161295Y-55315349D01*
X123143407Y-55334985D01*
X123096008Y-55370690D01*
X123028494Y-55416565D01*
X122950261Y-55466716D01*
X122870706Y-55515246D01*
X122799225Y-55556260D01*
X122745214Y-55583860D01*
X122719811Y-55592374D01*
X122696636Y-55574290D01*
X122673412Y-55535474D01*
X122654250Y-55487153D01*
X122647487Y-55459487D01*
X122665220Y-55441495D01*
X122712100Y-55407047D01*
X122778646Y-55362140D01*
X122855380Y-55312773D01*
X122932821Y-55264944D01*
X123001490Y-55224653D01*
X123051907Y-55197896D01*
X123072958Y-55190263D01*
X123099532Y-55207659D01*
G37*
G36*
X123250058Y-52335853D02*
G01*
X123313002Y-52349242D01*
X123340429Y-52364821D01*
X123349305Y-52385807D01*
X123355629Y-52427179D01*
X123359514Y-52493391D01*
X123361071Y-52588897D01*
X123360414Y-52718150D01*
X123357653Y-52885605D01*
X123355779Y-52973572D01*
X123351251Y-53135270D01*
X123344743Y-53311551D01*
X123336625Y-53496342D01*
X123327266Y-53683572D01*
X123317038Y-53867167D01*
X123306309Y-54041055D01*
X123295450Y-54199165D01*
X123284830Y-54335425D01*
X123274820Y-54443761D01*
X123265790Y-54518102D01*
X123259850Y-54548003D01*
X123249733Y-54569439D01*
X123230067Y-54580473D01*
X123191739Y-54581692D01*
X123125638Y-54573685D01*
X123049806Y-54561556D01*
X122975859Y-54544930D01*
X122917880Y-54524089D01*
X122896777Y-54510869D01*
X122865224Y-54456587D01*
X122839058Y-54361726D01*
X122818154Y-54225403D01*
X122802391Y-54046736D01*
X122791644Y-53824842D01*
X122789081Y-53738196D01*
X122785459Y-53573414D01*
X122784476Y-53441070D01*
X122786811Y-53328967D01*
X122793142Y-53224907D01*
X122804147Y-53116692D01*
X122820506Y-52992124D01*
X122836840Y-52879657D01*
X122862834Y-52712175D01*
X122885936Y-52583822D01*
X122907863Y-52489287D01*
X122930333Y-52423258D01*
X122955061Y-52380425D01*
X122983766Y-52355476D01*
X123009609Y-52345123D01*
X123083888Y-52332932D01*
X123168862Y-52330129D01*
X123250058Y-52335853D01*
G37*
G36*
X130786750Y-56452499D02*
G01*
X130843653Y-56482989D01*
X130921159Y-56527972D01*
X131003063Y-56577885D01*
X131096889Y-56636938D01*
X131158214Y-56678403D01*
X131192751Y-56707838D01*
X131206215Y-56730801D01*
X131204321Y-56752853D01*
X131198274Y-56767771D01*
X131175443Y-56807496D01*
X131159898Y-56821046D01*
X131138140Y-56806284D01*
X131095317Y-56767774D01*
X131046202Y-56719387D01*
X130971537Y-56650189D01*
X130887820Y-56582722D01*
X130840495Y-56549512D01*
X130771758Y-56500351D01*
X130737670Y-56464444D01*
X130740259Y-56444484D01*
X130758980Y-56441274D01*
X130786750Y-56452499D01*
G37*
G36*
X131125487Y-56331726D02*
G01*
X131214259Y-56385725D01*
X131287359Y-56434099D01*
X131336803Y-56471299D01*
X131354538Y-56490894D01*
X131347706Y-56525853D01*
X131324405Y-56575941D01*
X131293927Y-56625244D01*
X131265563Y-56657850D01*
X131254104Y-56662888D01*
X131229164Y-56651085D01*
X131174924Y-56620521D01*
X131099954Y-56576142D01*
X131031492Y-56534436D01*
X130946242Y-56479965D01*
X130875849Y-56431360D01*
X130828815Y-56394715D01*
X130813840Y-56378424D01*
X130817717Y-56342652D01*
X130842396Y-56290127D01*
X130851985Y-56275105D01*
X130902255Y-56201126D01*
X131125487Y-56331726D01*
G37*
G36*
X123364162Y-55681402D02*
G01*
X123394648Y-55717837D01*
X123414943Y-55747836D01*
X123450084Y-55807100D01*
X123471253Y-55854690D01*
X123474048Y-55868386D01*
X123456113Y-55889908D01*
X123408562Y-55927273D01*
X123340775Y-55974523D01*
X123262135Y-56025697D01*
X123182021Y-56074835D01*
X123109815Y-56115977D01*
X123054899Y-56143163D01*
X123029432Y-56150861D01*
X123006055Y-56132652D01*
X122974113Y-56086590D01*
X122959135Y-56059337D01*
X122933174Y-55998680D01*
X122921935Y-55951986D01*
X122922998Y-55940307D01*
X122946050Y-55916978D01*
X122998291Y-55878737D01*
X123069949Y-55832546D01*
X123097688Y-55815860D01*
X123179441Y-55767294D01*
X123251290Y-55724112D01*
X123300688Y-55693868D01*
X123308830Y-55688720D01*
X123339397Y-55673837D01*
X123364162Y-55681402D01*
G37*
G36*
X131978374Y-54598879D02*
G01*
X132098631Y-54673874D01*
X132227300Y-54771506D01*
X132349892Y-54879571D01*
X132451917Y-54985862D01*
X132482470Y-55023499D01*
X132568025Y-55170431D01*
X132623940Y-55341222D01*
X132650499Y-55526552D01*
X132647986Y-55717103D01*
X132616685Y-55903554D01*
X132556879Y-56076588D01*
X132468853Y-56226885D01*
X132444885Y-56256974D01*
X132400655Y-56302599D01*
X132363997Y-56329118D01*
X132344296Y-56330349D01*
X132343124Y-56323992D01*
X132350123Y-56301896D01*
X132368612Y-56247423D01*
X132395255Y-56170346D01*
X132409844Y-56128522D01*
X132461449Y-55939666D01*
X132475467Y-55771542D01*
X132451279Y-55619792D01*
X132388270Y-55480063D01*
X132301801Y-55365338D01*
X132225232Y-55289710D01*
X132135907Y-55214981D01*
X132074877Y-55171660D01*
X132010018Y-55129624D01*
X131961446Y-55096542D01*
X131940715Y-55080487D01*
X131915394Y-55063007D01*
X131865396Y-55034959D01*
X131844691Y-55024202D01*
X131798015Y-54995007D01*
X131732818Y-54947299D01*
X131657203Y-54887870D01*
X131579268Y-54823518D01*
X131507115Y-54761036D01*
X131448844Y-54707220D01*
X131412555Y-54668866D01*
X131404567Y-54654997D01*
X131424655Y-54643110D01*
X131476240Y-54630832D01*
X131521203Y-54624185D01*
X131616426Y-54607303D01*
X131715735Y-54581485D01*
X131746154Y-54571422D01*
X131854468Y-54532473D01*
X131978374Y-54598879D01*
G37*
G36*
X127480784Y-52905809D02*
G01*
X127627312Y-52943589D01*
X127783354Y-53005941D01*
X127953365Y-53094565D01*
X128141802Y-53211157D01*
X128353120Y-53357416D01*
X128522773Y-53482673D01*
X128777116Y-53671742D01*
X129003850Y-53834075D01*
X129208546Y-53972856D01*
X129396778Y-54091266D01*
X129574119Y-54192488D01*
X129746141Y-54279705D01*
X129918418Y-54356100D01*
X130096522Y-54424855D01*
X130284087Y-54488531D01*
X130411452Y-54530018D01*
X130504582Y-54562760D01*
X130572015Y-54590923D01*
X130622291Y-54618669D01*
X130663947Y-54650163D01*
X130705522Y-54689569D01*
X130714013Y-54698188D01*
X130806472Y-54821778D01*
X130857817Y-54960292D01*
X130868419Y-55063765D01*
X130855550Y-55153730D01*
X130819105Y-55271191D01*
X130762329Y-55407911D01*
X130688465Y-55555653D01*
X130642653Y-55637053D01*
X130571553Y-55759501D01*
X130492275Y-55897682D01*
X130416750Y-56030734D01*
X130378432Y-56099011D01*
X130319889Y-56200766D01*
X130277152Y-56266707D01*
X130246794Y-56301347D01*
X130225387Y-56309198D01*
X130220393Y-56307126D01*
X130183553Y-56295958D01*
X130171377Y-56298860D01*
X130154724Y-56293050D01*
X130153556Y-56284898D01*
X130139947Y-56270330D01*
X130131216Y-56273728D01*
X130110631Y-56271957D01*
X130108877Y-56263877D01*
X130097028Y-56244369D01*
X130092122Y-56244616D01*
X130066102Y-56237007D01*
X130010294Y-56212947D01*
X129934454Y-56176783D01*
X129891167Y-56155059D01*
X129808684Y-56113442D01*
X129741324Y-56080304D01*
X129698913Y-56060436D01*
X129690111Y-56056971D01*
X129662459Y-56039984D01*
X129630779Y-56013264D01*
X129593457Y-55987166D01*
X129571687Y-55983959D01*
X129551015Y-55975913D01*
X129541718Y-55959431D01*
X129520636Y-55935718D01*
X129508209Y-55937092D01*
X129484589Y-55931004D01*
X129474700Y-55914752D01*
X129453618Y-55891039D01*
X129441191Y-55892413D01*
X129417399Y-55886554D01*
X129408225Y-55871489D01*
X129385015Y-55841978D01*
X129373163Y-55838108D01*
X129342386Y-55824204D01*
X129299858Y-55790915D01*
X129235987Y-55730227D01*
X129148365Y-55644682D01*
X129044264Y-55541577D01*
X128930953Y-55428209D01*
X128815702Y-55311875D01*
X128705783Y-55199871D01*
X128608466Y-55099497D01*
X128551292Y-55039593D01*
X128432742Y-54914927D01*
X128328131Y-54806816D01*
X128223818Y-54701378D01*
X128106161Y-54584734D01*
X128051902Y-54531432D01*
X128001258Y-54486103D01*
X127961148Y-54457802D01*
X127948179Y-54453060D01*
X127920535Y-54435133D01*
X127910985Y-54418135D01*
X127889904Y-54394326D01*
X127877426Y-54395667D01*
X127854019Y-54389304D01*
X127843233Y-54371546D01*
X127825556Y-54346843D01*
X127816175Y-54347990D01*
X127792605Y-54344197D01*
X127757469Y-54318450D01*
X127718274Y-54291196D01*
X127692829Y-54287605D01*
X127674731Y-54283862D01*
X127673872Y-54278084D01*
X127654359Y-54258118D01*
X127605782Y-54236672D01*
X127543085Y-54219977D01*
X127528666Y-54217528D01*
X127489072Y-54206514D01*
X127472817Y-54200365D01*
X127428977Y-54193290D01*
X127356906Y-54192128D01*
X127270343Y-54195882D01*
X127183025Y-54203555D01*
X127108692Y-54214152D01*
X127061081Y-54226675D01*
X127053951Y-54230748D01*
X127030888Y-54238042D01*
X126989737Y-54251141D01*
X126933989Y-54276119D01*
X126878300Y-54305381D01*
X126837320Y-54331335D01*
X126824972Y-54344755D01*
X126806960Y-54361841D01*
X126793324Y-54363702D01*
X126759937Y-54374499D01*
X126754230Y-54381797D01*
X126734038Y-54403736D01*
X126688094Y-54444138D01*
X126626195Y-54494403D01*
X126623916Y-54496191D01*
X126546423Y-54561987D01*
X126471081Y-54634156D01*
X126424827Y-54684736D01*
X126367695Y-54750170D01*
X126284246Y-54840788D01*
X126180237Y-54950751D01*
X126061424Y-55074218D01*
X125933566Y-55205348D01*
X125802420Y-55338302D01*
X125673743Y-55467237D01*
X125553293Y-55586314D01*
X125446828Y-55689692D01*
X125360103Y-55771531D01*
X125304383Y-55821354D01*
X125246157Y-55866963D01*
X125198558Y-55897389D01*
X125177670Y-55905127D01*
X125151551Y-55919138D01*
X125149510Y-55927466D01*
X125131416Y-55947285D01*
X125116001Y-55949806D01*
X125086272Y-55961868D01*
X125082491Y-55972145D01*
X125064397Y-55991964D01*
X125048982Y-55994485D01*
X125019231Y-56004934D01*
X125015473Y-56013789D01*
X124996483Y-56032299D01*
X124948175Y-56057705D01*
X124914945Y-56071486D01*
X124856281Y-56098016D01*
X124820061Y-56122344D01*
X124814418Y-56131688D01*
X124800622Y-56143304D01*
X124792078Y-56139691D01*
X124771526Y-56142204D01*
X124769739Y-56150861D01*
X124756130Y-56165429D01*
X124747399Y-56162031D01*
X124726847Y-56164543D01*
X124725060Y-56173201D01*
X124711451Y-56187768D01*
X124702720Y-56184370D01*
X124682168Y-56186883D01*
X124680381Y-56195540D01*
X124666772Y-56210108D01*
X124658041Y-56206710D01*
X124637489Y-56209222D01*
X124635702Y-56217880D01*
X124622093Y-56232447D01*
X124613362Y-56229049D01*
X124592810Y-56231562D01*
X124591023Y-56240219D01*
X124577414Y-56254787D01*
X124568683Y-56251389D01*
X124548131Y-56253901D01*
X124546344Y-56262559D01*
X124532735Y-56277126D01*
X124524004Y-56273728D01*
X124503330Y-56273439D01*
X124501665Y-56279994D01*
X124483467Y-56301828D01*
X124441183Y-56327458D01*
X124393276Y-56347054D01*
X124366577Y-56351917D01*
X124345043Y-56334079D01*
X124342643Y-56323992D01*
X124342008Y-56285134D01*
X124342643Y-56279313D01*
X124328222Y-56263247D01*
X124321630Y-56262559D01*
X124308288Y-56248873D01*
X124311779Y-56240219D01*
X124311392Y-56219573D01*
X124304349Y-56217880D01*
X124283687Y-56198932D01*
X124269096Y-56162031D01*
X124250701Y-56120178D01*
X124231847Y-56106182D01*
X124218902Y-56092471D01*
X124222421Y-56083843D01*
X124220650Y-56063257D01*
X124212570Y-56061503D01*
X124190985Y-56043696D01*
X124188912Y-56031412D01*
X124175232Y-55994020D01*
X124144233Y-55949806D01*
X124112133Y-55903581D01*
X124099554Y-55868199D01*
X124085554Y-55840745D01*
X124075896Y-55838108D01*
X124062554Y-55824422D01*
X124066045Y-55815769D01*
X124064515Y-55795173D01*
X124056619Y-55793429D01*
X124034448Y-55774460D01*
X124019369Y-55737581D01*
X124001665Y-55695747D01*
X123984116Y-55681732D01*
X123973037Y-55667902D01*
X123976687Y-55659392D01*
X123976300Y-55638747D01*
X123969257Y-55637053D01*
X123948595Y-55618105D01*
X123934004Y-55581204D01*
X123915609Y-55539352D01*
X123896754Y-55525355D01*
X123883809Y-55511644D01*
X123887329Y-55503016D01*
X123884816Y-55482464D01*
X123876159Y-55480676D01*
X123861591Y-55467068D01*
X123864989Y-55458337D01*
X123863218Y-55437751D01*
X123855138Y-55435997D01*
X123834941Y-55424062D01*
X123834930Y-55419243D01*
X123828737Y-55390065D01*
X123809076Y-55337188D01*
X123800071Y-55316201D01*
X123753450Y-55163668D01*
X123748997Y-55015225D01*
X123786128Y-54875820D01*
X123864263Y-54750400D01*
X123866908Y-54747286D01*
X123909982Y-54699612D01*
X123952331Y-54661491D01*
X124001824Y-54628848D01*
X124066328Y-54597605D01*
X124153712Y-54563687D01*
X124271843Y-54523018D01*
X124348976Y-54497540D01*
X124556616Y-54424167D01*
X124755591Y-54342102D01*
X124951978Y-54247877D01*
X125151858Y-54138022D01*
X125361310Y-54009068D01*
X125586413Y-53857548D01*
X125833248Y-53679992D01*
X125998410Y-53556413D01*
X126195860Y-53408274D01*
X126363682Y-53285872D01*
X126506597Y-53186371D01*
X126629327Y-53106938D01*
X126736595Y-53044738D01*
X126833121Y-52996937D01*
X126923629Y-52960700D01*
X127012838Y-52933192D01*
X127053722Y-52922929D01*
X127198445Y-52897177D01*
X127339313Y-52890904D01*
X127480784Y-52905809D01*
G37*
G36*
X123282216Y-54746229D02*
G01*
X123296133Y-54769771D01*
X123321448Y-54817774D01*
X123329105Y-54832831D01*
X123356633Y-54879788D01*
X123404351Y-54953546D01*
X123466082Y-55044836D01*
X123535650Y-55144391D01*
X123552425Y-55167924D01*
X123633697Y-55282861D01*
X123719092Y-55405939D01*
X123798468Y-55522413D01*
X123861682Y-55617537D01*
X123861724Y-55617602D01*
X123922232Y-55714957D01*
X123986013Y-55825024D01*
X124049606Y-55940910D01*
X124109550Y-56055728D01*
X124162382Y-56162588D01*
X124204640Y-56254599D01*
X124232863Y-56324873D01*
X124243589Y-56366519D01*
X124241812Y-56374059D01*
X124212733Y-56388602D01*
X124155932Y-56409713D01*
X124086848Y-56432416D01*
X124020919Y-56451731D01*
X123973584Y-56462679D01*
X123964096Y-56463614D01*
X123947256Y-56445875D01*
X123910520Y-56396760D01*
X123858240Y-56322420D01*
X123794765Y-56229007D01*
X123742801Y-56150696D01*
X123677344Y-56048807D01*
X123602623Y-55928694D01*
X123521888Y-55795970D01*
X123438391Y-55656250D01*
X123355381Y-55515149D01*
X123276110Y-55378279D01*
X123203829Y-55251255D01*
X123141787Y-55139692D01*
X123093237Y-55049203D01*
X123061427Y-54985403D01*
X123049610Y-54953905D01*
X123049598Y-54953497D01*
X123064522Y-54929131D01*
X123102455Y-54888452D01*
X123153140Y-54840599D01*
X123206321Y-54794712D01*
X123251740Y-54759931D01*
X123279139Y-54745393D01*
X123282216Y-54746229D01*
G37*
G36*
X123264186Y-58138759D02*
G01*
X123260081Y-58115863D01*
X123236098Y-57885602D01*
X123242364Y-57655241D01*
X123276795Y-57431026D01*
X123337305Y-57219205D01*
X123421811Y-57026024D01*
X123528228Y-56857729D01*
X123654472Y-56720567D01*
X123749566Y-56648907D01*
X123796999Y-56625270D01*
X123878953Y-56591176D01*
X123987369Y-56549695D01*
X124114186Y-56503897D01*
X124251343Y-56456851D01*
X124271015Y-56450305D01*
X124514677Y-56366444D01*
X124730516Y-56284370D01*
X124925780Y-56199851D01*
X125107721Y-56108653D01*
X125283588Y-56006543D01*
X125460634Y-55889288D01*
X125646106Y-55752655D01*
X125847257Y-55592411D01*
X126071336Y-55404322D01*
X126090235Y-55388147D01*
X126267419Y-55238074D01*
X126417658Y-55115323D01*
X126546326Y-55016370D01*
X126658799Y-54937690D01*
X126760452Y-54875760D01*
X126856660Y-54827054D01*
X126952800Y-54788050D01*
X127054247Y-54755221D01*
X127056681Y-54754512D01*
X127234454Y-54725897D01*
X127424311Y-54739153D01*
X127624495Y-54793667D01*
X127833252Y-54888829D01*
X128048825Y-55024027D01*
X128226775Y-55162082D01*
X128284724Y-55208736D01*
X128326642Y-55238494D01*
X128343984Y-55245328D01*
X128344057Y-55244826D01*
X128355671Y-55248690D01*
X128383896Y-55279595D01*
X128386552Y-55282940D01*
X128415664Y-55313257D01*
X128468711Y-55362597D01*
X128538603Y-55424922D01*
X128618249Y-55494190D01*
X128700559Y-55564362D01*
X128778443Y-55629397D01*
X128844811Y-55683255D01*
X128892571Y-55719896D01*
X128914635Y-55733279D01*
X128915061Y-55733174D01*
X128934563Y-55743899D01*
X128973911Y-55776044D01*
X128988353Y-55789023D01*
X129035649Y-55826805D01*
X129106423Y-55876808D01*
X129190645Y-55932688D01*
X129278285Y-55988099D01*
X129359313Y-56036698D01*
X129423698Y-56072141D01*
X129461031Y-56088006D01*
X129497889Y-56102330D01*
X129505710Y-56108766D01*
X129533155Y-56129285D01*
X129580903Y-56155448D01*
X129634956Y-56180803D01*
X129681313Y-56198897D01*
X129705973Y-56203280D01*
X129707108Y-56201579D01*
X129716347Y-56200533D01*
X129724546Y-56211268D01*
X129751659Y-56229992D01*
X129810289Y-56258848D01*
X129889677Y-56293523D01*
X129979063Y-56329701D01*
X130067685Y-56363066D01*
X130144785Y-56389305D01*
X130199600Y-56404101D01*
X130209052Y-56405560D01*
X130257452Y-56415073D01*
X130277368Y-56422665D01*
X130306414Y-56434056D01*
X130368298Y-56455431D01*
X130453205Y-56483469D01*
X130528413Y-56507610D01*
X130632562Y-56543276D01*
X130728853Y-56580906D01*
X130804073Y-56615106D01*
X130835581Y-56633058D01*
X130882872Y-56662448D01*
X130910316Y-56674273D01*
X130913098Y-56672733D01*
X130924361Y-56674886D01*
X130954039Y-56706105D01*
X130995965Y-56758147D01*
X131043974Y-56822771D01*
X131091900Y-56891733D01*
X131133577Y-56956790D01*
X131158282Y-57000498D01*
X131262894Y-57251984D01*
X131325065Y-57515420D01*
X131344791Y-57791181D01*
X131322066Y-58079640D01*
X131256883Y-58381174D01*
X131149237Y-58696155D01*
X131130925Y-58740994D01*
X131099240Y-58819809D01*
X131076644Y-58881278D01*
X131066833Y-58915153D01*
X131066973Y-58918460D01*
X131058710Y-58936700D01*
X131053508Y-58940800D01*
X131030685Y-58966495D01*
X130998090Y-59014144D01*
X130962594Y-59072015D01*
X130931066Y-59128379D01*
X130910376Y-59171507D01*
X130907393Y-59189670D01*
X130907720Y-59189711D01*
X130905518Y-59199169D01*
X130885174Y-59213161D01*
X130852824Y-59243901D01*
X130846080Y-59262956D01*
X130829019Y-59294816D01*
X130801401Y-59317884D01*
X130766241Y-59351898D01*
X130756722Y-59377121D01*
X130740554Y-59409834D01*
X130700186Y-59453334D01*
X130684119Y-59467088D01*
X130621549Y-59518258D01*
X130562805Y-59567270D01*
X130555666Y-59573333D01*
X130433475Y-59654538D01*
X130274404Y-59724391D01*
X130085008Y-59782006D01*
X129871843Y-59826498D01*
X129641464Y-59856981D01*
X129400428Y-59872571D01*
X129155289Y-59872381D01*
X128912603Y-59855527D01*
X128696459Y-59824418D01*
X128471859Y-59775551D01*
X128286786Y-59718330D01*
X128136555Y-59650832D01*
X128016478Y-59571137D01*
X127964605Y-59524443D01*
X127913235Y-59465577D01*
X127879475Y-59404710D01*
X127862955Y-59334549D01*
X127863308Y-59247799D01*
X127880168Y-59137170D01*
X127913166Y-58995367D01*
X127933967Y-58916534D01*
X127923033Y-58877196D01*
X127876064Y-58843357D01*
X127822339Y-58808552D01*
X127811746Y-58783458D01*
X127843456Y-58769828D01*
X127911333Y-58769047D01*
X128014756Y-58775751D01*
X128099107Y-58481287D01*
X128141088Y-58335105D01*
X128171709Y-58226062D01*
X128191279Y-58148166D01*
X128200109Y-58095428D01*
X128198508Y-58061857D01*
X128186786Y-58041463D01*
X128165254Y-58028256D01*
X128134220Y-58016247D01*
X128123384Y-58012092D01*
X128032753Y-57976491D01*
X128026443Y-57739446D01*
X128020134Y-57502400D01*
X127902852Y-57495648D01*
X127832550Y-57488356D01*
X127795503Y-57471192D01*
X127788398Y-57436014D01*
X127807923Y-57374683D01*
X127831632Y-57320648D01*
X127858044Y-57257919D01*
X127865298Y-57218386D01*
X127854556Y-57185456D01*
X127842490Y-57165809D01*
X127782803Y-57100410D01*
X127706655Y-57052441D01*
X127624062Y-57023935D01*
X127545040Y-57016926D01*
X127479608Y-57033449D01*
X127437783Y-57075535D01*
X127434599Y-57082998D01*
X127408738Y-57124586D01*
X127365144Y-57173974D01*
X127358965Y-57179932D01*
X127298219Y-57237236D01*
X127205562Y-57129668D01*
X127140204Y-57062132D01*
X127082703Y-57029089D01*
X127019307Y-57027611D01*
X126936264Y-57054772D01*
X126908951Y-57066520D01*
X126847481Y-57098133D01*
X126797217Y-57131563D01*
X126766392Y-57160058D01*
X126763238Y-57176869D01*
X126771972Y-57178820D01*
X126773849Y-57188207D01*
X126759521Y-57199376D01*
X126744650Y-57216877D01*
X126746050Y-57247742D01*
X126765517Y-57302049D01*
X126786242Y-57349250D01*
X126818775Y-57429199D01*
X126825474Y-57478067D01*
X126802998Y-57503374D01*
X126748008Y-57512641D01*
X126713274Y-57513570D01*
X126654745Y-57516423D01*
X126615848Y-57528731D01*
X126592958Y-57557948D01*
X126582455Y-57611523D01*
X126580716Y-57696910D01*
X126582845Y-57781887D01*
X126590046Y-58011837D01*
X126502547Y-58042130D01*
X126445813Y-58063119D01*
X126410140Y-58078836D01*
X126405714Y-58081758D01*
X126406434Y-58102362D01*
X126418110Y-58156348D01*
X126441275Y-58245720D01*
X126476461Y-58372479D01*
X126524202Y-58538627D01*
X126559889Y-58660761D01*
X126604834Y-58813845D01*
X126701752Y-58799311D01*
X126771050Y-58795506D01*
X126810188Y-58805933D01*
X126814806Y-58826052D01*
X126780549Y-58851321D01*
X126759995Y-58860007D01*
X126717838Y-58882917D01*
X126695787Y-58917508D01*
X126692709Y-58972119D01*
X126707474Y-59055087D01*
X126724444Y-59122013D01*
X126752567Y-59263445D01*
X126752767Y-59373119D01*
X126725233Y-59449200D01*
X126704892Y-59488409D01*
X126704831Y-59508235D01*
X126696728Y-59526934D01*
X126660705Y-59556584D01*
X126653779Y-59561144D01*
X126598982Y-59599379D01*
X126557418Y-59633416D01*
X126495281Y-59675314D01*
X126396988Y-59719930D01*
X126270752Y-59764702D01*
X126124784Y-59807073D01*
X125967294Y-59844481D01*
X125806494Y-59874369D01*
X125763846Y-59880779D01*
X125653025Y-59891573D01*
X125511159Y-59898124D01*
X125350730Y-59900557D01*
X125184217Y-59898998D01*
X125024101Y-59893572D01*
X124882863Y-59884403D01*
X124772983Y-59871618D01*
X124767973Y-59870791D01*
X124529273Y-59820319D01*
X124326514Y-59754136D01*
X124152797Y-59669209D01*
X124001220Y-59562504D01*
X123937449Y-59505671D01*
X123788715Y-59339934D01*
X123649144Y-59138189D01*
X123522820Y-58908818D01*
X123413829Y-58660201D01*
X123410876Y-58651452D01*
X124113971Y-58651452D01*
X124148011Y-58820381D01*
X124193559Y-58930067D01*
X124277080Y-59053225D01*
X124396561Y-59172669D01*
X124543375Y-59281847D01*
X124708893Y-59374209D01*
X124858331Y-59434765D01*
X125027043Y-59476220D01*
X125221743Y-59499424D01*
X125427561Y-59504195D01*
X125629623Y-59490350D01*
X125813057Y-59457708D01*
X125852933Y-59446976D01*
X125983927Y-59401111D01*
X126115653Y-59341600D01*
X126232321Y-59276234D01*
X126306094Y-59223378D01*
X126379062Y-59141934D01*
X126432867Y-59042922D01*
X126460493Y-58941850D01*
X126460936Y-58881253D01*
X126443328Y-58761054D01*
X126425350Y-58668308D01*
X126402962Y-58585943D01*
X126372127Y-58496882D01*
X126366351Y-58481432D01*
X126329288Y-58385949D01*
X126298832Y-58325354D01*
X126265941Y-58292687D01*
X126221576Y-58280986D01*
X126156696Y-58283289D01*
X126114432Y-58287447D01*
X125968374Y-58302411D01*
X126037879Y-58215158D01*
X126069250Y-58166955D01*
X126114156Y-58086066D01*
X126168327Y-57980780D01*
X126227489Y-57859387D01*
X126284304Y-57736965D01*
X126387604Y-57510441D01*
X126476136Y-57321129D01*
X126552443Y-57165052D01*
X126619071Y-57038235D01*
X126678563Y-56936699D01*
X126733465Y-56856470D01*
X126786321Y-56793570D01*
X126839675Y-56744023D01*
X126896071Y-56703853D01*
X126958055Y-56669084D01*
X126972134Y-56662040D01*
X127055979Y-56623664D01*
X127125748Y-56601525D01*
X127200924Y-56591288D01*
X127300989Y-56588619D01*
X127302172Y-56588616D01*
X127468365Y-56597894D01*
X127604687Y-56629361D01*
X127722110Y-56687089D01*
X127831602Y-56775148D01*
X127847932Y-56791136D01*
X127887760Y-56833968D01*
X127926769Y-56883335D01*
X127967199Y-56943494D01*
X128011289Y-57018704D01*
X128061276Y-57113220D01*
X128119402Y-57231300D01*
X128187903Y-57377202D01*
X128269019Y-57555183D01*
X128364990Y-57769500D01*
X128378909Y-57800781D01*
X128432615Y-57915904D01*
X128487491Y-58023834D01*
X128537935Y-58114160D01*
X128578345Y-58176472D01*
X128586862Y-58187206D01*
X128627732Y-58238064D01*
X128651353Y-58273509D01*
X128653880Y-58283098D01*
X128629173Y-58284095D01*
X128574084Y-58278431D01*
X128522773Y-58270864D01*
X128449654Y-58261042D01*
X128405959Y-58263170D01*
X128377552Y-58279266D01*
X128364430Y-58293462D01*
X128331972Y-58349324D01*
X128296387Y-58437451D01*
X128261197Y-58545926D01*
X128229927Y-58662836D01*
X128206097Y-58776262D01*
X128193405Y-58871954D01*
X128181041Y-59035176D01*
X128312849Y-59163356D01*
X128429820Y-59260524D01*
X128562285Y-59336485D01*
X128719086Y-59395178D01*
X128909066Y-59440543D01*
X128953229Y-59448609D01*
X129137275Y-59469589D01*
X129333695Y-59472785D01*
X129524946Y-59458751D01*
X129693488Y-59428043D01*
X129705753Y-59424804D01*
X129879473Y-59362660D01*
X130046897Y-59275033D01*
X130198282Y-59168704D01*
X130323887Y-59050458D01*
X130409604Y-58934739D01*
X130455943Y-58836660D01*
X130492943Y-58724035D01*
X130516967Y-58611951D01*
X130524381Y-58515492D01*
X130520269Y-58475557D01*
X130507803Y-58415164D01*
X130499033Y-58372482D01*
X130498403Y-58369388D01*
X130453336Y-58243778D01*
X130374165Y-58119097D01*
X130270261Y-58006560D01*
X130150999Y-57917382D01*
X130096690Y-57888717D01*
X130002921Y-57858950D01*
X129885518Y-57840736D01*
X129758787Y-57834356D01*
X129637032Y-57840097D01*
X129534561Y-57858241D01*
X129485524Y-57876587D01*
X129428146Y-57902261D01*
X129384489Y-57915280D01*
X129379411Y-57915681D01*
X129351928Y-57926837D01*
X129349334Y-57934434D01*
X129331467Y-57957055D01*
X129299070Y-57976568D01*
X129257771Y-58002637D01*
X129196377Y-58049242D01*
X129127658Y-58106651D01*
X129122756Y-58110952D01*
X129010224Y-58194670D01*
X128907337Y-58237267D01*
X128809513Y-58239974D01*
X128734256Y-58215415D01*
X128690111Y-58187860D01*
X128646695Y-58145101D01*
X128600943Y-58082172D01*
X128549788Y-57994107D01*
X128490166Y-57875943D01*
X128419009Y-57722713D01*
X128389830Y-57657678D01*
X128335568Y-57537839D01*
X128281773Y-57422415D01*
X128233642Y-57322339D01*
X128196375Y-57248540D01*
X128187029Y-57231244D01*
X128155013Y-57167809D01*
X128137337Y-57120647D01*
X128136776Y-57102792D01*
X128133367Y-57090182D01*
X128124385Y-57089120D01*
X128102840Y-57078177D01*
X128102749Y-57072365D01*
X128099621Y-57033210D01*
X128081216Y-56988203D01*
X128057196Y-56958207D01*
X128048415Y-56955083D01*
X128034489Y-56946089D01*
X128037869Y-56941072D01*
X128036412Y-56913803D01*
X128009760Y-56865667D01*
X127965432Y-56806225D01*
X127910948Y-56745040D01*
X127853827Y-56691675D01*
X127824028Y-56669132D01*
X127650763Y-56576692D01*
X127469822Y-56525706D01*
X127286881Y-56515517D01*
X127107614Y-56545467D01*
X126937698Y-56614898D01*
X126782809Y-56723152D01*
X126706380Y-56798670D01*
X126669516Y-56845157D01*
X126628155Y-56908868D01*
X126579854Y-56994400D01*
X126522171Y-57106348D01*
X126452665Y-57249307D01*
X126368891Y-57427873D01*
X126348246Y-57472517D01*
X126258467Y-57666626D01*
X126184814Y-57824117D01*
X126124887Y-57949029D01*
X126076285Y-58045398D01*
X126036609Y-58117265D01*
X126003458Y-58168667D01*
X125974432Y-58203642D01*
X125947130Y-58226230D01*
X125919152Y-58240468D01*
X125888097Y-58250396D01*
X125885470Y-58251108D01*
X125793349Y-58263545D01*
X125704883Y-58246553D01*
X125611101Y-58196984D01*
X125512976Y-58120388D01*
X125339805Y-57991660D01*
X125165742Y-57906349D01*
X124987669Y-57863247D01*
X124836757Y-57858538D01*
X124727467Y-57867779D01*
X124643555Y-57884183D01*
X124565771Y-57912815D01*
X124493199Y-57948893D01*
X124350858Y-58048322D01*
X124239736Y-58174934D01*
X124161862Y-58322087D01*
X124119265Y-58483140D01*
X124113971Y-58651452D01*
X123410876Y-58651452D01*
X123326257Y-58400721D01*
X123264186Y-58138759D01*
G37*
G36*
X131737274Y-55279459D02*
G01*
X131822931Y-55330082D01*
X131893545Y-55374043D01*
X131940399Y-55405782D01*
X131954654Y-55418140D01*
X131956310Y-55452785D01*
X131940640Y-55501925D01*
X131915931Y-55546862D01*
X131890470Y-55568898D01*
X131887741Y-55569115D01*
X131859248Y-55557762D01*
X131801788Y-55527761D01*
X131724371Y-55483998D01*
X131655886Y-55443425D01*
X131571767Y-55390417D01*
X131504241Y-55343648D01*
X131461214Y-55308863D01*
X131449743Y-55293552D01*
X131462733Y-55259073D01*
X131491418Y-55214892D01*
X131532597Y-55161333D01*
X131737274Y-55279459D01*
G37*
G36*
X122498992Y-55343101D02*
G01*
X122531961Y-55393683D01*
X122573032Y-55467317D01*
X122599744Y-55519771D01*
X122689653Y-55694730D01*
X122800191Y-55897266D01*
X122926251Y-56118430D01*
X123062728Y-56349275D01*
X123204515Y-56580853D01*
X123213502Y-56595253D01*
X123286702Y-56712918D01*
X123338896Y-56799292D01*
X123372938Y-56860854D01*
X123391683Y-56904087D01*
X123397986Y-56935473D01*
X123394701Y-56961491D01*
X123385693Y-56986194D01*
X123336174Y-57111639D01*
X123290491Y-57237922D01*
X123252560Y-57353385D01*
X123226299Y-57446369D01*
X123217917Y-57485646D01*
X123204149Y-57543489D01*
X123188210Y-57577126D01*
X123182376Y-57580588D01*
X123161747Y-57563912D01*
X123120349Y-57518563D01*
X123064285Y-57451565D01*
X123002758Y-57373948D01*
X122917274Y-57260681D01*
X122830749Y-57141004D01*
X122746657Y-57020292D01*
X122668471Y-56903916D01*
X122599665Y-56797249D01*
X122543710Y-56705662D01*
X122504082Y-56634530D01*
X122484253Y-56589224D01*
X122486227Y-56574969D01*
X122486720Y-56565580D01*
X122477237Y-56558215D01*
X122449209Y-56524690D01*
X122411371Y-56459099D01*
X122368521Y-56371599D01*
X122325457Y-56272348D01*
X122286978Y-56171503D01*
X122268982Y-56117352D01*
X122235077Y-55976179D01*
X122218958Y-55835576D01*
X122220924Y-55707268D01*
X122241278Y-55602978D01*
X122254930Y-55570034D01*
X122291984Y-55510782D01*
X122342410Y-55446144D01*
X122396664Y-55386562D01*
X122445204Y-55342479D01*
X122478487Y-55324339D01*
X122479496Y-55324300D01*
X122498992Y-55343101D01*
G37*
G36*
X124095493Y-52452442D02*
G01*
X124118077Y-52492437D01*
X124140071Y-52570250D01*
X124154415Y-52637976D01*
X124194442Y-52813626D01*
X124245013Y-52993966D01*
X124302840Y-53169955D01*
X124364636Y-53332553D01*
X124427113Y-53472720D01*
X124486983Y-53581414D01*
X124509264Y-53613787D01*
X124556576Y-53678707D01*
X124578403Y-53716126D01*
X124577138Y-53733462D01*
X124555171Y-53738129D01*
X124549376Y-53738196D01*
X124504089Y-53724358D01*
X124448578Y-53690176D01*
X124437331Y-53681178D01*
X124364200Y-53599840D01*
X124289611Y-53480173D01*
X124216397Y-53328321D01*
X124147393Y-53150430D01*
X124085432Y-52952642D01*
X124063758Y-52871322D01*
X124028587Y-52714259D01*
X124012746Y-52595757D01*
X124016125Y-52514150D01*
X124037003Y-52469313D01*
X124069431Y-52446117D01*
X124095493Y-52452442D01*
G37*
G36*
X131675459Y-55002464D02*
G01*
X131739476Y-55033507D01*
X131832224Y-55088440D01*
X131839492Y-55092919D01*
X131935647Y-55153778D01*
X131998451Y-55198644D01*
X132033552Y-55233329D01*
X132046596Y-55263644D01*
X132043231Y-55295399D01*
X132041583Y-55300888D01*
X132023610Y-55332482D01*
X131992401Y-55342360D01*
X131942019Y-55329197D01*
X131866526Y-55291663D01*
X131784338Y-55243366D01*
X131686173Y-55182724D01*
X131621241Y-55139180D01*
X131584207Y-55107281D01*
X131569735Y-55081574D01*
X131572487Y-55056606D01*
X131581888Y-55036493D01*
X131604055Y-55005576D01*
X131632782Y-54993694D01*
X131675459Y-55002464D01*
G37*
G36*
X131367118Y-54757214D02*
G01*
X131417429Y-54791732D01*
X131473653Y-54836970D01*
X131523722Y-54882873D01*
X131555568Y-54919385D01*
X131560943Y-54931919D01*
X131549502Y-54972279D01*
X131517276Y-55043542D01*
X131467416Y-55140539D01*
X131403073Y-55258105D01*
X131327396Y-55391071D01*
X131243535Y-55534269D01*
X131154640Y-55682534D01*
X131063861Y-55830696D01*
X130974347Y-55973589D01*
X130889250Y-56106045D01*
X130811719Y-56222897D01*
X130744904Y-56318978D01*
X130691954Y-56389119D01*
X130656021Y-56428154D01*
X130645024Y-56434455D01*
X130604031Y-56430721D01*
X130541151Y-56416161D01*
X130516197Y-56408776D01*
X130433291Y-56382556D01*
X130385654Y-56363684D01*
X130366414Y-56344662D01*
X130368700Y-56317989D01*
X130385642Y-56276166D01*
X130388494Y-56269389D01*
X130436244Y-56166938D01*
X130504538Y-56036593D01*
X130588252Y-55887028D01*
X130682260Y-55726919D01*
X130781441Y-55564941D01*
X130880669Y-55409771D01*
X130974820Y-55270083D01*
X130999007Y-55235725D01*
X131077435Y-55124230D01*
X131149600Y-55019223D01*
X131210225Y-54928565D01*
X131254035Y-54860118D01*
X131273119Y-54827246D01*
X131303721Y-54775460D01*
X131328909Y-54746027D01*
X131334790Y-54743473D01*
X131367118Y-54757214D01*
G37*
G36*
X123215300Y-55430347D02*
G01*
X123248129Y-55471159D01*
X123281804Y-55522215D01*
X123307355Y-55569634D01*
X123315813Y-55599536D01*
X123314342Y-55602528D01*
X123286214Y-55622201D01*
X123230823Y-55656731D01*
X123157887Y-55700471D01*
X123077125Y-55747771D01*
X122998254Y-55792984D01*
X122930994Y-55830462D01*
X122885063Y-55854555D01*
X122870550Y-55860448D01*
X122848529Y-55842303D01*
X122817691Y-55796560D01*
X122804317Y-55771980D01*
X122773035Y-55708198D01*
X122761479Y-55674349D01*
X122767858Y-55661209D01*
X122782458Y-55659392D01*
X122814432Y-55645427D01*
X122852860Y-55615486D01*
X122892525Y-55587527D01*
X122918944Y-55583295D01*
X122936821Y-55578536D01*
X122937900Y-55571353D01*
X122955973Y-55550372D01*
X122971410Y-55547695D01*
X123001150Y-55536431D01*
X123004919Y-55526861D01*
X123023483Y-55504699D01*
X123054141Y-55490404D01*
X123107852Y-55464326D01*
X123133925Y-55444220D01*
X123173110Y-55418239D01*
X123192287Y-55413658D01*
X123215300Y-55430347D01*
G37*
G36*
X132231223Y-55382857D02*
G01*
X132293887Y-55459045D01*
X132348679Y-55543478D01*
X132376505Y-55600647D01*
X132398290Y-55666513D01*
X132407042Y-55725609D01*
X132403991Y-55796196D01*
X132394540Y-55868720D01*
X132349109Y-56064519D01*
X132267698Y-56282818D01*
X132151529Y-56521369D01*
X132001822Y-56777927D01*
X131819796Y-57050243D01*
X131606673Y-57336071D01*
X131577429Y-57373242D01*
X131508709Y-57457970D01*
X131461842Y-57509420D01*
X131432697Y-57530662D01*
X131417146Y-57524766D01*
X131411201Y-57496815D01*
X131405110Y-57453299D01*
X131395023Y-57405398D01*
X131385373Y-57372800D01*
X131382277Y-57368363D01*
X131376199Y-57349542D01*
X131369280Y-57316411D01*
X131350125Y-57253486D01*
X131332939Y-57215884D01*
X131308466Y-57158849D01*
X131298949Y-57123381D01*
X131281094Y-57070789D01*
X131258248Y-57028438D01*
X131237554Y-56991583D01*
X131235953Y-56977422D01*
X131237462Y-56959708D01*
X131226665Y-56923715D01*
X131222308Y-56900100D01*
X131227553Y-56868935D01*
X131245128Y-56824639D01*
X131277756Y-56761631D01*
X131328163Y-56674331D01*
X131399075Y-56557157D01*
X131431218Y-56504849D01*
X131638449Y-56162215D01*
X131821369Y-55846638D01*
X131978209Y-55561199D01*
X132030720Y-55461045D01*
X132127403Y-55273868D01*
X132231223Y-55382857D01*
G37*
G36*
X131433190Y-55401864D02*
G01*
X131486906Y-55429801D01*
X131558416Y-55469579D01*
X131638248Y-55515646D01*
X131716930Y-55562452D01*
X131784990Y-55604447D01*
X131832955Y-55636079D01*
X131851354Y-55651797D01*
X131851357Y-55651865D01*
X131840231Y-55687272D01*
X131813156Y-55738079D01*
X131779588Y-55789477D01*
X131748982Y-55826653D01*
X131733621Y-55836290D01*
X131703241Y-55824364D01*
X131645475Y-55794044D01*
X131570653Y-55750892D01*
X131536425Y-55730154D01*
X131435406Y-55667902D01*
X131367295Y-55623431D01*
X131327263Y-55590599D01*
X131310484Y-55563260D01*
X131312130Y-55535274D01*
X131327374Y-55500497D01*
X131338664Y-55478490D01*
X131370685Y-55425371D01*
X131398823Y-55394490D01*
X131406741Y-55391318D01*
X131433190Y-55401864D01*
G37*
G36*
X131550319Y-52332099D02*
G01*
X131611520Y-52337075D01*
X131647211Y-52347648D01*
X131666957Y-52365665D01*
X131671169Y-52372736D01*
X131690355Y-52425437D01*
X131712762Y-52514000D01*
X131736902Y-52629858D01*
X131761287Y-52764444D01*
X131784429Y-52909191D01*
X131804841Y-53055530D01*
X131821033Y-53194896D01*
X131828790Y-53280237D01*
X131837116Y-53417807D01*
X131841812Y-53562250D01*
X131842553Y-53696559D01*
X131839009Y-53803725D01*
X131838909Y-53805215D01*
X131828127Y-53922785D01*
X131811780Y-54048972D01*
X131791579Y-54174789D01*
X131769232Y-54291249D01*
X131746451Y-54389368D01*
X131724944Y-54460158D01*
X131708004Y-54493169D01*
X131668668Y-54513627D01*
X131606873Y-54527359D01*
X131592640Y-54528783D01*
X131526857Y-54536887D01*
X131476899Y-54548308D01*
X131470945Y-54550601D01*
X131426826Y-54550738D01*
X131399877Y-54537326D01*
X131381072Y-54501821D01*
X131362098Y-54427668D01*
X131343869Y-54320884D01*
X131327301Y-54187488D01*
X131313308Y-54033496D01*
X131305549Y-53916912D01*
X131302158Y-53861636D01*
X131296342Y-53771352D01*
X131288731Y-53655627D01*
X131279952Y-53524029D01*
X131272545Y-53414274D01*
X131263405Y-53250999D01*
X131256534Y-53071168D01*
X131252414Y-52892478D01*
X131251528Y-52732630D01*
X131252313Y-52671556D01*
X131259360Y-52330950D01*
X131454045Y-52330879D01*
X131550319Y-52332099D01*
G37*
G36*
X123877072Y-56473559D02*
G01*
X123861854Y-56501102D01*
X123812648Y-56542809D01*
X123770046Y-56571852D01*
X123692850Y-56628062D01*
X123609693Y-56698401D01*
X123564340Y-56741727D01*
X123511073Y-56794276D01*
X123470437Y-56831000D01*
X123452431Y-56843385D01*
X123432355Y-56826844D01*
X123413664Y-56801028D01*
X123399685Y-56761271D01*
X123422964Y-56727469D01*
X123425045Y-56725632D01*
X123463261Y-56697141D01*
X123525465Y-56655728D01*
X123601822Y-56607379D01*
X123682498Y-56558078D01*
X123757658Y-56513811D01*
X123817468Y-56480563D01*
X123852095Y-56464318D01*
X123855589Y-56463614D01*
X123877072Y-56473559D01*
G37*
G36*
X131117419Y-55938174D02*
G01*
X131169687Y-55966519D01*
X131240731Y-56006832D01*
X131320879Y-56053442D01*
X131400459Y-56100682D01*
X131469801Y-56142881D01*
X131519231Y-56174370D01*
X131537645Y-56187757D01*
X131534563Y-56211693D01*
X131513669Y-56258572D01*
X131482734Y-56314711D01*
X131449528Y-56366424D01*
X131421825Y-56400026D01*
X131414096Y-56405304D01*
X131385843Y-56398432D01*
X131327969Y-56372450D01*
X131248996Y-56331517D01*
X131160399Y-56281522D01*
X130932204Y-56147954D01*
X130967330Y-56093559D01*
X131007656Y-56031120D01*
X131038535Y-55983315D01*
X131070029Y-55943430D01*
X131093598Y-55927466D01*
X131117419Y-55938174D01*
G37*
G36*
X122884254Y-54586747D02*
G01*
X122973439Y-54616043D01*
X123068162Y-54638435D01*
X123099862Y-54643471D01*
X123161648Y-54654599D01*
X123199903Y-54667912D01*
X123205974Y-54674571D01*
X123188605Y-54702038D01*
X123140594Y-54749895D01*
X123068086Y-54813177D01*
X122977226Y-54886917D01*
X122874157Y-54966149D01*
X122765025Y-55045906D01*
X122655974Y-55121223D01*
X122641239Y-55131014D01*
X122460232Y-55261534D01*
X122321298Y-55388139D01*
X122222613Y-55515236D01*
X122162354Y-55647236D01*
X122138698Y-55788547D01*
X122149821Y-55943580D01*
X122193900Y-56116742D01*
X122211924Y-56169146D01*
X122239037Y-56246091D01*
X122258876Y-56305791D01*
X122267598Y-56336627D01*
X122267716Y-56337865D01*
X122255592Y-56353249D01*
X122222823Y-56335744D01*
X122174815Y-56288758D01*
X122157191Y-56268143D01*
X122089805Y-56163634D01*
X122029807Y-56026334D01*
X121982156Y-55868066D01*
X121973492Y-55830073D01*
X121961038Y-55728202D01*
X121959100Y-55602011D01*
X121966672Y-55468198D01*
X121982752Y-55343462D01*
X122006335Y-55244501D01*
X122009193Y-55236317D01*
X122078477Y-55100843D01*
X122185880Y-54963274D01*
X122325532Y-54829348D01*
X122491567Y-54704799D01*
X122649689Y-54610252D01*
X122774759Y-54543403D01*
X122884254Y-54586747D01*
G37*
G36*
X127705069Y-95330468D02*
G01*
X127709532Y-95277616D01*
X127717341Y-95235176D01*
X127729342Y-95195810D01*
X127740919Y-95165577D01*
X127803186Y-95051632D01*
X127889212Y-94959748D01*
X127998488Y-94890460D01*
X128006341Y-94886770D01*
X128052478Y-94866637D01*
X128092635Y-94853279D01*
X128135532Y-94845317D01*
X128189891Y-94841371D01*
X128264433Y-94840063D01*
X128302309Y-94839969D01*
X128421963Y-94842796D01*
X128516638Y-94852980D01*
X128593403Y-94872863D01*
X128659328Y-94904787D01*
X128721484Y-94951096D01*
X128767228Y-94994017D01*
X128833861Y-95072493D01*
X128881856Y-95158664D01*
X128913181Y-95258474D01*
X128929808Y-95377868D01*
X128933857Y-95496764D01*
X128923399Y-95662982D01*
X128891806Y-95804659D01*
X128838746Y-95922146D01*
X128763890Y-96015790D01*
X128666907Y-96085939D01*
X128547468Y-96132943D01*
X128405240Y-96157151D01*
X128304655Y-96160859D01*
X128173774Y-96153057D01*
X128064357Y-96130707D01*
X128053566Y-96127404D01*
X127947286Y-96077469D01*
X127853792Y-96001632D01*
X127779205Y-95905736D01*
X127741310Y-95829267D01*
X127725937Y-95786351D01*
X127715290Y-95744985D01*
X127708509Y-95697743D01*
X127704733Y-95637202D01*
X127703103Y-95555936D01*
X127702803Y-95496764D01*
X128010355Y-95496764D01*
X128011477Y-95604810D01*
X128015733Y-95687207D01*
X128024457Y-95750695D01*
X128038985Y-95802015D01*
X128060651Y-95847905D01*
X128088626Y-95891981D01*
X128134708Y-95936704D01*
X128199898Y-95973418D01*
X128270898Y-95995591D01*
X128306885Y-95999217D01*
X128358420Y-95992887D01*
X128414033Y-95976938D01*
X128420201Y-95974470D01*
X128491793Y-95934156D01*
X128546273Y-95878346D01*
X128585136Y-95803651D01*
X128609878Y-95706681D01*
X128621994Y-95584044D01*
X128623778Y-95512983D01*
X128618815Y-95367886D01*
X128601115Y-95250481D01*
X128569598Y-95158183D01*
X128523180Y-95088411D01*
X128460777Y-95038581D01*
X128416066Y-95017505D01*
X128321288Y-94996653D01*
X128232207Y-95006511D01*
X128152862Y-95045392D01*
X128087293Y-95111611D01*
X128053867Y-95168741D01*
X128036694Y-95207350D01*
X128024744Y-95242140D01*
X128017077Y-95280207D01*
X128012751Y-95328646D01*
X128010825Y-95394552D01*
X128010358Y-95485019D01*
X128010355Y-95496764D01*
X127702803Y-95496764D01*
X127703108Y-95401071D01*
X127705069Y-95330468D01*
G37*
G36*
X125955491Y-94908801D02*
G01*
X125951378Y-94943060D01*
X125940873Y-94962564D01*
X125915879Y-94973475D01*
X125868298Y-94981958D01*
X125857194Y-94983630D01*
X125763931Y-94997636D01*
X125763931Y-95383226D01*
X126267770Y-95383226D01*
X126263201Y-95192645D01*
X126258631Y-95002064D01*
X126169423Y-94985061D01*
X126118598Y-94974313D01*
X126091460Y-94962511D01*
X126079759Y-94942909D01*
X126075243Y-94908765D01*
X126075181Y-94908017D01*
X126070147Y-94847977D01*
X126755289Y-94847977D01*
X126750255Y-94908801D01*
X126746142Y-94943060D01*
X126735637Y-94962564D01*
X126710642Y-94973475D01*
X126663062Y-94981958D01*
X126651958Y-94983630D01*
X126558695Y-94997636D01*
X126558695Y-95995891D01*
X126651958Y-96009897D01*
X126704261Y-96018585D01*
X126732580Y-96028636D01*
X126745010Y-96046215D01*
X126749649Y-96077484D01*
X126750255Y-96084727D01*
X126755289Y-96145550D01*
X126072105Y-96145550D01*
X126072105Y-96020312D01*
X126153589Y-96010661D01*
X126203730Y-96003251D01*
X126240651Y-95995128D01*
X126250907Y-95991225D01*
X126257005Y-95971895D01*
X126261932Y-95925739D01*
X126265300Y-95858363D01*
X126266720Y-95775372D01*
X126266741Y-95763431D01*
X126266741Y-95545423D01*
X125763931Y-95545423D01*
X125763931Y-95995891D01*
X125857194Y-96009897D01*
X125909498Y-96018585D01*
X125937816Y-96028636D01*
X125950246Y-96046215D01*
X125954885Y-96077484D01*
X125955491Y-96084727D01*
X125960525Y-96145550D01*
X125277341Y-96145550D01*
X125277341Y-96019983D01*
X125471977Y-95997963D01*
X125471977Y-94997636D01*
X125378714Y-94983630D01*
X125326411Y-94974942D01*
X125298092Y-94964891D01*
X125285662Y-94947313D01*
X125281023Y-94916043D01*
X125280417Y-94908801D01*
X125275383Y-94847977D01*
X125960525Y-94847977D01*
X125955491Y-94908801D01*
G37*
G36*
X132186920Y-95204810D02*
G01*
X132059150Y-95204810D01*
X132048835Y-95127766D01*
X132040983Y-95072114D01*
X132031021Y-95037521D01*
X132012091Y-95018991D01*
X131977334Y-95011531D01*
X131919891Y-95010146D01*
X131887365Y-95010174D01*
X131748989Y-95010174D01*
X131748989Y-95997239D01*
X131927405Y-96019531D01*
X131927405Y-96145550D01*
X131262398Y-96145550D01*
X131262398Y-96019531D01*
X131351607Y-96008385D01*
X131440815Y-95997239D01*
X131440815Y-95010174D01*
X131303257Y-95010174D01*
X131235780Y-95010042D01*
X131193545Y-95013562D01*
X131169431Y-95026603D01*
X131156315Y-95055039D01*
X131147075Y-95104739D01*
X131140951Y-95143986D01*
X131132357Y-95183190D01*
X131116395Y-95200438D01*
X131082148Y-95204714D01*
X131067028Y-95204810D01*
X131002884Y-95204810D01*
X131002884Y-94847977D01*
X132186920Y-94847977D01*
X132186920Y-95204810D01*
G37*
G36*
X127564314Y-97621540D02*
G01*
X127436891Y-97621540D01*
X127414599Y-97443124D01*
X126930718Y-97443124D01*
X126935287Y-97633705D01*
X126939857Y-97824286D01*
X127231582Y-97824286D01*
X127248693Y-97743188D01*
X127260600Y-97694952D01*
X127274474Y-97670046D01*
X127297300Y-97659752D01*
X127317741Y-97657007D01*
X127369678Y-97651924D01*
X127369678Y-98140570D01*
X127314999Y-98140570D01*
X127282468Y-98138783D01*
X127264871Y-98127899D01*
X127255522Y-98099633D01*
X127249562Y-98059471D01*
X127238804Y-97978373D01*
X126931747Y-97978373D01*
X126931747Y-98416304D01*
X127414599Y-98416304D01*
X127436891Y-98237888D01*
X127564314Y-98237888D01*
X127564314Y-98578501D01*
X126445157Y-98578501D01*
X126445157Y-98521223D01*
X126446894Y-98487751D01*
X126456690Y-98467136D01*
X126481420Y-98454680D01*
X126527958Y-98445681D01*
X126562750Y-98440850D01*
X126639793Y-98430536D01*
X126639793Y-97430587D01*
X126546530Y-97416581D01*
X126494296Y-97407940D01*
X126466464Y-97398255D01*
X126455350Y-97381695D01*
X126453274Y-97352429D01*
X126453267Y-97345806D01*
X126453267Y-97289037D01*
X127008791Y-97284769D01*
X127564314Y-97280501D01*
X127564314Y-97621540D01*
G37*
G36*
X125930291Y-88542471D02*
G01*
X126372386Y-88100595D01*
X128237656Y-88100595D01*
X128671419Y-88534582D01*
X129105183Y-88968569D01*
X129105183Y-92067104D01*
X128236047Y-92934056D01*
X126371947Y-92934056D01*
X125930072Y-92491962D01*
X125488197Y-92049867D01*
X125488197Y-91676502D01*
X126380278Y-91676502D01*
X126554363Y-91851129D01*
X126728448Y-92025755D01*
X127880044Y-92025755D01*
X128046572Y-91859793D01*
X128213101Y-91693831D01*
X128213101Y-89341929D01*
X127864931Y-88992677D01*
X126745729Y-88992677D01*
X126563003Y-89174884D01*
X126380278Y-89357090D01*
X126380278Y-91676502D01*
X125488197Y-91676502D01*
X125488197Y-88984346D01*
X125930291Y-88542471D01*
G37*
G36*
X126347839Y-97405434D02*
G01*
X126256004Y-97420224D01*
X126164170Y-97435014D01*
X125951380Y-98002702D01*
X125738590Y-98570391D01*
X125596909Y-98575081D01*
X125527582Y-98576583D01*
X125483936Y-98574793D01*
X125459288Y-98568648D01*
X125446955Y-98557085D01*
X125443991Y-98550752D01*
X125435809Y-98529256D01*
X125417546Y-98481053D01*
X125390578Y-98409784D01*
X125356283Y-98319089D01*
X125316036Y-98212609D01*
X125271216Y-98093985D01*
X125227547Y-97978373D01*
X125022339Y-97435014D01*
X124930875Y-97420224D01*
X124839410Y-97405434D01*
X124839410Y-97280927D01*
X125504416Y-97280927D01*
X125504416Y-97406947D01*
X125415208Y-97418093D01*
X125366442Y-97425841D01*
X125334040Y-97434160D01*
X125326000Y-97439347D01*
X125331478Y-97461042D01*
X125346732Y-97506955D01*
X125369989Y-97572468D01*
X125399477Y-97652962D01*
X125433424Y-97743820D01*
X125470057Y-97840425D01*
X125507605Y-97938158D01*
X125544295Y-98032403D01*
X125578355Y-98118541D01*
X125608013Y-98191955D01*
X125631496Y-98248027D01*
X125647033Y-98282139D01*
X125652641Y-98290451D01*
X125660493Y-98273307D01*
X125677598Y-98230508D01*
X125702161Y-98166899D01*
X125732384Y-98087323D01*
X125766470Y-97996625D01*
X125802623Y-97899649D01*
X125839046Y-97801238D01*
X125873942Y-97706239D01*
X125905515Y-97619493D01*
X125931967Y-97545846D01*
X125951502Y-97490142D01*
X125962323Y-97457225D01*
X125963806Y-97451540D01*
X125950950Y-97440081D01*
X125914745Y-97427037D01*
X125877469Y-97418228D01*
X125826768Y-97407328D01*
X125800191Y-97395858D01*
X125789951Y-97377419D01*
X125788261Y-97345612D01*
X125788261Y-97289037D01*
X126347839Y-97280161D01*
X126347839Y-97405434D01*
G37*
G36*
X123115023Y-97614533D02*
G01*
X123185677Y-97712900D01*
X123254626Y-97808912D01*
X123318160Y-97897399D01*
X123372570Y-97973196D01*
X123414145Y-98031133D01*
X123432354Y-98056524D01*
X123509397Y-98164007D01*
X123509397Y-97430089D01*
X123314761Y-97407499D01*
X123314761Y-97280927D01*
X123898669Y-97280927D01*
X123898669Y-97407499D01*
X123704033Y-97430089D01*
X123704033Y-98578501D01*
X123586441Y-98577802D01*
X123468848Y-98577104D01*
X123178611Y-98165590D01*
X123104982Y-98061428D01*
X123035771Y-97963957D01*
X122973617Y-97876862D01*
X122921162Y-97803826D01*
X122881046Y-97748535D01*
X122855908Y-97714672D01*
X122850746Y-97708083D01*
X122813118Y-97662089D01*
X122812535Y-98045465D01*
X122811951Y-98428841D01*
X122905215Y-98442847D01*
X122957518Y-98451535D01*
X122985836Y-98461586D01*
X122998266Y-98479165D01*
X123002905Y-98510434D01*
X123003512Y-98517677D01*
X123008546Y-98578501D01*
X122422679Y-98578501D01*
X122422679Y-98521223D01*
X122424417Y-98487751D01*
X122434212Y-98467136D01*
X122458942Y-98454680D01*
X122505481Y-98445681D01*
X122540272Y-98440850D01*
X122617315Y-98430536D01*
X122617315Y-97430587D01*
X122524052Y-97416581D01*
X122471818Y-97407940D01*
X122443986Y-97398255D01*
X122432873Y-97381695D01*
X122430796Y-97352429D01*
X122430789Y-97345806D01*
X122430789Y-97289037D01*
X122652763Y-97284531D01*
X122874736Y-97280025D01*
X123115023Y-97614533D01*
G37*
G36*
X131067762Y-97405434D02*
G01*
X130881236Y-97435014D01*
X130876950Y-97931893D01*
X130872663Y-98428773D01*
X130966158Y-98442813D01*
X131018541Y-98451506D01*
X131046929Y-98461536D01*
X131059406Y-98479046D01*
X131064059Y-98510179D01*
X131064687Y-98517677D01*
X131069721Y-98578501D01*
X130386536Y-98578501D01*
X130386536Y-98521223D01*
X130388274Y-98487751D01*
X130398069Y-98467136D01*
X130422799Y-98454680D01*
X130469337Y-98445681D01*
X130504129Y-98440850D01*
X130581172Y-98430536D01*
X130581172Y-97430587D01*
X130487909Y-97416581D01*
X130435675Y-97407940D01*
X130407843Y-97398255D01*
X130396730Y-97381695D01*
X130394653Y-97352429D01*
X130394646Y-97345806D01*
X130394646Y-97289037D01*
X131067762Y-97280269D01*
X131067762Y-97405434D01*
G37*
G36*
X133192539Y-97406947D02*
G01*
X133102102Y-97418246D01*
X133046036Y-97428517D01*
X133020163Y-97441314D01*
X133019009Y-97448499D01*
X133030048Y-97468464D01*
X133055269Y-97510155D01*
X133091260Y-97568044D01*
X133134609Y-97636604D01*
X133148947Y-97659063D01*
X133197455Y-97734495D01*
X133231795Y-97785914D01*
X133255180Y-97816697D01*
X133270822Y-97830222D01*
X133281936Y-97829865D01*
X133291734Y-97819004D01*
X133295573Y-97813150D01*
X133313395Y-97785017D01*
X133344086Y-97736264D01*
X133383321Y-97673773D01*
X133426213Y-97605321D01*
X133532821Y-97435014D01*
X133443779Y-97420224D01*
X133354736Y-97405434D01*
X133354736Y-97280927D01*
X133922424Y-97280927D01*
X133922424Y-97406947D01*
X133745510Y-97429051D01*
X133558232Y-97719762D01*
X133370955Y-98010474D01*
X133370955Y-98430536D01*
X133447999Y-98440850D01*
X133508477Y-98449902D01*
X133543599Y-98459988D01*
X133560241Y-98475807D01*
X133565277Y-98502059D01*
X133565591Y-98521223D01*
X133565591Y-98578501D01*
X132882407Y-98578501D01*
X132887441Y-98517677D01*
X132891554Y-98483417D01*
X132902059Y-98463914D01*
X132927054Y-98453002D01*
X132974634Y-98444519D01*
X132985738Y-98442847D01*
X133079001Y-98428841D01*
X133079001Y-98027159D01*
X132883357Y-97728073D01*
X132687713Y-97428986D01*
X132599513Y-97417967D01*
X132511313Y-97406947D01*
X132511313Y-97280927D01*
X133192539Y-97280927D01*
X133192539Y-97406947D01*
G37*
G36*
X127580534Y-94973544D02*
G01*
X127483216Y-94984555D01*
X127385898Y-94995565D01*
X127385898Y-95488502D01*
X127386413Y-95633017D01*
X127387910Y-95756305D01*
X127390317Y-95856076D01*
X127393562Y-95930037D01*
X127397572Y-95975897D01*
X127401731Y-95991225D01*
X127426062Y-95998688D01*
X127470407Y-96006795D01*
X127499049Y-96010661D01*
X127580534Y-96020312D01*
X127580534Y-96145550D01*
X126897350Y-96145550D01*
X126902384Y-96084727D01*
X126906497Y-96050467D01*
X126917002Y-96030964D01*
X126941996Y-96020052D01*
X126989577Y-96011569D01*
X127000681Y-96009897D01*
X127093944Y-95995891D01*
X127093944Y-94997636D01*
X127000681Y-94983630D01*
X126948377Y-94974942D01*
X126920059Y-94964891D01*
X126907629Y-94947313D01*
X126902990Y-94916043D01*
X126902384Y-94908801D01*
X126897350Y-94847977D01*
X127580534Y-94847977D01*
X127580534Y-94973544D01*
G37*
G36*
X126660406Y-89272108D02*
G01*
X126794558Y-89138654D01*
X127818075Y-89138654D01*
X127950709Y-89274539D01*
X128083344Y-89410425D01*
X128083344Y-91624227D01*
X127950709Y-91760112D01*
X127818075Y-91895997D01*
X126793164Y-91895997D01*
X126659710Y-91761846D01*
X126526255Y-91627695D01*
X126526255Y-91595061D01*
X126623573Y-91595061D01*
X126724478Y-91696870D01*
X126825382Y-91798679D01*
X127782407Y-91798679D01*
X127884216Y-91697775D01*
X127986026Y-91596871D01*
X127986026Y-89439532D01*
X127767930Y-89219752D01*
X126843353Y-89219752D01*
X126623573Y-89437848D01*
X126623573Y-91595061D01*
X126526255Y-91595061D01*
X126526255Y-89405562D01*
X126660406Y-89272108D01*
G37*
G36*
X129904482Y-97279488D02*
G01*
X129940496Y-97285707D01*
X130027546Y-97302488D01*
X130087843Y-97316950D01*
X130126287Y-97333877D01*
X130147778Y-97358051D01*
X130157215Y-97394258D01*
X130159497Y-97447279D01*
X130159461Y-97499491D01*
X130159461Y-97653980D01*
X130095675Y-97653980D01*
X130059928Y-97652470D01*
X130037420Y-97643526D01*
X130023383Y-97620528D01*
X130013050Y-97576853D01*
X130005125Y-97528226D01*
X129998556Y-97493094D01*
X129987750Y-97470086D01*
X129966297Y-97455725D01*
X129927788Y-97446531D01*
X129865812Y-97439025D01*
X129835068Y-97435921D01*
X129732803Y-97435073D01*
X129649946Y-97453761D01*
X129589074Y-97490543D01*
X129552760Y-97543978D01*
X129543114Y-97599363D01*
X129551157Y-97649417D01*
X129577594Y-97691804D01*
X129625886Y-97729190D01*
X129699493Y-97764243D01*
X129801878Y-97799628D01*
X129803871Y-97800243D01*
X129880169Y-97824826D01*
X129951013Y-97849567D01*
X130006813Y-97871017D01*
X130031239Y-97881950D01*
X130114301Y-97941299D01*
X130174620Y-98020937D01*
X130210222Y-98116232D01*
X130219131Y-98222556D01*
X130208952Y-98298711D01*
X130172124Y-98393397D01*
X130108647Y-98473188D01*
X130022361Y-98534269D01*
X129938580Y-98567354D01*
X129841067Y-98585700D01*
X129724610Y-98593603D01*
X129600939Y-98591180D01*
X129481781Y-98578549D01*
X129400575Y-98561964D01*
X129341397Y-98545761D01*
X129294237Y-98531561D01*
X129268190Y-98522124D01*
X129266762Y-98521350D01*
X129260173Y-98502012D01*
X129254960Y-98457662D01*
X129251797Y-98395719D01*
X129251160Y-98349535D01*
X129251160Y-98187363D01*
X129320093Y-98192351D01*
X129389027Y-98197338D01*
X129403270Y-98297363D01*
X129411082Y-98345833D01*
X129421997Y-98378865D01*
X129441661Y-98399430D01*
X129475719Y-98410502D01*
X129529816Y-98415050D01*
X129609598Y-98416048D01*
X129628788Y-98416083D01*
X129742015Y-98410022D01*
X129827071Y-98390688D01*
X129885870Y-98356951D01*
X129920321Y-98307679D01*
X129932336Y-98241742D01*
X129932386Y-98236466D01*
X129926508Y-98184765D01*
X129906047Y-98143413D01*
X129866756Y-98108842D01*
X129804393Y-98077483D01*
X129714712Y-98045768D01*
X129700189Y-98041236D01*
X129571928Y-97998387D01*
X129471913Y-97956626D01*
X129396188Y-97913150D01*
X129340795Y-97865152D01*
X129301775Y-97809827D01*
X129275171Y-97744370D01*
X129273507Y-97738771D01*
X129259207Y-97642846D01*
X129268527Y-97545744D01*
X129299309Y-97456601D01*
X129349394Y-97384553D01*
X129359509Y-97374810D01*
X129433649Y-97326789D01*
X129531456Y-97292289D01*
X129646690Y-97272268D01*
X129773112Y-97267682D01*
X129904482Y-97279488D01*
G37*
G36*
X130456676Y-94474329D02*
G01*
X130622735Y-94501903D01*
X130771754Y-94541974D01*
X130824467Y-94558539D01*
X130824467Y-94880416D01*
X130752214Y-94880416D01*
X130707364Y-94878904D01*
X130684823Y-94869369D01*
X130674462Y-94844319D01*
X130670022Y-94819593D01*
X130658675Y-94750682D01*
X130649055Y-94707161D01*
X130636735Y-94682565D01*
X130617293Y-94670432D01*
X130586302Y-94664301D01*
X130561407Y-94660963D01*
X130449089Y-94650004D01*
X130347466Y-94648702D01*
X130262898Y-94656745D01*
X130201745Y-94673822D01*
X130191486Y-94679096D01*
X130122577Y-94733286D01*
X130082860Y-94799551D01*
X130070253Y-94880416D01*
X130078739Y-94948688D01*
X130106167Y-95006549D01*
X130155487Y-95056539D01*
X130229650Y-95101197D01*
X130331610Y-95143063D01*
X130402756Y-95166484D01*
X130542406Y-95214368D01*
X130652972Y-95263767D01*
X130737796Y-95317105D01*
X130800221Y-95376804D01*
X130843589Y-95445289D01*
X130864948Y-95501593D01*
X130889378Y-95630295D01*
X130886302Y-95752826D01*
X130857455Y-95865394D01*
X130804572Y-95964206D01*
X130729389Y-96045472D01*
X130633641Y-96105400D01*
X130579178Y-96125999D01*
X130449694Y-96154627D01*
X130305738Y-96167882D01*
X130161962Y-96164680D01*
X130118912Y-96160071D01*
X130041304Y-96147031D01*
X129953961Y-96128048D01*
X129887782Y-96110607D01*
X129770189Y-96075946D01*
X129770189Y-95723839D01*
X129912387Y-95723839D01*
X129923691Y-95829395D01*
X129931049Y-95883451D01*
X129943007Y-95922075D01*
X129964515Y-95947868D01*
X130000523Y-95963436D01*
X130055981Y-95971381D01*
X130135840Y-95974309D01*
X130200010Y-95974747D01*
X130284660Y-95974410D01*
X130344584Y-95972118D01*
X130387486Y-95966710D01*
X130421071Y-95957026D01*
X130453043Y-95941908D01*
X130466022Y-95934695D01*
X130537431Y-95877302D01*
X130581721Y-95802809D01*
X130597380Y-95713787D01*
X130597392Y-95711122D01*
X130584850Y-95626319D01*
X130548823Y-95558709D01*
X130510411Y-95524044D01*
X130479543Y-95508511D01*
X130425633Y-95485939D01*
X130356447Y-95459435D01*
X130284658Y-95433791D01*
X130164006Y-95390363D01*
X130069753Y-95351788D01*
X129996747Y-95315384D01*
X129939835Y-95278472D01*
X129893864Y-95238371D01*
X129879291Y-95222960D01*
X129822781Y-95137824D01*
X129787132Y-95035372D01*
X129773563Y-94924108D01*
X129783294Y-94812534D01*
X129808450Y-94729304D01*
X129863029Y-94639094D01*
X129942195Y-94567347D01*
X130043546Y-94514530D01*
X130164678Y-94481109D01*
X130303189Y-94467553D01*
X130456676Y-94474329D01*
G37*
G36*
X122844391Y-95188590D02*
G01*
X122716968Y-95188590D01*
X122694676Y-95010174D01*
X122210794Y-95010174D01*
X122219934Y-95391336D01*
X122511658Y-95391336D01*
X122528770Y-95310238D01*
X122540677Y-95262002D01*
X122554550Y-95237096D01*
X122577376Y-95226802D01*
X122597818Y-95224057D01*
X122649755Y-95218974D01*
X122649755Y-95707619D01*
X122594508Y-95707619D01*
X122561645Y-95705858D01*
X122543838Y-95695055D01*
X122534309Y-95666934D01*
X122528107Y-95626521D01*
X122516953Y-95545423D01*
X122211824Y-95545423D01*
X122211824Y-95983354D01*
X122694676Y-95983354D01*
X122705822Y-95894146D01*
X122716968Y-95804937D01*
X122844391Y-95804937D01*
X122844391Y-96145550D01*
X121723276Y-96145550D01*
X121728310Y-96084727D01*
X121732423Y-96050467D01*
X121742928Y-96030964D01*
X121767922Y-96020052D01*
X121815502Y-96011569D01*
X121826607Y-96009897D01*
X121919870Y-95995891D01*
X121919870Y-94997636D01*
X121826607Y-94983630D01*
X121774303Y-94974942D01*
X121745985Y-94964891D01*
X121733555Y-94947313D01*
X121728916Y-94916043D01*
X121728310Y-94908801D01*
X121723276Y-94847977D01*
X122844391Y-94847977D01*
X122844391Y-95188590D01*
G37*
G36*
X132730530Y-94856087D02*
G01*
X133010614Y-94846765D01*
X133107264Y-95094721D01*
X133144829Y-95191256D01*
X133190141Y-95307949D01*
X133239277Y-95434688D01*
X133288319Y-95561362D01*
X133330158Y-95669607D01*
X133456403Y-95996537D01*
X133547492Y-96010220D01*
X133599039Y-96018860D01*
X133626703Y-96029124D01*
X133638694Y-96047376D01*
X133643218Y-96079977D01*
X133643614Y-96084727D01*
X133648648Y-96145550D01*
X132963505Y-96145550D01*
X132968539Y-96085107D01*
X132972838Y-96050809D01*
X132983874Y-96031054D01*
X133009780Y-96019361D01*
X133058692Y-96009249D01*
X133065221Y-96008064D01*
X133156869Y-95991464D01*
X133066443Y-95764388D01*
X132573222Y-95764388D01*
X132534158Y-95860407D01*
X132513748Y-95913590D01*
X132499611Y-95956194D01*
X132495093Y-95976762D01*
X132510106Y-95991321D01*
X132550404Y-96004759D01*
X132580246Y-96010568D01*
X132629683Y-96019505D01*
X132655553Y-96030730D01*
X132666386Y-96051263D01*
X132670434Y-96084793D01*
X132675468Y-96145550D01*
X132105821Y-96145550D01*
X132105821Y-96021044D01*
X132198589Y-96006254D01*
X132291356Y-95991464D01*
X132443410Y-95598366D01*
X132641070Y-95598366D01*
X132656197Y-95603162D01*
X132697213Y-95607038D01*
X132757573Y-95609556D01*
X132819487Y-95610301D01*
X132891181Y-95609290D01*
X132949121Y-95606546D01*
X132986760Y-95602508D01*
X132997903Y-95598366D01*
X132992550Y-95576285D01*
X132978079Y-95531819D01*
X132956870Y-95471301D01*
X132931302Y-95401064D01*
X132903756Y-95327439D01*
X132876613Y-95256759D01*
X132852252Y-95195356D01*
X132833054Y-95149562D01*
X132821398Y-95125708D01*
X132819487Y-95123711D01*
X132811186Y-95137951D01*
X132794472Y-95176450D01*
X132771725Y-95232875D01*
X132745323Y-95300895D01*
X132717649Y-95374177D01*
X132691081Y-95446388D01*
X132668000Y-95511198D01*
X132650787Y-95562273D01*
X132641821Y-95593282D01*
X132641070Y-95598366D01*
X132443410Y-95598366D01*
X132510943Y-95423775D01*
X132730530Y-94856087D01*
G37*
G36*
X134733407Y-95204810D02*
G01*
X134607840Y-95204810D01*
X134585820Y-95010174D01*
X134295476Y-95010174D01*
X134295476Y-95997963D01*
X134490112Y-96019983D01*
X134490112Y-96145550D01*
X133808886Y-96145550D01*
X133808886Y-96019983D01*
X134003522Y-95997963D01*
X134003522Y-95010174D01*
X133713179Y-95010174D01*
X133691159Y-95204810D01*
X133565591Y-95204810D01*
X133565591Y-94847977D01*
X134733407Y-94847977D01*
X134733407Y-95204810D01*
G37*
G36*
X126275047Y-87873520D02*
G01*
X128338294Y-87873520D01*
X129316038Y-88862582D01*
X129316038Y-92147599D01*
X128817187Y-92646255D01*
X128318336Y-93144912D01*
X126270466Y-93144912D01*
X125782623Y-92646157D01*
X125294779Y-92147402D01*
X125294761Y-92098541D01*
X125374659Y-92098541D01*
X125848981Y-92573067D01*
X126323303Y-93047594D01*
X128286299Y-93047594D01*
X128752344Y-92581278D01*
X129218389Y-92114963D01*
X129240301Y-88909039D01*
X128771410Y-88439938D01*
X128302519Y-87970838D01*
X126307496Y-87970838D01*
X125841078Y-88437048D01*
X125374659Y-88903259D01*
X125374659Y-92098541D01*
X125294761Y-92098541D01*
X125293561Y-88854610D01*
X126275047Y-87873520D01*
G37*
G36*
X122053682Y-96927784D02*
G01*
X122349691Y-96932204D01*
X122354608Y-96991061D01*
X122355584Y-97029649D01*
X122344052Y-97048477D01*
X122311352Y-97058146D01*
X122297839Y-97060550D01*
X122244035Y-97070122D01*
X122195869Y-97079154D01*
X122192480Y-97079820D01*
X122148806Y-97088460D01*
X122143750Y-97667229D01*
X122142233Y-97831012D01*
X122140370Y-97965869D01*
X122137494Y-98075315D01*
X122132937Y-98162860D01*
X122126032Y-98232019D01*
X122116111Y-98286302D01*
X122102505Y-98329224D01*
X122084548Y-98364296D01*
X122061571Y-98395032D01*
X122032907Y-98424944D01*
X121997889Y-98457544D01*
X121992597Y-98462380D01*
X121921487Y-98518872D01*
X121850776Y-98554822D01*
X121811875Y-98567482D01*
X121724053Y-98585808D01*
X121620114Y-98597998D01*
X121512802Y-98603300D01*
X121414856Y-98600965D01*
X121357805Y-98594226D01*
X121214360Y-98556933D01*
X121096366Y-98501393D01*
X121004513Y-98428120D01*
X120939493Y-98337625D01*
X120909413Y-98261143D01*
X120901647Y-98229302D01*
X120895447Y-98192553D01*
X120890646Y-98147063D01*
X120887079Y-98088995D01*
X120884579Y-98014515D01*
X120882980Y-97919788D01*
X120882115Y-97800978D01*
X120881817Y-97654250D01*
X120881811Y-97624840D01*
X120881811Y-97086909D01*
X120845317Y-97079425D01*
X120804348Y-97071742D01*
X120753168Y-97062998D01*
X120747999Y-97062161D01*
X120708795Y-97053567D01*
X120691547Y-97037606D01*
X120687271Y-97003359D01*
X120687175Y-96988238D01*
X120687175Y-96924095D01*
X121384621Y-96924095D01*
X121384621Y-96988238D01*
X121382449Y-97029931D01*
X121369943Y-97050131D01*
X121338121Y-97059757D01*
X121323797Y-97062161D01*
X121272818Y-97070789D01*
X121229714Y-97078771D01*
X121226479Y-97079425D01*
X121189985Y-97086909D01*
X121190075Y-97609685D01*
X121190659Y-97762405D01*
X121192297Y-97896938D01*
X121194905Y-98010398D01*
X121198397Y-98099904D01*
X121202688Y-98162570D01*
X121207374Y-98194432D01*
X121238251Y-98261047D01*
X121288804Y-98325571D01*
X121349351Y-98377427D01*
X121397855Y-98402471D01*
X121444391Y-98412642D01*
X121509414Y-98419825D01*
X121579009Y-98422493D01*
X121580322Y-98422490D01*
X121692784Y-98413366D01*
X121781477Y-98385569D01*
X121850377Y-98337237D01*
X121899824Y-98272824D01*
X121944199Y-98197338D01*
X121954241Y-97087394D01*
X121916781Y-97079667D01*
X121875053Y-97071801D01*
X121823466Y-97062966D01*
X121818497Y-97062161D01*
X121779374Y-97053606D01*
X121762103Y-97037738D01*
X121757778Y-97003679D01*
X121757673Y-96987872D01*
X121757673Y-96923363D01*
X122053682Y-96927784D01*
G37*
G36*
X120797637Y-94908801D02*
G01*
X120793524Y-94943060D01*
X120783018Y-94962564D01*
X120758024Y-94973475D01*
X120710444Y-94981958D01*
X120699340Y-94983630D01*
X120606077Y-94997636D01*
X120606077Y-95383226D01*
X121108886Y-95383226D01*
X121108886Y-94997636D01*
X121015623Y-94983630D01*
X120963320Y-94974942D01*
X120935002Y-94964891D01*
X120922571Y-94947313D01*
X120917932Y-94916043D01*
X120917326Y-94908801D01*
X120912292Y-94847977D01*
X121597435Y-94847977D01*
X121592401Y-94908801D01*
X121588287Y-94943060D01*
X121577782Y-94962564D01*
X121552788Y-94973475D01*
X121505208Y-94981958D01*
X121494103Y-94983630D01*
X121400840Y-94997636D01*
X121400840Y-95995891D01*
X121494103Y-96009897D01*
X121546407Y-96018585D01*
X121574725Y-96028636D01*
X121587155Y-96046215D01*
X121591794Y-96077484D01*
X121592401Y-96084727D01*
X121597435Y-96145550D01*
X120914250Y-96145550D01*
X120914250Y-96020312D01*
X120995735Y-96010661D01*
X121045876Y-96003251D01*
X121082797Y-95995128D01*
X121093053Y-95991225D01*
X121099150Y-95971895D01*
X121104078Y-95925739D01*
X121107446Y-95858363D01*
X121108865Y-95775372D01*
X121108886Y-95763431D01*
X121108886Y-95545423D01*
X120606077Y-95545423D01*
X120606077Y-95995891D01*
X120699340Y-96009897D01*
X120751643Y-96018585D01*
X120779961Y-96028636D01*
X120792391Y-96046215D01*
X120797030Y-96077484D01*
X120797637Y-96084727D01*
X120802671Y-96145550D01*
X120119487Y-96145550D01*
X120119487Y-96019983D01*
X120314123Y-95997963D01*
X120314123Y-94997636D01*
X120220860Y-94983630D01*
X120168556Y-94974942D01*
X120140238Y-94964891D01*
X120127808Y-94947313D01*
X120123169Y-94916043D01*
X120122562Y-94908801D01*
X120117528Y-94847977D01*
X120802671Y-94847977D01*
X120797637Y-94908801D01*
G37*
G36*
X124725872Y-97407499D02*
G01*
X124531236Y-97430089D01*
X124531236Y-98428841D01*
X124624499Y-98442847D01*
X124676803Y-98451535D01*
X124705121Y-98461586D01*
X124717551Y-98479165D01*
X124722190Y-98510434D01*
X124722796Y-98517677D01*
X124727831Y-98578501D01*
X124044646Y-98578501D01*
X124044646Y-98521223D01*
X124046384Y-98487751D01*
X124056179Y-98467136D01*
X124080909Y-98454680D01*
X124127447Y-98445681D01*
X124162239Y-98440850D01*
X124239282Y-98430536D01*
X124239282Y-97430089D01*
X124044646Y-97407499D01*
X124044646Y-97280927D01*
X124725872Y-97280927D01*
X124725872Y-97407499D01*
G37*
G36*
X123713779Y-94981086D02*
G01*
X123756187Y-94845638D01*
X123816819Y-94732574D01*
X123882190Y-94653600D01*
X123980443Y-94577096D01*
X124098809Y-94520235D01*
X124231305Y-94483395D01*
X124371948Y-94466952D01*
X124514754Y-94471281D01*
X124653739Y-94496758D01*
X124782921Y-94543761D01*
X124867308Y-94591686D01*
X124958036Y-94672379D01*
X125031650Y-94779047D01*
X125087471Y-94909692D01*
X125124817Y-95062320D01*
X125143009Y-95234935D01*
X125142742Y-95399446D01*
X125124022Y-95581351D01*
X125085550Y-95737711D01*
X125026866Y-95869061D01*
X124947509Y-95975935D01*
X124847020Y-96058869D01*
X124724938Y-96118397D01*
X124580802Y-96155055D01*
X124482577Y-96166362D01*
X124403149Y-96168587D01*
X124318196Y-96165756D01*
X124255502Y-96159645D01*
X124110730Y-96125119D01*
X123987202Y-96066612D01*
X123884782Y-95983927D01*
X123803334Y-95876867D01*
X123742723Y-95745235D01*
X123702812Y-95588835D01*
X123683467Y-95407469D01*
X123681451Y-95326457D01*
X123682115Y-95310238D01*
X124004752Y-95310238D01*
X124010472Y-95479117D01*
X124029283Y-95620494D01*
X124061951Y-95736875D01*
X124109240Y-95830766D01*
X124171917Y-95904670D01*
X124191561Y-95921510D01*
X124271466Y-95966065D01*
X124365768Y-95987612D01*
X124465337Y-95985476D01*
X124561045Y-95958982D01*
X124579895Y-95950212D01*
X124660113Y-95892551D01*
X124723898Y-95808277D01*
X124771673Y-95696680D01*
X124800175Y-95578879D01*
X124815885Y-95450958D01*
X124820479Y-95313704D01*
X124814541Y-95175941D01*
X124798655Y-95046497D01*
X124773405Y-94934198D01*
X124753767Y-94878153D01*
X124715993Y-94811566D01*
X124663144Y-94748022D01*
X124604173Y-94696781D01*
X124550495Y-94667887D01*
X124467958Y-94651495D01*
X124377481Y-94650671D01*
X124292987Y-94664746D01*
X124246072Y-94682477D01*
X124168082Y-94735446D01*
X124106383Y-94807267D01*
X124060090Y-94900250D01*
X124028312Y-95016704D01*
X124010164Y-95158938D01*
X124004752Y-95310238D01*
X123682115Y-95310238D01*
X123689049Y-95140748D01*
X123713779Y-94981086D01*
G37*
G36*
X132381556Y-97637760D02*
G01*
X132255988Y-97637760D01*
X132233968Y-97443124D01*
X131943625Y-97443124D01*
X131943625Y-98428841D01*
X132036888Y-98442847D01*
X132089191Y-98451535D01*
X132117509Y-98461586D01*
X132129939Y-98479165D01*
X132134578Y-98510434D01*
X132135185Y-98517677D01*
X132140219Y-98578501D01*
X131455076Y-98578501D01*
X131460110Y-98517677D01*
X131464223Y-98483417D01*
X131474729Y-98463914D01*
X131499723Y-98453002D01*
X131547303Y-98444519D01*
X131558407Y-98442847D01*
X131651671Y-98428841D01*
X131651671Y-97443124D01*
X131362902Y-97443124D01*
X131340312Y-97637760D01*
X131213739Y-97637760D01*
X131213739Y-97280927D01*
X132381556Y-97280927D01*
X132381556Y-97637760D01*
G37*
G36*
X120022169Y-94864197D02*
G01*
X119958025Y-94864197D01*
X119916332Y-94862025D01*
X119896132Y-94849519D01*
X119886506Y-94817697D01*
X119884102Y-94803373D01*
X119875379Y-94746356D01*
X119867031Y-94708234D01*
X119853120Y-94685241D01*
X119827712Y-94673614D01*
X119784870Y-94669587D01*
X119718659Y-94669395D01*
X119673137Y-94669561D01*
X119486920Y-94669561D01*
X119486920Y-95325364D01*
X119486736Y-95489882D01*
X119486548Y-95624929D01*
X119486903Y-95733470D01*
X119488346Y-95818471D01*
X119491423Y-95882895D01*
X119496680Y-95929708D01*
X119504664Y-95961873D01*
X119515919Y-95982356D01*
X119530993Y-95994120D01*
X119550430Y-96000131D01*
X119574778Y-96003353D01*
X119604582Y-96006751D01*
X119612622Y-96007924D01*
X119655707Y-96016314D01*
X119675602Y-96029971D01*
X119681264Y-96058531D01*
X119681556Y-96082097D01*
X119681556Y-96145550D01*
X118984110Y-96145550D01*
X118984110Y-96082097D01*
X118985945Y-96042153D01*
X118997420Y-96022055D01*
X119027490Y-96012167D01*
X119053043Y-96007924D01*
X119084240Y-96004042D01*
X119109850Y-96001049D01*
X119130418Y-95995979D01*
X119146491Y-95985868D01*
X119158615Y-95967753D01*
X119167335Y-95938667D01*
X119173198Y-95895647D01*
X119176750Y-95835728D01*
X119178536Y-95755946D01*
X119179102Y-95653335D01*
X119178995Y-95524931D01*
X119178760Y-95367771D01*
X119178746Y-95325364D01*
X119178746Y-94669561D01*
X118807163Y-94669561D01*
X118797384Y-94730384D01*
X118786565Y-94795588D01*
X118777036Y-94835200D01*
X118764545Y-94855592D01*
X118744839Y-94863136D01*
X118713665Y-94864202D01*
X118708066Y-94864197D01*
X118643497Y-94864197D01*
X118643497Y-94491144D01*
X120022169Y-94491144D01*
X120022169Y-94864197D01*
G37*
G36*
X134019742Y-99567900D02*
G01*
X120589857Y-99567900D01*
X120589857Y-99470582D01*
X134019742Y-99470582D01*
X134019742Y-99567900D01*
G37*
G36*
X127860323Y-97416581D02*
G01*
X127808089Y-97407940D01*
X127780257Y-97398255D01*
X127769144Y-97381695D01*
X127767067Y-97352429D01*
X127767060Y-97345806D01*
X127767060Y-97289037D01*
X128180662Y-97289543D01*
X128325631Y-97290148D01*
X128442263Y-97292052D01*
X128534658Y-97295980D01*
X128606911Y-97302659D01*
X128663121Y-97312812D01*
X128707387Y-97327166D01*
X128743805Y-97346446D01*
X128776473Y-97371377D01*
X128807253Y-97400441D01*
X128869720Y-97483576D01*
X128901918Y-97575487D01*
X128903476Y-97672362D01*
X128874024Y-97770391D01*
X128847885Y-97818125D01*
X128809164Y-97867055D01*
X128763697Y-97908189D01*
X128745166Y-97920144D01*
X128687533Y-97951123D01*
X128749306Y-98046699D01*
X128784623Y-98107228D01*
X128824267Y-98184224D01*
X128861187Y-98263777D01*
X128870947Y-98286709D01*
X128930814Y-98431143D01*
X129005834Y-98441154D01*
X129065681Y-98450145D01*
X129100225Y-98460374D01*
X129116401Y-98476674D01*
X129121148Y-98503881D01*
X129121402Y-98521694D01*
X129121402Y-98579442D01*
X128908370Y-98574917D01*
X128695337Y-98570391D01*
X128601124Y-98344514D01*
X128551674Y-98231152D01*
X128508338Y-98145192D01*
X128468094Y-98082910D01*
X128427920Y-98040581D01*
X128384793Y-98014483D01*
X128335690Y-98000890D01*
X128320549Y-97998828D01*
X128245540Y-97990374D01*
X128245540Y-98428841D01*
X128338803Y-98442847D01*
X128391107Y-98451535D01*
X128419425Y-98461586D01*
X128431855Y-98479165D01*
X128436494Y-98510434D01*
X128437100Y-98517677D01*
X128442134Y-98578501D01*
X127758950Y-98578501D01*
X127758950Y-98521223D01*
X127760688Y-98487751D01*
X127770483Y-98467136D01*
X127795213Y-98454680D01*
X127841751Y-98445681D01*
X127876543Y-98440850D01*
X127953586Y-98430536D01*
X127953586Y-97852050D01*
X128245540Y-97852050D01*
X128374059Y-97846214D01*
X128442679Y-97841667D01*
X128488113Y-97833953D01*
X128519607Y-97820612D01*
X128544638Y-97800864D01*
X128589156Y-97739821D01*
X128610700Y-97667754D01*
X128609315Y-97593382D01*
X128585044Y-97525421D01*
X128543026Y-97476433D01*
X128514043Y-97458630D01*
X128477347Y-97448367D01*
X128423747Y-97443842D01*
X128373110Y-97443124D01*
X128245540Y-97443124D01*
X128245540Y-97852050D01*
X127953586Y-97852050D01*
X127953586Y-97430587D01*
X127860323Y-97416581D01*
G37*
G36*
X135966102Y-95188590D02*
G01*
X135838819Y-95188590D01*
X135811747Y-95018284D01*
X135572641Y-95013795D01*
X135333535Y-95009307D01*
X135333535Y-95400663D01*
X135483567Y-95395999D01*
X135633599Y-95391336D01*
X135648045Y-95306183D01*
X135657548Y-95256855D01*
X135668665Y-95231572D01*
X135687893Y-95222307D01*
X135716979Y-95221029D01*
X135771466Y-95221029D01*
X135771466Y-95707619D01*
X135715256Y-95707619D01*
X135681846Y-95705940D01*
X135663842Y-95695381D01*
X135654404Y-95667659D01*
X135648288Y-95626521D01*
X135637530Y-95545423D01*
X135333535Y-95545423D01*
X135333535Y-95984221D01*
X135572641Y-95979732D01*
X135811747Y-95975244D01*
X135825283Y-95890091D01*
X135838819Y-95804937D01*
X135966102Y-95804937D01*
X135966102Y-96145550D01*
X134846945Y-96145550D01*
X134846945Y-96019983D01*
X135041581Y-95997963D01*
X135041581Y-94997636D01*
X134948318Y-94983630D01*
X134896015Y-94974942D01*
X134867696Y-94964891D01*
X134855266Y-94947313D01*
X134850627Y-94916043D01*
X134850021Y-94908801D01*
X134844987Y-94847977D01*
X135966102Y-94847977D01*
X135966102Y-95188590D01*
G37*
D15*
%TO.C,J3*%
X144551600Y-75006400D02*
X137337600Y-75006400D01*
X144551600Y-47218400D02*
X144551600Y-75006400D01*
X137337600Y-47218400D02*
X144551600Y-47218400D01*
X137337600Y-75006400D02*
X137337600Y-47218400D01*
D13*
X135903080Y-50678080D02*
G75*
G03*
X135903080Y-50678080I-100000J0D01*
G01*
D15*
%TO.C,J4*%
X144547000Y-76123600D02*
X144547000Y-103911600D01*
X137333000Y-103911600D02*
X137333000Y-76123600D01*
X137333000Y-76123600D02*
X144547000Y-76123600D01*
X144547000Y-103911600D02*
X137333000Y-103911600D01*
D13*
X135898480Y-79583280D02*
G75*
G03*
X135898480Y-79583280I-100000J0D01*
G01*
D15*
%TO.C,J1*%
X91643000Y-47167600D02*
X98857000Y-47167600D01*
X98857000Y-74955600D02*
X91643000Y-74955600D01*
X98857000Y-47167600D02*
X98857000Y-74955600D01*
X91643000Y-74955600D02*
X91643000Y-47167600D01*
D13*
X90208480Y-50627280D02*
G75*
G03*
X90208480Y-50627280I-100000J0D01*
G01*
%TD*%
M02*
