%TF.GenerationSoftware,KiCad,Pcbnew,7.0.7*%
%TF.CreationDate,2023-09-12T23:19:34-05:00*%
%TF.ProjectId,Heater_North_DCT_HSK,48656174-6572-45f4-9e6f-7274685f4443,rev?*%
%TF.SameCoordinates,Original*%
%TF.FileFunction,Legend,Bot*%
%TF.FilePolarity,Positive*%
%FSLAX46Y46*%
G04 Gerber Fmt 4.6, Leading zero omitted, Abs format (unit mm)*
G04 Created by KiCad (PCBNEW 7.0.7) date 2023-09-12 23:19:34*
%MOMM*%
%LPD*%
G01*
G04 APERTURE LIST*
%ADD10C,0.254000*%
%ADD11C,0.500000*%
%ADD12C,0.300000*%
%TA.AperFunction,Profile*%
%ADD13C,0.100000*%
%TD*%
G04 APERTURE END LIST*
D10*
X92600001Y-80150000D02*
G75*
G03*
X92600001Y-80150000I-1J0D01*
G01*
X92610001Y-50750000D02*
G75*
G03*
X92610001Y-50750000I-1J0D01*
G01*
X133540001Y-65380000D02*
G75*
G03*
X133540001Y-65380000I-1J0D01*
G01*
D11*
X136313105Y-54960667D02*
X136313105Y-51460667D01*
X136313105Y-51460667D02*
X134313105Y-54960667D01*
X134313105Y-54960667D02*
X134313105Y-51460667D01*
X132146438Y-54960667D02*
X132479772Y-54794001D01*
X132479772Y-54794001D02*
X132646438Y-54627334D01*
X132646438Y-54627334D02*
X132813105Y-54294001D01*
X132813105Y-54294001D02*
X132813105Y-53294001D01*
X132813105Y-53294001D02*
X132646438Y-52960667D01*
X132646438Y-52960667D02*
X132479772Y-52794001D01*
X132479772Y-52794001D02*
X132146438Y-52627334D01*
X132146438Y-52627334D02*
X131646438Y-52627334D01*
X131646438Y-52627334D02*
X131313105Y-52794001D01*
X131313105Y-52794001D02*
X131146438Y-52960667D01*
X131146438Y-52960667D02*
X130979772Y-53294001D01*
X130979772Y-53294001D02*
X130979772Y-54294001D01*
X130979772Y-54294001D02*
X131146438Y-54627334D01*
X131146438Y-54627334D02*
X131313105Y-54794001D01*
X131313105Y-54794001D02*
X131646438Y-54960667D01*
X131646438Y-54960667D02*
X132146438Y-54960667D01*
X129479771Y-54960667D02*
X129479771Y-52627334D01*
X129479771Y-53294001D02*
X129313105Y-52960667D01*
X129313105Y-52960667D02*
X129146438Y-52794001D01*
X129146438Y-52794001D02*
X128813105Y-52627334D01*
X128813105Y-52627334D02*
X128479771Y-52627334D01*
X127813104Y-52627334D02*
X126479771Y-52627334D01*
X127313104Y-51460667D02*
X127313104Y-54460667D01*
X127313104Y-54460667D02*
X127146438Y-54794001D01*
X127146438Y-54794001D02*
X126813104Y-54960667D01*
X126813104Y-54960667D02*
X126479771Y-54960667D01*
X125313104Y-54960667D02*
X125313104Y-51460667D01*
X123813104Y-54960667D02*
X123813104Y-53127334D01*
X123813104Y-53127334D02*
X123979771Y-52794001D01*
X123979771Y-52794001D02*
X124313104Y-52627334D01*
X124313104Y-52627334D02*
X124813104Y-52627334D01*
X124813104Y-52627334D02*
X125146438Y-52794001D01*
X125146438Y-52794001D02*
X125313104Y-52960667D01*
D12*
X142899998Y-96107542D02*
X142899998Y-94907542D01*
X142899998Y-95478971D02*
X142214284Y-95478971D01*
X142214284Y-96107542D02*
X142214284Y-94907542D01*
X141185712Y-96050400D02*
X141299998Y-96107542D01*
X141299998Y-96107542D02*
X141528570Y-96107542D01*
X141528570Y-96107542D02*
X141642855Y-96050400D01*
X141642855Y-96050400D02*
X141699998Y-95936114D01*
X141699998Y-95936114D02*
X141699998Y-95478971D01*
X141699998Y-95478971D02*
X141642855Y-95364685D01*
X141642855Y-95364685D02*
X141528570Y-95307542D01*
X141528570Y-95307542D02*
X141299998Y-95307542D01*
X141299998Y-95307542D02*
X141185712Y-95364685D01*
X141185712Y-95364685D02*
X141128570Y-95478971D01*
X141128570Y-95478971D02*
X141128570Y-95593257D01*
X141128570Y-95593257D02*
X141699998Y-95707542D01*
X140099999Y-96107542D02*
X140099999Y-95478971D01*
X140099999Y-95478971D02*
X140157141Y-95364685D01*
X140157141Y-95364685D02*
X140271427Y-95307542D01*
X140271427Y-95307542D02*
X140499999Y-95307542D01*
X140499999Y-95307542D02*
X140614284Y-95364685D01*
X140099999Y-96050400D02*
X140214284Y-96107542D01*
X140214284Y-96107542D02*
X140499999Y-96107542D01*
X140499999Y-96107542D02*
X140614284Y-96050400D01*
X140614284Y-96050400D02*
X140671427Y-95936114D01*
X140671427Y-95936114D02*
X140671427Y-95821828D01*
X140671427Y-95821828D02*
X140614284Y-95707542D01*
X140614284Y-95707542D02*
X140499999Y-95650400D01*
X140499999Y-95650400D02*
X140214284Y-95650400D01*
X140214284Y-95650400D02*
X140099999Y-95593257D01*
X139699999Y-95307542D02*
X139242856Y-95307542D01*
X139528570Y-94907542D02*
X139528570Y-95936114D01*
X139528570Y-95936114D02*
X139471427Y-96050400D01*
X139471427Y-96050400D02*
X139357142Y-96107542D01*
X139357142Y-96107542D02*
X139242856Y-96107542D01*
X138385713Y-96050400D02*
X138499999Y-96107542D01*
X138499999Y-96107542D02*
X138728571Y-96107542D01*
X138728571Y-96107542D02*
X138842856Y-96050400D01*
X138842856Y-96050400D02*
X138899999Y-95936114D01*
X138899999Y-95936114D02*
X138899999Y-95478971D01*
X138899999Y-95478971D02*
X138842856Y-95364685D01*
X138842856Y-95364685D02*
X138728571Y-95307542D01*
X138728571Y-95307542D02*
X138499999Y-95307542D01*
X138499999Y-95307542D02*
X138385713Y-95364685D01*
X138385713Y-95364685D02*
X138328571Y-95478971D01*
X138328571Y-95478971D02*
X138328571Y-95593257D01*
X138328571Y-95593257D02*
X138899999Y-95707542D01*
X137814285Y-96107542D02*
X137814285Y-95307542D01*
X137814285Y-95536114D02*
X137757142Y-95421828D01*
X137757142Y-95421828D02*
X137700000Y-95364685D01*
X137700000Y-95364685D02*
X137585714Y-95307542D01*
X137585714Y-95307542D02*
X137471428Y-95307542D01*
X136157142Y-96107542D02*
X136157142Y-94907542D01*
X136157142Y-94907542D02*
X135471428Y-96107542D01*
X135471428Y-96107542D02*
X135471428Y-94907542D01*
X134728571Y-96107542D02*
X134842856Y-96050400D01*
X134842856Y-96050400D02*
X134899999Y-95993257D01*
X134899999Y-95993257D02*
X134957142Y-95878971D01*
X134957142Y-95878971D02*
X134957142Y-95536114D01*
X134957142Y-95536114D02*
X134899999Y-95421828D01*
X134899999Y-95421828D02*
X134842856Y-95364685D01*
X134842856Y-95364685D02*
X134728571Y-95307542D01*
X134728571Y-95307542D02*
X134557142Y-95307542D01*
X134557142Y-95307542D02*
X134442856Y-95364685D01*
X134442856Y-95364685D02*
X134385714Y-95421828D01*
X134385714Y-95421828D02*
X134328571Y-95536114D01*
X134328571Y-95536114D02*
X134328571Y-95878971D01*
X134328571Y-95878971D02*
X134385714Y-95993257D01*
X134385714Y-95993257D02*
X134442856Y-96050400D01*
X134442856Y-96050400D02*
X134557142Y-96107542D01*
X134557142Y-96107542D02*
X134728571Y-96107542D01*
X133814285Y-96107542D02*
X133814285Y-95307542D01*
X133814285Y-95536114D02*
X133757142Y-95421828D01*
X133757142Y-95421828D02*
X133700000Y-95364685D01*
X133700000Y-95364685D02*
X133585714Y-95307542D01*
X133585714Y-95307542D02*
X133471428Y-95307542D01*
X133242857Y-95307542D02*
X132785714Y-95307542D01*
X133071428Y-94907542D02*
X133071428Y-95936114D01*
X133071428Y-95936114D02*
X133014285Y-96050400D01*
X133014285Y-96050400D02*
X132900000Y-96107542D01*
X132900000Y-96107542D02*
X132785714Y-96107542D01*
X132385714Y-96107542D02*
X132385714Y-94907542D01*
X131871429Y-96107542D02*
X131871429Y-95478971D01*
X131871429Y-95478971D02*
X131928571Y-95364685D01*
X131928571Y-95364685D02*
X132042857Y-95307542D01*
X132042857Y-95307542D02*
X132214286Y-95307542D01*
X132214286Y-95307542D02*
X132328571Y-95364685D01*
X132328571Y-95364685D02*
X132385714Y-95421828D01*
X129700000Y-96107542D02*
X130100000Y-95536114D01*
X130385714Y-96107542D02*
X130385714Y-94907542D01*
X130385714Y-94907542D02*
X129928571Y-94907542D01*
X129928571Y-94907542D02*
X129814286Y-94964685D01*
X129814286Y-94964685D02*
X129757143Y-95021828D01*
X129757143Y-95021828D02*
X129700000Y-95136114D01*
X129700000Y-95136114D02*
X129700000Y-95307542D01*
X129700000Y-95307542D02*
X129757143Y-95421828D01*
X129757143Y-95421828D02*
X129814286Y-95478971D01*
X129814286Y-95478971D02*
X129928571Y-95536114D01*
X129928571Y-95536114D02*
X130385714Y-95536114D01*
X128728571Y-96050400D02*
X128842857Y-96107542D01*
X128842857Y-96107542D02*
X129071429Y-96107542D01*
X129071429Y-96107542D02*
X129185714Y-96050400D01*
X129185714Y-96050400D02*
X129242857Y-95936114D01*
X129242857Y-95936114D02*
X129242857Y-95478971D01*
X129242857Y-95478971D02*
X129185714Y-95364685D01*
X129185714Y-95364685D02*
X129071429Y-95307542D01*
X129071429Y-95307542D02*
X128842857Y-95307542D01*
X128842857Y-95307542D02*
X128728571Y-95364685D01*
X128728571Y-95364685D02*
X128671429Y-95478971D01*
X128671429Y-95478971D02*
X128671429Y-95593257D01*
X128671429Y-95593257D02*
X129242857Y-95707542D01*
X128271429Y-95307542D02*
X127985715Y-96107542D01*
X127985715Y-96107542D02*
X127700000Y-95307542D01*
X125928571Y-95478971D02*
X125757143Y-95536114D01*
X125757143Y-95536114D02*
X125700000Y-95593257D01*
X125700000Y-95593257D02*
X125642857Y-95707542D01*
X125642857Y-95707542D02*
X125642857Y-95878971D01*
X125642857Y-95878971D02*
X125700000Y-95993257D01*
X125700000Y-95993257D02*
X125757143Y-96050400D01*
X125757143Y-96050400D02*
X125871428Y-96107542D01*
X125871428Y-96107542D02*
X126328571Y-96107542D01*
X126328571Y-96107542D02*
X126328571Y-94907542D01*
X126328571Y-94907542D02*
X125928571Y-94907542D01*
X125928571Y-94907542D02*
X125814286Y-94964685D01*
X125814286Y-94964685D02*
X125757143Y-95021828D01*
X125757143Y-95021828D02*
X125700000Y-95136114D01*
X125700000Y-95136114D02*
X125700000Y-95250400D01*
X125700000Y-95250400D02*
X125757143Y-95364685D01*
X125757143Y-95364685D02*
X125814286Y-95421828D01*
X125814286Y-95421828D02*
X125928571Y-95478971D01*
X125928571Y-95478971D02*
X126328571Y-95478971D01*
X142785713Y-98039542D02*
X142785713Y-96839542D01*
X142785713Y-96839542D02*
X142499999Y-96839542D01*
X142499999Y-96839542D02*
X142328570Y-96896685D01*
X142328570Y-96896685D02*
X142214285Y-97010971D01*
X142214285Y-97010971D02*
X142157142Y-97125257D01*
X142157142Y-97125257D02*
X142099999Y-97353828D01*
X142099999Y-97353828D02*
X142099999Y-97525257D01*
X142099999Y-97525257D02*
X142157142Y-97753828D01*
X142157142Y-97753828D02*
X142214285Y-97868114D01*
X142214285Y-97868114D02*
X142328570Y-97982400D01*
X142328570Y-97982400D02*
X142499999Y-98039542D01*
X142499999Y-98039542D02*
X142785713Y-98039542D01*
X141128570Y-97982400D02*
X141242856Y-98039542D01*
X141242856Y-98039542D02*
X141471428Y-98039542D01*
X141471428Y-98039542D02*
X141585713Y-97982400D01*
X141585713Y-97982400D02*
X141642856Y-97868114D01*
X141642856Y-97868114D02*
X141642856Y-97410971D01*
X141642856Y-97410971D02*
X141585713Y-97296685D01*
X141585713Y-97296685D02*
X141471428Y-97239542D01*
X141471428Y-97239542D02*
X141242856Y-97239542D01*
X141242856Y-97239542D02*
X141128570Y-97296685D01*
X141128570Y-97296685D02*
X141071428Y-97410971D01*
X141071428Y-97410971D02*
X141071428Y-97525257D01*
X141071428Y-97525257D02*
X141642856Y-97639542D01*
X140557142Y-97239542D02*
X140557142Y-98039542D01*
X140557142Y-97353828D02*
X140499999Y-97296685D01*
X140499999Y-97296685D02*
X140385714Y-97239542D01*
X140385714Y-97239542D02*
X140214285Y-97239542D01*
X140214285Y-97239542D02*
X140099999Y-97296685D01*
X140099999Y-97296685D02*
X140042857Y-97410971D01*
X140042857Y-97410971D02*
X140042857Y-98039542D01*
X139471428Y-97239542D02*
X139471428Y-98039542D01*
X139471428Y-97353828D02*
X139414285Y-97296685D01*
X139414285Y-97296685D02*
X139300000Y-97239542D01*
X139300000Y-97239542D02*
X139128571Y-97239542D01*
X139128571Y-97239542D02*
X139014285Y-97296685D01*
X139014285Y-97296685D02*
X138957143Y-97410971D01*
X138957143Y-97410971D02*
X138957143Y-98039542D01*
X138385714Y-98039542D02*
X138385714Y-97239542D01*
X138385714Y-96839542D02*
X138442857Y-96896685D01*
X138442857Y-96896685D02*
X138385714Y-96953828D01*
X138385714Y-96953828D02*
X138328571Y-96896685D01*
X138328571Y-96896685D02*
X138385714Y-96839542D01*
X138385714Y-96839542D02*
X138385714Y-96953828D01*
X137871428Y-97982400D02*
X137757142Y-98039542D01*
X137757142Y-98039542D02*
X137528571Y-98039542D01*
X137528571Y-98039542D02*
X137414285Y-97982400D01*
X137414285Y-97982400D02*
X137357142Y-97868114D01*
X137357142Y-97868114D02*
X137357142Y-97810971D01*
X137357142Y-97810971D02*
X137414285Y-97696685D01*
X137414285Y-97696685D02*
X137528571Y-97639542D01*
X137528571Y-97639542D02*
X137700000Y-97639542D01*
X137700000Y-97639542D02*
X137814285Y-97582400D01*
X137814285Y-97582400D02*
X137871428Y-97468114D01*
X137871428Y-97468114D02*
X137871428Y-97410971D01*
X137871428Y-97410971D02*
X137814285Y-97296685D01*
X137814285Y-97296685D02*
X137700000Y-97239542D01*
X137700000Y-97239542D02*
X137528571Y-97239542D01*
X137528571Y-97239542D02*
X137414285Y-97296685D01*
X135928570Y-98039542D02*
X135928570Y-96839542D01*
X135928570Y-97410971D02*
X135242856Y-97410971D01*
X135242856Y-98039542D02*
X135242856Y-96839542D01*
X134671427Y-97925257D02*
X134614284Y-97982400D01*
X134614284Y-97982400D02*
X134671427Y-98039542D01*
X134671427Y-98039542D02*
X134728570Y-97982400D01*
X134728570Y-97982400D02*
X134671427Y-97925257D01*
X134671427Y-97925257D02*
X134671427Y-98039542D01*
X132499998Y-97925257D02*
X132557141Y-97982400D01*
X132557141Y-97982400D02*
X132728569Y-98039542D01*
X132728569Y-98039542D02*
X132842855Y-98039542D01*
X132842855Y-98039542D02*
X133014284Y-97982400D01*
X133014284Y-97982400D02*
X133128569Y-97868114D01*
X133128569Y-97868114D02*
X133185712Y-97753828D01*
X133185712Y-97753828D02*
X133242855Y-97525257D01*
X133242855Y-97525257D02*
X133242855Y-97353828D01*
X133242855Y-97353828D02*
X133185712Y-97125257D01*
X133185712Y-97125257D02*
X133128569Y-97010971D01*
X133128569Y-97010971D02*
X133014284Y-96896685D01*
X133014284Y-96896685D02*
X132842855Y-96839542D01*
X132842855Y-96839542D02*
X132728569Y-96839542D01*
X132728569Y-96839542D02*
X132557141Y-96896685D01*
X132557141Y-96896685D02*
X132499998Y-96953828D01*
X131471427Y-98039542D02*
X131471427Y-97410971D01*
X131471427Y-97410971D02*
X131528569Y-97296685D01*
X131528569Y-97296685D02*
X131642855Y-97239542D01*
X131642855Y-97239542D02*
X131871427Y-97239542D01*
X131871427Y-97239542D02*
X131985712Y-97296685D01*
X131471427Y-97982400D02*
X131585712Y-98039542D01*
X131585712Y-98039542D02*
X131871427Y-98039542D01*
X131871427Y-98039542D02*
X131985712Y-97982400D01*
X131985712Y-97982400D02*
X132042855Y-97868114D01*
X132042855Y-97868114D02*
X132042855Y-97753828D01*
X132042855Y-97753828D02*
X131985712Y-97639542D01*
X131985712Y-97639542D02*
X131871427Y-97582400D01*
X131871427Y-97582400D02*
X131585712Y-97582400D01*
X131585712Y-97582400D02*
X131471427Y-97525257D01*
X130728570Y-98039542D02*
X130842855Y-97982400D01*
X130842855Y-97982400D02*
X130899998Y-97868114D01*
X130899998Y-97868114D02*
X130899998Y-96839542D01*
X129757142Y-98039542D02*
X129757142Y-96839542D01*
X129757142Y-97982400D02*
X129871427Y-98039542D01*
X129871427Y-98039542D02*
X130099999Y-98039542D01*
X130099999Y-98039542D02*
X130214284Y-97982400D01*
X130214284Y-97982400D02*
X130271427Y-97925257D01*
X130271427Y-97925257D02*
X130328570Y-97810971D01*
X130328570Y-97810971D02*
X130328570Y-97468114D01*
X130328570Y-97468114D02*
X130271427Y-97353828D01*
X130271427Y-97353828D02*
X130214284Y-97296685D01*
X130214284Y-97296685D02*
X130099999Y-97239542D01*
X130099999Y-97239542D02*
X129871427Y-97239542D01*
X129871427Y-97239542D02*
X129757142Y-97296685D01*
X128728570Y-97982400D02*
X128842856Y-98039542D01*
X128842856Y-98039542D02*
X129071428Y-98039542D01*
X129071428Y-98039542D02*
X129185713Y-97982400D01*
X129185713Y-97982400D02*
X129242856Y-97868114D01*
X129242856Y-97868114D02*
X129242856Y-97410971D01*
X129242856Y-97410971D02*
X129185713Y-97296685D01*
X129185713Y-97296685D02*
X129071428Y-97239542D01*
X129071428Y-97239542D02*
X128842856Y-97239542D01*
X128842856Y-97239542D02*
X128728570Y-97296685D01*
X128728570Y-97296685D02*
X128671428Y-97410971D01*
X128671428Y-97410971D02*
X128671428Y-97525257D01*
X128671428Y-97525257D02*
X129242856Y-97639542D01*
X128157142Y-98039542D02*
X128157142Y-97239542D01*
X128157142Y-97468114D02*
X128099999Y-97353828D01*
X128099999Y-97353828D02*
X128042857Y-97296685D01*
X128042857Y-97296685D02*
X127928571Y-97239542D01*
X127928571Y-97239542D02*
X127814285Y-97239542D01*
X127242857Y-98039542D02*
X127357142Y-97982400D01*
X127357142Y-97982400D02*
X127414285Y-97925257D01*
X127414285Y-97925257D02*
X127471428Y-97810971D01*
X127471428Y-97810971D02*
X127471428Y-97468114D01*
X127471428Y-97468114D02*
X127414285Y-97353828D01*
X127414285Y-97353828D02*
X127357142Y-97296685D01*
X127357142Y-97296685D02*
X127242857Y-97239542D01*
X127242857Y-97239542D02*
X127071428Y-97239542D01*
X127071428Y-97239542D02*
X126957142Y-97296685D01*
X126957142Y-97296685D02*
X126900000Y-97353828D01*
X126900000Y-97353828D02*
X126842857Y-97468114D01*
X126842857Y-97468114D02*
X126842857Y-97810971D01*
X126842857Y-97810971D02*
X126900000Y-97925257D01*
X126900000Y-97925257D02*
X126957142Y-97982400D01*
X126957142Y-97982400D02*
X127071428Y-98039542D01*
X127071428Y-98039542D02*
X127242857Y-98039542D01*
X126328571Y-97239542D02*
X126328571Y-98039542D01*
X126328571Y-97353828D02*
X126271428Y-97296685D01*
X126271428Y-97296685D02*
X126157143Y-97239542D01*
X126157143Y-97239542D02*
X125985714Y-97239542D01*
X125985714Y-97239542D02*
X125871428Y-97296685D01*
X125871428Y-97296685D02*
X125814286Y-97410971D01*
X125814286Y-97410971D02*
X125814286Y-98039542D01*
X139614285Y-98771542D02*
X139499999Y-98771542D01*
X139499999Y-98771542D02*
X139385713Y-98828685D01*
X139385713Y-98828685D02*
X139328571Y-98885828D01*
X139328571Y-98885828D02*
X139271428Y-99000114D01*
X139271428Y-99000114D02*
X139214285Y-99228685D01*
X139214285Y-99228685D02*
X139214285Y-99514400D01*
X139214285Y-99514400D02*
X139271428Y-99742971D01*
X139271428Y-99742971D02*
X139328571Y-99857257D01*
X139328571Y-99857257D02*
X139385713Y-99914400D01*
X139385713Y-99914400D02*
X139499999Y-99971542D01*
X139499999Y-99971542D02*
X139614285Y-99971542D01*
X139614285Y-99971542D02*
X139728571Y-99914400D01*
X139728571Y-99914400D02*
X139785713Y-99857257D01*
X139785713Y-99857257D02*
X139842856Y-99742971D01*
X139842856Y-99742971D02*
X139899999Y-99514400D01*
X139899999Y-99514400D02*
X139899999Y-99228685D01*
X139899999Y-99228685D02*
X139842856Y-99000114D01*
X139842856Y-99000114D02*
X139785713Y-98885828D01*
X139785713Y-98885828D02*
X139728571Y-98828685D01*
X139728571Y-98828685D02*
X139614285Y-98771542D01*
X138642856Y-99971542D02*
X138414285Y-99971542D01*
X138414285Y-99971542D02*
X138299999Y-99914400D01*
X138299999Y-99914400D02*
X138242856Y-99857257D01*
X138242856Y-99857257D02*
X138128571Y-99685828D01*
X138128571Y-99685828D02*
X138071428Y-99457257D01*
X138071428Y-99457257D02*
X138071428Y-99000114D01*
X138071428Y-99000114D02*
X138128571Y-98885828D01*
X138128571Y-98885828D02*
X138185714Y-98828685D01*
X138185714Y-98828685D02*
X138299999Y-98771542D01*
X138299999Y-98771542D02*
X138528571Y-98771542D01*
X138528571Y-98771542D02*
X138642856Y-98828685D01*
X138642856Y-98828685D02*
X138699999Y-98885828D01*
X138699999Y-98885828D02*
X138757142Y-99000114D01*
X138757142Y-99000114D02*
X138757142Y-99285828D01*
X138757142Y-99285828D02*
X138699999Y-99400114D01*
X138699999Y-99400114D02*
X138642856Y-99457257D01*
X138642856Y-99457257D02*
X138528571Y-99514400D01*
X138528571Y-99514400D02*
X138299999Y-99514400D01*
X138299999Y-99514400D02*
X138185714Y-99457257D01*
X138185714Y-99457257D02*
X138128571Y-99400114D01*
X138128571Y-99400114D02*
X138071428Y-99285828D01*
X136699999Y-98714400D02*
X137728571Y-100257257D01*
X136071428Y-98771542D02*
X135957142Y-98771542D01*
X135957142Y-98771542D02*
X135842856Y-98828685D01*
X135842856Y-98828685D02*
X135785714Y-98885828D01*
X135785714Y-98885828D02*
X135728571Y-99000114D01*
X135728571Y-99000114D02*
X135671428Y-99228685D01*
X135671428Y-99228685D02*
X135671428Y-99514400D01*
X135671428Y-99514400D02*
X135728571Y-99742971D01*
X135728571Y-99742971D02*
X135785714Y-99857257D01*
X135785714Y-99857257D02*
X135842856Y-99914400D01*
X135842856Y-99914400D02*
X135957142Y-99971542D01*
X135957142Y-99971542D02*
X136071428Y-99971542D01*
X136071428Y-99971542D02*
X136185714Y-99914400D01*
X136185714Y-99914400D02*
X136242856Y-99857257D01*
X136242856Y-99857257D02*
X136299999Y-99742971D01*
X136299999Y-99742971D02*
X136357142Y-99514400D01*
X136357142Y-99514400D02*
X136357142Y-99228685D01*
X136357142Y-99228685D02*
X136299999Y-99000114D01*
X136299999Y-99000114D02*
X136242856Y-98885828D01*
X136242856Y-98885828D02*
X136185714Y-98828685D01*
X136185714Y-98828685D02*
X136071428Y-98771542D01*
X135099999Y-99971542D02*
X134871428Y-99971542D01*
X134871428Y-99971542D02*
X134757142Y-99914400D01*
X134757142Y-99914400D02*
X134699999Y-99857257D01*
X134699999Y-99857257D02*
X134585714Y-99685828D01*
X134585714Y-99685828D02*
X134528571Y-99457257D01*
X134528571Y-99457257D02*
X134528571Y-99000114D01*
X134528571Y-99000114D02*
X134585714Y-98885828D01*
X134585714Y-98885828D02*
X134642857Y-98828685D01*
X134642857Y-98828685D02*
X134757142Y-98771542D01*
X134757142Y-98771542D02*
X134985714Y-98771542D01*
X134985714Y-98771542D02*
X135099999Y-98828685D01*
X135099999Y-98828685D02*
X135157142Y-98885828D01*
X135157142Y-98885828D02*
X135214285Y-99000114D01*
X135214285Y-99000114D02*
X135214285Y-99285828D01*
X135214285Y-99285828D02*
X135157142Y-99400114D01*
X135157142Y-99400114D02*
X135099999Y-99457257D01*
X135099999Y-99457257D02*
X134985714Y-99514400D01*
X134985714Y-99514400D02*
X134757142Y-99514400D01*
X134757142Y-99514400D02*
X134642857Y-99457257D01*
X134642857Y-99457257D02*
X134585714Y-99400114D01*
X134585714Y-99400114D02*
X134528571Y-99285828D01*
X133157142Y-98714400D02*
X134185714Y-100257257D01*
X132814285Y-98885828D02*
X132757142Y-98828685D01*
X132757142Y-98828685D02*
X132642857Y-98771542D01*
X132642857Y-98771542D02*
X132357142Y-98771542D01*
X132357142Y-98771542D02*
X132242857Y-98828685D01*
X132242857Y-98828685D02*
X132185714Y-98885828D01*
X132185714Y-98885828D02*
X132128571Y-99000114D01*
X132128571Y-99000114D02*
X132128571Y-99114400D01*
X132128571Y-99114400D02*
X132185714Y-99285828D01*
X132185714Y-99285828D02*
X132871428Y-99971542D01*
X132871428Y-99971542D02*
X132128571Y-99971542D01*
X131385714Y-98771542D02*
X131271428Y-98771542D01*
X131271428Y-98771542D02*
X131157142Y-98828685D01*
X131157142Y-98828685D02*
X131100000Y-98885828D01*
X131100000Y-98885828D02*
X131042857Y-99000114D01*
X131042857Y-99000114D02*
X130985714Y-99228685D01*
X130985714Y-99228685D02*
X130985714Y-99514400D01*
X130985714Y-99514400D02*
X131042857Y-99742971D01*
X131042857Y-99742971D02*
X131100000Y-99857257D01*
X131100000Y-99857257D02*
X131157142Y-99914400D01*
X131157142Y-99914400D02*
X131271428Y-99971542D01*
X131271428Y-99971542D02*
X131385714Y-99971542D01*
X131385714Y-99971542D02*
X131500000Y-99914400D01*
X131500000Y-99914400D02*
X131557142Y-99857257D01*
X131557142Y-99857257D02*
X131614285Y-99742971D01*
X131614285Y-99742971D02*
X131671428Y-99514400D01*
X131671428Y-99514400D02*
X131671428Y-99228685D01*
X131671428Y-99228685D02*
X131614285Y-99000114D01*
X131614285Y-99000114D02*
X131557142Y-98885828D01*
X131557142Y-98885828D02*
X131500000Y-98828685D01*
X131500000Y-98828685D02*
X131385714Y-98771542D01*
X130528571Y-98885828D02*
X130471428Y-98828685D01*
X130471428Y-98828685D02*
X130357143Y-98771542D01*
X130357143Y-98771542D02*
X130071428Y-98771542D01*
X130071428Y-98771542D02*
X129957143Y-98828685D01*
X129957143Y-98828685D02*
X129900000Y-98885828D01*
X129900000Y-98885828D02*
X129842857Y-99000114D01*
X129842857Y-99000114D02*
X129842857Y-99114400D01*
X129842857Y-99114400D02*
X129900000Y-99285828D01*
X129900000Y-99285828D02*
X130585714Y-99971542D01*
X130585714Y-99971542D02*
X129842857Y-99971542D01*
X129442857Y-98771542D02*
X128700000Y-98771542D01*
X128700000Y-98771542D02*
X129100000Y-99228685D01*
X129100000Y-99228685D02*
X128928571Y-99228685D01*
X128928571Y-99228685D02*
X128814286Y-99285828D01*
X128814286Y-99285828D02*
X128757143Y-99342971D01*
X128757143Y-99342971D02*
X128700000Y-99457257D01*
X128700000Y-99457257D02*
X128700000Y-99742971D01*
X128700000Y-99742971D02*
X128757143Y-99857257D01*
X128757143Y-99857257D02*
X128814286Y-99914400D01*
X128814286Y-99914400D02*
X128928571Y-99971542D01*
X128928571Y-99971542D02*
X129271428Y-99971542D01*
X129271428Y-99971542D02*
X129385714Y-99914400D01*
X129385714Y-99914400D02*
X129442857Y-99857257D01*
%TO.C,G\u002A\u002A\u002A*%
G36*
X133135078Y-85129535D02*
G01*
X132987403Y-85129535D01*
X132987403Y-64750465D01*
X133135078Y-64750465D01*
X133135078Y-85129535D01*
G37*
G36*
X126514341Y-84630929D02*
G01*
X126366667Y-84647636D01*
X126218992Y-84664344D01*
X126218992Y-85104923D01*
X127717904Y-85104923D01*
X127734612Y-84957248D01*
X127751319Y-84809574D01*
X127941860Y-84809574D01*
X127941860Y-85843295D01*
X127751319Y-85843295D01*
X127734612Y-85695620D01*
X127717904Y-85547946D01*
X126218992Y-85547946D01*
X126218992Y-85988525D01*
X126366667Y-86005232D01*
X126514341Y-86021940D01*
X126514341Y-86212481D01*
X125972868Y-86212481D01*
X125972868Y-84440388D01*
X126514341Y-84440388D01*
X126514341Y-84630929D01*
G37*
G36*
X129873934Y-70140582D02*
G01*
X129891074Y-70288256D01*
X131409193Y-70288256D01*
X131424845Y-70171347D01*
X131432175Y-70118553D01*
X131445830Y-70047933D01*
X131464732Y-70010408D01*
X131496014Y-69995543D01*
X131546805Y-69992907D01*
X131633721Y-69992907D01*
X131633721Y-71029600D01*
X131541424Y-71021961D01*
X131530434Y-71021041D01*
X131482985Y-71014001D01*
X131456310Y-70995139D01*
X131441058Y-70952168D01*
X131427875Y-70872801D01*
X131406622Y-70731279D01*
X129891074Y-70731279D01*
X129873934Y-70878954D01*
X129856795Y-71026628D01*
X129664729Y-71026628D01*
X129664729Y-69992907D01*
X129856795Y-69992907D01*
X129873934Y-70140582D01*
G37*
G36*
X121160340Y-72183411D02*
G01*
X121726899Y-72183411D01*
X123068605Y-73524451D01*
X123068605Y-76353114D01*
X122410830Y-77012545D01*
X121753056Y-77671977D01*
X117051208Y-77671977D01*
X116392658Y-77013766D01*
X115734109Y-76355555D01*
X115734109Y-75789968D01*
X117087791Y-75789968D01*
X117352776Y-76054131D01*
X117617761Y-76318295D01*
X121186635Y-76318295D01*
X121438473Y-76065597D01*
X121690310Y-75812900D01*
X121690310Y-74065420D01*
X121425325Y-73801257D01*
X121160340Y-73537093D01*
X117640767Y-73537093D01*
X117364279Y-73814368D01*
X117087791Y-74091642D01*
X117087791Y-75789968D01*
X115734109Y-75789968D01*
X115734109Y-73525117D01*
X117075149Y-72183411D01*
X121160340Y-72183411D01*
G37*
G36*
X121036757Y-73758605D02*
G01*
X121086278Y-73758605D01*
X121289844Y-73961114D01*
X121493411Y-74163623D01*
X121493411Y-75718865D01*
X121081015Y-76121395D01*
X117721699Y-76121395D01*
X117515500Y-75920130D01*
X117309302Y-75718865D01*
X117309302Y-75642774D01*
X117432364Y-75642774D01*
X117599116Y-75808247D01*
X117765867Y-75973721D01*
X121039503Y-75973721D01*
X121192620Y-75819231D01*
X121345736Y-75664742D01*
X121345736Y-74212512D01*
X121191247Y-74059396D01*
X121036757Y-73906279D01*
X117763312Y-73906279D01*
X117597838Y-74073031D01*
X117432364Y-74239782D01*
X117432364Y-75642774D01*
X117309302Y-75642774D01*
X117309302Y-74165738D01*
X117511811Y-73962171D01*
X117714320Y-73758605D01*
X121036757Y-73758605D01*
G37*
G36*
X119376593Y-71888986D02*
G01*
X121800758Y-71889884D01*
X121874903Y-71889911D01*
X122631734Y-72630185D01*
X123388566Y-73370460D01*
X123388566Y-76477982D01*
X122631883Y-77234960D01*
X121875201Y-77991938D01*
X116890379Y-77991938D01*
X116139957Y-77250103D01*
X115389535Y-76508269D01*
X115389535Y-76453981D01*
X115537209Y-76453981D01*
X116249042Y-77165496D01*
X116960874Y-77877011D01*
X121825678Y-77843761D01*
X122533285Y-77136565D01*
X123240891Y-76429369D01*
X123240891Y-73450637D01*
X122520825Y-72730881D01*
X121800758Y-72011124D01*
X116952104Y-72011124D01*
X116244657Y-72718887D01*
X115537209Y-73426650D01*
X115537209Y-76453981D01*
X115389535Y-76453981D01*
X115389535Y-73377410D01*
X116878283Y-71888062D01*
X119376593Y-71888986D01*
G37*
G36*
X130206202Y-81063655D02*
G01*
X130058527Y-81080795D01*
X129910853Y-81097934D01*
X129910853Y-81536124D01*
X131406622Y-81536124D01*
X131427875Y-81394603D01*
X131430412Y-81377753D01*
X131443285Y-81305553D01*
X131459842Y-81267625D01*
X131489437Y-81251684D01*
X131541424Y-81245443D01*
X131633721Y-81237804D01*
X131633721Y-82277468D01*
X131541424Y-82269829D01*
X131530434Y-82268909D01*
X131482985Y-82261869D01*
X131456310Y-82243007D01*
X131441058Y-82200036D01*
X131427875Y-82120669D01*
X131406622Y-81979147D01*
X129910853Y-81979147D01*
X129910853Y-82419726D01*
X130058527Y-82436434D01*
X130206202Y-82453141D01*
X130206202Y-82643682D01*
X129664729Y-82643682D01*
X129664729Y-80871589D01*
X130206202Y-80871589D01*
X130206202Y-81063655D01*
G37*
G36*
X131633721Y-80653049D02*
G01*
X131541424Y-80645410D01*
X131530046Y-80644457D01*
X131482804Y-80637398D01*
X131456234Y-80618464D01*
X131441014Y-80575387D01*
X131427823Y-80495899D01*
X131406517Y-80354026D01*
X130652532Y-80360530D01*
X129898547Y-80367035D01*
X129876104Y-80508556D01*
X129853661Y-80650078D01*
X129663730Y-80650078D01*
X129670382Y-80139370D01*
X129677035Y-79628663D01*
X129763178Y-79628663D01*
X129773229Y-79628674D01*
X129817638Y-79631825D01*
X129842767Y-79648688D01*
X129857464Y-79690922D01*
X129870575Y-79770184D01*
X129891828Y-79911706D01*
X131409193Y-79911706D01*
X131424845Y-79794797D01*
X131432175Y-79742003D01*
X131445830Y-79671383D01*
X131464732Y-79633857D01*
X131496014Y-79618993D01*
X131546805Y-79616357D01*
X131633721Y-79616357D01*
X131633721Y-80653049D01*
G37*
G36*
X127941860Y-75358411D02*
G01*
X127751818Y-75358411D01*
X127737173Y-75234763D01*
X127731308Y-75191299D01*
X127719005Y-75124009D01*
X127707680Y-75087088D01*
X127684421Y-75080778D01*
X127614831Y-75074692D01*
X127502599Y-75069768D01*
X127351203Y-75066116D01*
X127164120Y-75063844D01*
X126944828Y-75063062D01*
X126196824Y-75063062D01*
X126180117Y-75210737D01*
X126163409Y-75358411D01*
X125972868Y-75358411D01*
X125972868Y-74321719D01*
X126065165Y-74329357D01*
X126076155Y-74330278D01*
X126123605Y-74337317D01*
X126150279Y-74356179D01*
X126165531Y-74399150D01*
X126178714Y-74478518D01*
X126199967Y-74620039D01*
X127714761Y-74620039D01*
X127736014Y-74478518D01*
X127738552Y-74461668D01*
X127751424Y-74389467D01*
X127767981Y-74351540D01*
X127797577Y-74335599D01*
X127849564Y-74329357D01*
X127941860Y-74321719D01*
X127941860Y-75358411D01*
G37*
G36*
X126514341Y-80648962D02*
G01*
X126514195Y-80671908D01*
X126507707Y-80723875D01*
X126481534Y-80748095D01*
X126422045Y-80761136D01*
X126362490Y-80770430D01*
X126287072Y-80784450D01*
X126243923Y-80804353D01*
X126224133Y-80840946D01*
X126218793Y-80905035D01*
X126218992Y-81007426D01*
X126218992Y-81216163D01*
X127716807Y-81216163D01*
X127733720Y-81080795D01*
X127750633Y-80945426D01*
X127941860Y-80945426D01*
X127941860Y-81954535D01*
X127750633Y-81954535D01*
X127716807Y-81683799D01*
X126218992Y-81683799D01*
X126218992Y-81893776D01*
X126218950Y-81943133D01*
X126221052Y-82030299D01*
X126232372Y-82083042D01*
X126260489Y-82111767D01*
X126312983Y-82126884D01*
X126397432Y-82138799D01*
X126514341Y-82154450D01*
X126514341Y-82348333D01*
X125972868Y-82348333D01*
X125972868Y-80551628D01*
X126514341Y-80551628D01*
X126514341Y-80648962D01*
G37*
G36*
X126065165Y-86389435D02*
G01*
X126076155Y-86390355D01*
X126123605Y-86397394D01*
X126150279Y-86416256D01*
X126165531Y-86459228D01*
X126178714Y-86538595D01*
X126199967Y-86680116D01*
X127717904Y-86680116D01*
X127734612Y-86532442D01*
X127751319Y-86384768D01*
X127941860Y-86384768D01*
X127941860Y-88083023D01*
X127425000Y-88083023D01*
X127425000Y-87889879D01*
X127554215Y-87869339D01*
X127683430Y-87848798D01*
X127697052Y-87123140D01*
X127031202Y-87123140D01*
X127031202Y-87584434D01*
X127154264Y-87600758D01*
X127216688Y-87610040D01*
X127258754Y-87624361D01*
X127274777Y-87651681D01*
X127277326Y-87702379D01*
X127277326Y-87787675D01*
X126538953Y-87787675D01*
X126538953Y-87704993D01*
X126540891Y-87660857D01*
X126554951Y-87631679D01*
X126593317Y-87614810D01*
X126668169Y-87600390D01*
X126797384Y-87578469D01*
X126804460Y-87350804D01*
X126811537Y-87123140D01*
X126217676Y-87123140D01*
X126231298Y-87848798D01*
X126360514Y-87869339D01*
X126489729Y-87889879D01*
X126489729Y-88083023D01*
X125972868Y-88083023D01*
X125972868Y-86381796D01*
X126065165Y-86389435D01*
G37*
G36*
X127941860Y-68171589D02*
G01*
X127425000Y-68171589D01*
X127425000Y-67978232D01*
X127695736Y-67944406D01*
X127695736Y-67211706D01*
X127031202Y-67211706D01*
X127031202Y-67674722D01*
X127154264Y-67691647D01*
X127215587Y-67701058D01*
X127258260Y-67715518D01*
X127274653Y-67742540D01*
X127277326Y-67792407D01*
X127277326Y-67876240D01*
X126535835Y-67876240D01*
X126543547Y-67797429D01*
X126547713Y-67766410D01*
X126563334Y-67731773D01*
X126601127Y-67710721D01*
X126674322Y-67692653D01*
X126797384Y-67666687D01*
X126797384Y-67224012D01*
X126508188Y-67217078D01*
X126218992Y-67210143D01*
X126218992Y-67944406D01*
X126354360Y-67961319D01*
X126489729Y-67978232D01*
X126489729Y-68171589D01*
X125972868Y-68171589D01*
X125972868Y-66470362D01*
X126065165Y-66478001D01*
X126076155Y-66478921D01*
X126123605Y-66485960D01*
X126150279Y-66504822D01*
X126165531Y-66547794D01*
X126178714Y-66627161D01*
X126199967Y-66768682D01*
X127714761Y-66768682D01*
X127736014Y-66627161D01*
X127738552Y-66610311D01*
X127751424Y-66538111D01*
X127767981Y-66500183D01*
X127797577Y-66484242D01*
X127849564Y-66478001D01*
X127941860Y-66470362D01*
X127941860Y-68171589D01*
G37*
G36*
X131633721Y-75333799D02*
G01*
X131116860Y-75333799D01*
X131116860Y-75140441D01*
X131252229Y-75123528D01*
X131387597Y-75106615D01*
X131387597Y-74373915D01*
X130723062Y-74373915D01*
X130723062Y-74839855D01*
X130846124Y-74856180D01*
X130907068Y-74865225D01*
X130949959Y-74879410D01*
X130966475Y-74906113D01*
X130969186Y-74955477D01*
X130969186Y-75038450D01*
X130227695Y-75038450D01*
X130235408Y-74959639D01*
X130239574Y-74928619D01*
X130255194Y-74893983D01*
X130292987Y-74872930D01*
X130366182Y-74854862D01*
X130489244Y-74828897D01*
X130489244Y-74386221D01*
X130200048Y-74379287D01*
X129910853Y-74372353D01*
X129910853Y-75106615D01*
X130181589Y-75140441D01*
X130181589Y-75333799D01*
X129664082Y-75333799D01*
X129670559Y-74490824D01*
X129677035Y-73647849D01*
X129763178Y-73647849D01*
X129773229Y-73647860D01*
X129817638Y-73651011D01*
X129842767Y-73667874D01*
X129857464Y-73710108D01*
X129870575Y-73789370D01*
X129891828Y-73930892D01*
X131409193Y-73930892D01*
X131424845Y-73813983D01*
X131432175Y-73761189D01*
X131445830Y-73690569D01*
X131464732Y-73653043D01*
X131496014Y-73638179D01*
X131546805Y-73635543D01*
X131633721Y-73635543D01*
X131633721Y-75333799D01*
G37*
G36*
X129889400Y-83108258D02*
G01*
X130797092Y-83702016D01*
X131406622Y-83702016D01*
X131427875Y-83560494D01*
X131430412Y-83543644D01*
X131443285Y-83471444D01*
X131459842Y-83433517D01*
X131489437Y-83417576D01*
X131541424Y-83411334D01*
X131633721Y-83403695D01*
X131633721Y-84440388D01*
X131546805Y-84440388D01*
X131517725Y-84439910D01*
X131477889Y-84432268D01*
X131453885Y-84407016D01*
X131438580Y-84353720D01*
X131424845Y-84261948D01*
X131409193Y-84145039D01*
X130771773Y-84145039D01*
X130330636Y-84429221D01*
X129889498Y-84713403D01*
X129855956Y-84981861D01*
X129664729Y-84981861D01*
X129664729Y-84120426D01*
X129853661Y-84120426D01*
X129876104Y-84255544D01*
X129898547Y-84390661D01*
X130156977Y-84228889D01*
X130260849Y-84163803D01*
X130355675Y-84104267D01*
X130429656Y-84057694D01*
X130472346Y-84030650D01*
X130481228Y-84024826D01*
X130497710Y-84009957D01*
X130498252Y-83993092D01*
X130477728Y-83969356D01*
X130431016Y-83933871D01*
X130352991Y-83881763D01*
X130238528Y-83808154D01*
X130204448Y-83786398D01*
X130100412Y-83720618D01*
X130012568Y-83666004D01*
X129949304Y-83627732D01*
X129919010Y-83610980D01*
X129908106Y-83612731D01*
X129888688Y-83651993D01*
X129873102Y-83737070D01*
X129855956Y-83874302D01*
X129664729Y-83874302D01*
X129664729Y-82840582D01*
X129855956Y-82840582D01*
X129889400Y-83108258D01*
G37*
G36*
X131633721Y-68420685D02*
G01*
X131541424Y-68413046D01*
X131530434Y-68412126D01*
X131482985Y-68405086D01*
X131456310Y-68386224D01*
X131441058Y-68343253D01*
X131427875Y-68263886D01*
X131406622Y-68122364D01*
X130824871Y-68123250D01*
X130243120Y-68124135D01*
X130312912Y-68181233D01*
X130322911Y-68189066D01*
X130374296Y-68227211D01*
X130458198Y-68288085D01*
X130569025Y-68367683D01*
X130701187Y-68461997D01*
X130849093Y-68567021D01*
X131007153Y-68678749D01*
X131631601Y-69119167D01*
X131633721Y-69476047D01*
X129891074Y-69476047D01*
X129873934Y-69623721D01*
X129856795Y-69771395D01*
X129664729Y-69771395D01*
X129664729Y-68885349D01*
X129856795Y-68885349D01*
X129873934Y-69033023D01*
X129891074Y-69180698D01*
X131004752Y-69180698D01*
X130841652Y-69063789D01*
X130803123Y-69036158D01*
X130715206Y-68973071D01*
X130600189Y-68890507D01*
X130465915Y-68794097D01*
X130320223Y-68689471D01*
X130170956Y-68582258D01*
X129663360Y-68217637D01*
X129670198Y-67880805D01*
X129677035Y-67543973D01*
X129763178Y-67543973D01*
X129773229Y-67543984D01*
X129817638Y-67547135D01*
X129842767Y-67563998D01*
X129857464Y-67606232D01*
X129870575Y-67685494D01*
X129891828Y-67827016D01*
X131409193Y-67827016D01*
X131424845Y-67710107D01*
X131432175Y-67657313D01*
X131445830Y-67586693D01*
X131464732Y-67549167D01*
X131496014Y-67534303D01*
X131546805Y-67531667D01*
X131633721Y-67531667D01*
X131633721Y-68420685D01*
G37*
G36*
X129898547Y-71476499D02*
G01*
X130723062Y-71787890D01*
X130898496Y-71854155D01*
X131078501Y-71922168D01*
X131240078Y-71983239D01*
X131377703Y-72035280D01*
X131485850Y-72076202D01*
X131558995Y-72103916D01*
X131591613Y-72116331D01*
X131601224Y-72120828D01*
X131618771Y-72139543D01*
X131628095Y-72176946D01*
X131630811Y-72243176D01*
X131628532Y-72348375D01*
X131621415Y-72563369D01*
X129898547Y-73209161D01*
X129876104Y-73348515D01*
X129853661Y-73487868D01*
X129663566Y-73487868D01*
X129670301Y-73063304D01*
X129677035Y-72638740D01*
X129761854Y-72638740D01*
X129762885Y-72638741D01*
X129811149Y-72641306D01*
X129839129Y-72656844D01*
X129856534Y-72697173D01*
X129873074Y-72774109D01*
X129886442Y-72830673D01*
X129906236Y-72885612D01*
X129923623Y-72905120D01*
X129932250Y-72902869D01*
X129982200Y-72886450D01*
X130066728Y-72856807D01*
X130178483Y-72816667D01*
X130310114Y-72768758D01*
X130454271Y-72715805D01*
X130603603Y-72660535D01*
X130750758Y-72605675D01*
X130888388Y-72553951D01*
X131009139Y-72508089D01*
X131105663Y-72470817D01*
X131170607Y-72444860D01*
X131196622Y-72432945D01*
X131184009Y-72424436D01*
X131132246Y-72400860D01*
X131047160Y-72365225D01*
X130935759Y-72320221D01*
X130805049Y-72268537D01*
X130662039Y-72212862D01*
X130513734Y-72155886D01*
X130367142Y-72100297D01*
X130229269Y-72048784D01*
X130107124Y-72004038D01*
X130007713Y-71968747D01*
X129938043Y-71945600D01*
X129905121Y-71937287D01*
X129897251Y-71949486D01*
X129884627Y-71998655D01*
X129872869Y-72072655D01*
X129855956Y-72208023D01*
X129664729Y-72208023D01*
X129664729Y-71198915D01*
X129853661Y-71198915D01*
X129898547Y-71476499D01*
G37*
G36*
X125997481Y-61894958D02*
G01*
X125997488Y-61903453D01*
X125995871Y-61950757D01*
X125984424Y-61980660D01*
X125953480Y-61999615D01*
X125893370Y-62014074D01*
X125794428Y-62030492D01*
X125702132Y-62045331D01*
X125702132Y-62609186D01*
X126697276Y-62609186D01*
X126761625Y-62609208D01*
X127000107Y-62609564D01*
X127194952Y-62609727D01*
X127350658Y-62608867D01*
X127471723Y-62606157D01*
X127562647Y-62600768D01*
X127627927Y-62591871D01*
X127672063Y-62578638D01*
X127699552Y-62560241D01*
X127714894Y-62535852D01*
X127722587Y-62504640D01*
X127727130Y-62465779D01*
X127733020Y-62418440D01*
X127739458Y-62379665D01*
X127754463Y-62334035D01*
X127784961Y-62316622D01*
X127845574Y-62313837D01*
X127941860Y-62313837D01*
X127941860Y-63372171D01*
X127845574Y-63372171D01*
X127809813Y-63371728D01*
X127766475Y-63363137D01*
X127745751Y-63332946D01*
X127733020Y-63267568D01*
X127731240Y-63255367D01*
X127726084Y-63210142D01*
X127721195Y-63173196D01*
X127712074Y-63143700D01*
X127694222Y-63120827D01*
X127663141Y-63103748D01*
X127614332Y-63091633D01*
X127543297Y-63083656D01*
X127445536Y-63078986D01*
X127316553Y-63076797D01*
X127151847Y-63076258D01*
X126946921Y-63076543D01*
X126697276Y-63076822D01*
X125702132Y-63076822D01*
X125702132Y-63359396D01*
X125701880Y-63428473D01*
X125702172Y-63528944D01*
X125708283Y-63593954D01*
X125725926Y-63632510D01*
X125760816Y-63653618D01*
X125818664Y-63666287D01*
X125905184Y-63679523D01*
X125926919Y-63683171D01*
X125975208Y-63697778D01*
X125994185Y-63728430D01*
X125997481Y-63791697D01*
X125997481Y-63889031D01*
X125431395Y-63889031D01*
X125431395Y-61796977D01*
X125997481Y-61796977D01*
X125997481Y-61894958D01*
G37*
G36*
X126065165Y-64041373D02*
G01*
X126076155Y-64042293D01*
X126123605Y-64049332D01*
X126150279Y-64068194D01*
X126165531Y-64111166D01*
X126178714Y-64190533D01*
X126199967Y-64332054D01*
X127717904Y-64332054D01*
X127734612Y-64184380D01*
X127751319Y-64036706D01*
X127941860Y-64036706D01*
X127941860Y-65073398D01*
X127849564Y-65065759D01*
X127838574Y-65064839D01*
X127791124Y-65057800D01*
X127764450Y-65038938D01*
X127749198Y-64995966D01*
X127736014Y-64916599D01*
X127714761Y-64775078D01*
X127031202Y-64775078D01*
X127031202Y-65538062D01*
X127362016Y-65538062D01*
X127380136Y-65538030D01*
X127506071Y-65535876D01*
X127608310Y-65530765D01*
X127678348Y-65523288D01*
X127707680Y-65514036D01*
X127713603Y-65498473D01*
X127725929Y-65442448D01*
X127737173Y-65366362D01*
X127751818Y-65242713D01*
X127941860Y-65242713D01*
X127941860Y-66279406D01*
X127849564Y-66271767D01*
X127838574Y-66270847D01*
X127791124Y-66263807D01*
X127764450Y-66244945D01*
X127749198Y-66201974D01*
X127736014Y-66122607D01*
X127714761Y-65981085D01*
X126199967Y-65981085D01*
X126178714Y-66122607D01*
X126176177Y-66139457D01*
X126163305Y-66211657D01*
X126146747Y-66249584D01*
X126117152Y-66265525D01*
X126065165Y-66271767D01*
X125972868Y-66279406D01*
X125972868Y-65239742D01*
X126065165Y-65247381D01*
X126076155Y-65248301D01*
X126123605Y-65255340D01*
X126150279Y-65274202D01*
X126165531Y-65317173D01*
X126178714Y-65396541D01*
X126199967Y-65538062D01*
X126785078Y-65538062D01*
X126785078Y-64775078D01*
X126199967Y-64775078D01*
X126178714Y-64916599D01*
X126176177Y-64933449D01*
X126163305Y-65005649D01*
X126146747Y-65043577D01*
X126117152Y-65059518D01*
X126065165Y-65065759D01*
X125972868Y-65073398D01*
X125972868Y-64033734D01*
X126065165Y-64041373D01*
G37*
G36*
X126065165Y-71868117D02*
G01*
X126076155Y-71869037D01*
X126123605Y-71876077D01*
X126150279Y-71894939D01*
X126165531Y-71937910D01*
X126178714Y-72017277D01*
X126199967Y-72158799D01*
X127717904Y-72158799D01*
X127734612Y-72011124D01*
X127751319Y-71863450D01*
X127941860Y-71863450D01*
X127941860Y-72900142D01*
X127849564Y-72892503D01*
X127838574Y-72891583D01*
X127791124Y-72884544D01*
X127764450Y-72865682D01*
X127749198Y-72822711D01*
X127736014Y-72743343D01*
X127714761Y-72601822D01*
X127031202Y-72601822D01*
X127031202Y-73364806D01*
X127362016Y-73364806D01*
X127380136Y-73364774D01*
X127506071Y-73362620D01*
X127608310Y-73357509D01*
X127678348Y-73350032D01*
X127707680Y-73340780D01*
X127713603Y-73325217D01*
X127725929Y-73269192D01*
X127737173Y-73193106D01*
X127751818Y-73069457D01*
X127941860Y-73069457D01*
X127941860Y-74106150D01*
X127849564Y-74098511D01*
X127838574Y-74097591D01*
X127791124Y-74090552D01*
X127764450Y-74071690D01*
X127749198Y-74028718D01*
X127736014Y-73949351D01*
X127714761Y-73807830D01*
X126199967Y-73807830D01*
X126178714Y-73949351D01*
X126176177Y-73966201D01*
X126163305Y-74038401D01*
X126146747Y-74076329D01*
X126117152Y-74092270D01*
X126065165Y-74098511D01*
X125972868Y-74106150D01*
X125972868Y-73066486D01*
X126063976Y-73074125D01*
X126065110Y-73074220D01*
X126116923Y-73081072D01*
X126146666Y-73098828D01*
X126164576Y-73140009D01*
X126180885Y-73217132D01*
X126206686Y-73352500D01*
X126785078Y-73366368D01*
X126785078Y-72601822D01*
X126199967Y-72601822D01*
X126178714Y-72743343D01*
X126176177Y-72760193D01*
X126163305Y-72832393D01*
X126146747Y-72870321D01*
X126117152Y-72886262D01*
X126065165Y-72892503D01*
X125972868Y-72900142D01*
X125972868Y-71860478D01*
X126065165Y-71868117D01*
G37*
G36*
X127941860Y-83089677D02*
G01*
X127849665Y-83082038D01*
X127798784Y-83075896D01*
X127767628Y-83059458D01*
X127750593Y-83020201D01*
X127737032Y-82945184D01*
X127728218Y-82899900D01*
X127707826Y-82838750D01*
X127685734Y-82815969D01*
X127654523Y-82822824D01*
X127589875Y-82844276D01*
X127509171Y-82875247D01*
X127363469Y-82934525D01*
X127363469Y-83682959D01*
X127708043Y-83820175D01*
X127733233Y-83681105D01*
X127735031Y-83671197D01*
X127750376Y-83596977D01*
X127768119Y-83557666D01*
X127798095Y-83540920D01*
X127850142Y-83534396D01*
X127941860Y-83526757D01*
X127941860Y-84566421D01*
X127849564Y-84558782D01*
X127842357Y-84558182D01*
X127792886Y-84551316D01*
X127765190Y-84533122D01*
X127749614Y-84491142D01*
X127736504Y-84412922D01*
X127715741Y-84274701D01*
X127219644Y-84083132D01*
X127055389Y-84019643D01*
X126863169Y-83945225D01*
X126670849Y-83870663D01*
X126493775Y-83801906D01*
X126347288Y-83744902D01*
X125971029Y-83598242D01*
X125978102Y-83385736D01*
X125980682Y-83308217D01*
X126391279Y-83308217D01*
X126394309Y-83311117D01*
X126430505Y-83328804D01*
X126499995Y-83357937D01*
X126593171Y-83394903D01*
X126700424Y-83436092D01*
X126812145Y-83477891D01*
X126918726Y-83516688D01*
X127010558Y-83548872D01*
X127078033Y-83570831D01*
X127111540Y-83578954D01*
X127117825Y-83562045D01*
X127123952Y-83504929D01*
X127128116Y-83417009D01*
X127129651Y-83308217D01*
X127128520Y-83214267D01*
X127124699Y-83122675D01*
X127118818Y-83060435D01*
X127111540Y-83037481D01*
X127103825Y-83038620D01*
X127056771Y-83052225D01*
X126979267Y-83078346D01*
X126880923Y-83113369D01*
X126771346Y-83153684D01*
X126660145Y-83195679D01*
X126556929Y-83235741D01*
X126471307Y-83270259D01*
X126412888Y-83295622D01*
X126391279Y-83308217D01*
X125980682Y-83308217D01*
X125985174Y-83173230D01*
X126846609Y-82840020D01*
X127111540Y-82737542D01*
X127708043Y-82506810D01*
X127730486Y-82366041D01*
X127752929Y-82225271D01*
X127941860Y-82225271D01*
X127941860Y-83089677D01*
G37*
G36*
X126821865Y-69444839D02*
G01*
X127097077Y-69474194D01*
X127334405Y-69534756D01*
X127534149Y-69626730D01*
X127696606Y-69750322D01*
X127822075Y-69905739D01*
X127910857Y-70093185D01*
X127963249Y-70312868D01*
X127972521Y-70408003D01*
X127976817Y-70536914D01*
X127973441Y-70657442D01*
X127956282Y-70806492D01*
X127900657Y-71025210D01*
X127810327Y-71210463D01*
X127684479Y-71362949D01*
X127522303Y-71483368D01*
X127322987Y-71572418D01*
X127085720Y-71630796D01*
X126809690Y-71659203D01*
X126560055Y-71659608D01*
X126298122Y-71632004D01*
X126066517Y-71575333D01*
X125868271Y-71490628D01*
X125706409Y-71378923D01*
X125583961Y-71241249D01*
X125511238Y-71113197D01*
X125439914Y-70917171D01*
X125401253Y-70706268D01*
X125394939Y-70497965D01*
X125673467Y-70497965D01*
X125674719Y-70635259D01*
X125699592Y-70760503D01*
X125743437Y-70841957D01*
X125821192Y-70931442D01*
X125917616Y-71011636D01*
X126018658Y-71068956D01*
X126103703Y-71098756D01*
X126274111Y-71137071D01*
X126470535Y-71161178D01*
X126679581Y-71170189D01*
X126887857Y-71163218D01*
X127081969Y-71139377D01*
X127260726Y-71096127D01*
X127430068Y-71023632D01*
X127557948Y-70926841D01*
X127645446Y-70805116D01*
X127658754Y-70776512D01*
X127698956Y-70631281D01*
X127702197Y-70480190D01*
X127669501Y-70337092D01*
X127601892Y-70215842D01*
X127576338Y-70186033D01*
X127464193Y-70090925D01*
X127321720Y-70019166D01*
X127145118Y-69969595D01*
X126930586Y-69941050D01*
X126674322Y-69932370D01*
X126444734Y-69940583D01*
X126228902Y-69968122D01*
X126052190Y-70016341D01*
X125911094Y-70086589D01*
X125802109Y-70180213D01*
X125721731Y-70298559D01*
X125694826Y-70369749D01*
X125673467Y-70497965D01*
X125394939Y-70497965D01*
X125394684Y-70489569D01*
X125419636Y-70276151D01*
X125475539Y-70075096D01*
X125561821Y-69895482D01*
X125677913Y-69746389D01*
X125797751Y-69647192D01*
X125969320Y-69555187D01*
X126174853Y-69490835D01*
X126417131Y-69453309D01*
X126674322Y-69442786D01*
X126698934Y-69441779D01*
X126821865Y-69444839D01*
G37*
G36*
X131633721Y-76665840D02*
G01*
X131541424Y-76658201D01*
X131530434Y-76657281D01*
X131482985Y-76650241D01*
X131456310Y-76631379D01*
X131441058Y-76588408D01*
X131427875Y-76509041D01*
X131406622Y-76367520D01*
X130741273Y-76367520D01*
X130754102Y-76481340D01*
X130757231Y-76504317D01*
X130777857Y-76578828D01*
X130817460Y-76644270D01*
X130881690Y-76705232D01*
X130976200Y-76766300D01*
X131106640Y-76832059D01*
X131278660Y-76907097D01*
X131621415Y-77050060D01*
X131628282Y-77373324D01*
X131635150Y-77696589D01*
X131547519Y-77696589D01*
X131520489Y-77696203D01*
X131479205Y-77689001D01*
X131454470Y-77664453D01*
X131438948Y-77612035D01*
X131425305Y-77521221D01*
X131410114Y-77407383D01*
X131190944Y-77316538D01*
X131156145Y-77301728D01*
X131035429Y-77245703D01*
X130918592Y-77185546D01*
X130826742Y-77131955D01*
X130681712Y-77038218D01*
X130634703Y-77125672D01*
X130616562Y-77153792D01*
X130554144Y-77222786D01*
X130479895Y-77281542D01*
X130407461Y-77321207D01*
X130258708Y-77365899D01*
X130111706Y-77363535D01*
X129972237Y-77314676D01*
X129846083Y-77219886D01*
X129801981Y-77173180D01*
X129764150Y-77123607D01*
X129734894Y-77068345D01*
X129713112Y-77001175D01*
X129697705Y-76915879D01*
X129687571Y-76806238D01*
X129681609Y-76666036D01*
X129679896Y-76561100D01*
X129910853Y-76561100D01*
X129911942Y-76637938D01*
X129918808Y-76719273D01*
X129934382Y-76774957D01*
X129961398Y-76818937D01*
X130035733Y-76882697D01*
X130138861Y-76919527D01*
X130251716Y-76921628D01*
X130361073Y-76888936D01*
X130453702Y-76821383D01*
X130483670Y-76783400D01*
X130503912Y-76735610D01*
X130515619Y-76666666D01*
X130522519Y-76562539D01*
X130531375Y-76367520D01*
X129910853Y-76367520D01*
X129910853Y-76561100D01*
X129679896Y-76561100D01*
X129678720Y-76489052D01*
X129677803Y-76269070D01*
X129677035Y-75641454D01*
X129763178Y-75641454D01*
X129773229Y-75641464D01*
X129817638Y-75644615D01*
X129842767Y-75661479D01*
X129857464Y-75703713D01*
X129870575Y-75782975D01*
X129891828Y-75924496D01*
X130531375Y-75924496D01*
X131409193Y-75924496D01*
X131424845Y-75807587D01*
X131432175Y-75754793D01*
X131445830Y-75684174D01*
X131464732Y-75646648D01*
X131496014Y-75631784D01*
X131546805Y-75629147D01*
X131633721Y-75629147D01*
X131633721Y-76665840D01*
G37*
G36*
X127047155Y-75544403D02*
G01*
X127170471Y-75546876D01*
X127262339Y-75552605D01*
X127334025Y-75562896D01*
X127396796Y-75579052D01*
X127461919Y-75602380D01*
X127577957Y-75659882D01*
X127723472Y-75773065D01*
X127838551Y-75914937D01*
X127914324Y-76076209D01*
X127919337Y-76092584D01*
X127953251Y-76258619D01*
X127965090Y-76457223D01*
X127959463Y-76609855D01*
X127922730Y-76825677D01*
X127851404Y-77006920D01*
X127744956Y-77154085D01*
X127602857Y-77267675D01*
X127424578Y-77348190D01*
X127209590Y-77396131D01*
X126957364Y-77412000D01*
X126776947Y-77405856D01*
X126595774Y-77380626D01*
X126444317Y-77333091D01*
X126313558Y-77260262D01*
X126194475Y-77159150D01*
X126129345Y-77089736D01*
X126059074Y-76995419D01*
X126010631Y-76895381D01*
X125980460Y-76778895D01*
X125965007Y-76635231D01*
X125961397Y-76482462D01*
X126198475Y-76482462D01*
X126230117Y-76626282D01*
X126262099Y-76694129D01*
X126337713Y-76788821D01*
X126443588Y-76859258D01*
X126583644Y-76907084D01*
X126761801Y-76933942D01*
X126981977Y-76941474D01*
X127089808Y-76938765D01*
X127275901Y-76920380D01*
X127423049Y-76882836D01*
X127536394Y-76823864D01*
X127621081Y-76741194D01*
X127682256Y-76632557D01*
X127686001Y-76623197D01*
X127710203Y-76538808D01*
X127719808Y-76460607D01*
X127714306Y-76405999D01*
X127680660Y-76298260D01*
X127624947Y-76199338D01*
X127557083Y-76129411D01*
X127490201Y-76086961D01*
X127420565Y-76054084D01*
X127342690Y-76032039D01*
X127246351Y-76018800D01*
X127121318Y-76012342D01*
X126957364Y-76010640D01*
X126939543Y-76010644D01*
X126802264Y-76011352D01*
X126702256Y-76014275D01*
X126628753Y-76020839D01*
X126570988Y-76032474D01*
X126518196Y-76050607D01*
X126459609Y-76076666D01*
X126372918Y-76127388D01*
X126272434Y-76226886D01*
X126213434Y-76347287D01*
X126198475Y-76482462D01*
X125961397Y-76482462D01*
X125960717Y-76453663D01*
X125960859Y-76396187D01*
X125962844Y-76283075D01*
X125968831Y-76200589D01*
X125980914Y-76135495D01*
X126001184Y-76074559D01*
X126031734Y-76004549D01*
X126037333Y-75992631D01*
X126142474Y-75826812D01*
X126281902Y-75696273D01*
X126454808Y-75601785D01*
X126500684Y-75584218D01*
X126560420Y-75566008D01*
X126624820Y-75554158D01*
X126705020Y-75547386D01*
X126812156Y-75544409D01*
X126957364Y-75543948D01*
X127047155Y-75544403D01*
G37*
G36*
X127888836Y-78859525D02*
G01*
X127915302Y-78959949D01*
X127944107Y-79092486D01*
X127963895Y-79210252D01*
X127970888Y-79275578D01*
X127975747Y-79493750D01*
X127955633Y-79712194D01*
X127912193Y-79908679D01*
X127880934Y-79991324D01*
X127789998Y-80136616D01*
X127666681Y-80250701D01*
X127516739Y-80330948D01*
X127345924Y-80374722D01*
X127159991Y-80379390D01*
X126964692Y-80342319D01*
X126879254Y-80309907D01*
X126775332Y-80244098D01*
X126684742Y-80149372D01*
X126603805Y-80020657D01*
X126528845Y-79852880D01*
X126456184Y-79640969D01*
X126420644Y-79533008D01*
X126357115Y-79378291D01*
X126289349Y-79265752D01*
X126213492Y-79190912D01*
X126125691Y-79149293D01*
X126022093Y-79136415D01*
X125899384Y-79155545D01*
X125798831Y-79215813D01*
X125716601Y-79320380D01*
X125708598Y-79335946D01*
X125682685Y-79428743D01*
X125670480Y-79557070D01*
X125672456Y-79711277D01*
X125689085Y-79881712D01*
X125694150Y-79919489D01*
X125703454Y-79966516D01*
X125721865Y-79996019D01*
X125759187Y-80014713D01*
X125825229Y-80029312D01*
X125929797Y-80046530D01*
X125967318Y-80053268D01*
X126005330Y-80068989D01*
X126019798Y-80103194D01*
X126022093Y-80171251D01*
X126022093Y-80280892D01*
X125533662Y-80280892D01*
X125508526Y-80200901D01*
X125447721Y-79974774D01*
X125405879Y-79722789D01*
X125395597Y-79489882D01*
X125416168Y-79279700D01*
X125466881Y-79095888D01*
X125547029Y-78942094D01*
X125655901Y-78821964D01*
X125792789Y-78739144D01*
X125919085Y-78700972D01*
X126088392Y-78686205D01*
X126257230Y-78706795D01*
X126412694Y-78760891D01*
X126541883Y-78846641D01*
X126565269Y-78868755D01*
X126626119Y-78938514D01*
X126682131Y-79024875D01*
X126737372Y-79135657D01*
X126795908Y-79278679D01*
X126861806Y-79461762D01*
X126900720Y-79570697D01*
X126940938Y-79675683D01*
X126975189Y-79757490D01*
X126998760Y-79804329D01*
X127051363Y-79862617D01*
X127153957Y-79917286D01*
X127282640Y-79936318D01*
X127286684Y-79936300D01*
X127421770Y-79912538D01*
X127534809Y-79845331D01*
X127621899Y-79736971D01*
X127632844Y-79717276D01*
X127655786Y-79668762D01*
X127670480Y-79617798D01*
X127678686Y-79552696D01*
X127682165Y-79461765D01*
X127682675Y-79333314D01*
X127682011Y-79235939D01*
X127677569Y-79114759D01*
X127665512Y-79030604D01*
X127641889Y-78975964D01*
X127602749Y-78943327D01*
X127544140Y-78925181D01*
X127462112Y-78914016D01*
X127301938Y-78896862D01*
X127301938Y-78681085D01*
X127836240Y-78681085D01*
X127888836Y-78859525D01*
G37*
G36*
X129243535Y-64898286D02*
G01*
X129295503Y-64904774D01*
X129319723Y-64930947D01*
X129332764Y-64990436D01*
X129334034Y-64998280D01*
X129347302Y-65075943D01*
X129358961Y-65138111D01*
X129370318Y-65193489D01*
X130186596Y-65193489D01*
X130231224Y-65193498D01*
X130453875Y-65193949D01*
X130634163Y-65195262D01*
X130777906Y-65197689D01*
X130890925Y-65201483D01*
X130979039Y-65206896D01*
X131048068Y-65214180D01*
X131103832Y-65223588D01*
X131152149Y-65235372D01*
X131268206Y-65281017D01*
X131405526Y-65379682D01*
X131516715Y-65519063D01*
X131600994Y-65698113D01*
X131657583Y-65915781D01*
X131667809Y-66002353D01*
X131671353Y-66150980D01*
X131663307Y-66313821D01*
X131644809Y-66471541D01*
X131617000Y-66604807D01*
X131597790Y-66663837D01*
X131543238Y-66771136D01*
X131457514Y-66879042D01*
X131450176Y-66887072D01*
X131400707Y-66940210D01*
X131355318Y-66983706D01*
X131308678Y-67018572D01*
X131255458Y-67045821D01*
X131190327Y-67066466D01*
X131107954Y-67081522D01*
X131003011Y-67092000D01*
X130870166Y-67098914D01*
X130704089Y-67103278D01*
X130499450Y-67106105D01*
X130250919Y-67108408D01*
X129372671Y-67116080D01*
X129359561Y-67182352D01*
X129358550Y-67187495D01*
X129344845Y-67260585D01*
X129330318Y-67342228D01*
X129326671Y-67362733D01*
X129311999Y-67412354D01*
X129283428Y-67429853D01*
X129224874Y-67428372D01*
X129135562Y-67420911D01*
X129128854Y-66971735D01*
X129122145Y-66522558D01*
X129220035Y-66522558D01*
X129244021Y-66522717D01*
X129295704Y-66529280D01*
X129319783Y-66555488D01*
X129332764Y-66614855D01*
X129333985Y-66622396D01*
X129347392Y-66700675D01*
X129359329Y-66763995D01*
X129371054Y-66820839D01*
X130213192Y-66813220D01*
X131055329Y-66805601D01*
X131169874Y-66738265D01*
X131267617Y-66663232D01*
X131340959Y-66558680D01*
X131383139Y-66424093D01*
X131396984Y-66253439D01*
X131396988Y-66251446D01*
X131392940Y-66145840D01*
X131382041Y-66047170D01*
X131366607Y-65976556D01*
X131328603Y-65902953D01*
X131249915Y-65811077D01*
X131152004Y-65734365D01*
X131050918Y-65687512D01*
X131002571Y-65680400D01*
X130907478Y-65673889D01*
X130771659Y-65668590D01*
X130599489Y-65664633D01*
X130395344Y-65662147D01*
X130163599Y-65661261D01*
X129370318Y-65661124D01*
X129358961Y-65716502D01*
X129357968Y-65721411D01*
X129345856Y-65786819D01*
X129332764Y-65864176D01*
X129329115Y-65885912D01*
X129314509Y-65934201D01*
X129283857Y-65953177D01*
X129220590Y-65956473D01*
X129123256Y-65956473D01*
X129123256Y-64898140D01*
X129220590Y-64898140D01*
X129243535Y-64898286D01*
G37*
G36*
X131356361Y-77894455D02*
G01*
X131450355Y-77899255D01*
X131517654Y-77907165D01*
X131546999Y-77917165D01*
X131548173Y-77919331D01*
X131562493Y-77958856D01*
X131584040Y-78030418D01*
X131608627Y-78120217D01*
X131633794Y-78243443D01*
X131652961Y-78424258D01*
X131656637Y-78611922D01*
X131644646Y-78788639D01*
X131616807Y-78936610D01*
X131566602Y-79063742D01*
X131473916Y-79194675D01*
X131352837Y-79290998D01*
X131209157Y-79346883D01*
X131093595Y-79362328D01*
X130932256Y-79348809D01*
X130787650Y-79294787D01*
X130666804Y-79203256D01*
X130576746Y-79077214D01*
X130560156Y-79040149D01*
X130527606Y-78955476D01*
X130490064Y-78847974D01*
X130452760Y-78732196D01*
X130451827Y-78729171D01*
X130398133Y-78573809D01*
X130344942Y-78462113D01*
X130288210Y-78388833D01*
X130223890Y-78348717D01*
X130147936Y-78336512D01*
X130063893Y-78351149D01*
X129982809Y-78406253D01*
X129926994Y-78498624D01*
X129898637Y-78624354D01*
X129899923Y-78779535D01*
X129904634Y-78826188D01*
X129916024Y-78920233D01*
X129929975Y-78978668D01*
X129951767Y-79011221D01*
X129986679Y-79027618D01*
X130039990Y-79037587D01*
X130113779Y-79049613D01*
X130180053Y-79065292D01*
X130214951Y-79086592D01*
X130228523Y-79120747D01*
X130230814Y-79174992D01*
X130230814Y-79271783D01*
X129996387Y-79271783D01*
X129917159Y-79271838D01*
X129836701Y-79268375D01*
X129781760Y-79254055D01*
X129745076Y-79221444D01*
X129719391Y-79163107D01*
X129697446Y-79071609D01*
X129671981Y-78939516D01*
X129662545Y-78884868D01*
X129644629Y-78685522D01*
X129651588Y-78493683D01*
X129681970Y-78318821D01*
X129734321Y-78170405D01*
X129807190Y-78057902D01*
X129821975Y-78042553D01*
X129931303Y-77966552D01*
X130066572Y-77919843D01*
X130213919Y-77905700D01*
X130359481Y-77927400D01*
X130367976Y-77929925D01*
X130467304Y-77970295D01*
X130551256Y-78029505D01*
X130624090Y-78113561D01*
X130690063Y-78228470D01*
X130753431Y-78380235D01*
X130818453Y-78574864D01*
X130825330Y-78596903D01*
X130873456Y-78732988D01*
X130921041Y-78827620D01*
X130973501Y-78887241D01*
X131036250Y-78918291D01*
X131114703Y-78927209D01*
X131122710Y-78927133D01*
X131222765Y-78908901D01*
X131297532Y-78856624D01*
X131348727Y-78767401D01*
X131378064Y-78638332D01*
X131387261Y-78466517D01*
X131387209Y-78437398D01*
X131385694Y-78316334D01*
X131378792Y-78234245D01*
X131361992Y-78182564D01*
X131330785Y-78152725D01*
X131280661Y-78136161D01*
X131207111Y-78124307D01*
X131055329Y-78102694D01*
X131047761Y-77998091D01*
X131040193Y-77893489D01*
X131286280Y-77893489D01*
X131356361Y-77894455D01*
G37*
%TD*%
D13*
X90690200Y-46990000D02*
X143830200Y-46990000D01*
X143830200Y-104140000D01*
X90690200Y-104140000D01*
X90690200Y-46990000D01*
M02*
