%TF.GenerationSoftware,KiCad,Pcbnew,7.0.7*%
%TF.CreationDate,2023-09-14T15:48:23-04:00*%
%TF.ProjectId,Heater_North_DCT_HSK,48656174-6572-45f4-9e6f-7274685f4443,rev?*%
%TF.SameCoordinates,Original*%
%TF.FileFunction,Copper,L1,Top*%
%TF.FilePolarity,Positive*%
%FSLAX46Y46*%
G04 Gerber Fmt 4.6, Leading zero omitted, Abs format (unit mm)*
G04 Created by KiCad (PCBNEW 7.0.7) date 2023-09-14 15:48:23*
%MOMM*%
%LPD*%
G01*
G04 APERTURE LIST*
%TA.AperFunction,ComponentPad*%
%ADD10R,0.940800X0.940800*%
%TD*%
%TA.AperFunction,ComponentPad*%
%ADD11C,0.940800*%
%TD*%
%TA.AperFunction,ComponentPad*%
%ADD12C,0.890000*%
%TD*%
%TA.AperFunction,ViaPad*%
%ADD13C,0.800000*%
%TD*%
%TA.AperFunction,Conductor*%
%ADD14C,0.508000*%
%TD*%
%TA.AperFunction,Profile*%
%ADD15C,0.100000*%
%TD*%
G04 APERTURE END LIST*
D10*
%TO.P,J2,1,Pin_1*%
%TO.N,/HB2_1*%
X104256840Y-89890600D03*
D11*
%TO.P,J2,2,Pin_2*%
%TO.N,/HB2_2*%
X106817160Y-89890600D03*
%TO.P,J2,3,Pin_3*%
%TO.N,unconnected-(J2-Pin_3-Pad3)*%
X104267000Y-91160600D03*
%TO.P,J2,4,Pin_4*%
%TO.N,unconnected-(J2-Pin_4-Pad4)*%
X106807000Y-91160600D03*
%TO.P,J2,5,Pin_5*%
%TO.N,unconnected-(J2-Pin_5-Pad5)*%
X104267000Y-92430600D03*
%TO.P,J2,6,Pin_6*%
%TO.N,unconnected-(J2-Pin_6-Pad6)*%
X106807000Y-92430600D03*
%TO.P,J2,7,Pin_7*%
%TO.N,/HB2_7*%
X104267000Y-93700600D03*
%TO.P,J2,8,Pin_8*%
%TO.N,/HB2_8*%
X106807000Y-93700600D03*
%TO.P,J2,9,Pin_9*%
%TO.N,unconnected-(J2-Pin_9-Pad9)*%
X104267000Y-94970600D03*
%TO.P,J2,10,Pin_10*%
%TO.N,unconnected-(J2-Pin_10-Pad10)*%
X106807000Y-94970600D03*
%TO.P,J2,11,Pin_11*%
%TO.N,unconnected-(J2-Pin_11-Pad11)*%
X104267000Y-96240600D03*
%TO.P,J2,12,Pin_12*%
%TO.N,unconnected-(J2-Pin_12-Pad12)*%
X106807000Y-96240600D03*
%TO.P,J2,13,Pin_13*%
%TO.N,/HB2_13*%
X104267000Y-97510600D03*
%TO.P,J2,14,Pin_14*%
%TO.N,/HB2_14*%
X106807000Y-97510600D03*
%TO.P,J2,15,Pin_15*%
%TO.N,unconnected-(J2-Pin_15-Pad15)*%
X104267000Y-98780600D03*
%TO.P,J2,16,Pin_16*%
%TO.N,unconnected-(J2-Pin_16-Pad16)*%
X106807000Y-98780600D03*
%TO.P,J2,17,Pin_17*%
%TO.N,unconnected-(J2-Pin_17-Pad17)*%
X104267000Y-100050600D03*
%TO.P,J2,18,Pin_18*%
%TO.N,unconnected-(J2-Pin_18-Pad18)*%
X106807000Y-100050600D03*
%TO.P,J2,19,Pin_19*%
%TO.N,/HB2_19*%
X104267000Y-101320600D03*
%TO.P,J2,20,Pin_20*%
%TO.N,/HB2_20*%
X106807000Y-101320600D03*
%TO.P,J2,21,Pin_21*%
%TO.N,unconnected-(J2-Pin_21-Pad21)*%
X104267000Y-102590600D03*
%TO.P,J2,22,Pin_22*%
%TO.N,unconnected-(J2-Pin_22-Pad22)*%
X106807000Y-102590600D03*
%TO.P,J2,23,Pin_23*%
%TO.N,unconnected-(J2-Pin_23-Pad23)*%
X104267000Y-103860600D03*
%TO.P,J2,24,Pin_24*%
%TO.N,unconnected-(J2-Pin_24-Pad24)*%
X106807000Y-103860600D03*
%TO.P,J2,25,Pin_25*%
%TO.N,unconnected-(J2-Pin_25-Pad25)*%
X104267000Y-105130600D03*
%TO.P,J2,26,Pin_26*%
%TO.N,unconnected-(J2-Pin_26-Pad26)*%
X106807000Y-105130600D03*
%TO.P,J2,27,Pin_27*%
%TO.N,unconnected-(J2-Pin_27-Pad27)*%
X104267000Y-106400600D03*
%TO.P,J2,28,Pin_28*%
%TO.N,unconnected-(J2-Pin_28-Pad28)*%
X106807000Y-106400600D03*
%TO.P,J2,29,Pin_29*%
%TO.N,unconnected-(J2-Pin_29-Pad29)*%
X104267000Y-107670600D03*
%TO.P,J2,30,Pin_30*%
%TO.N,unconnected-(J2-Pin_30-Pad30)*%
X106807000Y-107670600D03*
%TO.P,J2,31,Pin_31*%
%TO.N,unconnected-(J2-Pin_31-Pad31)*%
X104267000Y-108940600D03*
%TO.P,J2,32,Pin_32*%
%TO.N,unconnected-(J2-Pin_32-Pad32)*%
X106807000Y-108940600D03*
%TO.P,J2,33,Pin_33*%
%TO.N,unconnected-(J2-Pin_33-Pad33)*%
X104267000Y-110210600D03*
%TO.P,J2,34,Pin_34*%
%TO.N,unconnected-(J2-Pin_34-Pad34)*%
X106807000Y-110210600D03*
%TD*%
D10*
%TO.P,J3,1,Pin_1*%
%TO.N,/HB1_1*%
X149773640Y-72390000D03*
D11*
%TO.P,J3,2,Pin_2*%
%TO.N,/HB1_2*%
X152333960Y-72390000D03*
%TO.P,J3,3,Pin_3*%
%TO.N,/HB2_1*%
X149783800Y-73660000D03*
%TO.P,J3,4,Pin_4*%
%TO.N,/HB2_2*%
X152323800Y-73660000D03*
%TO.P,J3,5,Pin_5*%
%TO.N,/HB2_7*%
X149783800Y-74930000D03*
%TO.P,J3,6,Pin_6*%
%TO.N,/HB2_8*%
X152323800Y-74930000D03*
%TO.P,J3,7,Pin_7*%
%TO.N,/HB1_7*%
X149783800Y-76200000D03*
%TO.P,J3,8,Pin_8*%
%TO.N,/HB1_8*%
X152323800Y-76200000D03*
%TO.P,J3,9,Pin_9*%
%TO.N,/HB2_13*%
X149783800Y-77470000D03*
%TO.P,J3,10,Pin_10*%
%TO.N,/HB2_14*%
X152323800Y-77470000D03*
%TO.P,J3,11,Pin_11*%
%TO.N,/HB2_19*%
X149783800Y-78740000D03*
%TO.P,J3,12,Pin_12*%
%TO.N,/HB2_20*%
X152323800Y-78740000D03*
%TO.P,J3,13,Pin_13*%
%TO.N,/HB1_13*%
X149783800Y-80010000D03*
%TO.P,J3,14,Pin_14*%
%TO.N,/HB1_14*%
X152323800Y-80010000D03*
%TO.P,J3,15,Pin_15*%
%TO.N,unconnected-(J3-Pin_15-Pad15)*%
X149783800Y-81280000D03*
%TO.P,J3,16,Pin_16*%
%TO.N,unconnected-(J3-Pin_16-Pad16)*%
X152323800Y-81280000D03*
%TO.P,J3,17,Pin_17*%
%TO.N,unconnected-(J3-Pin_17-Pad17)*%
X149783800Y-82550000D03*
%TO.P,J3,18,Pin_18*%
%TO.N,unconnected-(J3-Pin_18-Pad18)*%
X152323800Y-82550000D03*
%TO.P,J3,19,Pin_19*%
%TO.N,/HB1_19*%
X149783800Y-83820000D03*
%TO.P,J3,20,Pin_20*%
%TO.N,/HB1_20*%
X152323800Y-83820000D03*
%TO.P,J3,21,Pin_21*%
%TO.N,unconnected-(J3-Pin_21-Pad21)*%
X149783800Y-85090000D03*
%TO.P,J3,22,Pin_22*%
%TO.N,unconnected-(J3-Pin_22-Pad22)*%
X152323800Y-85090000D03*
%TO.P,J3,23,Pin_23*%
%TO.N,unconnected-(J3-Pin_23-Pad23)*%
X149783800Y-86360000D03*
%TO.P,J3,24,Pin_24*%
%TO.N,unconnected-(J3-Pin_24-Pad24)*%
X152323800Y-86360000D03*
%TO.P,J3,25,Pin_25*%
%TO.N,/HB1_25*%
X149783800Y-87630000D03*
%TO.P,J3,26,Pin_26*%
%TO.N,/HB1_26*%
X152323800Y-87630000D03*
%TO.P,J3,27,Pin_27*%
%TO.N,unconnected-(J3-Pin_27-Pad27)*%
X149783800Y-88900000D03*
%TO.P,J3,28,Pin_28*%
%TO.N,unconnected-(J3-Pin_28-Pad28)*%
X152323800Y-88900000D03*
%TO.P,J3,29,Pin_29*%
%TO.N,unconnected-(J3-Pin_29-Pad29)*%
X149783800Y-90170000D03*
%TO.P,J3,30,Pin_30*%
%TO.N,unconnected-(J3-Pin_30-Pad30)*%
X152323800Y-90170000D03*
%TO.P,J3,31,Pin_31*%
%TO.N,/HB1_31*%
X149783800Y-91440000D03*
%TO.P,J3,32,Pin_32*%
%TO.N,/HB1_32*%
X152323800Y-91440000D03*
%TO.P,J3,33,Pin_33*%
%TO.N,unconnected-(J3-Pin_33-Pad33)*%
X149783800Y-92710000D03*
%TO.P,J3,34,Pin_34*%
%TO.N,unconnected-(J3-Pin_34-Pad34)*%
X152323800Y-92710000D03*
%TD*%
D10*
%TO.P,J1,1,Pin_1*%
%TO.N,/HB1_1*%
X104256840Y-54864000D03*
D11*
%TO.P,J1,2,Pin_2*%
%TO.N,/HB1_2*%
X106817160Y-54864000D03*
%TO.P,J1,3,Pin_3*%
%TO.N,unconnected-(J1-Pin_3-Pad3)*%
X104267000Y-56134000D03*
%TO.P,J1,4,Pin_4*%
%TO.N,unconnected-(J1-Pin_4-Pad4)*%
X106807000Y-56134000D03*
%TO.P,J1,5,Pin_5*%
%TO.N,unconnected-(J1-Pin_5-Pad5)*%
X104267000Y-57404000D03*
%TO.P,J1,6,Pin_6*%
%TO.N,unconnected-(J1-Pin_6-Pad6)*%
X106807000Y-57404000D03*
%TO.P,J1,7,Pin_7*%
%TO.N,/HB1_7*%
X104267000Y-58674000D03*
%TO.P,J1,8,Pin_8*%
%TO.N,/HB1_8*%
X106807000Y-58674000D03*
%TO.P,J1,9,Pin_9*%
%TO.N,unconnected-(J1-Pin_9-Pad9)*%
X104267000Y-59944000D03*
%TO.P,J1,10,Pin_10*%
%TO.N,unconnected-(J1-Pin_10-Pad10)*%
X106807000Y-59944000D03*
%TO.P,J1,11,Pin_11*%
%TO.N,unconnected-(J1-Pin_11-Pad11)*%
X104267000Y-61214000D03*
%TO.P,J1,12,Pin_12*%
%TO.N,unconnected-(J1-Pin_12-Pad12)*%
X106807000Y-61214000D03*
%TO.P,J1,13,Pin_13*%
%TO.N,/HB1_13*%
X104267000Y-62484000D03*
%TO.P,J1,14,Pin_14*%
%TO.N,/HB1_14*%
X106807000Y-62484000D03*
%TO.P,J1,15,Pin_15*%
%TO.N,unconnected-(J1-Pin_15-Pad15)*%
X104267000Y-63754000D03*
%TO.P,J1,16,Pin_16*%
%TO.N,unconnected-(J1-Pin_16-Pad16)*%
X106807000Y-63754000D03*
%TO.P,J1,17,Pin_17*%
%TO.N,unconnected-(J1-Pin_17-Pad17)*%
X104267000Y-65024000D03*
%TO.P,J1,18,Pin_18*%
%TO.N,unconnected-(J1-Pin_18-Pad18)*%
X106807000Y-65024000D03*
%TO.P,J1,19,Pin_19*%
%TO.N,/HB1_19*%
X104267000Y-66294000D03*
%TO.P,J1,20,Pin_20*%
%TO.N,/HB1_20*%
X106807000Y-66294000D03*
%TO.P,J1,21,Pin_21*%
%TO.N,unconnected-(J1-Pin_21-Pad21)*%
X104267000Y-67564000D03*
%TO.P,J1,22,Pin_22*%
%TO.N,unconnected-(J1-Pin_22-Pad22)*%
X106807000Y-67564000D03*
%TO.P,J1,23,Pin_23*%
%TO.N,unconnected-(J1-Pin_23-Pad23)*%
X104267000Y-68834000D03*
%TO.P,J1,24,Pin_24*%
%TO.N,unconnected-(J1-Pin_24-Pad24)*%
X106807000Y-68834000D03*
%TO.P,J1,25,Pin_25*%
%TO.N,/HB1_25*%
X104267000Y-70104000D03*
%TO.P,J1,26,Pin_26*%
%TO.N,/HB1_26*%
X106807000Y-70104000D03*
%TO.P,J1,27,Pin_27*%
%TO.N,unconnected-(J1-Pin_27-Pad27)*%
X104267000Y-71374000D03*
%TO.P,J1,28,Pin_28*%
%TO.N,unconnected-(J1-Pin_28-Pad28)*%
X106807000Y-71374000D03*
%TO.P,J1,29,Pin_29*%
%TO.N,unconnected-(J1-Pin_29-Pad29)*%
X104267000Y-72644000D03*
%TO.P,J1,30,Pin_30*%
%TO.N,unconnected-(J1-Pin_30-Pad30)*%
X106807000Y-72644000D03*
%TO.P,J1,31,Pin_31*%
%TO.N,/HB1_31*%
X104267000Y-73914000D03*
D12*
%TO.P,J1,32,Pin_32*%
%TO.N,/HB1_32*%
X106807000Y-73914000D03*
D11*
%TO.P,J1,33,Pin_33*%
%TO.N,unconnected-(J1-Pin_33-Pad33)*%
X104267000Y-75184000D03*
D12*
%TO.P,J1,34,Pin_34*%
%TO.N,unconnected-(J1-Pin_34-Pad34)*%
X106807000Y-75184000D03*
%TD*%
D13*
%TO.N,/HB1_2*%
X131946916Y-54870084D03*
%TO.N,/HB1_8*%
X137109200Y-55803800D03*
%TO.N,/HB1_13*%
X137002000Y-75005600D03*
%TO.N,/HB1_14*%
X148773400Y-63977000D03*
%TO.N,/HB1_19*%
X135702000Y-79359600D03*
%TO.N,/HB1_20*%
X130402000Y-75717400D03*
%TO.N,/HB1_25*%
X133902000Y-81205600D03*
%TO.N,/HB1_26*%
X128802000Y-77470000D03*
%TO.N,/HB1_31*%
X113257222Y-82905600D03*
X132002000Y-82905600D03*
%TO.N,/HB1_32*%
X149902000Y-97005600D03*
X127602000Y-78005600D03*
%TO.N,/HB2_7*%
X140379200Y-76828400D03*
%TO.N,/HB2_20*%
X145762000Y-98145600D03*
%TD*%
D14*
%TO.N,/HB1_1*%
X149773640Y-72390000D02*
X145389600Y-72390000D01*
X104256840Y-53350160D02*
X104256840Y-54864000D01*
X125653800Y-52654200D02*
X104952800Y-52654200D01*
X104952800Y-52654200D02*
X104256840Y-53350160D01*
X145389600Y-72390000D02*
X125653800Y-52654200D01*
%TO.N,/HB1_2*%
X152333960Y-72007656D02*
X152333960Y-72390000D01*
X148742400Y-69799200D02*
X150125504Y-69799200D01*
X150125504Y-69799200D02*
X152333960Y-72007656D01*
X133813284Y-54870084D02*
X148742400Y-69799200D01*
X131946916Y-54870084D02*
X133813284Y-54870084D01*
%TO.N,/HB1_7*%
X151104600Y-76022200D02*
X151104600Y-71779560D01*
X104419400Y-51714400D02*
X103124000Y-53009800D01*
X127584200Y-51714400D02*
X104419400Y-51714400D01*
X150446240Y-71121200D02*
X146991000Y-71121200D01*
X103124000Y-58196246D02*
X103601754Y-58674000D01*
X150938577Y-76188223D02*
X151104600Y-76022200D01*
X151104600Y-71779560D02*
X150446240Y-71121200D01*
X149864623Y-76188223D02*
X150938577Y-76188223D01*
X146991000Y-71121200D02*
X127584200Y-51714400D01*
X103601754Y-58674000D02*
X104267000Y-58674000D01*
X103124000Y-53009800D02*
X103124000Y-58196246D01*
%TO.N,/HB1_8*%
X137109200Y-55803800D02*
X139124200Y-55803800D01*
X139124200Y-55803800D02*
X153416000Y-70095600D01*
X153416000Y-70095600D02*
X153416000Y-75773046D01*
X152989046Y-76200000D02*
X152323800Y-76200000D01*
X153416000Y-75773046D02*
X152989046Y-76200000D01*
%TO.N,/HB1_13*%
X104960900Y-62484000D02*
X104267000Y-62484000D01*
X106226000Y-53565400D02*
X105613200Y-54178200D01*
X136982200Y-66548000D02*
X123999600Y-53565400D01*
X123999600Y-53565400D02*
X106226000Y-53565400D01*
X105613200Y-61831700D02*
X104960900Y-62484000D01*
X137002000Y-75005600D02*
X136982200Y-74985800D01*
X136982200Y-74985800D02*
X136982200Y-66548000D01*
X105613200Y-54178200D02*
X105613200Y-61831700D01*
%TO.N,/HB1_14*%
X154124000Y-78875046D02*
X152989046Y-80010000D01*
X153993100Y-69196700D02*
X154124000Y-69327600D01*
X154124000Y-69327600D02*
X154124000Y-78875046D01*
X153993100Y-69196700D02*
X154178000Y-69381600D01*
X152989046Y-80010000D02*
X152323800Y-80010000D01*
X148773400Y-63977000D02*
X153993100Y-69196700D01*
%TO.N,/HB1_19*%
X135702000Y-79359600D02*
X135648000Y-79305600D01*
X105537000Y-75185378D02*
X105537000Y-66903600D01*
X135648000Y-79305600D02*
X109657222Y-79305600D01*
X104927400Y-66294000D02*
X104267000Y-66294000D01*
X105537000Y-66903600D02*
X104927400Y-66294000D01*
X109657222Y-79305600D02*
X105537000Y-75185378D01*
%TO.N,/HB1_20*%
X130402000Y-75717400D02*
X130352800Y-75717400D01*
X120929400Y-66294000D02*
X106807000Y-66294000D01*
X130352800Y-75717400D02*
X120929400Y-66294000D01*
%TO.N,/HB1_25*%
X106702000Y-81205600D02*
X103225600Y-77729200D01*
X103225600Y-77729200D02*
X103225600Y-71108100D01*
X133902000Y-81205600D02*
X106702000Y-81205600D01*
X103225600Y-71108100D02*
X104229700Y-70104000D01*
X104229700Y-70104000D02*
X104267000Y-70104000D01*
%TO.N,/HB1_26*%
X121615200Y-70154800D02*
X106857800Y-70154800D01*
X128802000Y-77341600D02*
X121615200Y-70154800D01*
X128802000Y-77470000D02*
X128802000Y-77341600D01*
X106857800Y-70154800D02*
X106807000Y-70104000D01*
%TO.N,/HB1_31*%
X113257222Y-82905600D02*
X132002000Y-82905600D01*
%TO.N,/HB1_32*%
X127602000Y-78005600D02*
X112854400Y-78005600D01*
X112854400Y-78005600D02*
X108762800Y-73914000D01*
X149902000Y-97005600D02*
X153602000Y-93305600D01*
X153602000Y-91805600D02*
X153236400Y-91440000D01*
X108762800Y-73914000D02*
X106807000Y-73914000D01*
X153602000Y-93305600D02*
X153602000Y-91805600D01*
X153236400Y-91440000D02*
X152416400Y-91440000D01*
%TO.N,/HB2_1*%
X107286000Y-84721600D02*
X104256840Y-87750760D01*
X133986000Y-84721600D02*
X107286000Y-84721600D01*
X104256840Y-87750760D02*
X104256840Y-89890600D01*
X149783800Y-73660000D02*
X149733000Y-73609200D01*
X149733000Y-73609200D02*
X145098400Y-73609200D01*
X145098400Y-73609200D02*
X133986000Y-84721600D01*
%TO.N,/HB2_7*%
X133194000Y-84013600D02*
X106706000Y-84013600D01*
X140379200Y-76828400D02*
X133194000Y-84013600D01*
X103174800Y-92645700D02*
X104229700Y-93700600D01*
X104229700Y-93700600D02*
X104267000Y-93700600D01*
X106706000Y-84013600D02*
X103174800Y-87544800D01*
X103174800Y-87544800D02*
X103174800Y-92645700D01*
%TO.N,/HB2_13*%
X105714800Y-87492800D02*
X105714800Y-96100100D01*
X134716400Y-85791200D02*
X107416400Y-85791200D01*
X107416400Y-85791200D02*
X105714800Y-87492800D01*
X104304300Y-97510600D02*
X104267000Y-97510600D01*
X149783800Y-77470000D02*
X143037600Y-77470000D01*
X143037600Y-77470000D02*
X134716400Y-85791200D01*
X105714800Y-96100100D02*
X104304300Y-97510600D01*
%TO.N,/HB2_19*%
X111401507Y-112014000D02*
X103925246Y-112014000D01*
X149783800Y-78740000D02*
X145542000Y-78740000D01*
X103632000Y-101346000D02*
X104297246Y-101346000D01*
X103925246Y-112014000D02*
X102917246Y-111006000D01*
X112268000Y-112014000D02*
X109296200Y-112014000D01*
X102917246Y-102060754D02*
X103632000Y-101346000D01*
X102917246Y-111006000D02*
X102917246Y-102060754D01*
X145542000Y-78740000D02*
X112268000Y-112014000D01*
%TO.N,/HB2_20*%
X151688800Y-78740000D02*
X152323800Y-78740000D01*
X145762000Y-98145600D02*
X151206200Y-92701400D01*
X151206200Y-92701400D02*
X151206200Y-79222600D01*
X151206200Y-79222600D02*
X151688800Y-78740000D01*
%TD*%
D15*
X101600000Y-50800000D02*
X154940000Y-50800000D01*
X154940000Y-114300000D01*
X101600000Y-114300000D01*
X101600000Y-50800000D01*
M02*
