%TF.GenerationSoftware,KiCad,Pcbnew,7.0.7*%
%TF.CreationDate,2023-09-12T10:02:15-04:00*%
%TF.ProjectId,Heater_North_DCT_HSK,48656174-6572-45f4-9e6f-7274685f4443,rev?*%
%TF.SameCoordinates,Original*%
%TF.FileFunction,Legend,Top*%
%TF.FilePolarity,Positive*%
%FSLAX46Y46*%
G04 Gerber Fmt 4.6, Leading zero omitted, Abs format (unit mm)*
G04 Created by KiCad (PCBNEW 7.0.7) date 2023-09-12 10:02:15*
%MOMM*%
%LPD*%
G01*
G04 APERTURE LIST*
%ADD10C,0.254000*%
%ADD11C,0.400000*%
%ADD12C,0.150000*%
%ADD13C,0.127000*%
%ADD14C,0.200000*%
G04 APERTURE END LIST*
D10*
X92590001Y-80030000D02*
G75*
G03*
X92590001Y-80030000I-1J0D01*
G01*
X92500001Y-50700000D02*
G75*
G03*
X92500001Y-50700000I-1J0D01*
G01*
X133560001Y-65400000D02*
G75*
G03*
X133560001Y-65400000I-1J0D01*
G01*
D11*
X129173247Y-84396366D02*
X129173247Y-82967795D01*
X131673247Y-83682081D02*
X129173247Y-83682081D01*
X131673247Y-81777319D02*
X131554200Y-82015414D01*
X131554200Y-82015414D02*
X131435152Y-82134461D01*
X131435152Y-82134461D02*
X131197057Y-82253509D01*
X131197057Y-82253509D02*
X130482771Y-82253509D01*
X130482771Y-82253509D02*
X130244676Y-82134461D01*
X130244676Y-82134461D02*
X130125628Y-82015414D01*
X130125628Y-82015414D02*
X130006580Y-81777319D01*
X130006580Y-81777319D02*
X130006580Y-81420176D01*
X130006580Y-81420176D02*
X130125628Y-81182080D01*
X130125628Y-81182080D02*
X130244676Y-81063033D01*
X130244676Y-81063033D02*
X130482771Y-80943985D01*
X130482771Y-80943985D02*
X131197057Y-80943985D01*
X131197057Y-80943985D02*
X131435152Y-81063033D01*
X131435152Y-81063033D02*
X131554200Y-81182080D01*
X131554200Y-81182080D02*
X131673247Y-81420176D01*
X131673247Y-81420176D02*
X131673247Y-81777319D01*
X131673247Y-77967794D02*
X129173247Y-77967794D01*
X129173247Y-77967794D02*
X129173247Y-77372556D01*
X129173247Y-77372556D02*
X129292295Y-77015413D01*
X129292295Y-77015413D02*
X129530390Y-76777318D01*
X129530390Y-76777318D02*
X129768485Y-76658271D01*
X129768485Y-76658271D02*
X130244676Y-76539223D01*
X130244676Y-76539223D02*
X130601819Y-76539223D01*
X130601819Y-76539223D02*
X131078009Y-76658271D01*
X131078009Y-76658271D02*
X131316104Y-76777318D01*
X131316104Y-76777318D02*
X131554200Y-77015413D01*
X131554200Y-77015413D02*
X131673247Y-77372556D01*
X131673247Y-77372556D02*
X131673247Y-77967794D01*
X131435152Y-74039223D02*
X131554200Y-74158271D01*
X131554200Y-74158271D02*
X131673247Y-74515413D01*
X131673247Y-74515413D02*
X131673247Y-74753509D01*
X131673247Y-74753509D02*
X131554200Y-75110652D01*
X131554200Y-75110652D02*
X131316104Y-75348747D01*
X131316104Y-75348747D02*
X131078009Y-75467794D01*
X131078009Y-75467794D02*
X130601819Y-75586842D01*
X130601819Y-75586842D02*
X130244676Y-75586842D01*
X130244676Y-75586842D02*
X129768485Y-75467794D01*
X129768485Y-75467794D02*
X129530390Y-75348747D01*
X129530390Y-75348747D02*
X129292295Y-75110652D01*
X129292295Y-75110652D02*
X129173247Y-74753509D01*
X129173247Y-74753509D02*
X129173247Y-74515413D01*
X129173247Y-74515413D02*
X129292295Y-74158271D01*
X129292295Y-74158271D02*
X129411342Y-74039223D01*
X129173247Y-73324937D02*
X129173247Y-71896366D01*
X131673247Y-72610652D02*
X129173247Y-72610652D01*
X131673247Y-69158270D02*
X129173247Y-69158270D01*
X130363723Y-69158270D02*
X130363723Y-67729699D01*
X131673247Y-67729699D02*
X129173247Y-67729699D01*
X131554200Y-66658270D02*
X131673247Y-66301127D01*
X131673247Y-66301127D02*
X131673247Y-65705889D01*
X131673247Y-65705889D02*
X131554200Y-65467794D01*
X131554200Y-65467794D02*
X131435152Y-65348746D01*
X131435152Y-65348746D02*
X131197057Y-65229699D01*
X131197057Y-65229699D02*
X130958961Y-65229699D01*
X130958961Y-65229699D02*
X130720866Y-65348746D01*
X130720866Y-65348746D02*
X130601819Y-65467794D01*
X130601819Y-65467794D02*
X130482771Y-65705889D01*
X130482771Y-65705889D02*
X130363723Y-66182080D01*
X130363723Y-66182080D02*
X130244676Y-66420175D01*
X130244676Y-66420175D02*
X130125628Y-66539222D01*
X130125628Y-66539222D02*
X129887533Y-66658270D01*
X129887533Y-66658270D02*
X129649438Y-66658270D01*
X129649438Y-66658270D02*
X129411342Y-66539222D01*
X129411342Y-66539222D02*
X129292295Y-66420175D01*
X129292295Y-66420175D02*
X129173247Y-66182080D01*
X129173247Y-66182080D02*
X129173247Y-65586841D01*
X129173247Y-65586841D02*
X129292295Y-65229699D01*
X131673247Y-64158270D02*
X129173247Y-64158270D01*
X131673247Y-62729699D02*
X130244676Y-63801128D01*
X129173247Y-62729699D02*
X130601819Y-64158270D01*
D12*
X129108199Y-100489295D02*
X129108199Y-99727295D01*
X129108199Y-100090152D02*
X129543628Y-100090152D01*
X129543628Y-100489295D02*
X129543628Y-99727295D01*
X130196771Y-100453010D02*
X130124199Y-100489295D01*
X130124199Y-100489295D02*
X129979057Y-100489295D01*
X129979057Y-100489295D02*
X129906485Y-100453010D01*
X129906485Y-100453010D02*
X129870199Y-100380438D01*
X129870199Y-100380438D02*
X129870199Y-100090152D01*
X129870199Y-100090152D02*
X129906485Y-100017581D01*
X129906485Y-100017581D02*
X129979057Y-99981295D01*
X129979057Y-99981295D02*
X130124199Y-99981295D01*
X130124199Y-99981295D02*
X130196771Y-100017581D01*
X130196771Y-100017581D02*
X130233057Y-100090152D01*
X130233057Y-100090152D02*
X130233057Y-100162724D01*
X130233057Y-100162724D02*
X129870199Y-100235295D01*
X130886200Y-100489295D02*
X130886200Y-100090152D01*
X130886200Y-100090152D02*
X130849914Y-100017581D01*
X130849914Y-100017581D02*
X130777342Y-99981295D01*
X130777342Y-99981295D02*
X130632200Y-99981295D01*
X130632200Y-99981295D02*
X130559628Y-100017581D01*
X130886200Y-100453010D02*
X130813628Y-100489295D01*
X130813628Y-100489295D02*
X130632200Y-100489295D01*
X130632200Y-100489295D02*
X130559628Y-100453010D01*
X130559628Y-100453010D02*
X130523342Y-100380438D01*
X130523342Y-100380438D02*
X130523342Y-100307867D01*
X130523342Y-100307867D02*
X130559628Y-100235295D01*
X130559628Y-100235295D02*
X130632200Y-100199010D01*
X130632200Y-100199010D02*
X130813628Y-100199010D01*
X130813628Y-100199010D02*
X130886200Y-100162724D01*
X131140200Y-99981295D02*
X131430486Y-99981295D01*
X131249057Y-99727295D02*
X131249057Y-100380438D01*
X131249057Y-100380438D02*
X131285343Y-100453010D01*
X131285343Y-100453010D02*
X131357914Y-100489295D01*
X131357914Y-100489295D02*
X131430486Y-100489295D01*
X131974772Y-100453010D02*
X131902200Y-100489295D01*
X131902200Y-100489295D02*
X131757058Y-100489295D01*
X131757058Y-100489295D02*
X131684486Y-100453010D01*
X131684486Y-100453010D02*
X131648200Y-100380438D01*
X131648200Y-100380438D02*
X131648200Y-100090152D01*
X131648200Y-100090152D02*
X131684486Y-100017581D01*
X131684486Y-100017581D02*
X131757058Y-99981295D01*
X131757058Y-99981295D02*
X131902200Y-99981295D01*
X131902200Y-99981295D02*
X131974772Y-100017581D01*
X131974772Y-100017581D02*
X132011058Y-100090152D01*
X132011058Y-100090152D02*
X132011058Y-100162724D01*
X132011058Y-100162724D02*
X131648200Y-100235295D01*
X132337629Y-100489295D02*
X132337629Y-99981295D01*
X132337629Y-100126438D02*
X132373915Y-100053867D01*
X132373915Y-100053867D02*
X132410201Y-100017581D01*
X132410201Y-100017581D02*
X132482772Y-99981295D01*
X132482772Y-99981295D02*
X132555343Y-99981295D01*
X133389914Y-100489295D02*
X133389914Y-99727295D01*
X133389914Y-99727295D02*
X133825343Y-100489295D01*
X133825343Y-100489295D02*
X133825343Y-99727295D01*
X134297057Y-100489295D02*
X134224486Y-100453010D01*
X134224486Y-100453010D02*
X134188200Y-100416724D01*
X134188200Y-100416724D02*
X134151914Y-100344152D01*
X134151914Y-100344152D02*
X134151914Y-100126438D01*
X134151914Y-100126438D02*
X134188200Y-100053867D01*
X134188200Y-100053867D02*
X134224486Y-100017581D01*
X134224486Y-100017581D02*
X134297057Y-99981295D01*
X134297057Y-99981295D02*
X134405914Y-99981295D01*
X134405914Y-99981295D02*
X134478486Y-100017581D01*
X134478486Y-100017581D02*
X134514772Y-100053867D01*
X134514772Y-100053867D02*
X134551057Y-100126438D01*
X134551057Y-100126438D02*
X134551057Y-100344152D01*
X134551057Y-100344152D02*
X134514772Y-100416724D01*
X134514772Y-100416724D02*
X134478486Y-100453010D01*
X134478486Y-100453010D02*
X134405914Y-100489295D01*
X134405914Y-100489295D02*
X134297057Y-100489295D01*
X134877629Y-100489295D02*
X134877629Y-99981295D01*
X134877629Y-100126438D02*
X134913915Y-100053867D01*
X134913915Y-100053867D02*
X134950201Y-100017581D01*
X134950201Y-100017581D02*
X135022772Y-99981295D01*
X135022772Y-99981295D02*
X135095343Y-99981295D01*
X135240486Y-99981295D02*
X135530772Y-99981295D01*
X135349343Y-99727295D02*
X135349343Y-100380438D01*
X135349343Y-100380438D02*
X135385629Y-100453010D01*
X135385629Y-100453010D02*
X135458200Y-100489295D01*
X135458200Y-100489295D02*
X135530772Y-100489295D01*
X135784772Y-100489295D02*
X135784772Y-99727295D01*
X136111344Y-100489295D02*
X136111344Y-100090152D01*
X136111344Y-100090152D02*
X136075058Y-100017581D01*
X136075058Y-100017581D02*
X136002486Y-99981295D01*
X136002486Y-99981295D02*
X135893629Y-99981295D01*
X135893629Y-99981295D02*
X135821058Y-100017581D01*
X135821058Y-100017581D02*
X135784772Y-100053867D01*
X137490201Y-100489295D02*
X137236201Y-100126438D01*
X137054772Y-100489295D02*
X137054772Y-99727295D01*
X137054772Y-99727295D02*
X137345058Y-99727295D01*
X137345058Y-99727295D02*
X137417629Y-99763581D01*
X137417629Y-99763581D02*
X137453915Y-99799867D01*
X137453915Y-99799867D02*
X137490201Y-99872438D01*
X137490201Y-99872438D02*
X137490201Y-99981295D01*
X137490201Y-99981295D02*
X137453915Y-100053867D01*
X137453915Y-100053867D02*
X137417629Y-100090152D01*
X137417629Y-100090152D02*
X137345058Y-100126438D01*
X137345058Y-100126438D02*
X137054772Y-100126438D01*
X138107058Y-100453010D02*
X138034486Y-100489295D01*
X138034486Y-100489295D02*
X137889344Y-100489295D01*
X137889344Y-100489295D02*
X137816772Y-100453010D01*
X137816772Y-100453010D02*
X137780486Y-100380438D01*
X137780486Y-100380438D02*
X137780486Y-100090152D01*
X137780486Y-100090152D02*
X137816772Y-100017581D01*
X137816772Y-100017581D02*
X137889344Y-99981295D01*
X137889344Y-99981295D02*
X138034486Y-99981295D01*
X138034486Y-99981295D02*
X138107058Y-100017581D01*
X138107058Y-100017581D02*
X138143344Y-100090152D01*
X138143344Y-100090152D02*
X138143344Y-100162724D01*
X138143344Y-100162724D02*
X137780486Y-100235295D01*
X138397344Y-99981295D02*
X138578772Y-100489295D01*
X138578772Y-100489295D02*
X138760201Y-99981295D01*
X139885057Y-100090152D02*
X139993914Y-100126438D01*
X139993914Y-100126438D02*
X140030200Y-100162724D01*
X140030200Y-100162724D02*
X140066486Y-100235295D01*
X140066486Y-100235295D02*
X140066486Y-100344152D01*
X140066486Y-100344152D02*
X140030200Y-100416724D01*
X140030200Y-100416724D02*
X139993914Y-100453010D01*
X139993914Y-100453010D02*
X139921343Y-100489295D01*
X139921343Y-100489295D02*
X139631057Y-100489295D01*
X139631057Y-100489295D02*
X139631057Y-99727295D01*
X139631057Y-99727295D02*
X139885057Y-99727295D01*
X139885057Y-99727295D02*
X139957629Y-99763581D01*
X139957629Y-99763581D02*
X139993914Y-99799867D01*
X139993914Y-99799867D02*
X140030200Y-99872438D01*
X140030200Y-99872438D02*
X140030200Y-99945010D01*
X140030200Y-99945010D02*
X139993914Y-100017581D01*
X139993914Y-100017581D02*
X139957629Y-100053867D01*
X139957629Y-100053867D02*
X139885057Y-100090152D01*
X139885057Y-100090152D02*
X139631057Y-100090152D01*
X129180770Y-101716115D02*
X129180770Y-100954115D01*
X129180770Y-100954115D02*
X129362199Y-100954115D01*
X129362199Y-100954115D02*
X129471056Y-100990401D01*
X129471056Y-100990401D02*
X129543627Y-101062972D01*
X129543627Y-101062972D02*
X129579913Y-101135544D01*
X129579913Y-101135544D02*
X129616199Y-101280687D01*
X129616199Y-101280687D02*
X129616199Y-101389544D01*
X129616199Y-101389544D02*
X129579913Y-101534687D01*
X129579913Y-101534687D02*
X129543627Y-101607258D01*
X129543627Y-101607258D02*
X129471056Y-101679830D01*
X129471056Y-101679830D02*
X129362199Y-101716115D01*
X129362199Y-101716115D02*
X129180770Y-101716115D01*
X130233056Y-101679830D02*
X130160484Y-101716115D01*
X130160484Y-101716115D02*
X130015342Y-101716115D01*
X130015342Y-101716115D02*
X129942770Y-101679830D01*
X129942770Y-101679830D02*
X129906484Y-101607258D01*
X129906484Y-101607258D02*
X129906484Y-101316972D01*
X129906484Y-101316972D02*
X129942770Y-101244401D01*
X129942770Y-101244401D02*
X130015342Y-101208115D01*
X130015342Y-101208115D02*
X130160484Y-101208115D01*
X130160484Y-101208115D02*
X130233056Y-101244401D01*
X130233056Y-101244401D02*
X130269342Y-101316972D01*
X130269342Y-101316972D02*
X130269342Y-101389544D01*
X130269342Y-101389544D02*
X129906484Y-101462115D01*
X130595913Y-101208115D02*
X130595913Y-101716115D01*
X130595913Y-101280687D02*
X130632199Y-101244401D01*
X130632199Y-101244401D02*
X130704770Y-101208115D01*
X130704770Y-101208115D02*
X130813627Y-101208115D01*
X130813627Y-101208115D02*
X130886199Y-101244401D01*
X130886199Y-101244401D02*
X130922485Y-101316972D01*
X130922485Y-101316972D02*
X130922485Y-101716115D01*
X131285342Y-101208115D02*
X131285342Y-101716115D01*
X131285342Y-101280687D02*
X131321628Y-101244401D01*
X131321628Y-101244401D02*
X131394199Y-101208115D01*
X131394199Y-101208115D02*
X131503056Y-101208115D01*
X131503056Y-101208115D02*
X131575628Y-101244401D01*
X131575628Y-101244401D02*
X131611914Y-101316972D01*
X131611914Y-101316972D02*
X131611914Y-101716115D01*
X131974771Y-101716115D02*
X131974771Y-101208115D01*
X131974771Y-100954115D02*
X131938485Y-100990401D01*
X131938485Y-100990401D02*
X131974771Y-101026687D01*
X131974771Y-101026687D02*
X132011057Y-100990401D01*
X132011057Y-100990401D02*
X131974771Y-100954115D01*
X131974771Y-100954115D02*
X131974771Y-101026687D01*
X132301342Y-101679830D02*
X132373914Y-101716115D01*
X132373914Y-101716115D02*
X132519057Y-101716115D01*
X132519057Y-101716115D02*
X132591628Y-101679830D01*
X132591628Y-101679830D02*
X132627914Y-101607258D01*
X132627914Y-101607258D02*
X132627914Y-101570972D01*
X132627914Y-101570972D02*
X132591628Y-101498401D01*
X132591628Y-101498401D02*
X132519057Y-101462115D01*
X132519057Y-101462115D02*
X132410200Y-101462115D01*
X132410200Y-101462115D02*
X132337628Y-101425830D01*
X132337628Y-101425830D02*
X132301342Y-101353258D01*
X132301342Y-101353258D02*
X132301342Y-101316972D01*
X132301342Y-101316972D02*
X132337628Y-101244401D01*
X132337628Y-101244401D02*
X132410200Y-101208115D01*
X132410200Y-101208115D02*
X132519057Y-101208115D01*
X132519057Y-101208115D02*
X132591628Y-101244401D01*
X133535056Y-101716115D02*
X133535056Y-100954115D01*
X133535056Y-101316972D02*
X133970485Y-101316972D01*
X133970485Y-101716115D02*
X133970485Y-100954115D01*
X134333342Y-101643544D02*
X134369628Y-101679830D01*
X134369628Y-101679830D02*
X134333342Y-101716115D01*
X134333342Y-101716115D02*
X134297056Y-101679830D01*
X134297056Y-101679830D02*
X134333342Y-101643544D01*
X134333342Y-101643544D02*
X134333342Y-101716115D01*
X135712199Y-101643544D02*
X135675913Y-101679830D01*
X135675913Y-101679830D02*
X135567056Y-101716115D01*
X135567056Y-101716115D02*
X135494484Y-101716115D01*
X135494484Y-101716115D02*
X135385627Y-101679830D01*
X135385627Y-101679830D02*
X135313056Y-101607258D01*
X135313056Y-101607258D02*
X135276770Y-101534687D01*
X135276770Y-101534687D02*
X135240484Y-101389544D01*
X135240484Y-101389544D02*
X135240484Y-101280687D01*
X135240484Y-101280687D02*
X135276770Y-101135544D01*
X135276770Y-101135544D02*
X135313056Y-101062972D01*
X135313056Y-101062972D02*
X135385627Y-100990401D01*
X135385627Y-100990401D02*
X135494484Y-100954115D01*
X135494484Y-100954115D02*
X135567056Y-100954115D01*
X135567056Y-100954115D02*
X135675913Y-100990401D01*
X135675913Y-100990401D02*
X135712199Y-101026687D01*
X136365342Y-101716115D02*
X136365342Y-101316972D01*
X136365342Y-101316972D02*
X136329056Y-101244401D01*
X136329056Y-101244401D02*
X136256484Y-101208115D01*
X136256484Y-101208115D02*
X136111342Y-101208115D01*
X136111342Y-101208115D02*
X136038770Y-101244401D01*
X136365342Y-101679830D02*
X136292770Y-101716115D01*
X136292770Y-101716115D02*
X136111342Y-101716115D01*
X136111342Y-101716115D02*
X136038770Y-101679830D01*
X136038770Y-101679830D02*
X136002484Y-101607258D01*
X136002484Y-101607258D02*
X136002484Y-101534687D01*
X136002484Y-101534687D02*
X136038770Y-101462115D01*
X136038770Y-101462115D02*
X136111342Y-101425830D01*
X136111342Y-101425830D02*
X136292770Y-101425830D01*
X136292770Y-101425830D02*
X136365342Y-101389544D01*
X136837056Y-101716115D02*
X136764485Y-101679830D01*
X136764485Y-101679830D02*
X136728199Y-101607258D01*
X136728199Y-101607258D02*
X136728199Y-100954115D01*
X137453914Y-101716115D02*
X137453914Y-100954115D01*
X137453914Y-101679830D02*
X137381342Y-101716115D01*
X137381342Y-101716115D02*
X137236199Y-101716115D01*
X137236199Y-101716115D02*
X137163628Y-101679830D01*
X137163628Y-101679830D02*
X137127342Y-101643544D01*
X137127342Y-101643544D02*
X137091056Y-101570972D01*
X137091056Y-101570972D02*
X137091056Y-101353258D01*
X137091056Y-101353258D02*
X137127342Y-101280687D01*
X137127342Y-101280687D02*
X137163628Y-101244401D01*
X137163628Y-101244401D02*
X137236199Y-101208115D01*
X137236199Y-101208115D02*
X137381342Y-101208115D01*
X137381342Y-101208115D02*
X137453914Y-101244401D01*
X138107057Y-101679830D02*
X138034485Y-101716115D01*
X138034485Y-101716115D02*
X137889343Y-101716115D01*
X137889343Y-101716115D02*
X137816771Y-101679830D01*
X137816771Y-101679830D02*
X137780485Y-101607258D01*
X137780485Y-101607258D02*
X137780485Y-101316972D01*
X137780485Y-101316972D02*
X137816771Y-101244401D01*
X137816771Y-101244401D02*
X137889343Y-101208115D01*
X137889343Y-101208115D02*
X138034485Y-101208115D01*
X138034485Y-101208115D02*
X138107057Y-101244401D01*
X138107057Y-101244401D02*
X138143343Y-101316972D01*
X138143343Y-101316972D02*
X138143343Y-101389544D01*
X138143343Y-101389544D02*
X137780485Y-101462115D01*
X138469914Y-101716115D02*
X138469914Y-101208115D01*
X138469914Y-101353258D02*
X138506200Y-101280687D01*
X138506200Y-101280687D02*
X138542486Y-101244401D01*
X138542486Y-101244401D02*
X138615057Y-101208115D01*
X138615057Y-101208115D02*
X138687628Y-101208115D01*
X139050485Y-101716115D02*
X138977914Y-101679830D01*
X138977914Y-101679830D02*
X138941628Y-101643544D01*
X138941628Y-101643544D02*
X138905342Y-101570972D01*
X138905342Y-101570972D02*
X138905342Y-101353258D01*
X138905342Y-101353258D02*
X138941628Y-101280687D01*
X138941628Y-101280687D02*
X138977914Y-101244401D01*
X138977914Y-101244401D02*
X139050485Y-101208115D01*
X139050485Y-101208115D02*
X139159342Y-101208115D01*
X139159342Y-101208115D02*
X139231914Y-101244401D01*
X139231914Y-101244401D02*
X139268200Y-101280687D01*
X139268200Y-101280687D02*
X139304485Y-101353258D01*
X139304485Y-101353258D02*
X139304485Y-101570972D01*
X139304485Y-101570972D02*
X139268200Y-101643544D01*
X139268200Y-101643544D02*
X139231914Y-101679830D01*
X139231914Y-101679830D02*
X139159342Y-101716115D01*
X139159342Y-101716115D02*
X139050485Y-101716115D01*
X139631057Y-101208115D02*
X139631057Y-101716115D01*
X139631057Y-101280687D02*
X139667343Y-101244401D01*
X139667343Y-101244401D02*
X139739914Y-101208115D01*
X139739914Y-101208115D02*
X139848771Y-101208115D01*
X139848771Y-101208115D02*
X139921343Y-101244401D01*
X139921343Y-101244401D02*
X139957629Y-101316972D01*
X139957629Y-101316972D02*
X139957629Y-101716115D01*
X131194629Y-102180935D02*
X131267200Y-102180935D01*
X131267200Y-102180935D02*
X131339772Y-102217221D01*
X131339772Y-102217221D02*
X131376058Y-102253507D01*
X131376058Y-102253507D02*
X131412343Y-102326078D01*
X131412343Y-102326078D02*
X131448629Y-102471221D01*
X131448629Y-102471221D02*
X131448629Y-102652650D01*
X131448629Y-102652650D02*
X131412343Y-102797792D01*
X131412343Y-102797792D02*
X131376058Y-102870364D01*
X131376058Y-102870364D02*
X131339772Y-102906650D01*
X131339772Y-102906650D02*
X131267200Y-102942935D01*
X131267200Y-102942935D02*
X131194629Y-102942935D01*
X131194629Y-102942935D02*
X131122058Y-102906650D01*
X131122058Y-102906650D02*
X131085772Y-102870364D01*
X131085772Y-102870364D02*
X131049486Y-102797792D01*
X131049486Y-102797792D02*
X131013200Y-102652650D01*
X131013200Y-102652650D02*
X131013200Y-102471221D01*
X131013200Y-102471221D02*
X131049486Y-102326078D01*
X131049486Y-102326078D02*
X131085772Y-102253507D01*
X131085772Y-102253507D02*
X131122058Y-102217221D01*
X131122058Y-102217221D02*
X131194629Y-102180935D01*
X131811486Y-102942935D02*
X131956629Y-102942935D01*
X131956629Y-102942935D02*
X132029200Y-102906650D01*
X132029200Y-102906650D02*
X132065486Y-102870364D01*
X132065486Y-102870364D02*
X132138057Y-102761507D01*
X132138057Y-102761507D02*
X132174343Y-102616364D01*
X132174343Y-102616364D02*
X132174343Y-102326078D01*
X132174343Y-102326078D02*
X132138057Y-102253507D01*
X132138057Y-102253507D02*
X132101772Y-102217221D01*
X132101772Y-102217221D02*
X132029200Y-102180935D01*
X132029200Y-102180935D02*
X131884057Y-102180935D01*
X131884057Y-102180935D02*
X131811486Y-102217221D01*
X131811486Y-102217221D02*
X131775200Y-102253507D01*
X131775200Y-102253507D02*
X131738914Y-102326078D01*
X131738914Y-102326078D02*
X131738914Y-102507507D01*
X131738914Y-102507507D02*
X131775200Y-102580078D01*
X131775200Y-102580078D02*
X131811486Y-102616364D01*
X131811486Y-102616364D02*
X131884057Y-102652650D01*
X131884057Y-102652650D02*
X132029200Y-102652650D01*
X132029200Y-102652650D02*
X132101772Y-102616364D01*
X132101772Y-102616364D02*
X132138057Y-102580078D01*
X132138057Y-102580078D02*
X132174343Y-102507507D01*
X133045200Y-102144650D02*
X132392057Y-103124364D01*
X133444343Y-102180935D02*
X133516914Y-102180935D01*
X133516914Y-102180935D02*
X133589486Y-102217221D01*
X133589486Y-102217221D02*
X133625772Y-102253507D01*
X133625772Y-102253507D02*
X133662057Y-102326078D01*
X133662057Y-102326078D02*
X133698343Y-102471221D01*
X133698343Y-102471221D02*
X133698343Y-102652650D01*
X133698343Y-102652650D02*
X133662057Y-102797792D01*
X133662057Y-102797792D02*
X133625772Y-102870364D01*
X133625772Y-102870364D02*
X133589486Y-102906650D01*
X133589486Y-102906650D02*
X133516914Y-102942935D01*
X133516914Y-102942935D02*
X133444343Y-102942935D01*
X133444343Y-102942935D02*
X133371772Y-102906650D01*
X133371772Y-102906650D02*
X133335486Y-102870364D01*
X133335486Y-102870364D02*
X133299200Y-102797792D01*
X133299200Y-102797792D02*
X133262914Y-102652650D01*
X133262914Y-102652650D02*
X133262914Y-102471221D01*
X133262914Y-102471221D02*
X133299200Y-102326078D01*
X133299200Y-102326078D02*
X133335486Y-102253507D01*
X133335486Y-102253507D02*
X133371772Y-102217221D01*
X133371772Y-102217221D02*
X133444343Y-102180935D01*
X134061200Y-102942935D02*
X134206343Y-102942935D01*
X134206343Y-102942935D02*
X134278914Y-102906650D01*
X134278914Y-102906650D02*
X134315200Y-102870364D01*
X134315200Y-102870364D02*
X134387771Y-102761507D01*
X134387771Y-102761507D02*
X134424057Y-102616364D01*
X134424057Y-102616364D02*
X134424057Y-102326078D01*
X134424057Y-102326078D02*
X134387771Y-102253507D01*
X134387771Y-102253507D02*
X134351486Y-102217221D01*
X134351486Y-102217221D02*
X134278914Y-102180935D01*
X134278914Y-102180935D02*
X134133771Y-102180935D01*
X134133771Y-102180935D02*
X134061200Y-102217221D01*
X134061200Y-102217221D02*
X134024914Y-102253507D01*
X134024914Y-102253507D02*
X133988628Y-102326078D01*
X133988628Y-102326078D02*
X133988628Y-102507507D01*
X133988628Y-102507507D02*
X134024914Y-102580078D01*
X134024914Y-102580078D02*
X134061200Y-102616364D01*
X134061200Y-102616364D02*
X134133771Y-102652650D01*
X134133771Y-102652650D02*
X134278914Y-102652650D01*
X134278914Y-102652650D02*
X134351486Y-102616364D01*
X134351486Y-102616364D02*
X134387771Y-102580078D01*
X134387771Y-102580078D02*
X134424057Y-102507507D01*
X135294914Y-102144650D02*
X134641771Y-103124364D01*
X135512628Y-102253507D02*
X135548914Y-102217221D01*
X135548914Y-102217221D02*
X135621486Y-102180935D01*
X135621486Y-102180935D02*
X135802914Y-102180935D01*
X135802914Y-102180935D02*
X135875486Y-102217221D01*
X135875486Y-102217221D02*
X135911771Y-102253507D01*
X135911771Y-102253507D02*
X135948057Y-102326078D01*
X135948057Y-102326078D02*
X135948057Y-102398650D01*
X135948057Y-102398650D02*
X135911771Y-102507507D01*
X135911771Y-102507507D02*
X135476343Y-102942935D01*
X135476343Y-102942935D02*
X135948057Y-102942935D01*
X136419771Y-102180935D02*
X136492342Y-102180935D01*
X136492342Y-102180935D02*
X136564914Y-102217221D01*
X136564914Y-102217221D02*
X136601200Y-102253507D01*
X136601200Y-102253507D02*
X136637485Y-102326078D01*
X136637485Y-102326078D02*
X136673771Y-102471221D01*
X136673771Y-102471221D02*
X136673771Y-102652650D01*
X136673771Y-102652650D02*
X136637485Y-102797792D01*
X136637485Y-102797792D02*
X136601200Y-102870364D01*
X136601200Y-102870364D02*
X136564914Y-102906650D01*
X136564914Y-102906650D02*
X136492342Y-102942935D01*
X136492342Y-102942935D02*
X136419771Y-102942935D01*
X136419771Y-102942935D02*
X136347200Y-102906650D01*
X136347200Y-102906650D02*
X136310914Y-102870364D01*
X136310914Y-102870364D02*
X136274628Y-102797792D01*
X136274628Y-102797792D02*
X136238342Y-102652650D01*
X136238342Y-102652650D02*
X136238342Y-102471221D01*
X136238342Y-102471221D02*
X136274628Y-102326078D01*
X136274628Y-102326078D02*
X136310914Y-102253507D01*
X136310914Y-102253507D02*
X136347200Y-102217221D01*
X136347200Y-102217221D02*
X136419771Y-102180935D01*
X136964056Y-102253507D02*
X137000342Y-102217221D01*
X137000342Y-102217221D02*
X137072914Y-102180935D01*
X137072914Y-102180935D02*
X137254342Y-102180935D01*
X137254342Y-102180935D02*
X137326914Y-102217221D01*
X137326914Y-102217221D02*
X137363199Y-102253507D01*
X137363199Y-102253507D02*
X137399485Y-102326078D01*
X137399485Y-102326078D02*
X137399485Y-102398650D01*
X137399485Y-102398650D02*
X137363199Y-102507507D01*
X137363199Y-102507507D02*
X136927771Y-102942935D01*
X136927771Y-102942935D02*
X137399485Y-102942935D01*
X137653485Y-102180935D02*
X138125199Y-102180935D01*
X138125199Y-102180935D02*
X137871199Y-102471221D01*
X137871199Y-102471221D02*
X137980056Y-102471221D01*
X137980056Y-102471221D02*
X138052628Y-102507507D01*
X138052628Y-102507507D02*
X138088913Y-102543792D01*
X138088913Y-102543792D02*
X138125199Y-102616364D01*
X138125199Y-102616364D02*
X138125199Y-102797792D01*
X138125199Y-102797792D02*
X138088913Y-102870364D01*
X138088913Y-102870364D02*
X138052628Y-102906650D01*
X138052628Y-102906650D02*
X137980056Y-102942935D01*
X137980056Y-102942935D02*
X137762342Y-102942935D01*
X137762342Y-102942935D02*
X137689770Y-102906650D01*
X137689770Y-102906650D02*
X137653485Y-102870364D01*
D11*
X101411523Y-83270890D02*
X101411523Y-84104223D01*
X102721047Y-84104223D02*
X100221047Y-84104223D01*
X100221047Y-84104223D02*
X100221047Y-82913747D01*
X102721047Y-81961366D02*
X101054380Y-81961366D01*
X101530571Y-81961366D02*
X101292476Y-81842319D01*
X101292476Y-81842319D02*
X101173428Y-81723271D01*
X101173428Y-81723271D02*
X101054380Y-81485176D01*
X101054380Y-81485176D02*
X101054380Y-81247081D01*
X102721047Y-80056605D02*
X102602000Y-80294700D01*
X102602000Y-80294700D02*
X102482952Y-80413747D01*
X102482952Y-80413747D02*
X102244857Y-80532795D01*
X102244857Y-80532795D02*
X101530571Y-80532795D01*
X101530571Y-80532795D02*
X101292476Y-80413747D01*
X101292476Y-80413747D02*
X101173428Y-80294700D01*
X101173428Y-80294700D02*
X101054380Y-80056605D01*
X101054380Y-80056605D02*
X101054380Y-79699462D01*
X101054380Y-79699462D02*
X101173428Y-79461366D01*
X101173428Y-79461366D02*
X101292476Y-79342319D01*
X101292476Y-79342319D02*
X101530571Y-79223271D01*
X101530571Y-79223271D02*
X102244857Y-79223271D01*
X102244857Y-79223271D02*
X102482952Y-79342319D01*
X102482952Y-79342319D02*
X102602000Y-79461366D01*
X102602000Y-79461366D02*
X102721047Y-79699462D01*
X102721047Y-79699462D02*
X102721047Y-80056605D01*
X102721047Y-78151842D02*
X101054380Y-78151842D01*
X101292476Y-78151842D02*
X101173428Y-78032795D01*
X101173428Y-78032795D02*
X101054380Y-77794700D01*
X101054380Y-77794700D02*
X101054380Y-77437557D01*
X101054380Y-77437557D02*
X101173428Y-77199461D01*
X101173428Y-77199461D02*
X101411523Y-77080414D01*
X101411523Y-77080414D02*
X102721047Y-77080414D01*
X101411523Y-77080414D02*
X101173428Y-76961366D01*
X101173428Y-76961366D02*
X101054380Y-76723271D01*
X101054380Y-76723271D02*
X101054380Y-76366128D01*
X101054380Y-76366128D02*
X101173428Y-76128033D01*
X101173428Y-76128033D02*
X101411523Y-76008985D01*
X101411523Y-76008985D02*
X102721047Y-76008985D01*
X102721047Y-72913747D02*
X100221047Y-72913747D01*
X100221047Y-72913747D02*
X100221047Y-72318509D01*
X100221047Y-72318509D02*
X100340095Y-71961366D01*
X100340095Y-71961366D02*
X100578190Y-71723271D01*
X100578190Y-71723271D02*
X100816285Y-71604224D01*
X100816285Y-71604224D02*
X101292476Y-71485176D01*
X101292476Y-71485176D02*
X101649619Y-71485176D01*
X101649619Y-71485176D02*
X102125809Y-71604224D01*
X102125809Y-71604224D02*
X102363904Y-71723271D01*
X102363904Y-71723271D02*
X102602000Y-71961366D01*
X102602000Y-71961366D02*
X102721047Y-72318509D01*
X102721047Y-72318509D02*
X102721047Y-72913747D01*
X102482952Y-68985176D02*
X102602000Y-69104224D01*
X102602000Y-69104224D02*
X102721047Y-69461366D01*
X102721047Y-69461366D02*
X102721047Y-69699462D01*
X102721047Y-69699462D02*
X102602000Y-70056605D01*
X102602000Y-70056605D02*
X102363904Y-70294700D01*
X102363904Y-70294700D02*
X102125809Y-70413747D01*
X102125809Y-70413747D02*
X101649619Y-70532795D01*
X101649619Y-70532795D02*
X101292476Y-70532795D01*
X101292476Y-70532795D02*
X100816285Y-70413747D01*
X100816285Y-70413747D02*
X100578190Y-70294700D01*
X100578190Y-70294700D02*
X100340095Y-70056605D01*
X100340095Y-70056605D02*
X100221047Y-69699462D01*
X100221047Y-69699462D02*
X100221047Y-69461366D01*
X100221047Y-69461366D02*
X100340095Y-69104224D01*
X100340095Y-69104224D02*
X100459142Y-68985176D01*
X100221047Y-68270890D02*
X100221047Y-66842319D01*
X102721047Y-67556605D02*
X100221047Y-67556605D01*
D12*
X99175219Y-103558933D02*
X99889504Y-103558933D01*
X99889504Y-103558933D02*
X100032361Y-103606552D01*
X100032361Y-103606552D02*
X100127600Y-103701790D01*
X100127600Y-103701790D02*
X100175219Y-103844647D01*
X100175219Y-103844647D02*
X100175219Y-103939885D01*
X99270457Y-103130361D02*
X99222838Y-103082742D01*
X99222838Y-103082742D02*
X99175219Y-102987504D01*
X99175219Y-102987504D02*
X99175219Y-102749409D01*
X99175219Y-102749409D02*
X99222838Y-102654171D01*
X99222838Y-102654171D02*
X99270457Y-102606552D01*
X99270457Y-102606552D02*
X99365695Y-102558933D01*
X99365695Y-102558933D02*
X99460933Y-102558933D01*
X99460933Y-102558933D02*
X99603790Y-102606552D01*
X99603790Y-102606552D02*
X100175219Y-103177980D01*
X100175219Y-103177980D02*
X100175219Y-102558933D01*
X100657819Y-91955714D02*
X99657819Y-91955714D01*
X99657819Y-91955714D02*
X100657819Y-91384286D01*
X100657819Y-91384286D02*
X99657819Y-91384286D01*
X100657819Y-90908095D02*
X99657819Y-90908095D01*
X100134009Y-90908095D02*
X100134009Y-90336667D01*
X100657819Y-90336667D02*
X99657819Y-90336667D01*
X100134009Y-89527143D02*
X100181628Y-89384286D01*
X100181628Y-89384286D02*
X100229247Y-89336667D01*
X100229247Y-89336667D02*
X100324485Y-89289048D01*
X100324485Y-89289048D02*
X100467342Y-89289048D01*
X100467342Y-89289048D02*
X100562580Y-89336667D01*
X100562580Y-89336667D02*
X100610200Y-89384286D01*
X100610200Y-89384286D02*
X100657819Y-89479524D01*
X100657819Y-89479524D02*
X100657819Y-89860476D01*
X100657819Y-89860476D02*
X99657819Y-89860476D01*
X99657819Y-89860476D02*
X99657819Y-89527143D01*
X99657819Y-89527143D02*
X99705438Y-89431905D01*
X99705438Y-89431905D02*
X99753057Y-89384286D01*
X99753057Y-89384286D02*
X99848295Y-89336667D01*
X99848295Y-89336667D02*
X99943533Y-89336667D01*
X99943533Y-89336667D02*
X100038771Y-89384286D01*
X100038771Y-89384286D02*
X100086390Y-89431905D01*
X100086390Y-89431905D02*
X100134009Y-89527143D01*
X100134009Y-89527143D02*
X100134009Y-89860476D01*
X99753057Y-88908095D02*
X99705438Y-88860476D01*
X99705438Y-88860476D02*
X99657819Y-88765238D01*
X99657819Y-88765238D02*
X99657819Y-88527143D01*
X99657819Y-88527143D02*
X99705438Y-88431905D01*
X99705438Y-88431905D02*
X99753057Y-88384286D01*
X99753057Y-88384286D02*
X99848295Y-88336667D01*
X99848295Y-88336667D02*
X99943533Y-88336667D01*
X99943533Y-88336667D02*
X100086390Y-88384286D01*
X100086390Y-88384286D02*
X100657819Y-88955714D01*
X100657819Y-88955714D02*
X100657819Y-88336667D01*
X141081179Y-91098733D02*
X141795464Y-91098733D01*
X141795464Y-91098733D02*
X141938321Y-91146352D01*
X141938321Y-91146352D02*
X142033560Y-91241590D01*
X142033560Y-91241590D02*
X142081179Y-91384447D01*
X142081179Y-91384447D02*
X142081179Y-91479685D01*
X141081179Y-90717780D02*
X141081179Y-90098733D01*
X141081179Y-90098733D02*
X141462131Y-90432066D01*
X141462131Y-90432066D02*
X141462131Y-90289209D01*
X141462131Y-90289209D02*
X141509750Y-90193971D01*
X141509750Y-90193971D02*
X141557369Y-90146352D01*
X141557369Y-90146352D02*
X141652607Y-90098733D01*
X141652607Y-90098733D02*
X141890702Y-90098733D01*
X141890702Y-90098733D02*
X141985940Y-90146352D01*
X141985940Y-90146352D02*
X142033560Y-90193971D01*
X142033560Y-90193971D02*
X142081179Y-90289209D01*
X142081179Y-90289209D02*
X142081179Y-90574923D01*
X142081179Y-90574923D02*
X142033560Y-90670161D01*
X142033560Y-90670161D02*
X141985940Y-90717780D01*
X134461179Y-82495238D02*
X133461179Y-82495238D01*
X133937369Y-82495238D02*
X133937369Y-81923810D01*
X134461179Y-81923810D02*
X133461179Y-81923810D01*
X134413560Y-81066667D02*
X134461179Y-81161905D01*
X134461179Y-81161905D02*
X134461179Y-81352381D01*
X134461179Y-81352381D02*
X134413560Y-81447619D01*
X134413560Y-81447619D02*
X134318321Y-81495238D01*
X134318321Y-81495238D02*
X133937369Y-81495238D01*
X133937369Y-81495238D02*
X133842131Y-81447619D01*
X133842131Y-81447619D02*
X133794512Y-81352381D01*
X133794512Y-81352381D02*
X133794512Y-81161905D01*
X133794512Y-81161905D02*
X133842131Y-81066667D01*
X133842131Y-81066667D02*
X133937369Y-81019048D01*
X133937369Y-81019048D02*
X134032607Y-81019048D01*
X134032607Y-81019048D02*
X134127845Y-81495238D01*
X134461179Y-80161905D02*
X133937369Y-80161905D01*
X133937369Y-80161905D02*
X133842131Y-80209524D01*
X133842131Y-80209524D02*
X133794512Y-80304762D01*
X133794512Y-80304762D02*
X133794512Y-80495238D01*
X133794512Y-80495238D02*
X133842131Y-80590476D01*
X134413560Y-80161905D02*
X134461179Y-80257143D01*
X134461179Y-80257143D02*
X134461179Y-80495238D01*
X134461179Y-80495238D02*
X134413560Y-80590476D01*
X134413560Y-80590476D02*
X134318321Y-80638095D01*
X134318321Y-80638095D02*
X134223083Y-80638095D01*
X134223083Y-80638095D02*
X134127845Y-80590476D01*
X134127845Y-80590476D02*
X134080226Y-80495238D01*
X134080226Y-80495238D02*
X134080226Y-80257143D01*
X134080226Y-80257143D02*
X134032607Y-80161905D01*
X133794512Y-79828571D02*
X133794512Y-79447619D01*
X133461179Y-79685714D02*
X134318321Y-79685714D01*
X134318321Y-79685714D02*
X134413560Y-79638095D01*
X134413560Y-79638095D02*
X134461179Y-79542857D01*
X134461179Y-79542857D02*
X134461179Y-79447619D01*
X134413560Y-78733333D02*
X134461179Y-78828571D01*
X134461179Y-78828571D02*
X134461179Y-79019047D01*
X134461179Y-79019047D02*
X134413560Y-79114285D01*
X134413560Y-79114285D02*
X134318321Y-79161904D01*
X134318321Y-79161904D02*
X133937369Y-79161904D01*
X133937369Y-79161904D02*
X133842131Y-79114285D01*
X133842131Y-79114285D02*
X133794512Y-79019047D01*
X133794512Y-79019047D02*
X133794512Y-78828571D01*
X133794512Y-78828571D02*
X133842131Y-78733333D01*
X133842131Y-78733333D02*
X133937369Y-78685714D01*
X133937369Y-78685714D02*
X134032607Y-78685714D01*
X134032607Y-78685714D02*
X134127845Y-79161904D01*
X134461179Y-78257142D02*
X133794512Y-78257142D01*
X133984988Y-78257142D02*
X133889750Y-78209523D01*
X133889750Y-78209523D02*
X133842131Y-78161904D01*
X133842131Y-78161904D02*
X133794512Y-78066666D01*
X133794512Y-78066666D02*
X133794512Y-77971428D01*
X134461179Y-76876189D02*
X133461179Y-76876189D01*
X133461179Y-76876189D02*
X134461179Y-76304761D01*
X134461179Y-76304761D02*
X133461179Y-76304761D01*
X134461179Y-75685713D02*
X134413560Y-75780951D01*
X134413560Y-75780951D02*
X134365940Y-75828570D01*
X134365940Y-75828570D02*
X134270702Y-75876189D01*
X134270702Y-75876189D02*
X133984988Y-75876189D01*
X133984988Y-75876189D02*
X133889750Y-75828570D01*
X133889750Y-75828570D02*
X133842131Y-75780951D01*
X133842131Y-75780951D02*
X133794512Y-75685713D01*
X133794512Y-75685713D02*
X133794512Y-75542856D01*
X133794512Y-75542856D02*
X133842131Y-75447618D01*
X133842131Y-75447618D02*
X133889750Y-75399999D01*
X133889750Y-75399999D02*
X133984988Y-75352380D01*
X133984988Y-75352380D02*
X134270702Y-75352380D01*
X134270702Y-75352380D02*
X134365940Y-75399999D01*
X134365940Y-75399999D02*
X134413560Y-75447618D01*
X134413560Y-75447618D02*
X134461179Y-75542856D01*
X134461179Y-75542856D02*
X134461179Y-75685713D01*
X134461179Y-74923808D02*
X133794512Y-74923808D01*
X133984988Y-74923808D02*
X133889750Y-74876189D01*
X133889750Y-74876189D02*
X133842131Y-74828570D01*
X133842131Y-74828570D02*
X133794512Y-74733332D01*
X133794512Y-74733332D02*
X133794512Y-74638094D01*
X133794512Y-74447617D02*
X133794512Y-74066665D01*
X133461179Y-74304760D02*
X134318321Y-74304760D01*
X134318321Y-74304760D02*
X134413560Y-74257141D01*
X134413560Y-74257141D02*
X134461179Y-74161903D01*
X134461179Y-74161903D02*
X134461179Y-74066665D01*
X134461179Y-73733331D02*
X133461179Y-73733331D01*
X134461179Y-73304760D02*
X133937369Y-73304760D01*
X133937369Y-73304760D02*
X133842131Y-73352379D01*
X133842131Y-73352379D02*
X133794512Y-73447617D01*
X133794512Y-73447617D02*
X133794512Y-73590474D01*
X133794512Y-73590474D02*
X133842131Y-73685712D01*
X133842131Y-73685712D02*
X133889750Y-73733331D01*
X99175219Y-74348933D02*
X99889504Y-74348933D01*
X99889504Y-74348933D02*
X100032361Y-74396552D01*
X100032361Y-74396552D02*
X100127600Y-74491790D01*
X100127600Y-74491790D02*
X100175219Y-74634647D01*
X100175219Y-74634647D02*
X100175219Y-74729885D01*
X100175219Y-73348933D02*
X100175219Y-73920361D01*
X100175219Y-73634647D02*
X99175219Y-73634647D01*
X99175219Y-73634647D02*
X99318076Y-73729885D01*
X99318076Y-73729885D02*
X99413314Y-73825123D01*
X99413314Y-73825123D02*
X99460933Y-73920361D01*
X100674819Y-62745714D02*
X99674819Y-62745714D01*
X99674819Y-62745714D02*
X100674819Y-62174286D01*
X100674819Y-62174286D02*
X99674819Y-62174286D01*
X100674819Y-61698095D02*
X99674819Y-61698095D01*
X100151009Y-61698095D02*
X100151009Y-61126667D01*
X100674819Y-61126667D02*
X99674819Y-61126667D01*
X100151009Y-60317143D02*
X100198628Y-60174286D01*
X100198628Y-60174286D02*
X100246247Y-60126667D01*
X100246247Y-60126667D02*
X100341485Y-60079048D01*
X100341485Y-60079048D02*
X100484342Y-60079048D01*
X100484342Y-60079048D02*
X100579580Y-60126667D01*
X100579580Y-60126667D02*
X100627200Y-60174286D01*
X100627200Y-60174286D02*
X100674819Y-60269524D01*
X100674819Y-60269524D02*
X100674819Y-60650476D01*
X100674819Y-60650476D02*
X99674819Y-60650476D01*
X99674819Y-60650476D02*
X99674819Y-60317143D01*
X99674819Y-60317143D02*
X99722438Y-60221905D01*
X99722438Y-60221905D02*
X99770057Y-60174286D01*
X99770057Y-60174286D02*
X99865295Y-60126667D01*
X99865295Y-60126667D02*
X99960533Y-60126667D01*
X99960533Y-60126667D02*
X100055771Y-60174286D01*
X100055771Y-60174286D02*
X100103390Y-60221905D01*
X100103390Y-60221905D02*
X100151009Y-60317143D01*
X100151009Y-60317143D02*
X100151009Y-60650476D01*
X100674819Y-59126667D02*
X100674819Y-59698095D01*
X100674819Y-59412381D02*
X99674819Y-59412381D01*
X99674819Y-59412381D02*
X99817676Y-59507619D01*
X99817676Y-59507619D02*
X99912914Y-59602857D01*
X99912914Y-59602857D02*
X99960533Y-59698095D01*
%TO.C,G\u002A\u002A\u002A*%
G36*
X125390488Y-50057031D02*
G01*
X125374593Y-50072926D01*
X125358698Y-50057031D01*
X125374593Y-50041136D01*
X125390488Y-50057031D01*
G37*
G36*
X135702421Y-54470792D02*
G01*
X135722153Y-54491700D01*
X135694948Y-54515597D01*
X135642678Y-54523489D01*
X135582936Y-54512607D01*
X135563204Y-54491700D01*
X135590409Y-54467803D01*
X135642678Y-54459910D01*
X135702421Y-54470792D01*
G37*
G36*
X135157897Y-54978345D02*
G01*
X135197622Y-55000335D01*
X135184192Y-55021967D01*
X135119428Y-55031891D01*
X135104129Y-55032125D01*
X135029845Y-55024264D01*
X134992157Y-55004893D01*
X134990989Y-55000335D01*
X135018569Y-54977844D01*
X135084482Y-54968546D01*
X135157897Y-54978345D01*
G37*
G36*
X135393986Y-55106628D02*
G01*
X135398437Y-55145958D01*
X135389121Y-55188678D01*
X135353635Y-55235516D01*
X135301669Y-55253962D01*
X135257903Y-55240685D01*
X135245307Y-55208087D01*
X135267665Y-55164304D01*
X135317756Y-55122882D01*
X135370099Y-55101208D01*
X135393986Y-55106628D01*
G37*
G36*
X135553295Y-53852496D02*
G01*
X135587046Y-53879747D01*
X135571245Y-53908574D01*
X135496834Y-53919359D01*
X135483730Y-53919484D01*
X135402060Y-53910822D01*
X135379286Y-53884229D01*
X135380413Y-53879747D01*
X135418332Y-53850893D01*
X135483730Y-53840010D01*
X135553295Y-53852496D01*
G37*
G36*
X135529505Y-54681214D02*
G01*
X135519458Y-54750166D01*
X135491771Y-54847539D01*
X135456473Y-54887378D01*
X135409391Y-54876351D01*
X135381465Y-54827536D01*
X135377867Y-54758463D01*
X135401321Y-54685971D01*
X135458655Y-54656687D01*
X135464422Y-54655791D01*
X135514645Y-54654309D01*
X135529505Y-54681214D01*
G37*
G36*
X127172235Y-58196683D02*
G01*
X127240126Y-58240161D01*
X127266083Y-58258784D01*
X127323180Y-58309598D01*
X127328899Y-58334401D01*
X127290951Y-58330648D01*
X127217045Y-58295798D01*
X127194556Y-58282364D01*
X127129802Y-58232943D01*
X127106477Y-58195080D01*
X127130911Y-58179330D01*
X127132748Y-58179309D01*
X127172235Y-58196683D01*
G37*
G36*
X127353600Y-56200369D02*
G01*
X127395857Y-56245022D01*
X127415764Y-56302189D01*
X127411837Y-56327505D01*
X127364273Y-56344260D01*
X127280749Y-56352324D01*
X127188510Y-56349910D01*
X127150112Y-56344687D01*
X127091032Y-56315310D01*
X127063400Y-56268470D01*
X127072057Y-56225092D01*
X127118057Y-56206155D01*
X127203702Y-56200174D01*
X127274070Y-56192425D01*
X127353600Y-56200369D01*
G37*
G36*
X127506939Y-50743660D02*
G01*
X127572931Y-50763428D01*
X127587832Y-50777445D01*
X127609876Y-50823155D01*
X127598186Y-50850334D01*
X127543493Y-50863604D01*
X127436529Y-50867582D01*
X127406805Y-50867670D01*
X127294356Y-50865597D01*
X127232600Y-50856986D01*
X127208719Y-50838250D01*
X127208529Y-50812173D01*
X127244012Y-50776962D01*
X127320337Y-50752455D01*
X127415361Y-50740679D01*
X127506939Y-50743660D01*
G37*
G36*
X132343049Y-56013872D02*
G01*
X132415587Y-56021707D01*
X132438538Y-56029528D01*
X132425610Y-56043174D01*
X132367269Y-56049364D01*
X132361713Y-56049397D01*
X132253875Y-56056197D01*
X132169531Y-56068494D01*
X132092071Y-56071958D01*
X132052417Y-56052599D01*
X132040488Y-56032082D01*
X132045061Y-56020398D01*
X132078765Y-56014829D01*
X132154227Y-56012652D01*
X132242501Y-56011646D01*
X132343049Y-56013872D01*
G37*
G36*
X126818993Y-55305186D02*
G01*
X126821026Y-55345278D01*
X126816068Y-55397290D01*
X126790148Y-55423852D01*
X126726694Y-55434978D01*
X126667158Y-55438260D01*
X126573072Y-55438182D01*
X126507524Y-55430432D01*
X126492314Y-55423980D01*
X126474300Y-55377446D01*
X126471339Y-55344724D01*
X126492132Y-55298957D01*
X126558761Y-55284253D01*
X126662244Y-55278001D01*
X126733604Y-55270527D01*
X126796778Y-55270370D01*
X126818993Y-55305186D01*
G37*
G36*
X130723088Y-58743140D02*
G01*
X130741437Y-58768280D01*
X130707092Y-58811408D01*
X130648032Y-58858065D01*
X130565799Y-58896365D01*
X130448217Y-58925164D01*
X130384094Y-58933561D01*
X130200585Y-58950201D01*
X130215165Y-58850862D01*
X130230951Y-58780800D01*
X130249168Y-58747442D01*
X130249979Y-58747194D01*
X130289363Y-58744054D01*
X130375214Y-58739678D01*
X130490452Y-58734916D01*
X130514538Y-58734028D01*
X130648603Y-58732790D01*
X130723088Y-58743140D01*
G37*
G36*
X130961412Y-50280455D02*
G01*
X131042800Y-50331701D01*
X131088161Y-50427732D01*
X131100263Y-50491782D01*
X131107048Y-50591041D01*
X131088260Y-50659959D01*
X131044631Y-50719827D01*
X130945535Y-50794504D01*
X130857033Y-50824137D01*
X130774523Y-50828055D01*
X130707610Y-50800863D01*
X130642453Y-50746730D01*
X130561665Y-50636778D01*
X130536452Y-50521623D01*
X130561681Y-50414251D01*
X130632218Y-50327645D01*
X130742930Y-50274790D01*
X130833036Y-50264676D01*
X130961412Y-50280455D01*
G37*
G36*
X134478579Y-51994388D02*
G01*
X134500094Y-52086724D01*
X134512738Y-52154316D01*
X134514143Y-52169231D01*
X134483299Y-52186118D01*
X134394156Y-52197414D01*
X134251789Y-52202570D01*
X134202839Y-52202839D01*
X133891535Y-52202839D01*
X133853152Y-52059329D01*
X133830167Y-51967111D01*
X133816458Y-51899982D01*
X133814768Y-51884485D01*
X133844817Y-51870160D01*
X133928121Y-51859621D01*
X134054415Y-51853892D01*
X134128892Y-51853152D01*
X134443015Y-51853152D01*
X134478579Y-51994388D01*
G37*
G36*
X125853316Y-49489185D02*
G01*
X125814382Y-49539533D01*
X125799419Y-49556343D01*
X125729521Y-49632751D01*
X125643227Y-49726878D01*
X125602786Y-49770924D01*
X125533252Y-49853005D01*
X125482683Y-49924418D01*
X125467873Y-49953715D01*
X125440159Y-49995918D01*
X125406483Y-50011479D01*
X125390488Y-49990079D01*
X125411054Y-49947123D01*
X125465227Y-49872974D01*
X125541720Y-49780194D01*
X125629246Y-49681345D01*
X125716518Y-49588990D01*
X125792250Y-49515693D01*
X125845152Y-49474016D01*
X125858725Y-49468921D01*
X125853316Y-49489185D01*
G37*
G36*
X131505459Y-58711308D02*
G01*
X131512420Y-58735929D01*
X131473628Y-58761406D01*
X131406226Y-58779278D01*
X131360562Y-58782827D01*
X131282236Y-58791120D01*
X131171771Y-58811946D01*
X131091618Y-58830999D01*
X130977947Y-58857264D01*
X130878389Y-58874583D01*
X130831462Y-58878683D01*
X130754379Y-58878683D01*
X130835208Y-58815104D01*
X130933617Y-58766926D01*
X131038181Y-58749629D01*
X131146529Y-58742900D01*
X131273936Y-58728235D01*
X131319274Y-58721334D01*
X131415751Y-58709144D01*
X131485958Y-58707265D01*
X131505459Y-58711308D01*
G37*
G36*
X130729866Y-50995448D02*
G01*
X130739831Y-51042727D01*
X130750126Y-51140963D01*
X130759763Y-51277545D01*
X130767753Y-51439864D01*
X130770338Y-51511412D01*
X130785485Y-51980310D01*
X130639113Y-51977443D01*
X130522693Y-51968814D01*
X130413494Y-51950870D01*
X130389424Y-51944745D01*
X130319897Y-51918459D01*
X130291980Y-51881978D01*
X130301967Y-51819550D01*
X130339095Y-51730797D01*
X130450200Y-51489181D01*
X130538683Y-51301162D01*
X130607088Y-51161952D01*
X130657960Y-51066761D01*
X130693844Y-51010802D01*
X130717285Y-50989285D01*
X130729866Y-50995448D01*
G37*
G36*
X134301833Y-51320673D02*
G01*
X134341969Y-51481945D01*
X134363525Y-51591316D01*
X134360739Y-51659159D01*
X134327851Y-51695846D01*
X134259098Y-51711751D01*
X134148720Y-51717245D01*
X134080480Y-51719192D01*
X133789871Y-51728287D01*
X133735612Y-51480769D01*
X133706598Y-51360388D01*
X133678456Y-51263753D01*
X133656360Y-51208186D01*
X133652691Y-51203051D01*
X133625304Y-51145030D01*
X133624030Y-51131524D01*
X133641014Y-51111320D01*
X133697558Y-51098451D01*
X133802054Y-51091799D01*
X133934221Y-51090198D01*
X134244413Y-51090198D01*
X134301833Y-51320673D01*
G37*
G36*
X130281903Y-50585861D02*
G01*
X130366581Y-50594040D01*
X130392180Y-50602862D01*
X130374714Y-50623623D01*
X130304892Y-50660832D01*
X130190745Y-50711048D01*
X130040306Y-50770829D01*
X129861606Y-50836731D01*
X129777472Y-50866304D01*
X129640854Y-50915174D01*
X129494835Y-50969660D01*
X129435002Y-50992792D01*
X129267375Y-51058704D01*
X129232720Y-50971134D01*
X129205759Y-50880300D01*
X129184502Y-50770780D01*
X129182202Y-50753519D01*
X129166339Y-50623474D01*
X129527537Y-50602662D01*
X129762377Y-50591031D01*
X129971750Y-50584355D01*
X130147609Y-50582632D01*
X130281903Y-50585861D01*
G37*
G36*
X130568231Y-50954002D02*
G01*
X130551846Y-51012664D01*
X130510417Y-51105899D01*
X130506474Y-51114040D01*
X130451085Y-51228811D01*
X130381079Y-51375110D01*
X130308889Y-51526925D01*
X130286144Y-51574991D01*
X130209472Y-51725878D01*
X130149718Y-51817674D01*
X130105656Y-51852224D01*
X130101201Y-51852609D01*
X130045574Y-51836868D01*
X129958494Y-51796856D01*
X129889055Y-51758696D01*
X129730425Y-51665324D01*
X129987790Y-51417498D01*
X130178982Y-51235185D01*
X130328753Y-51097026D01*
X130439835Y-51001425D01*
X130514955Y-50946786D01*
X130556844Y-50931510D01*
X130568231Y-50954002D01*
G37*
G36*
X129974378Y-58729173D02*
G01*
X130022975Y-58761518D01*
X130031790Y-58780414D01*
X130008708Y-58824704D01*
X130001388Y-58830141D01*
X129984070Y-58871496D01*
X129988895Y-58895596D01*
X129987585Y-58922156D01*
X129950033Y-58936308D01*
X129864721Y-58941178D01*
X129820610Y-58941264D01*
X129709705Y-58936820D01*
X129641818Y-58920634D01*
X129596601Y-58886185D01*
X129578786Y-58863757D01*
X129531415Y-58785769D01*
X129533106Y-58740997D01*
X129588413Y-58722841D01*
X129675839Y-58723125D01*
X129771892Y-58724430D01*
X129841547Y-58718508D01*
X129858630Y-58713319D01*
X129909499Y-58709195D01*
X129974378Y-58729173D01*
G37*
G36*
X130940424Y-50997561D02*
G01*
X130968229Y-51046396D01*
X131012713Y-51138099D01*
X131068010Y-51259074D01*
X131128252Y-51395727D01*
X131187573Y-51534461D01*
X131240106Y-51661682D01*
X131279983Y-51763794D01*
X131301338Y-51827201D01*
X131303379Y-51838623D01*
X131295764Y-51861704D01*
X131265314Y-51880599D01*
X131200624Y-51899062D01*
X131090289Y-51920847D01*
X131011747Y-51934622D01*
X130894959Y-51954687D01*
X130884588Y-51689339D01*
X130880433Y-51503633D01*
X130882360Y-51333549D01*
X130889628Y-51188276D01*
X130901494Y-51077005D01*
X130917217Y-51008926D01*
X130936055Y-50993229D01*
X130940424Y-50997561D01*
G37*
G36*
X131036254Y-48409149D02*
G01*
X131117675Y-48523075D01*
X131177055Y-48618686D01*
X131206313Y-48682610D01*
X131208010Y-48693376D01*
X131179014Y-48700535D01*
X131102473Y-48700921D01*
X130994058Y-48694551D01*
X130977534Y-48693148D01*
X130789359Y-48687950D01*
X130570028Y-48699447D01*
X130349043Y-48725282D01*
X130182791Y-48756560D01*
X130126144Y-48765120D01*
X130100726Y-48744757D01*
X130092997Y-48680147D01*
X130092210Y-48654041D01*
X130088675Y-48538279D01*
X130084451Y-48426757D01*
X130084263Y-48422460D01*
X130079474Y-48313796D01*
X130511723Y-48300485D01*
X130943972Y-48287173D01*
X131036254Y-48409149D01*
G37*
G36*
X135143106Y-51921181D02*
G01*
X135264768Y-51931579D01*
X135323670Y-51951461D01*
X135319872Y-51980848D01*
X135253431Y-52019764D01*
X135235737Y-52027401D01*
X135158737Y-52074226D01*
X135112192Y-52129654D01*
X135109266Y-52137999D01*
X135094103Y-52171273D01*
X135060810Y-52190781D01*
X134995244Y-52200094D01*
X134883264Y-52202782D01*
X134852405Y-52202839D01*
X134612500Y-52202839D01*
X134579973Y-52085035D01*
X134563310Y-51992287D01*
X134579067Y-51947755D01*
X134580568Y-51946762D01*
X134624353Y-51937871D01*
X134717091Y-51929724D01*
X134844155Y-51923346D01*
X134958628Y-51920244D01*
X135143106Y-51921181D01*
G37*
G36*
X132486959Y-58181187D02*
G01*
X132619785Y-58186340D01*
X132715533Y-58194047D01*
X132762729Y-58203585D01*
X132765707Y-58206791D01*
X132739000Y-58232054D01*
X132667721Y-58275861D01*
X132565134Y-58330346D01*
X132519337Y-58352871D01*
X132403006Y-58406745D01*
X132309029Y-58441979D01*
X132216526Y-58463178D01*
X132104622Y-58474947D01*
X131952437Y-58481892D01*
X131931227Y-58482595D01*
X131792498Y-58485670D01*
X131680848Y-58485402D01*
X131609239Y-58481999D01*
X131589487Y-58477078D01*
X131610961Y-58448550D01*
X131667080Y-58390284D01*
X131740420Y-58319872D01*
X131891353Y-58179309D01*
X132328530Y-58179309D01*
X132486959Y-58181187D01*
G37*
G36*
X131329039Y-50783469D02*
G01*
X131437329Y-50819701D01*
X131599292Y-50887714D01*
X131748436Y-50955015D01*
X131895318Y-51022480D01*
X132019281Y-51079542D01*
X132109248Y-51121094D01*
X132154143Y-51142030D01*
X132156295Y-51143072D01*
X132151836Y-51171405D01*
X132116965Y-51231232D01*
X132063692Y-51306693D01*
X132004032Y-51381927D01*
X131949995Y-51441074D01*
X131913595Y-51468274D01*
X131909790Y-51468544D01*
X131882029Y-51446240D01*
X131817461Y-51386765D01*
X131724264Y-51297879D01*
X131610619Y-51187338D01*
X131541802Y-51119567D01*
X131403534Y-50979521D01*
X131311670Y-50877046D01*
X131267664Y-50810984D01*
X131272969Y-50780178D01*
X131329039Y-50783469D01*
G37*
G36*
X132320984Y-50072869D02*
G01*
X132323576Y-50076571D01*
X132339656Y-50132183D01*
X132349972Y-50225654D01*
X132351954Y-50287507D01*
X132352441Y-50454403D01*
X132090175Y-50454594D01*
X131920389Y-50457567D01*
X131729235Y-50465171D01*
X131561313Y-50475534D01*
X131429398Y-50484088D01*
X131350245Y-50483950D01*
X131313514Y-50474192D01*
X131308864Y-50453883D01*
X131309189Y-50452868D01*
X131343228Y-50423321D01*
X131423409Y-50378405D01*
X131536361Y-50325122D01*
X131623470Y-50288326D01*
X131762072Y-50231724D01*
X131888515Y-50179015D01*
X131984547Y-50137856D01*
X132018648Y-50122515D01*
X132161587Y-50066165D01*
X132263625Y-50049426D01*
X132320984Y-50072869D01*
G37*
G36*
X128353056Y-48327960D02*
G01*
X128580353Y-48333697D01*
X128392116Y-48511912D01*
X128141930Y-48780835D01*
X127923580Y-49078932D01*
X127855463Y-49190761D01*
X127768677Y-49341762D01*
X127429958Y-49341275D01*
X127286469Y-49338758D01*
X127164857Y-49332337D01*
X127080327Y-49323068D01*
X127050555Y-49314972D01*
X127043210Y-49286761D01*
X127075960Y-49231531D01*
X127152578Y-49143638D01*
X127193609Y-49100878D01*
X127287866Y-49006311D01*
X127372590Y-48924845D01*
X127432357Y-48871227D01*
X127440926Y-48864404D01*
X127489905Y-48826373D01*
X127576441Y-48758312D01*
X127688372Y-48669819D01*
X127813533Y-48570488D01*
X127815133Y-48569216D01*
X128125760Y-48322224D01*
X128353056Y-48327960D01*
G37*
G36*
X129077728Y-54499647D02*
G01*
X129077634Y-54750154D01*
X129078113Y-54988255D01*
X129079102Y-55204221D01*
X129080538Y-55388325D01*
X129082357Y-55530836D01*
X129084498Y-55622027D01*
X129085099Y-55636130D01*
X129093992Y-55810974D01*
X128833518Y-55820178D01*
X128701517Y-55822961D01*
X128618878Y-55818369D01*
X128571587Y-55804090D01*
X128545629Y-55777818D01*
X128542450Y-55772216D01*
X128525316Y-55717162D01*
X128510244Y-55617962D01*
X128497046Y-55471387D01*
X128485533Y-55274207D01*
X128475518Y-55023192D01*
X128466813Y-54715112D01*
X128459229Y-54346738D01*
X128459122Y-54340698D01*
X128444951Y-53538008D01*
X128762101Y-53538008D01*
X129079251Y-53538008D01*
X129077728Y-54499647D01*
G37*
G36*
X129828719Y-48263788D02*
G01*
X129854256Y-48283042D01*
X129859948Y-48334606D01*
X129853761Y-48427807D01*
X129838308Y-48613601D01*
X129824685Y-48747042D01*
X129809694Y-48839157D01*
X129790138Y-48900973D01*
X129762821Y-48943518D01*
X129724545Y-48977819D01*
X129686428Y-49004972D01*
X129594853Y-49064074D01*
X129544519Y-49081570D01*
X129527672Y-49056379D01*
X129536558Y-48987417D01*
X129537255Y-48984128D01*
X129554901Y-48891703D01*
X129575269Y-48771458D01*
X129585459Y-48705968D01*
X129608052Y-48576149D01*
X129635477Y-48446584D01*
X129648084Y-48396018D01*
X129676272Y-48310793D01*
X129710056Y-48271419D01*
X129765406Y-48261016D01*
X129775903Y-48260911D01*
X129828719Y-48263788D01*
G37*
G36*
X132045161Y-49570408D02*
G01*
X132105590Y-49637550D01*
X132155044Y-49705228D01*
X132212384Y-49796071D01*
X132235570Y-49852056D01*
X132229244Y-49888698D01*
X132215108Y-49905986D01*
X132186781Y-49926507D01*
X132132758Y-49954748D01*
X132046899Y-49993292D01*
X131923066Y-50044728D01*
X131755121Y-50111640D01*
X131536923Y-50196614D01*
X131398748Y-50249880D01*
X131300466Y-50284295D01*
X131241397Y-50295169D01*
X131223023Y-50279370D01*
X131246827Y-50233764D01*
X131314292Y-50155218D01*
X131426898Y-50040600D01*
X131557697Y-49913924D01*
X131690398Y-49789940D01*
X131809917Y-49683780D01*
X131907824Y-49602500D01*
X131975690Y-49553156D01*
X132002753Y-49541425D01*
X132045161Y-49570408D01*
G37*
G36*
X131668408Y-57311306D02*
G01*
X131633386Y-57399615D01*
X131580088Y-57520014D01*
X131519373Y-57648081D01*
X131512580Y-57661844D01*
X131459306Y-57771939D01*
X131419097Y-57860055D01*
X131398872Y-57910870D01*
X131397737Y-57916162D01*
X131372954Y-57974528D01*
X131316506Y-58027520D01*
X131248232Y-58063607D01*
X131187969Y-58071259D01*
X131161237Y-58053625D01*
X131163730Y-58009671D01*
X131191082Y-57929629D01*
X131226117Y-57853646D01*
X131280963Y-57737087D01*
X131343030Y-57591731D01*
X131398935Y-57448929D01*
X131399224Y-57448145D01*
X131444460Y-57329337D01*
X131478885Y-57257725D01*
X131512781Y-57220526D01*
X131556427Y-57204957D01*
X131598760Y-57200042D01*
X131710403Y-57190362D01*
X131668408Y-57311306D01*
G37*
G36*
X132686472Y-57198766D02*
G01*
X132780994Y-57201000D01*
X132826774Y-57205219D01*
X132829287Y-57206756D01*
X132809960Y-57272827D01*
X132758310Y-57371979D01*
X132683835Y-57489401D01*
X132596032Y-57610285D01*
X132504398Y-57719821D01*
X132491008Y-57734253D01*
X132397830Y-57838619D01*
X132308676Y-57947486D01*
X132258001Y-58015825D01*
X132232941Y-58045428D01*
X132198007Y-58064968D01*
X132140829Y-58076511D01*
X132049041Y-58082121D01*
X131910272Y-58083862D01*
X131849946Y-58083940D01*
X131488646Y-58083940D01*
X131609094Y-57869359D01*
X131689029Y-57725134D01*
X131777703Y-57562415D01*
X131847490Y-57432250D01*
X131965437Y-57209722D01*
X132397362Y-57200878D01*
X132554748Y-57198672D01*
X132686472Y-57198766D01*
G37*
G36*
X126547035Y-49443354D02*
G01*
X126566708Y-49455264D01*
X126548948Y-49486766D01*
X126500944Y-49557690D01*
X126430612Y-49656605D01*
X126368023Y-49742214D01*
X126217493Y-49951222D01*
X126105285Y-50119633D01*
X126027130Y-50254058D01*
X125995618Y-50319297D01*
X125946794Y-50375769D01*
X125868121Y-50390824D01*
X125800834Y-50380819D01*
X125771983Y-50356685D01*
X125771965Y-50356005D01*
X125790102Y-50310864D01*
X125838998Y-50227476D01*
X125910386Y-50117782D01*
X125995994Y-49993723D01*
X126087554Y-49867242D01*
X126176796Y-49750281D01*
X126255450Y-49654781D01*
X126265180Y-49643765D01*
X126337158Y-49559929D01*
X126388347Y-49494082D01*
X126407466Y-49460974D01*
X126434955Y-49443034D01*
X126487234Y-49437131D01*
X126547035Y-49443354D01*
G37*
G36*
X128925591Y-48330969D02*
G01*
X129169175Y-48340386D01*
X129024747Y-48594703D01*
X128953661Y-48725224D01*
X128890121Y-48851361D01*
X128844779Y-48951653D01*
X128835356Y-48976180D01*
X128780611Y-49123292D01*
X128736352Y-49218816D01*
X128695737Y-49272338D01*
X128651928Y-49293443D01*
X128609044Y-49293311D01*
X128381221Y-49267362D01*
X128213615Y-49254831D01*
X128104313Y-49255652D01*
X128051397Y-49269759D01*
X128047398Y-49274192D01*
X127998671Y-49307619D01*
X127981713Y-49309973D01*
X127964775Y-49292353D01*
X127982618Y-49235176D01*
X128021774Y-49158971D01*
X128108566Y-49019165D01*
X128225583Y-48853840D01*
X128358105Y-48682443D01*
X128491411Y-48524425D01*
X128552219Y-48458128D01*
X128682006Y-48321553D01*
X128925591Y-48330969D01*
G37*
G36*
X130278160Y-55929349D02*
G01*
X131255695Y-55938133D01*
X131251783Y-56065292D01*
X131243229Y-56182449D01*
X131227698Y-56295943D01*
X131226234Y-56303715D01*
X131206394Y-56411686D01*
X131189903Y-56510348D01*
X131177160Y-56592950D01*
X131159075Y-56710042D01*
X131143432Y-56811255D01*
X131122677Y-56921709D01*
X131099846Y-57007294D01*
X131081552Y-57046894D01*
X131033410Y-57062258D01*
X130927599Y-57073519D01*
X130769905Y-57080568D01*
X130566114Y-57083295D01*
X130322010Y-57081590D01*
X130043379Y-57075344D01*
X129872841Y-57069765D01*
X129348310Y-57050774D01*
X129327918Y-56860035D01*
X129319218Y-56748163D01*
X129311671Y-56595130D01*
X129306223Y-56423356D01*
X129304076Y-56294931D01*
X129300626Y-55920566D01*
X130278160Y-55929349D01*
G37*
G36*
X131120202Y-50921951D02*
G01*
X131161883Y-50945180D01*
X131168273Y-50949318D01*
X131217479Y-50982375D01*
X131261716Y-51015638D01*
X131311421Y-51058489D01*
X131377031Y-51120305D01*
X131468985Y-51210467D01*
X131565369Y-51306165D01*
X131658354Y-51403517D01*
X131730780Y-51488582D01*
X131772544Y-51549011D01*
X131778789Y-51567044D01*
X131753506Y-51606661D01*
X131691424Y-51662585D01*
X131611695Y-51720931D01*
X131533474Y-51767813D01*
X131475915Y-51789347D01*
X131471818Y-51789572D01*
X131443562Y-51762948D01*
X131401440Y-51694074D01*
X131366149Y-51622676D01*
X131262415Y-51392687D01*
X131184164Y-51214895D01*
X131129825Y-51083958D01*
X131097829Y-50994537D01*
X131086606Y-50941289D01*
X131094587Y-50918874D01*
X131120202Y-50921951D01*
G37*
G36*
X132258630Y-50594104D02*
G01*
X132317253Y-50614260D01*
X132343157Y-50650623D01*
X132344054Y-50706963D01*
X132327657Y-50787046D01*
X132314669Y-50840087D01*
X132283123Y-50942348D01*
X132242465Y-50999581D01*
X132181497Y-51014580D01*
X132089024Y-50990137D01*
X131955272Y-50929743D01*
X131849467Y-50884405D01*
X131759889Y-50857381D01*
X131708901Y-50854233D01*
X131662905Y-50853682D01*
X131653066Y-50837113D01*
X131626076Y-50807631D01*
X131555484Y-50764462D01*
X131461531Y-50719206D01*
X131366639Y-50675335D01*
X131302741Y-50640504D01*
X131283730Y-50622404D01*
X131318554Y-50616856D01*
X131405955Y-50610367D01*
X131534947Y-50603548D01*
X131694546Y-50597010D01*
X131809322Y-50593204D01*
X132012378Y-50587344D01*
X132159576Y-50586388D01*
X132258630Y-50594104D01*
G37*
G36*
X132546196Y-49400542D02*
G01*
X132613299Y-49473518D01*
X132687619Y-49580495D01*
X132758646Y-49707344D01*
X132851725Y-49893633D01*
X132920276Y-50032041D01*
X132968498Y-50131405D01*
X133000591Y-50200564D01*
X133020758Y-50248354D01*
X133033197Y-50283614D01*
X133034395Y-50287507D01*
X133042369Y-50333468D01*
X133018808Y-50353907D01*
X132949028Y-50358972D01*
X132930894Y-50359034D01*
X132805688Y-50359034D01*
X132784235Y-50197311D01*
X132766729Y-50092928D01*
X132746319Y-50009220D01*
X132736434Y-49982731D01*
X132706336Y-49921739D01*
X132663002Y-49833283D01*
X132648079Y-49802713D01*
X132561022Y-49633941D01*
X132490727Y-49519835D01*
X132455465Y-49475535D01*
X132431017Y-49419138D01*
X132460040Y-49380254D01*
X132495753Y-49373552D01*
X132546196Y-49400542D01*
G37*
G36*
X129038280Y-58688558D02*
G01*
X129166017Y-58691287D01*
X129251158Y-58697468D01*
X129304196Y-58708436D01*
X129335618Y-58725528D01*
X129355917Y-58750077D01*
X129356828Y-58751524D01*
X129403213Y-58801443D01*
X129436302Y-58815104D01*
X129482771Y-58839417D01*
X129515564Y-58878343D01*
X129529548Y-58904602D01*
X129526430Y-58922240D01*
X129496864Y-58932834D01*
X129431502Y-58937965D01*
X129321000Y-58939213D01*
X129161380Y-58938202D01*
X128993607Y-58935835D01*
X128874550Y-58930474D01*
X128789344Y-58919656D01*
X128723128Y-58900919D01*
X128661040Y-58871798D01*
X128619823Y-58848457D01*
X128520221Y-58788989D01*
X128459909Y-58746382D01*
X128443045Y-58717827D01*
X128473786Y-58700514D01*
X128556293Y-58691636D01*
X128694722Y-58688384D01*
X128857459Y-58687945D01*
X129038280Y-58688558D01*
G37*
G36*
X133712651Y-50496644D02*
G01*
X133726110Y-50507996D01*
X133759230Y-50531133D01*
X133805928Y-50547220D01*
X133877200Y-50557480D01*
X133984045Y-50563136D01*
X134137460Y-50565413D01*
X134244619Y-50565667D01*
X134445296Y-50567846D01*
X134595651Y-50574117D01*
X134692865Y-50584077D01*
X134734117Y-50597326D01*
X134716588Y-50613462D01*
X134668895Y-50626039D01*
X134612845Y-50632376D01*
X134505560Y-50639888D01*
X134359356Y-50647880D01*
X134186549Y-50655659D01*
X134052952Y-50660726D01*
X133839781Y-50666922D01*
X133682640Y-50668296D01*
X133574144Y-50664585D01*
X133506908Y-50655528D01*
X133473546Y-50640863D01*
X133472789Y-50640134D01*
X133432101Y-50571520D01*
X133451542Y-50514377D01*
X133527786Y-50476173D01*
X133547747Y-50471797D01*
X133643577Y-50465886D01*
X133712651Y-50496644D01*
G37*
G36*
X131594834Y-49195542D02*
G01*
X131667301Y-49225557D01*
X131726748Y-49260601D01*
X131748187Y-49286130D01*
X131773141Y-49309054D01*
X131782496Y-49309973D01*
X131831288Y-49330400D01*
X131862142Y-49355558D01*
X131877207Y-49381174D01*
X131869143Y-49414911D01*
X131831617Y-49465658D01*
X131758293Y-49542299D01*
X131663848Y-49633719D01*
X131547537Y-49745922D01*
X131435090Y-49856606D01*
X131343030Y-49949410D01*
X131306042Y-49988004D01*
X131212922Y-50079800D01*
X131139381Y-50137352D01*
X131093096Y-50155527D01*
X131080851Y-50138566D01*
X131094936Y-50088837D01*
X131137346Y-49984293D01*
X131208310Y-49824400D01*
X131308061Y-49608626D01*
X131336343Y-49548396D01*
X131388825Y-49434343D01*
X131434478Y-49330695D01*
X131459338Y-49270235D01*
X131495968Y-49207572D01*
X131534678Y-49182814D01*
X131594834Y-49195542D01*
G37*
G36*
X133964507Y-50762675D02*
G01*
X134096396Y-50812973D01*
X134144609Y-50847774D01*
X134199954Y-50891813D01*
X134258420Y-50917015D01*
X134339858Y-50928464D01*
X134464116Y-50931246D01*
X134470454Y-50931249D01*
X134589102Y-50935255D01*
X134671624Y-50946073D01*
X134704753Y-50961905D01*
X134704881Y-50963039D01*
X134675261Y-50978968D01*
X134594971Y-50990502D01*
X134476861Y-50995917D01*
X134458511Y-50996087D01*
X134299989Y-50999096D01*
X134116516Y-51005814D01*
X133946513Y-51014819D01*
X133938908Y-51015314D01*
X133806459Y-51023163D01*
X133721746Y-51023349D01*
X133669084Y-51012697D01*
X133632788Y-50988037D01*
X133597173Y-50946195D01*
X133597169Y-50946189D01*
X133541174Y-50858851D01*
X133538425Y-50801186D01*
X133590192Y-50766248D01*
X133631977Y-50756021D01*
X133803208Y-50742529D01*
X133964507Y-50762675D01*
G37*
G36*
X126260052Y-49543858D02*
G01*
X126172452Y-49647991D01*
X126102834Y-49734548D01*
X126038558Y-49820543D01*
X125966989Y-49922992D01*
X125875490Y-50058910D01*
X125857538Y-50085827D01*
X125779497Y-50203083D01*
X125716109Y-50298624D01*
X125674660Y-50361449D01*
X125662135Y-50380874D01*
X125629450Y-50389877D01*
X125554267Y-50397180D01*
X125457660Y-50402065D01*
X125360704Y-50403814D01*
X125284473Y-50401710D01*
X125250041Y-50395033D01*
X125249965Y-50394919D01*
X125258143Y-50353708D01*
X125301483Y-50274127D01*
X125373142Y-50165530D01*
X125466275Y-50037273D01*
X125574037Y-49898710D01*
X125689585Y-49759198D01*
X125806075Y-49628091D01*
X125828576Y-49604028D01*
X125912608Y-49517515D01*
X125974107Y-49467658D01*
X126033631Y-49444361D01*
X126111738Y-49437529D01*
X126168451Y-49437131D01*
X126350767Y-49437131D01*
X126260052Y-49543858D01*
G37*
G36*
X129475982Y-48300431D02*
G01*
X129482780Y-48305310D01*
X129480638Y-48340486D01*
X129461998Y-48422585D01*
X129430204Y-48538123D01*
X129401509Y-48632967D01*
X129354516Y-48789222D01*
X129310544Y-48946169D01*
X129276376Y-49079163D01*
X129265466Y-49127182D01*
X129226929Y-49309973D01*
X129057144Y-49309973D01*
X128955120Y-49305962D01*
X128902992Y-49291256D01*
X128887425Y-49261843D01*
X128887359Y-49258887D01*
X128906906Y-49222791D01*
X128935044Y-49226099D01*
X128972745Y-49219935D01*
X128982943Y-49182235D01*
X128959874Y-49141215D01*
X128953328Y-49136606D01*
X128951864Y-49101242D01*
X128972276Y-49021050D01*
X129009741Y-48908903D01*
X129059440Y-48777676D01*
X129116551Y-48640244D01*
X129176254Y-48509480D01*
X129221502Y-48420430D01*
X129270045Y-48368926D01*
X129344144Y-48324926D01*
X129420542Y-48298679D01*
X129475982Y-48300431D01*
G37*
G36*
X135156708Y-52438454D02*
G01*
X135213777Y-52488940D01*
X135288546Y-52519698D01*
X135402051Y-52538713D01*
X135428098Y-52541493D01*
X135555209Y-52556929D01*
X135620552Y-52571026D01*
X135625926Y-52583581D01*
X135573131Y-52594390D01*
X135463968Y-52603247D01*
X135300237Y-52609950D01*
X135083737Y-52614293D01*
X134816270Y-52616072D01*
X134770603Y-52616105D01*
X134515253Y-52615952D01*
X134316238Y-52615136D01*
X134166317Y-52613117D01*
X134058244Y-52609359D01*
X133984776Y-52603323D01*
X133938671Y-52594471D01*
X133912684Y-52582267D01*
X133899572Y-52566172D01*
X133893759Y-52551000D01*
X133883489Y-52502245D01*
X133892500Y-52464944D01*
X133928008Y-52437089D01*
X133997230Y-52416672D01*
X134107381Y-52401687D01*
X134265680Y-52390124D01*
X134479341Y-52379977D01*
X134513508Y-52378578D01*
X135084004Y-52355505D01*
X135156708Y-52438454D01*
G37*
G36*
X129470921Y-49364071D02*
G01*
X129542177Y-49423562D01*
X129644425Y-49514637D01*
X129770463Y-49630830D01*
X129913087Y-49765676D01*
X129968210Y-49818608D01*
X130139130Y-49985286D01*
X130264860Y-50112823D01*
X130347641Y-50204417D01*
X130389713Y-50263266D01*
X130393318Y-50292570D01*
X130360695Y-50295527D01*
X130294087Y-50275335D01*
X130286108Y-50272342D01*
X130221180Y-50245241D01*
X130104098Y-50193668D01*
X129940309Y-50120056D01*
X129735262Y-50026842D01*
X129666208Y-49995278D01*
X129540751Y-49938955D01*
X129422125Y-49887531D01*
X129335167Y-49851761D01*
X129332415Y-49850699D01*
X129224139Y-49803136D01*
X129168057Y-49759656D01*
X129154325Y-49710416D01*
X129160732Y-49679014D01*
X129193410Y-49612759D01*
X129250391Y-49529510D01*
X129317971Y-49445901D01*
X129382446Y-49378566D01*
X129430111Y-49344140D01*
X129437860Y-49342626D01*
X129470921Y-49364071D01*
G37*
G36*
X130941388Y-58180240D02*
G01*
X131201029Y-58182980D01*
X131407877Y-58187448D01*
X131559250Y-58193566D01*
X131652467Y-58201253D01*
X131684847Y-58210431D01*
X131684856Y-58210597D01*
X131665237Y-58252142D01*
X131616298Y-58317504D01*
X131597434Y-58339251D01*
X131515246Y-58409825D01*
X131416799Y-58442729D01*
X131366959Y-58448687D01*
X131276971Y-58453788D01*
X131138522Y-58458677D01*
X130966731Y-58463103D01*
X130776714Y-58466816D01*
X130583591Y-58469566D01*
X130402480Y-58471102D01*
X130248499Y-58471174D01*
X130136765Y-58469532D01*
X130127159Y-58469217D01*
X129998464Y-58470449D01*
X129863085Y-58480007D01*
X129838820Y-58482853D01*
X129733655Y-58488713D01*
X129671844Y-58470458D01*
X129654490Y-58454556D01*
X129623015Y-58392058D01*
X129598533Y-58302667D01*
X129596930Y-58293410D01*
X129578414Y-58179309D01*
X130631635Y-58179309D01*
X130941388Y-58180240D01*
G37*
G36*
X126884606Y-49394055D02*
G01*
X126987804Y-49420158D01*
X127031392Y-49455467D01*
X127019149Y-49504257D01*
X127001477Y-49526305D01*
X126960715Y-49578759D01*
X126948185Y-49605917D01*
X126931565Y-49639850D01*
X126887092Y-49713153D01*
X126822847Y-49812744D01*
X126788992Y-49863614D01*
X126707381Y-49991221D01*
X126632329Y-50119195D01*
X126577190Y-50224491D01*
X126567594Y-50245704D01*
X126505388Y-50390824D01*
X126297625Y-50390824D01*
X126192077Y-50386703D01*
X126117287Y-50375917D01*
X126089862Y-50361305D01*
X126110119Y-50316937D01*
X126137547Y-50284101D01*
X126176662Y-50229891D01*
X126185232Y-50201296D01*
X126202672Y-50159010D01*
X126249555Y-50077545D01*
X126317719Y-49968990D01*
X126399007Y-49845435D01*
X126485258Y-49718969D01*
X126568312Y-49601681D01*
X126640011Y-49505663D01*
X126692195Y-49443002D01*
X126705838Y-49429936D01*
X126788575Y-49391162D01*
X126884606Y-49394055D01*
G37*
G36*
X129111094Y-55956458D02*
G01*
X129151357Y-55974818D01*
X129173209Y-56018227D01*
X129182748Y-56096901D01*
X129186073Y-56221055D01*
X129188182Y-56351399D01*
X129194062Y-56498466D01*
X129205232Y-56671586D01*
X129219297Y-56833699D01*
X129219552Y-56836193D01*
X129246470Y-57098458D01*
X129097707Y-57098458D01*
X128996751Y-57090182D01*
X128942154Y-57067447D01*
X128936846Y-57058721D01*
X128919354Y-57002722D01*
X128893037Y-56919830D01*
X128890540Y-56912015D01*
X128871357Y-56834588D01*
X128869227Y-56785182D01*
X128870600Y-56781960D01*
X128869711Y-56743416D01*
X128856401Y-56656525D01*
X128833006Y-56534783D01*
X128806640Y-56412662D01*
X128766314Y-56234728D01*
X128741104Y-56109848D01*
X128733952Y-56028673D01*
X128747800Y-55981851D01*
X128785589Y-55960036D01*
X128850260Y-55953876D01*
X128944756Y-55954022D01*
X128950939Y-55954028D01*
X129046321Y-55952933D01*
X129111094Y-55956458D01*
G37*
G36*
X128097081Y-55961147D02*
G01*
X128578392Y-55969922D01*
X128617655Y-56124698D01*
X128642635Y-56250767D01*
X128657898Y-56380048D01*
X128659685Y-56417280D01*
X128668064Y-56517061D01*
X128685562Y-56596895D01*
X128691882Y-56612191D01*
X128715383Y-56677790D01*
X128739360Y-56775318D01*
X128760134Y-56884138D01*
X128774027Y-56983613D01*
X128777359Y-57053108D01*
X128773621Y-57070671D01*
X128737465Y-57080306D01*
X128652439Y-57087029D01*
X128533188Y-57090768D01*
X128394359Y-57091451D01*
X128250597Y-57089004D01*
X128116548Y-57083354D01*
X128007312Y-57074481D01*
X127932842Y-57055003D01*
X127896450Y-57005015D01*
X127885053Y-56961496D01*
X127864813Y-56881020D01*
X127830975Y-56763255D01*
X127788818Y-56624859D01*
X127743621Y-56482490D01*
X127700663Y-56352809D01*
X127665222Y-56252472D01*
X127644014Y-56200829D01*
X127623237Y-56128877D01*
X127615770Y-56049000D01*
X127615770Y-55952372D01*
X128097081Y-55961147D01*
G37*
G36*
X129028932Y-49416655D02*
G01*
X129129209Y-49420684D01*
X129181771Y-49428976D01*
X129186266Y-49432123D01*
X129180182Y-49472334D01*
X129145381Y-49541200D01*
X129128868Y-49566927D01*
X129022078Y-49750142D01*
X128929465Y-49956297D01*
X128863890Y-50155560D01*
X128851034Y-50211411D01*
X128815002Y-50390824D01*
X128215386Y-50390824D01*
X128028062Y-50389625D01*
X127864702Y-50386288D01*
X127735094Y-50381203D01*
X127649029Y-50374758D01*
X127616294Y-50367345D01*
X127616232Y-50366981D01*
X127629178Y-50308948D01*
X127662895Y-50207462D01*
X127711538Y-50076812D01*
X127769260Y-49931287D01*
X127830216Y-49785175D01*
X127888562Y-49652763D01*
X127938451Y-49548341D01*
X127974037Y-49486195D01*
X127979188Y-49479807D01*
X128020125Y-49467157D01*
X128111359Y-49454898D01*
X128240639Y-49443513D01*
X128395714Y-49433488D01*
X128564333Y-49425306D01*
X128734243Y-49419450D01*
X128893193Y-49416405D01*
X129028932Y-49416655D01*
G37*
G36*
X130709692Y-48768568D02*
G01*
X130716089Y-48804889D01*
X130721537Y-48893114D01*
X130725969Y-49021577D01*
X130729315Y-49178608D01*
X130731509Y-49352541D01*
X130732483Y-49531706D01*
X130732168Y-49704435D01*
X130730498Y-49859060D01*
X130727404Y-49983914D01*
X130722818Y-50067328D01*
X130717412Y-50097275D01*
X130693835Y-50088254D01*
X130690267Y-50082989D01*
X130672897Y-50044523D01*
X130637567Y-49959951D01*
X130589652Y-49842310D01*
X130541925Y-49723239D01*
X130481325Y-49573151D01*
X130422396Y-49430919D01*
X130373015Y-49315368D01*
X130347582Y-49258806D01*
X130309929Y-49168184D01*
X130288212Y-49095385D01*
X130286108Y-49077891D01*
X130268367Y-49021861D01*
X130254318Y-49007970D01*
X130226359Y-48959720D01*
X130228107Y-48893256D01*
X130257024Y-48847349D01*
X130315296Y-48824556D01*
X130407531Y-48801220D01*
X130513475Y-48780866D01*
X130612873Y-48767019D01*
X130685471Y-48763204D01*
X130709692Y-48768568D01*
G37*
G36*
X129064080Y-58175729D02*
G01*
X129082599Y-58175973D01*
X129205696Y-58178756D01*
X129279831Y-58186234D01*
X129319622Y-58203383D01*
X129339686Y-58235176D01*
X129349258Y-58266731D01*
X129379460Y-58385869D01*
X129384948Y-58455325D01*
X129358431Y-58486563D01*
X129292617Y-58491045D01*
X129211337Y-58483558D01*
X128907473Y-58453918D01*
X128661669Y-58436026D01*
X128475002Y-58429914D01*
X128348553Y-58435617D01*
X128283397Y-58453165D01*
X128280851Y-58455094D01*
X128210358Y-58491128D01*
X128142801Y-58492204D01*
X128111186Y-58469746D01*
X128073105Y-58453782D01*
X127989594Y-58438337D01*
X127878834Y-58426763D01*
X127668925Y-58392520D01*
X127488611Y-58321364D01*
X127313767Y-58231487D01*
X127422791Y-58208246D01*
X127485844Y-58201338D01*
X127602351Y-58194795D01*
X127762187Y-58188812D01*
X127955225Y-58183588D01*
X128171342Y-58179319D01*
X128400411Y-58176202D01*
X128632308Y-58174433D01*
X128856906Y-58174210D01*
X129064080Y-58175729D01*
G37*
G36*
X129087733Y-49892521D02*
G01*
X129153255Y-49919181D01*
X129254003Y-49959555D01*
X129366835Y-50004440D01*
X129468607Y-50044632D01*
X129536177Y-50070927D01*
X129539049Y-50072017D01*
X129605661Y-50099504D01*
X129700667Y-50141222D01*
X129745682Y-50161622D01*
X129869173Y-50216036D01*
X129999890Y-50270531D01*
X130031790Y-50283228D01*
X130140076Y-50329749D01*
X130239402Y-50378910D01*
X130265393Y-50393632D01*
X130355942Y-50447978D01*
X130258079Y-50469472D01*
X130195845Y-50475744D01*
X130082026Y-50480177D01*
X129928595Y-50482583D01*
X129747525Y-50482770D01*
X129555598Y-50480632D01*
X129341503Y-50476296D01*
X129183090Y-50471145D01*
X129072459Y-50464427D01*
X129001712Y-50455387D01*
X128962950Y-50443273D01*
X128948275Y-50427330D01*
X128947440Y-50422613D01*
X128949022Y-50319778D01*
X128964505Y-50202358D01*
X128989858Y-50085595D01*
X129021046Y-49984729D01*
X129054034Y-49915004D01*
X129084791Y-49891659D01*
X129087733Y-49892521D01*
G37*
G36*
X126293001Y-57193952D02*
G01*
X126429341Y-57198851D01*
X126546642Y-57207845D01*
X126629046Y-57220670D01*
X126659229Y-57233565D01*
X126880169Y-57496748D01*
X127143449Y-57780441D01*
X127167091Y-57804825D01*
X127262686Y-57905503D01*
X127337304Y-57988663D01*
X127382446Y-58044530D01*
X127391547Y-58063082D01*
X127355254Y-58070978D01*
X127271914Y-58080314D01*
X127157978Y-58089323D01*
X127130910Y-58091056D01*
X126991460Y-58096022D01*
X126903498Y-58089433D01*
X126855797Y-58070183D01*
X126848857Y-58063275D01*
X126799343Y-58025560D01*
X126777397Y-58019877D01*
X126735314Y-58000152D01*
X126655728Y-57947016D01*
X126549156Y-57868727D01*
X126426118Y-57773539D01*
X126297131Y-57669711D01*
X126172716Y-57565497D01*
X126063391Y-57469155D01*
X126001594Y-57410937D01*
X125912413Y-57317708D01*
X125869786Y-57257426D01*
X125869845Y-57224302D01*
X125874435Y-57220556D01*
X125928340Y-57206449D01*
X126026643Y-57197488D01*
X126153482Y-57193410D01*
X126293001Y-57193952D01*
G37*
G36*
X127595513Y-49842451D02*
G01*
X127529323Y-49996459D01*
X127470179Y-50134587D01*
X127423675Y-50243736D01*
X127395403Y-50310805D01*
X127391907Y-50319297D01*
X127375175Y-50351216D01*
X127347953Y-50371897D01*
X127297906Y-50383767D01*
X127212702Y-50389251D01*
X127080008Y-50390775D01*
X127028341Y-50390824D01*
X126878358Y-50389772D01*
X126780965Y-50385398D01*
X126725189Y-50375873D01*
X126700056Y-50359367D01*
X126694574Y-50335192D01*
X126713861Y-50271430D01*
X126757447Y-50200085D01*
X126801628Y-50131823D01*
X126820319Y-50079755D01*
X126838942Y-50022553D01*
X126883938Y-49941007D01*
X126940911Y-49859562D01*
X126969533Y-49826368D01*
X127009571Y-49763981D01*
X127029267Y-49715103D01*
X127062571Y-49642828D01*
X127116861Y-49556215D01*
X127128336Y-49540448D01*
X127167351Y-49491252D01*
X127204834Y-49460841D01*
X127256509Y-49444696D01*
X127338096Y-49438300D01*
X127465319Y-49437134D01*
X127487882Y-49437131D01*
X127770026Y-49437131D01*
X127595513Y-49842451D01*
G37*
G36*
X130459903Y-50770604D02*
G01*
X130451545Y-50808342D01*
X130420268Y-50846892D01*
X130378586Y-50886552D01*
X130300518Y-50960898D01*
X130195700Y-51060751D01*
X130073771Y-51176930D01*
X130015895Y-51232085D01*
X129891873Y-51348104D01*
X129782155Y-51446666D01*
X129695656Y-51520076D01*
X129641291Y-51560637D01*
X129628936Y-51566195D01*
X129590710Y-51544212D01*
X129525888Y-51485691D01*
X129448306Y-51403160D01*
X129446145Y-51400694D01*
X129373286Y-51312357D01*
X129321087Y-51239435D01*
X129300635Y-51197448D01*
X129300626Y-51197019D01*
X129328549Y-51168611D01*
X129401071Y-51132635D01*
X129483417Y-51103123D01*
X129601389Y-51065019D01*
X129709511Y-51027464D01*
X129761577Y-51007689D01*
X129831822Y-50981555D01*
X129871972Y-50971230D01*
X129872841Y-50971305D01*
X129909633Y-50959786D01*
X129963592Y-50933721D01*
X130052492Y-50891915D01*
X130160775Y-50849025D01*
X130272057Y-50810436D01*
X130369955Y-50781531D01*
X130438088Y-50767694D01*
X130459903Y-50770604D01*
G37*
G36*
X133161939Y-50487180D02*
G01*
X133236009Y-50504332D01*
X133280019Y-50527573D01*
X133281670Y-50529795D01*
X133305055Y-50582990D01*
X133342718Y-50689854D01*
X133392160Y-50842735D01*
X133450879Y-51033978D01*
X133495869Y-51185567D01*
X133559481Y-51433576D01*
X133618109Y-51719939D01*
X133667235Y-52019432D01*
X133702339Y-52306831D01*
X133708052Y-52369735D01*
X133728729Y-52616105D01*
X133582886Y-52616105D01*
X133491753Y-52609971D01*
X133430086Y-52594469D01*
X133418137Y-52585513D01*
X133406828Y-52537590D01*
X133399780Y-52451114D01*
X133398689Y-52402722D01*
X133390224Y-52271025D01*
X133367411Y-52092086D01*
X133333019Y-51879891D01*
X133289821Y-51648428D01*
X133240588Y-51411684D01*
X133188090Y-51183649D01*
X133135099Y-50978309D01*
X133084385Y-50809652D01*
X133081242Y-50800317D01*
X133040096Y-50676110D01*
X133008270Y-50574334D01*
X132990445Y-50510231D01*
X132988235Y-50497475D01*
X133015165Y-50481230D01*
X133080695Y-50478639D01*
X133161939Y-50487180D01*
G37*
G36*
X134428599Y-51104952D02*
G01*
X134450587Y-51159466D01*
X134456592Y-51208678D01*
X134476658Y-51294425D01*
X134526099Y-51352757D01*
X134613991Y-51388060D01*
X134749409Y-51404718D01*
X134868376Y-51407627D01*
X135000795Y-51411036D01*
X135081382Y-51422053D01*
X135121648Y-51442799D01*
X135129644Y-51455780D01*
X135177218Y-51491917D01*
X135276099Y-51503464D01*
X135356099Y-51510070D01*
X135400836Y-51526587D01*
X135404255Y-51533463D01*
X135374386Y-51545893D01*
X135292386Y-51555211D01*
X135169666Y-51560500D01*
X135057676Y-51561273D01*
X134889972Y-51562478D01*
X134773205Y-51569562D01*
X134694887Y-51583998D01*
X134642529Y-51607253D01*
X134637336Y-51610749D01*
X134555378Y-51655385D01*
X134503383Y-51647236D01*
X134471985Y-51583471D01*
X134466375Y-51559096D01*
X134437173Y-51437894D01*
X134402001Y-51323201D01*
X134367762Y-51235905D01*
X134348704Y-51203051D01*
X134323626Y-51142734D01*
X134347673Y-51099423D01*
X134385065Y-51090198D01*
X134428599Y-51104952D01*
G37*
G36*
X125399612Y-55968232D02*
G01*
X125501604Y-55972990D01*
X125569263Y-55980264D01*
X125587366Y-55986658D01*
X125605399Y-56020811D01*
X125643176Y-56095666D01*
X125691247Y-56192451D01*
X125761836Y-56328030D01*
X125848652Y-56483761D01*
X125942209Y-56643714D01*
X126033017Y-56791956D01*
X126111591Y-56912557D01*
X126159500Y-56978726D01*
X126199844Y-57041903D01*
X126209002Y-57084068D01*
X126206818Y-57087468D01*
X126163894Y-57100679D01*
X126078032Y-57110535D01*
X125969824Y-57116145D01*
X125859864Y-57116618D01*
X125768745Y-57111061D01*
X125744831Y-57107472D01*
X125690026Y-57084552D01*
X125623127Y-57031102D01*
X125538227Y-56941004D01*
X125429419Y-56808142D01*
X125327102Y-56674800D01*
X125260103Y-56578209D01*
X125184619Y-56457463D01*
X125108320Y-56326438D01*
X125038875Y-56199011D01*
X124983953Y-56089056D01*
X124951226Y-56010450D01*
X124945432Y-55984294D01*
X124974471Y-55975568D01*
X125050717Y-55969659D01*
X125157861Y-55966507D01*
X125279595Y-55966051D01*
X125399612Y-55968232D01*
G37*
G36*
X130067849Y-48950297D02*
G01*
X130117810Y-49018581D01*
X130170429Y-49142615D01*
X130176622Y-49158971D01*
X130220969Y-49273162D01*
X130259096Y-49365008D01*
X130283831Y-49417358D01*
X130286289Y-49421237D01*
X130305642Y-49461028D01*
X130341090Y-49544548D01*
X130386926Y-49657250D01*
X130437444Y-49784589D01*
X130486936Y-49912019D01*
X130529695Y-50024993D01*
X130560013Y-50108965D01*
X130572185Y-50149389D01*
X130572215Y-50150005D01*
X130555791Y-50170283D01*
X130505168Y-50146579D01*
X130418326Y-50077444D01*
X130293239Y-49961432D01*
X130250852Y-49920122D01*
X130149188Y-49821716D01*
X130065403Y-49743448D01*
X130008918Y-49693931D01*
X129989285Y-49680971D01*
X129965028Y-49663501D01*
X129907006Y-49609174D01*
X129825042Y-49527425D01*
X129765492Y-49466046D01*
X129660913Y-49355024D01*
X129600959Y-49276721D01*
X129586743Y-49217496D01*
X129619378Y-49163708D01*
X129699978Y-49101718D01*
X129800553Y-49036534D01*
X129922556Y-48963616D01*
X130007209Y-48933423D01*
X130067849Y-48950297D01*
G37*
G36*
X132362025Y-48263759D02*
G01*
X132460754Y-48270581D01*
X132532447Y-48287151D01*
X132595347Y-48317011D01*
X132639876Y-48345038D01*
X132710292Y-48396943D01*
X132748049Y-48435449D01*
X132749828Y-48446335D01*
X132711825Y-48456370D01*
X132627715Y-48466787D01*
X132514920Y-48475482D01*
X132502812Y-48476171D01*
X132386868Y-48485358D01*
X132296677Y-48497697D01*
X132250333Y-48510652D01*
X132248948Y-48511745D01*
X132250920Y-48548059D01*
X132289165Y-48603598D01*
X132289924Y-48604416D01*
X132337103Y-48643484D01*
X132399102Y-48664828D01*
X132495081Y-48673277D01*
X132566670Y-48674178D01*
X132683787Y-48679096D01*
X132739868Y-48691806D01*
X132736521Y-48709244D01*
X132675356Y-48728344D01*
X132557981Y-48746041D01*
X132527284Y-48749202D01*
X132336546Y-48767536D01*
X132069501Y-48540158D01*
X131948776Y-48435293D01*
X131875380Y-48361271D01*
X131852245Y-48312623D01*
X131882304Y-48283879D01*
X131968488Y-48269571D01*
X132113731Y-48264229D01*
X132218016Y-48263146D01*
X132362025Y-48263759D01*
G37*
G36*
X126126698Y-50504436D02*
G01*
X126152034Y-50547636D01*
X126136194Y-50628502D01*
X126089072Y-50747746D01*
X126043373Y-50866900D01*
X125986972Y-51032290D01*
X125924532Y-51228459D01*
X125860717Y-51439949D01*
X125800190Y-51651303D01*
X125747617Y-51847062D01*
X125707660Y-52011769D01*
X125707586Y-52012100D01*
X125683606Y-52140665D01*
X125661406Y-52294491D01*
X125648778Y-52409472D01*
X125628911Y-52632000D01*
X125379518Y-52641339D01*
X125130125Y-52650678D01*
X125144991Y-52482390D01*
X125159423Y-52378778D01*
X125186335Y-52234175D01*
X125221538Y-52067101D01*
X125260849Y-51896076D01*
X125300079Y-51739618D01*
X125335043Y-51616247D01*
X125352111Y-51566127D01*
X125381571Y-51483602D01*
X125415576Y-51380453D01*
X125421871Y-51360411D01*
X125458862Y-51251736D01*
X125498223Y-51150512D01*
X125503700Y-51137882D01*
X125534930Y-51065160D01*
X125581735Y-50953435D01*
X125635797Y-50822621D01*
X125656410Y-50772300D01*
X125766805Y-50502088D01*
X125928196Y-50492484D01*
X126054110Y-50489265D01*
X126126698Y-50504436D01*
G37*
G36*
X127729427Y-57194304D02*
G01*
X127884587Y-57196251D01*
X127993376Y-57200445D01*
X128064397Y-57207664D01*
X128106251Y-57218685D01*
X128127540Y-57234284D01*
X128135188Y-57249459D01*
X128213672Y-57464632D01*
X128293407Y-57636944D01*
X128359815Y-57743371D01*
X128410804Y-57815882D01*
X128439787Y-57868071D01*
X128442303Y-57877804D01*
X128461533Y-57919609D01*
X128493102Y-57960222D01*
X128524891Y-58003369D01*
X128527003Y-58035296D01*
X128493290Y-58057514D01*
X128417606Y-58071536D01*
X128293804Y-58078871D01*
X128115738Y-58081032D01*
X128003318Y-58080637D01*
X127504506Y-58077333D01*
X127297872Y-57849052D01*
X127194719Y-57733118D01*
X127096100Y-57618897D01*
X127018054Y-57525084D01*
X126995870Y-57497045D01*
X126931232Y-57415516D01*
X126877193Y-57351299D01*
X126860763Y-57333529D01*
X126823419Y-57272009D01*
X126846516Y-57225848D01*
X126871311Y-57213123D01*
X126917900Y-57207031D01*
X127017120Y-57201729D01*
X127158026Y-57197544D01*
X127329670Y-57194801D01*
X127519293Y-57193827D01*
X127729427Y-57194304D01*
G37*
G36*
X133815997Y-57190345D02*
G01*
X133933438Y-57190763D01*
X134009940Y-57191411D01*
X134029349Y-57191871D01*
X134066116Y-57210637D01*
X134049488Y-57260932D01*
X133979182Y-57343107D01*
X133854914Y-57457516D01*
X133734922Y-57557574D01*
X133642183Y-57633501D01*
X133569795Y-57694189D01*
X133531102Y-57728420D01*
X133528661Y-57731006D01*
X133490640Y-57762959D01*
X133462844Y-57781937D01*
X133412946Y-57814297D01*
X133327309Y-57870374D01*
X133223235Y-57938833D01*
X133208526Y-57948532D01*
X133004130Y-58083336D01*
X132662390Y-58083638D01*
X132523606Y-58082399D01*
X132411930Y-58078810D01*
X132340340Y-58073456D01*
X132320651Y-58068230D01*
X132340987Y-58038902D01*
X132393874Y-57978432D01*
X132455757Y-57912578D01*
X132638199Y-57714171D01*
X132790174Y-57529623D01*
X132902946Y-57369740D01*
X132927271Y-57329179D01*
X132995049Y-57234728D01*
X133058100Y-57193475D01*
X133067710Y-57192300D01*
X133124753Y-57191476D01*
X133228296Y-57190842D01*
X133363765Y-57190405D01*
X133516587Y-57190173D01*
X133672188Y-57190151D01*
X133815997Y-57190345D01*
G37*
G36*
X124500375Y-53870217D02*
G01*
X124514970Y-54133326D01*
X124556104Y-54431994D01*
X124619798Y-54746005D01*
X124702074Y-55055141D01*
X124779004Y-55286443D01*
X124791023Y-55345863D01*
X124789852Y-55363004D01*
X124804296Y-55406788D01*
X124808863Y-55410689D01*
X124835070Y-55451548D01*
X124869506Y-55532026D01*
X124905685Y-55632667D01*
X124937117Y-55734015D01*
X124957316Y-55816615D01*
X124959794Y-55861011D01*
X124959326Y-55861896D01*
X124932897Y-55886404D01*
X124899459Y-55874528D01*
X124852417Y-55820107D01*
X124785178Y-55716981D01*
X124760228Y-55675867D01*
X124669445Y-55500770D01*
X124578238Y-55281963D01*
X124493780Y-55038859D01*
X124423243Y-54790873D01*
X124404912Y-54714228D01*
X124380140Y-54608694D01*
X124358898Y-54524303D01*
X124349643Y-54491700D01*
X124335488Y-54428319D01*
X124322251Y-54339150D01*
X124321512Y-54332751D01*
X124308933Y-54227539D01*
X124293485Y-54106090D01*
X124289825Y-54078433D01*
X124278124Y-53962454D01*
X124269186Y-53822865D01*
X124266326Y-53744641D01*
X124261952Y-53553902D01*
X124381164Y-53544036D01*
X124500375Y-53534170D01*
X124500375Y-53870217D01*
G37*
G36*
X127699058Y-48327178D02*
G01*
X127704230Y-48327256D01*
X128010063Y-48331830D01*
X127916780Y-48399687D01*
X127766356Y-48512828D01*
X127605008Y-48640427D01*
X127444839Y-48772297D01*
X127297950Y-48898249D01*
X127176443Y-49008096D01*
X127092419Y-49091651D01*
X127084994Y-49099922D01*
X127005004Y-49179512D01*
X126932546Y-49232354D01*
X126892832Y-49246393D01*
X126822442Y-49265473D01*
X126753299Y-49306412D01*
X126703855Y-49335826D01*
X126638009Y-49353932D01*
X126544911Y-49361386D01*
X126413712Y-49358845D01*
X126233559Y-49346966D01*
X126169337Y-49341762D01*
X125978598Y-49325867D01*
X126089862Y-49218180D01*
X126185465Y-49131280D01*
X126286804Y-49047224D01*
X126312390Y-49027623D01*
X126384063Y-48973120D01*
X126431782Y-48934764D01*
X126439549Y-48927628D01*
X126484509Y-48890431D01*
X126568777Y-48829487D01*
X126677736Y-48754722D01*
X126796766Y-48676067D01*
X126911247Y-48603448D01*
X126964080Y-48571396D01*
X127122938Y-48477316D01*
X127240704Y-48410598D01*
X127331262Y-48366664D01*
X127408494Y-48340934D01*
X127486282Y-48328829D01*
X127578510Y-48325770D01*
X127699058Y-48327178D01*
G37*
G36*
X133573639Y-48941582D02*
G01*
X133646596Y-48997356D01*
X133672878Y-49029532D01*
X133658860Y-49049555D01*
X133638797Y-49058560D01*
X133574469Y-49071934D01*
X133471402Y-49081692D01*
X133376662Y-49085210D01*
X133258052Y-49090817D01*
X133189734Y-49106412D01*
X133158795Y-49135124D01*
X133157449Y-49138337D01*
X133161520Y-49195385D01*
X133224392Y-49231431D01*
X133344590Y-49245698D01*
X133361765Y-49245906D01*
X133444286Y-49252867D01*
X133492088Y-49269795D01*
X133496871Y-49278183D01*
X133467160Y-49293984D01*
X133386186Y-49305068D01*
X133266184Y-49309886D01*
X133245954Y-49309973D01*
X133111549Y-49307030D01*
X133029001Y-49296843D01*
X132986801Y-49277374D01*
X132976739Y-49262288D01*
X132931549Y-49226313D01*
X132852798Y-49214603D01*
X132778382Y-49203195D01*
X132705264Y-49161883D01*
X132615126Y-49080037D01*
X132607413Y-49072216D01*
X132538684Y-48995018D01*
X132497448Y-48934297D01*
X132492105Y-48905320D01*
X132531028Y-48895606D01*
X132621593Y-48885430D01*
X132751881Y-48875778D01*
X132909971Y-48867633D01*
X132981285Y-48864916D01*
X133446029Y-48849021D01*
X133573639Y-48941582D01*
G37*
G36*
X125305105Y-53545352D02*
G01*
X126010388Y-53553902D01*
X126032286Y-54030749D01*
X126045816Y-54221538D01*
X126068954Y-54436978D01*
X126099503Y-54663943D01*
X126135269Y-54889313D01*
X126174055Y-55099963D01*
X126213666Y-55282771D01*
X126251907Y-55424614D01*
X126276941Y-55493076D01*
X126307518Y-55574305D01*
X126336265Y-55671095D01*
X126358065Y-55762813D01*
X126367804Y-55828827D01*
X126365040Y-55848396D01*
X126327700Y-55855453D01*
X126238712Y-55861412D01*
X126109997Y-55866071D01*
X125953480Y-55869231D01*
X125781085Y-55870690D01*
X125604735Y-55870247D01*
X125436354Y-55867702D01*
X125353821Y-55865413D01*
X125078731Y-55856273D01*
X124999236Y-55658780D01*
X124873859Y-55323546D01*
X124783340Y-55025452D01*
X124734169Y-54809597D01*
X124708277Y-54685136D01*
X124682567Y-54578801D01*
X124662185Y-54511678D01*
X124660489Y-54507595D01*
X124642101Y-54441957D01*
X124623771Y-54338812D01*
X124613056Y-54253277D01*
X124599102Y-54123333D01*
X124584463Y-53996947D01*
X124576738Y-53935379D01*
X124570634Y-53816382D01*
X124577568Y-53689949D01*
X124579869Y-53672511D01*
X124599821Y-53536802D01*
X125305105Y-53545352D01*
G37*
G36*
X126845649Y-50519782D02*
G01*
X126941242Y-50526126D01*
X126993159Y-50538432D01*
X127011313Y-50558119D01*
X127011765Y-50563073D01*
X127003721Y-50608467D01*
X126981588Y-50703025D01*
X126948365Y-50834672D01*
X126907049Y-50991332D01*
X126887438Y-51063762D01*
X126759208Y-51585027D01*
X126666722Y-52082488D01*
X126629340Y-52354497D01*
X126613180Y-52471797D01*
X126596683Y-52564802D01*
X126583193Y-52614920D01*
X126582197Y-52616762D01*
X126544214Y-52629171D01*
X126454861Y-52639124D01*
X126326329Y-52645677D01*
X126179369Y-52647895D01*
X125795782Y-52647895D01*
X125814472Y-52385630D01*
X125830257Y-52205294D01*
X125852152Y-52046115D01*
X125884466Y-51884532D01*
X125931509Y-51696983D01*
X125958354Y-51598834D01*
X126026926Y-51353859D01*
X126081854Y-51161941D01*
X126125852Y-51014694D01*
X126161632Y-50903735D01*
X126191907Y-50820680D01*
X126219391Y-50757146D01*
X126246796Y-50704747D01*
X126248825Y-50701205D01*
X126275888Y-50632837D01*
X126280601Y-50601289D01*
X126290825Y-50566523D01*
X126327597Y-50542641D01*
X126400061Y-50527813D01*
X126517365Y-50520205D01*
X126688653Y-50517985D01*
X126696467Y-50517983D01*
X126845649Y-50519782D01*
G37*
G36*
X125353349Y-50509043D02*
G01*
X125375381Y-50551148D01*
X125361713Y-50628145D01*
X125313661Y-50747440D01*
X125260758Y-50859084D01*
X125192461Y-50999648D01*
X125143866Y-51102705D01*
X125106651Y-51187818D01*
X125072491Y-51274549D01*
X125033065Y-51382463D01*
X125006885Y-51455780D01*
X124944473Y-51647254D01*
X124881914Y-51867596D01*
X124823862Y-52097649D01*
X124774972Y-52318254D01*
X124739897Y-52510254D01*
X124726961Y-52608158D01*
X124697296Y-52632437D01*
X124611781Y-52645290D01*
X124514806Y-52647895D01*
X124306707Y-52647895D01*
X124311379Y-52496894D01*
X124324276Y-52366049D01*
X124350392Y-52231001D01*
X124358006Y-52202839D01*
X124386016Y-52103237D01*
X124422580Y-51967699D01*
X124460781Y-51821957D01*
X124469104Y-51789572D01*
X124509839Y-51641806D01*
X124555025Y-51495462D01*
X124596082Y-51378036D01*
X124603055Y-51360411D01*
X124649112Y-51253221D01*
X124708717Y-51122644D01*
X124775833Y-50980938D01*
X124844423Y-50840363D01*
X124908452Y-50713176D01*
X124961881Y-50611637D01*
X124998675Y-50548005D01*
X125010534Y-50532936D01*
X125053906Y-50521056D01*
X125137929Y-50507249D01*
X125196917Y-50499880D01*
X125294300Y-50494423D01*
X125353349Y-50509043D01*
G37*
G36*
X131464936Y-48283712D02*
G01*
X131575143Y-48297701D01*
X131663744Y-48319166D01*
X131713922Y-48347256D01*
X131714800Y-48348382D01*
X131748231Y-48379546D01*
X131815729Y-48434825D01*
X131875594Y-48481449D01*
X131968940Y-48558506D01*
X132050118Y-48635218D01*
X132082228Y-48671077D01*
X132151735Y-48749474D01*
X132232669Y-48828895D01*
X132236149Y-48832016D01*
X132301046Y-48897029D01*
X132377544Y-48983976D01*
X132455586Y-49079887D01*
X132525112Y-49171792D01*
X132576063Y-49246720D01*
X132598382Y-49291701D01*
X132597530Y-49298008D01*
X132557955Y-49312044D01*
X132482970Y-49324836D01*
X132474964Y-49325762D01*
X132416633Y-49325790D01*
X132356998Y-49307385D01*
X132282358Y-49263509D01*
X132179010Y-49187125D01*
X132129912Y-49148549D01*
X131994353Y-49050603D01*
X131845405Y-48957856D01*
X131709710Y-48886558D01*
X131677300Y-48872480D01*
X131573008Y-48826859D01*
X131496676Y-48787293D01*
X131463159Y-48761582D01*
X131462720Y-48759816D01*
X131443806Y-48724636D01*
X131393980Y-48654227D01*
X131323018Y-48562212D01*
X131303379Y-48537748D01*
X131228848Y-48443076D01*
X131173047Y-48367323D01*
X131145688Y-48323820D01*
X131144431Y-48319529D01*
X131172871Y-48295107D01*
X131246982Y-48281564D01*
X131349943Y-48278049D01*
X131464936Y-48283712D01*
G37*
G36*
X132553797Y-53503441D02*
G01*
X132659223Y-53513564D01*
X132739785Y-53529045D01*
X132773295Y-53545666D01*
X132784034Y-53598027D01*
X132786667Y-53709330D01*
X132781329Y-53875475D01*
X132768152Y-54092360D01*
X132747271Y-54355884D01*
X132746521Y-54364541D01*
X132735192Y-54467560D01*
X132716140Y-54612664D01*
X132692188Y-54779238D01*
X132670317Y-54920861D01*
X132644043Y-55089574D01*
X132619642Y-55254148D01*
X132600107Y-55393956D01*
X132589644Y-55477182D01*
X132572251Y-55593817D01*
X132549631Y-55697928D01*
X132536829Y-55739447D01*
X132515617Y-55785401D01*
X132484989Y-55811568D01*
X132428814Y-55823501D01*
X132330961Y-55826754D01*
X132282862Y-55826869D01*
X132167022Y-55825110D01*
X132102403Y-55817608D01*
X132076694Y-55801023D01*
X132077580Y-55772013D01*
X132077798Y-55771237D01*
X132089405Y-55711569D01*
X132103912Y-55611705D01*
X132116374Y-55508971D01*
X132130079Y-55387720D01*
X132142624Y-55281445D01*
X132150019Y-55222864D01*
X132188010Y-54892927D01*
X132219340Y-54514081D01*
X132242840Y-54100760D01*
X132244913Y-54053423D01*
X132254025Y-53878394D01*
X132265110Y-53726389D01*
X132277109Y-53608444D01*
X132288963Y-53535598D01*
X132296315Y-53517506D01*
X132351545Y-53504184D01*
X132444305Y-53499905D01*
X132553797Y-53503441D01*
G37*
G36*
X132872774Y-50533877D02*
G01*
X132908020Y-50619752D01*
X132925144Y-50661036D01*
X132953368Y-50744288D01*
X132968783Y-50804090D01*
X132982899Y-50869388D01*
X133006503Y-50978374D01*
X133035599Y-51112605D01*
X133051424Y-51185567D01*
X133117324Y-51499767D01*
X133172693Y-51785102D01*
X133216824Y-52036606D01*
X133249013Y-52249310D01*
X133268555Y-52418249D01*
X133274743Y-52538453D01*
X133266873Y-52604958D01*
X133254681Y-52617041D01*
X133127008Y-52620406D01*
X132974060Y-52623067D01*
X132809274Y-52624960D01*
X132646085Y-52626017D01*
X132497931Y-52626173D01*
X132378247Y-52625361D01*
X132300469Y-52623516D01*
X132279306Y-52621847D01*
X132243035Y-52597131D01*
X132227196Y-52532029D01*
X132225282Y-52475384D01*
X132221749Y-52364317D01*
X132212706Y-52228507D01*
X132205443Y-52149520D01*
X132196705Y-52040045D01*
X132203193Y-51968940D01*
X132231047Y-51911646D01*
X132280146Y-51850802D01*
X132444522Y-51637670D01*
X132583427Y-51410802D01*
X132684353Y-51191295D01*
X132702877Y-51137882D01*
X132741846Y-51018795D01*
X132776759Y-50916872D01*
X132800318Y-50853391D01*
X132800996Y-50851775D01*
X132818854Y-50782803D01*
X132833234Y-50680897D01*
X132837429Y-50629247D01*
X132845507Y-50540978D01*
X132856771Y-50511170D01*
X132872774Y-50533877D01*
G37*
G36*
X128906473Y-51108689D02*
G01*
X128938179Y-51185184D01*
X128951206Y-51223711D01*
X128989876Y-51313194D01*
X129055012Y-51431993D01*
X129134628Y-51558787D01*
X129162095Y-51598834D01*
X129338425Y-51820015D01*
X129532787Y-52001376D01*
X129759194Y-52153607D01*
X130031661Y-52287399D01*
X130103845Y-52317302D01*
X130228919Y-52368839D01*
X130306678Y-52406946D01*
X130349072Y-52441211D01*
X130368051Y-52481226D01*
X130375448Y-52535257D01*
X130385315Y-52647895D01*
X130105236Y-52651978D01*
X129779392Y-52656366D01*
X129513033Y-52659127D01*
X129302087Y-52660266D01*
X129142479Y-52659792D01*
X129030136Y-52657709D01*
X128960986Y-52654026D01*
X128958886Y-52653828D01*
X128886230Y-52638316D01*
X128858422Y-52600907D01*
X128855569Y-52566406D01*
X128857793Y-52525946D01*
X128873443Y-52501563D01*
X128915991Y-52488009D01*
X128998906Y-52480037D01*
X129090619Y-52474836D01*
X129146995Y-52443996D01*
X129185157Y-52374395D01*
X129193951Y-52290458D01*
X129187899Y-52261811D01*
X129168423Y-52224435D01*
X129129582Y-52203878D01*
X129055704Y-52195539D01*
X128958886Y-52194585D01*
X128855569Y-52195244D01*
X128855569Y-51624950D01*
X128856943Y-51443873D01*
X128860760Y-51288298D01*
X128866563Y-51167897D01*
X128873895Y-51092342D01*
X128881745Y-51070833D01*
X128906473Y-51108689D01*
G37*
G36*
X130263741Y-53492363D02*
G01*
X130438417Y-53494860D01*
X130588132Y-53499277D01*
X130701820Y-53505677D01*
X130768414Y-53514123D01*
X130771437Y-53514905D01*
X130859394Y-53539488D01*
X130843356Y-53944067D01*
X130836780Y-54117373D01*
X130829052Y-54332824D01*
X130820914Y-54569011D01*
X130813110Y-54804527D01*
X130808893Y-54936756D01*
X130802357Y-55134838D01*
X130795609Y-55320968D01*
X130789180Y-55481785D01*
X130783600Y-55603926D01*
X130779878Y-55667920D01*
X130769287Y-55810974D01*
X130583330Y-55831366D01*
X130506912Y-55836895D01*
X130387977Y-55842103D01*
X130237897Y-55846825D01*
X130068039Y-55850893D01*
X129889776Y-55854139D01*
X129714475Y-55856397D01*
X129553508Y-55857500D01*
X129418244Y-55857281D01*
X129320053Y-55855572D01*
X129270305Y-55852208D01*
X129266459Y-55850711D01*
X129258281Y-55792177D01*
X129251488Y-55681798D01*
X129246059Y-55528397D01*
X129241977Y-55340794D01*
X129239220Y-55127811D01*
X129237769Y-54898269D01*
X129237606Y-54660990D01*
X129238710Y-54424794D01*
X129241062Y-54198504D01*
X129244642Y-53990941D01*
X129249431Y-53810925D01*
X129255410Y-53667279D01*
X129262559Y-53568823D01*
X129270858Y-53524379D01*
X129271602Y-53523389D01*
X129311170Y-53514198D01*
X129403237Y-53506489D01*
X129536735Y-53500324D01*
X129700601Y-53495767D01*
X129883768Y-53492879D01*
X130075170Y-53491724D01*
X130263741Y-53492363D01*
G37*
G36*
X130139830Y-47735953D02*
G01*
X130318585Y-47748249D01*
X130533852Y-47765760D01*
X130740201Y-47784877D01*
X130936946Y-47806366D01*
X131110639Y-47828512D01*
X131247831Y-47849599D01*
X131335073Y-47867914D01*
X131335169Y-47867941D01*
X131447585Y-47898602D01*
X131546657Y-47923601D01*
X131589487Y-47933155D01*
X131664723Y-47954176D01*
X131750823Y-47986478D01*
X131826698Y-48021025D01*
X131871257Y-48048779D01*
X131875594Y-48055769D01*
X131844723Y-48058357D01*
X131755782Y-48060795D01*
X131614282Y-48063042D01*
X131425731Y-48065057D01*
X131195640Y-48066797D01*
X130929520Y-48068220D01*
X130632879Y-48069285D01*
X130311227Y-48069950D01*
X129978807Y-48070173D01*
X129638647Y-48069912D01*
X129318573Y-48069162D01*
X129024034Y-48067969D01*
X128760476Y-48066379D01*
X128533349Y-48064438D01*
X128348100Y-48062193D01*
X128210178Y-48059691D01*
X128125029Y-48056978D01*
X128098044Y-48054148D01*
X128138276Y-48035231D01*
X128223105Y-48006157D01*
X128335355Y-47971815D01*
X128457848Y-47937095D01*
X128573408Y-47906888D01*
X128664859Y-47886083D01*
X128711760Y-47879434D01*
X128780616Y-47866647D01*
X128809474Y-47850120D01*
X128849795Y-47837348D01*
X128942324Y-47820531D01*
X129075945Y-47801306D01*
X129239541Y-47781314D01*
X129373527Y-47766971D01*
X129565289Y-47748377D01*
X129721151Y-47735995D01*
X129857762Y-47729808D01*
X129991772Y-47729800D01*
X130139830Y-47735953D01*
G37*
G36*
X130206021Y-57154218D02*
G01*
X130420290Y-57156025D01*
X130615342Y-57158749D01*
X130781099Y-57162364D01*
X130907485Y-57166844D01*
X130984423Y-57172163D01*
X130999140Y-57174531D01*
X131038655Y-57186459D01*
X131065147Y-57204716D01*
X131077646Y-57237418D01*
X131075182Y-57292682D01*
X131056783Y-57378625D01*
X131021480Y-57503363D01*
X130968302Y-57675013D01*
X130921753Y-57821675D01*
X130884468Y-57932072D01*
X130852465Y-58014805D01*
X130831703Y-58054715D01*
X130829512Y-58056207D01*
X130777500Y-58065247D01*
X130709429Y-58072550D01*
X130617739Y-58078381D01*
X130494874Y-58083004D01*
X130333273Y-58086682D01*
X130125381Y-58089681D01*
X129863637Y-58092263D01*
X129777472Y-58092964D01*
X129545054Y-58094446D01*
X129331159Y-58095153D01*
X129144719Y-58095109D01*
X128994670Y-58094335D01*
X128889945Y-58092856D01*
X128839478Y-58090693D01*
X128838662Y-58090585D01*
X128778572Y-58052705D01*
X128723482Y-57964490D01*
X128721309Y-57959551D01*
X128671546Y-57841114D01*
X128616528Y-57704511D01*
X128561429Y-57563338D01*
X128511423Y-57431187D01*
X128471680Y-57321654D01*
X128447375Y-57248334D01*
X128442303Y-57226302D01*
X128471883Y-57209211D01*
X128551875Y-57196561D01*
X128669157Y-57190400D01*
X128672778Y-57190342D01*
X128806077Y-57186106D01*
X128930144Y-57178421D01*
X129014518Y-57169419D01*
X129081153Y-57164082D01*
X129199110Y-57159843D01*
X129358311Y-57156677D01*
X129548679Y-57154557D01*
X129760138Y-57153458D01*
X129982611Y-57153354D01*
X130206021Y-57154218D01*
G37*
G36*
X125660889Y-50507033D02*
G01*
X125676596Y-50525120D01*
X125664511Y-50566273D01*
X125632264Y-50650070D01*
X125585861Y-50761215D01*
X125565332Y-50808427D01*
X125515028Y-50926294D01*
X125476566Y-51022996D01*
X125455963Y-51083124D01*
X125454068Y-51093273D01*
X125441150Y-51139157D01*
X125408550Y-51217955D01*
X125390488Y-51256653D01*
X125351690Y-51348118D01*
X125329184Y-51422778D01*
X125326909Y-51441617D01*
X125315917Y-51500938D01*
X125287878Y-51593090D01*
X125267171Y-51650226D01*
X125219561Y-51793547D01*
X125170290Y-51974266D01*
X125125706Y-52166712D01*
X125092162Y-52345212D01*
X125087235Y-52377682D01*
X125065069Y-52517011D01*
X125042215Y-52603804D01*
X125011079Y-52648731D01*
X124964067Y-52662459D01*
X124893586Y-52655656D01*
X124889800Y-52655048D01*
X124845078Y-52642661D01*
X124824552Y-52614685D01*
X124826054Y-52556964D01*
X124847418Y-52455341D01*
X124854646Y-52425367D01*
X124878622Y-52319058D01*
X124896623Y-52225567D01*
X124900108Y-52202839D01*
X124929484Y-52043502D01*
X124975940Y-51858692D01*
X125016237Y-51725993D01*
X125056837Y-51599218D01*
X125097724Y-51466140D01*
X125105523Y-51439885D01*
X125135215Y-51347599D01*
X125161397Y-51280374D01*
X125169543Y-51265041D01*
X125193149Y-51215550D01*
X125223138Y-51134467D01*
X125228681Y-51117619D01*
X125261152Y-51035698D01*
X125314754Y-50919600D01*
X125379519Y-50790607D01*
X125399923Y-50752037D01*
X125472319Y-50624189D01*
X125527696Y-50545601D01*
X125573639Y-50506905D01*
X125605272Y-50498481D01*
X125660889Y-50507033D01*
G37*
G36*
X126825310Y-55951881D02*
G01*
X127007949Y-55954446D01*
X127140364Y-55959458D01*
X127229218Y-55967292D01*
X127281179Y-55978328D01*
X127302314Y-55991916D01*
X127327685Y-56054514D01*
X127304431Y-56096056D01*
X127226603Y-56122799D01*
X127169096Y-56132086D01*
X127008530Y-56153386D01*
X127018095Y-56284182D01*
X127027660Y-56414979D01*
X127239616Y-56424319D01*
X127353988Y-56431321D01*
X127421308Y-56443994D01*
X127458097Y-56468790D01*
X127480877Y-56512164D01*
X127483740Y-56519688D01*
X127511044Y-56592803D01*
X127551757Y-56701922D01*
X127597082Y-56823473D01*
X127597255Y-56823937D01*
X127634992Y-56933092D01*
X127659070Y-57018583D01*
X127664865Y-57063697D01*
X127664115Y-57065600D01*
X127629331Y-57073059D01*
X127540833Y-57080130D01*
X127408486Y-57086364D01*
X127242155Y-57091312D01*
X127051704Y-57094527D01*
X127020745Y-57094840D01*
X126391865Y-57100636D01*
X126320338Y-56988729D01*
X126275472Y-56911358D01*
X126250590Y-56854508D01*
X126248811Y-56844586D01*
X126230413Y-56813306D01*
X126224560Y-56812351D01*
X126213449Y-56810974D01*
X126201186Y-56801155D01*
X126182920Y-56774360D01*
X126153799Y-56722053D01*
X126108972Y-56635701D01*
X126043585Y-56506769D01*
X125986546Y-56393676D01*
X125908343Y-56233094D01*
X125860162Y-56118696D01*
X125839573Y-56041994D01*
X125844146Y-55994498D01*
X125865581Y-55971006D01*
X125904958Y-55965507D01*
X125998242Y-55960557D01*
X126135762Y-55956420D01*
X126307845Y-55953358D01*
X126504821Y-55951637D01*
X126585779Y-55951386D01*
X126825310Y-55951881D01*
G37*
G36*
X134799695Y-55925576D02*
G01*
X134902725Y-55934506D01*
X134964737Y-55947398D01*
X134975094Y-55954028D01*
X134973139Y-55983346D01*
X134962073Y-55985817D01*
X134942027Y-56008656D01*
X134945940Y-56028908D01*
X134943033Y-56080829D01*
X134905254Y-56166799D01*
X134830535Y-56290330D01*
X134716805Y-56454930D01*
X134605956Y-56605717D01*
X134478307Y-56775380D01*
X134380169Y-56900800D01*
X134302991Y-56988661D01*
X134238222Y-57045647D01*
X134177310Y-57078442D01*
X134111702Y-57093730D01*
X134032847Y-57098194D01*
X133975509Y-57098458D01*
X133865339Y-57095158D01*
X133785306Y-57086467D01*
X133751427Y-57074202D01*
X133751189Y-57073026D01*
X133769995Y-57028266D01*
X133778704Y-57017394D01*
X133807789Y-56974977D01*
X133855631Y-56895194D01*
X133902408Y-56812351D01*
X133964795Y-56700452D01*
X134044331Y-56559865D01*
X134126148Y-56416833D01*
X134145106Y-56383959D01*
X134209414Y-56270215D01*
X134259356Y-56177216D01*
X134287746Y-56118573D01*
X134291614Y-56106404D01*
X134318504Y-56081693D01*
X134371089Y-56062451D01*
X134427857Y-56037136D01*
X134443491Y-56017607D01*
X134482353Y-56017607D01*
X134507965Y-56046120D01*
X134528161Y-56049397D01*
X134582285Y-56030023D01*
X134593617Y-56017607D01*
X134583883Y-55992586D01*
X134547809Y-55985817D01*
X134495141Y-55998787D01*
X134482353Y-56017607D01*
X134443491Y-56017607D01*
X134452174Y-56006761D01*
X134434162Y-55987203D01*
X134418773Y-55985817D01*
X134387907Y-55961626D01*
X134386984Y-55954028D01*
X134416979Y-55938766D01*
X134499953Y-55927889D01*
X134625383Y-55922573D01*
X134671215Y-55922238D01*
X134799695Y-55925576D01*
G37*
G36*
X127651004Y-53534933D02*
G01*
X127836750Y-53535994D01*
X127995162Y-53538069D01*
X128116442Y-53541204D01*
X128190792Y-53545444D01*
X128209658Y-53549084D01*
X128215191Y-53562321D01*
X128221034Y-53594494D01*
X128227565Y-53650813D01*
X128235165Y-53736486D01*
X128244211Y-53856722D01*
X128255083Y-54016729D01*
X128268160Y-54221716D01*
X128283821Y-54476893D01*
X128302445Y-54787466D01*
X128314128Y-54984441D01*
X128326349Y-55182377D01*
X128338634Y-55365952D01*
X128350081Y-55522757D01*
X128359784Y-55640383D01*
X128366612Y-55704878D01*
X128383373Y-55821310D01*
X128182362Y-55840549D01*
X128088608Y-55846782D01*
X127944583Y-55852924D01*
X127763596Y-55858569D01*
X127558955Y-55863313D01*
X127343969Y-55866751D01*
X127307880Y-55867171D01*
X126634409Y-55874553D01*
X126584664Y-55770158D01*
X126550364Y-55676429D01*
X126534980Y-55591409D01*
X126534919Y-55587367D01*
X126539723Y-55542129D01*
X126564591Y-55518769D01*
X126625208Y-55510119D01*
X126706423Y-55508971D01*
X126877928Y-55508971D01*
X126892408Y-55373865D01*
X126895456Y-55283333D01*
X126885644Y-55219394D01*
X126879570Y-55208276D01*
X126835267Y-55191079D01*
X126747983Y-55177377D01*
X126658045Y-55171146D01*
X126550173Y-55162961D01*
X126467668Y-55148477D01*
X126433624Y-55134285D01*
X126409063Y-55080837D01*
X126383386Y-54975050D01*
X126357962Y-54828115D01*
X126334160Y-54651226D01*
X126313348Y-54455572D01*
X126296894Y-54252347D01*
X126286167Y-54052743D01*
X126282601Y-53899088D01*
X126282350Y-53753302D01*
X126285543Y-53658866D01*
X126294834Y-53603555D01*
X126312876Y-53575146D01*
X126342320Y-53561415D01*
X126356712Y-53557587D01*
X126408419Y-53552148D01*
X126511172Y-53547364D01*
X126655174Y-53543279D01*
X126830628Y-53539940D01*
X127027735Y-53537391D01*
X127236699Y-53535677D01*
X127447721Y-53534843D01*
X127651004Y-53534933D01*
G37*
G36*
X128112784Y-50517750D02*
G01*
X128291575Y-50520597D01*
X128451687Y-50524986D01*
X128581738Y-50530844D01*
X128670349Y-50538098D01*
X128705728Y-50546164D01*
X128720636Y-50597723D01*
X128714025Y-50686161D01*
X128711691Y-50698399D01*
X128700347Y-50757981D01*
X128691193Y-50818465D01*
X128683647Y-50889116D01*
X128677124Y-50979199D01*
X128671043Y-51097981D01*
X128664821Y-51254725D01*
X128657875Y-51458697D01*
X128651734Y-51651607D01*
X128641578Y-51944656D01*
X128631198Y-52178702D01*
X128620237Y-52358322D01*
X128608340Y-52488093D01*
X128595150Y-52572590D01*
X128580311Y-52616391D01*
X128576245Y-52621574D01*
X128539054Y-52628571D01*
X128448859Y-52635372D01*
X128316235Y-52641749D01*
X128151758Y-52647473D01*
X127966003Y-52652314D01*
X127769546Y-52656043D01*
X127572961Y-52658430D01*
X127386825Y-52659247D01*
X127221713Y-52658263D01*
X127088200Y-52655250D01*
X127065213Y-52654340D01*
X126848449Y-52644890D01*
X126865430Y-52415917D01*
X126883603Y-52231317D01*
X126911256Y-52026650D01*
X126946124Y-51812790D01*
X126985943Y-51600613D01*
X127028449Y-51400994D01*
X127071375Y-51224808D01*
X127112459Y-51082931D01*
X127149434Y-50986237D01*
X127170102Y-50952864D01*
X127211915Y-50936852D01*
X127298509Y-50919794D01*
X127411261Y-50905348D01*
X127412953Y-50905180D01*
X127527820Y-50892722D01*
X127593941Y-50878535D01*
X127625844Y-50854682D01*
X127638057Y-50813225D01*
X127641626Y-50780248D01*
X127637411Y-50698919D01*
X127609836Y-50671482D01*
X127537033Y-50664288D01*
X127430167Y-50656173D01*
X127318675Y-50649346D01*
X127305820Y-50648690D01*
X127248480Y-50625908D01*
X127237300Y-50581716D01*
X127276838Y-50540601D01*
X127285046Y-50537099D01*
X127336933Y-50529173D01*
X127438421Y-50523225D01*
X127578130Y-50519181D01*
X127744681Y-50516969D01*
X127926692Y-50516516D01*
X128112784Y-50517750D01*
G37*
G36*
X131479934Y-53423314D02*
G01*
X131534791Y-53433337D01*
X131555531Y-53457422D01*
X131557697Y-53478497D01*
X131574906Y-53528864D01*
X131611395Y-53534920D01*
X131632251Y-53514165D01*
X131669703Y-53502557D01*
X131749359Y-53498977D01*
X131808971Y-53501339D01*
X131904359Y-53510143D01*
X131952975Y-53527077D01*
X131971555Y-53563291D01*
X131975989Y-53612603D01*
X131979212Y-53736335D01*
X131978534Y-53883311D01*
X131974591Y-54039483D01*
X131968016Y-54190803D01*
X131959444Y-54323224D01*
X131949508Y-54422698D01*
X131938843Y-54475179D01*
X131936888Y-54478559D01*
X131919836Y-54519173D01*
X131923838Y-54529347D01*
X131927473Y-54565730D01*
X131924481Y-54650965D01*
X131915590Y-54770751D01*
X131907008Y-54860214D01*
X131890237Y-55024896D01*
X131873623Y-55193563D01*
X131859920Y-55338091D01*
X131855961Y-55381812D01*
X131842611Y-55510543D01*
X131826905Y-55631085D01*
X131815512Y-55699710D01*
X131793378Y-55810974D01*
X131427473Y-55819876D01*
X131281352Y-55821953D01*
X131159764Y-55820897D01*
X131076058Y-55817009D01*
X131043967Y-55811177D01*
X131035343Y-55767538D01*
X131036564Y-55669904D01*
X131047068Y-55527001D01*
X131066294Y-55347557D01*
X131081430Y-55228600D01*
X131094631Y-55107917D01*
X131108487Y-54943861D01*
X131121481Y-54756599D01*
X131132096Y-54566301D01*
X131133479Y-54536764D01*
X131154342Y-54077616D01*
X131303490Y-54082895D01*
X131421729Y-54080824D01*
X131489908Y-54059339D01*
X131520376Y-54011185D01*
X131525907Y-53952192D01*
X131518189Y-53891373D01*
X131482929Y-53859698D01*
X131404312Y-53840950D01*
X131313901Y-53829907D01*
X131246660Y-53828982D01*
X131238810Y-53830208D01*
X131207514Y-53809116D01*
X131182891Y-53743748D01*
X131168634Y-53653337D01*
X131168434Y-53557116D01*
X131176438Y-53505264D01*
X131193026Y-53460417D01*
X131226929Y-53436267D01*
X131295079Y-53425833D01*
X131376332Y-53422864D01*
X131479934Y-53423314D01*
G37*
G36*
X133122311Y-49376882D02*
G01*
X133241173Y-49387126D01*
X133335221Y-49403306D01*
X133383736Y-49422248D01*
X133447336Y-49448820D01*
X133557301Y-49464003D01*
X133721838Y-49468920D01*
X133725199Y-49468921D01*
X133860217Y-49469940D01*
X133948567Y-49476070D01*
X134007157Y-49491917D01*
X134052897Y-49522091D01*
X134102696Y-49571199D01*
X134103465Y-49572004D01*
X134201977Y-49675087D01*
X134127584Y-49695994D01*
X134053780Y-49708426D01*
X133945996Y-49717444D01*
X133875702Y-49720070D01*
X133746891Y-49727142D01*
X133622412Y-49742085D01*
X133510650Y-49762352D01*
X133419988Y-49785399D01*
X133358811Y-49808681D01*
X133335504Y-49829652D01*
X133358451Y-49845767D01*
X133433292Y-49854372D01*
X133512227Y-49859725D01*
X133560451Y-49866293D01*
X133618867Y-49875675D01*
X133645223Y-49878214D01*
X133682828Y-49889030D01*
X133667241Y-49907742D01*
X133607425Y-49928863D01*
X133539570Y-49942882D01*
X133459870Y-49964974D01*
X133412786Y-49995167D01*
X133409476Y-50001319D01*
X133424624Y-50043758D01*
X133500700Y-50075346D01*
X133635920Y-50095691D01*
X133828501Y-50104400D01*
X133880417Y-50104716D01*
X134027423Y-50107757D01*
X134133617Y-50116260D01*
X134189765Y-50129295D01*
X134196245Y-50136506D01*
X134168757Y-50160610D01*
X134108824Y-50171521D01*
X133940408Y-50182815D01*
X133814073Y-50205437D01*
X133708649Y-50244242D01*
X133645970Y-50277698D01*
X133475672Y-50346600D01*
X133366919Y-50358214D01*
X133277079Y-50353111D01*
X133226029Y-50328960D01*
X133189091Y-50270437D01*
X133174931Y-50239002D01*
X133136588Y-50151043D01*
X133106969Y-50082757D01*
X133102737Y-50072926D01*
X133070591Y-50009234D01*
X133013675Y-49906799D01*
X132940756Y-49780891D01*
X132860605Y-49646779D01*
X132819738Y-49580095D01*
X132773180Y-49494015D01*
X132749486Y-49427888D01*
X132750087Y-49404897D01*
X132792521Y-49386583D01*
X132880416Y-49376130D01*
X132996202Y-49373057D01*
X133122311Y-49376882D01*
G37*
G36*
X131882562Y-55935827D02*
G01*
X131924055Y-55991354D01*
X131939174Y-56049758D01*
X131955069Y-56160661D01*
X132225282Y-56160661D01*
X132495494Y-56160661D01*
X132505456Y-56057344D01*
X132514421Y-55996963D01*
X132537561Y-55966261D01*
X132591985Y-55955046D01*
X132680299Y-55953200D01*
X133046199Y-55951510D01*
X133353204Y-55950449D01*
X133605995Y-55950056D01*
X133809254Y-55950369D01*
X133967662Y-55951426D01*
X134085902Y-55953267D01*
X134168655Y-55955929D01*
X134220602Y-55959452D01*
X134246425Y-55963873D01*
X134250727Y-55966123D01*
X134230211Y-55974642D01*
X134158903Y-55981306D01*
X134049587Y-55985195D01*
X133977139Y-55985817D01*
X133829835Y-55989007D01*
X133736983Y-55998267D01*
X133702559Y-56013137D01*
X133703504Y-56017607D01*
X133742707Y-56032982D01*
X133828094Y-56044268D01*
X133942301Y-56049312D01*
X133959698Y-56049397D01*
X134087118Y-56052318D01*
X134161500Y-56062376D01*
X134193173Y-56081511D01*
X134196245Y-56093853D01*
X134181859Y-56143594D01*
X134145245Y-56227939D01*
X134096216Y-56327671D01*
X134044587Y-56423575D01*
X134000172Y-56496435D01*
X133975670Y-56525736D01*
X133947632Y-56560886D01*
X133901990Y-56634324D01*
X133864493Y-56701086D01*
X133801069Y-56817075D01*
X133736593Y-56932629D01*
X133709323Y-56980522D01*
X133639925Y-57101009D01*
X132749812Y-57091786D01*
X132508429Y-57089001D01*
X132279335Y-57085826D01*
X132072753Y-57082445D01*
X131898908Y-57079039D01*
X131768025Y-57075792D01*
X131690328Y-57072885D01*
X131689560Y-57072842D01*
X131591902Y-57065088D01*
X131544068Y-57051533D01*
X131532320Y-57024946D01*
X131538575Y-56993368D01*
X131555757Y-56915779D01*
X131573363Y-56814687D01*
X131576081Y-56796456D01*
X131594810Y-56697388D01*
X131617436Y-56616322D01*
X131621582Y-56605717D01*
X131647154Y-56526480D01*
X131664738Y-56446769D01*
X131696994Y-56276505D01*
X131731891Y-56129068D01*
X131765428Y-56020342D01*
X131781495Y-55983445D01*
X131830821Y-55931415D01*
X131882562Y-55935827D01*
G37*
G36*
X134635923Y-52836194D02*
G01*
X134756765Y-52836963D01*
X134832855Y-52838265D01*
X134863830Y-52839793D01*
X134880185Y-52846093D01*
X134843437Y-52854320D01*
X134764001Y-52863670D01*
X134652296Y-52873338D01*
X134518737Y-52882520D01*
X134373743Y-52890412D01*
X134227729Y-52896210D01*
X134096330Y-52899058D01*
X133947928Y-52902586D01*
X133851907Y-52910695D01*
X133797130Y-52925178D01*
X133772459Y-52947826D01*
X133770897Y-52951423D01*
X133770604Y-52967966D01*
X133789208Y-52980277D01*
X133834242Y-52988899D01*
X133913244Y-52994372D01*
X134033748Y-52997237D01*
X134203290Y-52998035D01*
X134411238Y-52997398D01*
X134668497Y-52997567D01*
X134877946Y-53001645D01*
X135055296Y-53010775D01*
X135216256Y-53026098D01*
X135376537Y-53048756D01*
X135551849Y-53079890D01*
X135555257Y-53080539D01*
X135616140Y-53104109D01*
X135620099Y-53132646D01*
X135571661Y-53154806D01*
X135523467Y-53160198D01*
X135441962Y-53164892D01*
X135388946Y-53171118D01*
X135388360Y-53171251D01*
X135346577Y-53174227D01*
X135253569Y-53177349D01*
X135121689Y-53180303D01*
X134963291Y-53182779D01*
X134903567Y-53183478D01*
X134718536Y-53187610D01*
X134577037Y-53195278D01*
X134485590Y-53205955D01*
X134450717Y-53219115D01*
X134450563Y-53220110D01*
X134479207Y-53237993D01*
X134552674Y-53249524D01*
X134614810Y-53251900D01*
X134702324Y-53255642D01*
X134752337Y-53265264D01*
X134757008Y-53273949D01*
X134744648Y-53278568D01*
X134715430Y-53282864D01*
X134666785Y-53286864D01*
X134596143Y-53290595D01*
X134500935Y-53294083D01*
X134378589Y-53297354D01*
X134226536Y-53300434D01*
X134042208Y-53303349D01*
X133823032Y-53306126D01*
X133566441Y-53308791D01*
X133269863Y-53311371D01*
X132930730Y-53313891D01*
X132546471Y-53316377D01*
X132114516Y-53318857D01*
X131632296Y-53321355D01*
X131097240Y-53323899D01*
X130506780Y-53326515D01*
X129858344Y-53329229D01*
X129149364Y-53332067D01*
X129014518Y-53332595D01*
X128503523Y-53334654D01*
X128009733Y-53336764D01*
X127536916Y-53338903D01*
X127088841Y-53341050D01*
X126669277Y-53343182D01*
X126281989Y-53345278D01*
X125930748Y-53347315D01*
X125619321Y-53349270D01*
X125351476Y-53351123D01*
X125130981Y-53352850D01*
X124961603Y-53354431D01*
X124847113Y-53355841D01*
X124791276Y-53357061D01*
X124786483Y-53357393D01*
X124730747Y-53360228D01*
X124634444Y-53358994D01*
X124540424Y-53355055D01*
X124406850Y-53338964D01*
X124326177Y-53301783D01*
X124288695Y-53233471D01*
X124284693Y-53123990D01*
X124287338Y-53093410D01*
X124289351Y-53056078D01*
X124289972Y-53023154D01*
X124292961Y-52994358D01*
X124302078Y-52969408D01*
X124321085Y-52948023D01*
X124353742Y-52929921D01*
X124403811Y-52914823D01*
X124475051Y-52902446D01*
X124571223Y-52892509D01*
X124696089Y-52884732D01*
X124853408Y-52878832D01*
X125046942Y-52874529D01*
X125280451Y-52871542D01*
X125557697Y-52869590D01*
X125882439Y-52868391D01*
X126258439Y-52867663D01*
X126689456Y-52867127D01*
X127179253Y-52866501D01*
X127325333Y-52866275D01*
X127778760Y-52865473D01*
X128232601Y-52864554D01*
X128680309Y-52863537D01*
X129115335Y-52862442D01*
X129531131Y-52861290D01*
X129921150Y-52860099D01*
X130278844Y-52858889D01*
X130597664Y-52857681D01*
X130871062Y-52856494D01*
X131092491Y-52855348D01*
X131223905Y-52854502D01*
X131832225Y-52850134D01*
X132378850Y-52846367D01*
X132865664Y-52843194D01*
X133294549Y-52840606D01*
X133667388Y-52838598D01*
X133986062Y-52837159D01*
X134252454Y-52836285D01*
X134468447Y-52835965D01*
X134635923Y-52836194D01*
G37*
G36*
X131040506Y-48760688D02*
G01*
X131170985Y-48785861D01*
X131316575Y-48821869D01*
X131462374Y-48865143D01*
X131593480Y-48912116D01*
X131666918Y-48944488D01*
X131807242Y-49014854D01*
X131907260Y-49069691D01*
X131984225Y-49120472D01*
X132055391Y-49178673D01*
X132138011Y-49255766D01*
X132144796Y-49262288D01*
X132333526Y-49464027D01*
X132483561Y-49674098D01*
X132608936Y-49913960D01*
X132675012Y-50072926D01*
X132693622Y-50155092D01*
X132707099Y-50281305D01*
X132715310Y-50435132D01*
X132718120Y-50600137D01*
X132715394Y-50759883D01*
X132706998Y-50897937D01*
X132692797Y-50997862D01*
X132682847Y-51029797D01*
X132593997Y-51219972D01*
X132522458Y-51364340D01*
X132460256Y-51475430D01*
X132399414Y-51565768D01*
X132331958Y-51647883D01*
X132249912Y-51734302D01*
X132207386Y-51776671D01*
X132083570Y-51895317D01*
X131980548Y-51982189D01*
X131876822Y-52052355D01*
X131750893Y-52120886D01*
X131637171Y-52176357D01*
X131547190Y-52219974D01*
X131476089Y-52255692D01*
X131461461Y-52263432D01*
X131407332Y-52281893D01*
X131310660Y-52305528D01*
X131191675Y-52329428D01*
X131183301Y-52330936D01*
X131072250Y-52354135D01*
X130990731Y-52377553D01*
X130954307Y-52396602D01*
X130953692Y-52398668D01*
X130981852Y-52416477D01*
X131056562Y-52419242D01*
X131163168Y-52409131D01*
X131287015Y-52388313D01*
X131413447Y-52358957D01*
X131527811Y-52323233D01*
X131565969Y-52308047D01*
X131645034Y-52280190D01*
X131697660Y-52273127D01*
X131705314Y-52276279D01*
X131716491Y-52316878D01*
X131723674Y-52399473D01*
X131725123Y-52463670D01*
X131725123Y-52631251D01*
X131211965Y-52641434D01*
X131017306Y-52644553D01*
X130877092Y-52644534D01*
X130782235Y-52640707D01*
X130723649Y-52632398D01*
X130692245Y-52618935D01*
X130679795Y-52602072D01*
X130674935Y-52520155D01*
X130726787Y-52460855D01*
X130795097Y-52436422D01*
X130863908Y-52417462D01*
X130869254Y-52400781D01*
X130811108Y-52386362D01*
X130709705Y-52375709D01*
X130544270Y-52360122D01*
X130416970Y-52340490D01*
X130302362Y-52312071D01*
X130211697Y-52282918D01*
X129926968Y-52158568D01*
X129664024Y-51991878D01*
X129433871Y-51792047D01*
X129247510Y-51568272D01*
X129142580Y-51389187D01*
X129070539Y-51236158D01*
X129022197Y-51120591D01*
X128991642Y-51023685D01*
X128972960Y-50926640D01*
X128960240Y-50810654D01*
X128960081Y-50808866D01*
X128951992Y-50699787D01*
X128954201Y-50640553D01*
X128969651Y-50617855D01*
X129001284Y-50618387D01*
X129002147Y-50618552D01*
X129052438Y-50649209D01*
X129063142Y-50677356D01*
X129086612Y-50846350D01*
X129145959Y-51040583D01*
X129227502Y-51224457D01*
X129293470Y-51336501D01*
X129377675Y-51457032D01*
X129470108Y-51574245D01*
X129560764Y-51676332D01*
X129639635Y-51751488D01*
X129696714Y-51787904D01*
X129706474Y-51789572D01*
X129743121Y-51804902D01*
X129745739Y-51813414D01*
X129773581Y-51850942D01*
X129848214Y-51902746D01*
X129956494Y-51961876D01*
X130085281Y-52021382D01*
X130221433Y-52074314D01*
X130269172Y-52090247D01*
X130495355Y-52143467D01*
X130741644Y-52170005D01*
X130989391Y-52170050D01*
X131219949Y-52143791D01*
X131414671Y-52091414D01*
X131446433Y-52078369D01*
X131515770Y-52047827D01*
X131609946Y-52006331D01*
X131637171Y-51994334D01*
X131767793Y-51928949D01*
X131887648Y-51849173D01*
X132014166Y-51742081D01*
X132134130Y-51625802D01*
X132322936Y-51391909D01*
X132460814Y-51126115D01*
X132544978Y-50838046D01*
X132572642Y-50537331D01*
X132541021Y-50233598D01*
X132539329Y-50225492D01*
X132496534Y-50071348D01*
X132434716Y-49908586D01*
X132362748Y-49756675D01*
X132289501Y-49635084D01*
X132246264Y-49582383D01*
X132178503Y-49509699D01*
X132125333Y-49444658D01*
X132124604Y-49443639D01*
X132058899Y-49374167D01*
X131955309Y-49288774D01*
X131832273Y-49201034D01*
X131708229Y-49124521D01*
X131648618Y-49093274D01*
X131528025Y-49038885D01*
X131392030Y-48983306D01*
X131256782Y-48932463D01*
X131138433Y-48892280D01*
X131053133Y-48868681D01*
X131026083Y-48864916D01*
X130992383Y-48873926D01*
X131017809Y-48900189D01*
X131100629Y-48942558D01*
X131215957Y-48990811D01*
X131321029Y-49036982D01*
X131377406Y-49076544D01*
X131397767Y-49119491D01*
X131398748Y-49134929D01*
X131378782Y-49209906D01*
X131351064Y-49246393D01*
X131311107Y-49292170D01*
X131303379Y-49313640D01*
X131290482Y-49351912D01*
X131255481Y-49434763D01*
X131203911Y-49549516D01*
X131148952Y-49667382D01*
X131085082Y-49803489D01*
X131030369Y-49922395D01*
X130991244Y-50009980D01*
X130975106Y-50049084D01*
X130946444Y-50100493D01*
X130919448Y-50090976D01*
X130895949Y-50023185D01*
X130878746Y-49909314D01*
X130870068Y-49794338D01*
X130863899Y-49647914D01*
X130860179Y-49482119D01*
X130858847Y-49309029D01*
X130859844Y-49140721D01*
X130863110Y-48989271D01*
X130868583Y-48866755D01*
X130876205Y-48785250D01*
X130884495Y-48757124D01*
X130940042Y-48749920D01*
X131040506Y-48760688D01*
G37*
G36*
X133587682Y-53523579D02*
G01*
X133803661Y-53528894D01*
X134061127Y-53534924D01*
X134337997Y-53541169D01*
X134612189Y-53547130D01*
X134844468Y-53551964D01*
X135072978Y-53558027D01*
X135267038Y-53566069D01*
X135419547Y-53575632D01*
X135523403Y-53586262D01*
X135571506Y-53597504D01*
X135573000Y-53598667D01*
X135586707Y-53625224D01*
X135561927Y-53644965D01*
X135491578Y-53659774D01*
X135368581Y-53671532D01*
X135277096Y-53677314D01*
X135160452Y-53684615D01*
X135070752Y-53691514D01*
X135024915Y-53696685D01*
X135022778Y-53697264D01*
X134982560Y-53700145D01*
X134920062Y-53697992D01*
X134826883Y-53701674D01*
X134764861Y-53713994D01*
X134724610Y-53738428D01*
X134738243Y-53763342D01*
X134796357Y-53783112D01*
X134889551Y-53792117D01*
X134895619Y-53792189D01*
X135032145Y-53799686D01*
X135145030Y-53817941D01*
X135220571Y-53843846D01*
X135245307Y-53871531D01*
X135215764Y-53897000D01*
X135136126Y-53919967D01*
X135019875Y-53938067D01*
X134880494Y-53948935D01*
X134792303Y-53950998D01*
X134715652Y-53958135D01*
X134675042Y-53975486D01*
X134673091Y-53980810D01*
X134703189Y-54006419D01*
X134786776Y-54032241D01*
X134913796Y-54056454D01*
X135074191Y-54077236D01*
X135257906Y-54092765D01*
X135306984Y-54095650D01*
X135438121Y-54103893D01*
X135543147Y-54112797D01*
X135607418Y-54121002D01*
X135620117Y-54124750D01*
X135623936Y-54158640D01*
X135580352Y-54188403D01*
X135505326Y-54204708D01*
X135481853Y-54205592D01*
X135400306Y-54216303D01*
X135372559Y-54250290D01*
X135372466Y-54253277D01*
X135357201Y-54281041D01*
X135303752Y-54297278D01*
X135200633Y-54305024D01*
X135173780Y-54305803D01*
X135064390Y-54309466D01*
X134979947Y-54314116D01*
X134943304Y-54318031D01*
X134885803Y-54326343D01*
X134853233Y-54329084D01*
X134810939Y-54349371D01*
X134808080Y-54372488D01*
X134848446Y-54396245D01*
X134952006Y-54414762D01*
X135118590Y-54428009D01*
X135120679Y-54428120D01*
X135281787Y-54439369D01*
X135381814Y-54452152D01*
X135423216Y-54465673D01*
X135408449Y-54479137D01*
X135339969Y-54491746D01*
X135220232Y-54502704D01*
X135051694Y-54511214D01*
X134848762Y-54516305D01*
X134661727Y-54520789D01*
X134497308Y-54527837D01*
X134366082Y-54536750D01*
X134278627Y-54546833D01*
X134246346Y-54556042D01*
X134226621Y-54590324D01*
X134248214Y-54616134D01*
X134315845Y-54634357D01*
X134434233Y-54645876D01*
X134608098Y-54651576D01*
X134761822Y-54652577D01*
X134939871Y-54654471D01*
X135088043Y-54659887D01*
X135196332Y-54668214D01*
X135254730Y-54678837D01*
X135261662Y-54683182D01*
X135262703Y-54731065D01*
X135238766Y-54801521D01*
X135196842Y-54889071D01*
X134721921Y-54897073D01*
X134552407Y-54901928D01*
X134405429Y-54909913D01*
X134292896Y-54920094D01*
X134226715Y-54931536D01*
X134215265Y-54936810D01*
X134228031Y-54952885D01*
X134303971Y-54963349D01*
X134442926Y-54968186D01*
X134507785Y-54968546D01*
X134657522Y-54971513D01*
X134766052Y-54979829D01*
X134824441Y-54992619D01*
X134832040Y-55000335D01*
X134801279Y-55013618D01*
X134712988Y-55023630D01*
X134573149Y-55029942D01*
X134388860Y-55032125D01*
X134220137Y-55034249D01*
X134080159Y-55040137D01*
X133979751Y-55049068D01*
X133929742Y-55060318D01*
X133926609Y-55062983D01*
X133929010Y-55089734D01*
X133976647Y-55108895D01*
X134073340Y-55120777D01*
X134222911Y-55125686D01*
X134429181Y-55123933D01*
X134615803Y-55118690D01*
X135152691Y-55100527D01*
X135131470Y-55169643D01*
X135114602Y-55220243D01*
X135092330Y-55247540D01*
X135047701Y-55258419D01*
X134963760Y-55259771D01*
X134911193Y-55259137D01*
X134767392Y-55269009D01*
X134665562Y-55300369D01*
X134614109Y-55350029D01*
X134609512Y-55373564D01*
X134582601Y-55405174D01*
X134537985Y-55414595D01*
X134478890Y-55416513D01*
X134371819Y-55420985D01*
X134232293Y-55427330D01*
X134084981Y-55434418D01*
X133899828Y-55446545D01*
X133772394Y-55462675D01*
X133696860Y-55484411D01*
X133667412Y-55513354D01*
X133675688Y-55547191D01*
X133711060Y-55555438D01*
X133799429Y-55562564D01*
X133930219Y-55568098D01*
X134092852Y-55571571D01*
X134245806Y-55572551D01*
X134478583Y-55574454D01*
X134648175Y-55580176D01*
X134754863Y-55589733D01*
X134798926Y-55603142D01*
X134800250Y-55606387D01*
X134769296Y-55622654D01*
X134676194Y-55630115D01*
X134520581Y-55628790D01*
X134465146Y-55626823D01*
X134314374Y-55621791D01*
X134214710Y-55622188D01*
X134153796Y-55629602D01*
X134119276Y-55645625D01*
X134098793Y-55671847D01*
X134097552Y-55674130D01*
X134079219Y-55698881D01*
X134048244Y-55715626D01*
X133993780Y-55725712D01*
X133904976Y-55730488D01*
X133770985Y-55731302D01*
X133645861Y-55730251D01*
X133451212Y-55728222D01*
X133311157Y-55727570D01*
X133216713Y-55729060D01*
X133158896Y-55733457D01*
X133128726Y-55741528D01*
X133117217Y-55754038D01*
X133115389Y-55771754D01*
X133115394Y-55775476D01*
X133097361Y-55813001D01*
X133037800Y-55832800D01*
X132928517Y-55836641D01*
X132849278Y-55832917D01*
X132694425Y-55823070D01*
X132713924Y-55721653D01*
X132733753Y-55624843D01*
X132759106Y-55508727D01*
X132766268Y-55477182D01*
X132801012Y-55307983D01*
X132836687Y-55103301D01*
X132871186Y-54878812D01*
X132902401Y-54650189D01*
X132928224Y-54433107D01*
X132946547Y-54243240D01*
X132955262Y-54096263D01*
X132955691Y-54068668D01*
X132960177Y-53920992D01*
X132971408Y-53779159D01*
X132987190Y-53668795D01*
X132991624Y-53648982D01*
X133026803Y-53509273D01*
X133587682Y-53523579D01*
G37*
D13*
%TO.C,J2*%
X98857000Y-76276000D02*
X98857000Y-104064000D01*
X91643000Y-76276000D02*
X98857000Y-76276000D01*
X98857000Y-104064000D02*
X91643000Y-104064000D01*
X91643000Y-104064000D02*
X91643000Y-76276000D01*
D14*
X90208480Y-79735680D02*
G75*
G03*
X90208480Y-79735680I-100000J0D01*
G01*
D13*
%TO.C,J3*%
X142607000Y-61606000D02*
X142607000Y-89394000D01*
X135393000Y-61606000D02*
X142607000Y-61606000D01*
X142607000Y-89394000D02*
X135393000Y-89394000D01*
X135393000Y-89394000D02*
X135393000Y-61606000D01*
D14*
X133958480Y-65065680D02*
G75*
G03*
X133958480Y-65065680I-100000J0D01*
G01*
%TO.C,G\u002A\u002A\u002A*%
G36*
X139858737Y-99354375D02*
G01*
X129279663Y-99354375D01*
X129279663Y-99277715D01*
X139858737Y-99277715D01*
X139858737Y-99354375D01*
G37*
G36*
X140420911Y-95917453D02*
G01*
X140321998Y-95917453D01*
X140304652Y-95764133D01*
X140075941Y-95764133D01*
X140075941Y-96542241D01*
X140229261Y-96559587D01*
X140229261Y-96658499D01*
X139692641Y-96658499D01*
X139692641Y-96559587D01*
X139845961Y-96542241D01*
X139845961Y-95764133D01*
X139617250Y-95764133D01*
X139599904Y-95917453D01*
X139500991Y-95917453D01*
X139500991Y-95636367D01*
X140420911Y-95636367D01*
X140420911Y-95917453D01*
G37*
G36*
X135987410Y-91005002D02*
G01*
X135987410Y-93445800D01*
X135645089Y-93787260D01*
X135302768Y-94128721D01*
X133834368Y-94128721D01*
X133486291Y-93780471D01*
X133138214Y-93432222D01*
X133138214Y-93138112D01*
X133840931Y-93138112D01*
X134115193Y-93413228D01*
X135022335Y-93413228D01*
X135153514Y-93282495D01*
X135284693Y-93151763D01*
X135284693Y-91299108D01*
X135010431Y-91023992D01*
X134128805Y-91023992D01*
X133840931Y-91311050D01*
X133840931Y-93138112D01*
X133138214Y-93138112D01*
X133138214Y-91017430D01*
X133486464Y-90669353D01*
X133834713Y-90321276D01*
X135304036Y-90321276D01*
X135987410Y-91005002D01*
G37*
G36*
X132537711Y-97652570D02*
G01*
X132461051Y-97661467D01*
X132384391Y-97670365D01*
X132384391Y-98457108D01*
X132457857Y-98468141D01*
X132499058Y-98474984D01*
X132521365Y-98482902D01*
X132531157Y-98496749D01*
X132534811Y-98521381D01*
X132535288Y-98527086D01*
X132539254Y-98574998D01*
X132001092Y-98574998D01*
X132001092Y-98529879D01*
X132002460Y-98503513D01*
X132010176Y-98487274D01*
X132029656Y-98477461D01*
X132066316Y-98470373D01*
X132093722Y-98466568D01*
X132154412Y-98458443D01*
X132154412Y-97670365D01*
X132077752Y-97661467D01*
X132001092Y-97652570D01*
X132001092Y-97552866D01*
X132537711Y-97552866D01*
X132537711Y-97652570D01*
G37*
G36*
X135078000Y-91246023D02*
G01*
X135182480Y-91353063D01*
X135182480Y-93096934D01*
X135078000Y-93203974D01*
X134973521Y-93311015D01*
X134166171Y-93311015D01*
X134061046Y-93205340D01*
X133955921Y-93099666D01*
X133955921Y-93073959D01*
X134032581Y-93073959D01*
X134191551Y-93234355D01*
X134945424Y-93234355D01*
X135025622Y-93154870D01*
X135105820Y-93075384D01*
X135105820Y-91375992D01*
X134934020Y-91202866D01*
X134205707Y-91202866D01*
X134119144Y-91288765D01*
X134032581Y-91374665D01*
X134032581Y-93073959D01*
X133955921Y-93073959D01*
X133955921Y-91349233D01*
X134061595Y-91244108D01*
X134167269Y-91138982D01*
X134973521Y-91138982D01*
X135078000Y-91246023D01*
G37*
G36*
X138568295Y-97833952D02*
G01*
X138469382Y-97833952D01*
X138452036Y-97680632D01*
X138223325Y-97680632D01*
X138223325Y-98457108D01*
X138296791Y-98468141D01*
X138337992Y-98474984D01*
X138360299Y-98482902D01*
X138370090Y-98496749D01*
X138373744Y-98521381D01*
X138374222Y-98527086D01*
X138378187Y-98574998D01*
X137838483Y-98574998D01*
X137842448Y-98527086D01*
X137845688Y-98500099D01*
X137853963Y-98484735D01*
X137873652Y-98476140D01*
X137911132Y-98469458D01*
X137919879Y-98468141D01*
X137993345Y-98457108D01*
X137993345Y-97680632D01*
X137765874Y-97680632D01*
X137748080Y-97833952D01*
X137648375Y-97833952D01*
X137648375Y-97552866D01*
X138568295Y-97552866D01*
X138568295Y-97833952D01*
G37*
G36*
X135768409Y-90531958D02*
G01*
X136153506Y-90921513D01*
X136153506Y-93509207D01*
X135760548Y-93902012D01*
X135367589Y-94294817D01*
X133754429Y-94294817D01*
X133370141Y-93901935D01*
X132985854Y-93509053D01*
X132985840Y-93470563D01*
X133048778Y-93470563D01*
X133796050Y-94218157D01*
X135342353Y-94218157D01*
X136076585Y-93483499D01*
X136085216Y-92220804D01*
X136093846Y-90958108D01*
X135724488Y-90588586D01*
X135355130Y-90219063D01*
X133783598Y-90219063D01*
X133416188Y-90586309D01*
X133048778Y-90953556D01*
X133048778Y-93470563D01*
X132985840Y-93470563D01*
X132985374Y-92212143D01*
X132984894Y-90915234D01*
X133371466Y-90528818D01*
X133758037Y-90142403D01*
X135383311Y-90142403D01*
X135768409Y-90531958D01*
G37*
G36*
X137533385Y-97650943D02*
G01*
X137459920Y-97662593D01*
X137386454Y-97674244D01*
X137379700Y-98457054D01*
X137453349Y-98468114D01*
X137494613Y-98474962D01*
X137516974Y-98482862D01*
X137526803Y-98496655D01*
X137530468Y-98521179D01*
X137530962Y-98527086D01*
X137534928Y-98574998D01*
X136996766Y-98574998D01*
X136996766Y-98529879D01*
X136998134Y-98503513D01*
X137005851Y-98487274D01*
X137025331Y-98477461D01*
X137061990Y-98470373D01*
X137089396Y-98466568D01*
X137150086Y-98458443D01*
X137150086Y-97670756D01*
X137076620Y-97659723D01*
X137035474Y-97652917D01*
X137013549Y-97645288D01*
X137004795Y-97632243D01*
X137003159Y-97609190D01*
X137003154Y-97603972D01*
X137003154Y-97559254D01*
X137268270Y-97555801D01*
X137533385Y-97552347D01*
X137533385Y-97650943D01*
G37*
G36*
X134786403Y-95735279D02*
G01*
X134709744Y-95743952D01*
X134633084Y-95752625D01*
X134633084Y-96140925D01*
X134633489Y-96254763D01*
X134634669Y-96351881D01*
X134636565Y-96430472D01*
X134639121Y-96488734D01*
X134642280Y-96524859D01*
X134645556Y-96536933D01*
X134664722Y-96542812D01*
X134699653Y-96549198D01*
X134722216Y-96552243D01*
X134786403Y-96559845D01*
X134786403Y-96658499D01*
X134248241Y-96658499D01*
X134252207Y-96610587D01*
X134255447Y-96583600D01*
X134263722Y-96568236D01*
X134283411Y-96559641D01*
X134320891Y-96552959D01*
X134329638Y-96551642D01*
X134403104Y-96540609D01*
X134403104Y-95754257D01*
X134329638Y-95743224D01*
X134288437Y-95736381D01*
X134266130Y-95728463D01*
X134256339Y-95714616D01*
X134252684Y-95689984D01*
X134252207Y-95684279D01*
X134248241Y-95636367D01*
X134786403Y-95636367D01*
X134786403Y-95735279D01*
G37*
G36*
X138414975Y-95917453D02*
G01*
X138314327Y-95917453D01*
X138306202Y-95856764D01*
X138300017Y-95812925D01*
X138292170Y-95785675D01*
X138277258Y-95771079D01*
X138249879Y-95765203D01*
X138204630Y-95764111D01*
X138179008Y-95764133D01*
X138070005Y-95764133D01*
X138070005Y-96541671D01*
X138140277Y-96550451D01*
X138210548Y-96559230D01*
X138210548Y-96658499D01*
X137686705Y-96658499D01*
X137686705Y-96559230D01*
X137756977Y-96550451D01*
X137827249Y-96541671D01*
X137827249Y-95764133D01*
X137718890Y-95764133D01*
X137665737Y-95764030D01*
X137632468Y-95766802D01*
X137613472Y-95777075D01*
X137603140Y-95799475D01*
X137595862Y-95838625D01*
X137591038Y-95869541D01*
X137584268Y-95900423D01*
X137571695Y-95914009D01*
X137544718Y-95917377D01*
X137532806Y-95917453D01*
X137482279Y-95917453D01*
X137482279Y-95636367D01*
X138414975Y-95636367D01*
X138414975Y-95917453D01*
G37*
G36*
X141391937Y-95904676D02*
G01*
X141291672Y-95904676D01*
X141281010Y-95837599D01*
X141270347Y-95770522D01*
X140893647Y-95763450D01*
X140893647Y-96071732D01*
X141011831Y-96068058D01*
X141130015Y-96064385D01*
X141141395Y-95997307D01*
X141148880Y-95958451D01*
X141157637Y-95938534D01*
X141172784Y-95931236D01*
X141195695Y-95930230D01*
X141238617Y-95930230D01*
X141238617Y-96313530D01*
X141194339Y-96313530D01*
X141168021Y-96312207D01*
X141153838Y-96303889D01*
X141146404Y-96282052D01*
X141141586Y-96249646D01*
X141133111Y-96185763D01*
X140893647Y-96185763D01*
X140893647Y-96531416D01*
X141270347Y-96524344D01*
X141281010Y-96457267D01*
X141291672Y-96390190D01*
X141391937Y-96390190D01*
X141391937Y-96658499D01*
X140510347Y-96658499D01*
X140510347Y-96559587D01*
X140663667Y-96542241D01*
X140663667Y-95754257D01*
X140590201Y-95743224D01*
X140549000Y-95736381D01*
X140526693Y-95728463D01*
X140516902Y-95714616D01*
X140513248Y-95689984D01*
X140512770Y-95684279D01*
X140508805Y-95636367D01*
X141391937Y-95636367D01*
X141391937Y-95904676D01*
G37*
G36*
X131055619Y-95904676D02*
G01*
X130955244Y-95904676D01*
X130946464Y-95834405D01*
X130937684Y-95764133D01*
X130556518Y-95764133D01*
X130560118Y-95914259D01*
X130563717Y-96064385D01*
X130793517Y-96064385D01*
X130806996Y-96000501D01*
X130816375Y-95962505D01*
X130827304Y-95942886D01*
X130845284Y-95934777D01*
X130861387Y-95932614D01*
X130902299Y-95928611D01*
X130902299Y-96313530D01*
X130858779Y-96313530D01*
X130832893Y-96312142D01*
X130818866Y-96303632D01*
X130811359Y-96281480D01*
X130806474Y-96249646D01*
X130797688Y-96185763D01*
X130557329Y-96185763D01*
X130557329Y-96530733D01*
X130937684Y-96530733D01*
X130946464Y-96460461D01*
X130955244Y-96390190D01*
X131055619Y-96390190D01*
X131055619Y-96658499D01*
X130172487Y-96658499D01*
X130176452Y-96610587D01*
X130179692Y-96583600D01*
X130187967Y-96568236D01*
X130207656Y-96559641D01*
X130245136Y-96552959D01*
X130253883Y-96551642D01*
X130327349Y-96540609D01*
X130327349Y-95754257D01*
X130253883Y-95743224D01*
X130212683Y-95736381D01*
X130190376Y-95728463D01*
X130180584Y-95714616D01*
X130176930Y-95689984D01*
X130176452Y-95684279D01*
X130172487Y-95636367D01*
X131055619Y-95636367D01*
X131055619Y-95904676D01*
G37*
G36*
X134773627Y-97821175D02*
G01*
X134673252Y-97821175D01*
X134664472Y-97750904D01*
X134655693Y-97680632D01*
X134274526Y-97680632D01*
X134278126Y-97830758D01*
X134281725Y-97980884D01*
X134511525Y-97980884D01*
X134525004Y-97917000D01*
X134534383Y-97879004D01*
X134545312Y-97859385D01*
X134563292Y-97851276D01*
X134579395Y-97849113D01*
X134620307Y-97845110D01*
X134620307Y-98230029D01*
X134577235Y-98230029D01*
X134551609Y-98228621D01*
X134537747Y-98220048D01*
X134530383Y-98197782D01*
X134525688Y-98166145D01*
X134517213Y-98102262D01*
X134275337Y-98102262D01*
X134275337Y-98447232D01*
X134655693Y-98447232D01*
X134664472Y-98376960D01*
X134673252Y-98306689D01*
X134773627Y-98306689D01*
X134773627Y-98574998D01*
X133892037Y-98574998D01*
X133892037Y-98529879D01*
X133893406Y-98503513D01*
X133901122Y-98487274D01*
X133920602Y-98477461D01*
X133957262Y-98470373D01*
X133984668Y-98466568D01*
X134045357Y-98458443D01*
X134045357Y-97670756D01*
X133971891Y-97659723D01*
X133930745Y-97652917D01*
X133908821Y-97645288D01*
X133900067Y-97632243D01*
X133898431Y-97609190D01*
X133898426Y-97603972D01*
X133898426Y-97559254D01*
X134336026Y-97555892D01*
X134773627Y-97552530D01*
X134773627Y-97821175D01*
G37*
G36*
X139207128Y-97652135D02*
G01*
X139135888Y-97661035D01*
X139091724Y-97669126D01*
X139071342Y-97679207D01*
X139070433Y-97684867D01*
X139079130Y-97700593D01*
X139098997Y-97733434D01*
X139127348Y-97779035D01*
X139161495Y-97833042D01*
X139172789Y-97850733D01*
X139211000Y-97910153D01*
X139238051Y-97950657D01*
X139256471Y-97974906D01*
X139268793Y-97985560D01*
X139277548Y-97985279D01*
X139285267Y-97976723D01*
X139288290Y-97972111D01*
X139302329Y-97949951D01*
X139326506Y-97911546D01*
X139357412Y-97862321D01*
X139391199Y-97808399D01*
X139475177Y-97674244D01*
X139405036Y-97662593D01*
X139334894Y-97650943D01*
X139334894Y-97552866D01*
X139782078Y-97552866D01*
X139782078Y-97652135D01*
X139712397Y-97660840D01*
X139642717Y-97669546D01*
X139495194Y-97898548D01*
X139347671Y-98127549D01*
X139347671Y-98458443D01*
X139408360Y-98466568D01*
X139456001Y-98473698D01*
X139483667Y-98481643D01*
X139496776Y-98494104D01*
X139500743Y-98514783D01*
X139500991Y-98529879D01*
X139500991Y-98574998D01*
X138962829Y-98574998D01*
X138966794Y-98527086D01*
X138970034Y-98500099D01*
X138978309Y-98484735D01*
X138997998Y-98476140D01*
X139035478Y-98469458D01*
X139044225Y-98468141D01*
X139117691Y-98457108D01*
X139117691Y-98140692D01*
X138809463Y-97669496D01*
X138739985Y-97660815D01*
X138670508Y-97652135D01*
X138670508Y-97552866D01*
X139207128Y-97552866D01*
X139207128Y-97652135D01*
G37*
G36*
X131268803Y-97815656D02*
G01*
X131324459Y-97893142D01*
X131378772Y-97968773D01*
X131428820Y-98038477D01*
X131471680Y-98098184D01*
X131504429Y-98143823D01*
X131518773Y-98163824D01*
X131579462Y-98248491D01*
X131579462Y-97670365D01*
X131502802Y-97661467D01*
X131426142Y-97652570D01*
X131426142Y-97552866D01*
X131886102Y-97552866D01*
X131886102Y-97652570D01*
X131809442Y-97661467D01*
X131732782Y-97670365D01*
X131732782Y-98574998D01*
X131547520Y-98573898D01*
X131318893Y-98249738D01*
X131260893Y-98167687D01*
X131206374Y-98090906D01*
X131157414Y-98022299D01*
X131116094Y-97964767D01*
X131084493Y-97921212D01*
X131064691Y-97894537D01*
X131060625Y-97889347D01*
X131030984Y-97853117D01*
X131030525Y-98155112D01*
X131030065Y-98457108D01*
X131103531Y-98468141D01*
X131144732Y-98474984D01*
X131167039Y-98482902D01*
X131176831Y-98496749D01*
X131180485Y-98521381D01*
X131180962Y-98527086D01*
X131184928Y-98574998D01*
X130723426Y-98574998D01*
X130723426Y-98529879D01*
X130724794Y-98503513D01*
X130732510Y-98487274D01*
X130751990Y-98477461D01*
X130788650Y-98470373D01*
X130816056Y-98466568D01*
X130876746Y-98458443D01*
X130876746Y-97670756D01*
X130803280Y-97659723D01*
X130762134Y-97652917D01*
X130740209Y-97645288D01*
X130731455Y-97632243D01*
X130729819Y-97609190D01*
X130729814Y-97603972D01*
X130729814Y-97559254D01*
X130904668Y-97555705D01*
X131079523Y-97552155D01*
X131268803Y-97815656D01*
G37*
G36*
X133815377Y-97650943D02*
G01*
X133743037Y-97662593D01*
X133670696Y-97674244D01*
X133335456Y-98568610D01*
X133223850Y-98572305D01*
X133169239Y-98573488D01*
X133134858Y-98572078D01*
X133115442Y-98567237D01*
X133105727Y-98558129D01*
X133103392Y-98553140D01*
X133096947Y-98536207D01*
X133082561Y-98498236D01*
X133061318Y-98442096D01*
X133034302Y-98370653D01*
X133002599Y-98286776D01*
X132967293Y-98193332D01*
X132932894Y-98102262D01*
X132771246Y-97674244D01*
X132699197Y-97662593D01*
X132627148Y-97650943D01*
X132627148Y-97552866D01*
X133150991Y-97552866D01*
X133150991Y-97652135D01*
X133080719Y-97660914D01*
X133042305Y-97667018D01*
X133016781Y-97673571D01*
X133010448Y-97677657D01*
X133014763Y-97694747D01*
X133026779Y-97730914D01*
X133045099Y-97782520D01*
X133068328Y-97845927D01*
X133095068Y-97917498D01*
X133123925Y-97993597D01*
X133153503Y-98070584D01*
X133182405Y-98144823D01*
X133209235Y-98212676D01*
X133232597Y-98270506D01*
X133251095Y-98314675D01*
X133263334Y-98341546D01*
X133267751Y-98348094D01*
X133273936Y-98334589D01*
X133287411Y-98300876D01*
X133306760Y-98250769D01*
X133330567Y-98188085D01*
X133357418Y-98116640D01*
X133385896Y-98040249D01*
X133414588Y-97962729D01*
X133442076Y-97887895D01*
X133466947Y-97819563D01*
X133487784Y-97761549D01*
X133503172Y-97717670D01*
X133511696Y-97691740D01*
X133512864Y-97687262D01*
X133502737Y-97678235D01*
X133474218Y-97667960D01*
X133444854Y-97661021D01*
X133404916Y-97652435D01*
X133383981Y-97643399D01*
X133375914Y-97628874D01*
X133374583Y-97603820D01*
X133374583Y-97559254D01*
X133815377Y-97552262D01*
X133815377Y-97650943D01*
G37*
G36*
X128832480Y-95649143D02*
G01*
X128781952Y-95649143D01*
X128749110Y-95647432D01*
X128733197Y-95637581D01*
X128725615Y-95612514D01*
X128723721Y-95601231D01*
X128716850Y-95556317D01*
X128710274Y-95526287D01*
X128699316Y-95508175D01*
X128679301Y-95499016D01*
X128645554Y-95495844D01*
X128593397Y-95495693D01*
X128557538Y-95495823D01*
X128410850Y-95495823D01*
X128410850Y-96012417D01*
X128410705Y-96142012D01*
X128410558Y-96248392D01*
X128410837Y-96333893D01*
X128411974Y-96400850D01*
X128414398Y-96451599D01*
X128418539Y-96488474D01*
X128424828Y-96513812D01*
X128433694Y-96529947D01*
X128445568Y-96539214D01*
X128460879Y-96543949D01*
X128480059Y-96546487D01*
X128503536Y-96549163D01*
X128509869Y-96550087D01*
X128543808Y-96556696D01*
X128559480Y-96567454D01*
X128563940Y-96589952D01*
X128564170Y-96608516D01*
X128564170Y-96658499D01*
X128014774Y-96658499D01*
X128014774Y-96608516D01*
X128016219Y-96577050D01*
X128025258Y-96561218D01*
X128048946Y-96553429D01*
X128069074Y-96550087D01*
X128093649Y-96547030D01*
X128113822Y-96544671D01*
X128130025Y-96540678D01*
X128142686Y-96532714D01*
X128152236Y-96518443D01*
X128159105Y-96495532D01*
X128163723Y-96461644D01*
X128166521Y-96414444D01*
X128167928Y-96351597D01*
X128168374Y-96270768D01*
X128168290Y-96169621D01*
X128168105Y-96045822D01*
X128168094Y-96012417D01*
X128168094Y-95495823D01*
X127875388Y-95495823D01*
X127867685Y-95543736D01*
X127859162Y-95595098D01*
X127851656Y-95626302D01*
X127841816Y-95642365D01*
X127826293Y-95648307D01*
X127801737Y-95649147D01*
X127797327Y-95649143D01*
X127746464Y-95649143D01*
X127746464Y-95355280D01*
X128832480Y-95355280D01*
X128832480Y-95649143D01*
G37*
G36*
X129443337Y-95684279D02*
G01*
X129440097Y-95711266D01*
X129431821Y-95726630D01*
X129412133Y-95735225D01*
X129374653Y-95741907D01*
X129365905Y-95743224D01*
X129292440Y-95754257D01*
X129292440Y-96057996D01*
X129688516Y-96057996D01*
X129688516Y-95754257D01*
X129615050Y-95743224D01*
X129573850Y-95736381D01*
X129551543Y-95728463D01*
X129541751Y-95714616D01*
X129538097Y-95689984D01*
X129537619Y-95684279D01*
X129533654Y-95636367D01*
X130073358Y-95636367D01*
X130069393Y-95684279D01*
X130066153Y-95711266D01*
X130057878Y-95726630D01*
X130038189Y-95735225D01*
X130000709Y-95741907D01*
X129991962Y-95743224D01*
X129918496Y-95754257D01*
X129918496Y-96540609D01*
X129991962Y-96551642D01*
X130033163Y-96558485D01*
X130055470Y-96566403D01*
X130065261Y-96580250D01*
X130068915Y-96604882D01*
X130069393Y-96610587D01*
X130073358Y-96658499D01*
X129535196Y-96658499D01*
X129535196Y-96559845D01*
X129599384Y-96552243D01*
X129638881Y-96546406D01*
X129667965Y-96540008D01*
X129676044Y-96536933D01*
X129680847Y-96521706D01*
X129684728Y-96485348D01*
X129687381Y-96432274D01*
X129688500Y-96366900D01*
X129688516Y-96357494D01*
X129688516Y-96185763D01*
X129292440Y-96185763D01*
X129292440Y-96540609D01*
X129365905Y-96551642D01*
X129407106Y-96558485D01*
X129429413Y-96566403D01*
X129439205Y-96580250D01*
X129442859Y-96604882D01*
X129443337Y-96610587D01*
X129447302Y-96658499D01*
X128909140Y-96658499D01*
X128909140Y-96559587D01*
X129062460Y-96542241D01*
X129062460Y-95754257D01*
X128988994Y-95743224D01*
X128947793Y-95736381D01*
X128925486Y-95728463D01*
X128915695Y-95714616D01*
X128912040Y-95689984D01*
X128911563Y-95684279D01*
X128907597Y-95636367D01*
X129447302Y-95636367D01*
X129443337Y-95684279D01*
G37*
G36*
X133506315Y-95684279D02*
G01*
X133503075Y-95711266D01*
X133494799Y-95726630D01*
X133475111Y-95735225D01*
X133437630Y-95741907D01*
X133428883Y-95743224D01*
X133355418Y-95754257D01*
X133355418Y-96057996D01*
X133752305Y-96057996D01*
X133748705Y-95907871D01*
X133745106Y-95757745D01*
X133674834Y-95744351D01*
X133634798Y-95735885D01*
X133613421Y-95726588D01*
X133604203Y-95711147D01*
X133600646Y-95684251D01*
X133600597Y-95683662D01*
X133596632Y-95636367D01*
X134136336Y-95636367D01*
X134132371Y-95684279D01*
X134129131Y-95711266D01*
X134120856Y-95726630D01*
X134101167Y-95735225D01*
X134063687Y-95741907D01*
X134054940Y-95743224D01*
X133981474Y-95754257D01*
X133981474Y-96540609D01*
X134054940Y-96551642D01*
X134096140Y-96558485D01*
X134118447Y-96566403D01*
X134128239Y-96580250D01*
X134131893Y-96604882D01*
X134132371Y-96610587D01*
X134136336Y-96658499D01*
X133598174Y-96658499D01*
X133598174Y-96559845D01*
X133662362Y-96552243D01*
X133701859Y-96546406D01*
X133730943Y-96540008D01*
X133739022Y-96536933D01*
X133743825Y-96521706D01*
X133747706Y-96485348D01*
X133750359Y-96432274D01*
X133751477Y-96366900D01*
X133751494Y-96357494D01*
X133751494Y-96185763D01*
X133355418Y-96185763D01*
X133355418Y-96540609D01*
X133428883Y-96551642D01*
X133470084Y-96558485D01*
X133492391Y-96566403D01*
X133502183Y-96580250D01*
X133505837Y-96604882D01*
X133506315Y-96610587D01*
X133510280Y-96658499D01*
X132972118Y-96658499D01*
X132972118Y-96559587D01*
X133125438Y-96542241D01*
X133125438Y-95754257D01*
X133051972Y-95743224D01*
X133010771Y-95736381D01*
X132988464Y-95728463D01*
X132978673Y-95714616D01*
X132975018Y-95689984D01*
X132974541Y-95684279D01*
X132970575Y-95636367D01*
X133510280Y-95636367D01*
X133506315Y-95684279D01*
G37*
G36*
X132371408Y-95339633D02*
G01*
X132480890Y-95359702D01*
X132582650Y-95396727D01*
X132649124Y-95434479D01*
X132720593Y-95498044D01*
X132778581Y-95582068D01*
X132822552Y-95684981D01*
X132851971Y-95805210D01*
X132866301Y-95941184D01*
X132866090Y-96070773D01*
X132851344Y-96214064D01*
X132821039Y-96337233D01*
X132774812Y-96440701D01*
X132712301Y-96524889D01*
X132633143Y-96590218D01*
X132536975Y-96637110D01*
X132423435Y-96665986D01*
X132346061Y-96674893D01*
X132283494Y-96676646D01*
X132216574Y-96674416D01*
X132167188Y-96669602D01*
X132053148Y-96642405D01*
X131955841Y-96596317D01*
X131875162Y-96531184D01*
X131811004Y-96446850D01*
X131763259Y-96343161D01*
X131731820Y-96219960D01*
X131716581Y-96077093D01*
X131714993Y-96013278D01*
X131715516Y-96000501D01*
X131969666Y-96000501D01*
X131974172Y-96133532D01*
X131988990Y-96244899D01*
X132014723Y-96336575D01*
X132051974Y-96410535D01*
X132101346Y-96468752D01*
X132116820Y-96482017D01*
X132179763Y-96517114D01*
X132254047Y-96534087D01*
X132332481Y-96532404D01*
X132407873Y-96511535D01*
X132422721Y-96504626D01*
X132485911Y-96459205D01*
X132536156Y-96392820D01*
X132573789Y-96304912D01*
X132596241Y-96212117D01*
X132608617Y-96111351D01*
X132612236Y-96003232D01*
X132607558Y-95894713D01*
X132595044Y-95792746D01*
X132575154Y-95704285D01*
X132559684Y-95660137D01*
X132529929Y-95607685D01*
X132488299Y-95557629D01*
X132441846Y-95517266D01*
X132399562Y-95494505D01*
X132334546Y-95481593D01*
X132263275Y-95480943D01*
X132196716Y-95492031D01*
X132159760Y-95505998D01*
X132098325Y-95547723D01*
X132049724Y-95604299D01*
X132013257Y-95677544D01*
X131988225Y-95769277D01*
X131973929Y-95881319D01*
X131969666Y-96000501D01*
X131715516Y-96000501D01*
X131720978Y-95866990D01*
X131740459Y-95741220D01*
X131773864Y-95634524D01*
X131821626Y-95545461D01*
X131873121Y-95483251D01*
X131950517Y-95422986D01*
X132043757Y-95378196D01*
X132148128Y-95349176D01*
X132258916Y-95336223D01*
X132371408Y-95339633D01*
G37*
G36*
X139139954Y-95830733D02*
G01*
X139169546Y-95906777D01*
X139205239Y-95998699D01*
X139243945Y-96098535D01*
X139282576Y-96198319D01*
X139315534Y-96283586D01*
X139414981Y-96541118D01*
X139486733Y-96551896D01*
X139527339Y-96558702D01*
X139549131Y-96566787D01*
X139558576Y-96581164D01*
X139562140Y-96606846D01*
X139562451Y-96610587D01*
X139566417Y-96658499D01*
X139026712Y-96658499D01*
X139030677Y-96610887D01*
X139034064Y-96583869D01*
X139042757Y-96568307D01*
X139063164Y-96559097D01*
X139101693Y-96551131D01*
X139106836Y-96550198D01*
X139179029Y-96537121D01*
X139143414Y-96447685D01*
X139107799Y-96358248D01*
X138719276Y-96358248D01*
X138688504Y-96433884D01*
X138672426Y-96475778D01*
X138661290Y-96509338D01*
X138657731Y-96525540D01*
X138669557Y-96537009D01*
X138701301Y-96547595D01*
X138724809Y-96552170D01*
X138763751Y-96559210D01*
X138784130Y-96568053D01*
X138792664Y-96584227D01*
X138795852Y-96610639D01*
X138799817Y-96658499D01*
X138351092Y-96658499D01*
X138351092Y-96560422D01*
X138424167Y-96548772D01*
X138497242Y-96537121D01*
X138617019Y-96227468D01*
X138772721Y-96227468D01*
X138784637Y-96231246D01*
X138816947Y-96234299D01*
X138864494Y-96236282D01*
X138913265Y-96236870D01*
X138969740Y-96236073D01*
X139015381Y-96233911D01*
X139045030Y-96230731D01*
X139053808Y-96227468D01*
X139049591Y-96210074D01*
X139038192Y-96175047D01*
X139021485Y-96127376D01*
X139001345Y-96072048D01*
X138979646Y-96014052D01*
X138958265Y-95958375D01*
X138939075Y-95910006D01*
X138923952Y-95873933D01*
X138914770Y-95855143D01*
X138913265Y-95853570D01*
X138906726Y-95864787D01*
X138893560Y-95895114D01*
X138875641Y-95939561D01*
X138854844Y-95993142D01*
X138833044Y-96050868D01*
X138812116Y-96107751D01*
X138793935Y-96158803D01*
X138780375Y-96199037D01*
X138773313Y-96223463D01*
X138772721Y-96227468D01*
X138617019Y-96227468D01*
X138670217Y-96089938D01*
X138843191Y-95642755D01*
X138953506Y-95639084D01*
X139063821Y-95635412D01*
X139139954Y-95830733D01*
G37*
G36*
X135259140Y-97559653D02*
G01*
X135373336Y-97560129D01*
X135465211Y-97561629D01*
X135537992Y-97564723D01*
X135594908Y-97569984D01*
X135639186Y-97577982D01*
X135674055Y-97589289D01*
X135702743Y-97604477D01*
X135728477Y-97624115D01*
X135752722Y-97647009D01*
X135801930Y-97712498D01*
X135827293Y-97784898D01*
X135828520Y-97861209D01*
X135805320Y-97938429D01*
X135784729Y-97976030D01*
X135754228Y-98014574D01*
X135718412Y-98046976D01*
X135703815Y-98056393D01*
X135658416Y-98080797D01*
X135707076Y-98156084D01*
X135734896Y-98203764D01*
X135766125Y-98264416D01*
X135795208Y-98327082D01*
X135802896Y-98345146D01*
X135850055Y-98458921D01*
X135909150Y-98466807D01*
X135956293Y-98473889D01*
X135983504Y-98481947D01*
X135996247Y-98494787D01*
X135999985Y-98516218D01*
X136000186Y-98530250D01*
X136000186Y-98575740D01*
X135832375Y-98572175D01*
X135664563Y-98568610D01*
X135590349Y-98390681D01*
X135551396Y-98301383D01*
X135517259Y-98233670D01*
X135485558Y-98184608D01*
X135453912Y-98151265D01*
X135419940Y-98130707D01*
X135381260Y-98120000D01*
X135369333Y-98118375D01*
X135310247Y-98111715D01*
X135310247Y-98457108D01*
X135383712Y-98468141D01*
X135424913Y-98474984D01*
X135447220Y-98482902D01*
X135457012Y-98496749D01*
X135460666Y-98521381D01*
X135461144Y-98527086D01*
X135465109Y-98574998D01*
X134926947Y-98574998D01*
X134926947Y-98529879D01*
X134928315Y-98503513D01*
X134936032Y-98487274D01*
X134955512Y-98477461D01*
X134992171Y-98470373D01*
X135019578Y-98466568D01*
X135080267Y-98458443D01*
X135080267Y-98002754D01*
X135310247Y-98002754D01*
X135411484Y-97998157D01*
X135465538Y-97994575D01*
X135501328Y-97988498D01*
X135526136Y-97977990D01*
X135545854Y-97962433D01*
X135580921Y-97914348D01*
X135597893Y-97857580D01*
X135596802Y-97798995D01*
X135577683Y-97745459D01*
X135544584Y-97706871D01*
X135521753Y-97692847D01*
X135492847Y-97684762D01*
X135450625Y-97681198D01*
X135410737Y-97680632D01*
X135310247Y-97680632D01*
X135310247Y-98002754D01*
X135080267Y-98002754D01*
X135080267Y-97670756D01*
X135006801Y-97659723D01*
X134965655Y-97652917D01*
X134943730Y-97645288D01*
X134934976Y-97632243D01*
X134933341Y-97609190D01*
X134933335Y-97603972D01*
X134933335Y-97559254D01*
X135259140Y-97559653D01*
G37*
G36*
X135449220Y-95632286D02*
G01*
X135523797Y-95640307D01*
X135584267Y-95655970D01*
X135636198Y-95681117D01*
X135685160Y-95717596D01*
X135721194Y-95751406D01*
X135773682Y-95813224D01*
X135811489Y-95881103D01*
X135836165Y-95959726D01*
X135849262Y-96053776D01*
X135852452Y-96147433D01*
X135844214Y-96278367D01*
X135819327Y-96389971D01*
X135777530Y-96482518D01*
X135718564Y-96556283D01*
X135642168Y-96611542D01*
X135548083Y-96648569D01*
X135436047Y-96667637D01*
X135356813Y-96670558D01*
X135253715Y-96664412D01*
X135167523Y-96646807D01*
X135159023Y-96644205D01*
X135075304Y-96604870D01*
X135001656Y-96545131D01*
X134942902Y-96469592D01*
X134913051Y-96409355D01*
X134900942Y-96375549D01*
X134892555Y-96342963D01*
X134887213Y-96305750D01*
X134884238Y-96258060D01*
X134882955Y-96194045D01*
X134882718Y-96147433D01*
X135124985Y-96147433D01*
X135125869Y-96232544D01*
X135129221Y-96297450D01*
X135136093Y-96347461D01*
X135147537Y-96387887D01*
X135164604Y-96424037D01*
X135186641Y-96458756D01*
X135222941Y-96493985D01*
X135274293Y-96522906D01*
X135330222Y-96540372D01*
X135358569Y-96543229D01*
X135399165Y-96538242D01*
X135442973Y-96525679D01*
X135447832Y-96523735D01*
X135504226Y-96491978D01*
X135547142Y-96448016D01*
X135577755Y-96389177D01*
X135597245Y-96312790D01*
X135606789Y-96216186D01*
X135608195Y-96160210D01*
X135604285Y-96045913D01*
X135590342Y-95953429D01*
X135565515Y-95880724D01*
X135528950Y-95825763D01*
X135479794Y-95786510D01*
X135444574Y-95769908D01*
X135369915Y-95753482D01*
X135299743Y-95761248D01*
X135237241Y-95791876D01*
X135185591Y-95844038D01*
X135159260Y-95889041D01*
X135145733Y-95919454D01*
X135136319Y-95946859D01*
X135130280Y-95976846D01*
X135126872Y-96015002D01*
X135125355Y-96066918D01*
X135124987Y-96138182D01*
X135124985Y-96147433D01*
X134882718Y-96147433D01*
X134882958Y-96072053D01*
X134884503Y-96016437D01*
X134888019Y-95974804D01*
X134894170Y-95941374D01*
X134903623Y-95910364D01*
X134912743Y-95886549D01*
X134961793Y-95796791D01*
X135029557Y-95724411D01*
X135115637Y-95669831D01*
X135121823Y-95666925D01*
X135158167Y-95651066D01*
X135189799Y-95640543D01*
X135223590Y-95634271D01*
X135266410Y-95631163D01*
X135325128Y-95630133D01*
X135354965Y-95630059D01*
X135449220Y-95632286D01*
G37*
G36*
X137052016Y-95342034D02*
G01*
X137182825Y-95363755D01*
X137300211Y-95395320D01*
X137341735Y-95408368D01*
X137341735Y-95661920D01*
X137284819Y-95661920D01*
X137249490Y-95660728D01*
X137231734Y-95653218D01*
X137223573Y-95633485D01*
X137220075Y-95614007D01*
X137211137Y-95559725D01*
X137203558Y-95525442D01*
X137193854Y-95506067D01*
X137178538Y-95496510D01*
X137154126Y-95491680D01*
X137134515Y-95489051D01*
X137046040Y-95480418D01*
X136965989Y-95479392D01*
X136899373Y-95485728D01*
X136851200Y-95499180D01*
X136843120Y-95503335D01*
X136788838Y-95546021D01*
X136757551Y-95598220D01*
X136747621Y-95661920D01*
X136754306Y-95715699D01*
X136775911Y-95761278D01*
X136814762Y-95800656D01*
X136873182Y-95835835D01*
X136953498Y-95868813D01*
X137009542Y-95887263D01*
X137119548Y-95924982D01*
X137206644Y-95963895D01*
X137273462Y-96005911D01*
X137322636Y-96052937D01*
X137356798Y-96106885D01*
X137373623Y-96151237D01*
X137392867Y-96252619D01*
X137390444Y-96349140D01*
X137367720Y-96437813D01*
X137326063Y-96515650D01*
X137266840Y-96579665D01*
X137191417Y-96626872D01*
X137148515Y-96643099D01*
X137046516Y-96665649D01*
X136933118Y-96676090D01*
X136819863Y-96673568D01*
X136785951Y-96669938D01*
X136724817Y-96659666D01*
X136656015Y-96644713D01*
X136603883Y-96630974D01*
X136511253Y-96603670D01*
X136511253Y-96326306D01*
X136623266Y-96326306D01*
X136632170Y-96409455D01*
X136637966Y-96452037D01*
X136647386Y-96482462D01*
X136664328Y-96502780D01*
X136692693Y-96515043D01*
X136736379Y-96521302D01*
X136799285Y-96523608D01*
X136849834Y-96523953D01*
X136916515Y-96523687D01*
X136963719Y-96521882D01*
X136997514Y-96517622D01*
X137023970Y-96509994D01*
X137049154Y-96498085D01*
X137059378Y-96492403D01*
X137115629Y-96447193D01*
X137150518Y-96388513D01*
X137162853Y-96318388D01*
X137162862Y-96316289D01*
X137152982Y-96249487D01*
X137124603Y-96196229D01*
X137094345Y-96168922D01*
X137070030Y-96156686D01*
X137027563Y-96138906D01*
X136973063Y-96118028D01*
X136916513Y-96097827D01*
X136821472Y-96063619D01*
X136747227Y-96033232D01*
X136689719Y-96004556D01*
X136644887Y-95975479D01*
X136608675Y-95943890D01*
X136597195Y-95931751D01*
X136552681Y-95864687D01*
X136524599Y-95783983D01*
X136513910Y-95696337D01*
X136521576Y-95608447D01*
X136541392Y-95542885D01*
X136584385Y-95471824D01*
X136646746Y-95415307D01*
X136726583Y-95373701D01*
X136822002Y-95347375D01*
X136931111Y-95336697D01*
X137052016Y-95342034D01*
G37*
G36*
X130665931Y-97278167D02*
G01*
X130669804Y-97324531D01*
X130670573Y-97354927D01*
X130661489Y-97369758D01*
X130635730Y-97377375D01*
X130625085Y-97379268D01*
X130582703Y-97386809D01*
X130544761Y-97393924D01*
X130542091Y-97394448D01*
X130507688Y-97401254D01*
X130503706Y-97857165D01*
X130502510Y-97986182D01*
X130501043Y-98092413D01*
X130498778Y-98178626D01*
X130495188Y-98247588D01*
X130489749Y-98302065D01*
X130481933Y-98344826D01*
X130471216Y-98378637D01*
X130457071Y-98406264D01*
X130438971Y-98430475D01*
X130416392Y-98454037D01*
X130388807Y-98479717D01*
X130384638Y-98483527D01*
X130328623Y-98528028D01*
X130272922Y-98556346D01*
X130242279Y-98566318D01*
X130173099Y-98580755D01*
X130091224Y-98590357D01*
X130006691Y-98594534D01*
X129929537Y-98592694D01*
X129884596Y-98587386D01*
X129771601Y-98558009D01*
X129678654Y-98514259D01*
X129606299Y-98456539D01*
X129555080Y-98385254D01*
X129531385Y-98325007D01*
X129525268Y-98299925D01*
X129520384Y-98270978D01*
X129516603Y-98235144D01*
X129513793Y-98189402D01*
X129511824Y-98130732D01*
X129510564Y-98056113D01*
X129509882Y-97962523D01*
X129509648Y-97846942D01*
X129509643Y-97823775D01*
X129509643Y-97400033D01*
X129480895Y-97394137D01*
X129448623Y-97388085D01*
X129408307Y-97381197D01*
X129404235Y-97380538D01*
X129373354Y-97373768D01*
X129359767Y-97361195D01*
X129356399Y-97334218D01*
X129356323Y-97322307D01*
X129356323Y-97271779D01*
X129905719Y-97271779D01*
X129905719Y-97322307D01*
X129904008Y-97355149D01*
X129894157Y-97371062D01*
X129869090Y-97378644D01*
X129857807Y-97380538D01*
X129817650Y-97387334D01*
X129783695Y-97393622D01*
X129781147Y-97394137D01*
X129752399Y-97400033D01*
X129752471Y-97811836D01*
X129752930Y-97932139D01*
X129754221Y-98038113D01*
X129756275Y-98127489D01*
X129759026Y-98197995D01*
X129762406Y-98247359D01*
X129766098Y-98272457D01*
X129790420Y-98324932D01*
X129830242Y-98375759D01*
X129877936Y-98416607D01*
X129916145Y-98436336D01*
X129952802Y-98444348D01*
X130004023Y-98450006D01*
X130058844Y-98452107D01*
X130059879Y-98452105D01*
X130148468Y-98444918D01*
X130218334Y-98423021D01*
X130272608Y-98384948D01*
X130311559Y-98334209D01*
X130346514Y-98274747D01*
X130350469Y-97837581D01*
X130354425Y-97400415D01*
X130324916Y-97394328D01*
X130292046Y-97388131D01*
X130251410Y-97381172D01*
X130247495Y-97380538D01*
X130216677Y-97373799D01*
X130203072Y-97361299D01*
X130199665Y-97334470D01*
X130199583Y-97322019D01*
X130199583Y-97271203D01*
X130665931Y-97278167D01*
G37*
G36*
X136617039Y-97551732D02*
G01*
X136645407Y-97556631D01*
X136713979Y-97569850D01*
X136761477Y-97581242D01*
X136791761Y-97594575D01*
X136808689Y-97613618D01*
X136816123Y-97642139D01*
X136817921Y-97683906D01*
X136817892Y-97725034D01*
X136817892Y-97846729D01*
X136767647Y-97846729D01*
X136739487Y-97845539D01*
X136721757Y-97838494D01*
X136710700Y-97820378D01*
X136702561Y-97785974D01*
X136696318Y-97747670D01*
X136691143Y-97719995D01*
X136682631Y-97701871D01*
X136665732Y-97690559D01*
X136635397Y-97683316D01*
X136586578Y-97677404D01*
X136562359Y-97674958D01*
X136481802Y-97674291D01*
X136416534Y-97689012D01*
X136368583Y-97717986D01*
X136339978Y-97760077D01*
X136332379Y-97803706D01*
X136338715Y-97843134D01*
X136359540Y-97876524D01*
X136397581Y-97905974D01*
X136455564Y-97933586D01*
X136536215Y-97961460D01*
X136537785Y-97961944D01*
X136597887Y-97981309D01*
X136653693Y-98000798D01*
X136697648Y-98017695D01*
X136716889Y-98026307D01*
X136782319Y-98073058D01*
X136829834Y-98135791D01*
X136857878Y-98210858D01*
X136864896Y-98294611D01*
X136856878Y-98354601D01*
X136827867Y-98429188D01*
X136777864Y-98492041D01*
X136709895Y-98540156D01*
X136643899Y-98566218D01*
X136567085Y-98580670D01*
X136475349Y-98586895D01*
X136377930Y-98584986D01*
X136284066Y-98575036D01*
X136220098Y-98561972D01*
X136173481Y-98549208D01*
X136136333Y-98538023D01*
X136115815Y-98530589D01*
X136114690Y-98529980D01*
X136109499Y-98514746D01*
X136105393Y-98479810D01*
X136102901Y-98431017D01*
X136102399Y-98394636D01*
X136102399Y-98266889D01*
X136211001Y-98274747D01*
X136222221Y-98353539D01*
X136228374Y-98391720D01*
X136236973Y-98417740D01*
X136252463Y-98433940D01*
X136279291Y-98442661D01*
X136321905Y-98446244D01*
X136384751Y-98447030D01*
X136399867Y-98447057D01*
X136489059Y-98442283D01*
X136556060Y-98427054D01*
X136602377Y-98400478D01*
X136629515Y-98361665D01*
X136638980Y-98309725D01*
X136639019Y-98305569D01*
X136634389Y-98264842D01*
X136618271Y-98232268D01*
X136587321Y-98205036D01*
X136538196Y-98180334D01*
X136467552Y-98155351D01*
X136456112Y-98151781D01*
X136355077Y-98118027D01*
X136276293Y-98085132D01*
X136216642Y-98050884D01*
X136173007Y-98013075D01*
X136142271Y-97969494D01*
X136121314Y-97917932D01*
X136120003Y-97913522D01*
X136108739Y-97837958D01*
X136116080Y-97761468D01*
X136140328Y-97691248D01*
X136179781Y-97634494D01*
X136187749Y-97626819D01*
X136246151Y-97588992D01*
X136323196Y-97561816D01*
X136413969Y-97546044D01*
X136513555Y-97542432D01*
X136617039Y-97551732D01*
G37*
D13*
%TO.C,J1*%
X98857000Y-47066000D02*
X98857000Y-74854000D01*
X91643000Y-47066000D02*
X98857000Y-47066000D01*
X98857000Y-74854000D02*
X91643000Y-74854000D01*
X91643000Y-74854000D02*
X91643000Y-47066000D01*
D14*
X90208480Y-50525680D02*
G75*
G03*
X90208480Y-50525680I-100000J0D01*
G01*
%TD*%
M02*
