%TF.GenerationSoftware,KiCad,Pcbnew,7.0.7*%
%TF.CreationDate,2023-09-14T15:48:24-04:00*%
%TF.ProjectId,Heater_North_DCT_HSK,48656174-6572-45f4-9e6f-7274685f4443,rev?*%
%TF.SameCoordinates,Original*%
%TF.FileFunction,Legend,Bot*%
%TF.FilePolarity,Positive*%
%FSLAX46Y46*%
G04 Gerber Fmt 4.6, Leading zero omitted, Abs format (unit mm)*
G04 Created by KiCad (PCBNEW 7.0.7) date 2023-09-14 15:48:24*
%MOMM*%
%LPD*%
G01*
G04 APERTURE LIST*
%ADD10C,0.150000*%
%ADD11C,0.500000*%
%ADD12C,0.300000*%
%TA.AperFunction,Profile*%
%ADD13C,0.100000*%
%TD*%
G04 APERTURE END LIST*
D10*
X103200200Y-89890600D02*
G75*
G03*
X103200200Y-89890600I-25400J0D01*
G01*
X103200200Y-54864000D02*
G75*
G03*
X103200200Y-54864000I-25400J0D01*
G01*
X148615400Y-72390000D02*
G75*
G03*
X148615400Y-72390000I-25400J0D01*
G01*
D11*
X150950999Y-59588342D02*
X150950999Y-56088342D01*
X150950999Y-56088342D02*
X148950999Y-59588342D01*
X148950999Y-59588342D02*
X148950999Y-56088342D01*
X146784332Y-59588342D02*
X147117666Y-59421676D01*
X147117666Y-59421676D02*
X147284332Y-59255009D01*
X147284332Y-59255009D02*
X147450999Y-58921676D01*
X147450999Y-58921676D02*
X147450999Y-57921676D01*
X147450999Y-57921676D02*
X147284332Y-57588342D01*
X147284332Y-57588342D02*
X147117666Y-57421676D01*
X147117666Y-57421676D02*
X146784332Y-57255009D01*
X146784332Y-57255009D02*
X146284332Y-57255009D01*
X146284332Y-57255009D02*
X145950999Y-57421676D01*
X145950999Y-57421676D02*
X145784332Y-57588342D01*
X145784332Y-57588342D02*
X145617666Y-57921676D01*
X145617666Y-57921676D02*
X145617666Y-58921676D01*
X145617666Y-58921676D02*
X145784332Y-59255009D01*
X145784332Y-59255009D02*
X145950999Y-59421676D01*
X145950999Y-59421676D02*
X146284332Y-59588342D01*
X146284332Y-59588342D02*
X146784332Y-59588342D01*
X144117665Y-59588342D02*
X144117665Y-57255009D01*
X144117665Y-57921676D02*
X143950999Y-57588342D01*
X143950999Y-57588342D02*
X143784332Y-57421676D01*
X143784332Y-57421676D02*
X143450999Y-57255009D01*
X143450999Y-57255009D02*
X143117665Y-57255009D01*
X142450998Y-57255009D02*
X141117665Y-57255009D01*
X141950998Y-56088342D02*
X141950998Y-59088342D01*
X141950998Y-59088342D02*
X141784332Y-59421676D01*
X141784332Y-59421676D02*
X141450998Y-59588342D01*
X141450998Y-59588342D02*
X141117665Y-59588342D01*
X139950998Y-59588342D02*
X139950998Y-56088342D01*
X138450998Y-59588342D02*
X138450998Y-57755009D01*
X138450998Y-57755009D02*
X138617665Y-57421676D01*
X138617665Y-57421676D02*
X138950998Y-57255009D01*
X138950998Y-57255009D02*
X139450998Y-57255009D01*
X139450998Y-57255009D02*
X139784332Y-57421676D01*
X139784332Y-57421676D02*
X139950998Y-57588342D01*
D12*
X154088717Y-105180914D02*
X154088717Y-103880914D01*
X154088717Y-104499962D02*
X153345860Y-104499962D01*
X153345860Y-105180914D02*
X153345860Y-103880914D01*
X152231574Y-105119010D02*
X152355383Y-105180914D01*
X152355383Y-105180914D02*
X152603002Y-105180914D01*
X152603002Y-105180914D02*
X152726812Y-105119010D01*
X152726812Y-105119010D02*
X152788716Y-104995200D01*
X152788716Y-104995200D02*
X152788716Y-104499962D01*
X152788716Y-104499962D02*
X152726812Y-104376152D01*
X152726812Y-104376152D02*
X152603002Y-104314248D01*
X152603002Y-104314248D02*
X152355383Y-104314248D01*
X152355383Y-104314248D02*
X152231574Y-104376152D01*
X152231574Y-104376152D02*
X152169669Y-104499962D01*
X152169669Y-104499962D02*
X152169669Y-104623771D01*
X152169669Y-104623771D02*
X152788716Y-104747581D01*
X151055383Y-105180914D02*
X151055383Y-104499962D01*
X151055383Y-104499962D02*
X151117288Y-104376152D01*
X151117288Y-104376152D02*
X151241097Y-104314248D01*
X151241097Y-104314248D02*
X151488716Y-104314248D01*
X151488716Y-104314248D02*
X151612526Y-104376152D01*
X151055383Y-105119010D02*
X151179192Y-105180914D01*
X151179192Y-105180914D02*
X151488716Y-105180914D01*
X151488716Y-105180914D02*
X151612526Y-105119010D01*
X151612526Y-105119010D02*
X151674430Y-104995200D01*
X151674430Y-104995200D02*
X151674430Y-104871390D01*
X151674430Y-104871390D02*
X151612526Y-104747581D01*
X151612526Y-104747581D02*
X151488716Y-104685676D01*
X151488716Y-104685676D02*
X151179192Y-104685676D01*
X151179192Y-104685676D02*
X151055383Y-104623771D01*
X150622050Y-104314248D02*
X150126812Y-104314248D01*
X150436336Y-103880914D02*
X150436336Y-104995200D01*
X150436336Y-104995200D02*
X150374431Y-105119010D01*
X150374431Y-105119010D02*
X150250621Y-105180914D01*
X150250621Y-105180914D02*
X150126812Y-105180914D01*
X149198241Y-105119010D02*
X149322050Y-105180914D01*
X149322050Y-105180914D02*
X149569669Y-105180914D01*
X149569669Y-105180914D02*
X149693479Y-105119010D01*
X149693479Y-105119010D02*
X149755383Y-104995200D01*
X149755383Y-104995200D02*
X149755383Y-104499962D01*
X149755383Y-104499962D02*
X149693479Y-104376152D01*
X149693479Y-104376152D02*
X149569669Y-104314248D01*
X149569669Y-104314248D02*
X149322050Y-104314248D01*
X149322050Y-104314248D02*
X149198241Y-104376152D01*
X149198241Y-104376152D02*
X149136336Y-104499962D01*
X149136336Y-104499962D02*
X149136336Y-104623771D01*
X149136336Y-104623771D02*
X149755383Y-104747581D01*
X148579193Y-105180914D02*
X148579193Y-104314248D01*
X148579193Y-104561867D02*
X148517288Y-104438057D01*
X148517288Y-104438057D02*
X148455383Y-104376152D01*
X148455383Y-104376152D02*
X148331574Y-104314248D01*
X148331574Y-104314248D02*
X148207764Y-104314248D01*
X146783955Y-105180914D02*
X146783955Y-103880914D01*
X146783955Y-103880914D02*
X146041098Y-105180914D01*
X146041098Y-105180914D02*
X146041098Y-103880914D01*
X145236335Y-105180914D02*
X145360145Y-105119010D01*
X145360145Y-105119010D02*
X145422050Y-105057105D01*
X145422050Y-105057105D02*
X145483954Y-104933295D01*
X145483954Y-104933295D02*
X145483954Y-104561867D01*
X145483954Y-104561867D02*
X145422050Y-104438057D01*
X145422050Y-104438057D02*
X145360145Y-104376152D01*
X145360145Y-104376152D02*
X145236335Y-104314248D01*
X145236335Y-104314248D02*
X145050621Y-104314248D01*
X145050621Y-104314248D02*
X144926812Y-104376152D01*
X144926812Y-104376152D02*
X144864907Y-104438057D01*
X144864907Y-104438057D02*
X144803002Y-104561867D01*
X144803002Y-104561867D02*
X144803002Y-104933295D01*
X144803002Y-104933295D02*
X144864907Y-105057105D01*
X144864907Y-105057105D02*
X144926812Y-105119010D01*
X144926812Y-105119010D02*
X145050621Y-105180914D01*
X145050621Y-105180914D02*
X145236335Y-105180914D01*
X144245860Y-105180914D02*
X144245860Y-104314248D01*
X144245860Y-104561867D02*
X144183955Y-104438057D01*
X144183955Y-104438057D02*
X144122050Y-104376152D01*
X144122050Y-104376152D02*
X143998241Y-104314248D01*
X143998241Y-104314248D02*
X143874431Y-104314248D01*
X143626812Y-104314248D02*
X143131574Y-104314248D01*
X143441098Y-103880914D02*
X143441098Y-104995200D01*
X143441098Y-104995200D02*
X143379193Y-105119010D01*
X143379193Y-105119010D02*
X143255383Y-105180914D01*
X143255383Y-105180914D02*
X143131574Y-105180914D01*
X142698241Y-105180914D02*
X142698241Y-103880914D01*
X142141098Y-105180914D02*
X142141098Y-104499962D01*
X142141098Y-104499962D02*
X142203003Y-104376152D01*
X142203003Y-104376152D02*
X142326812Y-104314248D01*
X142326812Y-104314248D02*
X142512526Y-104314248D01*
X142512526Y-104314248D02*
X142636336Y-104376152D01*
X142636336Y-104376152D02*
X142698241Y-104438057D01*
X139788718Y-105180914D02*
X140222051Y-104561867D01*
X140531575Y-105180914D02*
X140531575Y-103880914D01*
X140531575Y-103880914D02*
X140036337Y-103880914D01*
X140036337Y-103880914D02*
X139912527Y-103942819D01*
X139912527Y-103942819D02*
X139850622Y-104004724D01*
X139850622Y-104004724D02*
X139788718Y-104128533D01*
X139788718Y-104128533D02*
X139788718Y-104314248D01*
X139788718Y-104314248D02*
X139850622Y-104438057D01*
X139850622Y-104438057D02*
X139912527Y-104499962D01*
X139912527Y-104499962D02*
X140036337Y-104561867D01*
X140036337Y-104561867D02*
X140531575Y-104561867D01*
X138736337Y-105119010D02*
X138860146Y-105180914D01*
X138860146Y-105180914D02*
X139107765Y-105180914D01*
X139107765Y-105180914D02*
X139231575Y-105119010D01*
X139231575Y-105119010D02*
X139293479Y-104995200D01*
X139293479Y-104995200D02*
X139293479Y-104499962D01*
X139293479Y-104499962D02*
X139231575Y-104376152D01*
X139231575Y-104376152D02*
X139107765Y-104314248D01*
X139107765Y-104314248D02*
X138860146Y-104314248D01*
X138860146Y-104314248D02*
X138736337Y-104376152D01*
X138736337Y-104376152D02*
X138674432Y-104499962D01*
X138674432Y-104499962D02*
X138674432Y-104623771D01*
X138674432Y-104623771D02*
X139293479Y-104747581D01*
X138241098Y-104314248D02*
X137931574Y-105180914D01*
X137931574Y-105180914D02*
X137622051Y-104314248D01*
X135703003Y-104499962D02*
X135517289Y-104561867D01*
X135517289Y-104561867D02*
X135455384Y-104623771D01*
X135455384Y-104623771D02*
X135393480Y-104747581D01*
X135393480Y-104747581D02*
X135393480Y-104933295D01*
X135393480Y-104933295D02*
X135455384Y-105057105D01*
X135455384Y-105057105D02*
X135517289Y-105119010D01*
X135517289Y-105119010D02*
X135641099Y-105180914D01*
X135641099Y-105180914D02*
X136136337Y-105180914D01*
X136136337Y-105180914D02*
X136136337Y-103880914D01*
X136136337Y-103880914D02*
X135703003Y-103880914D01*
X135703003Y-103880914D02*
X135579194Y-103942819D01*
X135579194Y-103942819D02*
X135517289Y-104004724D01*
X135517289Y-104004724D02*
X135455384Y-104128533D01*
X135455384Y-104128533D02*
X135455384Y-104252343D01*
X135455384Y-104252343D02*
X135517289Y-104376152D01*
X135517289Y-104376152D02*
X135579194Y-104438057D01*
X135579194Y-104438057D02*
X135703003Y-104499962D01*
X135703003Y-104499962D02*
X136136337Y-104499962D01*
X153964907Y-107273914D02*
X153964907Y-105973914D01*
X153964907Y-105973914D02*
X153655383Y-105973914D01*
X153655383Y-105973914D02*
X153469669Y-106035819D01*
X153469669Y-106035819D02*
X153345859Y-106159629D01*
X153345859Y-106159629D02*
X153283954Y-106283438D01*
X153283954Y-106283438D02*
X153222050Y-106531057D01*
X153222050Y-106531057D02*
X153222050Y-106716771D01*
X153222050Y-106716771D02*
X153283954Y-106964390D01*
X153283954Y-106964390D02*
X153345859Y-107088200D01*
X153345859Y-107088200D02*
X153469669Y-107212010D01*
X153469669Y-107212010D02*
X153655383Y-107273914D01*
X153655383Y-107273914D02*
X153964907Y-107273914D01*
X152169669Y-107212010D02*
X152293478Y-107273914D01*
X152293478Y-107273914D02*
X152541097Y-107273914D01*
X152541097Y-107273914D02*
X152664907Y-107212010D01*
X152664907Y-107212010D02*
X152726811Y-107088200D01*
X152726811Y-107088200D02*
X152726811Y-106592962D01*
X152726811Y-106592962D02*
X152664907Y-106469152D01*
X152664907Y-106469152D02*
X152541097Y-106407248D01*
X152541097Y-106407248D02*
X152293478Y-106407248D01*
X152293478Y-106407248D02*
X152169669Y-106469152D01*
X152169669Y-106469152D02*
X152107764Y-106592962D01*
X152107764Y-106592962D02*
X152107764Y-106716771D01*
X152107764Y-106716771D02*
X152726811Y-106840581D01*
X151550621Y-106407248D02*
X151550621Y-107273914D01*
X151550621Y-106531057D02*
X151488716Y-106469152D01*
X151488716Y-106469152D02*
X151364906Y-106407248D01*
X151364906Y-106407248D02*
X151179192Y-106407248D01*
X151179192Y-106407248D02*
X151055383Y-106469152D01*
X151055383Y-106469152D02*
X150993478Y-106592962D01*
X150993478Y-106592962D02*
X150993478Y-107273914D01*
X150374431Y-106407248D02*
X150374431Y-107273914D01*
X150374431Y-106531057D02*
X150312526Y-106469152D01*
X150312526Y-106469152D02*
X150188716Y-106407248D01*
X150188716Y-106407248D02*
X150003002Y-106407248D01*
X150003002Y-106407248D02*
X149879193Y-106469152D01*
X149879193Y-106469152D02*
X149817288Y-106592962D01*
X149817288Y-106592962D02*
X149817288Y-107273914D01*
X149198241Y-107273914D02*
X149198241Y-106407248D01*
X149198241Y-105973914D02*
X149260145Y-106035819D01*
X149260145Y-106035819D02*
X149198241Y-106097724D01*
X149198241Y-106097724D02*
X149136336Y-106035819D01*
X149136336Y-106035819D02*
X149198241Y-105973914D01*
X149198241Y-105973914D02*
X149198241Y-106097724D01*
X148641097Y-107212010D02*
X148517288Y-107273914D01*
X148517288Y-107273914D02*
X148269669Y-107273914D01*
X148269669Y-107273914D02*
X148145859Y-107212010D01*
X148145859Y-107212010D02*
X148083955Y-107088200D01*
X148083955Y-107088200D02*
X148083955Y-107026295D01*
X148083955Y-107026295D02*
X148145859Y-106902486D01*
X148145859Y-106902486D02*
X148269669Y-106840581D01*
X148269669Y-106840581D02*
X148455383Y-106840581D01*
X148455383Y-106840581D02*
X148579193Y-106778676D01*
X148579193Y-106778676D02*
X148641097Y-106654867D01*
X148641097Y-106654867D02*
X148641097Y-106592962D01*
X148641097Y-106592962D02*
X148579193Y-106469152D01*
X148579193Y-106469152D02*
X148455383Y-106407248D01*
X148455383Y-106407248D02*
X148269669Y-106407248D01*
X148269669Y-106407248D02*
X148145859Y-106469152D01*
X146536336Y-107273914D02*
X146536336Y-105973914D01*
X146536336Y-106592962D02*
X145793479Y-106592962D01*
X145793479Y-107273914D02*
X145793479Y-105973914D01*
X145174431Y-107150105D02*
X145112526Y-107212010D01*
X145112526Y-107212010D02*
X145174431Y-107273914D01*
X145174431Y-107273914D02*
X145236335Y-107212010D01*
X145236335Y-107212010D02*
X145174431Y-107150105D01*
X145174431Y-107150105D02*
X145174431Y-107273914D01*
X142822050Y-107150105D02*
X142883954Y-107212010D01*
X142883954Y-107212010D02*
X143069669Y-107273914D01*
X143069669Y-107273914D02*
X143193478Y-107273914D01*
X143193478Y-107273914D02*
X143379192Y-107212010D01*
X143379192Y-107212010D02*
X143503002Y-107088200D01*
X143503002Y-107088200D02*
X143564907Y-106964390D01*
X143564907Y-106964390D02*
X143626811Y-106716771D01*
X143626811Y-106716771D02*
X143626811Y-106531057D01*
X143626811Y-106531057D02*
X143564907Y-106283438D01*
X143564907Y-106283438D02*
X143503002Y-106159629D01*
X143503002Y-106159629D02*
X143379192Y-106035819D01*
X143379192Y-106035819D02*
X143193478Y-105973914D01*
X143193478Y-105973914D02*
X143069669Y-105973914D01*
X143069669Y-105973914D02*
X142883954Y-106035819D01*
X142883954Y-106035819D02*
X142822050Y-106097724D01*
X141707764Y-107273914D02*
X141707764Y-106592962D01*
X141707764Y-106592962D02*
X141769669Y-106469152D01*
X141769669Y-106469152D02*
X141893478Y-106407248D01*
X141893478Y-106407248D02*
X142141097Y-106407248D01*
X142141097Y-106407248D02*
X142264907Y-106469152D01*
X141707764Y-107212010D02*
X141831573Y-107273914D01*
X141831573Y-107273914D02*
X142141097Y-107273914D01*
X142141097Y-107273914D02*
X142264907Y-107212010D01*
X142264907Y-107212010D02*
X142326811Y-107088200D01*
X142326811Y-107088200D02*
X142326811Y-106964390D01*
X142326811Y-106964390D02*
X142264907Y-106840581D01*
X142264907Y-106840581D02*
X142141097Y-106778676D01*
X142141097Y-106778676D02*
X141831573Y-106778676D01*
X141831573Y-106778676D02*
X141707764Y-106716771D01*
X140903002Y-107273914D02*
X141026812Y-107212010D01*
X141026812Y-107212010D02*
X141088717Y-107088200D01*
X141088717Y-107088200D02*
X141088717Y-105973914D01*
X139850622Y-107273914D02*
X139850622Y-105973914D01*
X139850622Y-107212010D02*
X139974431Y-107273914D01*
X139974431Y-107273914D02*
X140222050Y-107273914D01*
X140222050Y-107273914D02*
X140345860Y-107212010D01*
X140345860Y-107212010D02*
X140407765Y-107150105D01*
X140407765Y-107150105D02*
X140469669Y-107026295D01*
X140469669Y-107026295D02*
X140469669Y-106654867D01*
X140469669Y-106654867D02*
X140407765Y-106531057D01*
X140407765Y-106531057D02*
X140345860Y-106469152D01*
X140345860Y-106469152D02*
X140222050Y-106407248D01*
X140222050Y-106407248D02*
X139974431Y-106407248D01*
X139974431Y-106407248D02*
X139850622Y-106469152D01*
X138736337Y-107212010D02*
X138860146Y-107273914D01*
X138860146Y-107273914D02*
X139107765Y-107273914D01*
X139107765Y-107273914D02*
X139231575Y-107212010D01*
X139231575Y-107212010D02*
X139293479Y-107088200D01*
X139293479Y-107088200D02*
X139293479Y-106592962D01*
X139293479Y-106592962D02*
X139231575Y-106469152D01*
X139231575Y-106469152D02*
X139107765Y-106407248D01*
X139107765Y-106407248D02*
X138860146Y-106407248D01*
X138860146Y-106407248D02*
X138736337Y-106469152D01*
X138736337Y-106469152D02*
X138674432Y-106592962D01*
X138674432Y-106592962D02*
X138674432Y-106716771D01*
X138674432Y-106716771D02*
X139293479Y-106840581D01*
X138117289Y-107273914D02*
X138117289Y-106407248D01*
X138117289Y-106654867D02*
X138055384Y-106531057D01*
X138055384Y-106531057D02*
X137993479Y-106469152D01*
X137993479Y-106469152D02*
X137869670Y-106407248D01*
X137869670Y-106407248D02*
X137745860Y-106407248D01*
X137126812Y-107273914D02*
X137250622Y-107212010D01*
X137250622Y-107212010D02*
X137312527Y-107150105D01*
X137312527Y-107150105D02*
X137374431Y-107026295D01*
X137374431Y-107026295D02*
X137374431Y-106654867D01*
X137374431Y-106654867D02*
X137312527Y-106531057D01*
X137312527Y-106531057D02*
X137250622Y-106469152D01*
X137250622Y-106469152D02*
X137126812Y-106407248D01*
X137126812Y-106407248D02*
X136941098Y-106407248D01*
X136941098Y-106407248D02*
X136817289Y-106469152D01*
X136817289Y-106469152D02*
X136755384Y-106531057D01*
X136755384Y-106531057D02*
X136693479Y-106654867D01*
X136693479Y-106654867D02*
X136693479Y-107026295D01*
X136693479Y-107026295D02*
X136755384Y-107150105D01*
X136755384Y-107150105D02*
X136817289Y-107212010D01*
X136817289Y-107212010D02*
X136941098Y-107273914D01*
X136941098Y-107273914D02*
X137126812Y-107273914D01*
X136136337Y-106407248D02*
X136136337Y-107273914D01*
X136136337Y-106531057D02*
X136074432Y-106469152D01*
X136074432Y-106469152D02*
X135950622Y-106407248D01*
X135950622Y-106407248D02*
X135764908Y-106407248D01*
X135764908Y-106407248D02*
X135641099Y-106469152D01*
X135641099Y-106469152D02*
X135579194Y-106592962D01*
X135579194Y-106592962D02*
X135579194Y-107273914D01*
X150529193Y-108066914D02*
X150405383Y-108066914D01*
X150405383Y-108066914D02*
X150281574Y-108128819D01*
X150281574Y-108128819D02*
X150219669Y-108190724D01*
X150219669Y-108190724D02*
X150157764Y-108314533D01*
X150157764Y-108314533D02*
X150095859Y-108562152D01*
X150095859Y-108562152D02*
X150095859Y-108871676D01*
X150095859Y-108871676D02*
X150157764Y-109119295D01*
X150157764Y-109119295D02*
X150219669Y-109243105D01*
X150219669Y-109243105D02*
X150281574Y-109305010D01*
X150281574Y-109305010D02*
X150405383Y-109366914D01*
X150405383Y-109366914D02*
X150529193Y-109366914D01*
X150529193Y-109366914D02*
X150653002Y-109305010D01*
X150653002Y-109305010D02*
X150714907Y-109243105D01*
X150714907Y-109243105D02*
X150776812Y-109119295D01*
X150776812Y-109119295D02*
X150838716Y-108871676D01*
X150838716Y-108871676D02*
X150838716Y-108562152D01*
X150838716Y-108562152D02*
X150776812Y-108314533D01*
X150776812Y-108314533D02*
X150714907Y-108190724D01*
X150714907Y-108190724D02*
X150653002Y-108128819D01*
X150653002Y-108128819D02*
X150529193Y-108066914D01*
X149476812Y-109366914D02*
X149229193Y-109366914D01*
X149229193Y-109366914D02*
X149105383Y-109305010D01*
X149105383Y-109305010D02*
X149043479Y-109243105D01*
X149043479Y-109243105D02*
X148919669Y-109057390D01*
X148919669Y-109057390D02*
X148857764Y-108809771D01*
X148857764Y-108809771D02*
X148857764Y-108314533D01*
X148857764Y-108314533D02*
X148919669Y-108190724D01*
X148919669Y-108190724D02*
X148981574Y-108128819D01*
X148981574Y-108128819D02*
X149105383Y-108066914D01*
X149105383Y-108066914D02*
X149353002Y-108066914D01*
X149353002Y-108066914D02*
X149476812Y-108128819D01*
X149476812Y-108128819D02*
X149538717Y-108190724D01*
X149538717Y-108190724D02*
X149600621Y-108314533D01*
X149600621Y-108314533D02*
X149600621Y-108624057D01*
X149600621Y-108624057D02*
X149538717Y-108747867D01*
X149538717Y-108747867D02*
X149476812Y-108809771D01*
X149476812Y-108809771D02*
X149353002Y-108871676D01*
X149353002Y-108871676D02*
X149105383Y-108871676D01*
X149105383Y-108871676D02*
X148981574Y-108809771D01*
X148981574Y-108809771D02*
X148919669Y-108747867D01*
X148919669Y-108747867D02*
X148857764Y-108624057D01*
X147372050Y-108005010D02*
X148486336Y-109676438D01*
X146691098Y-108066914D02*
X146567288Y-108066914D01*
X146567288Y-108066914D02*
X146443479Y-108128819D01*
X146443479Y-108128819D02*
X146381574Y-108190724D01*
X146381574Y-108190724D02*
X146319669Y-108314533D01*
X146319669Y-108314533D02*
X146257764Y-108562152D01*
X146257764Y-108562152D02*
X146257764Y-108871676D01*
X146257764Y-108871676D02*
X146319669Y-109119295D01*
X146319669Y-109119295D02*
X146381574Y-109243105D01*
X146381574Y-109243105D02*
X146443479Y-109305010D01*
X146443479Y-109305010D02*
X146567288Y-109366914D01*
X146567288Y-109366914D02*
X146691098Y-109366914D01*
X146691098Y-109366914D02*
X146814907Y-109305010D01*
X146814907Y-109305010D02*
X146876812Y-109243105D01*
X146876812Y-109243105D02*
X146938717Y-109119295D01*
X146938717Y-109119295D02*
X147000621Y-108871676D01*
X147000621Y-108871676D02*
X147000621Y-108562152D01*
X147000621Y-108562152D02*
X146938717Y-108314533D01*
X146938717Y-108314533D02*
X146876812Y-108190724D01*
X146876812Y-108190724D02*
X146814907Y-108128819D01*
X146814907Y-108128819D02*
X146691098Y-108066914D01*
X145638717Y-109366914D02*
X145391098Y-109366914D01*
X145391098Y-109366914D02*
X145267288Y-109305010D01*
X145267288Y-109305010D02*
X145205384Y-109243105D01*
X145205384Y-109243105D02*
X145081574Y-109057390D01*
X145081574Y-109057390D02*
X145019669Y-108809771D01*
X145019669Y-108809771D02*
X145019669Y-108314533D01*
X145019669Y-108314533D02*
X145081574Y-108190724D01*
X145081574Y-108190724D02*
X145143479Y-108128819D01*
X145143479Y-108128819D02*
X145267288Y-108066914D01*
X145267288Y-108066914D02*
X145514907Y-108066914D01*
X145514907Y-108066914D02*
X145638717Y-108128819D01*
X145638717Y-108128819D02*
X145700622Y-108190724D01*
X145700622Y-108190724D02*
X145762526Y-108314533D01*
X145762526Y-108314533D02*
X145762526Y-108624057D01*
X145762526Y-108624057D02*
X145700622Y-108747867D01*
X145700622Y-108747867D02*
X145638717Y-108809771D01*
X145638717Y-108809771D02*
X145514907Y-108871676D01*
X145514907Y-108871676D02*
X145267288Y-108871676D01*
X145267288Y-108871676D02*
X145143479Y-108809771D01*
X145143479Y-108809771D02*
X145081574Y-108747867D01*
X145081574Y-108747867D02*
X145019669Y-108624057D01*
X143533955Y-108005010D02*
X144648241Y-109676438D01*
X143162526Y-108190724D02*
X143100622Y-108128819D01*
X143100622Y-108128819D02*
X142976812Y-108066914D01*
X142976812Y-108066914D02*
X142667288Y-108066914D01*
X142667288Y-108066914D02*
X142543479Y-108128819D01*
X142543479Y-108128819D02*
X142481574Y-108190724D01*
X142481574Y-108190724D02*
X142419669Y-108314533D01*
X142419669Y-108314533D02*
X142419669Y-108438343D01*
X142419669Y-108438343D02*
X142481574Y-108624057D01*
X142481574Y-108624057D02*
X143224431Y-109366914D01*
X143224431Y-109366914D02*
X142419669Y-109366914D01*
X141614908Y-108066914D02*
X141491098Y-108066914D01*
X141491098Y-108066914D02*
X141367289Y-108128819D01*
X141367289Y-108128819D02*
X141305384Y-108190724D01*
X141305384Y-108190724D02*
X141243479Y-108314533D01*
X141243479Y-108314533D02*
X141181574Y-108562152D01*
X141181574Y-108562152D02*
X141181574Y-108871676D01*
X141181574Y-108871676D02*
X141243479Y-109119295D01*
X141243479Y-109119295D02*
X141305384Y-109243105D01*
X141305384Y-109243105D02*
X141367289Y-109305010D01*
X141367289Y-109305010D02*
X141491098Y-109366914D01*
X141491098Y-109366914D02*
X141614908Y-109366914D01*
X141614908Y-109366914D02*
X141738717Y-109305010D01*
X141738717Y-109305010D02*
X141800622Y-109243105D01*
X141800622Y-109243105D02*
X141862527Y-109119295D01*
X141862527Y-109119295D02*
X141924431Y-108871676D01*
X141924431Y-108871676D02*
X141924431Y-108562152D01*
X141924431Y-108562152D02*
X141862527Y-108314533D01*
X141862527Y-108314533D02*
X141800622Y-108190724D01*
X141800622Y-108190724D02*
X141738717Y-108128819D01*
X141738717Y-108128819D02*
X141614908Y-108066914D01*
X140686336Y-108190724D02*
X140624432Y-108128819D01*
X140624432Y-108128819D02*
X140500622Y-108066914D01*
X140500622Y-108066914D02*
X140191098Y-108066914D01*
X140191098Y-108066914D02*
X140067289Y-108128819D01*
X140067289Y-108128819D02*
X140005384Y-108190724D01*
X140005384Y-108190724D02*
X139943479Y-108314533D01*
X139943479Y-108314533D02*
X139943479Y-108438343D01*
X139943479Y-108438343D02*
X140005384Y-108624057D01*
X140005384Y-108624057D02*
X140748241Y-109366914D01*
X140748241Y-109366914D02*
X139943479Y-109366914D01*
X139510146Y-108066914D02*
X138705384Y-108066914D01*
X138705384Y-108066914D02*
X139138718Y-108562152D01*
X139138718Y-108562152D02*
X138953003Y-108562152D01*
X138953003Y-108562152D02*
X138829194Y-108624057D01*
X138829194Y-108624057D02*
X138767289Y-108685962D01*
X138767289Y-108685962D02*
X138705384Y-108809771D01*
X138705384Y-108809771D02*
X138705384Y-109119295D01*
X138705384Y-109119295D02*
X138767289Y-109243105D01*
X138767289Y-109243105D02*
X138829194Y-109305010D01*
X138829194Y-109305010D02*
X138953003Y-109366914D01*
X138953003Y-109366914D02*
X139324432Y-109366914D01*
X139324432Y-109366914D02*
X139448241Y-109305010D01*
X139448241Y-109305010D02*
X139510146Y-109243105D01*
%TO.C,G\u002A\u002A\u002A*%
G36*
X150674000Y-95929085D02*
G01*
X150479364Y-95929085D01*
X150479364Y-69069314D01*
X150674000Y-69069314D01*
X150674000Y-95929085D01*
G37*
G36*
X141947819Y-95271918D02*
G01*
X141753183Y-95293938D01*
X141558547Y-95315959D01*
X141558547Y-95896645D01*
X143534125Y-95896645D01*
X143556145Y-95702009D01*
X143578166Y-95507373D01*
X143829300Y-95507373D01*
X143829300Y-96869825D01*
X143578166Y-96869825D01*
X143556145Y-96675189D01*
X143534125Y-96480553D01*
X141558547Y-96480553D01*
X141558547Y-97061240D01*
X141753183Y-97083260D01*
X141947819Y-97105281D01*
X141947819Y-97356415D01*
X141234154Y-97356415D01*
X141234154Y-95020783D01*
X141947819Y-95020783D01*
X141947819Y-95271918D01*
G37*
G36*
X146398378Y-76368165D02*
G01*
X148399271Y-76368165D01*
X148419900Y-76214078D01*
X148429562Y-76144495D01*
X148447559Y-76051418D01*
X148472472Y-76001959D01*
X148513702Y-75982368D01*
X148580645Y-75978893D01*
X148695201Y-75978893D01*
X148695201Y-77345262D01*
X148573553Y-77335193D01*
X148559068Y-77333981D01*
X148496529Y-77324703D01*
X148461372Y-77299843D01*
X148441270Y-77243206D01*
X148423894Y-77138599D01*
X148395882Y-76952073D01*
X146398378Y-76952073D01*
X146353198Y-77341345D01*
X146100054Y-77341345D01*
X146100054Y-75978893D01*
X146353198Y-75978893D01*
X146398378Y-76368165D01*
G37*
G36*
X135735281Y-78479122D02*
G01*
X135833004Y-78479158D01*
X136830514Y-79454846D01*
X137828023Y-80430533D01*
X137828023Y-84526272D01*
X136830710Y-85523974D01*
X135833397Y-86521677D01*
X129263363Y-86521677D01*
X127285239Y-84566189D01*
X127285239Y-84494638D01*
X127479875Y-84494638D01*
X128418076Y-85432420D01*
X129356277Y-86370203D01*
X135768125Y-86326379D01*
X137633387Y-84462199D01*
X137633387Y-80536207D01*
X135735281Y-78638919D01*
X129344717Y-78638919D01*
X127479875Y-80504593D01*
X127479875Y-84494638D01*
X127285239Y-84494638D01*
X127285239Y-80439694D01*
X128266330Y-79458208D01*
X129247420Y-78476722D01*
X135735281Y-78479122D01*
G37*
G36*
X134728321Y-80942111D02*
G01*
X134793590Y-80942111D01*
X135061892Y-81209020D01*
X135330194Y-81475928D01*
X135330194Y-83525750D01*
X135058424Y-83791019D01*
X134786653Y-84056288D01*
X130359049Y-84056288D01*
X129815507Y-83525750D01*
X129815507Y-83425461D01*
X129977704Y-83425461D01*
X130197484Y-83643556D01*
X130417263Y-83861652D01*
X134731941Y-83861652D01*
X134933750Y-83658033D01*
X135135558Y-83454414D01*
X135135558Y-81540365D01*
X134931940Y-81338556D01*
X134728321Y-81136747D01*
X130413895Y-81136747D01*
X130195800Y-81356527D01*
X129977704Y-81576307D01*
X129977704Y-83425461D01*
X129815507Y-83425461D01*
X129815507Y-81478716D01*
X130082416Y-81210413D01*
X130349324Y-80942111D01*
X134728321Y-80942111D01*
G37*
G36*
X134891204Y-78865994D02*
G01*
X135637934Y-78865994D01*
X136522123Y-79749745D01*
X137406312Y-80633495D01*
X137406312Y-84361694D01*
X135672408Y-86099966D01*
X129475337Y-86099966D01*
X128607363Y-85232439D01*
X127739390Y-84364912D01*
X127739390Y-83619463D01*
X129523553Y-83619463D01*
X129872806Y-83967633D01*
X130222058Y-84315802D01*
X134925862Y-84315802D01*
X135257786Y-83982745D01*
X135589709Y-83649688D01*
X135589709Y-81346497D01*
X135240457Y-80998327D01*
X134891204Y-80650157D01*
X130252380Y-80650157D01*
X129887967Y-81015607D01*
X129523553Y-81381058D01*
X129523553Y-83619463D01*
X127739390Y-83619463D01*
X127739390Y-80634372D01*
X128623141Y-79750183D01*
X129506891Y-78865994D01*
X134891204Y-78865994D01*
G37*
G36*
X146813719Y-90570224D02*
G01*
X146424447Y-90615404D01*
X146424447Y-91192942D01*
X148395882Y-91192942D01*
X148423894Y-91006415D01*
X148427238Y-90984207D01*
X148444204Y-90889046D01*
X148466027Y-90839058D01*
X148505034Y-90818047D01*
X148573553Y-90809821D01*
X148695201Y-90799753D01*
X148695201Y-92170038D01*
X148573553Y-92159970D01*
X148559068Y-92158757D01*
X148496529Y-92149479D01*
X148461372Y-92124619D01*
X148441270Y-92067983D01*
X148423894Y-91963376D01*
X148395882Y-91776850D01*
X146424447Y-91776850D01*
X146424447Y-92357536D01*
X146619083Y-92379557D01*
X146813719Y-92401577D01*
X146813719Y-92652712D01*
X146100054Y-92652712D01*
X146100054Y-90317079D01*
X146813719Y-90317079D01*
X146813719Y-90570224D01*
G37*
G36*
X148695201Y-90029042D02*
G01*
X148573553Y-90018974D01*
X148558557Y-90017718D01*
X148496291Y-90008413D01*
X148461272Y-89983459D01*
X148441212Y-89926683D01*
X148423825Y-89821916D01*
X148395745Y-89634927D01*
X147401986Y-89643500D01*
X146408228Y-89652073D01*
X146349068Y-90025125D01*
X146098738Y-90025125D01*
X146116274Y-88678893D01*
X146229811Y-88678893D01*
X146243058Y-88678907D01*
X146301589Y-88683060D01*
X146334710Y-88705286D01*
X146354080Y-88760951D01*
X146371361Y-88865419D01*
X146399373Y-89051945D01*
X148399271Y-89051945D01*
X148419900Y-88897859D01*
X148429562Y-88828275D01*
X148447559Y-88735198D01*
X148472472Y-88685739D01*
X148513702Y-88666148D01*
X148580645Y-88662673D01*
X148695201Y-88662673D01*
X148695201Y-90029042D01*
G37*
G36*
X143829300Y-83050668D02*
G01*
X143578823Y-83050668D01*
X143559521Y-82887699D01*
X143551790Y-82830414D01*
X143535576Y-82741725D01*
X143520649Y-82693063D01*
X143489994Y-82684745D01*
X143398273Y-82676725D01*
X143250351Y-82670235D01*
X143050810Y-82665421D01*
X142804233Y-82662426D01*
X142515204Y-82661396D01*
X141529329Y-82661396D01*
X141507309Y-82856032D01*
X141485288Y-83050668D01*
X141234154Y-83050668D01*
X141234154Y-81684300D01*
X141355801Y-81694368D01*
X141370286Y-81695580D01*
X141432825Y-81704858D01*
X141467982Y-81729719D01*
X141488084Y-81786355D01*
X141505460Y-81890962D01*
X141533472Y-82077488D01*
X143529982Y-82077488D01*
X143557994Y-81890962D01*
X143561338Y-81868754D01*
X143578304Y-81773593D01*
X143600127Y-81723604D01*
X143639134Y-81702594D01*
X143707653Y-81694368D01*
X143829300Y-81684300D01*
X143829300Y-83050668D01*
G37*
G36*
X141947819Y-90023656D02*
G01*
X141947627Y-90053897D01*
X141939075Y-90122391D01*
X141904579Y-90154314D01*
X141826171Y-90171502D01*
X141747678Y-90183751D01*
X141648277Y-90202230D01*
X141591406Y-90228462D01*
X141565323Y-90276691D01*
X141558284Y-90361161D01*
X141558547Y-90496114D01*
X141558547Y-90771230D01*
X143532678Y-90771230D01*
X143554970Y-90592814D01*
X143577261Y-90414397D01*
X143829300Y-90414397D01*
X143829300Y-91744410D01*
X143577261Y-91744410D01*
X143554970Y-91565994D01*
X143532678Y-91387578D01*
X141558547Y-91387578D01*
X141558547Y-91664330D01*
X141558491Y-91729383D01*
X141561262Y-91844268D01*
X141576182Y-91913783D01*
X141613241Y-91951643D01*
X141682427Y-91971567D01*
X141793732Y-91987271D01*
X141947819Y-92007900D01*
X141947819Y-92263440D01*
X141234154Y-92263440D01*
X141234154Y-89895368D01*
X141947819Y-89895368D01*
X141947819Y-90023656D01*
G37*
G36*
X141355801Y-97589642D02*
G01*
X141370286Y-97590855D01*
X141432825Y-97600133D01*
X141467982Y-97624993D01*
X141488084Y-97681630D01*
X141505460Y-97786237D01*
X141533472Y-97972763D01*
X143534125Y-97972763D01*
X143556145Y-97778127D01*
X143578166Y-97583491D01*
X143829300Y-97583491D01*
X143829300Y-99821805D01*
X143148074Y-99821805D01*
X143148074Y-99567239D01*
X143318381Y-99540167D01*
X143488687Y-99513095D01*
X143506641Y-98556671D01*
X142629045Y-98556671D01*
X142629045Y-99164660D01*
X142791242Y-99186176D01*
X142873518Y-99198409D01*
X142928961Y-99217284D01*
X142950080Y-99253293D01*
X142953438Y-99320112D01*
X142953438Y-99432533D01*
X141980258Y-99432533D01*
X141980258Y-99323558D01*
X141982813Y-99265387D01*
X142001344Y-99226930D01*
X142051910Y-99204696D01*
X142150565Y-99185690D01*
X142320871Y-99156798D01*
X142330198Y-98856735D01*
X142339526Y-98556671D01*
X141556813Y-98556671D01*
X141574767Y-99513095D01*
X141745073Y-99540167D01*
X141915380Y-99567239D01*
X141915380Y-99821805D01*
X141234154Y-99821805D01*
X141234154Y-97579574D01*
X141355801Y-97589642D01*
G37*
G36*
X143829300Y-73578382D02*
G01*
X143148074Y-73578382D01*
X143148074Y-73323536D01*
X143326491Y-73301244D01*
X143504907Y-73278953D01*
X143504907Y-72313248D01*
X142629045Y-72313248D01*
X142629045Y-72923507D01*
X142791242Y-72945815D01*
X142872067Y-72958218D01*
X142928310Y-72977277D01*
X142949915Y-73012891D01*
X142953438Y-73078616D01*
X142953438Y-73189110D01*
X141976148Y-73189110D01*
X141986313Y-73085236D01*
X141991804Y-73044353D01*
X142012392Y-72998701D01*
X142062203Y-72970954D01*
X142158675Y-72947140D01*
X142320871Y-72912917D01*
X142320871Y-72329468D01*
X141939709Y-72320328D01*
X141558547Y-72311189D01*
X141558547Y-73278953D01*
X141736963Y-73301244D01*
X141915380Y-73323536D01*
X141915380Y-73578382D01*
X141234154Y-73578382D01*
X141234154Y-71336152D01*
X141355801Y-71346220D01*
X141370286Y-71347432D01*
X141432825Y-71356710D01*
X141467982Y-71381571D01*
X141488084Y-71438207D01*
X141505460Y-71542814D01*
X141533472Y-71729340D01*
X143529982Y-71729340D01*
X143557994Y-71542814D01*
X143561338Y-71520605D01*
X143578304Y-71425445D01*
X143600127Y-71375456D01*
X143639134Y-71354446D01*
X143707653Y-71346220D01*
X143829300Y-71336152D01*
X143829300Y-73578382D01*
G37*
G36*
X148695201Y-83018229D02*
G01*
X148013975Y-83018229D01*
X148013975Y-82763383D01*
X148370807Y-82718799D01*
X148370807Y-81753095D01*
X147494945Y-81753095D01*
X147494945Y-82367208D01*
X147657142Y-82388724D01*
X147737466Y-82400645D01*
X147793998Y-82419342D01*
X147815765Y-82454536D01*
X147819339Y-82519598D01*
X147819339Y-82628957D01*
X146842048Y-82628957D01*
X146852213Y-82525083D01*
X146857704Y-82484200D01*
X146878292Y-82438548D01*
X146928103Y-82410801D01*
X147024575Y-82386987D01*
X147186772Y-82352764D01*
X147186772Y-81769314D01*
X146805610Y-81760175D01*
X146424447Y-81751036D01*
X146424447Y-82718799D01*
X146602864Y-82741091D01*
X146781280Y-82763383D01*
X146781280Y-83018229D01*
X146099202Y-83018229D01*
X146107738Y-81907182D01*
X146116274Y-80796134D01*
X146229811Y-80796134D01*
X146243058Y-80796148D01*
X146301589Y-80800301D01*
X146334710Y-80822528D01*
X146354080Y-80878192D01*
X146371361Y-80982661D01*
X146399373Y-81169187D01*
X148399271Y-81169187D01*
X148419900Y-81015100D01*
X148429562Y-80945517D01*
X148447559Y-80852440D01*
X148472472Y-80802981D01*
X148513702Y-80783389D01*
X148580645Y-80779915D01*
X148695201Y-80779915D01*
X148695201Y-83018229D01*
G37*
G36*
X148695201Y-73906692D02*
G01*
X148573553Y-73896624D01*
X148559068Y-73895411D01*
X148496529Y-73886133D01*
X148461372Y-73861273D01*
X148441270Y-73804636D01*
X148423894Y-73700030D01*
X148395882Y-73513503D01*
X146862378Y-73515837D01*
X146954365Y-73591093D01*
X146967543Y-73601417D01*
X147035269Y-73651692D01*
X147145852Y-73731925D01*
X147291924Y-73836835D01*
X147466114Y-73961142D01*
X147661056Y-74099565D01*
X147869379Y-74246823D01*
X148692407Y-74827297D01*
X148695201Y-75297667D01*
X146398378Y-75297667D01*
X146353198Y-75686939D01*
X146100054Y-75686939D01*
X146100054Y-74519123D01*
X146353198Y-74519123D01*
X146398378Y-74908395D01*
X147866214Y-74908395D01*
X147651248Y-74754308D01*
X147600466Y-74717891D01*
X147484591Y-74634741D01*
X147332998Y-74525921D01*
X147156023Y-74398853D01*
X146964000Y-74260954D01*
X146767266Y-74119647D01*
X146098250Y-73639073D01*
X146116274Y-72751179D01*
X146229811Y-72751179D01*
X146243058Y-72751193D01*
X146301589Y-72755346D01*
X146334710Y-72777572D01*
X146354080Y-72833237D01*
X146371361Y-72937705D01*
X146399373Y-73124231D01*
X148399271Y-73124231D01*
X148419900Y-72970145D01*
X148429562Y-72900562D01*
X148447559Y-72807484D01*
X148472472Y-72758025D01*
X148513702Y-72738434D01*
X148580645Y-72734959D01*
X148695201Y-72734959D01*
X148695201Y-73906692D01*
G37*
G36*
X146374133Y-93088626D02*
G01*
X146396172Y-93265026D01*
X146994345Y-93656314D01*
X147592517Y-94047603D01*
X148395882Y-94047603D01*
X148423894Y-93861077D01*
X148427238Y-93838869D01*
X148444204Y-93743708D01*
X148466027Y-93693719D01*
X148505034Y-93672709D01*
X148573553Y-93664483D01*
X148695201Y-93654415D01*
X148695201Y-95020783D01*
X148580645Y-95020783D01*
X148542318Y-95020154D01*
X148489814Y-95010082D01*
X148458175Y-94976799D01*
X148438004Y-94906555D01*
X148419900Y-94785598D01*
X148399271Y-94631511D01*
X147559147Y-94631511D01*
X146977724Y-95006065D01*
X146396301Y-95380620D01*
X146374197Y-95557534D01*
X146352093Y-95734449D01*
X146100054Y-95734449D01*
X146100054Y-94599072D01*
X146349068Y-94599072D01*
X146378648Y-94777158D01*
X146408228Y-94955243D01*
X146748841Y-94742026D01*
X146885746Y-94656242D01*
X147010727Y-94577773D01*
X147108234Y-94516390D01*
X147164499Y-94480746D01*
X147176207Y-94473069D01*
X147197930Y-94453472D01*
X147198644Y-94431245D01*
X147171594Y-94399960D01*
X147110027Y-94353191D01*
X147007189Y-94284511D01*
X146856326Y-94187494D01*
X146811408Y-94158819D01*
X146674288Y-94072121D01*
X146558509Y-94000139D01*
X146475127Y-93949697D01*
X146435198Y-93927618D01*
X146420828Y-93929926D01*
X146395234Y-93981673D01*
X146374692Y-94093805D01*
X146352093Y-94274678D01*
X146100054Y-94274678D01*
X146100054Y-92912226D01*
X146352093Y-92912226D01*
X146374133Y-93088626D01*
G37*
G36*
X141266593Y-65305733D02*
G01*
X141266603Y-65316931D01*
X141264471Y-65379278D01*
X141249384Y-65418690D01*
X141208599Y-65443672D01*
X141129375Y-65462730D01*
X140998968Y-65484369D01*
X140877321Y-65503927D01*
X140877321Y-66247092D01*
X142188928Y-66247092D01*
X142273741Y-66247121D01*
X142588062Y-66247591D01*
X142844869Y-66247805D01*
X143050091Y-66246672D01*
X143209656Y-66243100D01*
X143329494Y-66235997D01*
X143415534Y-66224271D01*
X143473705Y-66206830D01*
X143509936Y-66182583D01*
X143530157Y-66150437D01*
X143540297Y-66109300D01*
X143546284Y-66058081D01*
X143554048Y-65995687D01*
X143562533Y-65944581D01*
X143582309Y-65884441D01*
X143622505Y-65861490D01*
X143702394Y-65857820D01*
X143829300Y-65857820D01*
X143829300Y-67252712D01*
X143702394Y-67252712D01*
X143655261Y-67252128D01*
X143598141Y-67240805D01*
X143570827Y-67201014D01*
X143554048Y-67114844D01*
X143551701Y-67098764D01*
X143544906Y-67039157D01*
X143538462Y-66990461D01*
X143526440Y-66951586D01*
X143502911Y-66921439D01*
X143461946Y-66898928D01*
X143397615Y-66882961D01*
X143303990Y-66872446D01*
X143175142Y-66866292D01*
X143005140Y-66863406D01*
X142788057Y-66862697D01*
X142517963Y-66863072D01*
X142188928Y-66863440D01*
X140877321Y-66863440D01*
X140877321Y-67235874D01*
X140876989Y-67326918D01*
X140877374Y-67459341D01*
X140885428Y-67545024D01*
X140908682Y-67595841D01*
X140954667Y-67623662D01*
X141030911Y-67640359D01*
X141144945Y-67657804D01*
X141173593Y-67662613D01*
X141237238Y-67681864D01*
X141262249Y-67722264D01*
X141266593Y-67805650D01*
X141266593Y-67933938D01*
X140520488Y-67933938D01*
X140520488Y-65176594D01*
X141266593Y-65176594D01*
X141266593Y-65305733D01*
G37*
G36*
X146378648Y-77751350D02*
G01*
X146408228Y-77934279D01*
X147494945Y-78344695D01*
X147726169Y-78432033D01*
X147963417Y-78521673D01*
X148176377Y-78602166D01*
X148357767Y-78670757D01*
X148500306Y-78724692D01*
X148596712Y-78761219D01*
X148639703Y-78777583D01*
X148652369Y-78783510D01*
X148675496Y-78808176D01*
X148687786Y-78857473D01*
X148691366Y-78944765D01*
X148688362Y-79083418D01*
X148678981Y-79366781D01*
X147543604Y-79792361D01*
X146408228Y-80217940D01*
X146378648Y-80401609D01*
X146349068Y-80585279D01*
X146098522Y-80585279D01*
X146107398Y-80025700D01*
X146116274Y-79466122D01*
X146229424Y-79466122D01*
X146293037Y-79469503D01*
X146329915Y-79489983D01*
X146352855Y-79543136D01*
X146374655Y-79644538D01*
X146392274Y-79719090D01*
X146418362Y-79791500D01*
X146441279Y-79817212D01*
X146452650Y-79814246D01*
X146518484Y-79792604D01*
X146629892Y-79753534D01*
X146777186Y-79700630D01*
X146950677Y-79637485D01*
X147140676Y-79567693D01*
X147337497Y-79494847D01*
X147531450Y-79422541D01*
X147712846Y-79354368D01*
X147871998Y-79293922D01*
X147999216Y-79244797D01*
X148084813Y-79210586D01*
X148119101Y-79194882D01*
X148102477Y-79183667D01*
X148034253Y-79152593D01*
X147922109Y-79105626D01*
X147775281Y-79046311D01*
X147603005Y-78978191D01*
X147414516Y-78904811D01*
X147219049Y-78829715D01*
X147025840Y-78756448D01*
X146844123Y-78688555D01*
X146683135Y-78629579D01*
X146552110Y-78583065D01*
X146460284Y-78552557D01*
X146416893Y-78541601D01*
X146406520Y-78557680D01*
X146389881Y-78622484D01*
X146374385Y-78720017D01*
X146352093Y-78898433D01*
X146100054Y-78898433D01*
X146100054Y-77568420D01*
X146349068Y-77568420D01*
X146378648Y-77751350D01*
G37*
G36*
X141355801Y-68134725D02*
G01*
X141370286Y-68135938D01*
X141432825Y-68145216D01*
X141467982Y-68170076D01*
X141488084Y-68226713D01*
X141505460Y-68331320D01*
X141533472Y-68517846D01*
X143534125Y-68517846D01*
X143556145Y-68323210D01*
X143578166Y-68128574D01*
X143829300Y-68128574D01*
X143829300Y-69494942D01*
X143707653Y-69484874D01*
X143693168Y-69483661D01*
X143630629Y-69474383D01*
X143595472Y-69449523D01*
X143575370Y-69392887D01*
X143557994Y-69288280D01*
X143529982Y-69101754D01*
X142629045Y-69101754D01*
X142629045Y-70107373D01*
X143065062Y-70107373D01*
X143088943Y-70107331D01*
X143254926Y-70104492D01*
X143389678Y-70097756D01*
X143481989Y-70087901D01*
X143520649Y-70075707D01*
X143528456Y-70055194D01*
X143544701Y-69981353D01*
X143559521Y-69881071D01*
X143578823Y-69718101D01*
X143829300Y-69718101D01*
X143829300Y-71084470D01*
X143707653Y-71074402D01*
X143693168Y-71073189D01*
X143630629Y-71063911D01*
X143595472Y-71039051D01*
X143575370Y-70982414D01*
X143557994Y-70877807D01*
X143529982Y-70691281D01*
X141533472Y-70691281D01*
X141505460Y-70877807D01*
X141502116Y-70900016D01*
X141485150Y-70995176D01*
X141463327Y-71045165D01*
X141424320Y-71066175D01*
X141355801Y-71074402D01*
X141234154Y-71084470D01*
X141234154Y-69714185D01*
X141355801Y-69724253D01*
X141370286Y-69725465D01*
X141432825Y-69734743D01*
X141467982Y-69759604D01*
X141488084Y-69816240D01*
X141505460Y-69920847D01*
X141533472Y-70107373D01*
X142304652Y-70107373D01*
X142304652Y-69101754D01*
X141533472Y-69101754D01*
X141505460Y-69288280D01*
X141502116Y-69310488D01*
X141485150Y-69405649D01*
X141463327Y-69455637D01*
X141424320Y-69476648D01*
X141355801Y-69484874D01*
X141234154Y-69494942D01*
X141234154Y-68124657D01*
X141355801Y-68134725D01*
G37*
G36*
X141355801Y-78450434D02*
G01*
X141370286Y-78451647D01*
X141432825Y-78460925D01*
X141467982Y-78485785D01*
X141488084Y-78542422D01*
X141505460Y-78647028D01*
X141533472Y-78833555D01*
X143534125Y-78833555D01*
X143556145Y-78638919D01*
X143578166Y-78444283D01*
X143829300Y-78444283D01*
X143829300Y-79810651D01*
X143707653Y-79800583D01*
X143693168Y-79799370D01*
X143630629Y-79790092D01*
X143595472Y-79765232D01*
X143575370Y-79708596D01*
X143557994Y-79603989D01*
X143529982Y-79417463D01*
X142629045Y-79417463D01*
X142629045Y-80423082D01*
X143065062Y-80423082D01*
X143088943Y-80423040D01*
X143254926Y-80420201D01*
X143389678Y-80413465D01*
X143481989Y-80403610D01*
X143520649Y-80391415D01*
X143528456Y-80370903D01*
X143544701Y-80297061D01*
X143559521Y-80196779D01*
X143578823Y-80033810D01*
X143829300Y-80033810D01*
X143829300Y-81400178D01*
X143707653Y-81390110D01*
X143693168Y-81388898D01*
X143630629Y-81379620D01*
X143595472Y-81354760D01*
X143575370Y-81298123D01*
X143557994Y-81193516D01*
X143529982Y-81006990D01*
X141533472Y-81006990D01*
X141505460Y-81193516D01*
X141502116Y-81215725D01*
X141485150Y-81310885D01*
X141463327Y-81360874D01*
X141424320Y-81381884D01*
X141355801Y-81390110D01*
X141234154Y-81400178D01*
X141234154Y-80029894D01*
X141354234Y-80039962D01*
X141355729Y-80040087D01*
X141424018Y-80049118D01*
X141463221Y-80072521D01*
X141486826Y-80126797D01*
X141508321Y-80228446D01*
X141542327Y-80406862D01*
X141923489Y-80416002D01*
X142304652Y-80425141D01*
X142304652Y-79417463D01*
X141533472Y-79417463D01*
X141505460Y-79603989D01*
X141502116Y-79626197D01*
X141485150Y-79721358D01*
X141463327Y-79771346D01*
X141424320Y-79792357D01*
X141355801Y-79800583D01*
X141234154Y-79810651D01*
X141234154Y-78440366D01*
X141355801Y-78450434D01*
G37*
G36*
X143829300Y-93240536D02*
G01*
X143707786Y-93230468D01*
X143640725Y-93222373D01*
X143599660Y-93200707D01*
X143577209Y-93148966D01*
X143559335Y-93050093D01*
X143547718Y-92990409D01*
X143520842Y-92909812D01*
X143491724Y-92879787D01*
X143450587Y-92888822D01*
X143365380Y-92917096D01*
X143259013Y-92957916D01*
X143066976Y-93036045D01*
X143066976Y-94022486D01*
X143294051Y-94112912D01*
X143521127Y-94203338D01*
X143554328Y-94020043D01*
X143556697Y-94006984D01*
X143576922Y-93909161D01*
X143600307Y-93857349D01*
X143639817Y-93835277D01*
X143708414Y-93826679D01*
X143829300Y-93816611D01*
X143829300Y-95186896D01*
X143707653Y-95176828D01*
X143698154Y-95176037D01*
X143632951Y-95166988D01*
X143596447Y-95143007D01*
X143575919Y-95087678D01*
X143558640Y-94984584D01*
X143531274Y-94802407D01*
X142877414Y-94549917D01*
X142660924Y-94466238D01*
X142407576Y-94368155D01*
X142154098Y-94269882D01*
X141920712Y-94179259D01*
X141727642Y-94104128D01*
X141231730Y-93910828D01*
X141241052Y-93630744D01*
X141244452Y-93528574D01*
X141785622Y-93528574D01*
X141789616Y-93532396D01*
X141837323Y-93555708D01*
X141928911Y-93594105D01*
X142051718Y-93642827D01*
X142193078Y-93697113D01*
X142340327Y-93752205D01*
X142480802Y-93803340D01*
X142601837Y-93845759D01*
X142690769Y-93874701D01*
X142734932Y-93885406D01*
X142743216Y-93863121D01*
X142751291Y-93787842D01*
X142756779Y-93671962D01*
X142758802Y-93528574D01*
X142757312Y-93404747D01*
X142752276Y-93284027D01*
X142744524Y-93201995D01*
X142734932Y-93171741D01*
X142724763Y-93173242D01*
X142662746Y-93191174D01*
X142560595Y-93225601D01*
X142430976Y-93271763D01*
X142286553Y-93324898D01*
X142139989Y-93380247D01*
X142003950Y-93433050D01*
X141891100Y-93478545D01*
X141814102Y-93511973D01*
X141785622Y-93528574D01*
X141244452Y-93528574D01*
X141250373Y-93350660D01*
X142385750Y-92911486D01*
X142734932Y-92776420D01*
X143521127Y-92472313D01*
X143580287Y-92101243D01*
X143829300Y-92101243D01*
X143829300Y-93240536D01*
G37*
G36*
X142353137Y-75256535D02*
G01*
X142715869Y-75295225D01*
X143028670Y-75375046D01*
X143291933Y-75496268D01*
X143506053Y-75659164D01*
X143671423Y-75864004D01*
X143788437Y-76111061D01*
X143857490Y-76400604D01*
X143869711Y-76525992D01*
X143875374Y-76695899D01*
X143870924Y-76854755D01*
X143848309Y-77051204D01*
X143774994Y-77339476D01*
X143655938Y-77583641D01*
X143490070Y-77784619D01*
X143276321Y-77943332D01*
X143013621Y-78060700D01*
X142700901Y-78137644D01*
X142337091Y-78175084D01*
X142008070Y-78175618D01*
X141662840Y-78139235D01*
X141357584Y-78064542D01*
X141096293Y-77952901D01*
X140882958Y-77805672D01*
X140721571Y-77624217D01*
X140625721Y-77455443D01*
X140531716Y-77197079D01*
X140480761Y-76919108D01*
X140472438Y-76644563D01*
X140839541Y-76644563D01*
X140841190Y-76825517D01*
X140873974Y-76990591D01*
X140931762Y-77097947D01*
X141034243Y-77215889D01*
X141161331Y-77321586D01*
X141294505Y-77397134D01*
X141406595Y-77436410D01*
X141631194Y-77486910D01*
X141890082Y-77518682D01*
X142165607Y-77530559D01*
X142440116Y-77521371D01*
X142695957Y-77489950D01*
X142931559Y-77432946D01*
X143154754Y-77337396D01*
X143323301Y-77209826D01*
X143438624Y-77049391D01*
X143456164Y-77011691D01*
X143509151Y-76820275D01*
X143513423Y-76621136D01*
X143470329Y-76432532D01*
X143381219Y-76272723D01*
X143347540Y-76233435D01*
X143199731Y-76108081D01*
X143011950Y-76013502D01*
X142779188Y-75948167D01*
X142496433Y-75910545D01*
X142158675Y-75899105D01*
X141856076Y-75909929D01*
X141571608Y-75946225D01*
X141338700Y-76009780D01*
X141152734Y-76102367D01*
X141009092Y-76225764D01*
X140903153Y-76381745D01*
X140867691Y-76475574D01*
X140839541Y-76644563D01*
X140472438Y-76644563D01*
X140472103Y-76633497D01*
X140504990Y-76352211D01*
X140578670Y-76087219D01*
X140692391Y-75850487D01*
X140845400Y-75653981D01*
X141003347Y-75523238D01*
X141229476Y-75401974D01*
X141500371Y-75317159D01*
X141819695Y-75267699D01*
X142158675Y-75253829D01*
X142191114Y-75252502D01*
X142353137Y-75256535D01*
G37*
G36*
X148695201Y-84773869D02*
G01*
X148573553Y-84763801D01*
X148559068Y-84762589D01*
X148496529Y-84753311D01*
X148461372Y-84728450D01*
X148441270Y-84671814D01*
X148423894Y-84567207D01*
X148395882Y-84380681D01*
X147518947Y-84380681D01*
X147535856Y-84530698D01*
X147539980Y-84560981D01*
X147567165Y-84659187D01*
X147619362Y-84745441D01*
X147704019Y-84825789D01*
X147828583Y-84906276D01*
X148000504Y-84992948D01*
X148227228Y-85091849D01*
X148678981Y-85280274D01*
X148688033Y-85706340D01*
X148697084Y-86132405D01*
X148581587Y-86132405D01*
X148545961Y-86131896D01*
X148491548Y-86122403D01*
X148458947Y-86090050D01*
X148438489Y-86020962D01*
X148420507Y-85901268D01*
X148400486Y-85751229D01*
X148111617Y-85631495D01*
X148065753Y-85611975D01*
X147906647Y-85538134D01*
X147752655Y-85458847D01*
X147631597Y-85388213D01*
X147440446Y-85264666D01*
X147378487Y-85379932D01*
X147354578Y-85416994D01*
X147272310Y-85507929D01*
X147174449Y-85585370D01*
X147078981Y-85637648D01*
X146882923Y-85696553D01*
X146689173Y-85693437D01*
X146505352Y-85629041D01*
X146339081Y-85504106D01*
X146280953Y-85442547D01*
X146231092Y-85377210D01*
X146192532Y-85304374D01*
X146163824Y-85215843D01*
X146143517Y-85103423D01*
X146130160Y-84958916D01*
X146122303Y-84774127D01*
X146120045Y-84635821D01*
X146424447Y-84635821D01*
X146425883Y-84737095D01*
X146434933Y-84844294D01*
X146455459Y-84917687D01*
X146491066Y-84975653D01*
X146589041Y-85059689D01*
X146724964Y-85108231D01*
X146873708Y-85111001D01*
X147017841Y-85067912D01*
X147139927Y-84978877D01*
X147179424Y-84928815D01*
X147206105Y-84865827D01*
X147221534Y-84774958D01*
X147230628Y-84637718D01*
X147242300Y-84380681D01*
X146424447Y-84380681D01*
X146424447Y-84635821D01*
X146120045Y-84635821D01*
X146118495Y-84540862D01*
X146117286Y-84250924D01*
X146116274Y-83423721D01*
X146229811Y-83423721D01*
X146243058Y-83423735D01*
X146301589Y-83427888D01*
X146334710Y-83450114D01*
X146354080Y-83505778D01*
X146371361Y-83610247D01*
X146399373Y-83796773D01*
X147242300Y-83796773D01*
X148399271Y-83796773D01*
X148419900Y-83642686D01*
X148429562Y-83573103D01*
X148447559Y-83480026D01*
X148472472Y-83430567D01*
X148513702Y-83410976D01*
X148580645Y-83407501D01*
X148695201Y-83407501D01*
X148695201Y-84773869D01*
G37*
G36*
X142650072Y-83295807D02*
G01*
X142812603Y-83299066D01*
X142933686Y-83306618D01*
X143028169Y-83320181D01*
X143110902Y-83341475D01*
X143196733Y-83372221D01*
X143349672Y-83448010D01*
X143541463Y-83597185D01*
X143693138Y-83784173D01*
X143793007Y-83996732D01*
X143799614Y-84018314D01*
X143844313Y-84237149D01*
X143859918Y-84498911D01*
X143852501Y-84700081D01*
X143804086Y-84984536D01*
X143710078Y-85223415D01*
X143569779Y-85417381D01*
X143382491Y-85567093D01*
X143147518Y-85673212D01*
X142864163Y-85736399D01*
X142531727Y-85757314D01*
X142293935Y-85749217D01*
X142055148Y-85715963D01*
X141855527Y-85653312D01*
X141683185Y-85557323D01*
X141526234Y-85424056D01*
X141440392Y-85332568D01*
X141347774Y-85208257D01*
X141283925Y-85076407D01*
X141244159Y-84922877D01*
X141223792Y-84733527D01*
X141219035Y-84532176D01*
X141531505Y-84532176D01*
X141573210Y-84721732D01*
X141615361Y-84811155D01*
X141715021Y-84935960D01*
X141854566Y-85028796D01*
X142039161Y-85091831D01*
X142273972Y-85127230D01*
X142564166Y-85137157D01*
X142706288Y-85133588D01*
X142951561Y-85109356D01*
X143145502Y-85059872D01*
X143294892Y-84982146D01*
X143406511Y-84873187D01*
X143487139Y-84730003D01*
X143492075Y-84717666D01*
X143523974Y-84606440D01*
X143536634Y-84503370D01*
X143529382Y-84431397D01*
X143485036Y-84289397D01*
X143411607Y-84159016D01*
X143322161Y-84066852D01*
X143234010Y-84010903D01*
X143142229Y-83967570D01*
X143039590Y-83938515D01*
X142912614Y-83921066D01*
X142747819Y-83912554D01*
X142531727Y-83910311D01*
X142508238Y-83910316D01*
X142327303Y-83911250D01*
X142195492Y-83915102D01*
X142098614Y-83923754D01*
X142022480Y-83939088D01*
X141952899Y-83962988D01*
X141875682Y-83997334D01*
X141761422Y-84064186D01*
X141628984Y-84195324D01*
X141551221Y-84354014D01*
X141531505Y-84532176D01*
X141219035Y-84532176D01*
X141218138Y-84494219D01*
X141218326Y-84418466D01*
X141220942Y-84269383D01*
X141228833Y-84160665D01*
X141244758Y-84074871D01*
X141271474Y-83994557D01*
X141311740Y-83902283D01*
X141319119Y-83886576D01*
X141457695Y-83668024D01*
X141641463Y-83495973D01*
X141869354Y-83371438D01*
X141929819Y-83348284D01*
X142008552Y-83324283D01*
X142093431Y-83308664D01*
X142199135Y-83299738D01*
X142340341Y-83295816D01*
X142531727Y-83295207D01*
X142650072Y-83295807D01*
G37*
G36*
X143759414Y-87665164D02*
G01*
X143794296Y-87797523D01*
X143832262Y-87972208D01*
X143858342Y-88127424D01*
X143867559Y-88213525D01*
X143873963Y-88501076D01*
X143847453Y-88788988D01*
X143790198Y-89047957D01*
X143748999Y-89156883D01*
X143629144Y-89348379D01*
X143466612Y-89498744D01*
X143268987Y-89604510D01*
X143043852Y-89662204D01*
X142798790Y-89668357D01*
X142541385Y-89619497D01*
X142428777Y-89576778D01*
X142291807Y-89490042D01*
X142172409Y-89365192D01*
X142065733Y-89195544D01*
X141966935Y-88974412D01*
X141871167Y-88695113D01*
X141824325Y-88552820D01*
X141740593Y-88348901D01*
X141651277Y-88200574D01*
X141551297Y-88101934D01*
X141435575Y-88047079D01*
X141299032Y-88030106D01*
X141137301Y-88055320D01*
X141004771Y-88134754D01*
X140896392Y-88272573D01*
X140885843Y-88293090D01*
X140851690Y-88415397D01*
X140835604Y-88584533D01*
X140838208Y-88787779D01*
X140860126Y-89012414D01*
X140866801Y-89062204D01*
X140879064Y-89124186D01*
X140903329Y-89163071D01*
X140952521Y-89187710D01*
X141039564Y-89206951D01*
X141177385Y-89229645D01*
X141226838Y-89238525D01*
X141276938Y-89259246D01*
X141296007Y-89304329D01*
X141299032Y-89394028D01*
X141299032Y-89538535D01*
X140655277Y-89538535D01*
X140622147Y-89433108D01*
X140542006Y-89135070D01*
X140486857Y-88802952D01*
X140473306Y-88495979D01*
X140500418Y-88218957D01*
X140567259Y-87976692D01*
X140672894Y-87773990D01*
X140816388Y-87615658D01*
X140996807Y-87506501D01*
X141163267Y-87456189D01*
X141386415Y-87436726D01*
X141608944Y-87463864D01*
X141813847Y-87535162D01*
X141984119Y-87648182D01*
X142014942Y-87677329D01*
X142095143Y-87769271D01*
X142168968Y-87883095D01*
X142241775Y-88029107D01*
X142318926Y-88217612D01*
X142405781Y-88458917D01*
X142457069Y-88602494D01*
X142510077Y-88740866D01*
X142555221Y-88848687D01*
X142586287Y-88910422D01*
X142655618Y-88987246D01*
X142790837Y-89059300D01*
X142960443Y-89084385D01*
X142965773Y-89084361D01*
X143143817Y-89053042D01*
X143292803Y-88964463D01*
X143407589Y-88821644D01*
X143422015Y-88795686D01*
X143452252Y-88731743D01*
X143471619Y-88664573D01*
X143482435Y-88578768D01*
X143487019Y-88458920D01*
X143487693Y-88289621D01*
X143486817Y-88161280D01*
X143480962Y-88001563D01*
X143465071Y-87890647D01*
X143433935Y-87818631D01*
X143382349Y-87775615D01*
X143305102Y-87751699D01*
X143196989Y-87736982D01*
X142985878Y-87714374D01*
X142985878Y-87429979D01*
X143690092Y-87429979D01*
X143759414Y-87665164D01*
G37*
G36*
X145544918Y-69264143D02*
G01*
X145613412Y-69272694D01*
X145645334Y-69307190D01*
X145662522Y-69385598D01*
X145664195Y-69395937D01*
X145681683Y-69498297D01*
X145697049Y-69580234D01*
X145712018Y-69653222D01*
X146787880Y-69653222D01*
X146846699Y-69653235D01*
X147140155Y-69653830D01*
X147377775Y-69655560D01*
X147567230Y-69658759D01*
X147716190Y-69663759D01*
X147832326Y-69670893D01*
X147923306Y-69680494D01*
X147996803Y-69692894D01*
X148060485Y-69708426D01*
X148213450Y-69768586D01*
X148394439Y-69898627D01*
X148540986Y-70082333D01*
X148652066Y-70318321D01*
X148726651Y-70605210D01*
X148740129Y-70719313D01*
X148744800Y-70915204D01*
X148734195Y-71129829D01*
X148709816Y-71337706D01*
X148673163Y-71513351D01*
X148647844Y-71591153D01*
X148575944Y-71732574D01*
X148462959Y-71874794D01*
X148453287Y-71885378D01*
X148388087Y-71955415D01*
X148328263Y-72012743D01*
X148266792Y-72058696D01*
X148196647Y-72094611D01*
X148110804Y-72121822D01*
X148002237Y-72141665D01*
X147863920Y-72155475D01*
X147688829Y-72164589D01*
X147469938Y-72170340D01*
X147200223Y-72174066D01*
X146872657Y-72177101D01*
X145715119Y-72187213D01*
X145697840Y-72274560D01*
X145696508Y-72281339D01*
X145678444Y-72377671D01*
X145659299Y-72485278D01*
X145654492Y-72512304D01*
X145635153Y-72577704D01*
X145597497Y-72600768D01*
X145520322Y-72598816D01*
X145402608Y-72588982D01*
X145393767Y-71996965D01*
X145384925Y-71404947D01*
X145513944Y-71404947D01*
X145545558Y-71405156D01*
X145613676Y-71413806D01*
X145645412Y-71448348D01*
X145662522Y-71526594D01*
X145664131Y-71536533D01*
X145681801Y-71639706D01*
X145697534Y-71723162D01*
X145712988Y-71798083D01*
X147932876Y-71777999D01*
X148083848Y-71689249D01*
X148212673Y-71590355D01*
X148309338Y-71452555D01*
X148364932Y-71275168D01*
X148383179Y-71050245D01*
X148383185Y-71047618D01*
X148377850Y-70908429D01*
X148363484Y-70778382D01*
X148343142Y-70685311D01*
X148293053Y-70588302D01*
X148189342Y-70467209D01*
X148060294Y-70366102D01*
X147927063Y-70304349D01*
X147863340Y-70294976D01*
X147738007Y-70286395D01*
X147558996Y-70279411D01*
X147332075Y-70274195D01*
X147063010Y-70270918D01*
X146757569Y-70269751D01*
X145712018Y-70269570D01*
X145697049Y-70342558D01*
X145695741Y-70349029D01*
X145679777Y-70435237D01*
X145662522Y-70537194D01*
X145657713Y-70565842D01*
X145638462Y-70629487D01*
X145598062Y-70654498D01*
X145514676Y-70658842D01*
X145386389Y-70658842D01*
X145386389Y-69263950D01*
X145514676Y-69263950D01*
X145544918Y-69264143D01*
G37*
G36*
X148329638Y-86393194D02*
G01*
X148453523Y-86399520D01*
X148542224Y-86409946D01*
X148580900Y-86423125D01*
X148582448Y-86425981D01*
X148601321Y-86478075D01*
X148629721Y-86572394D01*
X148662127Y-86690750D01*
X148695297Y-86853163D01*
X148720559Y-87091478D01*
X148725405Y-87338821D01*
X148709600Y-87571735D01*
X148672908Y-87766761D01*
X148606738Y-87934322D01*
X148484576Y-88106894D01*
X148324994Y-88233848D01*
X148135622Y-88307504D01*
X147983311Y-88327862D01*
X147770664Y-88310044D01*
X147580073Y-88238841D01*
X147420798Y-88118203D01*
X147302100Y-87952079D01*
X147280234Y-87903227D01*
X147237333Y-87791627D01*
X147187852Y-87649939D01*
X147138686Y-87497343D01*
X147137456Y-87493356D01*
X147066686Y-87288587D01*
X146996580Y-87141372D01*
X146921807Y-87044788D01*
X146837033Y-86991914D01*
X146736925Y-86975828D01*
X146626155Y-86995120D01*
X146519286Y-87067748D01*
X146445722Y-87189493D01*
X146408346Y-87355206D01*
X146410042Y-87559736D01*
X146416250Y-87621225D01*
X146431262Y-87745176D01*
X146449650Y-87822195D01*
X146478372Y-87865100D01*
X146524387Y-87886712D01*
X146594652Y-87899850D01*
X146691906Y-87915701D01*
X146779255Y-87936366D01*
X146825252Y-87964440D01*
X146843139Y-88009456D01*
X146846159Y-88080951D01*
X146846159Y-88208523D01*
X146537182Y-88208523D01*
X146432758Y-88208595D01*
X146326715Y-88204030D01*
X146254302Y-88185157D01*
X146205953Y-88142175D01*
X146172100Y-88065287D01*
X146143175Y-87944692D01*
X146109613Y-87770592D01*
X146097176Y-87698565D01*
X146073563Y-87435825D01*
X146082735Y-87182981D01*
X146122778Y-86952512D01*
X146191777Y-86756898D01*
X146287819Y-86608619D01*
X146307306Y-86588388D01*
X146451401Y-86488219D01*
X146629687Y-86426655D01*
X146823891Y-86408015D01*
X147015742Y-86436615D01*
X147026939Y-86439943D01*
X147157854Y-86493151D01*
X147268504Y-86571190D01*
X147364500Y-86681977D01*
X147451452Y-86833427D01*
X147534973Y-87033456D01*
X147620672Y-87289978D01*
X147629736Y-87319025D01*
X147693166Y-87498386D01*
X147755884Y-87623113D01*
X147825026Y-87701694D01*
X147907729Y-87742617D01*
X148011132Y-87754372D01*
X148021684Y-87754272D01*
X148153558Y-87730242D01*
X148252102Y-87661340D01*
X148319576Y-87543743D01*
X148358243Y-87373630D01*
X148370365Y-87147176D01*
X148370296Y-87108796D01*
X148368300Y-86949233D01*
X148359203Y-86841039D01*
X148337060Y-86772923D01*
X148295929Y-86733595D01*
X148229865Y-86711764D01*
X148132926Y-86696140D01*
X147932876Y-86667654D01*
X147912926Y-86391920D01*
X148237270Y-86391920D01*
X148329638Y-86393194D01*
G37*
%TD*%
D13*
X101600000Y-50800000D02*
X154940000Y-50800000D01*
X154940000Y-114300000D01*
X101600000Y-114300000D01*
X101600000Y-50800000D01*
M02*
