%TF.GenerationSoftware,KiCad,Pcbnew,7.0.7*%
%TF.CreationDate,2023-09-14T15:48:19-04:00*%
%TF.ProjectId,Heater_North_DCT_HSK,48656174-6572-45f4-9e6f-7274685f4443,rev?*%
%TF.SameCoordinates,Original*%
%TF.FileFunction,Drillmap*%
%TF.FilePolarity,Positive*%
%FSLAX45Y45*%
G04 Gerber Fmt 4.5, Leading zero omitted, Abs format (unit mm)*
G04 Created by KiCad (PCBNEW 7.0.7) date 2023-09-14 15:48:19*
%MOMM*%
%LPD*%
G01*
G04 APERTURE LIST*
%ADD10C,0.100000*%
%ADD11C,0.200000*%
%ADD12C,0.040000*%
%ADD13C,0.056000*%
G04 APERTURE END LIST*
D10*
X10160000Y-5080000D02*
X15494000Y-5080000D01*
X15494000Y-11430000D01*
X10160000Y-11430000D01*
X10160000Y-5080000D01*
D11*
D12*
X11305722Y-8270560D02*
X11345722Y-8310560D01*
X11345722Y-8270560D02*
X11305722Y-8310560D01*
X12740200Y-7780560D02*
X12780200Y-7820560D01*
X12780200Y-7780560D02*
X12740200Y-7820560D01*
X12860200Y-7727000D02*
X12900200Y-7767000D01*
X12900200Y-7727000D02*
X12860200Y-7767000D01*
X13020200Y-7551740D02*
X13060200Y-7591740D01*
X13060200Y-7551740D02*
X13020200Y-7591740D01*
X13174692Y-5467008D02*
X13214692Y-5507008D01*
X13214692Y-5467008D02*
X13174692Y-5507008D01*
X13180200Y-8270560D02*
X13220200Y-8310560D01*
X13220200Y-8270560D02*
X13180200Y-8310560D01*
X13370200Y-8100560D02*
X13410200Y-8140560D01*
X13410200Y-8100560D02*
X13370200Y-8140560D01*
X13550200Y-7915960D02*
X13590200Y-7955960D01*
X13590200Y-7915960D02*
X13550200Y-7955960D01*
X13680200Y-7480560D02*
X13720200Y-7520560D01*
X13720200Y-7480560D02*
X13680200Y-7520560D01*
X13690920Y-5560380D02*
X13730920Y-5600380D01*
X13730920Y-5560380D02*
X13690920Y-5600380D01*
X14017920Y-7662840D02*
X14057920Y-7702840D01*
X14057920Y-7662840D02*
X14017920Y-7702840D01*
X14556200Y-9794560D02*
X14596200Y-9834560D01*
X14596200Y-9794560D02*
X14556200Y-9834560D01*
X14857340Y-6377700D02*
X14897340Y-6417700D01*
X14897340Y-6377700D02*
X14857340Y-6417700D01*
X14970200Y-9680560D02*
X15010200Y-9720560D01*
X15010200Y-9680560D02*
X14970200Y-9720560D01*
D13*
X10453684Y-5486400D02*
G75*
G03*
X10453684Y-5486400I-28000J0D01*
G01*
X10453684Y-8989060D02*
G75*
G03*
X10453684Y-8989060I-28000J0D01*
G01*
X10454700Y-5613400D02*
G75*
G03*
X10454700Y-5613400I-28000J0D01*
G01*
X10454700Y-5740400D02*
G75*
G03*
X10454700Y-5740400I-28000J0D01*
G01*
X10454700Y-5867400D02*
G75*
G03*
X10454700Y-5867400I-28000J0D01*
G01*
X10454700Y-5994400D02*
G75*
G03*
X10454700Y-5994400I-28000J0D01*
G01*
X10454700Y-6121400D02*
G75*
G03*
X10454700Y-6121400I-28000J0D01*
G01*
X10454700Y-6248400D02*
G75*
G03*
X10454700Y-6248400I-28000J0D01*
G01*
X10454700Y-6375400D02*
G75*
G03*
X10454700Y-6375400I-28000J0D01*
G01*
X10454700Y-6502400D02*
G75*
G03*
X10454700Y-6502400I-28000J0D01*
G01*
X10454700Y-6629400D02*
G75*
G03*
X10454700Y-6629400I-28000J0D01*
G01*
X10454700Y-6756400D02*
G75*
G03*
X10454700Y-6756400I-28000J0D01*
G01*
X10454700Y-6883400D02*
G75*
G03*
X10454700Y-6883400I-28000J0D01*
G01*
X10454700Y-7010400D02*
G75*
G03*
X10454700Y-7010400I-28000J0D01*
G01*
X10454700Y-7137400D02*
G75*
G03*
X10454700Y-7137400I-28000J0D01*
G01*
X10454700Y-7264400D02*
G75*
G03*
X10454700Y-7264400I-28000J0D01*
G01*
X10454700Y-7391400D02*
G75*
G03*
X10454700Y-7391400I-28000J0D01*
G01*
X10454700Y-7518400D02*
G75*
G03*
X10454700Y-7518400I-28000J0D01*
G01*
X10454700Y-9116060D02*
G75*
G03*
X10454700Y-9116060I-28000J0D01*
G01*
X10454700Y-9243060D02*
G75*
G03*
X10454700Y-9243060I-28000J0D01*
G01*
X10454700Y-9370060D02*
G75*
G03*
X10454700Y-9370060I-28000J0D01*
G01*
X10454700Y-9497060D02*
G75*
G03*
X10454700Y-9497060I-28000J0D01*
G01*
X10454700Y-9624060D02*
G75*
G03*
X10454700Y-9624060I-28000J0D01*
G01*
X10454700Y-9751060D02*
G75*
G03*
X10454700Y-9751060I-28000J0D01*
G01*
X10454700Y-9878060D02*
G75*
G03*
X10454700Y-9878060I-28000J0D01*
G01*
X10454700Y-10005060D02*
G75*
G03*
X10454700Y-10005060I-28000J0D01*
G01*
X10454700Y-10132060D02*
G75*
G03*
X10454700Y-10132060I-28000J0D01*
G01*
X10454700Y-10259060D02*
G75*
G03*
X10454700Y-10259060I-28000J0D01*
G01*
X10454700Y-10386060D02*
G75*
G03*
X10454700Y-10386060I-28000J0D01*
G01*
X10454700Y-10513060D02*
G75*
G03*
X10454700Y-10513060I-28000J0D01*
G01*
X10454700Y-10640060D02*
G75*
G03*
X10454700Y-10640060I-28000J0D01*
G01*
X10454700Y-10767060D02*
G75*
G03*
X10454700Y-10767060I-28000J0D01*
G01*
X10454700Y-10894060D02*
G75*
G03*
X10454700Y-10894060I-28000J0D01*
G01*
X10454700Y-11021060D02*
G75*
G03*
X10454700Y-11021060I-28000J0D01*
G01*
X10708700Y-5613400D02*
G75*
G03*
X10708700Y-5613400I-28000J0D01*
G01*
X10708700Y-5740400D02*
G75*
G03*
X10708700Y-5740400I-28000J0D01*
G01*
X10708700Y-5867400D02*
G75*
G03*
X10708700Y-5867400I-28000J0D01*
G01*
X10708700Y-5994400D02*
G75*
G03*
X10708700Y-5994400I-28000J0D01*
G01*
X10708700Y-6121400D02*
G75*
G03*
X10708700Y-6121400I-28000J0D01*
G01*
X10708700Y-6248400D02*
G75*
G03*
X10708700Y-6248400I-28000J0D01*
G01*
X10708700Y-6375400D02*
G75*
G03*
X10708700Y-6375400I-28000J0D01*
G01*
X10708700Y-6502400D02*
G75*
G03*
X10708700Y-6502400I-28000J0D01*
G01*
X10708700Y-6629400D02*
G75*
G03*
X10708700Y-6629400I-28000J0D01*
G01*
X10708700Y-6756400D02*
G75*
G03*
X10708700Y-6756400I-28000J0D01*
G01*
X10708700Y-6883400D02*
G75*
G03*
X10708700Y-6883400I-28000J0D01*
G01*
X10708700Y-7010400D02*
G75*
G03*
X10708700Y-7010400I-28000J0D01*
G01*
X10708700Y-7137400D02*
G75*
G03*
X10708700Y-7137400I-28000J0D01*
G01*
X10708700Y-7264400D02*
G75*
G03*
X10708700Y-7264400I-28000J0D01*
G01*
X10708700Y-7391400D02*
G75*
G03*
X10708700Y-7391400I-28000J0D01*
G01*
X10708700Y-7518400D02*
G75*
G03*
X10708700Y-7518400I-28000J0D01*
G01*
X10708700Y-9116060D02*
G75*
G03*
X10708700Y-9116060I-28000J0D01*
G01*
X10708700Y-9243060D02*
G75*
G03*
X10708700Y-9243060I-28000J0D01*
G01*
X10708700Y-9370060D02*
G75*
G03*
X10708700Y-9370060I-28000J0D01*
G01*
X10708700Y-9497060D02*
G75*
G03*
X10708700Y-9497060I-28000J0D01*
G01*
X10708700Y-9624060D02*
G75*
G03*
X10708700Y-9624060I-28000J0D01*
G01*
X10708700Y-9751060D02*
G75*
G03*
X10708700Y-9751060I-28000J0D01*
G01*
X10708700Y-9878060D02*
G75*
G03*
X10708700Y-9878060I-28000J0D01*
G01*
X10708700Y-10005060D02*
G75*
G03*
X10708700Y-10005060I-28000J0D01*
G01*
X10708700Y-10132060D02*
G75*
G03*
X10708700Y-10132060I-28000J0D01*
G01*
X10708700Y-10259060D02*
G75*
G03*
X10708700Y-10259060I-28000J0D01*
G01*
X10708700Y-10386060D02*
G75*
G03*
X10708700Y-10386060I-28000J0D01*
G01*
X10708700Y-10513060D02*
G75*
G03*
X10708700Y-10513060I-28000J0D01*
G01*
X10708700Y-10640060D02*
G75*
G03*
X10708700Y-10640060I-28000J0D01*
G01*
X10708700Y-10767060D02*
G75*
G03*
X10708700Y-10767060I-28000J0D01*
G01*
X10708700Y-10894060D02*
G75*
G03*
X10708700Y-10894060I-28000J0D01*
G01*
X10708700Y-11021060D02*
G75*
G03*
X10708700Y-11021060I-28000J0D01*
G01*
X10709716Y-5486400D02*
G75*
G03*
X10709716Y-5486400I-28000J0D01*
G01*
X10709716Y-8989060D02*
G75*
G03*
X10709716Y-8989060I-28000J0D01*
G01*
X15005364Y-7239000D02*
G75*
G03*
X15005364Y-7239000I-28000J0D01*
G01*
X15006380Y-7366000D02*
G75*
G03*
X15006380Y-7366000I-28000J0D01*
G01*
X15006380Y-7493000D02*
G75*
G03*
X15006380Y-7493000I-28000J0D01*
G01*
X15006380Y-7620000D02*
G75*
G03*
X15006380Y-7620000I-28000J0D01*
G01*
X15006380Y-7747000D02*
G75*
G03*
X15006380Y-7747000I-28000J0D01*
G01*
X15006380Y-7874000D02*
G75*
G03*
X15006380Y-7874000I-28000J0D01*
G01*
X15006380Y-8001000D02*
G75*
G03*
X15006380Y-8001000I-28000J0D01*
G01*
X15006380Y-8128000D02*
G75*
G03*
X15006380Y-8128000I-28000J0D01*
G01*
X15006380Y-8255000D02*
G75*
G03*
X15006380Y-8255000I-28000J0D01*
G01*
X15006380Y-8382000D02*
G75*
G03*
X15006380Y-8382000I-28000J0D01*
G01*
X15006380Y-8509000D02*
G75*
G03*
X15006380Y-8509000I-28000J0D01*
G01*
X15006380Y-8636000D02*
G75*
G03*
X15006380Y-8636000I-28000J0D01*
G01*
X15006380Y-8763000D02*
G75*
G03*
X15006380Y-8763000I-28000J0D01*
G01*
X15006380Y-8890000D02*
G75*
G03*
X15006380Y-8890000I-28000J0D01*
G01*
X15006380Y-9017000D02*
G75*
G03*
X15006380Y-9017000I-28000J0D01*
G01*
X15006380Y-9144000D02*
G75*
G03*
X15006380Y-9144000I-28000J0D01*
G01*
X15006380Y-9271000D02*
G75*
G03*
X15006380Y-9271000I-28000J0D01*
G01*
X15260380Y-7366000D02*
G75*
G03*
X15260380Y-7366000I-28000J0D01*
G01*
X15260380Y-7493000D02*
G75*
G03*
X15260380Y-7493000I-28000J0D01*
G01*
X15260380Y-7620000D02*
G75*
G03*
X15260380Y-7620000I-28000J0D01*
G01*
X15260380Y-7747000D02*
G75*
G03*
X15260380Y-7747000I-28000J0D01*
G01*
X15260380Y-7874000D02*
G75*
G03*
X15260380Y-7874000I-28000J0D01*
G01*
X15260380Y-8001000D02*
G75*
G03*
X15260380Y-8001000I-28000J0D01*
G01*
X15260380Y-8128000D02*
G75*
G03*
X15260380Y-8128000I-28000J0D01*
G01*
X15260380Y-8255000D02*
G75*
G03*
X15260380Y-8255000I-28000J0D01*
G01*
X15260380Y-8382000D02*
G75*
G03*
X15260380Y-8382000I-28000J0D01*
G01*
X15260380Y-8509000D02*
G75*
G03*
X15260380Y-8509000I-28000J0D01*
G01*
X15260380Y-8636000D02*
G75*
G03*
X15260380Y-8636000I-28000J0D01*
G01*
X15260380Y-8763000D02*
G75*
G03*
X15260380Y-8763000I-28000J0D01*
G01*
X15260380Y-8890000D02*
G75*
G03*
X15260380Y-8890000I-28000J0D01*
G01*
X15260380Y-9017000D02*
G75*
G03*
X15260380Y-9017000I-28000J0D01*
G01*
X15260380Y-9144000D02*
G75*
G03*
X15260380Y-9144000I-28000J0D01*
G01*
X15260380Y-9271000D02*
G75*
G03*
X15260380Y-9271000I-28000J0D01*
G01*
X15261396Y-7239000D02*
G75*
G03*
X15261396Y-7239000I-28000J0D01*
G01*
D11*
X10415777Y-11746484D02*
X10415777Y-11546484D01*
X10415777Y-11546484D02*
X10463396Y-11546484D01*
X10463396Y-11546484D02*
X10491967Y-11556008D01*
X10491967Y-11556008D02*
X10511015Y-11575055D01*
X10511015Y-11575055D02*
X10520539Y-11594103D01*
X10520539Y-11594103D02*
X10530063Y-11632198D01*
X10530063Y-11632198D02*
X10530063Y-11660769D01*
X10530063Y-11660769D02*
X10520539Y-11698865D01*
X10520539Y-11698865D02*
X10511015Y-11717912D01*
X10511015Y-11717912D02*
X10491967Y-11736960D01*
X10491967Y-11736960D02*
X10463396Y-11746484D01*
X10463396Y-11746484D02*
X10415777Y-11746484D01*
X10615777Y-11746484D02*
X10615777Y-11613150D01*
X10615777Y-11651246D02*
X10625301Y-11632198D01*
X10625301Y-11632198D02*
X10634824Y-11622674D01*
X10634824Y-11622674D02*
X10653872Y-11613150D01*
X10653872Y-11613150D02*
X10672920Y-11613150D01*
X10739586Y-11746484D02*
X10739586Y-11613150D01*
X10739586Y-11546484D02*
X10730063Y-11556008D01*
X10730063Y-11556008D02*
X10739586Y-11565531D01*
X10739586Y-11565531D02*
X10749110Y-11556008D01*
X10749110Y-11556008D02*
X10739586Y-11546484D01*
X10739586Y-11546484D02*
X10739586Y-11565531D01*
X10863396Y-11746484D02*
X10844348Y-11736960D01*
X10844348Y-11736960D02*
X10834824Y-11717912D01*
X10834824Y-11717912D02*
X10834824Y-11546484D01*
X10968158Y-11746484D02*
X10949110Y-11736960D01*
X10949110Y-11736960D02*
X10939586Y-11717912D01*
X10939586Y-11717912D02*
X10939586Y-11546484D01*
X11196729Y-11746484D02*
X11196729Y-11546484D01*
X11196729Y-11546484D02*
X11263396Y-11689341D01*
X11263396Y-11689341D02*
X11330062Y-11546484D01*
X11330062Y-11546484D02*
X11330062Y-11746484D01*
X11511015Y-11746484D02*
X11511015Y-11641722D01*
X11511015Y-11641722D02*
X11501491Y-11622674D01*
X11501491Y-11622674D02*
X11482443Y-11613150D01*
X11482443Y-11613150D02*
X11444348Y-11613150D01*
X11444348Y-11613150D02*
X11425301Y-11622674D01*
X11511015Y-11736960D02*
X11491967Y-11746484D01*
X11491967Y-11746484D02*
X11444348Y-11746484D01*
X11444348Y-11746484D02*
X11425301Y-11736960D01*
X11425301Y-11736960D02*
X11415777Y-11717912D01*
X11415777Y-11717912D02*
X11415777Y-11698865D01*
X11415777Y-11698865D02*
X11425301Y-11679817D01*
X11425301Y-11679817D02*
X11444348Y-11670293D01*
X11444348Y-11670293D02*
X11491967Y-11670293D01*
X11491967Y-11670293D02*
X11511015Y-11660769D01*
X11606253Y-11613150D02*
X11606253Y-11813150D01*
X11606253Y-11622674D02*
X11625301Y-11613150D01*
X11625301Y-11613150D02*
X11663396Y-11613150D01*
X11663396Y-11613150D02*
X11682443Y-11622674D01*
X11682443Y-11622674D02*
X11691967Y-11632198D01*
X11691967Y-11632198D02*
X11701491Y-11651246D01*
X11701491Y-11651246D02*
X11701491Y-11708388D01*
X11701491Y-11708388D02*
X11691967Y-11727436D01*
X11691967Y-11727436D02*
X11682443Y-11736960D01*
X11682443Y-11736960D02*
X11663396Y-11746484D01*
X11663396Y-11746484D02*
X11625301Y-11746484D01*
X11625301Y-11746484D02*
X11606253Y-11736960D01*
X11787205Y-11727436D02*
X11796729Y-11736960D01*
X11796729Y-11736960D02*
X11787205Y-11746484D01*
X11787205Y-11746484D02*
X11777682Y-11736960D01*
X11777682Y-11736960D02*
X11787205Y-11727436D01*
X11787205Y-11727436D02*
X11787205Y-11746484D01*
X11787205Y-11622674D02*
X11796729Y-11632198D01*
X11796729Y-11632198D02*
X11787205Y-11641722D01*
X11787205Y-11641722D02*
X11777682Y-11632198D01*
X11777682Y-11632198D02*
X11787205Y-11622674D01*
X11787205Y-11622674D02*
X11787205Y-11641722D01*
D12*
X10115000Y-12055000D02*
X10155000Y-12095000D01*
X10155000Y-12055000D02*
X10115000Y-12095000D01*
D11*
X10453872Y-11966484D02*
X10472920Y-11966484D01*
X10472920Y-11966484D02*
X10491967Y-11976008D01*
X10491967Y-11976008D02*
X10501491Y-11985531D01*
X10501491Y-11985531D02*
X10511015Y-12004579D01*
X10511015Y-12004579D02*
X10520539Y-12042674D01*
X10520539Y-12042674D02*
X10520539Y-12090293D01*
X10520539Y-12090293D02*
X10511015Y-12128388D01*
X10511015Y-12128388D02*
X10501491Y-12147436D01*
X10501491Y-12147436D02*
X10491967Y-12156960D01*
X10491967Y-12156960D02*
X10472920Y-12166484D01*
X10472920Y-12166484D02*
X10453872Y-12166484D01*
X10453872Y-12166484D02*
X10434824Y-12156960D01*
X10434824Y-12156960D02*
X10425301Y-12147436D01*
X10425301Y-12147436D02*
X10415777Y-12128388D01*
X10415777Y-12128388D02*
X10406253Y-12090293D01*
X10406253Y-12090293D02*
X10406253Y-12042674D01*
X10406253Y-12042674D02*
X10415777Y-12004579D01*
X10415777Y-12004579D02*
X10425301Y-11985531D01*
X10425301Y-11985531D02*
X10434824Y-11976008D01*
X10434824Y-11976008D02*
X10453872Y-11966484D01*
X10606253Y-12147436D02*
X10615777Y-12156960D01*
X10615777Y-12156960D02*
X10606253Y-12166484D01*
X10606253Y-12166484D02*
X10596729Y-12156960D01*
X10596729Y-12156960D02*
X10606253Y-12147436D01*
X10606253Y-12147436D02*
X10606253Y-12166484D01*
X10787205Y-12033150D02*
X10787205Y-12166484D01*
X10739586Y-11956960D02*
X10691967Y-12099817D01*
X10691967Y-12099817D02*
X10815777Y-12099817D01*
X10930063Y-11966484D02*
X10949110Y-11966484D01*
X10949110Y-11966484D02*
X10968158Y-11976008D01*
X10968158Y-11976008D02*
X10977682Y-11985531D01*
X10977682Y-11985531D02*
X10987205Y-12004579D01*
X10987205Y-12004579D02*
X10996729Y-12042674D01*
X10996729Y-12042674D02*
X10996729Y-12090293D01*
X10996729Y-12090293D02*
X10987205Y-12128388D01*
X10987205Y-12128388D02*
X10977682Y-12147436D01*
X10977682Y-12147436D02*
X10968158Y-12156960D01*
X10968158Y-12156960D02*
X10949110Y-12166484D01*
X10949110Y-12166484D02*
X10930063Y-12166484D01*
X10930063Y-12166484D02*
X10911015Y-12156960D01*
X10911015Y-12156960D02*
X10901491Y-12147436D01*
X10901491Y-12147436D02*
X10891967Y-12128388D01*
X10891967Y-12128388D02*
X10882444Y-12090293D01*
X10882444Y-12090293D02*
X10882444Y-12042674D01*
X10882444Y-12042674D02*
X10891967Y-12004579D01*
X10891967Y-12004579D02*
X10901491Y-11985531D01*
X10901491Y-11985531D02*
X10911015Y-11976008D01*
X10911015Y-11976008D02*
X10930063Y-11966484D01*
X11120539Y-11966484D02*
X11139586Y-11966484D01*
X11139586Y-11966484D02*
X11158634Y-11976008D01*
X11158634Y-11976008D02*
X11168158Y-11985531D01*
X11168158Y-11985531D02*
X11177682Y-12004579D01*
X11177682Y-12004579D02*
X11187205Y-12042674D01*
X11187205Y-12042674D02*
X11187205Y-12090293D01*
X11187205Y-12090293D02*
X11177682Y-12128388D01*
X11177682Y-12128388D02*
X11168158Y-12147436D01*
X11168158Y-12147436D02*
X11158634Y-12156960D01*
X11158634Y-12156960D02*
X11139586Y-12166484D01*
X11139586Y-12166484D02*
X11120539Y-12166484D01*
X11120539Y-12166484D02*
X11101491Y-12156960D01*
X11101491Y-12156960D02*
X11091967Y-12147436D01*
X11091967Y-12147436D02*
X11082444Y-12128388D01*
X11082444Y-12128388D02*
X11072920Y-12090293D01*
X11072920Y-12090293D02*
X11072920Y-12042674D01*
X11072920Y-12042674D02*
X11082444Y-12004579D01*
X11082444Y-12004579D02*
X11091967Y-11985531D01*
X11091967Y-11985531D02*
X11101491Y-11976008D01*
X11101491Y-11976008D02*
X11120539Y-11966484D01*
X11272920Y-12166484D02*
X11272920Y-12033150D01*
X11272920Y-12052198D02*
X11282443Y-12042674D01*
X11282443Y-12042674D02*
X11301491Y-12033150D01*
X11301491Y-12033150D02*
X11330063Y-12033150D01*
X11330063Y-12033150D02*
X11349110Y-12042674D01*
X11349110Y-12042674D02*
X11358634Y-12061722D01*
X11358634Y-12061722D02*
X11358634Y-12166484D01*
X11358634Y-12061722D02*
X11368158Y-12042674D01*
X11368158Y-12042674D02*
X11387205Y-12033150D01*
X11387205Y-12033150D02*
X11415777Y-12033150D01*
X11415777Y-12033150D02*
X11434824Y-12042674D01*
X11434824Y-12042674D02*
X11444348Y-12061722D01*
X11444348Y-12061722D02*
X11444348Y-12166484D01*
X11539586Y-12166484D02*
X11539586Y-12033150D01*
X11539586Y-12052198D02*
X11549110Y-12042674D01*
X11549110Y-12042674D02*
X11568158Y-12033150D01*
X11568158Y-12033150D02*
X11596729Y-12033150D01*
X11596729Y-12033150D02*
X11615777Y-12042674D01*
X11615777Y-12042674D02*
X11625301Y-12061722D01*
X11625301Y-12061722D02*
X11625301Y-12166484D01*
X11625301Y-12061722D02*
X11634824Y-12042674D01*
X11634824Y-12042674D02*
X11653872Y-12033150D01*
X11653872Y-12033150D02*
X11682443Y-12033150D01*
X11682443Y-12033150D02*
X11701491Y-12042674D01*
X11701491Y-12042674D02*
X11711015Y-12061722D01*
X11711015Y-12061722D02*
X11711015Y-12166484D01*
X12101491Y-11956960D02*
X11930063Y-12214103D01*
X12358634Y-11966484D02*
X12377682Y-11966484D01*
X12377682Y-11966484D02*
X12396729Y-11976008D01*
X12396729Y-11976008D02*
X12406253Y-11985531D01*
X12406253Y-11985531D02*
X12415777Y-12004579D01*
X12415777Y-12004579D02*
X12425301Y-12042674D01*
X12425301Y-12042674D02*
X12425301Y-12090293D01*
X12425301Y-12090293D02*
X12415777Y-12128388D01*
X12415777Y-12128388D02*
X12406253Y-12147436D01*
X12406253Y-12147436D02*
X12396729Y-12156960D01*
X12396729Y-12156960D02*
X12377682Y-12166484D01*
X12377682Y-12166484D02*
X12358634Y-12166484D01*
X12358634Y-12166484D02*
X12339586Y-12156960D01*
X12339586Y-12156960D02*
X12330063Y-12147436D01*
X12330063Y-12147436D02*
X12320539Y-12128388D01*
X12320539Y-12128388D02*
X12311015Y-12090293D01*
X12311015Y-12090293D02*
X12311015Y-12042674D01*
X12311015Y-12042674D02*
X12320539Y-12004579D01*
X12320539Y-12004579D02*
X12330063Y-11985531D01*
X12330063Y-11985531D02*
X12339586Y-11976008D01*
X12339586Y-11976008D02*
X12358634Y-11966484D01*
X12511015Y-12147436D02*
X12520539Y-12156960D01*
X12520539Y-12156960D02*
X12511015Y-12166484D01*
X12511015Y-12166484D02*
X12501491Y-12156960D01*
X12501491Y-12156960D02*
X12511015Y-12147436D01*
X12511015Y-12147436D02*
X12511015Y-12166484D01*
X12644348Y-11966484D02*
X12663396Y-11966484D01*
X12663396Y-11966484D02*
X12682444Y-11976008D01*
X12682444Y-11976008D02*
X12691967Y-11985531D01*
X12691967Y-11985531D02*
X12701491Y-12004579D01*
X12701491Y-12004579D02*
X12711015Y-12042674D01*
X12711015Y-12042674D02*
X12711015Y-12090293D01*
X12711015Y-12090293D02*
X12701491Y-12128388D01*
X12701491Y-12128388D02*
X12691967Y-12147436D01*
X12691967Y-12147436D02*
X12682444Y-12156960D01*
X12682444Y-12156960D02*
X12663396Y-12166484D01*
X12663396Y-12166484D02*
X12644348Y-12166484D01*
X12644348Y-12166484D02*
X12625301Y-12156960D01*
X12625301Y-12156960D02*
X12615777Y-12147436D01*
X12615777Y-12147436D02*
X12606253Y-12128388D01*
X12606253Y-12128388D02*
X12596729Y-12090293D01*
X12596729Y-12090293D02*
X12596729Y-12042674D01*
X12596729Y-12042674D02*
X12606253Y-12004579D01*
X12606253Y-12004579D02*
X12615777Y-11985531D01*
X12615777Y-11985531D02*
X12625301Y-11976008D01*
X12625301Y-11976008D02*
X12644348Y-11966484D01*
X12901491Y-12166484D02*
X12787206Y-12166484D01*
X12844348Y-12166484D02*
X12844348Y-11966484D01*
X12844348Y-11966484D02*
X12825301Y-11995055D01*
X12825301Y-11995055D02*
X12806253Y-12014103D01*
X12806253Y-12014103D02*
X12787206Y-12023627D01*
X13082444Y-11966484D02*
X12987206Y-11966484D01*
X12987206Y-11966484D02*
X12977682Y-12061722D01*
X12977682Y-12061722D02*
X12987206Y-12052198D01*
X12987206Y-12052198D02*
X13006253Y-12042674D01*
X13006253Y-12042674D02*
X13053872Y-12042674D01*
X13053872Y-12042674D02*
X13072920Y-12052198D01*
X13072920Y-12052198D02*
X13082444Y-12061722D01*
X13082444Y-12061722D02*
X13091967Y-12080769D01*
X13091967Y-12080769D02*
X13091967Y-12128388D01*
X13091967Y-12128388D02*
X13082444Y-12147436D01*
X13082444Y-12147436D02*
X13072920Y-12156960D01*
X13072920Y-12156960D02*
X13053872Y-12166484D01*
X13053872Y-12166484D02*
X13006253Y-12166484D01*
X13006253Y-12166484D02*
X12987206Y-12156960D01*
X12987206Y-12156960D02*
X12977682Y-12147436D01*
X13158634Y-11966484D02*
X13291967Y-11966484D01*
X13291967Y-11966484D02*
X13206253Y-12166484D01*
X13358634Y-11966484D02*
X13358634Y-12004579D01*
X13434825Y-11966484D02*
X13434825Y-12004579D01*
X13730063Y-12242674D02*
X13720539Y-12233150D01*
X13720539Y-12233150D02*
X13701491Y-12204579D01*
X13701491Y-12204579D02*
X13691968Y-12185531D01*
X13691968Y-12185531D02*
X13682444Y-12156960D01*
X13682444Y-12156960D02*
X13672920Y-12109341D01*
X13672920Y-12109341D02*
X13672920Y-12071246D01*
X13672920Y-12071246D02*
X13682444Y-12023627D01*
X13682444Y-12023627D02*
X13691968Y-11995055D01*
X13691968Y-11995055D02*
X13701491Y-11976008D01*
X13701491Y-11976008D02*
X13720539Y-11947436D01*
X13720539Y-11947436D02*
X13730063Y-11937912D01*
X13911015Y-12166484D02*
X13796729Y-12166484D01*
X13853872Y-12166484D02*
X13853872Y-11966484D01*
X13853872Y-11966484D02*
X13834825Y-11995055D01*
X13834825Y-11995055D02*
X13815777Y-12014103D01*
X13815777Y-12014103D02*
X13796729Y-12023627D01*
X14082444Y-12033150D02*
X14082444Y-12166484D01*
X14034825Y-11956960D02*
X13987206Y-12099817D01*
X13987206Y-12099817D02*
X14111015Y-12099817D01*
X14339587Y-12166484D02*
X14339587Y-11966484D01*
X14425301Y-12166484D02*
X14425301Y-12061722D01*
X14425301Y-12061722D02*
X14415777Y-12042674D01*
X14415777Y-12042674D02*
X14396730Y-12033150D01*
X14396730Y-12033150D02*
X14368158Y-12033150D01*
X14368158Y-12033150D02*
X14349110Y-12042674D01*
X14349110Y-12042674D02*
X14339587Y-12052198D01*
X14549110Y-12166484D02*
X14530063Y-12156960D01*
X14530063Y-12156960D02*
X14520539Y-12147436D01*
X14520539Y-12147436D02*
X14511015Y-12128388D01*
X14511015Y-12128388D02*
X14511015Y-12071246D01*
X14511015Y-12071246D02*
X14520539Y-12052198D01*
X14520539Y-12052198D02*
X14530063Y-12042674D01*
X14530063Y-12042674D02*
X14549110Y-12033150D01*
X14549110Y-12033150D02*
X14577682Y-12033150D01*
X14577682Y-12033150D02*
X14596730Y-12042674D01*
X14596730Y-12042674D02*
X14606253Y-12052198D01*
X14606253Y-12052198D02*
X14615777Y-12071246D01*
X14615777Y-12071246D02*
X14615777Y-12128388D01*
X14615777Y-12128388D02*
X14606253Y-12147436D01*
X14606253Y-12147436D02*
X14596730Y-12156960D01*
X14596730Y-12156960D02*
X14577682Y-12166484D01*
X14577682Y-12166484D02*
X14549110Y-12166484D01*
X14730063Y-12166484D02*
X14711015Y-12156960D01*
X14711015Y-12156960D02*
X14701491Y-12137912D01*
X14701491Y-12137912D02*
X14701491Y-11966484D01*
X14882444Y-12156960D02*
X14863396Y-12166484D01*
X14863396Y-12166484D02*
X14825301Y-12166484D01*
X14825301Y-12166484D02*
X14806253Y-12156960D01*
X14806253Y-12156960D02*
X14796730Y-12137912D01*
X14796730Y-12137912D02*
X14796730Y-12061722D01*
X14796730Y-12061722D02*
X14806253Y-12042674D01*
X14806253Y-12042674D02*
X14825301Y-12033150D01*
X14825301Y-12033150D02*
X14863396Y-12033150D01*
X14863396Y-12033150D02*
X14882444Y-12042674D01*
X14882444Y-12042674D02*
X14891968Y-12061722D01*
X14891968Y-12061722D02*
X14891968Y-12080769D01*
X14891968Y-12080769D02*
X14796730Y-12099817D01*
X14968158Y-12156960D02*
X14987206Y-12166484D01*
X14987206Y-12166484D02*
X15025301Y-12166484D01*
X15025301Y-12166484D02*
X15044349Y-12156960D01*
X15044349Y-12156960D02*
X15053872Y-12137912D01*
X15053872Y-12137912D02*
X15053872Y-12128388D01*
X15053872Y-12128388D02*
X15044349Y-12109341D01*
X15044349Y-12109341D02*
X15025301Y-12099817D01*
X15025301Y-12099817D02*
X14996730Y-12099817D01*
X14996730Y-12099817D02*
X14977682Y-12090293D01*
X14977682Y-12090293D02*
X14968158Y-12071246D01*
X14968158Y-12071246D02*
X14968158Y-12061722D01*
X14968158Y-12061722D02*
X14977682Y-12042674D01*
X14977682Y-12042674D02*
X14996730Y-12033150D01*
X14996730Y-12033150D02*
X15025301Y-12033150D01*
X15025301Y-12033150D02*
X15044349Y-12042674D01*
X15120539Y-12242674D02*
X15130063Y-12233150D01*
X15130063Y-12233150D02*
X15149111Y-12204579D01*
X15149111Y-12204579D02*
X15158634Y-12185531D01*
X15158634Y-12185531D02*
X15168158Y-12156960D01*
X15168158Y-12156960D02*
X15177682Y-12109341D01*
X15177682Y-12109341D02*
X15177682Y-12071246D01*
X15177682Y-12071246D02*
X15168158Y-12023627D01*
X15168158Y-12023627D02*
X15158634Y-11995055D01*
X15158634Y-11995055D02*
X15149111Y-11976008D01*
X15149111Y-11976008D02*
X15130063Y-11947436D01*
X15130063Y-11947436D02*
X15120539Y-11937912D01*
D13*
X10155000Y-12339000D02*
G75*
G03*
X10155000Y-12339000I-28000J0D01*
G01*
D11*
X10453872Y-12230484D02*
X10472920Y-12230484D01*
X10472920Y-12230484D02*
X10491967Y-12240008D01*
X10491967Y-12240008D02*
X10501491Y-12249531D01*
X10501491Y-12249531D02*
X10511015Y-12268579D01*
X10511015Y-12268579D02*
X10520539Y-12306674D01*
X10520539Y-12306674D02*
X10520539Y-12354293D01*
X10520539Y-12354293D02*
X10511015Y-12392388D01*
X10511015Y-12392388D02*
X10501491Y-12411436D01*
X10501491Y-12411436D02*
X10491967Y-12420960D01*
X10491967Y-12420960D02*
X10472920Y-12430484D01*
X10472920Y-12430484D02*
X10453872Y-12430484D01*
X10453872Y-12430484D02*
X10434824Y-12420960D01*
X10434824Y-12420960D02*
X10425301Y-12411436D01*
X10425301Y-12411436D02*
X10415777Y-12392388D01*
X10415777Y-12392388D02*
X10406253Y-12354293D01*
X10406253Y-12354293D02*
X10406253Y-12306674D01*
X10406253Y-12306674D02*
X10415777Y-12268579D01*
X10415777Y-12268579D02*
X10425301Y-12249531D01*
X10425301Y-12249531D02*
X10434824Y-12240008D01*
X10434824Y-12240008D02*
X10453872Y-12230484D01*
X10606253Y-12411436D02*
X10615777Y-12420960D01*
X10615777Y-12420960D02*
X10606253Y-12430484D01*
X10606253Y-12430484D02*
X10596729Y-12420960D01*
X10596729Y-12420960D02*
X10606253Y-12411436D01*
X10606253Y-12411436D02*
X10606253Y-12430484D01*
X10796729Y-12230484D02*
X10701491Y-12230484D01*
X10701491Y-12230484D02*
X10691967Y-12325722D01*
X10691967Y-12325722D02*
X10701491Y-12316198D01*
X10701491Y-12316198D02*
X10720539Y-12306674D01*
X10720539Y-12306674D02*
X10768158Y-12306674D01*
X10768158Y-12306674D02*
X10787205Y-12316198D01*
X10787205Y-12316198D02*
X10796729Y-12325722D01*
X10796729Y-12325722D02*
X10806253Y-12344769D01*
X10806253Y-12344769D02*
X10806253Y-12392388D01*
X10806253Y-12392388D02*
X10796729Y-12411436D01*
X10796729Y-12411436D02*
X10787205Y-12420960D01*
X10787205Y-12420960D02*
X10768158Y-12430484D01*
X10768158Y-12430484D02*
X10720539Y-12430484D01*
X10720539Y-12430484D02*
X10701491Y-12420960D01*
X10701491Y-12420960D02*
X10691967Y-12411436D01*
X10977682Y-12230484D02*
X10939586Y-12230484D01*
X10939586Y-12230484D02*
X10920539Y-12240008D01*
X10920539Y-12240008D02*
X10911015Y-12249531D01*
X10911015Y-12249531D02*
X10891967Y-12278103D01*
X10891967Y-12278103D02*
X10882444Y-12316198D01*
X10882444Y-12316198D02*
X10882444Y-12392388D01*
X10882444Y-12392388D02*
X10891967Y-12411436D01*
X10891967Y-12411436D02*
X10901491Y-12420960D01*
X10901491Y-12420960D02*
X10920539Y-12430484D01*
X10920539Y-12430484D02*
X10958634Y-12430484D01*
X10958634Y-12430484D02*
X10977682Y-12420960D01*
X10977682Y-12420960D02*
X10987205Y-12411436D01*
X10987205Y-12411436D02*
X10996729Y-12392388D01*
X10996729Y-12392388D02*
X10996729Y-12344769D01*
X10996729Y-12344769D02*
X10987205Y-12325722D01*
X10987205Y-12325722D02*
X10977682Y-12316198D01*
X10977682Y-12316198D02*
X10958634Y-12306674D01*
X10958634Y-12306674D02*
X10920539Y-12306674D01*
X10920539Y-12306674D02*
X10901491Y-12316198D01*
X10901491Y-12316198D02*
X10891967Y-12325722D01*
X10891967Y-12325722D02*
X10882444Y-12344769D01*
X11120539Y-12230484D02*
X11139586Y-12230484D01*
X11139586Y-12230484D02*
X11158634Y-12240008D01*
X11158634Y-12240008D02*
X11168158Y-12249531D01*
X11168158Y-12249531D02*
X11177682Y-12268579D01*
X11177682Y-12268579D02*
X11187205Y-12306674D01*
X11187205Y-12306674D02*
X11187205Y-12354293D01*
X11187205Y-12354293D02*
X11177682Y-12392388D01*
X11177682Y-12392388D02*
X11168158Y-12411436D01*
X11168158Y-12411436D02*
X11158634Y-12420960D01*
X11158634Y-12420960D02*
X11139586Y-12430484D01*
X11139586Y-12430484D02*
X11120539Y-12430484D01*
X11120539Y-12430484D02*
X11101491Y-12420960D01*
X11101491Y-12420960D02*
X11091967Y-12411436D01*
X11091967Y-12411436D02*
X11082444Y-12392388D01*
X11082444Y-12392388D02*
X11072920Y-12354293D01*
X11072920Y-12354293D02*
X11072920Y-12306674D01*
X11072920Y-12306674D02*
X11082444Y-12268579D01*
X11082444Y-12268579D02*
X11091967Y-12249531D01*
X11091967Y-12249531D02*
X11101491Y-12240008D01*
X11101491Y-12240008D02*
X11120539Y-12230484D01*
X11272920Y-12430484D02*
X11272920Y-12297150D01*
X11272920Y-12316198D02*
X11282443Y-12306674D01*
X11282443Y-12306674D02*
X11301491Y-12297150D01*
X11301491Y-12297150D02*
X11330063Y-12297150D01*
X11330063Y-12297150D02*
X11349110Y-12306674D01*
X11349110Y-12306674D02*
X11358634Y-12325722D01*
X11358634Y-12325722D02*
X11358634Y-12430484D01*
X11358634Y-12325722D02*
X11368158Y-12306674D01*
X11368158Y-12306674D02*
X11387205Y-12297150D01*
X11387205Y-12297150D02*
X11415777Y-12297150D01*
X11415777Y-12297150D02*
X11434824Y-12306674D01*
X11434824Y-12306674D02*
X11444348Y-12325722D01*
X11444348Y-12325722D02*
X11444348Y-12430484D01*
X11539586Y-12430484D02*
X11539586Y-12297150D01*
X11539586Y-12316198D02*
X11549110Y-12306674D01*
X11549110Y-12306674D02*
X11568158Y-12297150D01*
X11568158Y-12297150D02*
X11596729Y-12297150D01*
X11596729Y-12297150D02*
X11615777Y-12306674D01*
X11615777Y-12306674D02*
X11625301Y-12325722D01*
X11625301Y-12325722D02*
X11625301Y-12430484D01*
X11625301Y-12325722D02*
X11634824Y-12306674D01*
X11634824Y-12306674D02*
X11653872Y-12297150D01*
X11653872Y-12297150D02*
X11682443Y-12297150D01*
X11682443Y-12297150D02*
X11701491Y-12306674D01*
X11701491Y-12306674D02*
X11711015Y-12325722D01*
X11711015Y-12325722D02*
X11711015Y-12430484D01*
X12101491Y-12220960D02*
X11930063Y-12478103D01*
X12358634Y-12230484D02*
X12377682Y-12230484D01*
X12377682Y-12230484D02*
X12396729Y-12240008D01*
X12396729Y-12240008D02*
X12406253Y-12249531D01*
X12406253Y-12249531D02*
X12415777Y-12268579D01*
X12415777Y-12268579D02*
X12425301Y-12306674D01*
X12425301Y-12306674D02*
X12425301Y-12354293D01*
X12425301Y-12354293D02*
X12415777Y-12392388D01*
X12415777Y-12392388D02*
X12406253Y-12411436D01*
X12406253Y-12411436D02*
X12396729Y-12420960D01*
X12396729Y-12420960D02*
X12377682Y-12430484D01*
X12377682Y-12430484D02*
X12358634Y-12430484D01*
X12358634Y-12430484D02*
X12339586Y-12420960D01*
X12339586Y-12420960D02*
X12330063Y-12411436D01*
X12330063Y-12411436D02*
X12320539Y-12392388D01*
X12320539Y-12392388D02*
X12311015Y-12354293D01*
X12311015Y-12354293D02*
X12311015Y-12306674D01*
X12311015Y-12306674D02*
X12320539Y-12268579D01*
X12320539Y-12268579D02*
X12330063Y-12249531D01*
X12330063Y-12249531D02*
X12339586Y-12240008D01*
X12339586Y-12240008D02*
X12358634Y-12230484D01*
X12511015Y-12411436D02*
X12520539Y-12420960D01*
X12520539Y-12420960D02*
X12511015Y-12430484D01*
X12511015Y-12430484D02*
X12501491Y-12420960D01*
X12501491Y-12420960D02*
X12511015Y-12411436D01*
X12511015Y-12411436D02*
X12511015Y-12430484D01*
X12644348Y-12230484D02*
X12663396Y-12230484D01*
X12663396Y-12230484D02*
X12682444Y-12240008D01*
X12682444Y-12240008D02*
X12691967Y-12249531D01*
X12691967Y-12249531D02*
X12701491Y-12268579D01*
X12701491Y-12268579D02*
X12711015Y-12306674D01*
X12711015Y-12306674D02*
X12711015Y-12354293D01*
X12711015Y-12354293D02*
X12701491Y-12392388D01*
X12701491Y-12392388D02*
X12691967Y-12411436D01*
X12691967Y-12411436D02*
X12682444Y-12420960D01*
X12682444Y-12420960D02*
X12663396Y-12430484D01*
X12663396Y-12430484D02*
X12644348Y-12430484D01*
X12644348Y-12430484D02*
X12625301Y-12420960D01*
X12625301Y-12420960D02*
X12615777Y-12411436D01*
X12615777Y-12411436D02*
X12606253Y-12392388D01*
X12606253Y-12392388D02*
X12596729Y-12354293D01*
X12596729Y-12354293D02*
X12596729Y-12306674D01*
X12596729Y-12306674D02*
X12606253Y-12268579D01*
X12606253Y-12268579D02*
X12615777Y-12249531D01*
X12615777Y-12249531D02*
X12625301Y-12240008D01*
X12625301Y-12240008D02*
X12644348Y-12230484D01*
X12787206Y-12249531D02*
X12796729Y-12240008D01*
X12796729Y-12240008D02*
X12815777Y-12230484D01*
X12815777Y-12230484D02*
X12863396Y-12230484D01*
X12863396Y-12230484D02*
X12882444Y-12240008D01*
X12882444Y-12240008D02*
X12891967Y-12249531D01*
X12891967Y-12249531D02*
X12901491Y-12268579D01*
X12901491Y-12268579D02*
X12901491Y-12287627D01*
X12901491Y-12287627D02*
X12891967Y-12316198D01*
X12891967Y-12316198D02*
X12777682Y-12430484D01*
X12777682Y-12430484D02*
X12901491Y-12430484D01*
X12977682Y-12249531D02*
X12987206Y-12240008D01*
X12987206Y-12240008D02*
X13006253Y-12230484D01*
X13006253Y-12230484D02*
X13053872Y-12230484D01*
X13053872Y-12230484D02*
X13072920Y-12240008D01*
X13072920Y-12240008D02*
X13082444Y-12249531D01*
X13082444Y-12249531D02*
X13091967Y-12268579D01*
X13091967Y-12268579D02*
X13091967Y-12287627D01*
X13091967Y-12287627D02*
X13082444Y-12316198D01*
X13082444Y-12316198D02*
X12968158Y-12430484D01*
X12968158Y-12430484D02*
X13091967Y-12430484D01*
X13215777Y-12230484D02*
X13234825Y-12230484D01*
X13234825Y-12230484D02*
X13253872Y-12240008D01*
X13253872Y-12240008D02*
X13263396Y-12249531D01*
X13263396Y-12249531D02*
X13272920Y-12268579D01*
X13272920Y-12268579D02*
X13282444Y-12306674D01*
X13282444Y-12306674D02*
X13282444Y-12354293D01*
X13282444Y-12354293D02*
X13272920Y-12392388D01*
X13272920Y-12392388D02*
X13263396Y-12411436D01*
X13263396Y-12411436D02*
X13253872Y-12420960D01*
X13253872Y-12420960D02*
X13234825Y-12430484D01*
X13234825Y-12430484D02*
X13215777Y-12430484D01*
X13215777Y-12430484D02*
X13196729Y-12420960D01*
X13196729Y-12420960D02*
X13187206Y-12411436D01*
X13187206Y-12411436D02*
X13177682Y-12392388D01*
X13177682Y-12392388D02*
X13168158Y-12354293D01*
X13168158Y-12354293D02*
X13168158Y-12306674D01*
X13168158Y-12306674D02*
X13177682Y-12268579D01*
X13177682Y-12268579D02*
X13187206Y-12249531D01*
X13187206Y-12249531D02*
X13196729Y-12240008D01*
X13196729Y-12240008D02*
X13215777Y-12230484D01*
X13358634Y-12230484D02*
X13358634Y-12268579D01*
X13434825Y-12230484D02*
X13434825Y-12268579D01*
X13730063Y-12506674D02*
X13720539Y-12497150D01*
X13720539Y-12497150D02*
X13701491Y-12468579D01*
X13701491Y-12468579D02*
X13691968Y-12449531D01*
X13691968Y-12449531D02*
X13682444Y-12420960D01*
X13682444Y-12420960D02*
X13672920Y-12373341D01*
X13672920Y-12373341D02*
X13672920Y-12335246D01*
X13672920Y-12335246D02*
X13682444Y-12287627D01*
X13682444Y-12287627D02*
X13691968Y-12259055D01*
X13691968Y-12259055D02*
X13701491Y-12240008D01*
X13701491Y-12240008D02*
X13720539Y-12211436D01*
X13720539Y-12211436D02*
X13730063Y-12201912D01*
X13911015Y-12430484D02*
X13796729Y-12430484D01*
X13853872Y-12430484D02*
X13853872Y-12230484D01*
X13853872Y-12230484D02*
X13834825Y-12259055D01*
X13834825Y-12259055D02*
X13815777Y-12278103D01*
X13815777Y-12278103D02*
X13796729Y-12287627D01*
X14034825Y-12230484D02*
X14053872Y-12230484D01*
X14053872Y-12230484D02*
X14072920Y-12240008D01*
X14072920Y-12240008D02*
X14082444Y-12249531D01*
X14082444Y-12249531D02*
X14091968Y-12268579D01*
X14091968Y-12268579D02*
X14101491Y-12306674D01*
X14101491Y-12306674D02*
X14101491Y-12354293D01*
X14101491Y-12354293D02*
X14091968Y-12392388D01*
X14091968Y-12392388D02*
X14082444Y-12411436D01*
X14082444Y-12411436D02*
X14072920Y-12420960D01*
X14072920Y-12420960D02*
X14053872Y-12430484D01*
X14053872Y-12430484D02*
X14034825Y-12430484D01*
X14034825Y-12430484D02*
X14015777Y-12420960D01*
X14015777Y-12420960D02*
X14006253Y-12411436D01*
X14006253Y-12411436D02*
X13996729Y-12392388D01*
X13996729Y-12392388D02*
X13987206Y-12354293D01*
X13987206Y-12354293D02*
X13987206Y-12306674D01*
X13987206Y-12306674D02*
X13996729Y-12268579D01*
X13996729Y-12268579D02*
X14006253Y-12249531D01*
X14006253Y-12249531D02*
X14015777Y-12240008D01*
X14015777Y-12240008D02*
X14034825Y-12230484D01*
X14177682Y-12249531D02*
X14187206Y-12240008D01*
X14187206Y-12240008D02*
X14206253Y-12230484D01*
X14206253Y-12230484D02*
X14253872Y-12230484D01*
X14253872Y-12230484D02*
X14272920Y-12240008D01*
X14272920Y-12240008D02*
X14282444Y-12249531D01*
X14282444Y-12249531D02*
X14291968Y-12268579D01*
X14291968Y-12268579D02*
X14291968Y-12287627D01*
X14291968Y-12287627D02*
X14282444Y-12316198D01*
X14282444Y-12316198D02*
X14168158Y-12430484D01*
X14168158Y-12430484D02*
X14291968Y-12430484D01*
X14530063Y-12430484D02*
X14530063Y-12230484D01*
X14615777Y-12430484D02*
X14615777Y-12325722D01*
X14615777Y-12325722D02*
X14606253Y-12306674D01*
X14606253Y-12306674D02*
X14587206Y-12297150D01*
X14587206Y-12297150D02*
X14558634Y-12297150D01*
X14558634Y-12297150D02*
X14539587Y-12306674D01*
X14539587Y-12306674D02*
X14530063Y-12316198D01*
X14739587Y-12430484D02*
X14720539Y-12420960D01*
X14720539Y-12420960D02*
X14711015Y-12411436D01*
X14711015Y-12411436D02*
X14701491Y-12392388D01*
X14701491Y-12392388D02*
X14701491Y-12335246D01*
X14701491Y-12335246D02*
X14711015Y-12316198D01*
X14711015Y-12316198D02*
X14720539Y-12306674D01*
X14720539Y-12306674D02*
X14739587Y-12297150D01*
X14739587Y-12297150D02*
X14768158Y-12297150D01*
X14768158Y-12297150D02*
X14787206Y-12306674D01*
X14787206Y-12306674D02*
X14796730Y-12316198D01*
X14796730Y-12316198D02*
X14806253Y-12335246D01*
X14806253Y-12335246D02*
X14806253Y-12392388D01*
X14806253Y-12392388D02*
X14796730Y-12411436D01*
X14796730Y-12411436D02*
X14787206Y-12420960D01*
X14787206Y-12420960D02*
X14768158Y-12430484D01*
X14768158Y-12430484D02*
X14739587Y-12430484D01*
X14920539Y-12430484D02*
X14901491Y-12420960D01*
X14901491Y-12420960D02*
X14891968Y-12401912D01*
X14891968Y-12401912D02*
X14891968Y-12230484D01*
X15072920Y-12420960D02*
X15053872Y-12430484D01*
X15053872Y-12430484D02*
X15015777Y-12430484D01*
X15015777Y-12430484D02*
X14996730Y-12420960D01*
X14996730Y-12420960D02*
X14987206Y-12401912D01*
X14987206Y-12401912D02*
X14987206Y-12325722D01*
X14987206Y-12325722D02*
X14996730Y-12306674D01*
X14996730Y-12306674D02*
X15015777Y-12297150D01*
X15015777Y-12297150D02*
X15053872Y-12297150D01*
X15053872Y-12297150D02*
X15072920Y-12306674D01*
X15072920Y-12306674D02*
X15082444Y-12325722D01*
X15082444Y-12325722D02*
X15082444Y-12344769D01*
X15082444Y-12344769D02*
X14987206Y-12363817D01*
X15158634Y-12420960D02*
X15177682Y-12430484D01*
X15177682Y-12430484D02*
X15215777Y-12430484D01*
X15215777Y-12430484D02*
X15234825Y-12420960D01*
X15234825Y-12420960D02*
X15244349Y-12401912D01*
X15244349Y-12401912D02*
X15244349Y-12392388D01*
X15244349Y-12392388D02*
X15234825Y-12373341D01*
X15234825Y-12373341D02*
X15215777Y-12363817D01*
X15215777Y-12363817D02*
X15187206Y-12363817D01*
X15187206Y-12363817D02*
X15168158Y-12354293D01*
X15168158Y-12354293D02*
X15158634Y-12335246D01*
X15158634Y-12335246D02*
X15158634Y-12325722D01*
X15158634Y-12325722D02*
X15168158Y-12306674D01*
X15168158Y-12306674D02*
X15187206Y-12297150D01*
X15187206Y-12297150D02*
X15215777Y-12297150D01*
X15215777Y-12297150D02*
X15234825Y-12306674D01*
X15311015Y-12506674D02*
X15320539Y-12497150D01*
X15320539Y-12497150D02*
X15339587Y-12468579D01*
X15339587Y-12468579D02*
X15349111Y-12449531D01*
X15349111Y-12449531D02*
X15358634Y-12420960D01*
X15358634Y-12420960D02*
X15368158Y-12373341D01*
X15368158Y-12373341D02*
X15368158Y-12335246D01*
X15368158Y-12335246D02*
X15358634Y-12287627D01*
X15358634Y-12287627D02*
X15349111Y-12259055D01*
X15349111Y-12259055D02*
X15339587Y-12240008D01*
X15339587Y-12240008D02*
X15320539Y-12211436D01*
X15320539Y-12211436D02*
X15311015Y-12201912D01*
M02*
