%TF.GenerationSoftware,KiCad,Pcbnew,7.0.7*%
%TF.CreationDate,2023-09-14T15:48:24-04:00*%
%TF.ProjectId,Heater_North_DCT_HSK,48656174-6572-45f4-9e6f-7274685f4443,rev?*%
%TF.SameCoordinates,Original*%
%TF.FileFunction,AssemblyDrawing,Top*%
%FSLAX46Y46*%
G04 Gerber Fmt 4.6, Leading zero omitted, Abs format (unit mm)*
G04 Created by KiCad (PCBNEW 7.0.7) date 2023-09-14 15:48:24*
%MOMM*%
%LPD*%
G01*
G04 APERTURE LIST*
%ADD10C,0.150000*%
%TA.AperFunction,Profile*%
%ADD11C,0.100000*%
%TD*%
G04 APERTURE END LIST*
D10*
X127508095Y-67754819D02*
X127508095Y-66754819D01*
X127508095Y-67231009D02*
X128079523Y-67231009D01*
X128079523Y-67754819D02*
X128079523Y-66754819D01*
X129079523Y-67754819D02*
X128508095Y-67754819D01*
X128793809Y-67754819D02*
X128793809Y-66754819D01*
X128793809Y-66754819D02*
X128698571Y-66897676D01*
X128698571Y-66897676D02*
X128603333Y-66992914D01*
X128603333Y-66992914D02*
X128508095Y-67040533D01*
X126936666Y-63954819D02*
X126603333Y-63478628D01*
X126365238Y-63954819D02*
X126365238Y-62954819D01*
X126365238Y-62954819D02*
X126746190Y-62954819D01*
X126746190Y-62954819D02*
X126841428Y-63002438D01*
X126841428Y-63002438D02*
X126889047Y-63050057D01*
X126889047Y-63050057D02*
X126936666Y-63145295D01*
X126936666Y-63145295D02*
X126936666Y-63288152D01*
X126936666Y-63288152D02*
X126889047Y-63383390D01*
X126889047Y-63383390D02*
X126841428Y-63431009D01*
X126841428Y-63431009D02*
X126746190Y-63478628D01*
X126746190Y-63478628D02*
X126365238Y-63478628D01*
X127365238Y-63431009D02*
X127698571Y-63431009D01*
X127841428Y-63954819D02*
X127365238Y-63954819D01*
X127365238Y-63954819D02*
X127365238Y-62954819D01*
X127365238Y-62954819D02*
X127841428Y-62954819D01*
X128603333Y-63431009D02*
X128270000Y-63431009D01*
X128270000Y-63954819D02*
X128270000Y-62954819D01*
X128270000Y-62954819D02*
X128746190Y-62954819D01*
X129270000Y-62954819D02*
X129270000Y-63192914D01*
X129031905Y-63097676D02*
X129270000Y-63192914D01*
X129270000Y-63192914D02*
X129508095Y-63097676D01*
X129127143Y-63383390D02*
X129270000Y-63192914D01*
X129270000Y-63192914D02*
X129412857Y-63383390D01*
X130031905Y-62954819D02*
X130031905Y-63192914D01*
X129793810Y-63097676D02*
X130031905Y-63192914D01*
X130031905Y-63192914D02*
X130270000Y-63097676D01*
X129889048Y-63383390D02*
X130031905Y-63192914D01*
X130031905Y-63192914D02*
X130174762Y-63383390D01*
X127508095Y-105854819D02*
X127508095Y-104854819D01*
X127508095Y-105331009D02*
X128079523Y-105331009D01*
X128079523Y-105854819D02*
X128079523Y-104854819D01*
X128508095Y-104950057D02*
X128555714Y-104902438D01*
X128555714Y-104902438D02*
X128650952Y-104854819D01*
X128650952Y-104854819D02*
X128889047Y-104854819D01*
X128889047Y-104854819D02*
X128984285Y-104902438D01*
X128984285Y-104902438D02*
X129031904Y-104950057D01*
X129031904Y-104950057D02*
X129079523Y-105045295D01*
X129079523Y-105045295D02*
X129079523Y-105140533D01*
X129079523Y-105140533D02*
X129031904Y-105283390D01*
X129031904Y-105283390D02*
X128460476Y-105854819D01*
X128460476Y-105854819D02*
X129079523Y-105854819D01*
X126936666Y-102054819D02*
X126603333Y-101578628D01*
X126365238Y-102054819D02*
X126365238Y-101054819D01*
X126365238Y-101054819D02*
X126746190Y-101054819D01*
X126746190Y-101054819D02*
X126841428Y-101102438D01*
X126841428Y-101102438D02*
X126889047Y-101150057D01*
X126889047Y-101150057D02*
X126936666Y-101245295D01*
X126936666Y-101245295D02*
X126936666Y-101388152D01*
X126936666Y-101388152D02*
X126889047Y-101483390D01*
X126889047Y-101483390D02*
X126841428Y-101531009D01*
X126841428Y-101531009D02*
X126746190Y-101578628D01*
X126746190Y-101578628D02*
X126365238Y-101578628D01*
X127365238Y-101531009D02*
X127698571Y-101531009D01*
X127841428Y-102054819D02*
X127365238Y-102054819D01*
X127365238Y-102054819D02*
X127365238Y-101054819D01*
X127365238Y-101054819D02*
X127841428Y-101054819D01*
X128603333Y-101531009D02*
X128270000Y-101531009D01*
X128270000Y-102054819D02*
X128270000Y-101054819D01*
X128270000Y-101054819D02*
X128746190Y-101054819D01*
X129270000Y-101054819D02*
X129270000Y-101292914D01*
X129031905Y-101197676D02*
X129270000Y-101292914D01*
X129270000Y-101292914D02*
X129508095Y-101197676D01*
X129127143Y-101483390D02*
X129270000Y-101292914D01*
X129270000Y-101292914D02*
X129412857Y-101483390D01*
X130031905Y-101054819D02*
X130031905Y-101292914D01*
X129793810Y-101197676D02*
X130031905Y-101292914D01*
X130031905Y-101292914D02*
X130270000Y-101197676D01*
X129889048Y-101483390D02*
X130031905Y-101292914D01*
X130031905Y-101292914D02*
X130174762Y-101483390D01*
D11*
X101600000Y-50800000D02*
X154940000Y-50800000D01*
X154940000Y-114300000D01*
X101600000Y-114300000D01*
X101600000Y-50800000D01*
M02*
