M48
; DRILL file {KiCad 7.0.7} date Tue 12 Sep 2023 10:02:19 AM EDT
; FORMAT={-:-/ absolute / inch / decimal}
; #@! TF.CreationDate,2023-09-12T10:02:19-04:00
; #@! TF.GenerationSoftware,Kicad,Pcbnew,7.0.7
; #@! TF.FileFunction,Plated,1,2,PTH
FMAT,2
INCH
; #@! TA.AperFunction,Plated,PTH,ViaDrill
T1C0.0157
; #@! TA.AperFunction,Plated,PTH,ComponentDrill
T2C0.0220
%
G90
G05
T1
X4.0354Y-3.0
X4.5Y-3.6
X4.5591Y-2.8071
X4.6299Y-2.748
X4.6969Y-2.7087
X4.7323Y-2.9921
X4.8071Y-2.9331
X4.878Y-2.8604
X4.9291Y-2.689
X5.0748Y-2.6969
X5.33Y-2.3164
X5.4173Y-3.5551
X5.45Y-2.35
X5.4594Y-2.3895
X5.4892Y-2.4213
X5.5827Y-2.4213
X5.5924Y-2.3895
T2
X3.6996Y-2.0
X3.6996Y-3.15
X3.7Y-2.05
X3.7Y-2.1
X3.7Y-2.15
X3.7Y-2.2
X3.7Y-2.25
X3.7Y-2.3
X3.7Y-2.35
X3.7Y-2.4
X3.7Y-2.45
X3.7Y-2.5
X3.7Y-2.55
X3.7Y-2.6
X3.7Y-2.65
X3.7Y-2.7
X3.7Y-2.75
X3.7Y-2.8
X3.7Y-3.2
X3.7Y-3.25
X3.7Y-3.3
X3.7Y-3.35
X3.7Y-3.4
X3.7Y-3.45
X3.7Y-3.5
X3.7Y-3.55
X3.7Y-3.6
X3.7Y-3.65
X3.7Y-3.7
X3.7Y-3.75
X3.7Y-3.8
X3.7Y-3.85
X3.7Y-3.9
X3.7Y-3.95
X3.8Y-2.05
X3.8Y-2.1
X3.8Y-2.15
X3.8Y-2.2
X3.8Y-2.25
X3.8Y-2.3
X3.8Y-2.35
X3.8Y-2.4
X3.8Y-2.45
X3.8Y-2.5
X3.8Y-2.55
X3.8Y-2.6
X3.8Y-2.65
X3.8Y-2.7
X3.8Y-2.75
X3.8Y-2.8
X3.8Y-3.2
X3.8Y-3.25
X3.8Y-3.3
X3.8Y-3.35
X3.8Y-3.4
X3.8Y-3.45
X3.8Y-3.5
X3.8Y-3.55
X3.8Y-3.6
X3.8Y-3.65
X3.8Y-3.7
X3.8Y-3.75
X3.8Y-3.8
X3.8Y-3.85
X3.8Y-3.9
X3.8Y-3.95
X3.8004Y-2.0
X3.8004Y-3.15
X5.422Y-2.5724
X5.4224Y-2.6224
X5.4224Y-2.6724
X5.4224Y-2.7224
X5.4224Y-2.7724
X5.4224Y-2.8224
X5.4224Y-2.8724
X5.4224Y-2.9224
X5.4224Y-2.9724
X5.4224Y-3.0224
X5.4224Y-3.0724
X5.4224Y-3.1224
X5.4224Y-3.1724
X5.4224Y-3.2224
X5.4224Y-3.2724
X5.4224Y-3.3224
X5.4224Y-3.3724
X5.5224Y-2.6224
X5.5224Y-2.6724
X5.5224Y-2.7224
X5.5224Y-2.7724
X5.5224Y-2.8224
X5.5224Y-2.8724
X5.5224Y-2.9224
X5.5224Y-2.9724
X5.5224Y-3.0224
X5.5224Y-3.0724
X5.5224Y-3.1224
X5.5224Y-3.1724
X5.5224Y-3.2224
X5.5224Y-3.2724
X5.5224Y-3.3224
X5.5224Y-3.3724
X5.5228Y-2.5724
T0
M30
