%TF.GenerationSoftware,KiCad,Pcbnew,7.0.7*%
%TF.CreationDate,2023-09-12T23:11:04-05:00*%
%TF.ProjectId,Heater_South,48656174-6572-45f5-936f-7574682e6b69,rev?*%
%TF.SameCoordinates,Original*%
%TF.FileFunction,AssemblyDrawing,Top*%
%FSLAX46Y46*%
G04 Gerber Fmt 4.6, Leading zero omitted, Abs format (unit mm)*
G04 Created by KiCad (PCBNEW 7.0.7) date 2023-09-12 23:11:04*
%MOMM*%
%LPD*%
G01*
G04 APERTURE LIST*
%ADD10C,0.150000*%
G04 APERTURE END LIST*
D10*
X105919524Y-57594819D02*
X105919524Y-56594819D01*
X105919524Y-56594819D02*
X106252857Y-57309104D01*
X106252857Y-57309104D02*
X106586190Y-56594819D01*
X106586190Y-56594819D02*
X106586190Y-57594819D01*
X107205238Y-57594819D02*
X107110000Y-57547200D01*
X107110000Y-57547200D02*
X107062381Y-57499580D01*
X107062381Y-57499580D02*
X107014762Y-57404342D01*
X107014762Y-57404342D02*
X107014762Y-57118628D01*
X107014762Y-57118628D02*
X107062381Y-57023390D01*
X107062381Y-57023390D02*
X107110000Y-56975771D01*
X107110000Y-56975771D02*
X107205238Y-56928152D01*
X107205238Y-56928152D02*
X107348095Y-56928152D01*
X107348095Y-56928152D02*
X107443333Y-56975771D01*
X107443333Y-56975771D02*
X107490952Y-57023390D01*
X107490952Y-57023390D02*
X107538571Y-57118628D01*
X107538571Y-57118628D02*
X107538571Y-57404342D01*
X107538571Y-57404342D02*
X107490952Y-57499580D01*
X107490952Y-57499580D02*
X107443333Y-57547200D01*
X107443333Y-57547200D02*
X107348095Y-57594819D01*
X107348095Y-57594819D02*
X107205238Y-57594819D01*
X108395714Y-56928152D02*
X108395714Y-57594819D01*
X107967143Y-56928152D02*
X107967143Y-57451961D01*
X107967143Y-57451961D02*
X108014762Y-57547200D01*
X108014762Y-57547200D02*
X108110000Y-57594819D01*
X108110000Y-57594819D02*
X108252857Y-57594819D01*
X108252857Y-57594819D02*
X108348095Y-57547200D01*
X108348095Y-57547200D02*
X108395714Y-57499580D01*
X108871905Y-56928152D02*
X108871905Y-57594819D01*
X108871905Y-57023390D02*
X108919524Y-56975771D01*
X108919524Y-56975771D02*
X109014762Y-56928152D01*
X109014762Y-56928152D02*
X109157619Y-56928152D01*
X109157619Y-56928152D02*
X109252857Y-56975771D01*
X109252857Y-56975771D02*
X109300476Y-57071009D01*
X109300476Y-57071009D02*
X109300476Y-57594819D01*
X109633810Y-56928152D02*
X110014762Y-56928152D01*
X109776667Y-56594819D02*
X109776667Y-57451961D01*
X109776667Y-57451961D02*
X109824286Y-57547200D01*
X109824286Y-57547200D02*
X109919524Y-57594819D01*
X109919524Y-57594819D02*
X110014762Y-57594819D01*
X110348096Y-57594819D02*
X110348096Y-56928152D01*
X110348096Y-56594819D02*
X110300477Y-56642438D01*
X110300477Y-56642438D02*
X110348096Y-56690057D01*
X110348096Y-56690057D02*
X110395715Y-56642438D01*
X110395715Y-56642438D02*
X110348096Y-56594819D01*
X110348096Y-56594819D02*
X110348096Y-56690057D01*
X110824286Y-56928152D02*
X110824286Y-57594819D01*
X110824286Y-57023390D02*
X110871905Y-56975771D01*
X110871905Y-56975771D02*
X110967143Y-56928152D01*
X110967143Y-56928152D02*
X111110000Y-56928152D01*
X111110000Y-56928152D02*
X111205238Y-56975771D01*
X111205238Y-56975771D02*
X111252857Y-57071009D01*
X111252857Y-57071009D02*
X111252857Y-57594819D01*
X112157619Y-56928152D02*
X112157619Y-57737676D01*
X112157619Y-57737676D02*
X112110000Y-57832914D01*
X112110000Y-57832914D02*
X112062381Y-57880533D01*
X112062381Y-57880533D02*
X111967143Y-57928152D01*
X111967143Y-57928152D02*
X111824286Y-57928152D01*
X111824286Y-57928152D02*
X111729048Y-57880533D01*
X112157619Y-57547200D02*
X112062381Y-57594819D01*
X112062381Y-57594819D02*
X111871905Y-57594819D01*
X111871905Y-57594819D02*
X111776667Y-57547200D01*
X111776667Y-57547200D02*
X111729048Y-57499580D01*
X111729048Y-57499580D02*
X111681429Y-57404342D01*
X111681429Y-57404342D02*
X111681429Y-57118628D01*
X111681429Y-57118628D02*
X111729048Y-57023390D01*
X111729048Y-57023390D02*
X111776667Y-56975771D01*
X111776667Y-56975771D02*
X111871905Y-56928152D01*
X111871905Y-56928152D02*
X112062381Y-56928152D01*
X112062381Y-56928152D02*
X112157619Y-56975771D01*
X112633810Y-57594819D02*
X112633810Y-56594819D01*
X112633810Y-57071009D02*
X113205238Y-57071009D01*
X113205238Y-57594819D02*
X113205238Y-56594819D01*
X113824286Y-57594819D02*
X113729048Y-57547200D01*
X113729048Y-57547200D02*
X113681429Y-57499580D01*
X113681429Y-57499580D02*
X113633810Y-57404342D01*
X113633810Y-57404342D02*
X113633810Y-57118628D01*
X113633810Y-57118628D02*
X113681429Y-57023390D01*
X113681429Y-57023390D02*
X113729048Y-56975771D01*
X113729048Y-56975771D02*
X113824286Y-56928152D01*
X113824286Y-56928152D02*
X113967143Y-56928152D01*
X113967143Y-56928152D02*
X114062381Y-56975771D01*
X114062381Y-56975771D02*
X114110000Y-57023390D01*
X114110000Y-57023390D02*
X114157619Y-57118628D01*
X114157619Y-57118628D02*
X114157619Y-57404342D01*
X114157619Y-57404342D02*
X114110000Y-57499580D01*
X114110000Y-57499580D02*
X114062381Y-57547200D01*
X114062381Y-57547200D02*
X113967143Y-57594819D01*
X113967143Y-57594819D02*
X113824286Y-57594819D01*
X114729048Y-57594819D02*
X114633810Y-57547200D01*
X114633810Y-57547200D02*
X114586191Y-57451961D01*
X114586191Y-57451961D02*
X114586191Y-56594819D01*
X115490953Y-57547200D02*
X115395715Y-57594819D01*
X115395715Y-57594819D02*
X115205239Y-57594819D01*
X115205239Y-57594819D02*
X115110001Y-57547200D01*
X115110001Y-57547200D02*
X115062382Y-57451961D01*
X115062382Y-57451961D02*
X115062382Y-57071009D01*
X115062382Y-57071009D02*
X115110001Y-56975771D01*
X115110001Y-56975771D02*
X115205239Y-56928152D01*
X115205239Y-56928152D02*
X115395715Y-56928152D01*
X115395715Y-56928152D02*
X115490953Y-56975771D01*
X115490953Y-56975771D02*
X115538572Y-57071009D01*
X115538572Y-57071009D02*
X115538572Y-57166247D01*
X115538572Y-57166247D02*
X115062382Y-57261485D01*
X115729049Y-57690057D02*
X116490953Y-57690057D01*
X116633811Y-56594819D02*
X117252858Y-56594819D01*
X117252858Y-56594819D02*
X116919525Y-56975771D01*
X116919525Y-56975771D02*
X117062382Y-56975771D01*
X117062382Y-56975771D02*
X117157620Y-57023390D01*
X117157620Y-57023390D02*
X117205239Y-57071009D01*
X117205239Y-57071009D02*
X117252858Y-57166247D01*
X117252858Y-57166247D02*
X117252858Y-57404342D01*
X117252858Y-57404342D02*
X117205239Y-57499580D01*
X117205239Y-57499580D02*
X117157620Y-57547200D01*
X117157620Y-57547200D02*
X117062382Y-57594819D01*
X117062382Y-57594819D02*
X116776668Y-57594819D01*
X116776668Y-57594819D02*
X116681430Y-57547200D01*
X116681430Y-57547200D02*
X116633811Y-57499580D01*
X117681430Y-57499580D02*
X117729049Y-57547200D01*
X117729049Y-57547200D02*
X117681430Y-57594819D01*
X117681430Y-57594819D02*
X117633811Y-57547200D01*
X117633811Y-57547200D02*
X117681430Y-57499580D01*
X117681430Y-57499580D02*
X117681430Y-57594819D01*
X118110001Y-56690057D02*
X118157620Y-56642438D01*
X118157620Y-56642438D02*
X118252858Y-56594819D01*
X118252858Y-56594819D02*
X118490953Y-56594819D01*
X118490953Y-56594819D02*
X118586191Y-56642438D01*
X118586191Y-56642438D02*
X118633810Y-56690057D01*
X118633810Y-56690057D02*
X118681429Y-56785295D01*
X118681429Y-56785295D02*
X118681429Y-56880533D01*
X118681429Y-56880533D02*
X118633810Y-57023390D01*
X118633810Y-57023390D02*
X118062382Y-57594819D01*
X118062382Y-57594819D02*
X118681429Y-57594819D01*
X119110001Y-57594819D02*
X119110001Y-56928152D01*
X119110001Y-57023390D02*
X119157620Y-56975771D01*
X119157620Y-56975771D02*
X119252858Y-56928152D01*
X119252858Y-56928152D02*
X119395715Y-56928152D01*
X119395715Y-56928152D02*
X119490953Y-56975771D01*
X119490953Y-56975771D02*
X119538572Y-57071009D01*
X119538572Y-57071009D02*
X119538572Y-57594819D01*
X119538572Y-57071009D02*
X119586191Y-56975771D01*
X119586191Y-56975771D02*
X119681429Y-56928152D01*
X119681429Y-56928152D02*
X119824286Y-56928152D01*
X119824286Y-56928152D02*
X119919525Y-56975771D01*
X119919525Y-56975771D02*
X119967144Y-57071009D01*
X119967144Y-57071009D02*
X119967144Y-57594819D01*
X120443334Y-57594819D02*
X120443334Y-56928152D01*
X120443334Y-57023390D02*
X120490953Y-56975771D01*
X120490953Y-56975771D02*
X120586191Y-56928152D01*
X120586191Y-56928152D02*
X120729048Y-56928152D01*
X120729048Y-56928152D02*
X120824286Y-56975771D01*
X120824286Y-56975771D02*
X120871905Y-57071009D01*
X120871905Y-57071009D02*
X120871905Y-57594819D01*
X120871905Y-57071009D02*
X120919524Y-56975771D01*
X120919524Y-56975771D02*
X121014762Y-56928152D01*
X121014762Y-56928152D02*
X121157619Y-56928152D01*
X121157619Y-56928152D02*
X121252858Y-56975771D01*
X121252858Y-56975771D02*
X121300477Y-57071009D01*
X121300477Y-57071009D02*
X121300477Y-57594819D01*
X121538572Y-57690057D02*
X122300476Y-57690057D01*
X122538572Y-57594819D02*
X122538572Y-56594819D01*
X122538572Y-56594819D02*
X122871905Y-57309104D01*
X122871905Y-57309104D02*
X123205238Y-56594819D01*
X123205238Y-56594819D02*
X123205238Y-57594819D01*
X123586191Y-56594819D02*
X124205238Y-56594819D01*
X124205238Y-56594819D02*
X123871905Y-56975771D01*
X123871905Y-56975771D02*
X124014762Y-56975771D01*
X124014762Y-56975771D02*
X124110000Y-57023390D01*
X124110000Y-57023390D02*
X124157619Y-57071009D01*
X124157619Y-57071009D02*
X124205238Y-57166247D01*
X124205238Y-57166247D02*
X124205238Y-57404342D01*
X124205238Y-57404342D02*
X124157619Y-57499580D01*
X124157619Y-57499580D02*
X124110000Y-57547200D01*
X124110000Y-57547200D02*
X124014762Y-57594819D01*
X124014762Y-57594819D02*
X123729048Y-57594819D01*
X123729048Y-57594819D02*
X123633810Y-57547200D01*
X123633810Y-57547200D02*
X123586191Y-57499580D01*
X124395715Y-57690057D02*
X125157619Y-57690057D01*
X125395715Y-57594819D02*
X125395715Y-56594819D01*
X125395715Y-56594819D02*
X125633810Y-56594819D01*
X125633810Y-56594819D02*
X125776667Y-56642438D01*
X125776667Y-56642438D02*
X125871905Y-56737676D01*
X125871905Y-56737676D02*
X125919524Y-56832914D01*
X125919524Y-56832914D02*
X125967143Y-57023390D01*
X125967143Y-57023390D02*
X125967143Y-57166247D01*
X125967143Y-57166247D02*
X125919524Y-57356723D01*
X125919524Y-57356723D02*
X125871905Y-57451961D01*
X125871905Y-57451961D02*
X125776667Y-57547200D01*
X125776667Y-57547200D02*
X125633810Y-57594819D01*
X125633810Y-57594819D02*
X125395715Y-57594819D01*
X126395715Y-57594819D02*
X126395715Y-56594819D01*
X126871905Y-57594819D02*
X126871905Y-56594819D01*
X126871905Y-56594819D02*
X127443333Y-57594819D01*
X127443333Y-57594819D02*
X127443333Y-56594819D01*
X127967143Y-57594819D02*
X128157619Y-57594819D01*
X128157619Y-57594819D02*
X128252857Y-57547200D01*
X128252857Y-57547200D02*
X128300476Y-57499580D01*
X128300476Y-57499580D02*
X128395714Y-57356723D01*
X128395714Y-57356723D02*
X128443333Y-57166247D01*
X128443333Y-57166247D02*
X128443333Y-56785295D01*
X128443333Y-56785295D02*
X128395714Y-56690057D01*
X128395714Y-56690057D02*
X128348095Y-56642438D01*
X128348095Y-56642438D02*
X128252857Y-56594819D01*
X128252857Y-56594819D02*
X128062381Y-56594819D01*
X128062381Y-56594819D02*
X127967143Y-56642438D01*
X127967143Y-56642438D02*
X127919524Y-56690057D01*
X127919524Y-56690057D02*
X127871905Y-56785295D01*
X127871905Y-56785295D02*
X127871905Y-57023390D01*
X127871905Y-57023390D02*
X127919524Y-57118628D01*
X127919524Y-57118628D02*
X127967143Y-57166247D01*
X127967143Y-57166247D02*
X128062381Y-57213866D01*
X128062381Y-57213866D02*
X128252857Y-57213866D01*
X128252857Y-57213866D02*
X128348095Y-57166247D01*
X128348095Y-57166247D02*
X128395714Y-57118628D01*
X128395714Y-57118628D02*
X128443333Y-57023390D01*
X129300476Y-56594819D02*
X129110000Y-56594819D01*
X129110000Y-56594819D02*
X129014762Y-56642438D01*
X129014762Y-56642438D02*
X128967143Y-56690057D01*
X128967143Y-56690057D02*
X128871905Y-56832914D01*
X128871905Y-56832914D02*
X128824286Y-57023390D01*
X128824286Y-57023390D02*
X128824286Y-57404342D01*
X128824286Y-57404342D02*
X128871905Y-57499580D01*
X128871905Y-57499580D02*
X128919524Y-57547200D01*
X128919524Y-57547200D02*
X129014762Y-57594819D01*
X129014762Y-57594819D02*
X129205238Y-57594819D01*
X129205238Y-57594819D02*
X129300476Y-57547200D01*
X129300476Y-57547200D02*
X129348095Y-57499580D01*
X129348095Y-57499580D02*
X129395714Y-57404342D01*
X129395714Y-57404342D02*
X129395714Y-57166247D01*
X129395714Y-57166247D02*
X129348095Y-57071009D01*
X129348095Y-57071009D02*
X129300476Y-57023390D01*
X129300476Y-57023390D02*
X129205238Y-56975771D01*
X129205238Y-56975771D02*
X129014762Y-56975771D01*
X129014762Y-56975771D02*
X128919524Y-57023390D01*
X128919524Y-57023390D02*
X128871905Y-57071009D01*
X128871905Y-57071009D02*
X128824286Y-57166247D01*
X130300476Y-56594819D02*
X129824286Y-56594819D01*
X129824286Y-56594819D02*
X129776667Y-57071009D01*
X129776667Y-57071009D02*
X129824286Y-57023390D01*
X129824286Y-57023390D02*
X129919524Y-56975771D01*
X129919524Y-56975771D02*
X130157619Y-56975771D01*
X130157619Y-56975771D02*
X130252857Y-57023390D01*
X130252857Y-57023390D02*
X130300476Y-57071009D01*
X130300476Y-57071009D02*
X130348095Y-57166247D01*
X130348095Y-57166247D02*
X130348095Y-57404342D01*
X130348095Y-57404342D02*
X130300476Y-57499580D01*
X130300476Y-57499580D02*
X130252857Y-57547200D01*
X130252857Y-57547200D02*
X130157619Y-57594819D01*
X130157619Y-57594819D02*
X129919524Y-57594819D01*
X129919524Y-57594819D02*
X129824286Y-57547200D01*
X129824286Y-57547200D02*
X129776667Y-57499580D01*
X116776666Y-53794819D02*
X116443333Y-53318628D01*
X116205238Y-53794819D02*
X116205238Y-52794819D01*
X116205238Y-52794819D02*
X116586190Y-52794819D01*
X116586190Y-52794819D02*
X116681428Y-52842438D01*
X116681428Y-52842438D02*
X116729047Y-52890057D01*
X116729047Y-52890057D02*
X116776666Y-52985295D01*
X116776666Y-52985295D02*
X116776666Y-53128152D01*
X116776666Y-53128152D02*
X116729047Y-53223390D01*
X116729047Y-53223390D02*
X116681428Y-53271009D01*
X116681428Y-53271009D02*
X116586190Y-53318628D01*
X116586190Y-53318628D02*
X116205238Y-53318628D01*
X117205238Y-53271009D02*
X117538571Y-53271009D01*
X117681428Y-53794819D02*
X117205238Y-53794819D01*
X117205238Y-53794819D02*
X117205238Y-52794819D01*
X117205238Y-52794819D02*
X117681428Y-52794819D01*
X118443333Y-53271009D02*
X118110000Y-53271009D01*
X118110000Y-53794819D02*
X118110000Y-52794819D01*
X118110000Y-52794819D02*
X118586190Y-52794819D01*
X119110000Y-52794819D02*
X119110000Y-53032914D01*
X118871905Y-52937676D02*
X119110000Y-53032914D01*
X119110000Y-53032914D02*
X119348095Y-52937676D01*
X118967143Y-53223390D02*
X119110000Y-53032914D01*
X119110000Y-53032914D02*
X119252857Y-53223390D01*
X119871905Y-52794819D02*
X119871905Y-53032914D01*
X119633810Y-52937676D02*
X119871905Y-53032914D01*
X119871905Y-53032914D02*
X120110000Y-52937676D01*
X119729048Y-53223390D02*
X119871905Y-53032914D01*
X119871905Y-53032914D02*
X120014762Y-53223390D01*
X105919524Y-102044819D02*
X105919524Y-101044819D01*
X105919524Y-101044819D02*
X106252857Y-101759104D01*
X106252857Y-101759104D02*
X106586190Y-101044819D01*
X106586190Y-101044819D02*
X106586190Y-102044819D01*
X107205238Y-102044819D02*
X107110000Y-101997200D01*
X107110000Y-101997200D02*
X107062381Y-101949580D01*
X107062381Y-101949580D02*
X107014762Y-101854342D01*
X107014762Y-101854342D02*
X107014762Y-101568628D01*
X107014762Y-101568628D02*
X107062381Y-101473390D01*
X107062381Y-101473390D02*
X107110000Y-101425771D01*
X107110000Y-101425771D02*
X107205238Y-101378152D01*
X107205238Y-101378152D02*
X107348095Y-101378152D01*
X107348095Y-101378152D02*
X107443333Y-101425771D01*
X107443333Y-101425771D02*
X107490952Y-101473390D01*
X107490952Y-101473390D02*
X107538571Y-101568628D01*
X107538571Y-101568628D02*
X107538571Y-101854342D01*
X107538571Y-101854342D02*
X107490952Y-101949580D01*
X107490952Y-101949580D02*
X107443333Y-101997200D01*
X107443333Y-101997200D02*
X107348095Y-102044819D01*
X107348095Y-102044819D02*
X107205238Y-102044819D01*
X108395714Y-101378152D02*
X108395714Y-102044819D01*
X107967143Y-101378152D02*
X107967143Y-101901961D01*
X107967143Y-101901961D02*
X108014762Y-101997200D01*
X108014762Y-101997200D02*
X108110000Y-102044819D01*
X108110000Y-102044819D02*
X108252857Y-102044819D01*
X108252857Y-102044819D02*
X108348095Y-101997200D01*
X108348095Y-101997200D02*
X108395714Y-101949580D01*
X108871905Y-101378152D02*
X108871905Y-102044819D01*
X108871905Y-101473390D02*
X108919524Y-101425771D01*
X108919524Y-101425771D02*
X109014762Y-101378152D01*
X109014762Y-101378152D02*
X109157619Y-101378152D01*
X109157619Y-101378152D02*
X109252857Y-101425771D01*
X109252857Y-101425771D02*
X109300476Y-101521009D01*
X109300476Y-101521009D02*
X109300476Y-102044819D01*
X109633810Y-101378152D02*
X110014762Y-101378152D01*
X109776667Y-101044819D02*
X109776667Y-101901961D01*
X109776667Y-101901961D02*
X109824286Y-101997200D01*
X109824286Y-101997200D02*
X109919524Y-102044819D01*
X109919524Y-102044819D02*
X110014762Y-102044819D01*
X110348096Y-102044819D02*
X110348096Y-101378152D01*
X110348096Y-101044819D02*
X110300477Y-101092438D01*
X110300477Y-101092438D02*
X110348096Y-101140057D01*
X110348096Y-101140057D02*
X110395715Y-101092438D01*
X110395715Y-101092438D02*
X110348096Y-101044819D01*
X110348096Y-101044819D02*
X110348096Y-101140057D01*
X110824286Y-101378152D02*
X110824286Y-102044819D01*
X110824286Y-101473390D02*
X110871905Y-101425771D01*
X110871905Y-101425771D02*
X110967143Y-101378152D01*
X110967143Y-101378152D02*
X111110000Y-101378152D01*
X111110000Y-101378152D02*
X111205238Y-101425771D01*
X111205238Y-101425771D02*
X111252857Y-101521009D01*
X111252857Y-101521009D02*
X111252857Y-102044819D01*
X112157619Y-101378152D02*
X112157619Y-102187676D01*
X112157619Y-102187676D02*
X112110000Y-102282914D01*
X112110000Y-102282914D02*
X112062381Y-102330533D01*
X112062381Y-102330533D02*
X111967143Y-102378152D01*
X111967143Y-102378152D02*
X111824286Y-102378152D01*
X111824286Y-102378152D02*
X111729048Y-102330533D01*
X112157619Y-101997200D02*
X112062381Y-102044819D01*
X112062381Y-102044819D02*
X111871905Y-102044819D01*
X111871905Y-102044819D02*
X111776667Y-101997200D01*
X111776667Y-101997200D02*
X111729048Y-101949580D01*
X111729048Y-101949580D02*
X111681429Y-101854342D01*
X111681429Y-101854342D02*
X111681429Y-101568628D01*
X111681429Y-101568628D02*
X111729048Y-101473390D01*
X111729048Y-101473390D02*
X111776667Y-101425771D01*
X111776667Y-101425771D02*
X111871905Y-101378152D01*
X111871905Y-101378152D02*
X112062381Y-101378152D01*
X112062381Y-101378152D02*
X112157619Y-101425771D01*
X112633810Y-102044819D02*
X112633810Y-101044819D01*
X112633810Y-101521009D02*
X113205238Y-101521009D01*
X113205238Y-102044819D02*
X113205238Y-101044819D01*
X113824286Y-102044819D02*
X113729048Y-101997200D01*
X113729048Y-101997200D02*
X113681429Y-101949580D01*
X113681429Y-101949580D02*
X113633810Y-101854342D01*
X113633810Y-101854342D02*
X113633810Y-101568628D01*
X113633810Y-101568628D02*
X113681429Y-101473390D01*
X113681429Y-101473390D02*
X113729048Y-101425771D01*
X113729048Y-101425771D02*
X113824286Y-101378152D01*
X113824286Y-101378152D02*
X113967143Y-101378152D01*
X113967143Y-101378152D02*
X114062381Y-101425771D01*
X114062381Y-101425771D02*
X114110000Y-101473390D01*
X114110000Y-101473390D02*
X114157619Y-101568628D01*
X114157619Y-101568628D02*
X114157619Y-101854342D01*
X114157619Y-101854342D02*
X114110000Y-101949580D01*
X114110000Y-101949580D02*
X114062381Y-101997200D01*
X114062381Y-101997200D02*
X113967143Y-102044819D01*
X113967143Y-102044819D02*
X113824286Y-102044819D01*
X114729048Y-102044819D02*
X114633810Y-101997200D01*
X114633810Y-101997200D02*
X114586191Y-101901961D01*
X114586191Y-101901961D02*
X114586191Y-101044819D01*
X115490953Y-101997200D02*
X115395715Y-102044819D01*
X115395715Y-102044819D02*
X115205239Y-102044819D01*
X115205239Y-102044819D02*
X115110001Y-101997200D01*
X115110001Y-101997200D02*
X115062382Y-101901961D01*
X115062382Y-101901961D02*
X115062382Y-101521009D01*
X115062382Y-101521009D02*
X115110001Y-101425771D01*
X115110001Y-101425771D02*
X115205239Y-101378152D01*
X115205239Y-101378152D02*
X115395715Y-101378152D01*
X115395715Y-101378152D02*
X115490953Y-101425771D01*
X115490953Y-101425771D02*
X115538572Y-101521009D01*
X115538572Y-101521009D02*
X115538572Y-101616247D01*
X115538572Y-101616247D02*
X115062382Y-101711485D01*
X115729049Y-102140057D02*
X116490953Y-102140057D01*
X116633811Y-101044819D02*
X117252858Y-101044819D01*
X117252858Y-101044819D02*
X116919525Y-101425771D01*
X116919525Y-101425771D02*
X117062382Y-101425771D01*
X117062382Y-101425771D02*
X117157620Y-101473390D01*
X117157620Y-101473390D02*
X117205239Y-101521009D01*
X117205239Y-101521009D02*
X117252858Y-101616247D01*
X117252858Y-101616247D02*
X117252858Y-101854342D01*
X117252858Y-101854342D02*
X117205239Y-101949580D01*
X117205239Y-101949580D02*
X117157620Y-101997200D01*
X117157620Y-101997200D02*
X117062382Y-102044819D01*
X117062382Y-102044819D02*
X116776668Y-102044819D01*
X116776668Y-102044819D02*
X116681430Y-101997200D01*
X116681430Y-101997200D02*
X116633811Y-101949580D01*
X117681430Y-101949580D02*
X117729049Y-101997200D01*
X117729049Y-101997200D02*
X117681430Y-102044819D01*
X117681430Y-102044819D02*
X117633811Y-101997200D01*
X117633811Y-101997200D02*
X117681430Y-101949580D01*
X117681430Y-101949580D02*
X117681430Y-102044819D01*
X118110001Y-101140057D02*
X118157620Y-101092438D01*
X118157620Y-101092438D02*
X118252858Y-101044819D01*
X118252858Y-101044819D02*
X118490953Y-101044819D01*
X118490953Y-101044819D02*
X118586191Y-101092438D01*
X118586191Y-101092438D02*
X118633810Y-101140057D01*
X118633810Y-101140057D02*
X118681429Y-101235295D01*
X118681429Y-101235295D02*
X118681429Y-101330533D01*
X118681429Y-101330533D02*
X118633810Y-101473390D01*
X118633810Y-101473390D02*
X118062382Y-102044819D01*
X118062382Y-102044819D02*
X118681429Y-102044819D01*
X119110001Y-102044819D02*
X119110001Y-101378152D01*
X119110001Y-101473390D02*
X119157620Y-101425771D01*
X119157620Y-101425771D02*
X119252858Y-101378152D01*
X119252858Y-101378152D02*
X119395715Y-101378152D01*
X119395715Y-101378152D02*
X119490953Y-101425771D01*
X119490953Y-101425771D02*
X119538572Y-101521009D01*
X119538572Y-101521009D02*
X119538572Y-102044819D01*
X119538572Y-101521009D02*
X119586191Y-101425771D01*
X119586191Y-101425771D02*
X119681429Y-101378152D01*
X119681429Y-101378152D02*
X119824286Y-101378152D01*
X119824286Y-101378152D02*
X119919525Y-101425771D01*
X119919525Y-101425771D02*
X119967144Y-101521009D01*
X119967144Y-101521009D02*
X119967144Y-102044819D01*
X120443334Y-102044819D02*
X120443334Y-101378152D01*
X120443334Y-101473390D02*
X120490953Y-101425771D01*
X120490953Y-101425771D02*
X120586191Y-101378152D01*
X120586191Y-101378152D02*
X120729048Y-101378152D01*
X120729048Y-101378152D02*
X120824286Y-101425771D01*
X120824286Y-101425771D02*
X120871905Y-101521009D01*
X120871905Y-101521009D02*
X120871905Y-102044819D01*
X120871905Y-101521009D02*
X120919524Y-101425771D01*
X120919524Y-101425771D02*
X121014762Y-101378152D01*
X121014762Y-101378152D02*
X121157619Y-101378152D01*
X121157619Y-101378152D02*
X121252858Y-101425771D01*
X121252858Y-101425771D02*
X121300477Y-101521009D01*
X121300477Y-101521009D02*
X121300477Y-102044819D01*
X121538572Y-102140057D02*
X122300476Y-102140057D01*
X122538572Y-102044819D02*
X122538572Y-101044819D01*
X122538572Y-101044819D02*
X122871905Y-101759104D01*
X122871905Y-101759104D02*
X123205238Y-101044819D01*
X123205238Y-101044819D02*
X123205238Y-102044819D01*
X123586191Y-101044819D02*
X124205238Y-101044819D01*
X124205238Y-101044819D02*
X123871905Y-101425771D01*
X123871905Y-101425771D02*
X124014762Y-101425771D01*
X124014762Y-101425771D02*
X124110000Y-101473390D01*
X124110000Y-101473390D02*
X124157619Y-101521009D01*
X124157619Y-101521009D02*
X124205238Y-101616247D01*
X124205238Y-101616247D02*
X124205238Y-101854342D01*
X124205238Y-101854342D02*
X124157619Y-101949580D01*
X124157619Y-101949580D02*
X124110000Y-101997200D01*
X124110000Y-101997200D02*
X124014762Y-102044819D01*
X124014762Y-102044819D02*
X123729048Y-102044819D01*
X123729048Y-102044819D02*
X123633810Y-101997200D01*
X123633810Y-101997200D02*
X123586191Y-101949580D01*
X124395715Y-102140057D02*
X125157619Y-102140057D01*
X125395715Y-102044819D02*
X125395715Y-101044819D01*
X125395715Y-101044819D02*
X125633810Y-101044819D01*
X125633810Y-101044819D02*
X125776667Y-101092438D01*
X125776667Y-101092438D02*
X125871905Y-101187676D01*
X125871905Y-101187676D02*
X125919524Y-101282914D01*
X125919524Y-101282914D02*
X125967143Y-101473390D01*
X125967143Y-101473390D02*
X125967143Y-101616247D01*
X125967143Y-101616247D02*
X125919524Y-101806723D01*
X125919524Y-101806723D02*
X125871905Y-101901961D01*
X125871905Y-101901961D02*
X125776667Y-101997200D01*
X125776667Y-101997200D02*
X125633810Y-102044819D01*
X125633810Y-102044819D02*
X125395715Y-102044819D01*
X126395715Y-102044819D02*
X126395715Y-101044819D01*
X126871905Y-102044819D02*
X126871905Y-101044819D01*
X126871905Y-101044819D02*
X127443333Y-102044819D01*
X127443333Y-102044819D02*
X127443333Y-101044819D01*
X127967143Y-102044819D02*
X128157619Y-102044819D01*
X128157619Y-102044819D02*
X128252857Y-101997200D01*
X128252857Y-101997200D02*
X128300476Y-101949580D01*
X128300476Y-101949580D02*
X128395714Y-101806723D01*
X128395714Y-101806723D02*
X128443333Y-101616247D01*
X128443333Y-101616247D02*
X128443333Y-101235295D01*
X128443333Y-101235295D02*
X128395714Y-101140057D01*
X128395714Y-101140057D02*
X128348095Y-101092438D01*
X128348095Y-101092438D02*
X128252857Y-101044819D01*
X128252857Y-101044819D02*
X128062381Y-101044819D01*
X128062381Y-101044819D02*
X127967143Y-101092438D01*
X127967143Y-101092438D02*
X127919524Y-101140057D01*
X127919524Y-101140057D02*
X127871905Y-101235295D01*
X127871905Y-101235295D02*
X127871905Y-101473390D01*
X127871905Y-101473390D02*
X127919524Y-101568628D01*
X127919524Y-101568628D02*
X127967143Y-101616247D01*
X127967143Y-101616247D02*
X128062381Y-101663866D01*
X128062381Y-101663866D02*
X128252857Y-101663866D01*
X128252857Y-101663866D02*
X128348095Y-101616247D01*
X128348095Y-101616247D02*
X128395714Y-101568628D01*
X128395714Y-101568628D02*
X128443333Y-101473390D01*
X129300476Y-101044819D02*
X129110000Y-101044819D01*
X129110000Y-101044819D02*
X129014762Y-101092438D01*
X129014762Y-101092438D02*
X128967143Y-101140057D01*
X128967143Y-101140057D02*
X128871905Y-101282914D01*
X128871905Y-101282914D02*
X128824286Y-101473390D01*
X128824286Y-101473390D02*
X128824286Y-101854342D01*
X128824286Y-101854342D02*
X128871905Y-101949580D01*
X128871905Y-101949580D02*
X128919524Y-101997200D01*
X128919524Y-101997200D02*
X129014762Y-102044819D01*
X129014762Y-102044819D02*
X129205238Y-102044819D01*
X129205238Y-102044819D02*
X129300476Y-101997200D01*
X129300476Y-101997200D02*
X129348095Y-101949580D01*
X129348095Y-101949580D02*
X129395714Y-101854342D01*
X129395714Y-101854342D02*
X129395714Y-101616247D01*
X129395714Y-101616247D02*
X129348095Y-101521009D01*
X129348095Y-101521009D02*
X129300476Y-101473390D01*
X129300476Y-101473390D02*
X129205238Y-101425771D01*
X129205238Y-101425771D02*
X129014762Y-101425771D01*
X129014762Y-101425771D02*
X128919524Y-101473390D01*
X128919524Y-101473390D02*
X128871905Y-101521009D01*
X128871905Y-101521009D02*
X128824286Y-101616247D01*
X130300476Y-101044819D02*
X129824286Y-101044819D01*
X129824286Y-101044819D02*
X129776667Y-101521009D01*
X129776667Y-101521009D02*
X129824286Y-101473390D01*
X129824286Y-101473390D02*
X129919524Y-101425771D01*
X129919524Y-101425771D02*
X130157619Y-101425771D01*
X130157619Y-101425771D02*
X130252857Y-101473390D01*
X130252857Y-101473390D02*
X130300476Y-101521009D01*
X130300476Y-101521009D02*
X130348095Y-101616247D01*
X130348095Y-101616247D02*
X130348095Y-101854342D01*
X130348095Y-101854342D02*
X130300476Y-101949580D01*
X130300476Y-101949580D02*
X130252857Y-101997200D01*
X130252857Y-101997200D02*
X130157619Y-102044819D01*
X130157619Y-102044819D02*
X129919524Y-102044819D01*
X129919524Y-102044819D02*
X129824286Y-101997200D01*
X129824286Y-101997200D02*
X129776667Y-101949580D01*
X116776666Y-98244819D02*
X116443333Y-97768628D01*
X116205238Y-98244819D02*
X116205238Y-97244819D01*
X116205238Y-97244819D02*
X116586190Y-97244819D01*
X116586190Y-97244819D02*
X116681428Y-97292438D01*
X116681428Y-97292438D02*
X116729047Y-97340057D01*
X116729047Y-97340057D02*
X116776666Y-97435295D01*
X116776666Y-97435295D02*
X116776666Y-97578152D01*
X116776666Y-97578152D02*
X116729047Y-97673390D01*
X116729047Y-97673390D02*
X116681428Y-97721009D01*
X116681428Y-97721009D02*
X116586190Y-97768628D01*
X116586190Y-97768628D02*
X116205238Y-97768628D01*
X117205238Y-97721009D02*
X117538571Y-97721009D01*
X117681428Y-98244819D02*
X117205238Y-98244819D01*
X117205238Y-98244819D02*
X117205238Y-97244819D01*
X117205238Y-97244819D02*
X117681428Y-97244819D01*
X118443333Y-97721009D02*
X118110000Y-97721009D01*
X118110000Y-98244819D02*
X118110000Y-97244819D01*
X118110000Y-97244819D02*
X118586190Y-97244819D01*
X119110000Y-97244819D02*
X119110000Y-97482914D01*
X118871905Y-97387676D02*
X119110000Y-97482914D01*
X119110000Y-97482914D02*
X119348095Y-97387676D01*
X118967143Y-97673390D02*
X119110000Y-97482914D01*
X119110000Y-97482914D02*
X119252857Y-97673390D01*
X119871905Y-97244819D02*
X119871905Y-97482914D01*
X119633810Y-97387676D02*
X119871905Y-97482914D01*
X119871905Y-97482914D02*
X120110000Y-97387676D01*
X119729048Y-97673390D02*
X119871905Y-97482914D01*
X119871905Y-97482914D02*
X120014762Y-97673390D01*
M02*
