%TF.GenerationSoftware,KiCad,Pcbnew,7.0.7*%
%TF.CreationDate,2023-09-12T23:11:04-05:00*%
%TF.ProjectId,Heater_South,48656174-6572-45f5-936f-7574682e6b69,rev?*%
%TF.SameCoordinates,Original*%
%TF.FileFunction,Legend,Top*%
%TF.FilePolarity,Positive*%
%FSLAX46Y46*%
G04 Gerber Fmt 4.6, Leading zero omitted, Abs format (unit mm)*
G04 Created by KiCad (PCBNEW 7.0.7) date 2023-09-12 23:11:04*
%MOMM*%
%LPD*%
G01*
G04 APERTURE LIST*
%ADD10C,0.254000*%
%ADD11C,0.400000*%
%ADD12C,0.150000*%
%ADD13C,0.300000*%
%ADD14C,0.127000*%
%ADD15C,0.200000*%
G04 APERTURE END LIST*
D10*
X92590001Y-80030000D02*
G75*
G03*
X92590001Y-80030000I-1J0D01*
G01*
X92500001Y-50700000D02*
G75*
G03*
X92500001Y-50700000I-1J0D01*
G01*
X136652001Y-65278000D02*
G75*
G03*
X136652001Y-65278000I-1J0D01*
G01*
D11*
X129173247Y-84396366D02*
X129173247Y-82967795D01*
X131673247Y-83682081D02*
X129173247Y-83682081D01*
X131673247Y-81777319D02*
X131554200Y-82015414D01*
X131554200Y-82015414D02*
X131435152Y-82134461D01*
X131435152Y-82134461D02*
X131197057Y-82253509D01*
X131197057Y-82253509D02*
X130482771Y-82253509D01*
X130482771Y-82253509D02*
X130244676Y-82134461D01*
X130244676Y-82134461D02*
X130125628Y-82015414D01*
X130125628Y-82015414D02*
X130006580Y-81777319D01*
X130006580Y-81777319D02*
X130006580Y-81420176D01*
X130006580Y-81420176D02*
X130125628Y-81182080D01*
X130125628Y-81182080D02*
X130244676Y-81063033D01*
X130244676Y-81063033D02*
X130482771Y-80943985D01*
X130482771Y-80943985D02*
X131197057Y-80943985D01*
X131197057Y-80943985D02*
X131435152Y-81063033D01*
X131435152Y-81063033D02*
X131554200Y-81182080D01*
X131554200Y-81182080D02*
X131673247Y-81420176D01*
X131673247Y-81420176D02*
X131673247Y-81777319D01*
X131673247Y-77967794D02*
X129173247Y-77967794D01*
X129173247Y-77967794D02*
X129173247Y-77372556D01*
X129173247Y-77372556D02*
X129292295Y-77015413D01*
X129292295Y-77015413D02*
X129530390Y-76777318D01*
X129530390Y-76777318D02*
X129768485Y-76658271D01*
X129768485Y-76658271D02*
X130244676Y-76539223D01*
X130244676Y-76539223D02*
X130601819Y-76539223D01*
X130601819Y-76539223D02*
X131078009Y-76658271D01*
X131078009Y-76658271D02*
X131316104Y-76777318D01*
X131316104Y-76777318D02*
X131554200Y-77015413D01*
X131554200Y-77015413D02*
X131673247Y-77372556D01*
X131673247Y-77372556D02*
X131673247Y-77967794D01*
X131435152Y-74039223D02*
X131554200Y-74158271D01*
X131554200Y-74158271D02*
X131673247Y-74515413D01*
X131673247Y-74515413D02*
X131673247Y-74753509D01*
X131673247Y-74753509D02*
X131554200Y-75110652D01*
X131554200Y-75110652D02*
X131316104Y-75348747D01*
X131316104Y-75348747D02*
X131078009Y-75467794D01*
X131078009Y-75467794D02*
X130601819Y-75586842D01*
X130601819Y-75586842D02*
X130244676Y-75586842D01*
X130244676Y-75586842D02*
X129768485Y-75467794D01*
X129768485Y-75467794D02*
X129530390Y-75348747D01*
X129530390Y-75348747D02*
X129292295Y-75110652D01*
X129292295Y-75110652D02*
X129173247Y-74753509D01*
X129173247Y-74753509D02*
X129173247Y-74515413D01*
X129173247Y-74515413D02*
X129292295Y-74158271D01*
X129292295Y-74158271D02*
X129411342Y-74039223D01*
X129173247Y-73324937D02*
X129173247Y-71896366D01*
X131673247Y-72610652D02*
X129173247Y-72610652D01*
X131673247Y-69158270D02*
X129173247Y-69158270D01*
X130363723Y-69158270D02*
X130363723Y-67729699D01*
X131673247Y-67729699D02*
X129173247Y-67729699D01*
X131554200Y-66658270D02*
X131673247Y-66301127D01*
X131673247Y-66301127D02*
X131673247Y-65705889D01*
X131673247Y-65705889D02*
X131554200Y-65467794D01*
X131554200Y-65467794D02*
X131435152Y-65348746D01*
X131435152Y-65348746D02*
X131197057Y-65229699D01*
X131197057Y-65229699D02*
X130958961Y-65229699D01*
X130958961Y-65229699D02*
X130720866Y-65348746D01*
X130720866Y-65348746D02*
X130601819Y-65467794D01*
X130601819Y-65467794D02*
X130482771Y-65705889D01*
X130482771Y-65705889D02*
X130363723Y-66182080D01*
X130363723Y-66182080D02*
X130244676Y-66420175D01*
X130244676Y-66420175D02*
X130125628Y-66539222D01*
X130125628Y-66539222D02*
X129887533Y-66658270D01*
X129887533Y-66658270D02*
X129649438Y-66658270D01*
X129649438Y-66658270D02*
X129411342Y-66539222D01*
X129411342Y-66539222D02*
X129292295Y-66420175D01*
X129292295Y-66420175D02*
X129173247Y-66182080D01*
X129173247Y-66182080D02*
X129173247Y-65586841D01*
X129173247Y-65586841D02*
X129292295Y-65229699D01*
X131673247Y-64158270D02*
X129173247Y-64158270D01*
X131673247Y-62729699D02*
X130244676Y-63801128D01*
X129173247Y-62729699D02*
X130601819Y-64158270D01*
X101411523Y-83270890D02*
X101411523Y-84104223D01*
X102721047Y-84104223D02*
X100221047Y-84104223D01*
X100221047Y-84104223D02*
X100221047Y-82913747D01*
X102721047Y-81961366D02*
X101054380Y-81961366D01*
X101530571Y-81961366D02*
X101292476Y-81842319D01*
X101292476Y-81842319D02*
X101173428Y-81723271D01*
X101173428Y-81723271D02*
X101054380Y-81485176D01*
X101054380Y-81485176D02*
X101054380Y-81247081D01*
X102721047Y-80056605D02*
X102602000Y-80294700D01*
X102602000Y-80294700D02*
X102482952Y-80413747D01*
X102482952Y-80413747D02*
X102244857Y-80532795D01*
X102244857Y-80532795D02*
X101530571Y-80532795D01*
X101530571Y-80532795D02*
X101292476Y-80413747D01*
X101292476Y-80413747D02*
X101173428Y-80294700D01*
X101173428Y-80294700D02*
X101054380Y-80056605D01*
X101054380Y-80056605D02*
X101054380Y-79699462D01*
X101054380Y-79699462D02*
X101173428Y-79461366D01*
X101173428Y-79461366D02*
X101292476Y-79342319D01*
X101292476Y-79342319D02*
X101530571Y-79223271D01*
X101530571Y-79223271D02*
X102244857Y-79223271D01*
X102244857Y-79223271D02*
X102482952Y-79342319D01*
X102482952Y-79342319D02*
X102602000Y-79461366D01*
X102602000Y-79461366D02*
X102721047Y-79699462D01*
X102721047Y-79699462D02*
X102721047Y-80056605D01*
X102721047Y-78151842D02*
X101054380Y-78151842D01*
X101292476Y-78151842D02*
X101173428Y-78032795D01*
X101173428Y-78032795D02*
X101054380Y-77794700D01*
X101054380Y-77794700D02*
X101054380Y-77437557D01*
X101054380Y-77437557D02*
X101173428Y-77199461D01*
X101173428Y-77199461D02*
X101411523Y-77080414D01*
X101411523Y-77080414D02*
X102721047Y-77080414D01*
X101411523Y-77080414D02*
X101173428Y-76961366D01*
X101173428Y-76961366D02*
X101054380Y-76723271D01*
X101054380Y-76723271D02*
X101054380Y-76366128D01*
X101054380Y-76366128D02*
X101173428Y-76128033D01*
X101173428Y-76128033D02*
X101411523Y-76008985D01*
X101411523Y-76008985D02*
X102721047Y-76008985D01*
X102721047Y-72913747D02*
X100221047Y-72913747D01*
X100221047Y-72913747D02*
X100221047Y-72318509D01*
X100221047Y-72318509D02*
X100340095Y-71961366D01*
X100340095Y-71961366D02*
X100578190Y-71723271D01*
X100578190Y-71723271D02*
X100816285Y-71604224D01*
X100816285Y-71604224D02*
X101292476Y-71485176D01*
X101292476Y-71485176D02*
X101649619Y-71485176D01*
X101649619Y-71485176D02*
X102125809Y-71604224D01*
X102125809Y-71604224D02*
X102363904Y-71723271D01*
X102363904Y-71723271D02*
X102602000Y-71961366D01*
X102602000Y-71961366D02*
X102721047Y-72318509D01*
X102721047Y-72318509D02*
X102721047Y-72913747D01*
X102482952Y-68985176D02*
X102602000Y-69104224D01*
X102602000Y-69104224D02*
X102721047Y-69461366D01*
X102721047Y-69461366D02*
X102721047Y-69699462D01*
X102721047Y-69699462D02*
X102602000Y-70056605D01*
X102602000Y-70056605D02*
X102363904Y-70294700D01*
X102363904Y-70294700D02*
X102125809Y-70413747D01*
X102125809Y-70413747D02*
X101649619Y-70532795D01*
X101649619Y-70532795D02*
X101292476Y-70532795D01*
X101292476Y-70532795D02*
X100816285Y-70413747D01*
X100816285Y-70413747D02*
X100578190Y-70294700D01*
X100578190Y-70294700D02*
X100340095Y-70056605D01*
X100340095Y-70056605D02*
X100221047Y-69699462D01*
X100221047Y-69699462D02*
X100221047Y-69461366D01*
X100221047Y-69461366D02*
X100340095Y-69104224D01*
X100340095Y-69104224D02*
X100459142Y-68985176D01*
X100221047Y-68270890D02*
X100221047Y-66842319D01*
X102721047Y-67556605D02*
X100221047Y-67556605D01*
D12*
X99175219Y-103558933D02*
X99889504Y-103558933D01*
X99889504Y-103558933D02*
X100032361Y-103606552D01*
X100032361Y-103606552D02*
X100127600Y-103701790D01*
X100127600Y-103701790D02*
X100175219Y-103844647D01*
X100175219Y-103844647D02*
X100175219Y-103939885D01*
X99270457Y-103130361D02*
X99222838Y-103082742D01*
X99222838Y-103082742D02*
X99175219Y-102987504D01*
X99175219Y-102987504D02*
X99175219Y-102749409D01*
X99175219Y-102749409D02*
X99222838Y-102654171D01*
X99222838Y-102654171D02*
X99270457Y-102606552D01*
X99270457Y-102606552D02*
X99365695Y-102558933D01*
X99365695Y-102558933D02*
X99460933Y-102558933D01*
X99460933Y-102558933D02*
X99603790Y-102606552D01*
X99603790Y-102606552D02*
X100175219Y-103177980D01*
X100175219Y-103177980D02*
X100175219Y-102558933D01*
D13*
X100809900Y-92848571D02*
X100881328Y-92634286D01*
X100881328Y-92634286D02*
X100881328Y-92277143D01*
X100881328Y-92277143D02*
X100809900Y-92134286D01*
X100809900Y-92134286D02*
X100738471Y-92062857D01*
X100738471Y-92062857D02*
X100595614Y-91991428D01*
X100595614Y-91991428D02*
X100452757Y-91991428D01*
X100452757Y-91991428D02*
X100309900Y-92062857D01*
X100309900Y-92062857D02*
X100238471Y-92134286D01*
X100238471Y-92134286D02*
X100167042Y-92277143D01*
X100167042Y-92277143D02*
X100095614Y-92562857D01*
X100095614Y-92562857D02*
X100024185Y-92705714D01*
X100024185Y-92705714D02*
X99952757Y-92777143D01*
X99952757Y-92777143D02*
X99809900Y-92848571D01*
X99809900Y-92848571D02*
X99667042Y-92848571D01*
X99667042Y-92848571D02*
X99524185Y-92777143D01*
X99524185Y-92777143D02*
X99452757Y-92705714D01*
X99452757Y-92705714D02*
X99381328Y-92562857D01*
X99381328Y-92562857D02*
X99381328Y-92205714D01*
X99381328Y-92205714D02*
X99452757Y-91991428D01*
X100881328Y-91348572D02*
X99381328Y-91348572D01*
X100095614Y-91348572D02*
X100095614Y-90491429D01*
X100881328Y-90491429D02*
X99381328Y-90491429D01*
X100095614Y-89277143D02*
X100167042Y-89062857D01*
X100167042Y-89062857D02*
X100238471Y-88991428D01*
X100238471Y-88991428D02*
X100381328Y-88920000D01*
X100381328Y-88920000D02*
X100595614Y-88920000D01*
X100595614Y-88920000D02*
X100738471Y-88991428D01*
X100738471Y-88991428D02*
X100809900Y-89062857D01*
X100809900Y-89062857D02*
X100881328Y-89205714D01*
X100881328Y-89205714D02*
X100881328Y-89777143D01*
X100881328Y-89777143D02*
X99381328Y-89777143D01*
X99381328Y-89777143D02*
X99381328Y-89277143D01*
X99381328Y-89277143D02*
X99452757Y-89134286D01*
X99452757Y-89134286D02*
X99524185Y-89062857D01*
X99524185Y-89062857D02*
X99667042Y-88991428D01*
X99667042Y-88991428D02*
X99809900Y-88991428D01*
X99809900Y-88991428D02*
X99952757Y-89062857D01*
X99952757Y-89062857D02*
X100024185Y-89134286D01*
X100024185Y-89134286D02*
X100095614Y-89277143D01*
X100095614Y-89277143D02*
X100095614Y-89777143D01*
X99524185Y-88348571D02*
X99452757Y-88277143D01*
X99452757Y-88277143D02*
X99381328Y-88134286D01*
X99381328Y-88134286D02*
X99381328Y-87777143D01*
X99381328Y-87777143D02*
X99452757Y-87634286D01*
X99452757Y-87634286D02*
X99524185Y-87562857D01*
X99524185Y-87562857D02*
X99667042Y-87491428D01*
X99667042Y-87491428D02*
X99809900Y-87491428D01*
X99809900Y-87491428D02*
X100024185Y-87562857D01*
X100024185Y-87562857D02*
X100881328Y-88420000D01*
X100881328Y-88420000D02*
X100881328Y-87491428D01*
D12*
X141081179Y-91098733D02*
X141795464Y-91098733D01*
X141795464Y-91098733D02*
X141938321Y-91146352D01*
X141938321Y-91146352D02*
X142033560Y-91241590D01*
X142033560Y-91241590D02*
X142081179Y-91384447D01*
X142081179Y-91384447D02*
X142081179Y-91479685D01*
X141081179Y-90717780D02*
X141081179Y-90098733D01*
X141081179Y-90098733D02*
X141462131Y-90432066D01*
X141462131Y-90432066D02*
X141462131Y-90289209D01*
X141462131Y-90289209D02*
X141509750Y-90193971D01*
X141509750Y-90193971D02*
X141557369Y-90146352D01*
X141557369Y-90146352D02*
X141652607Y-90098733D01*
X141652607Y-90098733D02*
X141890702Y-90098733D01*
X141890702Y-90098733D02*
X141985940Y-90146352D01*
X141985940Y-90146352D02*
X142033560Y-90193971D01*
X142033560Y-90193971D02*
X142081179Y-90289209D01*
X142081179Y-90289209D02*
X142081179Y-90574923D01*
X142081179Y-90574923D02*
X142033560Y-90670161D01*
X142033560Y-90670161D02*
X141985940Y-90717780D01*
X134461179Y-82590476D02*
X133461179Y-82590476D01*
X133937369Y-82590476D02*
X133937369Y-82019048D01*
X134461179Y-82019048D02*
X133461179Y-82019048D01*
X134413560Y-81161905D02*
X134461179Y-81257143D01*
X134461179Y-81257143D02*
X134461179Y-81447619D01*
X134461179Y-81447619D02*
X134413560Y-81542857D01*
X134413560Y-81542857D02*
X134318321Y-81590476D01*
X134318321Y-81590476D02*
X133937369Y-81590476D01*
X133937369Y-81590476D02*
X133842131Y-81542857D01*
X133842131Y-81542857D02*
X133794512Y-81447619D01*
X133794512Y-81447619D02*
X133794512Y-81257143D01*
X133794512Y-81257143D02*
X133842131Y-81161905D01*
X133842131Y-81161905D02*
X133937369Y-81114286D01*
X133937369Y-81114286D02*
X134032607Y-81114286D01*
X134032607Y-81114286D02*
X134127845Y-81590476D01*
X134461179Y-80257143D02*
X133937369Y-80257143D01*
X133937369Y-80257143D02*
X133842131Y-80304762D01*
X133842131Y-80304762D02*
X133794512Y-80400000D01*
X133794512Y-80400000D02*
X133794512Y-80590476D01*
X133794512Y-80590476D02*
X133842131Y-80685714D01*
X134413560Y-80257143D02*
X134461179Y-80352381D01*
X134461179Y-80352381D02*
X134461179Y-80590476D01*
X134461179Y-80590476D02*
X134413560Y-80685714D01*
X134413560Y-80685714D02*
X134318321Y-80733333D01*
X134318321Y-80733333D02*
X134223083Y-80733333D01*
X134223083Y-80733333D02*
X134127845Y-80685714D01*
X134127845Y-80685714D02*
X134080226Y-80590476D01*
X134080226Y-80590476D02*
X134080226Y-80352381D01*
X134080226Y-80352381D02*
X134032607Y-80257143D01*
X133794512Y-79923809D02*
X133794512Y-79542857D01*
X133461179Y-79780952D02*
X134318321Y-79780952D01*
X134318321Y-79780952D02*
X134413560Y-79733333D01*
X134413560Y-79733333D02*
X134461179Y-79638095D01*
X134461179Y-79638095D02*
X134461179Y-79542857D01*
X134413560Y-78828571D02*
X134461179Y-78923809D01*
X134461179Y-78923809D02*
X134461179Y-79114285D01*
X134461179Y-79114285D02*
X134413560Y-79209523D01*
X134413560Y-79209523D02*
X134318321Y-79257142D01*
X134318321Y-79257142D02*
X133937369Y-79257142D01*
X133937369Y-79257142D02*
X133842131Y-79209523D01*
X133842131Y-79209523D02*
X133794512Y-79114285D01*
X133794512Y-79114285D02*
X133794512Y-78923809D01*
X133794512Y-78923809D02*
X133842131Y-78828571D01*
X133842131Y-78828571D02*
X133937369Y-78780952D01*
X133937369Y-78780952D02*
X134032607Y-78780952D01*
X134032607Y-78780952D02*
X134127845Y-79257142D01*
X134461179Y-78352380D02*
X133794512Y-78352380D01*
X133984988Y-78352380D02*
X133889750Y-78304761D01*
X133889750Y-78304761D02*
X133842131Y-78257142D01*
X133842131Y-78257142D02*
X133794512Y-78161904D01*
X133794512Y-78161904D02*
X133794512Y-78066666D01*
X134413560Y-77019046D02*
X134461179Y-76876189D01*
X134461179Y-76876189D02*
X134461179Y-76638094D01*
X134461179Y-76638094D02*
X134413560Y-76542856D01*
X134413560Y-76542856D02*
X134365940Y-76495237D01*
X134365940Y-76495237D02*
X134270702Y-76447618D01*
X134270702Y-76447618D02*
X134175464Y-76447618D01*
X134175464Y-76447618D02*
X134080226Y-76495237D01*
X134080226Y-76495237D02*
X134032607Y-76542856D01*
X134032607Y-76542856D02*
X133984988Y-76638094D01*
X133984988Y-76638094D02*
X133937369Y-76828570D01*
X133937369Y-76828570D02*
X133889750Y-76923808D01*
X133889750Y-76923808D02*
X133842131Y-76971427D01*
X133842131Y-76971427D02*
X133746893Y-77019046D01*
X133746893Y-77019046D02*
X133651655Y-77019046D01*
X133651655Y-77019046D02*
X133556417Y-76971427D01*
X133556417Y-76971427D02*
X133508798Y-76923808D01*
X133508798Y-76923808D02*
X133461179Y-76828570D01*
X133461179Y-76828570D02*
X133461179Y-76590475D01*
X133461179Y-76590475D02*
X133508798Y-76447618D01*
X134461179Y-75876189D02*
X134413560Y-75971427D01*
X134413560Y-75971427D02*
X134365940Y-76019046D01*
X134365940Y-76019046D02*
X134270702Y-76066665D01*
X134270702Y-76066665D02*
X133984988Y-76066665D01*
X133984988Y-76066665D02*
X133889750Y-76019046D01*
X133889750Y-76019046D02*
X133842131Y-75971427D01*
X133842131Y-75971427D02*
X133794512Y-75876189D01*
X133794512Y-75876189D02*
X133794512Y-75733332D01*
X133794512Y-75733332D02*
X133842131Y-75638094D01*
X133842131Y-75638094D02*
X133889750Y-75590475D01*
X133889750Y-75590475D02*
X133984988Y-75542856D01*
X133984988Y-75542856D02*
X134270702Y-75542856D01*
X134270702Y-75542856D02*
X134365940Y-75590475D01*
X134365940Y-75590475D02*
X134413560Y-75638094D01*
X134413560Y-75638094D02*
X134461179Y-75733332D01*
X134461179Y-75733332D02*
X134461179Y-75876189D01*
X133794512Y-74685713D02*
X134461179Y-74685713D01*
X133794512Y-75114284D02*
X134318321Y-75114284D01*
X134318321Y-75114284D02*
X134413560Y-75066665D01*
X134413560Y-75066665D02*
X134461179Y-74971427D01*
X134461179Y-74971427D02*
X134461179Y-74828570D01*
X134461179Y-74828570D02*
X134413560Y-74733332D01*
X134413560Y-74733332D02*
X134365940Y-74685713D01*
X133794512Y-74352379D02*
X133794512Y-73971427D01*
X133461179Y-74209522D02*
X134318321Y-74209522D01*
X134318321Y-74209522D02*
X134413560Y-74161903D01*
X134413560Y-74161903D02*
X134461179Y-74066665D01*
X134461179Y-74066665D02*
X134461179Y-73971427D01*
X134461179Y-73638093D02*
X133461179Y-73638093D01*
X134461179Y-73209522D02*
X133937369Y-73209522D01*
X133937369Y-73209522D02*
X133842131Y-73257141D01*
X133842131Y-73257141D02*
X133794512Y-73352379D01*
X133794512Y-73352379D02*
X133794512Y-73495236D01*
X133794512Y-73495236D02*
X133842131Y-73590474D01*
X133842131Y-73590474D02*
X133889750Y-73638093D01*
X99175219Y-74348933D02*
X99889504Y-74348933D01*
X99889504Y-74348933D02*
X100032361Y-74396552D01*
X100032361Y-74396552D02*
X100127600Y-74491790D01*
X100127600Y-74491790D02*
X100175219Y-74634647D01*
X100175219Y-74634647D02*
X100175219Y-74729885D01*
X100175219Y-73348933D02*
X100175219Y-73920361D01*
X100175219Y-73634647D02*
X99175219Y-73634647D01*
X99175219Y-73634647D02*
X99318076Y-73729885D01*
X99318076Y-73729885D02*
X99413314Y-73825123D01*
X99413314Y-73825123D02*
X99460933Y-73920361D01*
D13*
X100826900Y-63638571D02*
X100898328Y-63424286D01*
X100898328Y-63424286D02*
X100898328Y-63067143D01*
X100898328Y-63067143D02*
X100826900Y-62924286D01*
X100826900Y-62924286D02*
X100755471Y-62852857D01*
X100755471Y-62852857D02*
X100612614Y-62781428D01*
X100612614Y-62781428D02*
X100469757Y-62781428D01*
X100469757Y-62781428D02*
X100326900Y-62852857D01*
X100326900Y-62852857D02*
X100255471Y-62924286D01*
X100255471Y-62924286D02*
X100184042Y-63067143D01*
X100184042Y-63067143D02*
X100112614Y-63352857D01*
X100112614Y-63352857D02*
X100041185Y-63495714D01*
X100041185Y-63495714D02*
X99969757Y-63567143D01*
X99969757Y-63567143D02*
X99826900Y-63638571D01*
X99826900Y-63638571D02*
X99684042Y-63638571D01*
X99684042Y-63638571D02*
X99541185Y-63567143D01*
X99541185Y-63567143D02*
X99469757Y-63495714D01*
X99469757Y-63495714D02*
X99398328Y-63352857D01*
X99398328Y-63352857D02*
X99398328Y-62995714D01*
X99398328Y-62995714D02*
X99469757Y-62781428D01*
X100898328Y-62138572D02*
X99398328Y-62138572D01*
X100112614Y-62138572D02*
X100112614Y-61281429D01*
X100898328Y-61281429D02*
X99398328Y-61281429D01*
X100112614Y-60067143D02*
X100184042Y-59852857D01*
X100184042Y-59852857D02*
X100255471Y-59781428D01*
X100255471Y-59781428D02*
X100398328Y-59710000D01*
X100398328Y-59710000D02*
X100612614Y-59710000D01*
X100612614Y-59710000D02*
X100755471Y-59781428D01*
X100755471Y-59781428D02*
X100826900Y-59852857D01*
X100826900Y-59852857D02*
X100898328Y-59995714D01*
X100898328Y-59995714D02*
X100898328Y-60567143D01*
X100898328Y-60567143D02*
X99398328Y-60567143D01*
X99398328Y-60567143D02*
X99398328Y-60067143D01*
X99398328Y-60067143D02*
X99469757Y-59924286D01*
X99469757Y-59924286D02*
X99541185Y-59852857D01*
X99541185Y-59852857D02*
X99684042Y-59781428D01*
X99684042Y-59781428D02*
X99826900Y-59781428D01*
X99826900Y-59781428D02*
X99969757Y-59852857D01*
X99969757Y-59852857D02*
X100041185Y-59924286D01*
X100041185Y-59924286D02*
X100112614Y-60067143D01*
X100112614Y-60067143D02*
X100112614Y-60567143D01*
X100898328Y-58281428D02*
X100898328Y-59138571D01*
X100898328Y-58710000D02*
X99398328Y-58710000D01*
X99398328Y-58710000D02*
X99612614Y-58852857D01*
X99612614Y-58852857D02*
X99755471Y-58995714D01*
X99755471Y-58995714D02*
X99826900Y-59138571D01*
D14*
%TO.C,J2*%
X98857000Y-76276000D02*
X98857000Y-104064000D01*
X91643000Y-76276000D02*
X98857000Y-76276000D01*
X98857000Y-104064000D02*
X91643000Y-104064000D01*
X91643000Y-104064000D02*
X91643000Y-76276000D01*
D15*
X90208480Y-79735680D02*
G75*
G03*
X90208480Y-79735680I-100000J0D01*
G01*
%TO.C,G\u002A\u002A\u002A*%
G36*
X126023510Y-48756312D02*
G01*
X126148996Y-48778928D01*
X126181496Y-48793966D01*
X126202219Y-48835749D01*
X126222020Y-48938598D01*
X126241490Y-49109463D01*
X126261220Y-49355294D01*
X126281798Y-49683042D01*
X126303817Y-50099656D01*
X126318600Y-50408879D01*
X126336802Y-50809140D01*
X126353389Y-51188377D01*
X126367771Y-51531949D01*
X126379358Y-51825212D01*
X126387560Y-52053525D01*
X126391787Y-52202246D01*
X126392232Y-52236127D01*
X126397019Y-52387759D01*
X126425798Y-52476359D01*
X126501747Y-52539093D01*
X126618344Y-52598691D01*
X126760926Y-52679634D01*
X126828761Y-52755647D01*
X126843787Y-52834118D01*
X126856639Y-52929231D01*
X126881361Y-52961484D01*
X126940915Y-52948632D01*
X127077494Y-52912408D01*
X127272098Y-52858038D01*
X127505721Y-52790748D01*
X127559443Y-52775030D01*
X127819056Y-52697936D01*
X128000616Y-52639155D01*
X128122341Y-52589231D01*
X128202452Y-52538708D01*
X128259167Y-52478131D01*
X128310706Y-52398043D01*
X128321650Y-52379441D01*
X128422676Y-52237961D01*
X128568551Y-52069899D01*
X128720857Y-51918150D01*
X129065133Y-51665882D01*
X129438721Y-51502659D01*
X129829212Y-51426427D01*
X130224200Y-51435133D01*
X130611279Y-51526720D01*
X130978043Y-51699136D01*
X131312084Y-51950326D01*
X131600997Y-52278236D01*
X131688407Y-52409529D01*
X131740293Y-52484328D01*
X131802355Y-52543241D01*
X131893026Y-52595422D01*
X132030742Y-52650030D01*
X132233936Y-52716219D01*
X132419675Y-52772744D01*
X132657713Y-52843073D01*
X132862947Y-52901352D01*
X133015362Y-52942066D01*
X133094945Y-52959702D01*
X133099291Y-52960015D01*
X133141983Y-52917167D01*
X133156213Y-52834118D01*
X133178020Y-52742497D01*
X133257962Y-52666069D01*
X133373578Y-52602616D01*
X133590942Y-52497013D01*
X133650612Y-50962538D01*
X133666714Y-50563105D01*
X133683180Y-50181081D01*
X133699253Y-49832122D01*
X133714179Y-49531884D01*
X133727201Y-49296022D01*
X133737563Y-49140192D01*
X133739915Y-49112714D01*
X133769548Y-48797364D01*
X134076589Y-48812122D01*
X134383630Y-48826879D01*
X134466351Y-50630430D01*
X134485471Y-51044741D01*
X134503301Y-51426205D01*
X134519296Y-51763557D01*
X134532913Y-52045533D01*
X134543608Y-52260867D01*
X134550838Y-52398294D01*
X134554024Y-52446505D01*
X134602016Y-52453993D01*
X134717652Y-52458469D01*
X134784419Y-52459029D01*
X135009862Y-52459029D01*
X135009862Y-53360804D01*
X135009862Y-54262580D01*
X134784419Y-54262580D01*
X134648640Y-54265081D01*
X134565570Y-54271407D01*
X134554024Y-54275104D01*
X134550674Y-54326239D01*
X134543331Y-54466203D01*
X134532539Y-54683732D01*
X134518841Y-54967559D01*
X134502782Y-55306421D01*
X134484905Y-55689051D01*
X134466351Y-56091179D01*
X134383630Y-57894729D01*
X134076589Y-57909487D01*
X133769548Y-57924245D01*
X133739915Y-57608895D01*
X133730445Y-57478635D01*
X133718101Y-57263899D01*
X133703639Y-56980343D01*
X133687815Y-56643623D01*
X133671384Y-56269393D01*
X133655102Y-55873311D01*
X133650612Y-55759071D01*
X133590942Y-54224596D01*
X133373578Y-54118992D01*
X133237429Y-54042449D01*
X133172891Y-53969417D01*
X133156222Y-53872633D01*
X133156213Y-53869403D01*
X133156213Y-53725417D01*
X132474412Y-53929808D01*
X131792610Y-54134200D01*
X131631263Y-54386259D01*
X131359949Y-54723262D01*
X131032489Y-54986165D01*
X130662885Y-55170923D01*
X130265143Y-55273487D01*
X129853265Y-55289812D01*
X129441255Y-55215850D01*
X129150075Y-55103305D01*
X128905611Y-54951675D01*
X128657262Y-54741527D01*
X128563748Y-54639730D01*
X128947929Y-54639730D01*
X128991057Y-54699255D01*
X129103554Y-54778244D01*
X129260089Y-54863426D01*
X129435332Y-54941530D01*
X129603952Y-54999287D01*
X129660458Y-55013022D01*
X130022525Y-55040265D01*
X130401310Y-54982491D01*
X130735779Y-54859663D01*
X130907979Y-54769831D01*
X131006518Y-54696390D01*
X131051866Y-54621392D01*
X131061420Y-54574120D01*
X131094151Y-54471329D01*
X131177956Y-54437850D01*
X131202232Y-54436973D01*
X131275839Y-54421420D01*
X131343306Y-54363930D01*
X131420518Y-54246382D01*
X131499528Y-54097808D01*
X131591123Y-53905723D01*
X131642762Y-53751241D01*
X131644221Y-53740642D01*
X131903748Y-53740642D01*
X131907463Y-53787633D01*
X131934238Y-53806273D01*
X132007516Y-53797825D01*
X132150741Y-53763553D01*
X132182155Y-53755646D01*
X132330465Y-53705506D01*
X132396708Y-53645327D01*
X132404734Y-53605350D01*
X132387445Y-53545503D01*
X132318996Y-53517642D01*
X132184650Y-53511100D01*
X132020300Y-53528929D01*
X131932937Y-53592443D01*
X131904152Y-53716685D01*
X131903748Y-53740642D01*
X131644221Y-53740642D01*
X131665163Y-53588487D01*
X131669051Y-53372330D01*
X131668573Y-53360804D01*
X132655227Y-53360804D01*
X132658130Y-53503750D01*
X132665552Y-53594441D01*
X132671352Y-53611298D01*
X132723850Y-53596563D01*
X132800001Y-53571918D01*
X133412254Y-53571918D01*
X133417878Y-53747683D01*
X133436260Y-53852985D01*
X133469553Y-53902511D01*
X133505331Y-53911889D01*
X133529584Y-53863405D01*
X133546667Y-53724011D01*
X133555395Y-53511100D01*
X133798947Y-53511100D01*
X133827765Y-53874315D01*
X133837504Y-54023728D01*
X133849928Y-54255336D01*
X133864200Y-54551197D01*
X133879484Y-54893373D01*
X133894945Y-55263921D01*
X133907693Y-55590193D01*
X133927680Y-56106392D01*
X133945452Y-56531061D01*
X133961756Y-56872826D01*
X133977335Y-57140309D01*
X133992936Y-57342137D01*
X134009303Y-57486932D01*
X134027180Y-57583320D01*
X134047315Y-57639925D01*
X134070450Y-57665370D01*
X134087312Y-57669286D01*
X134128595Y-57642288D01*
X134151347Y-57550261D01*
X134159385Y-57376655D01*
X134159519Y-57356169D01*
X134162241Y-57226381D01*
X134169289Y-57012182D01*
X134180034Y-56729237D01*
X134193848Y-56393211D01*
X134210104Y-56019768D01*
X134228172Y-55624573D01*
X134233334Y-55515045D01*
X134251687Y-55121302D01*
X134268421Y-54749222D01*
X134282918Y-54413577D01*
X134294560Y-54129137D01*
X134302730Y-53910676D01*
X134306811Y-53772963D01*
X134307149Y-53749069D01*
X134308482Y-53511100D01*
X134053714Y-53511100D01*
X133798947Y-53511100D01*
X133555395Y-53511100D01*
X133555735Y-53502795D01*
X133556966Y-53360804D01*
X134558975Y-53360804D01*
X134559825Y-53626687D01*
X134564012Y-53808344D01*
X134573993Y-53921742D01*
X134592225Y-53982851D01*
X134621164Y-54007637D01*
X134659172Y-54012086D01*
X134700077Y-54006563D01*
X134728024Y-53979346D01*
X134745470Y-53914468D01*
X134754871Y-53795962D01*
X134758685Y-53607859D01*
X134759369Y-53360804D01*
X134758519Y-53094922D01*
X134754332Y-52913265D01*
X134744351Y-52799867D01*
X134726119Y-52738758D01*
X134697180Y-52713972D01*
X134659172Y-52709522D01*
X134618267Y-52715046D01*
X134590320Y-52742263D01*
X134572874Y-52807141D01*
X134563473Y-52925647D01*
X134559659Y-53113750D01*
X134558975Y-53360804D01*
X133556966Y-53360804D01*
X133557002Y-53356630D01*
X133555389Y-53210509D01*
X133798947Y-53210509D01*
X134053714Y-53210509D01*
X134308482Y-53210509D01*
X134307149Y-52972540D01*
X134304454Y-52862722D01*
X134297480Y-52667599D01*
X134286843Y-52401940D01*
X134273161Y-52080518D01*
X134257052Y-51718104D01*
X134239132Y-51329468D01*
X134233334Y-51206564D01*
X134214880Y-50808154D01*
X134198067Y-50427224D01*
X134183525Y-50079436D01*
X134171880Y-49780457D01*
X134163761Y-49545950D01*
X134159797Y-49391579D01*
X134159519Y-49365440D01*
X134152634Y-49183562D01*
X134131383Y-49084775D01*
X134091950Y-49052527D01*
X134087312Y-49052323D01*
X134061846Y-49062247D01*
X134039861Y-49097767D01*
X134020613Y-49167508D01*
X134003357Y-49280095D01*
X133987348Y-49444151D01*
X133971840Y-49668301D01*
X133956089Y-49961170D01*
X133939349Y-50331380D01*
X133920876Y-50787558D01*
X133907693Y-51131416D01*
X133892745Y-51512001D01*
X133877257Y-51879576D01*
X133862067Y-52216199D01*
X133848009Y-52503931D01*
X133835920Y-52724831D01*
X133827765Y-52847294D01*
X133798947Y-53210509D01*
X133555389Y-53210509D01*
X133554201Y-53102932D01*
X133544848Y-52937165D01*
X133527522Y-52847190D01*
X133500802Y-52820873D01*
X133494379Y-52822122D01*
X133458958Y-52879516D01*
X133433927Y-53027503D01*
X133418606Y-53270393D01*
X133417235Y-53311000D01*
X133412254Y-53571918D01*
X132800001Y-53571918D01*
X132840089Y-53558944D01*
X132924590Y-53530505D01*
X133069847Y-53472201D01*
X133136978Y-53416392D01*
X133146434Y-53347895D01*
X133097060Y-53265701D01*
X132967066Y-53198879D01*
X132905720Y-53178955D01*
X132770517Y-53139274D01*
X132683371Y-53114782D01*
X132667752Y-53111072D01*
X132660607Y-53155706D01*
X132656072Y-53270659D01*
X132655227Y-53360804D01*
X131668573Y-53360804D01*
X131658176Y-53110087D01*
X131637464Y-52992053D01*
X131907959Y-52992053D01*
X131923735Y-53082929D01*
X131955881Y-53162737D01*
X132019734Y-53200051D01*
X132146388Y-53210334D01*
X132180245Y-53210509D01*
X132321775Y-53203346D01*
X132388378Y-53174991D01*
X132404734Y-53116822D01*
X132372553Y-53045293D01*
X132265002Y-52987190D01*
X132177854Y-52959613D01*
X132015654Y-52922302D01*
X131930784Y-52930642D01*
X131907959Y-52992053D01*
X131637464Y-52992053D01*
X131621669Y-52902039D01*
X131547448Y-52704299D01*
X131423425Y-52472978D01*
X131419590Y-52466399D01*
X131292299Y-52248324D01*
X131105041Y-52431176D01*
X130917784Y-52614028D01*
X131035026Y-52845611D01*
X131136255Y-53151802D01*
X131148794Y-53476619D01*
X131072687Y-53792156D01*
X131033352Y-53879305D01*
X130974377Y-54015343D01*
X130950575Y-54112555D01*
X130958204Y-54141245D01*
X130997167Y-54213834D01*
X130993432Y-54316475D01*
X130949680Y-54389182D01*
X130872414Y-54388585D01*
X130824405Y-54360932D01*
X130759560Y-54332605D01*
X130662590Y-54346275D01*
X130506237Y-54405841D01*
X130504196Y-54406718D01*
X130166292Y-54499253D01*
X129817649Y-54496894D01*
X129493469Y-54405713D01*
X129243906Y-54298354D01*
X129095918Y-54440136D01*
X129002395Y-54542829D01*
X128951210Y-54624492D01*
X128947929Y-54639730D01*
X128563748Y-54639730D01*
X128441103Y-54506222D01*
X128326838Y-54341981D01*
X128272925Y-54254913D01*
X128217718Y-54190061D01*
X128142655Y-54137606D01*
X128029172Y-54087726D01*
X127858708Y-54030603D01*
X127612700Y-53956417D01*
X127579277Y-53946510D01*
X127340953Y-53877116D01*
X127135622Y-53819597D01*
X126983259Y-53779386D01*
X126903836Y-53761917D01*
X126899448Y-53761593D01*
X126857699Y-53804451D01*
X126843787Y-53887491D01*
X126822888Y-53977269D01*
X126745787Y-54052609D01*
X126618344Y-54122918D01*
X126392900Y-54232447D01*
X126391567Y-54510531D01*
X126388858Y-54630982D01*
X126381844Y-54836264D01*
X126371150Y-55111133D01*
X126357398Y-55440344D01*
X126341211Y-55808654D01*
X126323212Y-56200817D01*
X126317752Y-56316623D01*
X126299658Y-56698357D01*
X126283128Y-57047677D01*
X126268752Y-57352059D01*
X126257121Y-57598977D01*
X126248825Y-57775905D01*
X126244454Y-57870321D01*
X126243937Y-57882205D01*
X126198616Y-57908323D01*
X126086601Y-57920651D01*
X125940252Y-57920485D01*
X125791930Y-57909120D01*
X125673994Y-57887853D01*
X125618806Y-57857979D01*
X125618517Y-57857156D01*
X125611649Y-57792693D01*
X125601942Y-57641263D01*
X125590041Y-57416034D01*
X125576591Y-57130175D01*
X125562238Y-56796855D01*
X125547625Y-56429243D01*
X125544312Y-56341672D01*
X125529139Y-55952213D01*
X125513549Y-55579740D01*
X125498307Y-55240535D01*
X125484175Y-54950878D01*
X125471919Y-54727051D01*
X125462301Y-54585334D01*
X125461458Y-54575696D01*
X125433051Y-54262580D01*
X125211595Y-54262580D01*
X124990139Y-54262580D01*
X124990139Y-53360804D01*
X125240632Y-53360804D01*
X125241481Y-53626687D01*
X125245669Y-53808344D01*
X125255650Y-53921742D01*
X125273882Y-53982851D01*
X125302820Y-54007637D01*
X125340829Y-54012086D01*
X125381734Y-54006563D01*
X125409681Y-53979346D01*
X125427127Y-53914468D01*
X125436528Y-53795962D01*
X125440342Y-53607859D01*
X125440610Y-53511100D01*
X125691519Y-53511100D01*
X125692852Y-53749069D01*
X125695546Y-53858886D01*
X125702521Y-54054010D01*
X125713158Y-54319669D01*
X125726839Y-54641091D01*
X125742949Y-55003505D01*
X125760869Y-55392140D01*
X125766667Y-55515045D01*
X125785121Y-55913455D01*
X125801934Y-56294385D01*
X125816476Y-56642172D01*
X125828121Y-56941152D01*
X125836240Y-57175659D01*
X125840204Y-57330029D01*
X125840482Y-57356169D01*
X125847315Y-57537805D01*
X125868449Y-57636516D01*
X125907756Y-57669031D01*
X125912975Y-57669286D01*
X125958899Y-57634225D01*
X125991795Y-57521104D01*
X126012200Y-57356169D01*
X126021607Y-57221934D01*
X126033698Y-57004513D01*
X126047674Y-56720857D01*
X126062735Y-56387916D01*
X126078079Y-56022640D01*
X126092032Y-55665341D01*
X126107069Y-55279936D01*
X126122675Y-54906213D01*
X126138019Y-54562220D01*
X126152270Y-54266006D01*
X126164597Y-54035618D01*
X126173366Y-53899365D01*
X126202934Y-53511100D01*
X125947227Y-53511100D01*
X125691519Y-53511100D01*
X125440610Y-53511100D01*
X125441026Y-53360804D01*
X126442998Y-53360804D01*
X126445771Y-53615570D01*
X126455026Y-53782385D01*
X126472175Y-53873369D01*
X126498626Y-53900640D01*
X126505622Y-53899365D01*
X126536875Y-53853079D01*
X126556858Y-53732509D01*
X126566715Y-53527817D01*
X126568245Y-53360804D01*
X126568035Y-53348224D01*
X126842272Y-53348224D01*
X126873316Y-53429578D01*
X127003981Y-53507782D01*
X127056707Y-53528020D01*
X127193341Y-53574464D01*
X127288472Y-53603298D01*
X127307200Y-53607342D01*
X127309089Y-53603576D01*
X127595267Y-53603576D01*
X127628916Y-53682617D01*
X127741270Y-53739316D01*
X127783137Y-53751439D01*
X127953985Y-53793125D01*
X128048761Y-53800381D01*
X128087179Y-53768180D01*
X128088952Y-53691494D01*
X128087056Y-53673921D01*
X128067915Y-53589634D01*
X128017089Y-53546099D01*
X127906394Y-53526321D01*
X127833235Y-53520880D01*
X127688422Y-53516762D01*
X127617740Y-53534659D01*
X127596009Y-53583325D01*
X127595267Y-53603576D01*
X127309089Y-53603576D01*
X127328605Y-53564669D01*
X127342213Y-53451196D01*
X127344774Y-53360804D01*
X128333611Y-53360804D01*
X128342946Y-53616626D01*
X128378836Y-53821587D01*
X128453109Y-54018549D01*
X128577592Y-54250375D01*
X128580411Y-54255210D01*
X128707702Y-54473284D01*
X128894959Y-54290433D01*
X129082217Y-54107581D01*
X129053588Y-54051031D01*
X129509794Y-54051031D01*
X129525531Y-54137704D01*
X129636785Y-54204351D01*
X129766991Y-54246804D01*
X129829130Y-54239279D01*
X129848335Y-54168583D01*
X129849705Y-54092594D01*
X130150296Y-54092594D01*
X130154847Y-54206430D01*
X130165991Y-54261608D01*
X130167870Y-54262580D01*
X130222221Y-54247800D01*
X130331070Y-54211796D01*
X130343215Y-54207580D01*
X130467171Y-54140883D01*
X130492713Y-54058527D01*
X130421047Y-53955602D01*
X130408035Y-53943495D01*
X130294322Y-53882696D01*
X130204921Y-53912692D01*
X130155430Y-54024458D01*
X130150296Y-54092594D01*
X129849705Y-54092594D01*
X129821319Y-53949593D01*
X129746561Y-53884624D01*
X129641029Y-53906711D01*
X129591966Y-53943495D01*
X129509794Y-54051031D01*
X129053588Y-54051031D01*
X128964974Y-53875998D01*
X128866879Y-53577355D01*
X128865173Y-53539248D01*
X129110085Y-53539248D01*
X129119691Y-53610070D01*
X129174926Y-53747987D01*
X129251626Y-53931557D01*
X129377341Y-53805841D01*
X129465490Y-53682863D01*
X129470626Y-53595613D01*
X129391836Y-53527710D01*
X129268210Y-53511100D01*
X129156473Y-53514178D01*
X129110085Y-53539248D01*
X128865173Y-53539248D01*
X128857765Y-53373814D01*
X129676196Y-53373814D01*
X129699920Y-53487396D01*
X129777586Y-53601097D01*
X129924433Y-53686097D01*
X129984214Y-53708319D01*
X130031961Y-53695046D01*
X130122884Y-53662295D01*
X130188407Y-53614384D01*
X130524769Y-53614384D01*
X130554813Y-53725748D01*
X130608500Y-53794431D01*
X130689730Y-53875337D01*
X130736590Y-53911731D01*
X130737720Y-53911889D01*
X130767118Y-53870661D01*
X130816202Y-53768528D01*
X130829184Y-53738153D01*
X130882940Y-53602689D01*
X130888654Y-53535846D01*
X130835932Y-53513390D01*
X130731790Y-53511100D01*
X130585477Y-53538892D01*
X130524769Y-53614384D01*
X130188407Y-53614384D01*
X130250996Y-53568619D01*
X130313990Y-53430259D01*
X130311698Y-53278018D01*
X130243954Y-53142698D01*
X130126145Y-53060554D01*
X129978157Y-53042540D01*
X130532820Y-53042540D01*
X130535670Y-53140557D01*
X130627186Y-53198950D01*
X130731790Y-53210509D01*
X130845611Y-53203607D01*
X130900799Y-53186707D01*
X130901776Y-53183850D01*
X130884172Y-53124772D01*
X130840379Y-53010785D01*
X130825075Y-52973622D01*
X130748375Y-52790052D01*
X130622660Y-52915768D01*
X130532820Y-53042540D01*
X129978157Y-53042540D01*
X129954703Y-53039685D01*
X129809013Y-53098510D01*
X129709401Y-53216672D01*
X129676196Y-53373814D01*
X128857765Y-53373814D01*
X128852455Y-53255248D01*
X128868488Y-53182939D01*
X129110313Y-53182939D01*
X129157505Y-53207563D01*
X129268210Y-53210509D01*
X129414848Y-53184291D01*
X129470626Y-53125996D01*
X129458415Y-53022802D01*
X129377341Y-52915768D01*
X129251626Y-52790052D01*
X129174926Y-52973622D01*
X129119238Y-53112878D01*
X129110313Y-53182939D01*
X128868488Y-53182939D01*
X128921969Y-52941741D01*
X128956534Y-52859818D01*
X129017616Y-52702742D01*
X129038991Y-52610894D01*
X129432924Y-52610894D01*
X129549850Y-52735356D01*
X129632491Y-52821985D01*
X129680327Y-52853455D01*
X129729628Y-52845230D01*
X129770459Y-52829409D01*
X129832249Y-52754213D01*
X129849705Y-52629014D01*
X129846576Y-52516989D01*
X129837654Y-52500666D01*
X130147290Y-52500666D01*
X130147747Y-52598589D01*
X130164281Y-52712320D01*
X130191930Y-52801380D01*
X130212920Y-52826639D01*
X130289421Y-52851128D01*
X130345572Y-52831537D01*
X130409369Y-52776906D01*
X130490179Y-52672046D01*
X130473831Y-52587880D01*
X130359167Y-52519794D01*
X130343215Y-52514029D01*
X130231159Y-52476612D01*
X130169679Y-52459190D01*
X130167870Y-52459029D01*
X130147290Y-52500666D01*
X129837654Y-52500666D01*
X129821295Y-52470735D01*
X129750014Y-52480709D01*
X129614656Y-52534962D01*
X129432924Y-52610894D01*
X129038991Y-52610894D01*
X129049988Y-52563642D01*
X129051504Y-52517527D01*
X129060986Y-52430314D01*
X129132630Y-52410484D01*
X129156723Y-52412308D01*
X129270656Y-52398197D01*
X129425094Y-52349126D01*
X129499014Y-52317338D01*
X129805064Y-52225489D01*
X130135530Y-52218980D01*
X130462259Y-52297852D01*
X130506532Y-52315896D01*
X130756095Y-52423255D01*
X130904083Y-52281473D01*
X130997743Y-52177508D01*
X131048868Y-52093077D01*
X131052071Y-52077056D01*
X131010179Y-52026001D01*
X130899661Y-51949323D01*
X130743261Y-51862527D01*
X130721654Y-51851756D01*
X130528058Y-51763594D01*
X130367995Y-51714672D01*
X130194243Y-51694407D01*
X130007749Y-51691754D01*
X129747057Y-51702721D01*
X129539641Y-51739489D01*
X129341790Y-51814143D01*
X129109793Y-51938766D01*
X129105764Y-51941116D01*
X128975136Y-52027969D01*
X128929346Y-52089724D01*
X128942944Y-52123392D01*
X128991287Y-52218819D01*
X128998028Y-52268655D01*
X128960364Y-52339596D01*
X128873554Y-52357549D01*
X128776871Y-52316661D01*
X128762588Y-52303748D01*
X128712411Y-52295524D01*
X128644176Y-52365848D01*
X128580312Y-52466568D01*
X128454814Y-52699433D01*
X128379753Y-52896693D01*
X128343297Y-53101241D01*
X128333613Y-53355968D01*
X128333611Y-53360804D01*
X127344774Y-53360804D01*
X127341871Y-53217858D01*
X127334449Y-53127167D01*
X127331640Y-53119004D01*
X127595267Y-53119004D01*
X127608106Y-53177245D01*
X127663363Y-53202526D01*
X127786145Y-53203470D01*
X127833235Y-53200729D01*
X127978401Y-53185947D01*
X128051557Y-53154728D01*
X128080889Y-53090076D01*
X128087056Y-53047688D01*
X128094293Y-52962442D01*
X128076160Y-52922347D01*
X128010870Y-52920790D01*
X127876639Y-52951157D01*
X127817846Y-52965963D01*
X127670994Y-53015082D01*
X127604627Y-53073924D01*
X127595267Y-53119004D01*
X127331640Y-53119004D01*
X127328649Y-53110311D01*
X127276126Y-53125038D01*
X127160076Y-53162595D01*
X127078156Y-53190169D01*
X126910627Y-53267247D01*
X126842272Y-53348224D01*
X126568035Y-53348224D01*
X126563906Y-53101002D01*
X126550127Y-52931215D01*
X126525763Y-52841606D01*
X126505622Y-52822244D01*
X126477000Y-52837468D01*
X126457981Y-52913814D01*
X126447156Y-53063400D01*
X126443117Y-53298345D01*
X126442998Y-53360804D01*
X125441026Y-53360804D01*
X125440546Y-53210509D01*
X125691519Y-53210509D01*
X125947227Y-53210509D01*
X126202934Y-53210509D01*
X126173366Y-52822244D01*
X126163485Y-52666620D01*
X126150931Y-52428907D01*
X126136534Y-52127156D01*
X126121127Y-51779413D01*
X126105540Y-51403728D01*
X126092032Y-51056268D01*
X126072562Y-50551014D01*
X126055246Y-50137084D01*
X126039298Y-49805649D01*
X126023927Y-49547879D01*
X126008344Y-49354945D01*
X125991761Y-49218018D01*
X125973389Y-49128267D01*
X125952438Y-49076863D01*
X125928121Y-49054978D01*
X125912975Y-49052323D01*
X125871582Y-49078986D01*
X125848761Y-49170128D01*
X125840638Y-49342477D01*
X125840482Y-49365440D01*
X125837760Y-49495228D01*
X125830712Y-49709427D01*
X125819967Y-49992372D01*
X125806153Y-50328398D01*
X125789897Y-50701841D01*
X125771829Y-51097036D01*
X125766667Y-51206564D01*
X125748313Y-51600307D01*
X125731579Y-51972387D01*
X125717083Y-52308032D01*
X125705441Y-52592471D01*
X125697270Y-52810933D01*
X125693190Y-52948646D01*
X125692852Y-52972540D01*
X125691519Y-53210509D01*
X125440546Y-53210509D01*
X125440176Y-53094922D01*
X125435989Y-52913265D01*
X125426008Y-52799867D01*
X125407776Y-52738758D01*
X125378837Y-52713972D01*
X125340829Y-52709522D01*
X125299924Y-52715046D01*
X125271977Y-52742263D01*
X125254531Y-52807141D01*
X125245129Y-52925647D01*
X125241316Y-53113750D01*
X125240632Y-53360804D01*
X124990139Y-53360804D01*
X124990139Y-52459029D01*
X125210663Y-52459029D01*
X125431188Y-52459029D01*
X125459794Y-52170962D01*
X125469041Y-52047183D01*
X125481127Y-51838833D01*
X125495299Y-51561475D01*
X125510806Y-51230671D01*
X125526895Y-50861984D01*
X125542813Y-50470975D01*
X125546355Y-50379937D01*
X125562539Y-49999821D01*
X125580313Y-49650882D01*
X125598788Y-49346046D01*
X125617074Y-49098237D01*
X125634283Y-48920382D01*
X125649525Y-48825406D01*
X125654049Y-48814355D01*
X125734233Y-48775641D01*
X125871322Y-48755755D01*
X126023510Y-48756312D01*
G37*
D14*
%TO.C,J3*%
X142607000Y-61606000D02*
X142607000Y-89394000D01*
X135393000Y-61606000D02*
X142607000Y-61606000D01*
X142607000Y-89394000D02*
X135393000Y-89394000D01*
X135393000Y-89394000D02*
X135393000Y-61606000D01*
D15*
X133958480Y-65065680D02*
G75*
G03*
X133958480Y-65065680I-100000J0D01*
G01*
%TO.C,G\u002A\u002A\u002A*%
G36*
X139858737Y-99354375D02*
G01*
X129279663Y-99354375D01*
X129279663Y-99277715D01*
X139858737Y-99277715D01*
X139858737Y-99354375D01*
G37*
G36*
X140420911Y-95917453D02*
G01*
X140321998Y-95917453D01*
X140304652Y-95764133D01*
X140075941Y-95764133D01*
X140075941Y-96542241D01*
X140229261Y-96559587D01*
X140229261Y-96658499D01*
X139692641Y-96658499D01*
X139692641Y-96559587D01*
X139845961Y-96542241D01*
X139845961Y-95764133D01*
X139617250Y-95764133D01*
X139599904Y-95917453D01*
X139500991Y-95917453D01*
X139500991Y-95636367D01*
X140420911Y-95636367D01*
X140420911Y-95917453D01*
G37*
G36*
X135987410Y-91005002D02*
G01*
X135987410Y-93445800D01*
X135645089Y-93787260D01*
X135302768Y-94128721D01*
X133834368Y-94128721D01*
X133486291Y-93780471D01*
X133138214Y-93432222D01*
X133138214Y-93138112D01*
X133840931Y-93138112D01*
X134115193Y-93413228D01*
X135022335Y-93413228D01*
X135153514Y-93282495D01*
X135284693Y-93151763D01*
X135284693Y-91299108D01*
X135010431Y-91023992D01*
X134128805Y-91023992D01*
X133840931Y-91311050D01*
X133840931Y-93138112D01*
X133138214Y-93138112D01*
X133138214Y-91017430D01*
X133486464Y-90669353D01*
X133834713Y-90321276D01*
X135304036Y-90321276D01*
X135987410Y-91005002D01*
G37*
G36*
X132537711Y-97652570D02*
G01*
X132461051Y-97661467D01*
X132384391Y-97670365D01*
X132384391Y-98457108D01*
X132457857Y-98468141D01*
X132499058Y-98474984D01*
X132521365Y-98482902D01*
X132531157Y-98496749D01*
X132534811Y-98521381D01*
X132535288Y-98527086D01*
X132539254Y-98574998D01*
X132001092Y-98574998D01*
X132001092Y-98529879D01*
X132002460Y-98503513D01*
X132010176Y-98487274D01*
X132029656Y-98477461D01*
X132066316Y-98470373D01*
X132093722Y-98466568D01*
X132154412Y-98458443D01*
X132154412Y-97670365D01*
X132077752Y-97661467D01*
X132001092Y-97652570D01*
X132001092Y-97552866D01*
X132537711Y-97552866D01*
X132537711Y-97652570D01*
G37*
G36*
X135078000Y-91246023D02*
G01*
X135182480Y-91353063D01*
X135182480Y-93096934D01*
X135078000Y-93203974D01*
X134973521Y-93311015D01*
X134166171Y-93311015D01*
X134061046Y-93205340D01*
X133955921Y-93099666D01*
X133955921Y-93073959D01*
X134032581Y-93073959D01*
X134191551Y-93234355D01*
X134945424Y-93234355D01*
X135025622Y-93154870D01*
X135105820Y-93075384D01*
X135105820Y-91375992D01*
X134934020Y-91202866D01*
X134205707Y-91202866D01*
X134119144Y-91288765D01*
X134032581Y-91374665D01*
X134032581Y-93073959D01*
X133955921Y-93073959D01*
X133955921Y-91349233D01*
X134061595Y-91244108D01*
X134167269Y-91138982D01*
X134973521Y-91138982D01*
X135078000Y-91246023D01*
G37*
G36*
X138568295Y-97833952D02*
G01*
X138469382Y-97833952D01*
X138452036Y-97680632D01*
X138223325Y-97680632D01*
X138223325Y-98457108D01*
X138296791Y-98468141D01*
X138337992Y-98474984D01*
X138360299Y-98482902D01*
X138370090Y-98496749D01*
X138373744Y-98521381D01*
X138374222Y-98527086D01*
X138378187Y-98574998D01*
X137838483Y-98574998D01*
X137842448Y-98527086D01*
X137845688Y-98500099D01*
X137853963Y-98484735D01*
X137873652Y-98476140D01*
X137911132Y-98469458D01*
X137919879Y-98468141D01*
X137993345Y-98457108D01*
X137993345Y-97680632D01*
X137765874Y-97680632D01*
X137748080Y-97833952D01*
X137648375Y-97833952D01*
X137648375Y-97552866D01*
X138568295Y-97552866D01*
X138568295Y-97833952D01*
G37*
G36*
X135768409Y-90531958D02*
G01*
X136153506Y-90921513D01*
X136153506Y-93509207D01*
X135760548Y-93902012D01*
X135367589Y-94294817D01*
X133754429Y-94294817D01*
X133370141Y-93901935D01*
X132985854Y-93509053D01*
X132985840Y-93470563D01*
X133048778Y-93470563D01*
X133796050Y-94218157D01*
X135342353Y-94218157D01*
X136076585Y-93483499D01*
X136085216Y-92220804D01*
X136093846Y-90958108D01*
X135724488Y-90588586D01*
X135355130Y-90219063D01*
X133783598Y-90219063D01*
X133416188Y-90586309D01*
X133048778Y-90953556D01*
X133048778Y-93470563D01*
X132985840Y-93470563D01*
X132985374Y-92212143D01*
X132984894Y-90915234D01*
X133371466Y-90528818D01*
X133758037Y-90142403D01*
X135383311Y-90142403D01*
X135768409Y-90531958D01*
G37*
G36*
X137533385Y-97650943D02*
G01*
X137459920Y-97662593D01*
X137386454Y-97674244D01*
X137379700Y-98457054D01*
X137453349Y-98468114D01*
X137494613Y-98474962D01*
X137516974Y-98482862D01*
X137526803Y-98496655D01*
X137530468Y-98521179D01*
X137530962Y-98527086D01*
X137534928Y-98574998D01*
X136996766Y-98574998D01*
X136996766Y-98529879D01*
X136998134Y-98503513D01*
X137005851Y-98487274D01*
X137025331Y-98477461D01*
X137061990Y-98470373D01*
X137089396Y-98466568D01*
X137150086Y-98458443D01*
X137150086Y-97670756D01*
X137076620Y-97659723D01*
X137035474Y-97652917D01*
X137013549Y-97645288D01*
X137004795Y-97632243D01*
X137003159Y-97609190D01*
X137003154Y-97603972D01*
X137003154Y-97559254D01*
X137268270Y-97555801D01*
X137533385Y-97552347D01*
X137533385Y-97650943D01*
G37*
G36*
X134786403Y-95735279D02*
G01*
X134709744Y-95743952D01*
X134633084Y-95752625D01*
X134633084Y-96140925D01*
X134633489Y-96254763D01*
X134634669Y-96351881D01*
X134636565Y-96430472D01*
X134639121Y-96488734D01*
X134642280Y-96524859D01*
X134645556Y-96536933D01*
X134664722Y-96542812D01*
X134699653Y-96549198D01*
X134722216Y-96552243D01*
X134786403Y-96559845D01*
X134786403Y-96658499D01*
X134248241Y-96658499D01*
X134252207Y-96610587D01*
X134255447Y-96583600D01*
X134263722Y-96568236D01*
X134283411Y-96559641D01*
X134320891Y-96552959D01*
X134329638Y-96551642D01*
X134403104Y-96540609D01*
X134403104Y-95754257D01*
X134329638Y-95743224D01*
X134288437Y-95736381D01*
X134266130Y-95728463D01*
X134256339Y-95714616D01*
X134252684Y-95689984D01*
X134252207Y-95684279D01*
X134248241Y-95636367D01*
X134786403Y-95636367D01*
X134786403Y-95735279D01*
G37*
G36*
X138414975Y-95917453D02*
G01*
X138314327Y-95917453D01*
X138306202Y-95856764D01*
X138300017Y-95812925D01*
X138292170Y-95785675D01*
X138277258Y-95771079D01*
X138249879Y-95765203D01*
X138204630Y-95764111D01*
X138179008Y-95764133D01*
X138070005Y-95764133D01*
X138070005Y-96541671D01*
X138140277Y-96550451D01*
X138210548Y-96559230D01*
X138210548Y-96658499D01*
X137686705Y-96658499D01*
X137686705Y-96559230D01*
X137756977Y-96550451D01*
X137827249Y-96541671D01*
X137827249Y-95764133D01*
X137718890Y-95764133D01*
X137665737Y-95764030D01*
X137632468Y-95766802D01*
X137613472Y-95777075D01*
X137603140Y-95799475D01*
X137595862Y-95838625D01*
X137591038Y-95869541D01*
X137584268Y-95900423D01*
X137571695Y-95914009D01*
X137544718Y-95917377D01*
X137532806Y-95917453D01*
X137482279Y-95917453D01*
X137482279Y-95636367D01*
X138414975Y-95636367D01*
X138414975Y-95917453D01*
G37*
G36*
X141391937Y-95904676D02*
G01*
X141291672Y-95904676D01*
X141281010Y-95837599D01*
X141270347Y-95770522D01*
X140893647Y-95763450D01*
X140893647Y-96071732D01*
X141011831Y-96068058D01*
X141130015Y-96064385D01*
X141141395Y-95997307D01*
X141148880Y-95958451D01*
X141157637Y-95938534D01*
X141172784Y-95931236D01*
X141195695Y-95930230D01*
X141238617Y-95930230D01*
X141238617Y-96313530D01*
X141194339Y-96313530D01*
X141168021Y-96312207D01*
X141153838Y-96303889D01*
X141146404Y-96282052D01*
X141141586Y-96249646D01*
X141133111Y-96185763D01*
X140893647Y-96185763D01*
X140893647Y-96531416D01*
X141270347Y-96524344D01*
X141281010Y-96457267D01*
X141291672Y-96390190D01*
X141391937Y-96390190D01*
X141391937Y-96658499D01*
X140510347Y-96658499D01*
X140510347Y-96559587D01*
X140663667Y-96542241D01*
X140663667Y-95754257D01*
X140590201Y-95743224D01*
X140549000Y-95736381D01*
X140526693Y-95728463D01*
X140516902Y-95714616D01*
X140513248Y-95689984D01*
X140512770Y-95684279D01*
X140508805Y-95636367D01*
X141391937Y-95636367D01*
X141391937Y-95904676D01*
G37*
G36*
X131055619Y-95904676D02*
G01*
X130955244Y-95904676D01*
X130946464Y-95834405D01*
X130937684Y-95764133D01*
X130556518Y-95764133D01*
X130560118Y-95914259D01*
X130563717Y-96064385D01*
X130793517Y-96064385D01*
X130806996Y-96000501D01*
X130816375Y-95962505D01*
X130827304Y-95942886D01*
X130845284Y-95934777D01*
X130861387Y-95932614D01*
X130902299Y-95928611D01*
X130902299Y-96313530D01*
X130858779Y-96313530D01*
X130832893Y-96312142D01*
X130818866Y-96303632D01*
X130811359Y-96281480D01*
X130806474Y-96249646D01*
X130797688Y-96185763D01*
X130557329Y-96185763D01*
X130557329Y-96530733D01*
X130937684Y-96530733D01*
X130946464Y-96460461D01*
X130955244Y-96390190D01*
X131055619Y-96390190D01*
X131055619Y-96658499D01*
X130172487Y-96658499D01*
X130176452Y-96610587D01*
X130179692Y-96583600D01*
X130187967Y-96568236D01*
X130207656Y-96559641D01*
X130245136Y-96552959D01*
X130253883Y-96551642D01*
X130327349Y-96540609D01*
X130327349Y-95754257D01*
X130253883Y-95743224D01*
X130212683Y-95736381D01*
X130190376Y-95728463D01*
X130180584Y-95714616D01*
X130176930Y-95689984D01*
X130176452Y-95684279D01*
X130172487Y-95636367D01*
X131055619Y-95636367D01*
X131055619Y-95904676D01*
G37*
G36*
X134773627Y-97821175D02*
G01*
X134673252Y-97821175D01*
X134664472Y-97750904D01*
X134655693Y-97680632D01*
X134274526Y-97680632D01*
X134278126Y-97830758D01*
X134281725Y-97980884D01*
X134511525Y-97980884D01*
X134525004Y-97917000D01*
X134534383Y-97879004D01*
X134545312Y-97859385D01*
X134563292Y-97851276D01*
X134579395Y-97849113D01*
X134620307Y-97845110D01*
X134620307Y-98230029D01*
X134577235Y-98230029D01*
X134551609Y-98228621D01*
X134537747Y-98220048D01*
X134530383Y-98197782D01*
X134525688Y-98166145D01*
X134517213Y-98102262D01*
X134275337Y-98102262D01*
X134275337Y-98447232D01*
X134655693Y-98447232D01*
X134664472Y-98376960D01*
X134673252Y-98306689D01*
X134773627Y-98306689D01*
X134773627Y-98574998D01*
X133892037Y-98574998D01*
X133892037Y-98529879D01*
X133893406Y-98503513D01*
X133901122Y-98487274D01*
X133920602Y-98477461D01*
X133957262Y-98470373D01*
X133984668Y-98466568D01*
X134045357Y-98458443D01*
X134045357Y-97670756D01*
X133971891Y-97659723D01*
X133930745Y-97652917D01*
X133908821Y-97645288D01*
X133900067Y-97632243D01*
X133898431Y-97609190D01*
X133898426Y-97603972D01*
X133898426Y-97559254D01*
X134336026Y-97555892D01*
X134773627Y-97552530D01*
X134773627Y-97821175D01*
G37*
G36*
X139207128Y-97652135D02*
G01*
X139135888Y-97661035D01*
X139091724Y-97669126D01*
X139071342Y-97679207D01*
X139070433Y-97684867D01*
X139079130Y-97700593D01*
X139098997Y-97733434D01*
X139127348Y-97779035D01*
X139161495Y-97833042D01*
X139172789Y-97850733D01*
X139211000Y-97910153D01*
X139238051Y-97950657D01*
X139256471Y-97974906D01*
X139268793Y-97985560D01*
X139277548Y-97985279D01*
X139285267Y-97976723D01*
X139288290Y-97972111D01*
X139302329Y-97949951D01*
X139326506Y-97911546D01*
X139357412Y-97862321D01*
X139391199Y-97808399D01*
X139475177Y-97674244D01*
X139405036Y-97662593D01*
X139334894Y-97650943D01*
X139334894Y-97552866D01*
X139782078Y-97552866D01*
X139782078Y-97652135D01*
X139712397Y-97660840D01*
X139642717Y-97669546D01*
X139495194Y-97898548D01*
X139347671Y-98127549D01*
X139347671Y-98458443D01*
X139408360Y-98466568D01*
X139456001Y-98473698D01*
X139483667Y-98481643D01*
X139496776Y-98494104D01*
X139500743Y-98514783D01*
X139500991Y-98529879D01*
X139500991Y-98574998D01*
X138962829Y-98574998D01*
X138966794Y-98527086D01*
X138970034Y-98500099D01*
X138978309Y-98484735D01*
X138997998Y-98476140D01*
X139035478Y-98469458D01*
X139044225Y-98468141D01*
X139117691Y-98457108D01*
X139117691Y-98140692D01*
X138809463Y-97669496D01*
X138739985Y-97660815D01*
X138670508Y-97652135D01*
X138670508Y-97552866D01*
X139207128Y-97552866D01*
X139207128Y-97652135D01*
G37*
G36*
X131268803Y-97815656D02*
G01*
X131324459Y-97893142D01*
X131378772Y-97968773D01*
X131428820Y-98038477D01*
X131471680Y-98098184D01*
X131504429Y-98143823D01*
X131518773Y-98163824D01*
X131579462Y-98248491D01*
X131579462Y-97670365D01*
X131502802Y-97661467D01*
X131426142Y-97652570D01*
X131426142Y-97552866D01*
X131886102Y-97552866D01*
X131886102Y-97652570D01*
X131809442Y-97661467D01*
X131732782Y-97670365D01*
X131732782Y-98574998D01*
X131547520Y-98573898D01*
X131318893Y-98249738D01*
X131260893Y-98167687D01*
X131206374Y-98090906D01*
X131157414Y-98022299D01*
X131116094Y-97964767D01*
X131084493Y-97921212D01*
X131064691Y-97894537D01*
X131060625Y-97889347D01*
X131030984Y-97853117D01*
X131030525Y-98155112D01*
X131030065Y-98457108D01*
X131103531Y-98468141D01*
X131144732Y-98474984D01*
X131167039Y-98482902D01*
X131176831Y-98496749D01*
X131180485Y-98521381D01*
X131180962Y-98527086D01*
X131184928Y-98574998D01*
X130723426Y-98574998D01*
X130723426Y-98529879D01*
X130724794Y-98503513D01*
X130732510Y-98487274D01*
X130751990Y-98477461D01*
X130788650Y-98470373D01*
X130816056Y-98466568D01*
X130876746Y-98458443D01*
X130876746Y-97670756D01*
X130803280Y-97659723D01*
X130762134Y-97652917D01*
X130740209Y-97645288D01*
X130731455Y-97632243D01*
X130729819Y-97609190D01*
X130729814Y-97603972D01*
X130729814Y-97559254D01*
X130904668Y-97555705D01*
X131079523Y-97552155D01*
X131268803Y-97815656D01*
G37*
G36*
X133815377Y-97650943D02*
G01*
X133743037Y-97662593D01*
X133670696Y-97674244D01*
X133335456Y-98568610D01*
X133223850Y-98572305D01*
X133169239Y-98573488D01*
X133134858Y-98572078D01*
X133115442Y-98567237D01*
X133105727Y-98558129D01*
X133103392Y-98553140D01*
X133096947Y-98536207D01*
X133082561Y-98498236D01*
X133061318Y-98442096D01*
X133034302Y-98370653D01*
X133002599Y-98286776D01*
X132967293Y-98193332D01*
X132932894Y-98102262D01*
X132771246Y-97674244D01*
X132699197Y-97662593D01*
X132627148Y-97650943D01*
X132627148Y-97552866D01*
X133150991Y-97552866D01*
X133150991Y-97652135D01*
X133080719Y-97660914D01*
X133042305Y-97667018D01*
X133016781Y-97673571D01*
X133010448Y-97677657D01*
X133014763Y-97694747D01*
X133026779Y-97730914D01*
X133045099Y-97782520D01*
X133068328Y-97845927D01*
X133095068Y-97917498D01*
X133123925Y-97993597D01*
X133153503Y-98070584D01*
X133182405Y-98144823D01*
X133209235Y-98212676D01*
X133232597Y-98270506D01*
X133251095Y-98314675D01*
X133263334Y-98341546D01*
X133267751Y-98348094D01*
X133273936Y-98334589D01*
X133287411Y-98300876D01*
X133306760Y-98250769D01*
X133330567Y-98188085D01*
X133357418Y-98116640D01*
X133385896Y-98040249D01*
X133414588Y-97962729D01*
X133442076Y-97887895D01*
X133466947Y-97819563D01*
X133487784Y-97761549D01*
X133503172Y-97717670D01*
X133511696Y-97691740D01*
X133512864Y-97687262D01*
X133502737Y-97678235D01*
X133474218Y-97667960D01*
X133444854Y-97661021D01*
X133404916Y-97652435D01*
X133383981Y-97643399D01*
X133375914Y-97628874D01*
X133374583Y-97603820D01*
X133374583Y-97559254D01*
X133815377Y-97552262D01*
X133815377Y-97650943D01*
G37*
G36*
X128832480Y-95649143D02*
G01*
X128781952Y-95649143D01*
X128749110Y-95647432D01*
X128733197Y-95637581D01*
X128725615Y-95612514D01*
X128723721Y-95601231D01*
X128716850Y-95556317D01*
X128710274Y-95526287D01*
X128699316Y-95508175D01*
X128679301Y-95499016D01*
X128645554Y-95495844D01*
X128593397Y-95495693D01*
X128557538Y-95495823D01*
X128410850Y-95495823D01*
X128410850Y-96012417D01*
X128410705Y-96142012D01*
X128410558Y-96248392D01*
X128410837Y-96333893D01*
X128411974Y-96400850D01*
X128414398Y-96451599D01*
X128418539Y-96488474D01*
X128424828Y-96513812D01*
X128433694Y-96529947D01*
X128445568Y-96539214D01*
X128460879Y-96543949D01*
X128480059Y-96546487D01*
X128503536Y-96549163D01*
X128509869Y-96550087D01*
X128543808Y-96556696D01*
X128559480Y-96567454D01*
X128563940Y-96589952D01*
X128564170Y-96608516D01*
X128564170Y-96658499D01*
X128014774Y-96658499D01*
X128014774Y-96608516D01*
X128016219Y-96577050D01*
X128025258Y-96561218D01*
X128048946Y-96553429D01*
X128069074Y-96550087D01*
X128093649Y-96547030D01*
X128113822Y-96544671D01*
X128130025Y-96540678D01*
X128142686Y-96532714D01*
X128152236Y-96518443D01*
X128159105Y-96495532D01*
X128163723Y-96461644D01*
X128166521Y-96414444D01*
X128167928Y-96351597D01*
X128168374Y-96270768D01*
X128168290Y-96169621D01*
X128168105Y-96045822D01*
X128168094Y-96012417D01*
X128168094Y-95495823D01*
X127875388Y-95495823D01*
X127867685Y-95543736D01*
X127859162Y-95595098D01*
X127851656Y-95626302D01*
X127841816Y-95642365D01*
X127826293Y-95648307D01*
X127801737Y-95649147D01*
X127797327Y-95649143D01*
X127746464Y-95649143D01*
X127746464Y-95355280D01*
X128832480Y-95355280D01*
X128832480Y-95649143D01*
G37*
G36*
X129443337Y-95684279D02*
G01*
X129440097Y-95711266D01*
X129431821Y-95726630D01*
X129412133Y-95735225D01*
X129374653Y-95741907D01*
X129365905Y-95743224D01*
X129292440Y-95754257D01*
X129292440Y-96057996D01*
X129688516Y-96057996D01*
X129688516Y-95754257D01*
X129615050Y-95743224D01*
X129573850Y-95736381D01*
X129551543Y-95728463D01*
X129541751Y-95714616D01*
X129538097Y-95689984D01*
X129537619Y-95684279D01*
X129533654Y-95636367D01*
X130073358Y-95636367D01*
X130069393Y-95684279D01*
X130066153Y-95711266D01*
X130057878Y-95726630D01*
X130038189Y-95735225D01*
X130000709Y-95741907D01*
X129991962Y-95743224D01*
X129918496Y-95754257D01*
X129918496Y-96540609D01*
X129991962Y-96551642D01*
X130033163Y-96558485D01*
X130055470Y-96566403D01*
X130065261Y-96580250D01*
X130068915Y-96604882D01*
X130069393Y-96610587D01*
X130073358Y-96658499D01*
X129535196Y-96658499D01*
X129535196Y-96559845D01*
X129599384Y-96552243D01*
X129638881Y-96546406D01*
X129667965Y-96540008D01*
X129676044Y-96536933D01*
X129680847Y-96521706D01*
X129684728Y-96485348D01*
X129687381Y-96432274D01*
X129688500Y-96366900D01*
X129688516Y-96357494D01*
X129688516Y-96185763D01*
X129292440Y-96185763D01*
X129292440Y-96540609D01*
X129365905Y-96551642D01*
X129407106Y-96558485D01*
X129429413Y-96566403D01*
X129439205Y-96580250D01*
X129442859Y-96604882D01*
X129443337Y-96610587D01*
X129447302Y-96658499D01*
X128909140Y-96658499D01*
X128909140Y-96559587D01*
X129062460Y-96542241D01*
X129062460Y-95754257D01*
X128988994Y-95743224D01*
X128947793Y-95736381D01*
X128925486Y-95728463D01*
X128915695Y-95714616D01*
X128912040Y-95689984D01*
X128911563Y-95684279D01*
X128907597Y-95636367D01*
X129447302Y-95636367D01*
X129443337Y-95684279D01*
G37*
G36*
X133506315Y-95684279D02*
G01*
X133503075Y-95711266D01*
X133494799Y-95726630D01*
X133475111Y-95735225D01*
X133437630Y-95741907D01*
X133428883Y-95743224D01*
X133355418Y-95754257D01*
X133355418Y-96057996D01*
X133752305Y-96057996D01*
X133748705Y-95907871D01*
X133745106Y-95757745D01*
X133674834Y-95744351D01*
X133634798Y-95735885D01*
X133613421Y-95726588D01*
X133604203Y-95711147D01*
X133600646Y-95684251D01*
X133600597Y-95683662D01*
X133596632Y-95636367D01*
X134136336Y-95636367D01*
X134132371Y-95684279D01*
X134129131Y-95711266D01*
X134120856Y-95726630D01*
X134101167Y-95735225D01*
X134063687Y-95741907D01*
X134054940Y-95743224D01*
X133981474Y-95754257D01*
X133981474Y-96540609D01*
X134054940Y-96551642D01*
X134096140Y-96558485D01*
X134118447Y-96566403D01*
X134128239Y-96580250D01*
X134131893Y-96604882D01*
X134132371Y-96610587D01*
X134136336Y-96658499D01*
X133598174Y-96658499D01*
X133598174Y-96559845D01*
X133662362Y-96552243D01*
X133701859Y-96546406D01*
X133730943Y-96540008D01*
X133739022Y-96536933D01*
X133743825Y-96521706D01*
X133747706Y-96485348D01*
X133750359Y-96432274D01*
X133751477Y-96366900D01*
X133751494Y-96357494D01*
X133751494Y-96185763D01*
X133355418Y-96185763D01*
X133355418Y-96540609D01*
X133428883Y-96551642D01*
X133470084Y-96558485D01*
X133492391Y-96566403D01*
X133502183Y-96580250D01*
X133505837Y-96604882D01*
X133506315Y-96610587D01*
X133510280Y-96658499D01*
X132972118Y-96658499D01*
X132972118Y-96559587D01*
X133125438Y-96542241D01*
X133125438Y-95754257D01*
X133051972Y-95743224D01*
X133010771Y-95736381D01*
X132988464Y-95728463D01*
X132978673Y-95714616D01*
X132975018Y-95689984D01*
X132974541Y-95684279D01*
X132970575Y-95636367D01*
X133510280Y-95636367D01*
X133506315Y-95684279D01*
G37*
G36*
X132371408Y-95339633D02*
G01*
X132480890Y-95359702D01*
X132582650Y-95396727D01*
X132649124Y-95434479D01*
X132720593Y-95498044D01*
X132778581Y-95582068D01*
X132822552Y-95684981D01*
X132851971Y-95805210D01*
X132866301Y-95941184D01*
X132866090Y-96070773D01*
X132851344Y-96214064D01*
X132821039Y-96337233D01*
X132774812Y-96440701D01*
X132712301Y-96524889D01*
X132633143Y-96590218D01*
X132536975Y-96637110D01*
X132423435Y-96665986D01*
X132346061Y-96674893D01*
X132283494Y-96676646D01*
X132216574Y-96674416D01*
X132167188Y-96669602D01*
X132053148Y-96642405D01*
X131955841Y-96596317D01*
X131875162Y-96531184D01*
X131811004Y-96446850D01*
X131763259Y-96343161D01*
X131731820Y-96219960D01*
X131716581Y-96077093D01*
X131714993Y-96013278D01*
X131715516Y-96000501D01*
X131969666Y-96000501D01*
X131974172Y-96133532D01*
X131988990Y-96244899D01*
X132014723Y-96336575D01*
X132051974Y-96410535D01*
X132101346Y-96468752D01*
X132116820Y-96482017D01*
X132179763Y-96517114D01*
X132254047Y-96534087D01*
X132332481Y-96532404D01*
X132407873Y-96511535D01*
X132422721Y-96504626D01*
X132485911Y-96459205D01*
X132536156Y-96392820D01*
X132573789Y-96304912D01*
X132596241Y-96212117D01*
X132608617Y-96111351D01*
X132612236Y-96003232D01*
X132607558Y-95894713D01*
X132595044Y-95792746D01*
X132575154Y-95704285D01*
X132559684Y-95660137D01*
X132529929Y-95607685D01*
X132488299Y-95557629D01*
X132441846Y-95517266D01*
X132399562Y-95494505D01*
X132334546Y-95481593D01*
X132263275Y-95480943D01*
X132196716Y-95492031D01*
X132159760Y-95505998D01*
X132098325Y-95547723D01*
X132049724Y-95604299D01*
X132013257Y-95677544D01*
X131988225Y-95769277D01*
X131973929Y-95881319D01*
X131969666Y-96000501D01*
X131715516Y-96000501D01*
X131720978Y-95866990D01*
X131740459Y-95741220D01*
X131773864Y-95634524D01*
X131821626Y-95545461D01*
X131873121Y-95483251D01*
X131950517Y-95422986D01*
X132043757Y-95378196D01*
X132148128Y-95349176D01*
X132258916Y-95336223D01*
X132371408Y-95339633D01*
G37*
G36*
X139139954Y-95830733D02*
G01*
X139169546Y-95906777D01*
X139205239Y-95998699D01*
X139243945Y-96098535D01*
X139282576Y-96198319D01*
X139315534Y-96283586D01*
X139414981Y-96541118D01*
X139486733Y-96551896D01*
X139527339Y-96558702D01*
X139549131Y-96566787D01*
X139558576Y-96581164D01*
X139562140Y-96606846D01*
X139562451Y-96610587D01*
X139566417Y-96658499D01*
X139026712Y-96658499D01*
X139030677Y-96610887D01*
X139034064Y-96583869D01*
X139042757Y-96568307D01*
X139063164Y-96559097D01*
X139101693Y-96551131D01*
X139106836Y-96550198D01*
X139179029Y-96537121D01*
X139143414Y-96447685D01*
X139107799Y-96358248D01*
X138719276Y-96358248D01*
X138688504Y-96433884D01*
X138672426Y-96475778D01*
X138661290Y-96509338D01*
X138657731Y-96525540D01*
X138669557Y-96537009D01*
X138701301Y-96547595D01*
X138724809Y-96552170D01*
X138763751Y-96559210D01*
X138784130Y-96568053D01*
X138792664Y-96584227D01*
X138795852Y-96610639D01*
X138799817Y-96658499D01*
X138351092Y-96658499D01*
X138351092Y-96560422D01*
X138424167Y-96548772D01*
X138497242Y-96537121D01*
X138617019Y-96227468D01*
X138772721Y-96227468D01*
X138784637Y-96231246D01*
X138816947Y-96234299D01*
X138864494Y-96236282D01*
X138913265Y-96236870D01*
X138969740Y-96236073D01*
X139015381Y-96233911D01*
X139045030Y-96230731D01*
X139053808Y-96227468D01*
X139049591Y-96210074D01*
X139038192Y-96175047D01*
X139021485Y-96127376D01*
X139001345Y-96072048D01*
X138979646Y-96014052D01*
X138958265Y-95958375D01*
X138939075Y-95910006D01*
X138923952Y-95873933D01*
X138914770Y-95855143D01*
X138913265Y-95853570D01*
X138906726Y-95864787D01*
X138893560Y-95895114D01*
X138875641Y-95939561D01*
X138854844Y-95993142D01*
X138833044Y-96050868D01*
X138812116Y-96107751D01*
X138793935Y-96158803D01*
X138780375Y-96199037D01*
X138773313Y-96223463D01*
X138772721Y-96227468D01*
X138617019Y-96227468D01*
X138670217Y-96089938D01*
X138843191Y-95642755D01*
X138953506Y-95639084D01*
X139063821Y-95635412D01*
X139139954Y-95830733D01*
G37*
G36*
X135259140Y-97559653D02*
G01*
X135373336Y-97560129D01*
X135465211Y-97561629D01*
X135537992Y-97564723D01*
X135594908Y-97569984D01*
X135639186Y-97577982D01*
X135674055Y-97589289D01*
X135702743Y-97604477D01*
X135728477Y-97624115D01*
X135752722Y-97647009D01*
X135801930Y-97712498D01*
X135827293Y-97784898D01*
X135828520Y-97861209D01*
X135805320Y-97938429D01*
X135784729Y-97976030D01*
X135754228Y-98014574D01*
X135718412Y-98046976D01*
X135703815Y-98056393D01*
X135658416Y-98080797D01*
X135707076Y-98156084D01*
X135734896Y-98203764D01*
X135766125Y-98264416D01*
X135795208Y-98327082D01*
X135802896Y-98345146D01*
X135850055Y-98458921D01*
X135909150Y-98466807D01*
X135956293Y-98473889D01*
X135983504Y-98481947D01*
X135996247Y-98494787D01*
X135999985Y-98516218D01*
X136000186Y-98530250D01*
X136000186Y-98575740D01*
X135832375Y-98572175D01*
X135664563Y-98568610D01*
X135590349Y-98390681D01*
X135551396Y-98301383D01*
X135517259Y-98233670D01*
X135485558Y-98184608D01*
X135453912Y-98151265D01*
X135419940Y-98130707D01*
X135381260Y-98120000D01*
X135369333Y-98118375D01*
X135310247Y-98111715D01*
X135310247Y-98457108D01*
X135383712Y-98468141D01*
X135424913Y-98474984D01*
X135447220Y-98482902D01*
X135457012Y-98496749D01*
X135460666Y-98521381D01*
X135461144Y-98527086D01*
X135465109Y-98574998D01*
X134926947Y-98574998D01*
X134926947Y-98529879D01*
X134928315Y-98503513D01*
X134936032Y-98487274D01*
X134955512Y-98477461D01*
X134992171Y-98470373D01*
X135019578Y-98466568D01*
X135080267Y-98458443D01*
X135080267Y-98002754D01*
X135310247Y-98002754D01*
X135411484Y-97998157D01*
X135465538Y-97994575D01*
X135501328Y-97988498D01*
X135526136Y-97977990D01*
X135545854Y-97962433D01*
X135580921Y-97914348D01*
X135597893Y-97857580D01*
X135596802Y-97798995D01*
X135577683Y-97745459D01*
X135544584Y-97706871D01*
X135521753Y-97692847D01*
X135492847Y-97684762D01*
X135450625Y-97681198D01*
X135410737Y-97680632D01*
X135310247Y-97680632D01*
X135310247Y-98002754D01*
X135080267Y-98002754D01*
X135080267Y-97670756D01*
X135006801Y-97659723D01*
X134965655Y-97652917D01*
X134943730Y-97645288D01*
X134934976Y-97632243D01*
X134933341Y-97609190D01*
X134933335Y-97603972D01*
X134933335Y-97559254D01*
X135259140Y-97559653D01*
G37*
G36*
X135449220Y-95632286D02*
G01*
X135523797Y-95640307D01*
X135584267Y-95655970D01*
X135636198Y-95681117D01*
X135685160Y-95717596D01*
X135721194Y-95751406D01*
X135773682Y-95813224D01*
X135811489Y-95881103D01*
X135836165Y-95959726D01*
X135849262Y-96053776D01*
X135852452Y-96147433D01*
X135844214Y-96278367D01*
X135819327Y-96389971D01*
X135777530Y-96482518D01*
X135718564Y-96556283D01*
X135642168Y-96611542D01*
X135548083Y-96648569D01*
X135436047Y-96667637D01*
X135356813Y-96670558D01*
X135253715Y-96664412D01*
X135167523Y-96646807D01*
X135159023Y-96644205D01*
X135075304Y-96604870D01*
X135001656Y-96545131D01*
X134942902Y-96469592D01*
X134913051Y-96409355D01*
X134900942Y-96375549D01*
X134892555Y-96342963D01*
X134887213Y-96305750D01*
X134884238Y-96258060D01*
X134882955Y-96194045D01*
X134882718Y-96147433D01*
X135124985Y-96147433D01*
X135125869Y-96232544D01*
X135129221Y-96297450D01*
X135136093Y-96347461D01*
X135147537Y-96387887D01*
X135164604Y-96424037D01*
X135186641Y-96458756D01*
X135222941Y-96493985D01*
X135274293Y-96522906D01*
X135330222Y-96540372D01*
X135358569Y-96543229D01*
X135399165Y-96538242D01*
X135442973Y-96525679D01*
X135447832Y-96523735D01*
X135504226Y-96491978D01*
X135547142Y-96448016D01*
X135577755Y-96389177D01*
X135597245Y-96312790D01*
X135606789Y-96216186D01*
X135608195Y-96160210D01*
X135604285Y-96045913D01*
X135590342Y-95953429D01*
X135565515Y-95880724D01*
X135528950Y-95825763D01*
X135479794Y-95786510D01*
X135444574Y-95769908D01*
X135369915Y-95753482D01*
X135299743Y-95761248D01*
X135237241Y-95791876D01*
X135185591Y-95844038D01*
X135159260Y-95889041D01*
X135145733Y-95919454D01*
X135136319Y-95946859D01*
X135130280Y-95976846D01*
X135126872Y-96015002D01*
X135125355Y-96066918D01*
X135124987Y-96138182D01*
X135124985Y-96147433D01*
X134882718Y-96147433D01*
X134882958Y-96072053D01*
X134884503Y-96016437D01*
X134888019Y-95974804D01*
X134894170Y-95941374D01*
X134903623Y-95910364D01*
X134912743Y-95886549D01*
X134961793Y-95796791D01*
X135029557Y-95724411D01*
X135115637Y-95669831D01*
X135121823Y-95666925D01*
X135158167Y-95651066D01*
X135189799Y-95640543D01*
X135223590Y-95634271D01*
X135266410Y-95631163D01*
X135325128Y-95630133D01*
X135354965Y-95630059D01*
X135449220Y-95632286D01*
G37*
G36*
X137052016Y-95342034D02*
G01*
X137182825Y-95363755D01*
X137300211Y-95395320D01*
X137341735Y-95408368D01*
X137341735Y-95661920D01*
X137284819Y-95661920D01*
X137249490Y-95660728D01*
X137231734Y-95653218D01*
X137223573Y-95633485D01*
X137220075Y-95614007D01*
X137211137Y-95559725D01*
X137203558Y-95525442D01*
X137193854Y-95506067D01*
X137178538Y-95496510D01*
X137154126Y-95491680D01*
X137134515Y-95489051D01*
X137046040Y-95480418D01*
X136965989Y-95479392D01*
X136899373Y-95485728D01*
X136851200Y-95499180D01*
X136843120Y-95503335D01*
X136788838Y-95546021D01*
X136757551Y-95598220D01*
X136747621Y-95661920D01*
X136754306Y-95715699D01*
X136775911Y-95761278D01*
X136814762Y-95800656D01*
X136873182Y-95835835D01*
X136953498Y-95868813D01*
X137009542Y-95887263D01*
X137119548Y-95924982D01*
X137206644Y-95963895D01*
X137273462Y-96005911D01*
X137322636Y-96052937D01*
X137356798Y-96106885D01*
X137373623Y-96151237D01*
X137392867Y-96252619D01*
X137390444Y-96349140D01*
X137367720Y-96437813D01*
X137326063Y-96515650D01*
X137266840Y-96579665D01*
X137191417Y-96626872D01*
X137148515Y-96643099D01*
X137046516Y-96665649D01*
X136933118Y-96676090D01*
X136819863Y-96673568D01*
X136785951Y-96669938D01*
X136724817Y-96659666D01*
X136656015Y-96644713D01*
X136603883Y-96630974D01*
X136511253Y-96603670D01*
X136511253Y-96326306D01*
X136623266Y-96326306D01*
X136632170Y-96409455D01*
X136637966Y-96452037D01*
X136647386Y-96482462D01*
X136664328Y-96502780D01*
X136692693Y-96515043D01*
X136736379Y-96521302D01*
X136799285Y-96523608D01*
X136849834Y-96523953D01*
X136916515Y-96523687D01*
X136963719Y-96521882D01*
X136997514Y-96517622D01*
X137023970Y-96509994D01*
X137049154Y-96498085D01*
X137059378Y-96492403D01*
X137115629Y-96447193D01*
X137150518Y-96388513D01*
X137162853Y-96318388D01*
X137162862Y-96316289D01*
X137152982Y-96249487D01*
X137124603Y-96196229D01*
X137094345Y-96168922D01*
X137070030Y-96156686D01*
X137027563Y-96138906D01*
X136973063Y-96118028D01*
X136916513Y-96097827D01*
X136821472Y-96063619D01*
X136747227Y-96033232D01*
X136689719Y-96004556D01*
X136644887Y-95975479D01*
X136608675Y-95943890D01*
X136597195Y-95931751D01*
X136552681Y-95864687D01*
X136524599Y-95783983D01*
X136513910Y-95696337D01*
X136521576Y-95608447D01*
X136541392Y-95542885D01*
X136584385Y-95471824D01*
X136646746Y-95415307D01*
X136726583Y-95373701D01*
X136822002Y-95347375D01*
X136931111Y-95336697D01*
X137052016Y-95342034D01*
G37*
G36*
X130665931Y-97278167D02*
G01*
X130669804Y-97324531D01*
X130670573Y-97354927D01*
X130661489Y-97369758D01*
X130635730Y-97377375D01*
X130625085Y-97379268D01*
X130582703Y-97386809D01*
X130544761Y-97393924D01*
X130542091Y-97394448D01*
X130507688Y-97401254D01*
X130503706Y-97857165D01*
X130502510Y-97986182D01*
X130501043Y-98092413D01*
X130498778Y-98178626D01*
X130495188Y-98247588D01*
X130489749Y-98302065D01*
X130481933Y-98344826D01*
X130471216Y-98378637D01*
X130457071Y-98406264D01*
X130438971Y-98430475D01*
X130416392Y-98454037D01*
X130388807Y-98479717D01*
X130384638Y-98483527D01*
X130328623Y-98528028D01*
X130272922Y-98556346D01*
X130242279Y-98566318D01*
X130173099Y-98580755D01*
X130091224Y-98590357D01*
X130006691Y-98594534D01*
X129929537Y-98592694D01*
X129884596Y-98587386D01*
X129771601Y-98558009D01*
X129678654Y-98514259D01*
X129606299Y-98456539D01*
X129555080Y-98385254D01*
X129531385Y-98325007D01*
X129525268Y-98299925D01*
X129520384Y-98270978D01*
X129516603Y-98235144D01*
X129513793Y-98189402D01*
X129511824Y-98130732D01*
X129510564Y-98056113D01*
X129509882Y-97962523D01*
X129509648Y-97846942D01*
X129509643Y-97823775D01*
X129509643Y-97400033D01*
X129480895Y-97394137D01*
X129448623Y-97388085D01*
X129408307Y-97381197D01*
X129404235Y-97380538D01*
X129373354Y-97373768D01*
X129359767Y-97361195D01*
X129356399Y-97334218D01*
X129356323Y-97322307D01*
X129356323Y-97271779D01*
X129905719Y-97271779D01*
X129905719Y-97322307D01*
X129904008Y-97355149D01*
X129894157Y-97371062D01*
X129869090Y-97378644D01*
X129857807Y-97380538D01*
X129817650Y-97387334D01*
X129783695Y-97393622D01*
X129781147Y-97394137D01*
X129752399Y-97400033D01*
X129752471Y-97811836D01*
X129752930Y-97932139D01*
X129754221Y-98038113D01*
X129756275Y-98127489D01*
X129759026Y-98197995D01*
X129762406Y-98247359D01*
X129766098Y-98272457D01*
X129790420Y-98324932D01*
X129830242Y-98375759D01*
X129877936Y-98416607D01*
X129916145Y-98436336D01*
X129952802Y-98444348D01*
X130004023Y-98450006D01*
X130058844Y-98452107D01*
X130059879Y-98452105D01*
X130148468Y-98444918D01*
X130218334Y-98423021D01*
X130272608Y-98384948D01*
X130311559Y-98334209D01*
X130346514Y-98274747D01*
X130350469Y-97837581D01*
X130354425Y-97400415D01*
X130324916Y-97394328D01*
X130292046Y-97388131D01*
X130251410Y-97381172D01*
X130247495Y-97380538D01*
X130216677Y-97373799D01*
X130203072Y-97361299D01*
X130199665Y-97334470D01*
X130199583Y-97322019D01*
X130199583Y-97271203D01*
X130665931Y-97278167D01*
G37*
G36*
X136617039Y-97551732D02*
G01*
X136645407Y-97556631D01*
X136713979Y-97569850D01*
X136761477Y-97581242D01*
X136791761Y-97594575D01*
X136808689Y-97613618D01*
X136816123Y-97642139D01*
X136817921Y-97683906D01*
X136817892Y-97725034D01*
X136817892Y-97846729D01*
X136767647Y-97846729D01*
X136739487Y-97845539D01*
X136721757Y-97838494D01*
X136710700Y-97820378D01*
X136702561Y-97785974D01*
X136696318Y-97747670D01*
X136691143Y-97719995D01*
X136682631Y-97701871D01*
X136665732Y-97690559D01*
X136635397Y-97683316D01*
X136586578Y-97677404D01*
X136562359Y-97674958D01*
X136481802Y-97674291D01*
X136416534Y-97689012D01*
X136368583Y-97717986D01*
X136339978Y-97760077D01*
X136332379Y-97803706D01*
X136338715Y-97843134D01*
X136359540Y-97876524D01*
X136397581Y-97905974D01*
X136455564Y-97933586D01*
X136536215Y-97961460D01*
X136537785Y-97961944D01*
X136597887Y-97981309D01*
X136653693Y-98000798D01*
X136697648Y-98017695D01*
X136716889Y-98026307D01*
X136782319Y-98073058D01*
X136829834Y-98135791D01*
X136857878Y-98210858D01*
X136864896Y-98294611D01*
X136856878Y-98354601D01*
X136827867Y-98429188D01*
X136777864Y-98492041D01*
X136709895Y-98540156D01*
X136643899Y-98566218D01*
X136567085Y-98580670D01*
X136475349Y-98586895D01*
X136377930Y-98584986D01*
X136284066Y-98575036D01*
X136220098Y-98561972D01*
X136173481Y-98549208D01*
X136136333Y-98538023D01*
X136115815Y-98530589D01*
X136114690Y-98529980D01*
X136109499Y-98514746D01*
X136105393Y-98479810D01*
X136102901Y-98431017D01*
X136102399Y-98394636D01*
X136102399Y-98266889D01*
X136211001Y-98274747D01*
X136222221Y-98353539D01*
X136228374Y-98391720D01*
X136236973Y-98417740D01*
X136252463Y-98433940D01*
X136279291Y-98442661D01*
X136321905Y-98446244D01*
X136384751Y-98447030D01*
X136399867Y-98447057D01*
X136489059Y-98442283D01*
X136556060Y-98427054D01*
X136602377Y-98400478D01*
X136629515Y-98361665D01*
X136638980Y-98309725D01*
X136639019Y-98305569D01*
X136634389Y-98264842D01*
X136618271Y-98232268D01*
X136587321Y-98205036D01*
X136538196Y-98180334D01*
X136467552Y-98155351D01*
X136456112Y-98151781D01*
X136355077Y-98118027D01*
X136276293Y-98085132D01*
X136216642Y-98050884D01*
X136173007Y-98013075D01*
X136142271Y-97969494D01*
X136121314Y-97917932D01*
X136120003Y-97913522D01*
X136108739Y-97837958D01*
X136116080Y-97761468D01*
X136140328Y-97691248D01*
X136179781Y-97634494D01*
X136187749Y-97626819D01*
X136246151Y-97588992D01*
X136323196Y-97561816D01*
X136413969Y-97546044D01*
X136513555Y-97542432D01*
X136617039Y-97551732D01*
G37*
D14*
%TO.C,J1*%
X98857000Y-47066000D02*
X98857000Y-74854000D01*
X91643000Y-47066000D02*
X98857000Y-47066000D01*
X98857000Y-74854000D02*
X91643000Y-74854000D01*
X91643000Y-74854000D02*
X91643000Y-47066000D01*
D15*
X90208480Y-50525680D02*
G75*
G03*
X90208480Y-50525680I-100000J0D01*
G01*
%TD*%
M02*
