%TF.GenerationSoftware,KiCad,Pcbnew,7.0.7*%
%TF.CreationDate,2023-09-12T23:11:04-05:00*%
%TF.ProjectId,Heater_South,48656174-6572-45f5-936f-7574682e6b69,rev?*%
%TF.SameCoordinates,Original*%
%TF.FileFunction,Copper,L2,Bot*%
%TF.FilePolarity,Positive*%
%FSLAX46Y46*%
G04 Gerber Fmt 4.6, Leading zero omitted, Abs format (unit mm)*
G04 Created by KiCad (PCBNEW 7.0.7) date 2023-09-12 23:11:04*
%MOMM*%
%LPD*%
G01*
G04 APERTURE LIST*
%TA.AperFunction,ComponentPad*%
%ADD10R,0.940800X0.940800*%
%TD*%
%TA.AperFunction,ComponentPad*%
%ADD11C,0.940800*%
%TD*%
%TA.AperFunction,ComponentPad*%
%ADD12C,0.890000*%
%TD*%
%TA.AperFunction,ViaPad*%
%ADD13C,0.800000*%
%TD*%
%TA.AperFunction,Conductor*%
%ADD14C,0.508000*%
%TD*%
G04 APERTURE END LIST*
D10*
%TO.P,J2,1,Pin_1*%
%TO.N,/HB2_1*%
X93969840Y-80010000D03*
D11*
%TO.P,J2,2,Pin_2*%
%TO.N,/HB2_2*%
X96530160Y-80010000D03*
%TO.P,J2,3,Pin_3*%
%TO.N,unconnected-(J2-Pin_3-Pad3)*%
X93980000Y-81280000D03*
%TO.P,J2,4,Pin_4*%
%TO.N,unconnected-(J2-Pin_4-Pad4)*%
X96520000Y-81280000D03*
%TO.P,J2,5,Pin_5*%
%TO.N,unconnected-(J2-Pin_5-Pad5)*%
X93980000Y-82550000D03*
%TO.P,J2,6,Pin_6*%
%TO.N,unconnected-(J2-Pin_6-Pad6)*%
X96520000Y-82550000D03*
%TO.P,J2,7,Pin_7*%
%TO.N,/HB2_7*%
X93980000Y-83820000D03*
%TO.P,J2,8,Pin_8*%
%TO.N,/HB2_8*%
X96520000Y-83820000D03*
%TO.P,J2,9,Pin_9*%
%TO.N,unconnected-(J2-Pin_9-Pad9)*%
X93980000Y-85090000D03*
%TO.P,J2,10,Pin_10*%
%TO.N,unconnected-(J2-Pin_10-Pad10)*%
X96520000Y-85090000D03*
%TO.P,J2,11,Pin_11*%
%TO.N,unconnected-(J2-Pin_11-Pad11)*%
X93980000Y-86360000D03*
%TO.P,J2,12,Pin_12*%
%TO.N,unconnected-(J2-Pin_12-Pad12)*%
X96520000Y-86360000D03*
%TO.P,J2,13,Pin_13*%
%TO.N,/HB2_13*%
X93980000Y-87630000D03*
%TO.P,J2,14,Pin_14*%
%TO.N,/HB2_14*%
X96520000Y-87630000D03*
%TO.P,J2,15,Pin_15*%
%TO.N,unconnected-(J2-Pin_15-Pad15)*%
X93980000Y-88900000D03*
%TO.P,J2,16,Pin_16*%
%TO.N,unconnected-(J2-Pin_16-Pad16)*%
X96520000Y-88900000D03*
%TO.P,J2,17,Pin_17*%
%TO.N,unconnected-(J2-Pin_17-Pad17)*%
X93980000Y-90170000D03*
%TO.P,J2,18,Pin_18*%
%TO.N,unconnected-(J2-Pin_18-Pad18)*%
X96520000Y-90170000D03*
%TO.P,J2,19,Pin_19*%
%TO.N,/HB2_19*%
X93980000Y-91440000D03*
%TO.P,J2,20,Pin_20*%
%TO.N,/HB2_20*%
X96520000Y-91440000D03*
%TO.P,J2,21,Pin_21*%
%TO.N,unconnected-(J2-Pin_21-Pad21)*%
X93980000Y-92710000D03*
%TO.P,J2,22,Pin_22*%
%TO.N,unconnected-(J2-Pin_22-Pad22)*%
X96520000Y-92710000D03*
%TO.P,J2,23,Pin_23*%
%TO.N,unconnected-(J2-Pin_23-Pad23)*%
X93980000Y-93980000D03*
%TO.P,J2,24,Pin_24*%
%TO.N,unconnected-(J2-Pin_24-Pad24)*%
X96520000Y-93980000D03*
%TO.P,J2,25,Pin_25*%
%TO.N,/HB2_25*%
X93980000Y-95250000D03*
%TO.P,J2,26,Pin_26*%
%TO.N,/HB2_26*%
X96520000Y-95250000D03*
%TO.P,J2,27,Pin_27*%
%TO.N,unconnected-(J2-Pin_27-Pad27)*%
X93980000Y-96520000D03*
%TO.P,J2,28,Pin_28*%
%TO.N,unconnected-(J2-Pin_28-Pad28)*%
X96520000Y-96520000D03*
%TO.P,J2,29,Pin_29*%
%TO.N,unconnected-(J2-Pin_29-Pad29)*%
X93980000Y-97790000D03*
%TO.P,J2,30,Pin_30*%
%TO.N,unconnected-(J2-Pin_30-Pad30)*%
X96520000Y-97790000D03*
%TO.P,J2,31,Pin_31*%
%TO.N,unconnected-(J2-Pin_31-Pad31)*%
X93980000Y-99060000D03*
%TO.P,J2,32,Pin_32*%
%TO.N,unconnected-(J2-Pin_32-Pad32)*%
X96520000Y-99060000D03*
%TO.P,J2,33,Pin_33*%
%TO.N,unconnected-(J2-Pin_33-Pad33)*%
X93980000Y-100330000D03*
%TO.P,J2,34,Pin_34*%
%TO.N,unconnected-(J2-Pin_34-Pad34)*%
X96520000Y-100330000D03*
%TD*%
D10*
%TO.P,J3,1,Pin_1*%
%TO.N,/HB1_1*%
X137719840Y-65340000D03*
D11*
%TO.P,J3,2,Pin_2*%
%TO.N,/HB1_2*%
X140280160Y-65340000D03*
%TO.P,J3,3,Pin_3*%
%TO.N,/HB2_1*%
X137730000Y-66610000D03*
%TO.P,J3,4,Pin_4*%
%TO.N,/HB2_2*%
X140270000Y-66610000D03*
%TO.P,J3,5,Pin_5*%
%TO.N,/HB2_7*%
X137730000Y-67880000D03*
%TO.P,J3,6,Pin_6*%
%TO.N,/HB2_8*%
X140270000Y-67880000D03*
%TO.P,J3,7,Pin_7*%
%TO.N,/HB1_7*%
X137730000Y-69150000D03*
%TO.P,J3,8,Pin_8*%
%TO.N,/HB1_8*%
X140270000Y-69150000D03*
%TO.P,J3,9,Pin_9*%
%TO.N,/HB2_13*%
X137730000Y-70420000D03*
%TO.P,J3,10,Pin_10*%
%TO.N,/HB2_14*%
X140270000Y-70420000D03*
%TO.P,J3,11,Pin_11*%
%TO.N,/HB2_19*%
X137730000Y-71690000D03*
%TO.P,J3,12,Pin_12*%
%TO.N,/HB2_20*%
X140270000Y-71690000D03*
%TO.P,J3,13,Pin_13*%
%TO.N,/HB1_13*%
X137730000Y-72960000D03*
%TO.P,J3,14,Pin_14*%
%TO.N,/HB1_14*%
X140270000Y-72960000D03*
%TO.P,J3,15,Pin_15*%
%TO.N,unconnected-(J3-Pin_15-Pad15)*%
X137730000Y-74230000D03*
%TO.P,J3,16,Pin_16*%
%TO.N,unconnected-(J3-Pin_16-Pad16)*%
X140270000Y-74230000D03*
%TO.P,J3,17,Pin_17*%
%TO.N,unconnected-(J3-Pin_17-Pad17)*%
X137730000Y-75500000D03*
%TO.P,J3,18,Pin_18*%
%TO.N,unconnected-(J3-Pin_18-Pad18)*%
X140270000Y-75500000D03*
%TO.P,J3,19,Pin_19*%
%TO.N,unconnected-(J3-Pin_19-Pad19)*%
X137730000Y-76770000D03*
%TO.P,J3,20,Pin_20*%
%TO.N,unconnected-(J3-Pin_20-Pad20)*%
X140270000Y-76770000D03*
%TO.P,J3,21,Pin_21*%
%TO.N,/HB2_25*%
X137730000Y-78040000D03*
%TO.P,J3,22,Pin_22*%
%TO.N,/HB2_26*%
X140270000Y-78040000D03*
%TO.P,J3,23,Pin_23*%
%TO.N,unconnected-(J3-Pin_23-Pad23)*%
X137730000Y-79310000D03*
%TO.P,J3,24,Pin_24*%
%TO.N,unconnected-(J3-Pin_24-Pad24)*%
X140270000Y-79310000D03*
%TO.P,J3,25,Pin_25*%
%TO.N,/HB1_25*%
X137730000Y-80580000D03*
%TO.P,J3,26,Pin_26*%
%TO.N,/HB1_26*%
X140270000Y-80580000D03*
%TO.P,J3,27,Pin_27*%
%TO.N,unconnected-(J3-Pin_27-Pad27)*%
X137730000Y-81850000D03*
%TO.P,J3,28,Pin_28*%
%TO.N,unconnected-(J3-Pin_28-Pad28)*%
X140270000Y-81850000D03*
%TO.P,J3,29,Pin_29*%
%TO.N,unconnected-(J3-Pin_29-Pad29)*%
X137730000Y-83120000D03*
%TO.P,J3,30,Pin_30*%
%TO.N,unconnected-(J3-Pin_30-Pad30)*%
X140270000Y-83120000D03*
%TO.P,J3,31,Pin_31*%
%TO.N,/HB1_31*%
X137730000Y-84390000D03*
%TO.P,J3,32,Pin_32*%
%TO.N,/HB1_32*%
X140270000Y-84390000D03*
%TO.P,J3,33,Pin_33*%
%TO.N,unconnected-(J3-Pin_33-Pad33)*%
X137730000Y-85660000D03*
%TO.P,J3,34,Pin_34*%
%TO.N,unconnected-(J3-Pin_34-Pad34)*%
X140270000Y-85660000D03*
%TD*%
D10*
%TO.P,J1,1,Pin_1*%
%TO.N,/HB1_1*%
X93969840Y-50800000D03*
D11*
%TO.P,J1,2,Pin_2*%
%TO.N,/HB1_2*%
X96530160Y-50800000D03*
%TO.P,J1,3,Pin_3*%
%TO.N,unconnected-(J1-Pin_3-Pad3)*%
X93980000Y-52070000D03*
%TO.P,J1,4,Pin_4*%
%TO.N,unconnected-(J1-Pin_4-Pad4)*%
X96520000Y-52070000D03*
%TO.P,J1,5,Pin_5*%
%TO.N,unconnected-(J1-Pin_5-Pad5)*%
X93980000Y-53340000D03*
%TO.P,J1,6,Pin_6*%
%TO.N,unconnected-(J1-Pin_6-Pad6)*%
X96520000Y-53340000D03*
%TO.P,J1,7,Pin_7*%
%TO.N,/HB1_7*%
X93980000Y-54610000D03*
%TO.P,J1,8,Pin_8*%
%TO.N,/HB1_8*%
X96520000Y-54610000D03*
%TO.P,J1,9,Pin_9*%
%TO.N,unconnected-(J1-Pin_9-Pad9)*%
X93980000Y-55880000D03*
%TO.P,J1,10,Pin_10*%
%TO.N,unconnected-(J1-Pin_10-Pad10)*%
X96520000Y-55880000D03*
%TO.P,J1,11,Pin_11*%
%TO.N,unconnected-(J1-Pin_11-Pad11)*%
X93980000Y-57150000D03*
%TO.P,J1,12,Pin_12*%
%TO.N,unconnected-(J1-Pin_12-Pad12)*%
X96520000Y-57150000D03*
%TO.P,J1,13,Pin_13*%
%TO.N,/HB1_13*%
X93980000Y-58420000D03*
%TO.P,J1,14,Pin_14*%
%TO.N,/HB1_14*%
X96520000Y-58420000D03*
%TO.P,J1,15,Pin_15*%
%TO.N,unconnected-(J1-Pin_15-Pad15)*%
X93980000Y-59690000D03*
%TO.P,J1,16,Pin_16*%
%TO.N,unconnected-(J1-Pin_16-Pad16)*%
X96520000Y-59690000D03*
%TO.P,J1,17,Pin_17*%
%TO.N,unconnected-(J1-Pin_17-Pad17)*%
X93980000Y-60960000D03*
%TO.P,J1,18,Pin_18*%
%TO.N,unconnected-(J1-Pin_18-Pad18)*%
X96520000Y-60960000D03*
%TO.P,J1,19,Pin_19*%
%TO.N,unconnected-(J1-Pin_19-Pad19)*%
X93980000Y-62230000D03*
%TO.P,J1,20,Pin_20*%
%TO.N,unconnected-(J1-Pin_20-Pad20)*%
X96520000Y-62230000D03*
%TO.P,J1,21,Pin_21*%
%TO.N,unconnected-(J1-Pin_21-Pad21)*%
X93980000Y-63500000D03*
%TO.P,J1,22,Pin_22*%
%TO.N,unconnected-(J1-Pin_22-Pad22)*%
X96520000Y-63500000D03*
%TO.P,J1,23,Pin_23*%
%TO.N,unconnected-(J1-Pin_23-Pad23)*%
X93980000Y-64770000D03*
%TO.P,J1,24,Pin_24*%
%TO.N,unconnected-(J1-Pin_24-Pad24)*%
X96520000Y-64770000D03*
%TO.P,J1,25,Pin_25*%
%TO.N,/HB1_25*%
X93980000Y-66040000D03*
%TO.P,J1,26,Pin_26*%
%TO.N,/HB1_26*%
X96520000Y-66040000D03*
%TO.P,J1,27,Pin_27*%
%TO.N,unconnected-(J1-Pin_27-Pad27)*%
X93980000Y-67310000D03*
%TO.P,J1,28,Pin_28*%
%TO.N,unconnected-(J1-Pin_28-Pad28)*%
X96520000Y-67310000D03*
%TO.P,J1,29,Pin_29*%
%TO.N,unconnected-(J1-Pin_29-Pad29)*%
X93980000Y-68580000D03*
%TO.P,J1,30,Pin_30*%
%TO.N,unconnected-(J1-Pin_30-Pad30)*%
X96520000Y-68580000D03*
%TO.P,J1,31,Pin_31*%
%TO.N,/HB1_31*%
X93980000Y-69850000D03*
D12*
%TO.P,J1,32,Pin_32*%
%TO.N,/HB1_32*%
X96520000Y-69850000D03*
D11*
%TO.P,J1,33,Pin_33*%
%TO.N,unconnected-(J1-Pin_33-Pad33)*%
X93980000Y-71120000D03*
D12*
%TO.P,J1,34,Pin_34*%
%TO.N,unconnected-(J1-Pin_34-Pad34)*%
X96520000Y-71120000D03*
%TD*%
D13*
%TO.N,/HB1_7*%
X124100000Y-63900000D03*
%TO.N,/HB1_2*%
X136600000Y-56900000D03*
%TO.N,/HB1_8*%
X139200000Y-58600000D03*
%TO.N,/HB1_13*%
X125200000Y-68300000D03*
%TO.N,/HB1_14*%
X141460515Y-58900000D03*
%TO.N,/HB1_25*%
X119500000Y-74000000D03*
%TO.N,/HB1_26*%
X117600000Y-69800000D03*
%TO.N,/HB1_31*%
X102700000Y-75200000D03*
X119000000Y-75200000D03*
%TO.N,/HB1_32*%
X138700000Y-89400000D03*
X113900000Y-72800000D03*
%TO.N,/HB2_7*%
X129900000Y-67880000D03*
%TO.N,/HB2_20*%
X114300000Y-91440000D03*
%TO.N,/HB2_25*%
X125400000Y-89800000D03*
%TO.N,/HB2_26*%
X113729739Y-93218000D03*
%TD*%
D14*
%TO.N,/HB1_31*%
X94050000Y-69850000D02*
X93980000Y-69850000D01*
X95400000Y-71200000D02*
X94050000Y-69850000D01*
X95400000Y-72900000D02*
X95400000Y-71200000D01*
X97700000Y-75200000D02*
X95400000Y-72900000D01*
X102700000Y-75200000D02*
X97700000Y-75200000D01*
%TO.N,/HB1_7*%
X129350000Y-69150000D02*
X137730000Y-69150000D01*
X124100000Y-63900000D02*
X129350000Y-69150000D01*
%TO.N,/HB2_7*%
X129900000Y-67880000D02*
X137730000Y-67880000D01*
%TO.N,/HB2_14*%
X96970000Y-87630000D02*
X96520000Y-87630000D01*
X122100000Y-62500000D02*
X96970000Y-87630000D01*
X139000000Y-64200000D02*
X137300000Y-62500000D01*
X140270000Y-70420000D02*
X139820000Y-70420000D01*
X139820000Y-70420000D02*
X139000000Y-69600000D01*
X139000000Y-69600000D02*
X139000000Y-64200000D01*
X137300000Y-62500000D02*
X122100000Y-62500000D01*
%TO.N,/HB1_31*%
X119000000Y-75200000D02*
X119300000Y-75200000D01*
X128490000Y-84390000D02*
X137730000Y-84390000D01*
X119300000Y-75200000D02*
X128490000Y-84390000D01*
%TO.N,/HB1_25*%
X128180000Y-80580000D02*
X137730000Y-80580000D01*
X121600000Y-74000000D02*
X128180000Y-80580000D01*
X119500000Y-74000000D02*
X121600000Y-74000000D01*
%TO.N,/HB2_25*%
X95250000Y-101250000D02*
X95250000Y-95854754D01*
X95250000Y-95854754D02*
X94645246Y-95250000D01*
X96600000Y-102600000D02*
X95250000Y-101250000D01*
X94645246Y-95250000D02*
X93980000Y-95250000D01*
X121428000Y-102600000D02*
X96600000Y-102600000D01*
X125400000Y-98628000D02*
X121428000Y-102600000D01*
X125400000Y-89800000D02*
X125400000Y-98628000D01*
%TO.N,/HB1_26*%
X140800000Y-87800000D02*
X141800000Y-86800000D01*
X141800000Y-86800000D02*
X141800000Y-81444754D01*
X141800000Y-81444754D02*
X140935246Y-80580000D01*
X117600000Y-77600000D02*
X127800000Y-87800000D01*
X127800000Y-87800000D02*
X140800000Y-87800000D01*
X140935246Y-80580000D02*
X140270000Y-80580000D01*
X117600000Y-69800000D02*
X117600000Y-77600000D01*
%TO.N,/HB1_32*%
X115600000Y-74500000D02*
X113900000Y-72800000D01*
X115600000Y-77500000D02*
X115600000Y-74500000D01*
X127500000Y-89400000D02*
X115600000Y-77500000D01*
X138700000Y-89400000D02*
X127500000Y-89400000D01*
%TO.N,/HB2_8*%
X141021264Y-67880000D02*
X140270000Y-67880000D01*
X142818000Y-66083264D02*
X141021264Y-67880000D01*
X142818000Y-62018000D02*
X142818000Y-66083264D01*
X141438500Y-60638500D02*
X142818000Y-62018000D01*
X121161500Y-60638500D02*
X141438500Y-60638500D01*
X97000000Y-77800000D02*
X104000000Y-77800000D01*
X104000000Y-77800000D02*
X121161500Y-60638500D01*
X96220000Y-83820000D02*
X95200000Y-82800000D01*
X95200000Y-79600000D02*
X97000000Y-77800000D01*
X95200000Y-82800000D02*
X95200000Y-79600000D01*
X96520000Y-83820000D02*
X96220000Y-83820000D01*
%TO.N,/HB1_14*%
X98455246Y-59690000D02*
X97185246Y-58420000D01*
X97185246Y-58420000D02*
X96520000Y-58420000D01*
X139710000Y-59690000D02*
X98455246Y-59690000D01*
X140500000Y-58900000D02*
X139710000Y-59690000D01*
X141460515Y-58900000D02*
X140500000Y-58900000D01*
%TO.N,/HB1_8*%
X96557300Y-54610000D02*
X96520000Y-54610000D01*
X97444400Y-55497100D02*
X96557300Y-54610000D01*
X97444400Y-55534400D02*
X97444400Y-55497100D01*
X139100000Y-58500000D02*
X100410000Y-58500000D01*
X139200000Y-58600000D02*
X139100000Y-58500000D01*
X100410000Y-58500000D02*
X97444400Y-55534400D01*
%TO.N,/HB1_2*%
X96557300Y-50800000D02*
X96530160Y-50800000D01*
X136600000Y-56900000D02*
X102657300Y-56900000D01*
X102657300Y-56900000D02*
X96557300Y-50800000D01*
%TO.N,/HB2_2*%
X103190000Y-80010000D02*
X96530160Y-80010000D01*
X141800000Y-63000000D02*
X140347724Y-61547724D01*
X140347724Y-61547724D02*
X121652276Y-61547724D01*
X121652276Y-61547724D02*
X103190000Y-80010000D01*
X141800000Y-66100000D02*
X141290000Y-66610000D01*
X141800000Y-63000000D02*
X141800000Y-66100000D01*
X141290000Y-66610000D02*
X140270000Y-66610000D01*
%TO.N,/HB2_26*%
X111697739Y-95250000D02*
X96520000Y-95250000D01*
X113729739Y-93218000D02*
X111697739Y-95250000D01*
%TO.N,/HB1_13*%
X129860000Y-72960000D02*
X137730000Y-72960000D01*
X125200000Y-68300000D02*
X129860000Y-72960000D01*
%TO.N,/HB2_20*%
X114300000Y-91440000D02*
X96520000Y-91440000D01*
%TD*%
M02*
