%TF.GenerationSoftware,KiCad,Pcbnew,7.0.7*%
%TF.CreationDate,2023-09-12T23:11:04-05:00*%
%TF.ProjectId,Heater_South,48656174-6572-45f5-936f-7574682e6b69,rev?*%
%TF.SameCoordinates,Original*%
%TF.FileFunction,Soldermask,Top*%
%TF.FilePolarity,Negative*%
%FSLAX46Y46*%
G04 Gerber Fmt 4.6, Leading zero omitted, Abs format (unit mm)*
G04 Created by KiCad (PCBNEW 7.0.7) date 2023-09-12 23:11:04*
%MOMM*%
%LPD*%
G01*
G04 APERTURE LIST*
%ADD10C,3.200000*%
%ADD11R,0.940800X0.940800*%
%ADD12C,0.940800*%
%ADD13C,0.890000*%
G04 APERTURE END LIST*
D10*
%TO.C,REF\u002A\u002A*%
X118110000Y-53340000D03*
%TD*%
D11*
%TO.C,J2*%
X93969840Y-80010000D03*
D12*
X96530160Y-80010000D03*
X93980000Y-81280000D03*
X96520000Y-81280000D03*
X93980000Y-82550000D03*
X96520000Y-82550000D03*
X93980000Y-83820000D03*
X96520000Y-83820000D03*
X93980000Y-85090000D03*
X96520000Y-85090000D03*
X93980000Y-86360000D03*
X96520000Y-86360000D03*
X93980000Y-87630000D03*
X96520000Y-87630000D03*
X93980000Y-88900000D03*
X96520000Y-88900000D03*
X93980000Y-90170000D03*
X96520000Y-90170000D03*
X93980000Y-91440000D03*
X96520000Y-91440000D03*
X93980000Y-92710000D03*
X96520000Y-92710000D03*
X93980000Y-93980000D03*
X96520000Y-93980000D03*
X93980000Y-95250000D03*
X96520000Y-95250000D03*
X93980000Y-96520000D03*
X96520000Y-96520000D03*
X93980000Y-97790000D03*
X96520000Y-97790000D03*
X93980000Y-99060000D03*
X96520000Y-99060000D03*
X93980000Y-100330000D03*
X96520000Y-100330000D03*
%TD*%
D10*
%TO.C,REF\u002A\u002A*%
X118110000Y-97790000D03*
%TD*%
D11*
%TO.C,J3*%
X137719840Y-65340000D03*
D12*
X140280160Y-65340000D03*
X137730000Y-66610000D03*
X140270000Y-66610000D03*
X137730000Y-67880000D03*
X140270000Y-67880000D03*
X137730000Y-69150000D03*
X140270000Y-69150000D03*
X137730000Y-70420000D03*
X140270000Y-70420000D03*
X137730000Y-71690000D03*
X140270000Y-71690000D03*
X137730000Y-72960000D03*
X140270000Y-72960000D03*
X137730000Y-74230000D03*
X140270000Y-74230000D03*
X137730000Y-75500000D03*
X140270000Y-75500000D03*
X137730000Y-76770000D03*
X140270000Y-76770000D03*
X137730000Y-78040000D03*
X140270000Y-78040000D03*
X137730000Y-79310000D03*
X140270000Y-79310000D03*
X137730000Y-80580000D03*
X140270000Y-80580000D03*
X137730000Y-81850000D03*
X140270000Y-81850000D03*
X137730000Y-83120000D03*
X140270000Y-83120000D03*
X137730000Y-84390000D03*
X140270000Y-84390000D03*
X137730000Y-85660000D03*
X140270000Y-85660000D03*
%TD*%
D11*
%TO.C,J1*%
X93969840Y-50800000D03*
D12*
X96530160Y-50800000D03*
X93980000Y-52070000D03*
X96520000Y-52070000D03*
X93980000Y-53340000D03*
X96520000Y-53340000D03*
X93980000Y-54610000D03*
X96520000Y-54610000D03*
X93980000Y-55880000D03*
X96520000Y-55880000D03*
X93980000Y-57150000D03*
X96520000Y-57150000D03*
X93980000Y-58420000D03*
X96520000Y-58420000D03*
X93980000Y-59690000D03*
X96520000Y-59690000D03*
X93980000Y-60960000D03*
X96520000Y-60960000D03*
X93980000Y-62230000D03*
X96520000Y-62230000D03*
X93980000Y-63500000D03*
X96520000Y-63500000D03*
X93980000Y-64770000D03*
X96520000Y-64770000D03*
X93980000Y-66040000D03*
X96520000Y-66040000D03*
X93980000Y-67310000D03*
X96520000Y-67310000D03*
X93980000Y-68580000D03*
X96520000Y-68580000D03*
X93980000Y-69850000D03*
D13*
X96520000Y-69850000D03*
D12*
X93980000Y-71120000D03*
D13*
X96520000Y-71120000D03*
%TD*%
M02*
