%TF.GenerationSoftware,KiCad,Pcbnew,7.0.7*%
%TF.CreationDate,2023-09-14T15:51:44-04:00*%
%TF.ProjectId,Temps_South_DCT_HSK,54656d70-735f-4536-9f75-74685f444354,B*%
%TF.SameCoordinates,Original*%
%TF.FileFunction,Legend,Bot*%
%TF.FilePolarity,Positive*%
%FSLAX46Y46*%
G04 Gerber Fmt 4.6, Leading zero omitted, Abs format (unit mm)*
G04 Created by KiCad (PCBNEW 7.0.7) date 2023-09-14 15:51:44*
%MOMM*%
%LPD*%
G01*
G04 APERTURE LIST*
%ADD10C,0.254000*%
%ADD11C,0.300000*%
%ADD12C,0.500000*%
G04 APERTURE END LIST*
D10*
X148920200Y-54838600D02*
G75*
G03*
X148920200Y-54838600I-25400J0D01*
G01*
X103454200Y-89916000D02*
G75*
G03*
X103454200Y-89916000I-25400J0D01*
G01*
X103454200Y-54813200D02*
G75*
G03*
X103454200Y-54813200I-25400J0D01*
G01*
X148920200Y-89916000D02*
G75*
G03*
X148920200Y-89916000I-25400J0D01*
G01*
D11*
X146586179Y-107505004D02*
X145843322Y-107505004D01*
X146214750Y-108805004D02*
X146214750Y-107505004D01*
X144914751Y-108743100D02*
X145038560Y-108805004D01*
X145038560Y-108805004D02*
X145286179Y-108805004D01*
X145286179Y-108805004D02*
X145409989Y-108743100D01*
X145409989Y-108743100D02*
X145471893Y-108619290D01*
X145471893Y-108619290D02*
X145471893Y-108124052D01*
X145471893Y-108124052D02*
X145409989Y-108000242D01*
X145409989Y-108000242D02*
X145286179Y-107938338D01*
X145286179Y-107938338D02*
X145038560Y-107938338D01*
X145038560Y-107938338D02*
X144914751Y-108000242D01*
X144914751Y-108000242D02*
X144852846Y-108124052D01*
X144852846Y-108124052D02*
X144852846Y-108247861D01*
X144852846Y-108247861D02*
X145471893Y-108371671D01*
X144295703Y-108805004D02*
X144295703Y-107938338D01*
X144295703Y-108062147D02*
X144233798Y-108000242D01*
X144233798Y-108000242D02*
X144109988Y-107938338D01*
X144109988Y-107938338D02*
X143924274Y-107938338D01*
X143924274Y-107938338D02*
X143800465Y-108000242D01*
X143800465Y-108000242D02*
X143738560Y-108124052D01*
X143738560Y-108124052D02*
X143738560Y-108805004D01*
X143738560Y-108124052D02*
X143676655Y-108000242D01*
X143676655Y-108000242D02*
X143552846Y-107938338D01*
X143552846Y-107938338D02*
X143367131Y-107938338D01*
X143367131Y-107938338D02*
X143243322Y-108000242D01*
X143243322Y-108000242D02*
X143181417Y-108124052D01*
X143181417Y-108124052D02*
X143181417Y-108805004D01*
X142562370Y-107938338D02*
X142562370Y-109238338D01*
X142562370Y-108000242D02*
X142438560Y-107938338D01*
X142438560Y-107938338D02*
X142190941Y-107938338D01*
X142190941Y-107938338D02*
X142067132Y-108000242D01*
X142067132Y-108000242D02*
X142005227Y-108062147D01*
X142005227Y-108062147D02*
X141943322Y-108185957D01*
X141943322Y-108185957D02*
X141943322Y-108557385D01*
X141943322Y-108557385D02*
X142005227Y-108681195D01*
X142005227Y-108681195D02*
X142067132Y-108743100D01*
X142067132Y-108743100D02*
X142190941Y-108805004D01*
X142190941Y-108805004D02*
X142438560Y-108805004D01*
X142438560Y-108805004D02*
X142562370Y-108743100D01*
X141448084Y-108743100D02*
X141324275Y-108805004D01*
X141324275Y-108805004D02*
X141076656Y-108805004D01*
X141076656Y-108805004D02*
X140952846Y-108743100D01*
X140952846Y-108743100D02*
X140890942Y-108619290D01*
X140890942Y-108619290D02*
X140890942Y-108557385D01*
X140890942Y-108557385D02*
X140952846Y-108433576D01*
X140952846Y-108433576D02*
X141076656Y-108371671D01*
X141076656Y-108371671D02*
X141262370Y-108371671D01*
X141262370Y-108371671D02*
X141386180Y-108309766D01*
X141386180Y-108309766D02*
X141448084Y-108185957D01*
X141448084Y-108185957D02*
X141448084Y-108124052D01*
X141448084Y-108124052D02*
X141386180Y-108000242D01*
X141386180Y-108000242D02*
X141262370Y-107938338D01*
X141262370Y-107938338D02*
X141076656Y-107938338D01*
X141076656Y-107938338D02*
X140952846Y-108000242D01*
X139405227Y-108743100D02*
X139219513Y-108805004D01*
X139219513Y-108805004D02*
X138909989Y-108805004D01*
X138909989Y-108805004D02*
X138786180Y-108743100D01*
X138786180Y-108743100D02*
X138724275Y-108681195D01*
X138724275Y-108681195D02*
X138662370Y-108557385D01*
X138662370Y-108557385D02*
X138662370Y-108433576D01*
X138662370Y-108433576D02*
X138724275Y-108309766D01*
X138724275Y-108309766D02*
X138786180Y-108247861D01*
X138786180Y-108247861D02*
X138909989Y-108185957D01*
X138909989Y-108185957D02*
X139157608Y-108124052D01*
X139157608Y-108124052D02*
X139281418Y-108062147D01*
X139281418Y-108062147D02*
X139343323Y-108000242D01*
X139343323Y-108000242D02*
X139405227Y-107876433D01*
X139405227Y-107876433D02*
X139405227Y-107752623D01*
X139405227Y-107752623D02*
X139343323Y-107628814D01*
X139343323Y-107628814D02*
X139281418Y-107566909D01*
X139281418Y-107566909D02*
X139157608Y-107505004D01*
X139157608Y-107505004D02*
X138848085Y-107505004D01*
X138848085Y-107505004D02*
X138662370Y-107566909D01*
X137919513Y-108805004D02*
X138043323Y-108743100D01*
X138043323Y-108743100D02*
X138105228Y-108681195D01*
X138105228Y-108681195D02*
X138167132Y-108557385D01*
X138167132Y-108557385D02*
X138167132Y-108185957D01*
X138167132Y-108185957D02*
X138105228Y-108062147D01*
X138105228Y-108062147D02*
X138043323Y-108000242D01*
X138043323Y-108000242D02*
X137919513Y-107938338D01*
X137919513Y-107938338D02*
X137733799Y-107938338D01*
X137733799Y-107938338D02*
X137609990Y-108000242D01*
X137609990Y-108000242D02*
X137548085Y-108062147D01*
X137548085Y-108062147D02*
X137486180Y-108185957D01*
X137486180Y-108185957D02*
X137486180Y-108557385D01*
X137486180Y-108557385D02*
X137548085Y-108681195D01*
X137548085Y-108681195D02*
X137609990Y-108743100D01*
X137609990Y-108743100D02*
X137733799Y-108805004D01*
X137733799Y-108805004D02*
X137919513Y-108805004D01*
X136371895Y-107938338D02*
X136371895Y-108805004D01*
X136929038Y-107938338D02*
X136929038Y-108619290D01*
X136929038Y-108619290D02*
X136867133Y-108743100D01*
X136867133Y-108743100D02*
X136743323Y-108805004D01*
X136743323Y-108805004D02*
X136557609Y-108805004D01*
X136557609Y-108805004D02*
X136433800Y-108743100D01*
X136433800Y-108743100D02*
X136371895Y-108681195D01*
X135938562Y-107938338D02*
X135443324Y-107938338D01*
X135752848Y-107505004D02*
X135752848Y-108619290D01*
X135752848Y-108619290D02*
X135690943Y-108743100D01*
X135690943Y-108743100D02*
X135567133Y-108805004D01*
X135567133Y-108805004D02*
X135443324Y-108805004D01*
X135009991Y-108805004D02*
X135009991Y-107505004D01*
X134452848Y-108805004D02*
X134452848Y-108124052D01*
X134452848Y-108124052D02*
X134514753Y-108000242D01*
X134514753Y-108000242D02*
X134638562Y-107938338D01*
X134638562Y-107938338D02*
X134824276Y-107938338D01*
X134824276Y-107938338D02*
X134948086Y-108000242D01*
X134948086Y-108000242D02*
X135009991Y-108062147D01*
X132100468Y-108805004D02*
X132533801Y-108185957D01*
X132843325Y-108805004D02*
X132843325Y-107505004D01*
X132843325Y-107505004D02*
X132348087Y-107505004D01*
X132348087Y-107505004D02*
X132224277Y-107566909D01*
X132224277Y-107566909D02*
X132162372Y-107628814D01*
X132162372Y-107628814D02*
X132100468Y-107752623D01*
X132100468Y-107752623D02*
X132100468Y-107938338D01*
X132100468Y-107938338D02*
X132162372Y-108062147D01*
X132162372Y-108062147D02*
X132224277Y-108124052D01*
X132224277Y-108124052D02*
X132348087Y-108185957D01*
X132348087Y-108185957D02*
X132843325Y-108185957D01*
X131048087Y-108743100D02*
X131171896Y-108805004D01*
X131171896Y-108805004D02*
X131419515Y-108805004D01*
X131419515Y-108805004D02*
X131543325Y-108743100D01*
X131543325Y-108743100D02*
X131605229Y-108619290D01*
X131605229Y-108619290D02*
X131605229Y-108124052D01*
X131605229Y-108124052D02*
X131543325Y-108000242D01*
X131543325Y-108000242D02*
X131419515Y-107938338D01*
X131419515Y-107938338D02*
X131171896Y-107938338D01*
X131171896Y-107938338D02*
X131048087Y-108000242D01*
X131048087Y-108000242D02*
X130986182Y-108124052D01*
X130986182Y-108124052D02*
X130986182Y-108247861D01*
X130986182Y-108247861D02*
X131605229Y-108371671D01*
X130552848Y-107938338D02*
X130243324Y-108805004D01*
X130243324Y-108805004D02*
X129933801Y-107938338D01*
X128014753Y-108124052D02*
X127829039Y-108185957D01*
X127829039Y-108185957D02*
X127767134Y-108247861D01*
X127767134Y-108247861D02*
X127705230Y-108371671D01*
X127705230Y-108371671D02*
X127705230Y-108557385D01*
X127705230Y-108557385D02*
X127767134Y-108681195D01*
X127767134Y-108681195D02*
X127829039Y-108743100D01*
X127829039Y-108743100D02*
X127952849Y-108805004D01*
X127952849Y-108805004D02*
X128448087Y-108805004D01*
X128448087Y-108805004D02*
X128448087Y-107505004D01*
X128448087Y-107505004D02*
X128014753Y-107505004D01*
X128014753Y-107505004D02*
X127890944Y-107566909D01*
X127890944Y-107566909D02*
X127829039Y-107628814D01*
X127829039Y-107628814D02*
X127767134Y-107752623D01*
X127767134Y-107752623D02*
X127767134Y-107876433D01*
X127767134Y-107876433D02*
X127829039Y-108000242D01*
X127829039Y-108000242D02*
X127890944Y-108062147D01*
X127890944Y-108062147D02*
X128014753Y-108124052D01*
X128014753Y-108124052D02*
X128448087Y-108124052D01*
X146276656Y-110898004D02*
X146276656Y-109598004D01*
X146276656Y-109598004D02*
X145967132Y-109598004D01*
X145967132Y-109598004D02*
X145781418Y-109659909D01*
X145781418Y-109659909D02*
X145657608Y-109783719D01*
X145657608Y-109783719D02*
X145595703Y-109907528D01*
X145595703Y-109907528D02*
X145533799Y-110155147D01*
X145533799Y-110155147D02*
X145533799Y-110340861D01*
X145533799Y-110340861D02*
X145595703Y-110588480D01*
X145595703Y-110588480D02*
X145657608Y-110712290D01*
X145657608Y-110712290D02*
X145781418Y-110836100D01*
X145781418Y-110836100D02*
X145967132Y-110898004D01*
X145967132Y-110898004D02*
X146276656Y-110898004D01*
X144481418Y-110836100D02*
X144605227Y-110898004D01*
X144605227Y-110898004D02*
X144852846Y-110898004D01*
X144852846Y-110898004D02*
X144976656Y-110836100D01*
X144976656Y-110836100D02*
X145038560Y-110712290D01*
X145038560Y-110712290D02*
X145038560Y-110217052D01*
X145038560Y-110217052D02*
X144976656Y-110093242D01*
X144976656Y-110093242D02*
X144852846Y-110031338D01*
X144852846Y-110031338D02*
X144605227Y-110031338D01*
X144605227Y-110031338D02*
X144481418Y-110093242D01*
X144481418Y-110093242D02*
X144419513Y-110217052D01*
X144419513Y-110217052D02*
X144419513Y-110340861D01*
X144419513Y-110340861D02*
X145038560Y-110464671D01*
X143862370Y-110031338D02*
X143862370Y-110898004D01*
X143862370Y-110155147D02*
X143800465Y-110093242D01*
X143800465Y-110093242D02*
X143676655Y-110031338D01*
X143676655Y-110031338D02*
X143490941Y-110031338D01*
X143490941Y-110031338D02*
X143367132Y-110093242D01*
X143367132Y-110093242D02*
X143305227Y-110217052D01*
X143305227Y-110217052D02*
X143305227Y-110898004D01*
X142686180Y-110031338D02*
X142686180Y-110898004D01*
X142686180Y-110155147D02*
X142624275Y-110093242D01*
X142624275Y-110093242D02*
X142500465Y-110031338D01*
X142500465Y-110031338D02*
X142314751Y-110031338D01*
X142314751Y-110031338D02*
X142190942Y-110093242D01*
X142190942Y-110093242D02*
X142129037Y-110217052D01*
X142129037Y-110217052D02*
X142129037Y-110898004D01*
X141509990Y-110898004D02*
X141509990Y-110031338D01*
X141509990Y-109598004D02*
X141571894Y-109659909D01*
X141571894Y-109659909D02*
X141509990Y-109721814D01*
X141509990Y-109721814D02*
X141448085Y-109659909D01*
X141448085Y-109659909D02*
X141509990Y-109598004D01*
X141509990Y-109598004D02*
X141509990Y-109721814D01*
X140952846Y-110836100D02*
X140829037Y-110898004D01*
X140829037Y-110898004D02*
X140581418Y-110898004D01*
X140581418Y-110898004D02*
X140457608Y-110836100D01*
X140457608Y-110836100D02*
X140395704Y-110712290D01*
X140395704Y-110712290D02*
X140395704Y-110650385D01*
X140395704Y-110650385D02*
X140457608Y-110526576D01*
X140457608Y-110526576D02*
X140581418Y-110464671D01*
X140581418Y-110464671D02*
X140767132Y-110464671D01*
X140767132Y-110464671D02*
X140890942Y-110402766D01*
X140890942Y-110402766D02*
X140952846Y-110278957D01*
X140952846Y-110278957D02*
X140952846Y-110217052D01*
X140952846Y-110217052D02*
X140890942Y-110093242D01*
X140890942Y-110093242D02*
X140767132Y-110031338D01*
X140767132Y-110031338D02*
X140581418Y-110031338D01*
X140581418Y-110031338D02*
X140457608Y-110093242D01*
X138848085Y-110898004D02*
X138848085Y-109598004D01*
X138848085Y-110217052D02*
X138105228Y-110217052D01*
X138105228Y-110898004D02*
X138105228Y-109598004D01*
X137486180Y-110774195D02*
X137424275Y-110836100D01*
X137424275Y-110836100D02*
X137486180Y-110898004D01*
X137486180Y-110898004D02*
X137548084Y-110836100D01*
X137548084Y-110836100D02*
X137486180Y-110774195D01*
X137486180Y-110774195D02*
X137486180Y-110898004D01*
X135133799Y-110774195D02*
X135195703Y-110836100D01*
X135195703Y-110836100D02*
X135381418Y-110898004D01*
X135381418Y-110898004D02*
X135505227Y-110898004D01*
X135505227Y-110898004D02*
X135690941Y-110836100D01*
X135690941Y-110836100D02*
X135814751Y-110712290D01*
X135814751Y-110712290D02*
X135876656Y-110588480D01*
X135876656Y-110588480D02*
X135938560Y-110340861D01*
X135938560Y-110340861D02*
X135938560Y-110155147D01*
X135938560Y-110155147D02*
X135876656Y-109907528D01*
X135876656Y-109907528D02*
X135814751Y-109783719D01*
X135814751Y-109783719D02*
X135690941Y-109659909D01*
X135690941Y-109659909D02*
X135505227Y-109598004D01*
X135505227Y-109598004D02*
X135381418Y-109598004D01*
X135381418Y-109598004D02*
X135195703Y-109659909D01*
X135195703Y-109659909D02*
X135133799Y-109721814D01*
X134019513Y-110898004D02*
X134019513Y-110217052D01*
X134019513Y-110217052D02*
X134081418Y-110093242D01*
X134081418Y-110093242D02*
X134205227Y-110031338D01*
X134205227Y-110031338D02*
X134452846Y-110031338D01*
X134452846Y-110031338D02*
X134576656Y-110093242D01*
X134019513Y-110836100D02*
X134143322Y-110898004D01*
X134143322Y-110898004D02*
X134452846Y-110898004D01*
X134452846Y-110898004D02*
X134576656Y-110836100D01*
X134576656Y-110836100D02*
X134638560Y-110712290D01*
X134638560Y-110712290D02*
X134638560Y-110588480D01*
X134638560Y-110588480D02*
X134576656Y-110464671D01*
X134576656Y-110464671D02*
X134452846Y-110402766D01*
X134452846Y-110402766D02*
X134143322Y-110402766D01*
X134143322Y-110402766D02*
X134019513Y-110340861D01*
X133214751Y-110898004D02*
X133338561Y-110836100D01*
X133338561Y-110836100D02*
X133400466Y-110712290D01*
X133400466Y-110712290D02*
X133400466Y-109598004D01*
X132162371Y-110898004D02*
X132162371Y-109598004D01*
X132162371Y-110836100D02*
X132286180Y-110898004D01*
X132286180Y-110898004D02*
X132533799Y-110898004D01*
X132533799Y-110898004D02*
X132657609Y-110836100D01*
X132657609Y-110836100D02*
X132719514Y-110774195D01*
X132719514Y-110774195D02*
X132781418Y-110650385D01*
X132781418Y-110650385D02*
X132781418Y-110278957D01*
X132781418Y-110278957D02*
X132719514Y-110155147D01*
X132719514Y-110155147D02*
X132657609Y-110093242D01*
X132657609Y-110093242D02*
X132533799Y-110031338D01*
X132533799Y-110031338D02*
X132286180Y-110031338D01*
X132286180Y-110031338D02*
X132162371Y-110093242D01*
X131048086Y-110836100D02*
X131171895Y-110898004D01*
X131171895Y-110898004D02*
X131419514Y-110898004D01*
X131419514Y-110898004D02*
X131543324Y-110836100D01*
X131543324Y-110836100D02*
X131605228Y-110712290D01*
X131605228Y-110712290D02*
X131605228Y-110217052D01*
X131605228Y-110217052D02*
X131543324Y-110093242D01*
X131543324Y-110093242D02*
X131419514Y-110031338D01*
X131419514Y-110031338D02*
X131171895Y-110031338D01*
X131171895Y-110031338D02*
X131048086Y-110093242D01*
X131048086Y-110093242D02*
X130986181Y-110217052D01*
X130986181Y-110217052D02*
X130986181Y-110340861D01*
X130986181Y-110340861D02*
X131605228Y-110464671D01*
X130429038Y-110898004D02*
X130429038Y-110031338D01*
X130429038Y-110278957D02*
X130367133Y-110155147D01*
X130367133Y-110155147D02*
X130305228Y-110093242D01*
X130305228Y-110093242D02*
X130181419Y-110031338D01*
X130181419Y-110031338D02*
X130057609Y-110031338D01*
X129438561Y-110898004D02*
X129562371Y-110836100D01*
X129562371Y-110836100D02*
X129624276Y-110774195D01*
X129624276Y-110774195D02*
X129686180Y-110650385D01*
X129686180Y-110650385D02*
X129686180Y-110278957D01*
X129686180Y-110278957D02*
X129624276Y-110155147D01*
X129624276Y-110155147D02*
X129562371Y-110093242D01*
X129562371Y-110093242D02*
X129438561Y-110031338D01*
X129438561Y-110031338D02*
X129252847Y-110031338D01*
X129252847Y-110031338D02*
X129129038Y-110093242D01*
X129129038Y-110093242D02*
X129067133Y-110155147D01*
X129067133Y-110155147D02*
X129005228Y-110278957D01*
X129005228Y-110278957D02*
X129005228Y-110650385D01*
X129005228Y-110650385D02*
X129067133Y-110774195D01*
X129067133Y-110774195D02*
X129129038Y-110836100D01*
X129129038Y-110836100D02*
X129252847Y-110898004D01*
X129252847Y-110898004D02*
X129438561Y-110898004D01*
X128448086Y-110031338D02*
X128448086Y-110898004D01*
X128448086Y-110155147D02*
X128386181Y-110093242D01*
X128386181Y-110093242D02*
X128262371Y-110031338D01*
X128262371Y-110031338D02*
X128076657Y-110031338D01*
X128076657Y-110031338D02*
X127952848Y-110093242D01*
X127952848Y-110093242D02*
X127890943Y-110217052D01*
X127890943Y-110217052D02*
X127890943Y-110898004D01*
X142840942Y-111691004D02*
X142717132Y-111691004D01*
X142717132Y-111691004D02*
X142593323Y-111752909D01*
X142593323Y-111752909D02*
X142531418Y-111814814D01*
X142531418Y-111814814D02*
X142469513Y-111938623D01*
X142469513Y-111938623D02*
X142407608Y-112186242D01*
X142407608Y-112186242D02*
X142407608Y-112495766D01*
X142407608Y-112495766D02*
X142469513Y-112743385D01*
X142469513Y-112743385D02*
X142531418Y-112867195D01*
X142531418Y-112867195D02*
X142593323Y-112929100D01*
X142593323Y-112929100D02*
X142717132Y-112991004D01*
X142717132Y-112991004D02*
X142840942Y-112991004D01*
X142840942Y-112991004D02*
X142964751Y-112929100D01*
X142964751Y-112929100D02*
X143026656Y-112867195D01*
X143026656Y-112867195D02*
X143088561Y-112743385D01*
X143088561Y-112743385D02*
X143150465Y-112495766D01*
X143150465Y-112495766D02*
X143150465Y-112186242D01*
X143150465Y-112186242D02*
X143088561Y-111938623D01*
X143088561Y-111938623D02*
X143026656Y-111814814D01*
X143026656Y-111814814D02*
X142964751Y-111752909D01*
X142964751Y-111752909D02*
X142840942Y-111691004D01*
X141788561Y-112991004D02*
X141540942Y-112991004D01*
X141540942Y-112991004D02*
X141417132Y-112929100D01*
X141417132Y-112929100D02*
X141355228Y-112867195D01*
X141355228Y-112867195D02*
X141231418Y-112681480D01*
X141231418Y-112681480D02*
X141169513Y-112433861D01*
X141169513Y-112433861D02*
X141169513Y-111938623D01*
X141169513Y-111938623D02*
X141231418Y-111814814D01*
X141231418Y-111814814D02*
X141293323Y-111752909D01*
X141293323Y-111752909D02*
X141417132Y-111691004D01*
X141417132Y-111691004D02*
X141664751Y-111691004D01*
X141664751Y-111691004D02*
X141788561Y-111752909D01*
X141788561Y-111752909D02*
X141850466Y-111814814D01*
X141850466Y-111814814D02*
X141912370Y-111938623D01*
X141912370Y-111938623D02*
X141912370Y-112248147D01*
X141912370Y-112248147D02*
X141850466Y-112371957D01*
X141850466Y-112371957D02*
X141788561Y-112433861D01*
X141788561Y-112433861D02*
X141664751Y-112495766D01*
X141664751Y-112495766D02*
X141417132Y-112495766D01*
X141417132Y-112495766D02*
X141293323Y-112433861D01*
X141293323Y-112433861D02*
X141231418Y-112371957D01*
X141231418Y-112371957D02*
X141169513Y-112248147D01*
X139683799Y-111629100D02*
X140798085Y-113300528D01*
X139002847Y-111691004D02*
X138879037Y-111691004D01*
X138879037Y-111691004D02*
X138755228Y-111752909D01*
X138755228Y-111752909D02*
X138693323Y-111814814D01*
X138693323Y-111814814D02*
X138631418Y-111938623D01*
X138631418Y-111938623D02*
X138569513Y-112186242D01*
X138569513Y-112186242D02*
X138569513Y-112495766D01*
X138569513Y-112495766D02*
X138631418Y-112743385D01*
X138631418Y-112743385D02*
X138693323Y-112867195D01*
X138693323Y-112867195D02*
X138755228Y-112929100D01*
X138755228Y-112929100D02*
X138879037Y-112991004D01*
X138879037Y-112991004D02*
X139002847Y-112991004D01*
X139002847Y-112991004D02*
X139126656Y-112929100D01*
X139126656Y-112929100D02*
X139188561Y-112867195D01*
X139188561Y-112867195D02*
X139250466Y-112743385D01*
X139250466Y-112743385D02*
X139312370Y-112495766D01*
X139312370Y-112495766D02*
X139312370Y-112186242D01*
X139312370Y-112186242D02*
X139250466Y-111938623D01*
X139250466Y-111938623D02*
X139188561Y-111814814D01*
X139188561Y-111814814D02*
X139126656Y-111752909D01*
X139126656Y-111752909D02*
X139002847Y-111691004D01*
X137950466Y-112991004D02*
X137702847Y-112991004D01*
X137702847Y-112991004D02*
X137579037Y-112929100D01*
X137579037Y-112929100D02*
X137517133Y-112867195D01*
X137517133Y-112867195D02*
X137393323Y-112681480D01*
X137393323Y-112681480D02*
X137331418Y-112433861D01*
X137331418Y-112433861D02*
X137331418Y-111938623D01*
X137331418Y-111938623D02*
X137393323Y-111814814D01*
X137393323Y-111814814D02*
X137455228Y-111752909D01*
X137455228Y-111752909D02*
X137579037Y-111691004D01*
X137579037Y-111691004D02*
X137826656Y-111691004D01*
X137826656Y-111691004D02*
X137950466Y-111752909D01*
X137950466Y-111752909D02*
X138012371Y-111814814D01*
X138012371Y-111814814D02*
X138074275Y-111938623D01*
X138074275Y-111938623D02*
X138074275Y-112248147D01*
X138074275Y-112248147D02*
X138012371Y-112371957D01*
X138012371Y-112371957D02*
X137950466Y-112433861D01*
X137950466Y-112433861D02*
X137826656Y-112495766D01*
X137826656Y-112495766D02*
X137579037Y-112495766D01*
X137579037Y-112495766D02*
X137455228Y-112433861D01*
X137455228Y-112433861D02*
X137393323Y-112371957D01*
X137393323Y-112371957D02*
X137331418Y-112248147D01*
X135845704Y-111629100D02*
X136959990Y-113300528D01*
X135474275Y-111814814D02*
X135412371Y-111752909D01*
X135412371Y-111752909D02*
X135288561Y-111691004D01*
X135288561Y-111691004D02*
X134979037Y-111691004D01*
X134979037Y-111691004D02*
X134855228Y-111752909D01*
X134855228Y-111752909D02*
X134793323Y-111814814D01*
X134793323Y-111814814D02*
X134731418Y-111938623D01*
X134731418Y-111938623D02*
X134731418Y-112062433D01*
X134731418Y-112062433D02*
X134793323Y-112248147D01*
X134793323Y-112248147D02*
X135536180Y-112991004D01*
X135536180Y-112991004D02*
X134731418Y-112991004D01*
X133926657Y-111691004D02*
X133802847Y-111691004D01*
X133802847Y-111691004D02*
X133679038Y-111752909D01*
X133679038Y-111752909D02*
X133617133Y-111814814D01*
X133617133Y-111814814D02*
X133555228Y-111938623D01*
X133555228Y-111938623D02*
X133493323Y-112186242D01*
X133493323Y-112186242D02*
X133493323Y-112495766D01*
X133493323Y-112495766D02*
X133555228Y-112743385D01*
X133555228Y-112743385D02*
X133617133Y-112867195D01*
X133617133Y-112867195D02*
X133679038Y-112929100D01*
X133679038Y-112929100D02*
X133802847Y-112991004D01*
X133802847Y-112991004D02*
X133926657Y-112991004D01*
X133926657Y-112991004D02*
X134050466Y-112929100D01*
X134050466Y-112929100D02*
X134112371Y-112867195D01*
X134112371Y-112867195D02*
X134174276Y-112743385D01*
X134174276Y-112743385D02*
X134236180Y-112495766D01*
X134236180Y-112495766D02*
X134236180Y-112186242D01*
X134236180Y-112186242D02*
X134174276Y-111938623D01*
X134174276Y-111938623D02*
X134112371Y-111814814D01*
X134112371Y-111814814D02*
X134050466Y-111752909D01*
X134050466Y-111752909D02*
X133926657Y-111691004D01*
X132998085Y-111814814D02*
X132936181Y-111752909D01*
X132936181Y-111752909D02*
X132812371Y-111691004D01*
X132812371Y-111691004D02*
X132502847Y-111691004D01*
X132502847Y-111691004D02*
X132379038Y-111752909D01*
X132379038Y-111752909D02*
X132317133Y-111814814D01*
X132317133Y-111814814D02*
X132255228Y-111938623D01*
X132255228Y-111938623D02*
X132255228Y-112062433D01*
X132255228Y-112062433D02*
X132317133Y-112248147D01*
X132317133Y-112248147D02*
X133059990Y-112991004D01*
X133059990Y-112991004D02*
X132255228Y-112991004D01*
X131821895Y-111691004D02*
X131017133Y-111691004D01*
X131017133Y-111691004D02*
X131450467Y-112186242D01*
X131450467Y-112186242D02*
X131264752Y-112186242D01*
X131264752Y-112186242D02*
X131140943Y-112248147D01*
X131140943Y-112248147D02*
X131079038Y-112310052D01*
X131079038Y-112310052D02*
X131017133Y-112433861D01*
X131017133Y-112433861D02*
X131017133Y-112743385D01*
X131017133Y-112743385D02*
X131079038Y-112867195D01*
X131079038Y-112867195D02*
X131140943Y-112929100D01*
X131140943Y-112929100D02*
X131264752Y-112991004D01*
X131264752Y-112991004D02*
X131636181Y-112991004D01*
X131636181Y-112991004D02*
X131759990Y-112929100D01*
X131759990Y-112929100D02*
X131821895Y-112867195D01*
D12*
X146449041Y-59849958D02*
X145949041Y-60016624D01*
X145949041Y-60016624D02*
X145115708Y-60016624D01*
X145115708Y-60016624D02*
X144782374Y-59849958D01*
X144782374Y-59849958D02*
X144615708Y-59683291D01*
X144615708Y-59683291D02*
X144449041Y-59349958D01*
X144449041Y-59349958D02*
X144449041Y-59016624D01*
X144449041Y-59016624D02*
X144615708Y-58683291D01*
X144615708Y-58683291D02*
X144782374Y-58516624D01*
X144782374Y-58516624D02*
X145115708Y-58349958D01*
X145115708Y-58349958D02*
X145782374Y-58183291D01*
X145782374Y-58183291D02*
X146115708Y-58016624D01*
X146115708Y-58016624D02*
X146282374Y-57849958D01*
X146282374Y-57849958D02*
X146449041Y-57516624D01*
X146449041Y-57516624D02*
X146449041Y-57183291D01*
X146449041Y-57183291D02*
X146282374Y-56849958D01*
X146282374Y-56849958D02*
X146115708Y-56683291D01*
X146115708Y-56683291D02*
X145782374Y-56516624D01*
X145782374Y-56516624D02*
X144949041Y-56516624D01*
X144949041Y-56516624D02*
X144449041Y-56683291D01*
X142449041Y-60016624D02*
X142782375Y-59849958D01*
X142782375Y-59849958D02*
X142949041Y-59683291D01*
X142949041Y-59683291D02*
X143115708Y-59349958D01*
X143115708Y-59349958D02*
X143115708Y-58349958D01*
X143115708Y-58349958D02*
X142949041Y-58016624D01*
X142949041Y-58016624D02*
X142782375Y-57849958D01*
X142782375Y-57849958D02*
X142449041Y-57683291D01*
X142449041Y-57683291D02*
X141949041Y-57683291D01*
X141949041Y-57683291D02*
X141615708Y-57849958D01*
X141615708Y-57849958D02*
X141449041Y-58016624D01*
X141449041Y-58016624D02*
X141282375Y-58349958D01*
X141282375Y-58349958D02*
X141282375Y-59349958D01*
X141282375Y-59349958D02*
X141449041Y-59683291D01*
X141449041Y-59683291D02*
X141615708Y-59849958D01*
X141615708Y-59849958D02*
X141949041Y-60016624D01*
X141949041Y-60016624D02*
X142449041Y-60016624D01*
X138282374Y-57683291D02*
X138282374Y-60016624D01*
X139782374Y-57683291D02*
X139782374Y-59516624D01*
X139782374Y-59516624D02*
X139615708Y-59849958D01*
X139615708Y-59849958D02*
X139282374Y-60016624D01*
X139282374Y-60016624D02*
X138782374Y-60016624D01*
X138782374Y-60016624D02*
X138449041Y-59849958D01*
X138449041Y-59849958D02*
X138282374Y-59683291D01*
X137115707Y-57683291D02*
X135782374Y-57683291D01*
X136615707Y-56516624D02*
X136615707Y-59516624D01*
X136615707Y-59516624D02*
X136449041Y-59849958D01*
X136449041Y-59849958D02*
X136115707Y-60016624D01*
X136115707Y-60016624D02*
X135782374Y-60016624D01*
X134615707Y-60016624D02*
X134615707Y-56516624D01*
X133115707Y-60016624D02*
X133115707Y-58183291D01*
X133115707Y-58183291D02*
X133282374Y-57849958D01*
X133282374Y-57849958D02*
X133615707Y-57683291D01*
X133615707Y-57683291D02*
X134115707Y-57683291D01*
X134115707Y-57683291D02*
X134449041Y-57849958D01*
X134449041Y-57849958D02*
X134615707Y-58016624D01*
%TO.C,G\u002A\u002A\u002A*%
G36*
X150648600Y-95979886D02*
G01*
X150453964Y-95979886D01*
X150453964Y-69120115D01*
X150648600Y-69120115D01*
X150648600Y-95979886D01*
G37*
G36*
X141922419Y-95322719D02*
G01*
X141727783Y-95344739D01*
X141533147Y-95366760D01*
X141533147Y-95947446D01*
X143508725Y-95947446D01*
X143530745Y-95752810D01*
X143552766Y-95558174D01*
X143803900Y-95558174D01*
X143803900Y-96920626D01*
X143552766Y-96920626D01*
X143530745Y-96725990D01*
X143508725Y-96531354D01*
X141533147Y-96531354D01*
X141533147Y-97112041D01*
X141727783Y-97134061D01*
X141922419Y-97156082D01*
X141922419Y-97407216D01*
X141208754Y-97407216D01*
X141208754Y-95071584D01*
X141922419Y-95071584D01*
X141922419Y-95322719D01*
G37*
G36*
X146372978Y-76418966D02*
G01*
X148373871Y-76418966D01*
X148394500Y-76264879D01*
X148404162Y-76195296D01*
X148422159Y-76102219D01*
X148447072Y-76052760D01*
X148488302Y-76033169D01*
X148555245Y-76029694D01*
X148669801Y-76029694D01*
X148669801Y-77396063D01*
X148548153Y-77385994D01*
X148533668Y-77384782D01*
X148471129Y-77375504D01*
X148435972Y-77350644D01*
X148415870Y-77294007D01*
X148398494Y-77189400D01*
X148370482Y-77002874D01*
X146372978Y-77002874D01*
X146327798Y-77392146D01*
X146074654Y-77392146D01*
X146074654Y-76029694D01*
X146327798Y-76029694D01*
X146372978Y-76418966D01*
G37*
G36*
X135709881Y-78529923D02*
G01*
X135807604Y-78529959D01*
X136805114Y-79505647D01*
X137802623Y-80481334D01*
X137802623Y-84577073D01*
X136805310Y-85574775D01*
X135807997Y-86572478D01*
X129237963Y-86572478D01*
X127259839Y-84616990D01*
X127259839Y-84545439D01*
X127454475Y-84545439D01*
X128392676Y-85483221D01*
X129330877Y-86421004D01*
X135742725Y-86377180D01*
X137607987Y-84513000D01*
X137607987Y-80587008D01*
X135709881Y-78689720D01*
X129319317Y-78689720D01*
X127454475Y-80555394D01*
X127454475Y-84545439D01*
X127259839Y-84545439D01*
X127259839Y-80490495D01*
X128240930Y-79509009D01*
X129222020Y-78527523D01*
X135709881Y-78529923D01*
G37*
G36*
X134702921Y-80992912D02*
G01*
X134768190Y-80992912D01*
X135036492Y-81259821D01*
X135304794Y-81526729D01*
X135304794Y-83576551D01*
X135033024Y-83841820D01*
X134761253Y-84107089D01*
X130333649Y-84107089D01*
X129790107Y-83576551D01*
X129790107Y-83476262D01*
X129952304Y-83476262D01*
X130172084Y-83694357D01*
X130391863Y-83912453D01*
X134706541Y-83912453D01*
X134908350Y-83708834D01*
X135110158Y-83505215D01*
X135110158Y-81591166D01*
X134906540Y-81389357D01*
X134702921Y-81187548D01*
X130388495Y-81187548D01*
X130170400Y-81407328D01*
X129952304Y-81627108D01*
X129952304Y-83476262D01*
X129790107Y-83476262D01*
X129790107Y-81529517D01*
X130057016Y-81261214D01*
X130323924Y-80992912D01*
X134702921Y-80992912D01*
G37*
G36*
X134865804Y-78916795D02*
G01*
X135612534Y-78916795D01*
X136496723Y-79800546D01*
X137380912Y-80684296D01*
X137380912Y-84412495D01*
X135647008Y-86150767D01*
X129449937Y-86150767D01*
X128581963Y-85283240D01*
X127713990Y-84415713D01*
X127713990Y-83670264D01*
X129498153Y-83670264D01*
X129847406Y-84018434D01*
X130196658Y-84366603D01*
X134900462Y-84366603D01*
X135232386Y-84033546D01*
X135564309Y-83700489D01*
X135564309Y-81397298D01*
X135215057Y-81049128D01*
X134865804Y-80700958D01*
X130226980Y-80700958D01*
X129862567Y-81066408D01*
X129498153Y-81431859D01*
X129498153Y-83670264D01*
X127713990Y-83670264D01*
X127713990Y-80685173D01*
X128597741Y-79800984D01*
X129481491Y-78916795D01*
X134865804Y-78916795D01*
G37*
G36*
X146788319Y-90621025D02*
G01*
X146399047Y-90666205D01*
X146399047Y-91243743D01*
X148370482Y-91243743D01*
X148398494Y-91057216D01*
X148401838Y-91035008D01*
X148418804Y-90939847D01*
X148440627Y-90889859D01*
X148479634Y-90868848D01*
X148548153Y-90860622D01*
X148669801Y-90850554D01*
X148669801Y-92220839D01*
X148548153Y-92210771D01*
X148533668Y-92209558D01*
X148471129Y-92200280D01*
X148435972Y-92175420D01*
X148415870Y-92118784D01*
X148398494Y-92014177D01*
X148370482Y-91827651D01*
X146399047Y-91827651D01*
X146399047Y-92408337D01*
X146593683Y-92430358D01*
X146788319Y-92452378D01*
X146788319Y-92703513D01*
X146074654Y-92703513D01*
X146074654Y-90367880D01*
X146788319Y-90367880D01*
X146788319Y-90621025D01*
G37*
G36*
X148669801Y-90079843D02*
G01*
X148548153Y-90069775D01*
X148533157Y-90068519D01*
X148470891Y-90059214D01*
X148435872Y-90034260D01*
X148415812Y-89977484D01*
X148398425Y-89872717D01*
X148370345Y-89685728D01*
X147376586Y-89694301D01*
X146382828Y-89702874D01*
X146323668Y-90075926D01*
X146073338Y-90075926D01*
X146090874Y-88729694D01*
X146204411Y-88729694D01*
X146217658Y-88729708D01*
X146276189Y-88733861D01*
X146309310Y-88756087D01*
X146328680Y-88811752D01*
X146345961Y-88916220D01*
X146373973Y-89102746D01*
X148373871Y-89102746D01*
X148394500Y-88948660D01*
X148404162Y-88879076D01*
X148422159Y-88785999D01*
X148447072Y-88736540D01*
X148488302Y-88716949D01*
X148555245Y-88713474D01*
X148669801Y-88713474D01*
X148669801Y-90079843D01*
G37*
G36*
X143803900Y-83101469D02*
G01*
X143553423Y-83101469D01*
X143534121Y-82938500D01*
X143526390Y-82881215D01*
X143510176Y-82792526D01*
X143495249Y-82743864D01*
X143464594Y-82735546D01*
X143372873Y-82727526D01*
X143224951Y-82721036D01*
X143025410Y-82716222D01*
X142778833Y-82713227D01*
X142489804Y-82712197D01*
X141503929Y-82712197D01*
X141481909Y-82906833D01*
X141459888Y-83101469D01*
X141208754Y-83101469D01*
X141208754Y-81735101D01*
X141330401Y-81745169D01*
X141344886Y-81746381D01*
X141407425Y-81755659D01*
X141442582Y-81780520D01*
X141462684Y-81837156D01*
X141480060Y-81941763D01*
X141508072Y-82128289D01*
X143504582Y-82128289D01*
X143532594Y-81941763D01*
X143535938Y-81919555D01*
X143552904Y-81824394D01*
X143574727Y-81774405D01*
X143613734Y-81753395D01*
X143682253Y-81745169D01*
X143803900Y-81735101D01*
X143803900Y-83101469D01*
G37*
G36*
X141922419Y-90074457D02*
G01*
X141922227Y-90104698D01*
X141913675Y-90173192D01*
X141879179Y-90205115D01*
X141800771Y-90222303D01*
X141722278Y-90234552D01*
X141622877Y-90253031D01*
X141566006Y-90279263D01*
X141539923Y-90327492D01*
X141532884Y-90411962D01*
X141533147Y-90546915D01*
X141533147Y-90822031D01*
X143507278Y-90822031D01*
X143529570Y-90643615D01*
X143551861Y-90465198D01*
X143803900Y-90465198D01*
X143803900Y-91795211D01*
X143551861Y-91795211D01*
X143529570Y-91616795D01*
X143507278Y-91438379D01*
X141533147Y-91438379D01*
X141533147Y-91715131D01*
X141533091Y-91780184D01*
X141535862Y-91895069D01*
X141550782Y-91964584D01*
X141587841Y-92002444D01*
X141657027Y-92022368D01*
X141768332Y-92038072D01*
X141922419Y-92058701D01*
X141922419Y-92314241D01*
X141208754Y-92314241D01*
X141208754Y-89946169D01*
X141922419Y-89946169D01*
X141922419Y-90074457D01*
G37*
G36*
X141330401Y-97640443D02*
G01*
X141344886Y-97641656D01*
X141407425Y-97650934D01*
X141442582Y-97675794D01*
X141462684Y-97732431D01*
X141480060Y-97837038D01*
X141508072Y-98023564D01*
X143508725Y-98023564D01*
X143530745Y-97828928D01*
X143552766Y-97634292D01*
X143803900Y-97634292D01*
X143803900Y-99872606D01*
X143122674Y-99872606D01*
X143122674Y-99618040D01*
X143292981Y-99590968D01*
X143463287Y-99563896D01*
X143481241Y-98607472D01*
X142603645Y-98607472D01*
X142603645Y-99215461D01*
X142765842Y-99236977D01*
X142848118Y-99249210D01*
X142903561Y-99268085D01*
X142924680Y-99304094D01*
X142928038Y-99370913D01*
X142928038Y-99483334D01*
X141954858Y-99483334D01*
X141954858Y-99374359D01*
X141957413Y-99316188D01*
X141975944Y-99277731D01*
X142026510Y-99255497D01*
X142125165Y-99236491D01*
X142295471Y-99207599D01*
X142304798Y-98907536D01*
X142314126Y-98607472D01*
X141531413Y-98607472D01*
X141549367Y-99563896D01*
X141719673Y-99590968D01*
X141889980Y-99618040D01*
X141889980Y-99872606D01*
X141208754Y-99872606D01*
X141208754Y-97630375D01*
X141330401Y-97640443D01*
G37*
G36*
X143803900Y-73629183D02*
G01*
X143122674Y-73629183D01*
X143122674Y-73374337D01*
X143301091Y-73352045D01*
X143479507Y-73329754D01*
X143479507Y-72364049D01*
X142603645Y-72364049D01*
X142603645Y-72974308D01*
X142765842Y-72996616D01*
X142846667Y-73009019D01*
X142902910Y-73028078D01*
X142924515Y-73063692D01*
X142928038Y-73129417D01*
X142928038Y-73239911D01*
X141950748Y-73239911D01*
X141960913Y-73136037D01*
X141966404Y-73095154D01*
X141986992Y-73049502D01*
X142036803Y-73021755D01*
X142133275Y-72997941D01*
X142295471Y-72963718D01*
X142295471Y-72380269D01*
X141914309Y-72371129D01*
X141533147Y-72361990D01*
X141533147Y-73329754D01*
X141711563Y-73352045D01*
X141889980Y-73374337D01*
X141889980Y-73629183D01*
X141208754Y-73629183D01*
X141208754Y-71386953D01*
X141330401Y-71397021D01*
X141344886Y-71398233D01*
X141407425Y-71407511D01*
X141442582Y-71432372D01*
X141462684Y-71489008D01*
X141480060Y-71593615D01*
X141508072Y-71780141D01*
X143504582Y-71780141D01*
X143532594Y-71593615D01*
X143535938Y-71571406D01*
X143552904Y-71476246D01*
X143574727Y-71426257D01*
X143613734Y-71405247D01*
X143682253Y-71397021D01*
X143803900Y-71386953D01*
X143803900Y-73629183D01*
G37*
G36*
X148669801Y-83069030D02*
G01*
X147988575Y-83069030D01*
X147988575Y-82814184D01*
X148345407Y-82769600D01*
X148345407Y-81803896D01*
X147469545Y-81803896D01*
X147469545Y-82418009D01*
X147631742Y-82439525D01*
X147712066Y-82451446D01*
X147768598Y-82470143D01*
X147790365Y-82505337D01*
X147793939Y-82570399D01*
X147793939Y-82679758D01*
X146816648Y-82679758D01*
X146826813Y-82575884D01*
X146832304Y-82535001D01*
X146852892Y-82489349D01*
X146902703Y-82461602D01*
X146999175Y-82437788D01*
X147161372Y-82403565D01*
X147161372Y-81820115D01*
X146780210Y-81810976D01*
X146399047Y-81801837D01*
X146399047Y-82769600D01*
X146577464Y-82791892D01*
X146755880Y-82814184D01*
X146755880Y-83069030D01*
X146073802Y-83069030D01*
X146082338Y-81957983D01*
X146090874Y-80846935D01*
X146204411Y-80846935D01*
X146217658Y-80846949D01*
X146276189Y-80851102D01*
X146309310Y-80873329D01*
X146328680Y-80928993D01*
X146345961Y-81033462D01*
X146373973Y-81219988D01*
X148373871Y-81219988D01*
X148394500Y-81065901D01*
X148404162Y-80996318D01*
X148422159Y-80903241D01*
X148447072Y-80853782D01*
X148488302Y-80834190D01*
X148555245Y-80830716D01*
X148669801Y-80830716D01*
X148669801Y-83069030D01*
G37*
G36*
X148669801Y-73957493D02*
G01*
X148548153Y-73947425D01*
X148533668Y-73946212D01*
X148471129Y-73936934D01*
X148435972Y-73912074D01*
X148415870Y-73855437D01*
X148398494Y-73750831D01*
X148370482Y-73564304D01*
X146836978Y-73566638D01*
X146928965Y-73641894D01*
X146942143Y-73652218D01*
X147009869Y-73702493D01*
X147120452Y-73782726D01*
X147266524Y-73887636D01*
X147440714Y-74011943D01*
X147635656Y-74150366D01*
X147843979Y-74297624D01*
X148667007Y-74878098D01*
X148669801Y-75348468D01*
X146372978Y-75348468D01*
X146327798Y-75737740D01*
X146074654Y-75737740D01*
X146074654Y-74569924D01*
X146327798Y-74569924D01*
X146372978Y-74959196D01*
X147840814Y-74959196D01*
X147625848Y-74805109D01*
X147575066Y-74768692D01*
X147459191Y-74685542D01*
X147307598Y-74576722D01*
X147130623Y-74449654D01*
X146938600Y-74311755D01*
X146741866Y-74170448D01*
X146072850Y-73689874D01*
X146090874Y-72801980D01*
X146204411Y-72801980D01*
X146217658Y-72801994D01*
X146276189Y-72806147D01*
X146309310Y-72828373D01*
X146328680Y-72884038D01*
X146345961Y-72988506D01*
X146373973Y-73175032D01*
X148373871Y-73175032D01*
X148394500Y-73020946D01*
X148404162Y-72951363D01*
X148422159Y-72858285D01*
X148447072Y-72808826D01*
X148488302Y-72789235D01*
X148555245Y-72785760D01*
X148669801Y-72785760D01*
X148669801Y-73957493D01*
G37*
G36*
X146348733Y-93139427D02*
G01*
X146370772Y-93315827D01*
X146968945Y-93707115D01*
X147567117Y-94098404D01*
X148370482Y-94098404D01*
X148398494Y-93911878D01*
X148401838Y-93889670D01*
X148418804Y-93794509D01*
X148440627Y-93744520D01*
X148479634Y-93723510D01*
X148548153Y-93715284D01*
X148669801Y-93705216D01*
X148669801Y-95071584D01*
X148555245Y-95071584D01*
X148516918Y-95070955D01*
X148464414Y-95060883D01*
X148432775Y-95027600D01*
X148412604Y-94957356D01*
X148394500Y-94836399D01*
X148373871Y-94682312D01*
X147533747Y-94682312D01*
X146952324Y-95056866D01*
X146370901Y-95431421D01*
X146348797Y-95608335D01*
X146326693Y-95785250D01*
X146074654Y-95785250D01*
X146074654Y-94649873D01*
X146323668Y-94649873D01*
X146353248Y-94827959D01*
X146382828Y-95006044D01*
X146723441Y-94792827D01*
X146860346Y-94707043D01*
X146985327Y-94628574D01*
X147082834Y-94567191D01*
X147139099Y-94531547D01*
X147150807Y-94523870D01*
X147172530Y-94504273D01*
X147173244Y-94482046D01*
X147146194Y-94450761D01*
X147084627Y-94403992D01*
X146981789Y-94335312D01*
X146830926Y-94238295D01*
X146786008Y-94209620D01*
X146648888Y-94122922D01*
X146533109Y-94050940D01*
X146449727Y-94000498D01*
X146409798Y-93978419D01*
X146395428Y-93980727D01*
X146369834Y-94032474D01*
X146349292Y-94144606D01*
X146326693Y-94325479D01*
X146074654Y-94325479D01*
X146074654Y-92963027D01*
X146326693Y-92963027D01*
X146348733Y-93139427D01*
G37*
G36*
X141241193Y-65356534D02*
G01*
X141241203Y-65367732D01*
X141239071Y-65430079D01*
X141223984Y-65469491D01*
X141183199Y-65494473D01*
X141103975Y-65513531D01*
X140973568Y-65535170D01*
X140851921Y-65554728D01*
X140851921Y-66297893D01*
X142163528Y-66297893D01*
X142248341Y-66297922D01*
X142562662Y-66298392D01*
X142819469Y-66298606D01*
X143024691Y-66297473D01*
X143184256Y-66293901D01*
X143304094Y-66286798D01*
X143390134Y-66275072D01*
X143448305Y-66257631D01*
X143484536Y-66233384D01*
X143504757Y-66201238D01*
X143514897Y-66160101D01*
X143520884Y-66108882D01*
X143528648Y-66046488D01*
X143537133Y-65995382D01*
X143556909Y-65935242D01*
X143597105Y-65912291D01*
X143676994Y-65908621D01*
X143803900Y-65908621D01*
X143803900Y-67303513D01*
X143676994Y-67303513D01*
X143629861Y-67302929D01*
X143572741Y-67291606D01*
X143545427Y-67251815D01*
X143528648Y-67165645D01*
X143526301Y-67149565D01*
X143519506Y-67089958D01*
X143513062Y-67041262D01*
X143501040Y-67002387D01*
X143477511Y-66972240D01*
X143436546Y-66949729D01*
X143372215Y-66933762D01*
X143278590Y-66923247D01*
X143149742Y-66917093D01*
X142979740Y-66914207D01*
X142762657Y-66913498D01*
X142492563Y-66913873D01*
X142163528Y-66914241D01*
X140851921Y-66914241D01*
X140851921Y-67286675D01*
X140851589Y-67377719D01*
X140851974Y-67510142D01*
X140860028Y-67595825D01*
X140883282Y-67646642D01*
X140929267Y-67674463D01*
X141005511Y-67691160D01*
X141119545Y-67708605D01*
X141148193Y-67713414D01*
X141211838Y-67732665D01*
X141236849Y-67773065D01*
X141241193Y-67856451D01*
X141241193Y-67984739D01*
X140495088Y-67984739D01*
X140495088Y-65227395D01*
X141241193Y-65227395D01*
X141241193Y-65356534D01*
G37*
G36*
X146353248Y-77802151D02*
G01*
X146382828Y-77985080D01*
X147469545Y-78395496D01*
X147700769Y-78482834D01*
X147938017Y-78572474D01*
X148150977Y-78652967D01*
X148332367Y-78721558D01*
X148474906Y-78775493D01*
X148571312Y-78812020D01*
X148614303Y-78828384D01*
X148626969Y-78834311D01*
X148650096Y-78858977D01*
X148662386Y-78908274D01*
X148665966Y-78995566D01*
X148662962Y-79134219D01*
X148653581Y-79417582D01*
X147518204Y-79843162D01*
X146382828Y-80268741D01*
X146353248Y-80452410D01*
X146323668Y-80636080D01*
X146073122Y-80636080D01*
X146081998Y-80076501D01*
X146090874Y-79516923D01*
X146204024Y-79516923D01*
X146267637Y-79520304D01*
X146304515Y-79540784D01*
X146327455Y-79593937D01*
X146349255Y-79695339D01*
X146366874Y-79769891D01*
X146392962Y-79842301D01*
X146415879Y-79868013D01*
X146427250Y-79865047D01*
X146493084Y-79843405D01*
X146604492Y-79804335D01*
X146751786Y-79751431D01*
X146925277Y-79688286D01*
X147115276Y-79618494D01*
X147312097Y-79545648D01*
X147506050Y-79473342D01*
X147687446Y-79405169D01*
X147846598Y-79344723D01*
X147973816Y-79295598D01*
X148059413Y-79261387D01*
X148093701Y-79245683D01*
X148077077Y-79234468D01*
X148008853Y-79203394D01*
X147896709Y-79156427D01*
X147749881Y-79097112D01*
X147577605Y-79028992D01*
X147389116Y-78955612D01*
X147193649Y-78880516D01*
X147000440Y-78807249D01*
X146818723Y-78739356D01*
X146657735Y-78680380D01*
X146526710Y-78633866D01*
X146434884Y-78603358D01*
X146391493Y-78592402D01*
X146381120Y-78608481D01*
X146364481Y-78673285D01*
X146348985Y-78770818D01*
X146326693Y-78949234D01*
X146074654Y-78949234D01*
X146074654Y-77619221D01*
X146323668Y-77619221D01*
X146353248Y-77802151D01*
G37*
G36*
X141330401Y-68185526D02*
G01*
X141344886Y-68186739D01*
X141407425Y-68196017D01*
X141442582Y-68220877D01*
X141462684Y-68277514D01*
X141480060Y-68382121D01*
X141508072Y-68568647D01*
X143508725Y-68568647D01*
X143530745Y-68374011D01*
X143552766Y-68179375D01*
X143803900Y-68179375D01*
X143803900Y-69545743D01*
X143682253Y-69535675D01*
X143667768Y-69534462D01*
X143605229Y-69525184D01*
X143570072Y-69500324D01*
X143549970Y-69443688D01*
X143532594Y-69339081D01*
X143504582Y-69152555D01*
X142603645Y-69152555D01*
X142603645Y-70158174D01*
X143039662Y-70158174D01*
X143063543Y-70158132D01*
X143229526Y-70155293D01*
X143364278Y-70148557D01*
X143456589Y-70138702D01*
X143495249Y-70126508D01*
X143503056Y-70105995D01*
X143519301Y-70032154D01*
X143534121Y-69931872D01*
X143553423Y-69768902D01*
X143803900Y-69768902D01*
X143803900Y-71135271D01*
X143682253Y-71125203D01*
X143667768Y-71123990D01*
X143605229Y-71114712D01*
X143570072Y-71089852D01*
X143549970Y-71033215D01*
X143532594Y-70928608D01*
X143504582Y-70742082D01*
X141508072Y-70742082D01*
X141480060Y-70928608D01*
X141476716Y-70950817D01*
X141459750Y-71045977D01*
X141437927Y-71095966D01*
X141398920Y-71116976D01*
X141330401Y-71125203D01*
X141208754Y-71135271D01*
X141208754Y-69764986D01*
X141330401Y-69775054D01*
X141344886Y-69776266D01*
X141407425Y-69785544D01*
X141442582Y-69810405D01*
X141462684Y-69867041D01*
X141480060Y-69971648D01*
X141508072Y-70158174D01*
X142279252Y-70158174D01*
X142279252Y-69152555D01*
X141508072Y-69152555D01*
X141480060Y-69339081D01*
X141476716Y-69361289D01*
X141459750Y-69456450D01*
X141437927Y-69506438D01*
X141398920Y-69527449D01*
X141330401Y-69535675D01*
X141208754Y-69545743D01*
X141208754Y-68175458D01*
X141330401Y-68185526D01*
G37*
G36*
X141330401Y-78501235D02*
G01*
X141344886Y-78502448D01*
X141407425Y-78511726D01*
X141442582Y-78536586D01*
X141462684Y-78593223D01*
X141480060Y-78697829D01*
X141508072Y-78884356D01*
X143508725Y-78884356D01*
X143530745Y-78689720D01*
X143552766Y-78495084D01*
X143803900Y-78495084D01*
X143803900Y-79861452D01*
X143682253Y-79851384D01*
X143667768Y-79850171D01*
X143605229Y-79840893D01*
X143570072Y-79816033D01*
X143549970Y-79759397D01*
X143532594Y-79654790D01*
X143504582Y-79468264D01*
X142603645Y-79468264D01*
X142603645Y-80473883D01*
X143039662Y-80473883D01*
X143063543Y-80473841D01*
X143229526Y-80471002D01*
X143364278Y-80464266D01*
X143456589Y-80454411D01*
X143495249Y-80442216D01*
X143503056Y-80421704D01*
X143519301Y-80347862D01*
X143534121Y-80247580D01*
X143553423Y-80084611D01*
X143803900Y-80084611D01*
X143803900Y-81450979D01*
X143682253Y-81440911D01*
X143667768Y-81439699D01*
X143605229Y-81430421D01*
X143570072Y-81405561D01*
X143549970Y-81348924D01*
X143532594Y-81244317D01*
X143504582Y-81057791D01*
X141508072Y-81057791D01*
X141480060Y-81244317D01*
X141476716Y-81266526D01*
X141459750Y-81361686D01*
X141437927Y-81411675D01*
X141398920Y-81432685D01*
X141330401Y-81440911D01*
X141208754Y-81450979D01*
X141208754Y-80080695D01*
X141328834Y-80090763D01*
X141330329Y-80090888D01*
X141398618Y-80099919D01*
X141437821Y-80123322D01*
X141461426Y-80177598D01*
X141482921Y-80279247D01*
X141516927Y-80457663D01*
X141898089Y-80466803D01*
X142279252Y-80475942D01*
X142279252Y-79468264D01*
X141508072Y-79468264D01*
X141480060Y-79654790D01*
X141476716Y-79676998D01*
X141459750Y-79772159D01*
X141437927Y-79822147D01*
X141398920Y-79843158D01*
X141330401Y-79851384D01*
X141208754Y-79861452D01*
X141208754Y-78491167D01*
X141330401Y-78501235D01*
G37*
G36*
X143803900Y-93291337D02*
G01*
X143682386Y-93281269D01*
X143615325Y-93273174D01*
X143574260Y-93251508D01*
X143551809Y-93199767D01*
X143533935Y-93100894D01*
X143522318Y-93041210D01*
X143495442Y-92960613D01*
X143466324Y-92930588D01*
X143425187Y-92939623D01*
X143339980Y-92967897D01*
X143233613Y-93008717D01*
X143041576Y-93086846D01*
X143041576Y-94073287D01*
X143268651Y-94163713D01*
X143495727Y-94254139D01*
X143528928Y-94070844D01*
X143531297Y-94057785D01*
X143551522Y-93959962D01*
X143574907Y-93908150D01*
X143614417Y-93886078D01*
X143683014Y-93877480D01*
X143803900Y-93867412D01*
X143803900Y-95237697D01*
X143682253Y-95227629D01*
X143672754Y-95226838D01*
X143607551Y-95217789D01*
X143571047Y-95193808D01*
X143550519Y-95138479D01*
X143533240Y-95035385D01*
X143505874Y-94853208D01*
X142852014Y-94600718D01*
X142635524Y-94517039D01*
X142382176Y-94418956D01*
X142128698Y-94320683D01*
X141895312Y-94230060D01*
X141702242Y-94154929D01*
X141206330Y-93961629D01*
X141215652Y-93681545D01*
X141219052Y-93579375D01*
X141760222Y-93579375D01*
X141764216Y-93583197D01*
X141811923Y-93606509D01*
X141903511Y-93644906D01*
X142026318Y-93693628D01*
X142167678Y-93747914D01*
X142314927Y-93803006D01*
X142455402Y-93854141D01*
X142576437Y-93896560D01*
X142665369Y-93925502D01*
X142709532Y-93936207D01*
X142717816Y-93913922D01*
X142725891Y-93838643D01*
X142731379Y-93722763D01*
X142733402Y-93579375D01*
X142731912Y-93455548D01*
X142726876Y-93334828D01*
X142719124Y-93252796D01*
X142709532Y-93222542D01*
X142699363Y-93224043D01*
X142637346Y-93241975D01*
X142535195Y-93276402D01*
X142405576Y-93322564D01*
X142261153Y-93375699D01*
X142114589Y-93431048D01*
X141978550Y-93483851D01*
X141865700Y-93529346D01*
X141788702Y-93562774D01*
X141760222Y-93579375D01*
X141219052Y-93579375D01*
X141224973Y-93401461D01*
X142360350Y-92962287D01*
X142709532Y-92827221D01*
X143495727Y-92523114D01*
X143554887Y-92152044D01*
X143803900Y-92152044D01*
X143803900Y-93291337D01*
G37*
G36*
X142327737Y-75307336D02*
G01*
X142690469Y-75346026D01*
X143003270Y-75425847D01*
X143266533Y-75547069D01*
X143480653Y-75709965D01*
X143646023Y-75914805D01*
X143763037Y-76161862D01*
X143832090Y-76451405D01*
X143844311Y-76576793D01*
X143849974Y-76746700D01*
X143845524Y-76905556D01*
X143822909Y-77102005D01*
X143749594Y-77390277D01*
X143630538Y-77634442D01*
X143464670Y-77835420D01*
X143250921Y-77994133D01*
X142988221Y-78111501D01*
X142675501Y-78188445D01*
X142311691Y-78225885D01*
X141982670Y-78226419D01*
X141637440Y-78190036D01*
X141332184Y-78115343D01*
X141070893Y-78003702D01*
X140857558Y-77856473D01*
X140696171Y-77675018D01*
X140600321Y-77506244D01*
X140506316Y-77247880D01*
X140455361Y-76969909D01*
X140447038Y-76695364D01*
X140814141Y-76695364D01*
X140815790Y-76876318D01*
X140848574Y-77041392D01*
X140906362Y-77148748D01*
X141008843Y-77266690D01*
X141135931Y-77372387D01*
X141269105Y-77447935D01*
X141381195Y-77487211D01*
X141605794Y-77537711D01*
X141864682Y-77569483D01*
X142140207Y-77581360D01*
X142414716Y-77572172D01*
X142670557Y-77540751D01*
X142906159Y-77483747D01*
X143129354Y-77388197D01*
X143297901Y-77260627D01*
X143413224Y-77100192D01*
X143430764Y-77062492D01*
X143483751Y-76871076D01*
X143488023Y-76671937D01*
X143444929Y-76483333D01*
X143355819Y-76323524D01*
X143322140Y-76284236D01*
X143174331Y-76158882D01*
X142986550Y-76064303D01*
X142753788Y-75998968D01*
X142471033Y-75961346D01*
X142133275Y-75949906D01*
X141830676Y-75960730D01*
X141546208Y-75997026D01*
X141313300Y-76060581D01*
X141127334Y-76153168D01*
X140983692Y-76276565D01*
X140877753Y-76432546D01*
X140842291Y-76526375D01*
X140814141Y-76695364D01*
X140447038Y-76695364D01*
X140446703Y-76684298D01*
X140479590Y-76403012D01*
X140553270Y-76138020D01*
X140666991Y-75901288D01*
X140820000Y-75704782D01*
X140977947Y-75574039D01*
X141204076Y-75452775D01*
X141474971Y-75367960D01*
X141794295Y-75318500D01*
X142133275Y-75304630D01*
X142165714Y-75303303D01*
X142327737Y-75307336D01*
G37*
G36*
X148669801Y-84824670D02*
G01*
X148548153Y-84814602D01*
X148533668Y-84813390D01*
X148471129Y-84804112D01*
X148435972Y-84779251D01*
X148415870Y-84722615D01*
X148398494Y-84618008D01*
X148370482Y-84431482D01*
X147493547Y-84431482D01*
X147510456Y-84581499D01*
X147514580Y-84611782D01*
X147541765Y-84709988D01*
X147593962Y-84796242D01*
X147678619Y-84876590D01*
X147803183Y-84957077D01*
X147975104Y-85043749D01*
X148201828Y-85142650D01*
X148653581Y-85331075D01*
X148662633Y-85757141D01*
X148671684Y-86183206D01*
X148556187Y-86183206D01*
X148520561Y-86182697D01*
X148466148Y-86173204D01*
X148433547Y-86140851D01*
X148413089Y-86071763D01*
X148395107Y-85952069D01*
X148375086Y-85802030D01*
X148086217Y-85682296D01*
X148040353Y-85662776D01*
X147881247Y-85588935D01*
X147727255Y-85509648D01*
X147606197Y-85439014D01*
X147415046Y-85315467D01*
X147353087Y-85430733D01*
X147329178Y-85467795D01*
X147246910Y-85558730D01*
X147149049Y-85636171D01*
X147053581Y-85688449D01*
X146857523Y-85747354D01*
X146663773Y-85744238D01*
X146479952Y-85679842D01*
X146313681Y-85554907D01*
X146255553Y-85493348D01*
X146205692Y-85428011D01*
X146167132Y-85355175D01*
X146138424Y-85266644D01*
X146118117Y-85154224D01*
X146104760Y-85009717D01*
X146096903Y-84824928D01*
X146094645Y-84686622D01*
X146399047Y-84686622D01*
X146400483Y-84787896D01*
X146409533Y-84895095D01*
X146430059Y-84968488D01*
X146465666Y-85026454D01*
X146563641Y-85110490D01*
X146699564Y-85159032D01*
X146848308Y-85161802D01*
X146992441Y-85118713D01*
X147114527Y-85029678D01*
X147154024Y-84979616D01*
X147180705Y-84916628D01*
X147196134Y-84825759D01*
X147205228Y-84688519D01*
X147216900Y-84431482D01*
X146399047Y-84431482D01*
X146399047Y-84686622D01*
X146094645Y-84686622D01*
X146093095Y-84591663D01*
X146091886Y-84301725D01*
X146090874Y-83474522D01*
X146204411Y-83474522D01*
X146217658Y-83474536D01*
X146276189Y-83478689D01*
X146309310Y-83500915D01*
X146328680Y-83556579D01*
X146345961Y-83661048D01*
X146373973Y-83847574D01*
X147216900Y-83847574D01*
X148373871Y-83847574D01*
X148394500Y-83693487D01*
X148404162Y-83623904D01*
X148422159Y-83530827D01*
X148447072Y-83481368D01*
X148488302Y-83461777D01*
X148555245Y-83458302D01*
X148669801Y-83458302D01*
X148669801Y-84824670D01*
G37*
G36*
X142624672Y-83346608D02*
G01*
X142787203Y-83349867D01*
X142908286Y-83357419D01*
X143002769Y-83370982D01*
X143085502Y-83392276D01*
X143171333Y-83423022D01*
X143324272Y-83498811D01*
X143516063Y-83647986D01*
X143667738Y-83834974D01*
X143767607Y-84047533D01*
X143774214Y-84069115D01*
X143818913Y-84287950D01*
X143834518Y-84549712D01*
X143827101Y-84750882D01*
X143778686Y-85035337D01*
X143684678Y-85274216D01*
X143544379Y-85468182D01*
X143357091Y-85617894D01*
X143122118Y-85724013D01*
X142838763Y-85787200D01*
X142506327Y-85808115D01*
X142268535Y-85800018D01*
X142029748Y-85766764D01*
X141830127Y-85704113D01*
X141657785Y-85608124D01*
X141500834Y-85474857D01*
X141414992Y-85383369D01*
X141322374Y-85259058D01*
X141258525Y-85127208D01*
X141218759Y-84973678D01*
X141198392Y-84784328D01*
X141193635Y-84582977D01*
X141506105Y-84582977D01*
X141547810Y-84772533D01*
X141589961Y-84861956D01*
X141689621Y-84986761D01*
X141829166Y-85079597D01*
X142013761Y-85142632D01*
X142248572Y-85178031D01*
X142538766Y-85187958D01*
X142680888Y-85184389D01*
X142926161Y-85160157D01*
X143120102Y-85110673D01*
X143269492Y-85032947D01*
X143381111Y-84923988D01*
X143461739Y-84780804D01*
X143466675Y-84768467D01*
X143498574Y-84657241D01*
X143511234Y-84554171D01*
X143503982Y-84482198D01*
X143459636Y-84340198D01*
X143386207Y-84209817D01*
X143296761Y-84117653D01*
X143208610Y-84061704D01*
X143116829Y-84018371D01*
X143014190Y-83989316D01*
X142887214Y-83971867D01*
X142722419Y-83963355D01*
X142506327Y-83961112D01*
X142482838Y-83961117D01*
X142301903Y-83962051D01*
X142170092Y-83965903D01*
X142073214Y-83974555D01*
X141997080Y-83989889D01*
X141927499Y-84013789D01*
X141850282Y-84048135D01*
X141736022Y-84114987D01*
X141603584Y-84246125D01*
X141525821Y-84404815D01*
X141506105Y-84582977D01*
X141193635Y-84582977D01*
X141192738Y-84545020D01*
X141192926Y-84469267D01*
X141195542Y-84320184D01*
X141203433Y-84211466D01*
X141219358Y-84125672D01*
X141246074Y-84045358D01*
X141286340Y-83953084D01*
X141293719Y-83937377D01*
X141432295Y-83718825D01*
X141616063Y-83546774D01*
X141843954Y-83422239D01*
X141904419Y-83399085D01*
X141983152Y-83375084D01*
X142068031Y-83359465D01*
X142173735Y-83350539D01*
X142314941Y-83346617D01*
X142506327Y-83346008D01*
X142624672Y-83346608D01*
G37*
G36*
X143734014Y-87715965D02*
G01*
X143768896Y-87848324D01*
X143806862Y-88023009D01*
X143832942Y-88178225D01*
X143842159Y-88264326D01*
X143848563Y-88551877D01*
X143822053Y-88839789D01*
X143764798Y-89098758D01*
X143723599Y-89207684D01*
X143603744Y-89399180D01*
X143441212Y-89549545D01*
X143243587Y-89655311D01*
X143018452Y-89713005D01*
X142773390Y-89719158D01*
X142515985Y-89670298D01*
X142403377Y-89627579D01*
X142266407Y-89540843D01*
X142147009Y-89415993D01*
X142040333Y-89246345D01*
X141941535Y-89025213D01*
X141845767Y-88745914D01*
X141798925Y-88603621D01*
X141715193Y-88399702D01*
X141625877Y-88251375D01*
X141525897Y-88152735D01*
X141410175Y-88097880D01*
X141273632Y-88080907D01*
X141111901Y-88106121D01*
X140979371Y-88185555D01*
X140870992Y-88323374D01*
X140860443Y-88343891D01*
X140826290Y-88466198D01*
X140810204Y-88635334D01*
X140812808Y-88838580D01*
X140834726Y-89063215D01*
X140841401Y-89113005D01*
X140853664Y-89174987D01*
X140877929Y-89213872D01*
X140927121Y-89238511D01*
X141014164Y-89257752D01*
X141151985Y-89280446D01*
X141201438Y-89289326D01*
X141251538Y-89310047D01*
X141270607Y-89355130D01*
X141273632Y-89444829D01*
X141273632Y-89589336D01*
X140629877Y-89589336D01*
X140596747Y-89483909D01*
X140516606Y-89185871D01*
X140461457Y-88853753D01*
X140447906Y-88546780D01*
X140475018Y-88269758D01*
X140541859Y-88027493D01*
X140647494Y-87824791D01*
X140790988Y-87666459D01*
X140971407Y-87557302D01*
X141137867Y-87506990D01*
X141361015Y-87487527D01*
X141583544Y-87514665D01*
X141788447Y-87585963D01*
X141958719Y-87698983D01*
X141989542Y-87728130D01*
X142069743Y-87820072D01*
X142143568Y-87933896D01*
X142216375Y-88079908D01*
X142293526Y-88268413D01*
X142380381Y-88509718D01*
X142431669Y-88653295D01*
X142484677Y-88791667D01*
X142529821Y-88899488D01*
X142560887Y-88961223D01*
X142630218Y-89038047D01*
X142765437Y-89110101D01*
X142935043Y-89135186D01*
X142940373Y-89135162D01*
X143118417Y-89103843D01*
X143267403Y-89015264D01*
X143382189Y-88872445D01*
X143396615Y-88846487D01*
X143426852Y-88782544D01*
X143446219Y-88715374D01*
X143457035Y-88629569D01*
X143461619Y-88509721D01*
X143462293Y-88340422D01*
X143461417Y-88212081D01*
X143455562Y-88052364D01*
X143439671Y-87941448D01*
X143408535Y-87869432D01*
X143356949Y-87826416D01*
X143279702Y-87802500D01*
X143171589Y-87787783D01*
X142960478Y-87765175D01*
X142960478Y-87480780D01*
X143664692Y-87480780D01*
X143734014Y-87715965D01*
G37*
G36*
X145519518Y-69314944D02*
G01*
X145588012Y-69323495D01*
X145619934Y-69357991D01*
X145637122Y-69436399D01*
X145638795Y-69446738D01*
X145656283Y-69549098D01*
X145671649Y-69631035D01*
X145686618Y-69704023D01*
X146762480Y-69704023D01*
X146821299Y-69704036D01*
X147114755Y-69704631D01*
X147352375Y-69706361D01*
X147541830Y-69709560D01*
X147690790Y-69714560D01*
X147806926Y-69721694D01*
X147897906Y-69731295D01*
X147971403Y-69743695D01*
X148035085Y-69759227D01*
X148188050Y-69819387D01*
X148369039Y-69949428D01*
X148515586Y-70133134D01*
X148626666Y-70369122D01*
X148701251Y-70656011D01*
X148714729Y-70770114D01*
X148719400Y-70966005D01*
X148708795Y-71180630D01*
X148684416Y-71388507D01*
X148647763Y-71564152D01*
X148622444Y-71641954D01*
X148550544Y-71783375D01*
X148437559Y-71925595D01*
X148427887Y-71936179D01*
X148362687Y-72006216D01*
X148302863Y-72063544D01*
X148241392Y-72109497D01*
X148171247Y-72145412D01*
X148085404Y-72172623D01*
X147976837Y-72192466D01*
X147838520Y-72206276D01*
X147663429Y-72215390D01*
X147444538Y-72221141D01*
X147174823Y-72224867D01*
X146847257Y-72227902D01*
X145689719Y-72238014D01*
X145672440Y-72325361D01*
X145671108Y-72332140D01*
X145653044Y-72428472D01*
X145633899Y-72536079D01*
X145629092Y-72563105D01*
X145609753Y-72628505D01*
X145572097Y-72651569D01*
X145494922Y-72649617D01*
X145377208Y-72639783D01*
X145368367Y-72047766D01*
X145359525Y-71455748D01*
X145488544Y-71455748D01*
X145520158Y-71455957D01*
X145588276Y-71464607D01*
X145620012Y-71499149D01*
X145637122Y-71577395D01*
X145638731Y-71587334D01*
X145656401Y-71690507D01*
X145672134Y-71773963D01*
X145687588Y-71848884D01*
X147907476Y-71828800D01*
X148058448Y-71740050D01*
X148187273Y-71641156D01*
X148283938Y-71503356D01*
X148339532Y-71325969D01*
X148357779Y-71101046D01*
X148357785Y-71098419D01*
X148352450Y-70959230D01*
X148338084Y-70829183D01*
X148317742Y-70736112D01*
X148267653Y-70639103D01*
X148163942Y-70518010D01*
X148034894Y-70416903D01*
X147901663Y-70355150D01*
X147837940Y-70345777D01*
X147712607Y-70337196D01*
X147533596Y-70330212D01*
X147306675Y-70324996D01*
X147037610Y-70321719D01*
X146732169Y-70320552D01*
X145686618Y-70320371D01*
X145671649Y-70393359D01*
X145670341Y-70399830D01*
X145654377Y-70486038D01*
X145637122Y-70587995D01*
X145632313Y-70616643D01*
X145613062Y-70680288D01*
X145572662Y-70705299D01*
X145489276Y-70709643D01*
X145360989Y-70709643D01*
X145360989Y-69314751D01*
X145489276Y-69314751D01*
X145519518Y-69314944D01*
G37*
G36*
X148304238Y-86443995D02*
G01*
X148428123Y-86450321D01*
X148516824Y-86460747D01*
X148555500Y-86473926D01*
X148557048Y-86476782D01*
X148575921Y-86528876D01*
X148604321Y-86623195D01*
X148636727Y-86741551D01*
X148669897Y-86903964D01*
X148695159Y-87142279D01*
X148700005Y-87389622D01*
X148684200Y-87622536D01*
X148647508Y-87817562D01*
X148581338Y-87985123D01*
X148459176Y-88157695D01*
X148299594Y-88284649D01*
X148110222Y-88358305D01*
X147957911Y-88378663D01*
X147745264Y-88360845D01*
X147554673Y-88289642D01*
X147395398Y-88169004D01*
X147276700Y-88002880D01*
X147254834Y-87954028D01*
X147211933Y-87842428D01*
X147162452Y-87700740D01*
X147113286Y-87548144D01*
X147112056Y-87544157D01*
X147041286Y-87339388D01*
X146971180Y-87192173D01*
X146896407Y-87095589D01*
X146811633Y-87042715D01*
X146711525Y-87026629D01*
X146600755Y-87045921D01*
X146493886Y-87118549D01*
X146420322Y-87240294D01*
X146382946Y-87406007D01*
X146384642Y-87610537D01*
X146390850Y-87672026D01*
X146405862Y-87795977D01*
X146424250Y-87872996D01*
X146452972Y-87915901D01*
X146498987Y-87937513D01*
X146569252Y-87950651D01*
X146666506Y-87966502D01*
X146753855Y-87987167D01*
X146799852Y-88015241D01*
X146817739Y-88060257D01*
X146820759Y-88131752D01*
X146820759Y-88259324D01*
X146511782Y-88259324D01*
X146407358Y-88259396D01*
X146301315Y-88254831D01*
X146228902Y-88235958D01*
X146180553Y-88192976D01*
X146146700Y-88116088D01*
X146117775Y-87995493D01*
X146084213Y-87821393D01*
X146071776Y-87749366D01*
X146048163Y-87486626D01*
X146057335Y-87233782D01*
X146097378Y-87003313D01*
X146166377Y-86807699D01*
X146262419Y-86659420D01*
X146281906Y-86639189D01*
X146426001Y-86539020D01*
X146604287Y-86477456D01*
X146798491Y-86458816D01*
X146990342Y-86487416D01*
X147001539Y-86490744D01*
X147132454Y-86543952D01*
X147243104Y-86621991D01*
X147339100Y-86732778D01*
X147426052Y-86884228D01*
X147509573Y-87084257D01*
X147595272Y-87340779D01*
X147604336Y-87369826D01*
X147667766Y-87549187D01*
X147730484Y-87673914D01*
X147799626Y-87752495D01*
X147882329Y-87793418D01*
X147985732Y-87805173D01*
X147996284Y-87805073D01*
X148128158Y-87781043D01*
X148226702Y-87712141D01*
X148294176Y-87594544D01*
X148332843Y-87424431D01*
X148344965Y-87197977D01*
X148344896Y-87159597D01*
X148342900Y-87000034D01*
X148333803Y-86891840D01*
X148311660Y-86823724D01*
X148270529Y-86784396D01*
X148204465Y-86762565D01*
X148107526Y-86746941D01*
X147907476Y-86718455D01*
X147887526Y-86442721D01*
X148211870Y-86442721D01*
X148304238Y-86443995D01*
G37*
%TD*%
M02*
