%TF.GenerationSoftware,KiCad,Pcbnew,7.0.7*%
%TF.CreationDate,2023-09-08T13:53:37-04:00*%
%TF.ProjectId,Temps_South_DCT_HSK,54656d70-735f-4536-9f75-74685f444354,rev?*%
%TF.SameCoordinates,Original*%
%TF.FileFunction,Legend,Bot*%
%TF.FilePolarity,Positive*%
%FSLAX46Y46*%
G04 Gerber Fmt 4.6, Leading zero omitted, Abs format (unit mm)*
G04 Created by KiCad (PCBNEW 7.0.7) date 2023-09-08 13:53:37*
%MOMM*%
%LPD*%
G01*
G04 APERTURE LIST*
%ADD10C,0.254000*%
%ADD11C,0.500000*%
G04 APERTURE END LIST*
D10*
X92680002Y-50830000D02*
G75*
G03*
X92680002Y-50830000I-1J0D01*
G01*
X92690001Y-80020000D02*
G75*
G03*
X92690001Y-80020000I-1J0D01*
G01*
D11*
X135873619Y-51964101D02*
X135373619Y-52130767D01*
X135373619Y-52130767D02*
X134540286Y-52130767D01*
X134540286Y-52130767D02*
X134206952Y-51964101D01*
X134206952Y-51964101D02*
X134040286Y-51797434D01*
X134040286Y-51797434D02*
X133873619Y-51464101D01*
X133873619Y-51464101D02*
X133873619Y-51130767D01*
X133873619Y-51130767D02*
X134040286Y-50797434D01*
X134040286Y-50797434D02*
X134206952Y-50630767D01*
X134206952Y-50630767D02*
X134540286Y-50464101D01*
X134540286Y-50464101D02*
X135206952Y-50297434D01*
X135206952Y-50297434D02*
X135540286Y-50130767D01*
X135540286Y-50130767D02*
X135706952Y-49964101D01*
X135706952Y-49964101D02*
X135873619Y-49630767D01*
X135873619Y-49630767D02*
X135873619Y-49297434D01*
X135873619Y-49297434D02*
X135706952Y-48964101D01*
X135706952Y-48964101D02*
X135540286Y-48797434D01*
X135540286Y-48797434D02*
X135206952Y-48630767D01*
X135206952Y-48630767D02*
X134373619Y-48630767D01*
X134373619Y-48630767D02*
X133873619Y-48797434D01*
X131873619Y-52130767D02*
X132206953Y-51964101D01*
X132206953Y-51964101D02*
X132373619Y-51797434D01*
X132373619Y-51797434D02*
X132540286Y-51464101D01*
X132540286Y-51464101D02*
X132540286Y-50464101D01*
X132540286Y-50464101D02*
X132373619Y-50130767D01*
X132373619Y-50130767D02*
X132206953Y-49964101D01*
X132206953Y-49964101D02*
X131873619Y-49797434D01*
X131873619Y-49797434D02*
X131373619Y-49797434D01*
X131373619Y-49797434D02*
X131040286Y-49964101D01*
X131040286Y-49964101D02*
X130873619Y-50130767D01*
X130873619Y-50130767D02*
X130706953Y-50464101D01*
X130706953Y-50464101D02*
X130706953Y-51464101D01*
X130706953Y-51464101D02*
X130873619Y-51797434D01*
X130873619Y-51797434D02*
X131040286Y-51964101D01*
X131040286Y-51964101D02*
X131373619Y-52130767D01*
X131373619Y-52130767D02*
X131873619Y-52130767D01*
X127706952Y-49797434D02*
X127706952Y-52130767D01*
X129206952Y-49797434D02*
X129206952Y-51630767D01*
X129206952Y-51630767D02*
X129040286Y-51964101D01*
X129040286Y-51964101D02*
X128706952Y-52130767D01*
X128706952Y-52130767D02*
X128206952Y-52130767D01*
X128206952Y-52130767D02*
X127873619Y-51964101D01*
X127873619Y-51964101D02*
X127706952Y-51797434D01*
X126540285Y-49797434D02*
X125206952Y-49797434D01*
X126040285Y-48630767D02*
X126040285Y-51630767D01*
X126040285Y-51630767D02*
X125873619Y-51964101D01*
X125873619Y-51964101D02*
X125540285Y-52130767D01*
X125540285Y-52130767D02*
X125206952Y-52130767D01*
X124040285Y-52130767D02*
X124040285Y-48630767D01*
X122540285Y-52130767D02*
X122540285Y-50297434D01*
X122540285Y-50297434D02*
X122706952Y-49964101D01*
X122706952Y-49964101D02*
X123040285Y-49797434D01*
X123040285Y-49797434D02*
X123540285Y-49797434D01*
X123540285Y-49797434D02*
X123873619Y-49964101D01*
X123873619Y-49964101D02*
X124040285Y-50130767D01*
%TO.C,G\u002A\u002A\u002A*%
G36*
X138347438Y-79381594D02*
G01*
X138471323Y-79387920D01*
X138560024Y-79398346D01*
X138598700Y-79411525D01*
X138600248Y-79414381D01*
X138619121Y-79466475D01*
X138647521Y-79560794D01*
X138679927Y-79679150D01*
X138713097Y-79841563D01*
X138738359Y-80079878D01*
X138743205Y-80327221D01*
X138727400Y-80560135D01*
X138690708Y-80755161D01*
X138624538Y-80922722D01*
X138502376Y-81095294D01*
X138342794Y-81222248D01*
X138153422Y-81295904D01*
X138001111Y-81316262D01*
X137788464Y-81298444D01*
X137597873Y-81227241D01*
X137438598Y-81106603D01*
X137319900Y-80940479D01*
X137298034Y-80891627D01*
X137255133Y-80780027D01*
X137205652Y-80638339D01*
X137156486Y-80485743D01*
X137155256Y-80481756D01*
X137084486Y-80276987D01*
X137014380Y-80129772D01*
X136939607Y-80033188D01*
X136854833Y-79980314D01*
X136754725Y-79964228D01*
X136643955Y-79983520D01*
X136537086Y-80056148D01*
X136463522Y-80177893D01*
X136426146Y-80343606D01*
X136427842Y-80548136D01*
X136434050Y-80609625D01*
X136449062Y-80733576D01*
X136467450Y-80810595D01*
X136496172Y-80853500D01*
X136542187Y-80875112D01*
X136612452Y-80888250D01*
X136709706Y-80904101D01*
X136797055Y-80924766D01*
X136843052Y-80952840D01*
X136860939Y-80997856D01*
X136863959Y-81069351D01*
X136863959Y-81196923D01*
X136554982Y-81196923D01*
X136450558Y-81196995D01*
X136344515Y-81192430D01*
X136272102Y-81173557D01*
X136223753Y-81130575D01*
X136189900Y-81053687D01*
X136160975Y-80933092D01*
X136127413Y-80758992D01*
X136114976Y-80686965D01*
X136091363Y-80424225D01*
X136100535Y-80171381D01*
X136140578Y-79940912D01*
X136209577Y-79745298D01*
X136305619Y-79597019D01*
X136325106Y-79576788D01*
X136469201Y-79476619D01*
X136647487Y-79415055D01*
X136841691Y-79396415D01*
X137033542Y-79425015D01*
X137044739Y-79428343D01*
X137175654Y-79481551D01*
X137286304Y-79559590D01*
X137382300Y-79670377D01*
X137469252Y-79821827D01*
X137552773Y-80021856D01*
X137638472Y-80278378D01*
X137647536Y-80307425D01*
X137710966Y-80486786D01*
X137773684Y-80611513D01*
X137842826Y-80690094D01*
X137925529Y-80731017D01*
X138028932Y-80742772D01*
X138039484Y-80742672D01*
X138171358Y-80718642D01*
X138269902Y-80649740D01*
X138337376Y-80532143D01*
X138376043Y-80362030D01*
X138388165Y-80135576D01*
X138388096Y-80097196D01*
X138386100Y-79937633D01*
X138377003Y-79829439D01*
X138354860Y-79761323D01*
X138313729Y-79721995D01*
X138247665Y-79700164D01*
X138150726Y-79684540D01*
X137950676Y-79656054D01*
X137930726Y-79380320D01*
X138255070Y-79380320D01*
X138347438Y-79381594D01*
G37*
G36*
X135562718Y-62252543D02*
G01*
X135631212Y-62261094D01*
X135663134Y-62295590D01*
X135680322Y-62373998D01*
X135681995Y-62384337D01*
X135699483Y-62486697D01*
X135714849Y-62568634D01*
X135729818Y-62641622D01*
X136805680Y-62641622D01*
X136864499Y-62641635D01*
X137157955Y-62642230D01*
X137395575Y-62643960D01*
X137585030Y-62647159D01*
X137733990Y-62652159D01*
X137850126Y-62659293D01*
X137941106Y-62668894D01*
X138014603Y-62681294D01*
X138078285Y-62696826D01*
X138231250Y-62756986D01*
X138412239Y-62887027D01*
X138558786Y-63070733D01*
X138669866Y-63306721D01*
X138744451Y-63593610D01*
X138757929Y-63707713D01*
X138762600Y-63903604D01*
X138751995Y-64118229D01*
X138727616Y-64326106D01*
X138690963Y-64501751D01*
X138665644Y-64579553D01*
X138593744Y-64720974D01*
X138480759Y-64863194D01*
X138471087Y-64873778D01*
X138405887Y-64943815D01*
X138346063Y-65001143D01*
X138284592Y-65047096D01*
X138214447Y-65083011D01*
X138128604Y-65110222D01*
X138020037Y-65130065D01*
X137881720Y-65143875D01*
X137706629Y-65152989D01*
X137487738Y-65158740D01*
X137218023Y-65162466D01*
X136890457Y-65165501D01*
X135732919Y-65175613D01*
X135715640Y-65262960D01*
X135714308Y-65269739D01*
X135696244Y-65366071D01*
X135677099Y-65473678D01*
X135672292Y-65500704D01*
X135652953Y-65566104D01*
X135615297Y-65589168D01*
X135538122Y-65587216D01*
X135420408Y-65577382D01*
X135411567Y-64985365D01*
X135402725Y-64393347D01*
X135531744Y-64393347D01*
X135563358Y-64393556D01*
X135631476Y-64402206D01*
X135663212Y-64436748D01*
X135680322Y-64514994D01*
X135681931Y-64524933D01*
X135699601Y-64628106D01*
X135715334Y-64711562D01*
X135730788Y-64786483D01*
X137950676Y-64766399D01*
X138101648Y-64677649D01*
X138230473Y-64578755D01*
X138327138Y-64440955D01*
X138382732Y-64263568D01*
X138400979Y-64038645D01*
X138400985Y-64036018D01*
X138395650Y-63896829D01*
X138381284Y-63766782D01*
X138360942Y-63673711D01*
X138310853Y-63576702D01*
X138207142Y-63455609D01*
X138078094Y-63354502D01*
X137944863Y-63292749D01*
X137881140Y-63283376D01*
X137755807Y-63274795D01*
X137576796Y-63267811D01*
X137349875Y-63262595D01*
X137080810Y-63259318D01*
X136775369Y-63258151D01*
X135729818Y-63257970D01*
X135714849Y-63330958D01*
X135713541Y-63337429D01*
X135697577Y-63423637D01*
X135680322Y-63525594D01*
X135675513Y-63554242D01*
X135656262Y-63617887D01*
X135615862Y-63642898D01*
X135532476Y-63647242D01*
X135404189Y-63647242D01*
X135404189Y-62252350D01*
X135532476Y-62252350D01*
X135562718Y-62252543D01*
G37*
G36*
X133777214Y-80653564D02*
G01*
X133812096Y-80785923D01*
X133850062Y-80960608D01*
X133876142Y-81115824D01*
X133885359Y-81201925D01*
X133891763Y-81489476D01*
X133865253Y-81777388D01*
X133807998Y-82036357D01*
X133766799Y-82145283D01*
X133646944Y-82336779D01*
X133484412Y-82487144D01*
X133286787Y-82592910D01*
X133061652Y-82650604D01*
X132816590Y-82656757D01*
X132559185Y-82607897D01*
X132446577Y-82565178D01*
X132309607Y-82478442D01*
X132190209Y-82353592D01*
X132083533Y-82183944D01*
X131984735Y-81962812D01*
X131888967Y-81683513D01*
X131842125Y-81541220D01*
X131758393Y-81337301D01*
X131669077Y-81188974D01*
X131569097Y-81090334D01*
X131453375Y-81035479D01*
X131316832Y-81018506D01*
X131155101Y-81043720D01*
X131022571Y-81123154D01*
X130914192Y-81260973D01*
X130903643Y-81281490D01*
X130869490Y-81403797D01*
X130853404Y-81572933D01*
X130856008Y-81776179D01*
X130877926Y-82000814D01*
X130884601Y-82050604D01*
X130896864Y-82112586D01*
X130921129Y-82151471D01*
X130970321Y-82176110D01*
X131057364Y-82195351D01*
X131195185Y-82218045D01*
X131244638Y-82226925D01*
X131294738Y-82247646D01*
X131313807Y-82292729D01*
X131316832Y-82382428D01*
X131316832Y-82526935D01*
X130673077Y-82526935D01*
X130639947Y-82421508D01*
X130559806Y-82123470D01*
X130504657Y-81791352D01*
X130491106Y-81484379D01*
X130518218Y-81207357D01*
X130585059Y-80965092D01*
X130690694Y-80762390D01*
X130834188Y-80604058D01*
X131014607Y-80494901D01*
X131181067Y-80444589D01*
X131404215Y-80425126D01*
X131626744Y-80452264D01*
X131831647Y-80523562D01*
X132001919Y-80636582D01*
X132032742Y-80665729D01*
X132112943Y-80757671D01*
X132186768Y-80871495D01*
X132259575Y-81017507D01*
X132336726Y-81206012D01*
X132423581Y-81447317D01*
X132474869Y-81590894D01*
X132527877Y-81729266D01*
X132573021Y-81837087D01*
X132604087Y-81898822D01*
X132673418Y-81975646D01*
X132808637Y-82047700D01*
X132978243Y-82072785D01*
X132983573Y-82072761D01*
X133161617Y-82041442D01*
X133310603Y-81952863D01*
X133425389Y-81810044D01*
X133439815Y-81784086D01*
X133470052Y-81720143D01*
X133489419Y-81652973D01*
X133500235Y-81567168D01*
X133504819Y-81447320D01*
X133505493Y-81278021D01*
X133504617Y-81149680D01*
X133498762Y-80989963D01*
X133482871Y-80879047D01*
X133451735Y-80807031D01*
X133400149Y-80764015D01*
X133322902Y-80740099D01*
X133214789Y-80725382D01*
X133003678Y-80702774D01*
X133003678Y-80418379D01*
X133707892Y-80418379D01*
X133777214Y-80653564D01*
G37*
G36*
X132667872Y-76284207D02*
G01*
X132830403Y-76287466D01*
X132951486Y-76295018D01*
X133045969Y-76308581D01*
X133128702Y-76329875D01*
X133214533Y-76360621D01*
X133367472Y-76436410D01*
X133559263Y-76585585D01*
X133710938Y-76772573D01*
X133810807Y-76985132D01*
X133817414Y-77006714D01*
X133862113Y-77225549D01*
X133877718Y-77487311D01*
X133870301Y-77688481D01*
X133821886Y-77972936D01*
X133727878Y-78211815D01*
X133587579Y-78405781D01*
X133400291Y-78555493D01*
X133165318Y-78661612D01*
X132881963Y-78724799D01*
X132549527Y-78745714D01*
X132311735Y-78737617D01*
X132072948Y-78704363D01*
X131873327Y-78641712D01*
X131700985Y-78545723D01*
X131544034Y-78412456D01*
X131458192Y-78320968D01*
X131365574Y-78196657D01*
X131301725Y-78064807D01*
X131261959Y-77911277D01*
X131241592Y-77721927D01*
X131236835Y-77520576D01*
X131549305Y-77520576D01*
X131591010Y-77710132D01*
X131633161Y-77799555D01*
X131732821Y-77924360D01*
X131872366Y-78017196D01*
X132056961Y-78080231D01*
X132291772Y-78115630D01*
X132581966Y-78125557D01*
X132724088Y-78121988D01*
X132969361Y-78097756D01*
X133163302Y-78048272D01*
X133312692Y-77970546D01*
X133424311Y-77861587D01*
X133504939Y-77718403D01*
X133509875Y-77706066D01*
X133541774Y-77594840D01*
X133554434Y-77491770D01*
X133547182Y-77419797D01*
X133502836Y-77277797D01*
X133429407Y-77147416D01*
X133339961Y-77055252D01*
X133251810Y-76999303D01*
X133160029Y-76955970D01*
X133057390Y-76926915D01*
X132930414Y-76909466D01*
X132765619Y-76900954D01*
X132549527Y-76898711D01*
X132526038Y-76898716D01*
X132345103Y-76899650D01*
X132213292Y-76903502D01*
X132116414Y-76912154D01*
X132040280Y-76927488D01*
X131970699Y-76951388D01*
X131893482Y-76985734D01*
X131779222Y-77052586D01*
X131646784Y-77183724D01*
X131569021Y-77342414D01*
X131549305Y-77520576D01*
X131236835Y-77520576D01*
X131235938Y-77482619D01*
X131236126Y-77406866D01*
X131238742Y-77257783D01*
X131246633Y-77149065D01*
X131262558Y-77063271D01*
X131289274Y-76982957D01*
X131329540Y-76890683D01*
X131336919Y-76874976D01*
X131475495Y-76656424D01*
X131659263Y-76484373D01*
X131887154Y-76359838D01*
X131947619Y-76336684D01*
X132026352Y-76312683D01*
X132111231Y-76297064D01*
X132216935Y-76288138D01*
X132358141Y-76284216D01*
X132549527Y-76283607D01*
X132667872Y-76284207D01*
G37*
G36*
X138713001Y-77762269D02*
G01*
X138591353Y-77752201D01*
X138576868Y-77750989D01*
X138514329Y-77741711D01*
X138479172Y-77716850D01*
X138459070Y-77660214D01*
X138441694Y-77555607D01*
X138413682Y-77369081D01*
X137536747Y-77369081D01*
X137553656Y-77519098D01*
X137557780Y-77549381D01*
X137584965Y-77647587D01*
X137637162Y-77733841D01*
X137721819Y-77814189D01*
X137846383Y-77894676D01*
X138018304Y-77981348D01*
X138245028Y-78080249D01*
X138696781Y-78268674D01*
X138705833Y-78694740D01*
X138714884Y-79120805D01*
X138599387Y-79120805D01*
X138563761Y-79120296D01*
X138509348Y-79110803D01*
X138476747Y-79078450D01*
X138456289Y-79009362D01*
X138438307Y-78889668D01*
X138418286Y-78739629D01*
X138129417Y-78619895D01*
X138083553Y-78600375D01*
X137924447Y-78526534D01*
X137770455Y-78447247D01*
X137649397Y-78376613D01*
X137458246Y-78253066D01*
X137396287Y-78368332D01*
X137372378Y-78405394D01*
X137290110Y-78496329D01*
X137192249Y-78573770D01*
X137096781Y-78626048D01*
X136900723Y-78684953D01*
X136706973Y-78681837D01*
X136523152Y-78617441D01*
X136356881Y-78492506D01*
X136298753Y-78430947D01*
X136248892Y-78365610D01*
X136210332Y-78292774D01*
X136181624Y-78204243D01*
X136161317Y-78091823D01*
X136147960Y-77947316D01*
X136140103Y-77762527D01*
X136137845Y-77624221D01*
X136442247Y-77624221D01*
X136443683Y-77725495D01*
X136452733Y-77832694D01*
X136473259Y-77906087D01*
X136508866Y-77964053D01*
X136606841Y-78048089D01*
X136742764Y-78096631D01*
X136891508Y-78099401D01*
X137035641Y-78056312D01*
X137157727Y-77967277D01*
X137197224Y-77917215D01*
X137223905Y-77854227D01*
X137239334Y-77763358D01*
X137248428Y-77626118D01*
X137260100Y-77369081D01*
X136442247Y-77369081D01*
X136442247Y-77624221D01*
X136137845Y-77624221D01*
X136136295Y-77529262D01*
X136135086Y-77239324D01*
X136134074Y-76412121D01*
X136247611Y-76412121D01*
X136260858Y-76412135D01*
X136319389Y-76416288D01*
X136352510Y-76438514D01*
X136371880Y-76494178D01*
X136389161Y-76598647D01*
X136417173Y-76785173D01*
X137260100Y-76785173D01*
X138417071Y-76785173D01*
X138437700Y-76631086D01*
X138447362Y-76561503D01*
X138465359Y-76468426D01*
X138490272Y-76418967D01*
X138531502Y-76399376D01*
X138598445Y-76395901D01*
X138713001Y-76395901D01*
X138713001Y-77762269D01*
G37*
G36*
X132370937Y-68244935D02*
G01*
X132733669Y-68283625D01*
X133046470Y-68363446D01*
X133309733Y-68484668D01*
X133523853Y-68647564D01*
X133689223Y-68852404D01*
X133806237Y-69099461D01*
X133875290Y-69389004D01*
X133887511Y-69514392D01*
X133893174Y-69684299D01*
X133888724Y-69843155D01*
X133866109Y-70039604D01*
X133792794Y-70327876D01*
X133673738Y-70572041D01*
X133507870Y-70773019D01*
X133294121Y-70931732D01*
X133031421Y-71049100D01*
X132718701Y-71126044D01*
X132354891Y-71163484D01*
X132025870Y-71164018D01*
X131680640Y-71127635D01*
X131375384Y-71052942D01*
X131114093Y-70941301D01*
X130900758Y-70794072D01*
X130739371Y-70612617D01*
X130643521Y-70443843D01*
X130549516Y-70185479D01*
X130498561Y-69907508D01*
X130490238Y-69632963D01*
X130857341Y-69632963D01*
X130858990Y-69813917D01*
X130891774Y-69978991D01*
X130949562Y-70086347D01*
X131052043Y-70204289D01*
X131179131Y-70309986D01*
X131312305Y-70385534D01*
X131424395Y-70424810D01*
X131648994Y-70475310D01*
X131907882Y-70507082D01*
X132183407Y-70518959D01*
X132457916Y-70509771D01*
X132713757Y-70478350D01*
X132949359Y-70421346D01*
X133172554Y-70325796D01*
X133341101Y-70198226D01*
X133456424Y-70037791D01*
X133473964Y-70000091D01*
X133526951Y-69808675D01*
X133531223Y-69609536D01*
X133488129Y-69420932D01*
X133399019Y-69261123D01*
X133365340Y-69221835D01*
X133217531Y-69096481D01*
X133029750Y-69001902D01*
X132796988Y-68936567D01*
X132514233Y-68898945D01*
X132176475Y-68887505D01*
X131873876Y-68898329D01*
X131589408Y-68934625D01*
X131356500Y-68998180D01*
X131170534Y-69090767D01*
X131026892Y-69214164D01*
X130920953Y-69370145D01*
X130885491Y-69463974D01*
X130857341Y-69632963D01*
X130490238Y-69632963D01*
X130489903Y-69621897D01*
X130522790Y-69340611D01*
X130596470Y-69075619D01*
X130710191Y-68838887D01*
X130863200Y-68642381D01*
X131021147Y-68511638D01*
X131247276Y-68390374D01*
X131518171Y-68305559D01*
X131837495Y-68256099D01*
X132176475Y-68242229D01*
X132208914Y-68240902D01*
X132370937Y-68244935D01*
G37*
G36*
X133847100Y-86228936D02*
G01*
X133725586Y-86218868D01*
X133658525Y-86210773D01*
X133617460Y-86189107D01*
X133595009Y-86137366D01*
X133577135Y-86038493D01*
X133565518Y-85978809D01*
X133538642Y-85898212D01*
X133509524Y-85868187D01*
X133468387Y-85877222D01*
X133383180Y-85905496D01*
X133276813Y-85946316D01*
X133084776Y-86024445D01*
X133084776Y-87010886D01*
X133311851Y-87101312D01*
X133538927Y-87191738D01*
X133572128Y-87008443D01*
X133574497Y-86995384D01*
X133594722Y-86897561D01*
X133618107Y-86845749D01*
X133657617Y-86823677D01*
X133726214Y-86815079D01*
X133847100Y-86805011D01*
X133847100Y-88175296D01*
X133725453Y-88165228D01*
X133715954Y-88164437D01*
X133650751Y-88155388D01*
X133614247Y-88131407D01*
X133593719Y-88076078D01*
X133576440Y-87972984D01*
X133549074Y-87790807D01*
X132895214Y-87538317D01*
X132678724Y-87454638D01*
X132425376Y-87356555D01*
X132171898Y-87258282D01*
X131938512Y-87167659D01*
X131745442Y-87092528D01*
X131249530Y-86899228D01*
X131258852Y-86619144D01*
X131262252Y-86516974D01*
X131803422Y-86516974D01*
X131807416Y-86520796D01*
X131855123Y-86544108D01*
X131946711Y-86582505D01*
X132069518Y-86631227D01*
X132210878Y-86685513D01*
X132358127Y-86740605D01*
X132498602Y-86791740D01*
X132619637Y-86834159D01*
X132708569Y-86863101D01*
X132752732Y-86873806D01*
X132761016Y-86851521D01*
X132769091Y-86776242D01*
X132774579Y-86660362D01*
X132776602Y-86516974D01*
X132775112Y-86393147D01*
X132770076Y-86272427D01*
X132762324Y-86190395D01*
X132752732Y-86160141D01*
X132742563Y-86161642D01*
X132680546Y-86179574D01*
X132578395Y-86214001D01*
X132448776Y-86260163D01*
X132304353Y-86313298D01*
X132157789Y-86368647D01*
X132021750Y-86421450D01*
X131908900Y-86466945D01*
X131831902Y-86500373D01*
X131803422Y-86516974D01*
X131262252Y-86516974D01*
X131268173Y-86339060D01*
X132403550Y-85899886D01*
X132752732Y-85764820D01*
X133538927Y-85460713D01*
X133598087Y-85089643D01*
X133847100Y-85089643D01*
X133847100Y-86228936D01*
G37*
G36*
X131373601Y-71438834D02*
G01*
X131388086Y-71440047D01*
X131450625Y-71449325D01*
X131485782Y-71474185D01*
X131505884Y-71530822D01*
X131523260Y-71635428D01*
X131551272Y-71821955D01*
X133551925Y-71821955D01*
X133573945Y-71627319D01*
X133595966Y-71432683D01*
X133847100Y-71432683D01*
X133847100Y-72799051D01*
X133725453Y-72788983D01*
X133710968Y-72787770D01*
X133648429Y-72778492D01*
X133613272Y-72753632D01*
X133593170Y-72696996D01*
X133575794Y-72592389D01*
X133547782Y-72405863D01*
X132646845Y-72405863D01*
X132646845Y-73411482D01*
X133082862Y-73411482D01*
X133106743Y-73411440D01*
X133272726Y-73408601D01*
X133407478Y-73401865D01*
X133499789Y-73392010D01*
X133538449Y-73379815D01*
X133546256Y-73359303D01*
X133562501Y-73285461D01*
X133577321Y-73185179D01*
X133596623Y-73022210D01*
X133847100Y-73022210D01*
X133847100Y-74388578D01*
X133725453Y-74378510D01*
X133710968Y-74377298D01*
X133648429Y-74368020D01*
X133613272Y-74343160D01*
X133593170Y-74286523D01*
X133575794Y-74181916D01*
X133547782Y-73995390D01*
X131551272Y-73995390D01*
X131523260Y-74181916D01*
X131519916Y-74204125D01*
X131502950Y-74299285D01*
X131481127Y-74349274D01*
X131442120Y-74370284D01*
X131373601Y-74378510D01*
X131251954Y-74388578D01*
X131251954Y-73018294D01*
X131372034Y-73028362D01*
X131373529Y-73028487D01*
X131441818Y-73037518D01*
X131481021Y-73060921D01*
X131504626Y-73115197D01*
X131526121Y-73216846D01*
X131560127Y-73395262D01*
X131941289Y-73404402D01*
X132322452Y-73413541D01*
X132322452Y-72405863D01*
X131551272Y-72405863D01*
X131523260Y-72592389D01*
X131519916Y-72614597D01*
X131502950Y-72709758D01*
X131481127Y-72759746D01*
X131442120Y-72780757D01*
X131373601Y-72788983D01*
X131251954Y-72799051D01*
X131251954Y-71428766D01*
X131373601Y-71438834D01*
G37*
G36*
X131373601Y-61123125D02*
G01*
X131388086Y-61124338D01*
X131450625Y-61133616D01*
X131485782Y-61158476D01*
X131505884Y-61215113D01*
X131523260Y-61319720D01*
X131551272Y-61506246D01*
X133551925Y-61506246D01*
X133573945Y-61311610D01*
X133595966Y-61116974D01*
X133847100Y-61116974D01*
X133847100Y-62483342D01*
X133725453Y-62473274D01*
X133710968Y-62472061D01*
X133648429Y-62462783D01*
X133613272Y-62437923D01*
X133593170Y-62381287D01*
X133575794Y-62276680D01*
X133547782Y-62090154D01*
X132646845Y-62090154D01*
X132646845Y-63095773D01*
X133082862Y-63095773D01*
X133106743Y-63095731D01*
X133272726Y-63092892D01*
X133407478Y-63086156D01*
X133499789Y-63076301D01*
X133538449Y-63064107D01*
X133546256Y-63043594D01*
X133562501Y-62969753D01*
X133577321Y-62869471D01*
X133596623Y-62706501D01*
X133847100Y-62706501D01*
X133847100Y-64072870D01*
X133725453Y-64062802D01*
X133710968Y-64061589D01*
X133648429Y-64052311D01*
X133613272Y-64027451D01*
X133593170Y-63970814D01*
X133575794Y-63866207D01*
X133547782Y-63679681D01*
X131551272Y-63679681D01*
X131523260Y-63866207D01*
X131519916Y-63888416D01*
X131502950Y-63983576D01*
X131481127Y-64033565D01*
X131442120Y-64054575D01*
X131373601Y-64062802D01*
X131251954Y-64072870D01*
X131251954Y-62702585D01*
X131373601Y-62712653D01*
X131388086Y-62713865D01*
X131450625Y-62723143D01*
X131485782Y-62748004D01*
X131505884Y-62804640D01*
X131523260Y-62909247D01*
X131551272Y-63095773D01*
X132322452Y-63095773D01*
X132322452Y-62090154D01*
X131551272Y-62090154D01*
X131523260Y-62276680D01*
X131519916Y-62298888D01*
X131502950Y-62394049D01*
X131481127Y-62444037D01*
X131442120Y-62465048D01*
X131373601Y-62473274D01*
X131251954Y-62483342D01*
X131251954Y-61113057D01*
X131373601Y-61123125D01*
G37*
G36*
X136396448Y-70739750D02*
G01*
X136426028Y-70922679D01*
X137512745Y-71333095D01*
X137743969Y-71420433D01*
X137981217Y-71510073D01*
X138194177Y-71590566D01*
X138375567Y-71659157D01*
X138518106Y-71713092D01*
X138614512Y-71749619D01*
X138657503Y-71765983D01*
X138670169Y-71771910D01*
X138693296Y-71796576D01*
X138705586Y-71845873D01*
X138709166Y-71933165D01*
X138706162Y-72071818D01*
X138696781Y-72355181D01*
X137561404Y-72780761D01*
X136426028Y-73206340D01*
X136396448Y-73390009D01*
X136366868Y-73573679D01*
X136116322Y-73573679D01*
X136125198Y-73014100D01*
X136134074Y-72454522D01*
X136247224Y-72454522D01*
X136310837Y-72457903D01*
X136347715Y-72478383D01*
X136370655Y-72531536D01*
X136392455Y-72632938D01*
X136410074Y-72707490D01*
X136436162Y-72779900D01*
X136459079Y-72805612D01*
X136470450Y-72802646D01*
X136536284Y-72781004D01*
X136647692Y-72741934D01*
X136794986Y-72689030D01*
X136968477Y-72625885D01*
X137158476Y-72556093D01*
X137355297Y-72483247D01*
X137549250Y-72410941D01*
X137730646Y-72342768D01*
X137889798Y-72282322D01*
X138017016Y-72233197D01*
X138102613Y-72198986D01*
X138136901Y-72183282D01*
X138120277Y-72172067D01*
X138052053Y-72140993D01*
X137939909Y-72094026D01*
X137793081Y-72034711D01*
X137620805Y-71966591D01*
X137432316Y-71893211D01*
X137236849Y-71818115D01*
X137043640Y-71744848D01*
X136861923Y-71676955D01*
X136700935Y-71617979D01*
X136569910Y-71571465D01*
X136478084Y-71540957D01*
X136434693Y-71530001D01*
X136424320Y-71546080D01*
X136407681Y-71610884D01*
X136392185Y-71708417D01*
X136369893Y-71886833D01*
X136117854Y-71886833D01*
X136117854Y-70556820D01*
X136366868Y-70556820D01*
X136396448Y-70739750D01*
G37*
G36*
X131284393Y-58294133D02*
G01*
X131284403Y-58305331D01*
X131282271Y-58367678D01*
X131267184Y-58407090D01*
X131226399Y-58432072D01*
X131147175Y-58451130D01*
X131016768Y-58472769D01*
X130895121Y-58492327D01*
X130895121Y-59235492D01*
X132206728Y-59235492D01*
X132291541Y-59235521D01*
X132605862Y-59235991D01*
X132862669Y-59236205D01*
X133067891Y-59235072D01*
X133227456Y-59231500D01*
X133347294Y-59224397D01*
X133433334Y-59212671D01*
X133491505Y-59195230D01*
X133527736Y-59170983D01*
X133547957Y-59138837D01*
X133558097Y-59097700D01*
X133564084Y-59046481D01*
X133571848Y-58984087D01*
X133580333Y-58932981D01*
X133600109Y-58872841D01*
X133640305Y-58849890D01*
X133720194Y-58846220D01*
X133847100Y-58846220D01*
X133847100Y-60241112D01*
X133720194Y-60241112D01*
X133673061Y-60240528D01*
X133615941Y-60229205D01*
X133588627Y-60189414D01*
X133571848Y-60103244D01*
X133569501Y-60087164D01*
X133562706Y-60027557D01*
X133556262Y-59978861D01*
X133544240Y-59939986D01*
X133520711Y-59909839D01*
X133479746Y-59887328D01*
X133415415Y-59871361D01*
X133321790Y-59860846D01*
X133192942Y-59854692D01*
X133022940Y-59851806D01*
X132805857Y-59851097D01*
X132535763Y-59851472D01*
X132206728Y-59851840D01*
X130895121Y-59851840D01*
X130895121Y-60224274D01*
X130894789Y-60315318D01*
X130895174Y-60447741D01*
X130903228Y-60533424D01*
X130926482Y-60584241D01*
X130972467Y-60612062D01*
X131048711Y-60628759D01*
X131162745Y-60646204D01*
X131191393Y-60651013D01*
X131255038Y-60670264D01*
X131280049Y-60710664D01*
X131284393Y-60794050D01*
X131284393Y-60922338D01*
X130538288Y-60922338D01*
X130538288Y-58164994D01*
X131284393Y-58164994D01*
X131284393Y-58294133D01*
G37*
G36*
X136391933Y-86077026D02*
G01*
X136413972Y-86253426D01*
X137012145Y-86644714D01*
X137610317Y-87036003D01*
X138413682Y-87036003D01*
X138441694Y-86849477D01*
X138445038Y-86827269D01*
X138462004Y-86732108D01*
X138483827Y-86682119D01*
X138522834Y-86661109D01*
X138591353Y-86652883D01*
X138713001Y-86642815D01*
X138713001Y-88009183D01*
X138598445Y-88009183D01*
X138560118Y-88008554D01*
X138507614Y-87998482D01*
X138475975Y-87965199D01*
X138455804Y-87894955D01*
X138437700Y-87773998D01*
X138417071Y-87619911D01*
X137576947Y-87619911D01*
X136995524Y-87994465D01*
X136414101Y-88369020D01*
X136391997Y-88545934D01*
X136369893Y-88722849D01*
X136117854Y-88722849D01*
X136117854Y-87587472D01*
X136366868Y-87587472D01*
X136396448Y-87765558D01*
X136426028Y-87943643D01*
X136766641Y-87730426D01*
X136903546Y-87644642D01*
X137028527Y-87566173D01*
X137126034Y-87504790D01*
X137182299Y-87469146D01*
X137194007Y-87461469D01*
X137215730Y-87441872D01*
X137216444Y-87419645D01*
X137189394Y-87388360D01*
X137127827Y-87341591D01*
X137024989Y-87272911D01*
X136874126Y-87175894D01*
X136829208Y-87147219D01*
X136692088Y-87060521D01*
X136576309Y-86988539D01*
X136492927Y-86938097D01*
X136452998Y-86916018D01*
X136438628Y-86918326D01*
X136413034Y-86970073D01*
X136392492Y-87082205D01*
X136369893Y-87263078D01*
X136117854Y-87263078D01*
X136117854Y-85900626D01*
X136369893Y-85900626D01*
X136391933Y-86077026D01*
G37*
G36*
X138713001Y-66895092D02*
G01*
X138591353Y-66885024D01*
X138576868Y-66883811D01*
X138514329Y-66874533D01*
X138479172Y-66849673D01*
X138459070Y-66793036D01*
X138441694Y-66688430D01*
X138413682Y-66501903D01*
X136880178Y-66504237D01*
X136972165Y-66579493D01*
X136985343Y-66589817D01*
X137053069Y-66640092D01*
X137163652Y-66720325D01*
X137309724Y-66825235D01*
X137483914Y-66949542D01*
X137678856Y-67087965D01*
X137887179Y-67235223D01*
X138710207Y-67815697D01*
X138713001Y-68286067D01*
X136416178Y-68286067D01*
X136370998Y-68675339D01*
X136117854Y-68675339D01*
X136117854Y-67507523D01*
X136370998Y-67507523D01*
X136416178Y-67896795D01*
X137884014Y-67896795D01*
X137669048Y-67742708D01*
X137618266Y-67706291D01*
X137502391Y-67623141D01*
X137350798Y-67514321D01*
X137173823Y-67387253D01*
X136981800Y-67249354D01*
X136785066Y-67108047D01*
X136116050Y-66627473D01*
X136134074Y-65739579D01*
X136247611Y-65739579D01*
X136260858Y-65739593D01*
X136319389Y-65743746D01*
X136352510Y-65765972D01*
X136371880Y-65821637D01*
X136389161Y-65926105D01*
X136417173Y-66112631D01*
X138417071Y-66112631D01*
X138437700Y-65958545D01*
X138447362Y-65888962D01*
X138465359Y-65795884D01*
X138490272Y-65746425D01*
X138531502Y-65726834D01*
X138598445Y-65723359D01*
X138713001Y-65723359D01*
X138713001Y-66895092D01*
G37*
G36*
X138713001Y-76006629D02*
G01*
X138031775Y-76006629D01*
X138031775Y-75751783D01*
X138388607Y-75707199D01*
X138388607Y-74741495D01*
X137512745Y-74741495D01*
X137512745Y-75355608D01*
X137674942Y-75377124D01*
X137755266Y-75389045D01*
X137811798Y-75407742D01*
X137833565Y-75442936D01*
X137837139Y-75507998D01*
X137837139Y-75617357D01*
X136859848Y-75617357D01*
X136870013Y-75513483D01*
X136875504Y-75472600D01*
X136896092Y-75426948D01*
X136945903Y-75399201D01*
X137042375Y-75375387D01*
X137204572Y-75341164D01*
X137204572Y-74757714D01*
X136823410Y-74748575D01*
X136442247Y-74739436D01*
X136442247Y-75707199D01*
X136620664Y-75729491D01*
X136799080Y-75751783D01*
X136799080Y-76006629D01*
X136117002Y-76006629D01*
X136125538Y-74895582D01*
X136134074Y-73784534D01*
X136247611Y-73784534D01*
X136260858Y-73784548D01*
X136319389Y-73788701D01*
X136352510Y-73810928D01*
X136371880Y-73866592D01*
X136389161Y-73971061D01*
X136417173Y-74157587D01*
X138417071Y-74157587D01*
X138437700Y-74003500D01*
X138447362Y-73933917D01*
X138465359Y-73840840D01*
X138490272Y-73791381D01*
X138531502Y-73771789D01*
X138598445Y-73768315D01*
X138713001Y-73768315D01*
X138713001Y-76006629D01*
G37*
G36*
X133847100Y-66566782D02*
G01*
X133165874Y-66566782D01*
X133165874Y-66311936D01*
X133344291Y-66289644D01*
X133522707Y-66267353D01*
X133522707Y-65301648D01*
X132646845Y-65301648D01*
X132646845Y-65911907D01*
X132809042Y-65934215D01*
X132889867Y-65946618D01*
X132946110Y-65965677D01*
X132967715Y-66001291D01*
X132971238Y-66067016D01*
X132971238Y-66177510D01*
X131993948Y-66177510D01*
X132004113Y-66073636D01*
X132009604Y-66032753D01*
X132030192Y-65987101D01*
X132080003Y-65959354D01*
X132176475Y-65935540D01*
X132338671Y-65901317D01*
X132338671Y-65317868D01*
X131957509Y-65308728D01*
X131576347Y-65299589D01*
X131576347Y-66267353D01*
X131754763Y-66289644D01*
X131933180Y-66311936D01*
X131933180Y-66566782D01*
X131251954Y-66566782D01*
X131251954Y-64324552D01*
X131373601Y-64334620D01*
X131388086Y-64335832D01*
X131450625Y-64345110D01*
X131485782Y-64369971D01*
X131505884Y-64426607D01*
X131523260Y-64531214D01*
X131551272Y-64717740D01*
X133547782Y-64717740D01*
X133575794Y-64531214D01*
X133579138Y-64509005D01*
X133596104Y-64413845D01*
X133617927Y-64363856D01*
X133656934Y-64342846D01*
X133725453Y-64334620D01*
X133847100Y-64324552D01*
X133847100Y-66566782D01*
G37*
G36*
X131373601Y-90578042D02*
G01*
X131388086Y-90579255D01*
X131450625Y-90588533D01*
X131485782Y-90613393D01*
X131505884Y-90670030D01*
X131523260Y-90774637D01*
X131551272Y-90961163D01*
X133551925Y-90961163D01*
X133573945Y-90766527D01*
X133595966Y-90571891D01*
X133847100Y-90571891D01*
X133847100Y-92810205D01*
X133165874Y-92810205D01*
X133165874Y-92555639D01*
X133336181Y-92528567D01*
X133506487Y-92501495D01*
X133524441Y-91545071D01*
X132646845Y-91545071D01*
X132646845Y-92153060D01*
X132809042Y-92174576D01*
X132891318Y-92186809D01*
X132946761Y-92205684D01*
X132967880Y-92241693D01*
X132971238Y-92308512D01*
X132971238Y-92420933D01*
X131998058Y-92420933D01*
X131998058Y-92311958D01*
X132000613Y-92253787D01*
X132019144Y-92215330D01*
X132069710Y-92193096D01*
X132168365Y-92174090D01*
X132338671Y-92145198D01*
X132347998Y-91845135D01*
X132357326Y-91545071D01*
X131574613Y-91545071D01*
X131592567Y-92501495D01*
X131762873Y-92528567D01*
X131933180Y-92555639D01*
X131933180Y-92810205D01*
X131251954Y-92810205D01*
X131251954Y-90567974D01*
X131373601Y-90578042D01*
G37*
G36*
X131965619Y-83012056D02*
G01*
X131965427Y-83042297D01*
X131956875Y-83110791D01*
X131922379Y-83142714D01*
X131843971Y-83159902D01*
X131765478Y-83172151D01*
X131666077Y-83190630D01*
X131609206Y-83216862D01*
X131583123Y-83265091D01*
X131576084Y-83349561D01*
X131576347Y-83484514D01*
X131576347Y-83759630D01*
X133550478Y-83759630D01*
X133572770Y-83581214D01*
X133595061Y-83402797D01*
X133847100Y-83402797D01*
X133847100Y-84732810D01*
X133595061Y-84732810D01*
X133572770Y-84554394D01*
X133550478Y-84375978D01*
X131576347Y-84375978D01*
X131576347Y-84652730D01*
X131576291Y-84717783D01*
X131579062Y-84832668D01*
X131593982Y-84902183D01*
X131631041Y-84940043D01*
X131700227Y-84959967D01*
X131811532Y-84975671D01*
X131965619Y-84996300D01*
X131965619Y-85251840D01*
X131251954Y-85251840D01*
X131251954Y-82883768D01*
X131965619Y-82883768D01*
X131965619Y-83012056D01*
G37*
G36*
X133847100Y-76039068D02*
G01*
X133596623Y-76039068D01*
X133577321Y-75876099D01*
X133569590Y-75818814D01*
X133553376Y-75730125D01*
X133538449Y-75681463D01*
X133507794Y-75673145D01*
X133416073Y-75665125D01*
X133268151Y-75658635D01*
X133068610Y-75653821D01*
X132822033Y-75650826D01*
X132533004Y-75649796D01*
X131547129Y-75649796D01*
X131525109Y-75844432D01*
X131503088Y-76039068D01*
X131251954Y-76039068D01*
X131251954Y-74672700D01*
X131373601Y-74682768D01*
X131388086Y-74683980D01*
X131450625Y-74693258D01*
X131485782Y-74718119D01*
X131505884Y-74774755D01*
X131523260Y-74879362D01*
X131551272Y-75065888D01*
X133547782Y-75065888D01*
X133575794Y-74879362D01*
X133579138Y-74857154D01*
X133596104Y-74761993D01*
X133617927Y-74712004D01*
X133656934Y-74690994D01*
X133725453Y-74682768D01*
X133847100Y-74672700D01*
X133847100Y-76039068D01*
G37*
G36*
X138713001Y-83017442D02*
G01*
X138591353Y-83007374D01*
X138576357Y-83006118D01*
X138514091Y-82996813D01*
X138479072Y-82971859D01*
X138459012Y-82915083D01*
X138441625Y-82810316D01*
X138413545Y-82623327D01*
X137419786Y-82631900D01*
X136426028Y-82640473D01*
X136366868Y-83013525D01*
X136116538Y-83013525D01*
X136134074Y-81667293D01*
X136247611Y-81667293D01*
X136260858Y-81667307D01*
X136319389Y-81671460D01*
X136352510Y-81693686D01*
X136371880Y-81749351D01*
X136389161Y-81853819D01*
X136417173Y-82040345D01*
X138417071Y-82040345D01*
X138437700Y-81886259D01*
X138447362Y-81816675D01*
X138465359Y-81723598D01*
X138490272Y-81674139D01*
X138531502Y-81654548D01*
X138598445Y-81651073D01*
X138713001Y-81651073D01*
X138713001Y-83017442D01*
G37*
G36*
X136831519Y-83558624D02*
G01*
X136442247Y-83603804D01*
X136442247Y-84181342D01*
X138413682Y-84181342D01*
X138441694Y-83994815D01*
X138445038Y-83972607D01*
X138462004Y-83877446D01*
X138483827Y-83827458D01*
X138522834Y-83806447D01*
X138591353Y-83798221D01*
X138713001Y-83788153D01*
X138713001Y-85158438D01*
X138591353Y-85148370D01*
X138576868Y-85147157D01*
X138514329Y-85137879D01*
X138479172Y-85113019D01*
X138459070Y-85056383D01*
X138441694Y-84951776D01*
X138413682Y-84765250D01*
X136442247Y-84765250D01*
X136442247Y-85345936D01*
X136636883Y-85367957D01*
X136831519Y-85389977D01*
X136831519Y-85641112D01*
X136117854Y-85641112D01*
X136117854Y-83305479D01*
X136831519Y-83305479D01*
X136831519Y-83558624D01*
G37*
G36*
X124909004Y-71854394D02*
G01*
X125655734Y-71854394D01*
X126539923Y-72738145D01*
X127424112Y-73621895D01*
X127424112Y-77350094D01*
X125690208Y-79088366D01*
X119493137Y-79088366D01*
X118625163Y-78220839D01*
X117757190Y-77353312D01*
X117757190Y-76607863D01*
X119541353Y-76607863D01*
X119890606Y-76956033D01*
X120239858Y-77304202D01*
X124943662Y-77304202D01*
X125275586Y-76971145D01*
X125607509Y-76638088D01*
X125607509Y-74334897D01*
X125258257Y-73986727D01*
X124909004Y-73638557D01*
X120270180Y-73638557D01*
X119905767Y-74004007D01*
X119541353Y-74369458D01*
X119541353Y-76607863D01*
X117757190Y-76607863D01*
X117757190Y-73622772D01*
X118640941Y-72738583D01*
X119524691Y-71854394D01*
X124909004Y-71854394D01*
G37*
G36*
X124746121Y-73930511D02*
G01*
X124811390Y-73930511D01*
X125079692Y-74197420D01*
X125347994Y-74464328D01*
X125347994Y-76514150D01*
X125076224Y-76779419D01*
X124804453Y-77044688D01*
X120376849Y-77044688D01*
X119833307Y-76514150D01*
X119833307Y-76413861D01*
X119995504Y-76413861D01*
X120215284Y-76631956D01*
X120435063Y-76850052D01*
X124749741Y-76850052D01*
X124951550Y-76646433D01*
X125153358Y-76442814D01*
X125153358Y-74528765D01*
X124949740Y-74326956D01*
X124746121Y-74125147D01*
X120431695Y-74125147D01*
X120213600Y-74344927D01*
X119995504Y-74564707D01*
X119995504Y-76413861D01*
X119833307Y-76413861D01*
X119833307Y-74467116D01*
X120100216Y-74198813D01*
X120367124Y-73930511D01*
X124746121Y-73930511D01*
G37*
G36*
X125753081Y-71467522D02*
G01*
X125850804Y-71467558D01*
X126848314Y-72443246D01*
X127845823Y-73418933D01*
X127845823Y-77514672D01*
X126848510Y-78512374D01*
X125851197Y-79510077D01*
X119281163Y-79510077D01*
X117303039Y-77554589D01*
X117303039Y-77483038D01*
X117497675Y-77483038D01*
X118435876Y-78420820D01*
X119374077Y-79358603D01*
X125785925Y-79314779D01*
X127651187Y-77450599D01*
X127651187Y-73524607D01*
X125753081Y-71627319D01*
X119362517Y-71627319D01*
X117497675Y-73492993D01*
X117497675Y-77483038D01*
X117303039Y-77483038D01*
X117303039Y-73428094D01*
X118284130Y-72446608D01*
X119265220Y-71465122D01*
X125753081Y-71467522D01*
G37*
G36*
X136416178Y-69356565D02*
G01*
X138417071Y-69356565D01*
X138437700Y-69202478D01*
X138447362Y-69132895D01*
X138465359Y-69039818D01*
X138490272Y-68990359D01*
X138531502Y-68970768D01*
X138598445Y-68967293D01*
X138713001Y-68967293D01*
X138713001Y-70333662D01*
X138591353Y-70323593D01*
X138576868Y-70322381D01*
X138514329Y-70313103D01*
X138479172Y-70288243D01*
X138459070Y-70231606D01*
X138441694Y-70126999D01*
X138413682Y-69940473D01*
X136416178Y-69940473D01*
X136370998Y-70329745D01*
X136117854Y-70329745D01*
X136117854Y-68967293D01*
X136370998Y-68967293D01*
X136416178Y-69356565D01*
G37*
G36*
X131965619Y-88260318D02*
G01*
X131770983Y-88282338D01*
X131576347Y-88304359D01*
X131576347Y-88885045D01*
X133551925Y-88885045D01*
X133573945Y-88690409D01*
X133595966Y-88495773D01*
X133847100Y-88495773D01*
X133847100Y-89858225D01*
X133595966Y-89858225D01*
X133573945Y-89663589D01*
X133551925Y-89468953D01*
X131576347Y-89468953D01*
X131576347Y-90049640D01*
X131770983Y-90071660D01*
X131965619Y-90093681D01*
X131965619Y-90344815D01*
X131251954Y-90344815D01*
X131251954Y-88009183D01*
X131965619Y-88009183D01*
X131965619Y-88260318D01*
G37*
G36*
X140691800Y-88917485D02*
G01*
X140497164Y-88917485D01*
X140497164Y-62057714D01*
X140691800Y-62057714D01*
X140691800Y-88917485D01*
G37*
%TD*%
M02*
