%TF.GenerationSoftware,KiCad,Pcbnew,7.0.7*%
%TF.CreationDate,2023-09-14T15:51:44-04:00*%
%TF.ProjectId,Temps_South_DCT_HSK,54656d70-735f-4536-9f75-74685f444354,B*%
%TF.SameCoordinates,Original*%
%TF.FileFunction,Legend,Top*%
%TF.FilePolarity,Positive*%
%FSLAX46Y46*%
G04 Gerber Fmt 4.6, Leading zero omitted, Abs format (unit mm)*
G04 Created by KiCad (PCBNEW 7.0.7) date 2023-09-14 15:51:44*
%MOMM*%
%LPD*%
G01*
G04 APERTURE LIST*
%ADD10C,0.254000*%
%ADD11C,0.400000*%
%ADD12C,0.200000*%
%ADD13C,0.150000*%
%ADD14C,0.127000*%
G04 APERTURE END LIST*
D10*
X148920200Y-54838600D02*
G75*
G03*
X148920200Y-54838600I-25400J0D01*
G01*
X103454200Y-54813200D02*
G75*
G03*
X103454200Y-54813200I-25400J0D01*
G01*
X148920200Y-89916000D02*
G75*
G03*
X148920200Y-89916000I-25400J0D01*
G01*
X103454200Y-89916000D02*
G75*
G03*
X103454200Y-89916000I-25400J0D01*
G01*
D11*
X141701147Y-93502381D02*
X141701147Y-92073810D01*
X144201147Y-92788096D02*
X141701147Y-92788096D01*
X144201147Y-90883334D02*
X144082100Y-91121429D01*
X144082100Y-91121429D02*
X143963052Y-91240476D01*
X143963052Y-91240476D02*
X143724957Y-91359524D01*
X143724957Y-91359524D02*
X143010671Y-91359524D01*
X143010671Y-91359524D02*
X142772576Y-91240476D01*
X142772576Y-91240476D02*
X142653528Y-91121429D01*
X142653528Y-91121429D02*
X142534480Y-90883334D01*
X142534480Y-90883334D02*
X142534480Y-90526191D01*
X142534480Y-90526191D02*
X142653528Y-90288095D01*
X142653528Y-90288095D02*
X142772576Y-90169048D01*
X142772576Y-90169048D02*
X143010671Y-90050000D01*
X143010671Y-90050000D02*
X143724957Y-90050000D01*
X143724957Y-90050000D02*
X143963052Y-90169048D01*
X143963052Y-90169048D02*
X144082100Y-90288095D01*
X144082100Y-90288095D02*
X144201147Y-90526191D01*
X144201147Y-90526191D02*
X144201147Y-90883334D01*
X144201147Y-87073809D02*
X141701147Y-87073809D01*
X141701147Y-87073809D02*
X141701147Y-86478571D01*
X141701147Y-86478571D02*
X141820195Y-86121428D01*
X141820195Y-86121428D02*
X142058290Y-85883333D01*
X142058290Y-85883333D02*
X142296385Y-85764286D01*
X142296385Y-85764286D02*
X142772576Y-85645238D01*
X142772576Y-85645238D02*
X143129719Y-85645238D01*
X143129719Y-85645238D02*
X143605909Y-85764286D01*
X143605909Y-85764286D02*
X143844004Y-85883333D01*
X143844004Y-85883333D02*
X144082100Y-86121428D01*
X144082100Y-86121428D02*
X144201147Y-86478571D01*
X144201147Y-86478571D02*
X144201147Y-87073809D01*
X143963052Y-83145238D02*
X144082100Y-83264286D01*
X144082100Y-83264286D02*
X144201147Y-83621428D01*
X144201147Y-83621428D02*
X144201147Y-83859524D01*
X144201147Y-83859524D02*
X144082100Y-84216667D01*
X144082100Y-84216667D02*
X143844004Y-84454762D01*
X143844004Y-84454762D02*
X143605909Y-84573809D01*
X143605909Y-84573809D02*
X143129719Y-84692857D01*
X143129719Y-84692857D02*
X142772576Y-84692857D01*
X142772576Y-84692857D02*
X142296385Y-84573809D01*
X142296385Y-84573809D02*
X142058290Y-84454762D01*
X142058290Y-84454762D02*
X141820195Y-84216667D01*
X141820195Y-84216667D02*
X141701147Y-83859524D01*
X141701147Y-83859524D02*
X141701147Y-83621428D01*
X141701147Y-83621428D02*
X141820195Y-83264286D01*
X141820195Y-83264286D02*
X141939242Y-83145238D01*
X141701147Y-82430952D02*
X141701147Y-81002381D01*
X144201147Y-81716667D02*
X141701147Y-81716667D01*
X144201147Y-78264285D02*
X141701147Y-78264285D01*
X142891623Y-78264285D02*
X142891623Y-76835714D01*
X144201147Y-76835714D02*
X141701147Y-76835714D01*
X144082100Y-75764285D02*
X144201147Y-75407142D01*
X144201147Y-75407142D02*
X144201147Y-74811904D01*
X144201147Y-74811904D02*
X144082100Y-74573809D01*
X144082100Y-74573809D02*
X143963052Y-74454761D01*
X143963052Y-74454761D02*
X143724957Y-74335714D01*
X143724957Y-74335714D02*
X143486861Y-74335714D01*
X143486861Y-74335714D02*
X143248766Y-74454761D01*
X143248766Y-74454761D02*
X143129719Y-74573809D01*
X143129719Y-74573809D02*
X143010671Y-74811904D01*
X143010671Y-74811904D02*
X142891623Y-75288095D01*
X142891623Y-75288095D02*
X142772576Y-75526190D01*
X142772576Y-75526190D02*
X142653528Y-75645237D01*
X142653528Y-75645237D02*
X142415433Y-75764285D01*
X142415433Y-75764285D02*
X142177338Y-75764285D01*
X142177338Y-75764285D02*
X141939242Y-75645237D01*
X141939242Y-75645237D02*
X141820195Y-75526190D01*
X141820195Y-75526190D02*
X141701147Y-75288095D01*
X141701147Y-75288095D02*
X141701147Y-74692856D01*
X141701147Y-74692856D02*
X141820195Y-74335714D01*
X144201147Y-73264285D02*
X141701147Y-73264285D01*
X144201147Y-71835714D02*
X142772576Y-72907143D01*
X141701147Y-71835714D02*
X143129719Y-73264285D01*
D12*
X111148600Y-101718857D02*
X111196219Y-101576000D01*
X111196219Y-101576000D02*
X111196219Y-101337905D01*
X111196219Y-101337905D02*
X111148600Y-101242667D01*
X111148600Y-101242667D02*
X111100980Y-101195048D01*
X111100980Y-101195048D02*
X111005742Y-101147429D01*
X111005742Y-101147429D02*
X110910504Y-101147429D01*
X110910504Y-101147429D02*
X110815266Y-101195048D01*
X110815266Y-101195048D02*
X110767647Y-101242667D01*
X110767647Y-101242667D02*
X110720028Y-101337905D01*
X110720028Y-101337905D02*
X110672409Y-101528381D01*
X110672409Y-101528381D02*
X110624790Y-101623619D01*
X110624790Y-101623619D02*
X110577171Y-101671238D01*
X110577171Y-101671238D02*
X110481933Y-101718857D01*
X110481933Y-101718857D02*
X110386695Y-101718857D01*
X110386695Y-101718857D02*
X110291457Y-101671238D01*
X110291457Y-101671238D02*
X110243838Y-101623619D01*
X110243838Y-101623619D02*
X110196219Y-101528381D01*
X110196219Y-101528381D02*
X110196219Y-101290286D01*
X110196219Y-101290286D02*
X110243838Y-101147429D01*
X110196219Y-100861714D02*
X110196219Y-100290286D01*
X111196219Y-100576000D02*
X110196219Y-100576000D01*
X110672409Y-99623619D02*
X110720028Y-99480762D01*
X110720028Y-99480762D02*
X110767647Y-99433143D01*
X110767647Y-99433143D02*
X110862885Y-99385524D01*
X110862885Y-99385524D02*
X111005742Y-99385524D01*
X111005742Y-99385524D02*
X111100980Y-99433143D01*
X111100980Y-99433143D02*
X111148600Y-99480762D01*
X111148600Y-99480762D02*
X111196219Y-99576000D01*
X111196219Y-99576000D02*
X111196219Y-99956952D01*
X111196219Y-99956952D02*
X110196219Y-99956952D01*
X110196219Y-99956952D02*
X110196219Y-99623619D01*
X110196219Y-99623619D02*
X110243838Y-99528381D01*
X110243838Y-99528381D02*
X110291457Y-99480762D01*
X110291457Y-99480762D02*
X110386695Y-99433143D01*
X110386695Y-99433143D02*
X110481933Y-99433143D01*
X110481933Y-99433143D02*
X110577171Y-99480762D01*
X110577171Y-99480762D02*
X110624790Y-99528381D01*
X110624790Y-99528381D02*
X110672409Y-99623619D01*
X110672409Y-99623619D02*
X110672409Y-99956952D01*
X110291457Y-99004571D02*
X110243838Y-98956952D01*
X110243838Y-98956952D02*
X110196219Y-98861714D01*
X110196219Y-98861714D02*
X110196219Y-98623619D01*
X110196219Y-98623619D02*
X110243838Y-98528381D01*
X110243838Y-98528381D02*
X110291457Y-98480762D01*
X110291457Y-98480762D02*
X110386695Y-98433143D01*
X110386695Y-98433143D02*
X110481933Y-98433143D01*
X110481933Y-98433143D02*
X110624790Y-98480762D01*
X110624790Y-98480762D02*
X111196219Y-99052190D01*
X111196219Y-99052190D02*
X111196219Y-98433143D01*
X146505400Y-101718856D02*
X146553019Y-101575999D01*
X146553019Y-101575999D02*
X146553019Y-101337904D01*
X146553019Y-101337904D02*
X146505400Y-101242666D01*
X146505400Y-101242666D02*
X146457780Y-101195047D01*
X146457780Y-101195047D02*
X146362542Y-101147428D01*
X146362542Y-101147428D02*
X146267304Y-101147428D01*
X146267304Y-101147428D02*
X146172066Y-101195047D01*
X146172066Y-101195047D02*
X146124447Y-101242666D01*
X146124447Y-101242666D02*
X146076828Y-101337904D01*
X146076828Y-101337904D02*
X146029209Y-101528380D01*
X146029209Y-101528380D02*
X145981590Y-101623618D01*
X145981590Y-101623618D02*
X145933971Y-101671237D01*
X145933971Y-101671237D02*
X145838733Y-101718856D01*
X145838733Y-101718856D02*
X145743495Y-101718856D01*
X145743495Y-101718856D02*
X145648257Y-101671237D01*
X145648257Y-101671237D02*
X145600638Y-101623618D01*
X145600638Y-101623618D02*
X145553019Y-101528380D01*
X145553019Y-101528380D02*
X145553019Y-101290285D01*
X145553019Y-101290285D02*
X145600638Y-101147428D01*
X145553019Y-100861713D02*
X145553019Y-100290285D01*
X146553019Y-100575999D02*
X145553019Y-100575999D01*
X146029209Y-99623618D02*
X146076828Y-99480761D01*
X146076828Y-99480761D02*
X146124447Y-99433142D01*
X146124447Y-99433142D02*
X146219685Y-99385523D01*
X146219685Y-99385523D02*
X146362542Y-99385523D01*
X146362542Y-99385523D02*
X146457780Y-99433142D01*
X146457780Y-99433142D02*
X146505400Y-99480761D01*
X146505400Y-99480761D02*
X146553019Y-99575999D01*
X146553019Y-99575999D02*
X146553019Y-99956951D01*
X146553019Y-99956951D02*
X145553019Y-99956951D01*
X145553019Y-99956951D02*
X145553019Y-99623618D01*
X145553019Y-99623618D02*
X145600638Y-99528380D01*
X145600638Y-99528380D02*
X145648257Y-99480761D01*
X145648257Y-99480761D02*
X145743495Y-99433142D01*
X145743495Y-99433142D02*
X145838733Y-99433142D01*
X145838733Y-99433142D02*
X145933971Y-99480761D01*
X145933971Y-99480761D02*
X145981590Y-99528380D01*
X145981590Y-99528380D02*
X146029209Y-99623618D01*
X146029209Y-99623618D02*
X146029209Y-99956951D01*
X145648257Y-99004570D02*
X145600638Y-98956951D01*
X145600638Y-98956951D02*
X145553019Y-98861713D01*
X145553019Y-98861713D02*
X145553019Y-98623618D01*
X145553019Y-98623618D02*
X145600638Y-98528380D01*
X145600638Y-98528380D02*
X145648257Y-98480761D01*
X145648257Y-98480761D02*
X145743495Y-98433142D01*
X145743495Y-98433142D02*
X145838733Y-98433142D01*
X145838733Y-98433142D02*
X145981590Y-98480761D01*
X145981590Y-98480761D02*
X146553019Y-99052189D01*
X146553019Y-99052189D02*
X146553019Y-98433142D01*
D11*
X112716623Y-89579247D02*
X112716623Y-90412580D01*
X114026147Y-90412580D02*
X111526147Y-90412580D01*
X111526147Y-90412580D02*
X111526147Y-89222104D01*
X114026147Y-88269723D02*
X112359480Y-88269723D01*
X112835671Y-88269723D02*
X112597576Y-88150676D01*
X112597576Y-88150676D02*
X112478528Y-88031628D01*
X112478528Y-88031628D02*
X112359480Y-87793533D01*
X112359480Y-87793533D02*
X112359480Y-87555438D01*
X114026147Y-86364962D02*
X113907100Y-86603057D01*
X113907100Y-86603057D02*
X113788052Y-86722104D01*
X113788052Y-86722104D02*
X113549957Y-86841152D01*
X113549957Y-86841152D02*
X112835671Y-86841152D01*
X112835671Y-86841152D02*
X112597576Y-86722104D01*
X112597576Y-86722104D02*
X112478528Y-86603057D01*
X112478528Y-86603057D02*
X112359480Y-86364962D01*
X112359480Y-86364962D02*
X112359480Y-86007819D01*
X112359480Y-86007819D02*
X112478528Y-85769723D01*
X112478528Y-85769723D02*
X112597576Y-85650676D01*
X112597576Y-85650676D02*
X112835671Y-85531628D01*
X112835671Y-85531628D02*
X113549957Y-85531628D01*
X113549957Y-85531628D02*
X113788052Y-85650676D01*
X113788052Y-85650676D02*
X113907100Y-85769723D01*
X113907100Y-85769723D02*
X114026147Y-86007819D01*
X114026147Y-86007819D02*
X114026147Y-86364962D01*
X114026147Y-84460199D02*
X112359480Y-84460199D01*
X112597576Y-84460199D02*
X112478528Y-84341152D01*
X112478528Y-84341152D02*
X112359480Y-84103057D01*
X112359480Y-84103057D02*
X112359480Y-83745914D01*
X112359480Y-83745914D02*
X112478528Y-83507818D01*
X112478528Y-83507818D02*
X112716623Y-83388771D01*
X112716623Y-83388771D02*
X114026147Y-83388771D01*
X112716623Y-83388771D02*
X112478528Y-83269723D01*
X112478528Y-83269723D02*
X112359480Y-83031628D01*
X112359480Y-83031628D02*
X112359480Y-82674485D01*
X112359480Y-82674485D02*
X112478528Y-82436390D01*
X112478528Y-82436390D02*
X112716623Y-82317342D01*
X112716623Y-82317342D02*
X114026147Y-82317342D01*
X114026147Y-79222104D02*
X111526147Y-79222104D01*
X111526147Y-79222104D02*
X111526147Y-78626866D01*
X111526147Y-78626866D02*
X111645195Y-78269723D01*
X111645195Y-78269723D02*
X111883290Y-78031628D01*
X111883290Y-78031628D02*
X112121385Y-77912581D01*
X112121385Y-77912581D02*
X112597576Y-77793533D01*
X112597576Y-77793533D02*
X112954719Y-77793533D01*
X112954719Y-77793533D02*
X113430909Y-77912581D01*
X113430909Y-77912581D02*
X113669004Y-78031628D01*
X113669004Y-78031628D02*
X113907100Y-78269723D01*
X113907100Y-78269723D02*
X114026147Y-78626866D01*
X114026147Y-78626866D02*
X114026147Y-79222104D01*
X113788052Y-75293533D02*
X113907100Y-75412581D01*
X113907100Y-75412581D02*
X114026147Y-75769723D01*
X114026147Y-75769723D02*
X114026147Y-76007819D01*
X114026147Y-76007819D02*
X113907100Y-76364962D01*
X113907100Y-76364962D02*
X113669004Y-76603057D01*
X113669004Y-76603057D02*
X113430909Y-76722104D01*
X113430909Y-76722104D02*
X112954719Y-76841152D01*
X112954719Y-76841152D02*
X112597576Y-76841152D01*
X112597576Y-76841152D02*
X112121385Y-76722104D01*
X112121385Y-76722104D02*
X111883290Y-76603057D01*
X111883290Y-76603057D02*
X111645195Y-76364962D01*
X111645195Y-76364962D02*
X111526147Y-76007819D01*
X111526147Y-76007819D02*
X111526147Y-75769723D01*
X111526147Y-75769723D02*
X111645195Y-75412581D01*
X111645195Y-75412581D02*
X111764242Y-75293533D01*
X111526147Y-74579247D02*
X111526147Y-73150676D01*
X114026147Y-73864962D02*
X111526147Y-73864962D01*
D12*
X146505400Y-66641457D02*
X146553019Y-66498600D01*
X146553019Y-66498600D02*
X146553019Y-66260505D01*
X146553019Y-66260505D02*
X146505400Y-66165267D01*
X146505400Y-66165267D02*
X146457780Y-66117648D01*
X146457780Y-66117648D02*
X146362542Y-66070029D01*
X146362542Y-66070029D02*
X146267304Y-66070029D01*
X146267304Y-66070029D02*
X146172066Y-66117648D01*
X146172066Y-66117648D02*
X146124447Y-66165267D01*
X146124447Y-66165267D02*
X146076828Y-66260505D01*
X146076828Y-66260505D02*
X146029209Y-66450981D01*
X146029209Y-66450981D02*
X145981590Y-66546219D01*
X145981590Y-66546219D02*
X145933971Y-66593838D01*
X145933971Y-66593838D02*
X145838733Y-66641457D01*
X145838733Y-66641457D02*
X145743495Y-66641457D01*
X145743495Y-66641457D02*
X145648257Y-66593838D01*
X145648257Y-66593838D02*
X145600638Y-66546219D01*
X145600638Y-66546219D02*
X145553019Y-66450981D01*
X145553019Y-66450981D02*
X145553019Y-66212886D01*
X145553019Y-66212886D02*
X145600638Y-66070029D01*
X145553019Y-65784314D02*
X145553019Y-65212886D01*
X146553019Y-65498600D02*
X145553019Y-65498600D01*
X146029209Y-64546219D02*
X146076828Y-64403362D01*
X146076828Y-64403362D02*
X146124447Y-64355743D01*
X146124447Y-64355743D02*
X146219685Y-64308124D01*
X146219685Y-64308124D02*
X146362542Y-64308124D01*
X146362542Y-64308124D02*
X146457780Y-64355743D01*
X146457780Y-64355743D02*
X146505400Y-64403362D01*
X146505400Y-64403362D02*
X146553019Y-64498600D01*
X146553019Y-64498600D02*
X146553019Y-64879552D01*
X146553019Y-64879552D02*
X145553019Y-64879552D01*
X145553019Y-64879552D02*
X145553019Y-64546219D01*
X145553019Y-64546219D02*
X145600638Y-64450981D01*
X145600638Y-64450981D02*
X145648257Y-64403362D01*
X145648257Y-64403362D02*
X145743495Y-64355743D01*
X145743495Y-64355743D02*
X145838733Y-64355743D01*
X145838733Y-64355743D02*
X145933971Y-64403362D01*
X145933971Y-64403362D02*
X145981590Y-64450981D01*
X145981590Y-64450981D02*
X146029209Y-64546219D01*
X146029209Y-64546219D02*
X146029209Y-64879552D01*
X146553019Y-63355743D02*
X146553019Y-63927171D01*
X146553019Y-63641457D02*
X145553019Y-63641457D01*
X145553019Y-63641457D02*
X145695876Y-63736695D01*
X145695876Y-63736695D02*
X145791114Y-63831933D01*
X145791114Y-63831933D02*
X145838733Y-63927171D01*
X111148600Y-66641457D02*
X111196219Y-66498600D01*
X111196219Y-66498600D02*
X111196219Y-66260505D01*
X111196219Y-66260505D02*
X111148600Y-66165267D01*
X111148600Y-66165267D02*
X111100980Y-66117648D01*
X111100980Y-66117648D02*
X111005742Y-66070029D01*
X111005742Y-66070029D02*
X110910504Y-66070029D01*
X110910504Y-66070029D02*
X110815266Y-66117648D01*
X110815266Y-66117648D02*
X110767647Y-66165267D01*
X110767647Y-66165267D02*
X110720028Y-66260505D01*
X110720028Y-66260505D02*
X110672409Y-66450981D01*
X110672409Y-66450981D02*
X110624790Y-66546219D01*
X110624790Y-66546219D02*
X110577171Y-66593838D01*
X110577171Y-66593838D02*
X110481933Y-66641457D01*
X110481933Y-66641457D02*
X110386695Y-66641457D01*
X110386695Y-66641457D02*
X110291457Y-66593838D01*
X110291457Y-66593838D02*
X110243838Y-66546219D01*
X110243838Y-66546219D02*
X110196219Y-66450981D01*
X110196219Y-66450981D02*
X110196219Y-66212886D01*
X110196219Y-66212886D02*
X110243838Y-66070029D01*
X110196219Y-65784314D02*
X110196219Y-65212886D01*
X111196219Y-65498600D02*
X110196219Y-65498600D01*
X110672409Y-64546219D02*
X110720028Y-64403362D01*
X110720028Y-64403362D02*
X110767647Y-64355743D01*
X110767647Y-64355743D02*
X110862885Y-64308124D01*
X110862885Y-64308124D02*
X111005742Y-64308124D01*
X111005742Y-64308124D02*
X111100980Y-64355743D01*
X111100980Y-64355743D02*
X111148600Y-64403362D01*
X111148600Y-64403362D02*
X111196219Y-64498600D01*
X111196219Y-64498600D02*
X111196219Y-64879552D01*
X111196219Y-64879552D02*
X110196219Y-64879552D01*
X110196219Y-64879552D02*
X110196219Y-64546219D01*
X110196219Y-64546219D02*
X110243838Y-64450981D01*
X110243838Y-64450981D02*
X110291457Y-64403362D01*
X110291457Y-64403362D02*
X110386695Y-64355743D01*
X110386695Y-64355743D02*
X110481933Y-64355743D01*
X110481933Y-64355743D02*
X110577171Y-64403362D01*
X110577171Y-64403362D02*
X110624790Y-64450981D01*
X110624790Y-64450981D02*
X110672409Y-64546219D01*
X110672409Y-64546219D02*
X110672409Y-64879552D01*
X111196219Y-63355743D02*
X111196219Y-63927171D01*
X111196219Y-63641457D02*
X110196219Y-63641457D01*
X110196219Y-63641457D02*
X110339076Y-63736695D01*
X110339076Y-63736695D02*
X110434314Y-63831933D01*
X110434314Y-63831933D02*
X110481933Y-63927171D01*
D13*
X109940219Y-113464933D02*
X110654504Y-113464933D01*
X110654504Y-113464933D02*
X110797361Y-113512552D01*
X110797361Y-113512552D02*
X110892600Y-113607790D01*
X110892600Y-113607790D02*
X110940219Y-113750647D01*
X110940219Y-113750647D02*
X110940219Y-113845885D01*
X110035457Y-113036361D02*
X109987838Y-112988742D01*
X109987838Y-112988742D02*
X109940219Y-112893504D01*
X109940219Y-112893504D02*
X109940219Y-112655409D01*
X109940219Y-112655409D02*
X109987838Y-112560171D01*
X109987838Y-112560171D02*
X110035457Y-112512552D01*
X110035457Y-112512552D02*
X110130695Y-112464933D01*
X110130695Y-112464933D02*
X110225933Y-112464933D01*
X110225933Y-112464933D02*
X110368790Y-112512552D01*
X110368790Y-112512552D02*
X110940219Y-113083980D01*
X110940219Y-113083980D02*
X110940219Y-112464933D01*
X145809619Y-52530333D02*
X146523904Y-52530333D01*
X146523904Y-52530333D02*
X146666761Y-52577952D01*
X146666761Y-52577952D02*
X146762000Y-52673190D01*
X146762000Y-52673190D02*
X146809619Y-52816047D01*
X146809619Y-52816047D02*
X146809619Y-52911285D01*
X145809619Y-52149380D02*
X145809619Y-51530333D01*
X145809619Y-51530333D02*
X146190571Y-51863666D01*
X146190571Y-51863666D02*
X146190571Y-51720809D01*
X146190571Y-51720809D02*
X146238190Y-51625571D01*
X146238190Y-51625571D02*
X146285809Y-51577952D01*
X146285809Y-51577952D02*
X146381047Y-51530333D01*
X146381047Y-51530333D02*
X146619142Y-51530333D01*
X146619142Y-51530333D02*
X146714380Y-51577952D01*
X146714380Y-51577952D02*
X146762000Y-51625571D01*
X146762000Y-51625571D02*
X146809619Y-51720809D01*
X146809619Y-51720809D02*
X146809619Y-52006523D01*
X146809619Y-52006523D02*
X146762000Y-52101761D01*
X146762000Y-52101761D02*
X146714380Y-52149380D01*
X146038219Y-113464933D02*
X146752504Y-113464933D01*
X146752504Y-113464933D02*
X146895361Y-113512552D01*
X146895361Y-113512552D02*
X146990600Y-113607790D01*
X146990600Y-113607790D02*
X147038219Y-113750647D01*
X147038219Y-113750647D02*
X147038219Y-113845885D01*
X146371552Y-112560171D02*
X147038219Y-112560171D01*
X145990600Y-112798266D02*
X146704885Y-113036361D01*
X146704885Y-113036361D02*
X146704885Y-112417314D01*
X109940219Y-52530333D02*
X110654504Y-52530333D01*
X110654504Y-52530333D02*
X110797361Y-52577952D01*
X110797361Y-52577952D02*
X110892600Y-52673190D01*
X110892600Y-52673190D02*
X110940219Y-52816047D01*
X110940219Y-52816047D02*
X110940219Y-52911285D01*
X110940219Y-51530333D02*
X110940219Y-52101761D01*
X110940219Y-51816047D02*
X109940219Y-51816047D01*
X109940219Y-51816047D02*
X110083076Y-51911285D01*
X110083076Y-51911285D02*
X110178314Y-52006523D01*
X110178314Y-52006523D02*
X110225933Y-52101761D01*
D14*
%TO.C,J2*%
X109144000Y-86182000D02*
X109144000Y-113970000D01*
X101930000Y-86182000D02*
X109144000Y-86182000D01*
X109144000Y-113970000D02*
X101930000Y-113970000D01*
X101930000Y-113970000D02*
X101930000Y-86182000D01*
D12*
X100495480Y-89641680D02*
G75*
G03*
X100495480Y-89641680I-100000J0D01*
G01*
%TO.C,G\u002A\u002A\u002A*%
G36*
X144459142Y-113322700D02*
G01*
X131029257Y-113322700D01*
X131029257Y-113225382D01*
X144459142Y-113225382D01*
X144459142Y-113322700D01*
G37*
G36*
X145172807Y-108959610D02*
G01*
X145047240Y-108959610D01*
X145025220Y-108764974D01*
X144734876Y-108764974D01*
X144734876Y-109752763D01*
X144929512Y-109774783D01*
X144929512Y-109900350D01*
X144248286Y-109900350D01*
X144248286Y-109774783D01*
X144442922Y-109752763D01*
X144442922Y-108764974D01*
X144152579Y-108764974D01*
X144130559Y-108959610D01*
X144004991Y-108959610D01*
X144004991Y-108602777D01*
X145172807Y-108602777D01*
X145172807Y-108959610D01*
G37*
G36*
X135165272Y-111162299D02*
G01*
X134970636Y-111184889D01*
X134970636Y-112183641D01*
X135063899Y-112197647D01*
X135116203Y-112206335D01*
X135144521Y-112216386D01*
X135156951Y-112233965D01*
X135161590Y-112265234D01*
X135162196Y-112272477D01*
X135167231Y-112333301D01*
X134484046Y-112333301D01*
X134484046Y-112276023D01*
X134485784Y-112242551D01*
X134495579Y-112221936D01*
X134520309Y-112209480D01*
X134566847Y-112200481D01*
X134601639Y-112195650D01*
X134678682Y-112185336D01*
X134678682Y-111184889D01*
X134484046Y-111162299D01*
X134484046Y-111035727D01*
X135165272Y-111035727D01*
X135165272Y-111162299D01*
G37*
G36*
X138390109Y-103029339D02*
G01*
X138522744Y-103165225D01*
X138522744Y-105379027D01*
X138390109Y-105514912D01*
X138257475Y-105650797D01*
X137232564Y-105650797D01*
X137099110Y-105516646D01*
X136965655Y-105382495D01*
X136965655Y-105349861D01*
X137062973Y-105349861D01*
X137163878Y-105451670D01*
X137264782Y-105553479D01*
X138221807Y-105553479D01*
X138323616Y-105452575D01*
X138425426Y-105351671D01*
X138425426Y-103194332D01*
X138207330Y-102974552D01*
X137282753Y-102974552D01*
X137062973Y-103192648D01*
X137062973Y-105349861D01*
X136965655Y-105349861D01*
X136965655Y-103160362D01*
X137099806Y-103026908D01*
X137233958Y-102893454D01*
X138257475Y-102893454D01*
X138390109Y-103029339D01*
G37*
G36*
X139110819Y-102289382D02*
G01*
X139544583Y-102723369D01*
X139544583Y-105821904D01*
X138675447Y-106688856D01*
X136811347Y-106688856D01*
X136369472Y-106246762D01*
X135927597Y-105804667D01*
X135927597Y-105431302D01*
X136819678Y-105431302D01*
X136993763Y-105605929D01*
X137167848Y-105780555D01*
X138319444Y-105780555D01*
X138485972Y-105614593D01*
X138652501Y-105448631D01*
X138652501Y-103096729D01*
X138304331Y-102747477D01*
X137185129Y-102747477D01*
X137002403Y-102929684D01*
X136819678Y-103111890D01*
X136819678Y-105431302D01*
X135927597Y-105431302D01*
X135927597Y-102739146D01*
X136369691Y-102297271D01*
X136811786Y-101855395D01*
X138677056Y-101855395D01*
X139110819Y-102289382D01*
G37*
G36*
X139755438Y-102617382D02*
G01*
X139755438Y-105902399D01*
X139256587Y-106401055D01*
X138757736Y-106899712D01*
X136709866Y-106899712D01*
X136222023Y-106400957D01*
X135734179Y-105902202D01*
X135734161Y-105853341D01*
X135814059Y-105853341D01*
X136288381Y-106327867D01*
X136762703Y-106802394D01*
X138725699Y-106802394D01*
X139191744Y-106336078D01*
X139657789Y-105869763D01*
X139679701Y-102663839D01*
X139210810Y-102194738D01*
X138741919Y-101725638D01*
X136746896Y-101725638D01*
X136280478Y-102191848D01*
X135814059Y-102658059D01*
X135814059Y-105853341D01*
X135734161Y-105853341D01*
X135732961Y-102609410D01*
X136714447Y-101628320D01*
X138777694Y-101628320D01*
X139755438Y-102617382D01*
G37*
G36*
X142820956Y-111392560D02*
G01*
X142695388Y-111392560D01*
X142673368Y-111197924D01*
X142383025Y-111197924D01*
X142383025Y-112183641D01*
X142476288Y-112197647D01*
X142528591Y-112206335D01*
X142556909Y-112216386D01*
X142569339Y-112233965D01*
X142573978Y-112265234D01*
X142574585Y-112272477D01*
X142579619Y-112333301D01*
X141894476Y-112333301D01*
X141899510Y-112272477D01*
X141903623Y-112238217D01*
X141914129Y-112218714D01*
X141939123Y-112207802D01*
X141986703Y-112199319D01*
X141997807Y-112197647D01*
X142091071Y-112183641D01*
X142091071Y-111197924D01*
X141802302Y-111197924D01*
X141779712Y-111392560D01*
X141653139Y-111392560D01*
X141653139Y-111035727D01*
X142820956Y-111035727D01*
X142820956Y-111392560D01*
G37*
G36*
X141507162Y-111160234D02*
G01*
X141320636Y-111189814D01*
X141316350Y-111686693D01*
X141312063Y-112183573D01*
X141405558Y-112197613D01*
X141457941Y-112206306D01*
X141486329Y-112216336D01*
X141498806Y-112233846D01*
X141503459Y-112264979D01*
X141504087Y-112272477D01*
X141509121Y-112333301D01*
X140825936Y-112333301D01*
X140825936Y-112276023D01*
X140827674Y-112242551D01*
X140837469Y-112221936D01*
X140862199Y-112209480D01*
X140908737Y-112200481D01*
X140943529Y-112195650D01*
X141020572Y-112185336D01*
X141020572Y-111185387D01*
X140927309Y-111171381D01*
X140875075Y-111162740D01*
X140847243Y-111153055D01*
X140836130Y-111136495D01*
X140834053Y-111107229D01*
X140834046Y-111100606D01*
X140834046Y-111043837D01*
X141507162Y-111035069D01*
X141507162Y-111160234D01*
G37*
G36*
X138019934Y-108728344D02*
G01*
X137922616Y-108739355D01*
X137825298Y-108750365D01*
X137825298Y-109243302D01*
X137825813Y-109387817D01*
X137827310Y-109511105D01*
X137829717Y-109610876D01*
X137832962Y-109684837D01*
X137836972Y-109730697D01*
X137841131Y-109746025D01*
X137865462Y-109753488D01*
X137909807Y-109761595D01*
X137938449Y-109765461D01*
X138019934Y-109775112D01*
X138019934Y-109900350D01*
X137336750Y-109900350D01*
X137341784Y-109839527D01*
X137345897Y-109805267D01*
X137356402Y-109785764D01*
X137381396Y-109774852D01*
X137428977Y-109766369D01*
X137440081Y-109764697D01*
X137533344Y-109750691D01*
X137533344Y-108752436D01*
X137440081Y-108738430D01*
X137387777Y-108729742D01*
X137359459Y-108719691D01*
X137347029Y-108702113D01*
X137342390Y-108670843D01*
X137341784Y-108663601D01*
X137336750Y-108602777D01*
X138019934Y-108602777D01*
X138019934Y-108728344D01*
G37*
G36*
X142626320Y-108959610D02*
G01*
X142498550Y-108959610D01*
X142488235Y-108882566D01*
X142480383Y-108826914D01*
X142470421Y-108792321D01*
X142451491Y-108773791D01*
X142416734Y-108766331D01*
X142359291Y-108764946D01*
X142326765Y-108764974D01*
X142188389Y-108764974D01*
X142188389Y-109752039D01*
X142366805Y-109774331D01*
X142366805Y-109900350D01*
X141701798Y-109900350D01*
X141701798Y-109774331D01*
X141791007Y-109763185D01*
X141880215Y-109752039D01*
X141880215Y-108764974D01*
X141742657Y-108764974D01*
X141675180Y-108764842D01*
X141632945Y-108768362D01*
X141608831Y-108781403D01*
X141595715Y-108809839D01*
X141586475Y-108859539D01*
X141580351Y-108898786D01*
X141571757Y-108937990D01*
X141555795Y-108955238D01*
X141521548Y-108959514D01*
X141506428Y-108959610D01*
X141442284Y-108959610D01*
X141442284Y-108602777D01*
X142626320Y-108602777D01*
X142626320Y-108959610D01*
G37*
G36*
X146405502Y-108943390D02*
G01*
X146278219Y-108943390D01*
X146251147Y-108773084D01*
X146012041Y-108768595D01*
X145772935Y-108764107D01*
X145772935Y-109155463D01*
X145922967Y-109150799D01*
X146072999Y-109146136D01*
X146087445Y-109060983D01*
X146096948Y-109011655D01*
X146108065Y-108986372D01*
X146127293Y-108977107D01*
X146156379Y-108975829D01*
X146210866Y-108975829D01*
X146210866Y-109462419D01*
X146154656Y-109462419D01*
X146121246Y-109460740D01*
X146103242Y-109450181D01*
X146093804Y-109422459D01*
X146087688Y-109381321D01*
X146076930Y-109300223D01*
X145772935Y-109300223D01*
X145772935Y-109739021D01*
X146012041Y-109734532D01*
X146251147Y-109730044D01*
X146264683Y-109644891D01*
X146278219Y-109559737D01*
X146405502Y-109559737D01*
X146405502Y-109900350D01*
X145286345Y-109900350D01*
X145286345Y-109774783D01*
X145480981Y-109752763D01*
X145480981Y-108752436D01*
X145387718Y-108738430D01*
X145335415Y-108729742D01*
X145307096Y-108719691D01*
X145294666Y-108702113D01*
X145290027Y-108670843D01*
X145289421Y-108663601D01*
X145284387Y-108602777D01*
X146405502Y-108602777D01*
X146405502Y-108943390D01*
G37*
G36*
X133283791Y-108943390D02*
G01*
X133156368Y-108943390D01*
X133134076Y-108764974D01*
X132650194Y-108764974D01*
X132659334Y-109146136D01*
X132951058Y-109146136D01*
X132968170Y-109065038D01*
X132980077Y-109016802D01*
X132993950Y-108991896D01*
X133016776Y-108981602D01*
X133037218Y-108978857D01*
X133089155Y-108973774D01*
X133089155Y-109462419D01*
X133033908Y-109462419D01*
X133001045Y-109460658D01*
X132983238Y-109449855D01*
X132973709Y-109421734D01*
X132967507Y-109381321D01*
X132956353Y-109300223D01*
X132651224Y-109300223D01*
X132651224Y-109738154D01*
X133134076Y-109738154D01*
X133145222Y-109648946D01*
X133156368Y-109559737D01*
X133283791Y-109559737D01*
X133283791Y-109900350D01*
X132162676Y-109900350D01*
X132167710Y-109839527D01*
X132171823Y-109805267D01*
X132182328Y-109785764D01*
X132207322Y-109774852D01*
X132254902Y-109766369D01*
X132266007Y-109764697D01*
X132359270Y-109750691D01*
X132359270Y-108752436D01*
X132266007Y-108738430D01*
X132213703Y-108729742D01*
X132185385Y-108719691D01*
X132172955Y-108702113D01*
X132168316Y-108670843D01*
X132167710Y-108663601D01*
X132162676Y-108602777D01*
X133283791Y-108602777D01*
X133283791Y-108943390D01*
G37*
G36*
X138003714Y-111376340D02*
G01*
X137876291Y-111376340D01*
X137853999Y-111197924D01*
X137370118Y-111197924D01*
X137374687Y-111388505D01*
X137379257Y-111579086D01*
X137670982Y-111579086D01*
X137688093Y-111497988D01*
X137700000Y-111449752D01*
X137713874Y-111424846D01*
X137736700Y-111414552D01*
X137757141Y-111411807D01*
X137809078Y-111406724D01*
X137809078Y-111895370D01*
X137754399Y-111895370D01*
X137721868Y-111893583D01*
X137704271Y-111882699D01*
X137694922Y-111854433D01*
X137688962Y-111814271D01*
X137678204Y-111733173D01*
X137371147Y-111733173D01*
X137371147Y-112171104D01*
X137853999Y-112171104D01*
X137876291Y-111992688D01*
X138003714Y-111992688D01*
X138003714Y-112333301D01*
X136884557Y-112333301D01*
X136884557Y-112276023D01*
X136886294Y-112242551D01*
X136896090Y-112221936D01*
X136920820Y-112209480D01*
X136967358Y-112200481D01*
X137002150Y-112195650D01*
X137079193Y-112185336D01*
X137079193Y-111185387D01*
X136985930Y-111171381D01*
X136933696Y-111162740D01*
X136905864Y-111153055D01*
X136894750Y-111136495D01*
X136892674Y-111107229D01*
X136892667Y-111100606D01*
X136892667Y-111043837D01*
X137448191Y-111039569D01*
X138003714Y-111035301D01*
X138003714Y-111376340D01*
G37*
G36*
X133554423Y-111369333D02*
G01*
X133625077Y-111467700D01*
X133694026Y-111563712D01*
X133757560Y-111652199D01*
X133811970Y-111727996D01*
X133853545Y-111785933D01*
X133871754Y-111811324D01*
X133948797Y-111918807D01*
X133948797Y-111184889D01*
X133754161Y-111162299D01*
X133754161Y-111035727D01*
X134338069Y-111035727D01*
X134338069Y-111162299D01*
X134143433Y-111184889D01*
X134143433Y-112333301D01*
X134025841Y-112332602D01*
X133908248Y-112331904D01*
X133618011Y-111920390D01*
X133544382Y-111816228D01*
X133475171Y-111718757D01*
X133413017Y-111631662D01*
X133360562Y-111558626D01*
X133320446Y-111503335D01*
X133295308Y-111469472D01*
X133290146Y-111462883D01*
X133252518Y-111416889D01*
X133251935Y-111800265D01*
X133251351Y-112183641D01*
X133344615Y-112197647D01*
X133396918Y-112206335D01*
X133425236Y-112216386D01*
X133437666Y-112233965D01*
X133442305Y-112265234D01*
X133442912Y-112272477D01*
X133447946Y-112333301D01*
X132862079Y-112333301D01*
X132862079Y-112276023D01*
X132863817Y-112242551D01*
X132873612Y-112221936D01*
X132898342Y-112209480D01*
X132944881Y-112200481D01*
X132979672Y-112195650D01*
X133056715Y-112185336D01*
X133056715Y-111185387D01*
X132963452Y-111171381D01*
X132911218Y-111162740D01*
X132883386Y-111153055D01*
X132872273Y-111136495D01*
X132870196Y-111107229D01*
X132870189Y-111100606D01*
X132870189Y-111043837D01*
X133092163Y-111039331D01*
X133314136Y-111034825D01*
X133554423Y-111369333D01*
G37*
G36*
X143631939Y-111161747D02*
G01*
X143541502Y-111173046D01*
X143485436Y-111183317D01*
X143459563Y-111196114D01*
X143458409Y-111203299D01*
X143469448Y-111223264D01*
X143494669Y-111264955D01*
X143530660Y-111322844D01*
X143574009Y-111391404D01*
X143588347Y-111413863D01*
X143636855Y-111489295D01*
X143671195Y-111540714D01*
X143694580Y-111571497D01*
X143710222Y-111585022D01*
X143721336Y-111584665D01*
X143731134Y-111573804D01*
X143734973Y-111567950D01*
X143752795Y-111539817D01*
X143783486Y-111491064D01*
X143822721Y-111428573D01*
X143865613Y-111360121D01*
X143972221Y-111189814D01*
X143883179Y-111175024D01*
X143794136Y-111160234D01*
X143794136Y-111035727D01*
X144361824Y-111035727D01*
X144361824Y-111161747D01*
X144184910Y-111183851D01*
X143997632Y-111474562D01*
X143810355Y-111765274D01*
X143810355Y-112185336D01*
X143887399Y-112195650D01*
X143947877Y-112204702D01*
X143982999Y-112214788D01*
X143999641Y-112230607D01*
X144004677Y-112256859D01*
X144004991Y-112276023D01*
X144004991Y-112333301D01*
X143321807Y-112333301D01*
X143326841Y-112272477D01*
X143330954Y-112238217D01*
X143341459Y-112218714D01*
X143366454Y-112207802D01*
X143414034Y-112199319D01*
X143425138Y-112197647D01*
X143518401Y-112183641D01*
X143518401Y-111781959D01*
X143322757Y-111482873D01*
X143127113Y-111183786D01*
X143038913Y-111172767D01*
X142950713Y-111161747D01*
X142950713Y-111035727D01*
X143631939Y-111035727D01*
X143631939Y-111161747D01*
G37*
G36*
X136787239Y-111160234D02*
G01*
X136695404Y-111175024D01*
X136603570Y-111189814D01*
X136390780Y-111757502D01*
X136177990Y-112325191D01*
X136036309Y-112329881D01*
X135966982Y-112331383D01*
X135923336Y-112329593D01*
X135898688Y-112323448D01*
X135886355Y-112311885D01*
X135883391Y-112305552D01*
X135875209Y-112284056D01*
X135856946Y-112235853D01*
X135829978Y-112164584D01*
X135795683Y-112073889D01*
X135755436Y-111967409D01*
X135710616Y-111848785D01*
X135666947Y-111733173D01*
X135461739Y-111189814D01*
X135370275Y-111175024D01*
X135278810Y-111160234D01*
X135278810Y-111035727D01*
X135943816Y-111035727D01*
X135943816Y-111161747D01*
X135854608Y-111172893D01*
X135805842Y-111180641D01*
X135773440Y-111188960D01*
X135765400Y-111194147D01*
X135770878Y-111215842D01*
X135786132Y-111261755D01*
X135809389Y-111327268D01*
X135838877Y-111407762D01*
X135872824Y-111498620D01*
X135909457Y-111595225D01*
X135947005Y-111692958D01*
X135983695Y-111787203D01*
X136017755Y-111873341D01*
X136047413Y-111946755D01*
X136070896Y-112002827D01*
X136086433Y-112036939D01*
X136092041Y-112045251D01*
X136099893Y-112028107D01*
X136116998Y-111985308D01*
X136141561Y-111921699D01*
X136171784Y-111842123D01*
X136205870Y-111751425D01*
X136242023Y-111654449D01*
X136278446Y-111556038D01*
X136313342Y-111461039D01*
X136344915Y-111374293D01*
X136371367Y-111300646D01*
X136390902Y-111244942D01*
X136401723Y-111212025D01*
X136403206Y-111206340D01*
X136390350Y-111194881D01*
X136354145Y-111181837D01*
X136316869Y-111173028D01*
X136266168Y-111162128D01*
X136239591Y-111150658D01*
X136229351Y-111132219D01*
X136227661Y-111100412D01*
X136227661Y-111043837D01*
X136787239Y-111034961D01*
X136787239Y-111160234D01*
G37*
G36*
X130461569Y-108618997D02*
G01*
X130397425Y-108618997D01*
X130355732Y-108616825D01*
X130335532Y-108604319D01*
X130325906Y-108572497D01*
X130323502Y-108558173D01*
X130314779Y-108501156D01*
X130306431Y-108463034D01*
X130292520Y-108440041D01*
X130267112Y-108428414D01*
X130224270Y-108424387D01*
X130158059Y-108424195D01*
X130112537Y-108424361D01*
X129926320Y-108424361D01*
X129926320Y-109080164D01*
X129926136Y-109244682D01*
X129925948Y-109379729D01*
X129926303Y-109488270D01*
X129927746Y-109573271D01*
X129930823Y-109637695D01*
X129936080Y-109684508D01*
X129944064Y-109716673D01*
X129955319Y-109737156D01*
X129970393Y-109748920D01*
X129989830Y-109754931D01*
X130014178Y-109758153D01*
X130043982Y-109761551D01*
X130052022Y-109762724D01*
X130095107Y-109771114D01*
X130115002Y-109784771D01*
X130120664Y-109813331D01*
X130120956Y-109836897D01*
X130120956Y-109900350D01*
X129423510Y-109900350D01*
X129423510Y-109836897D01*
X129425345Y-109796953D01*
X129436820Y-109776855D01*
X129466890Y-109766967D01*
X129492443Y-109762724D01*
X129523640Y-109758842D01*
X129549250Y-109755849D01*
X129569818Y-109750779D01*
X129585891Y-109740668D01*
X129598015Y-109722553D01*
X129606735Y-109693467D01*
X129612598Y-109650447D01*
X129616150Y-109590528D01*
X129617936Y-109510746D01*
X129618502Y-109408135D01*
X129618395Y-109279731D01*
X129618160Y-109122571D01*
X129618146Y-109080164D01*
X129618146Y-108424361D01*
X129246563Y-108424361D01*
X129236784Y-108485184D01*
X129225965Y-108550388D01*
X129216436Y-108590000D01*
X129203945Y-108610392D01*
X129184239Y-108617936D01*
X129153065Y-108619002D01*
X129147466Y-108618997D01*
X129082897Y-108618997D01*
X129082897Y-108245944D01*
X130461569Y-108245944D01*
X130461569Y-108618997D01*
G37*
G36*
X131237037Y-108663601D02*
G01*
X131232924Y-108697860D01*
X131222418Y-108717364D01*
X131197424Y-108728275D01*
X131149844Y-108736758D01*
X131138740Y-108738430D01*
X131045477Y-108752436D01*
X131045477Y-109138026D01*
X131548286Y-109138026D01*
X131548286Y-108752436D01*
X131455023Y-108738430D01*
X131402720Y-108729742D01*
X131374402Y-108719691D01*
X131361971Y-108702113D01*
X131357332Y-108670843D01*
X131356726Y-108663601D01*
X131351692Y-108602777D01*
X132036835Y-108602777D01*
X132031801Y-108663601D01*
X132027687Y-108697860D01*
X132017182Y-108717364D01*
X131992188Y-108728275D01*
X131944608Y-108736758D01*
X131933503Y-108738430D01*
X131840240Y-108752436D01*
X131840240Y-109750691D01*
X131933503Y-109764697D01*
X131985807Y-109773385D01*
X132014125Y-109783436D01*
X132026555Y-109801015D01*
X132031194Y-109832284D01*
X132031801Y-109839527D01*
X132036835Y-109900350D01*
X131353650Y-109900350D01*
X131353650Y-109775112D01*
X131435135Y-109765461D01*
X131485276Y-109758051D01*
X131522197Y-109749928D01*
X131532453Y-109746025D01*
X131538550Y-109726695D01*
X131543478Y-109680539D01*
X131546846Y-109613163D01*
X131548265Y-109530172D01*
X131548286Y-109518231D01*
X131548286Y-109300223D01*
X131045477Y-109300223D01*
X131045477Y-109750691D01*
X131138740Y-109764697D01*
X131191043Y-109773385D01*
X131219361Y-109783436D01*
X131231791Y-109801015D01*
X131236430Y-109832284D01*
X131237037Y-109839527D01*
X131242071Y-109900350D01*
X130558887Y-109900350D01*
X130558887Y-109774783D01*
X130753523Y-109752763D01*
X130753523Y-108752436D01*
X130660260Y-108738430D01*
X130607956Y-108729742D01*
X130579638Y-108719691D01*
X130567208Y-108702113D01*
X130562569Y-108670843D01*
X130561962Y-108663601D01*
X130556928Y-108602777D01*
X131242071Y-108602777D01*
X131237037Y-108663601D01*
G37*
G36*
X136394891Y-108663601D02*
G01*
X136390778Y-108697860D01*
X136380273Y-108717364D01*
X136355279Y-108728275D01*
X136307698Y-108736758D01*
X136296594Y-108738430D01*
X136203331Y-108752436D01*
X136203331Y-109138026D01*
X136707170Y-109138026D01*
X136702601Y-108947445D01*
X136698031Y-108756864D01*
X136608823Y-108739861D01*
X136557998Y-108729113D01*
X136530860Y-108717311D01*
X136519159Y-108697709D01*
X136514643Y-108663565D01*
X136514581Y-108662817D01*
X136509547Y-108602777D01*
X137194689Y-108602777D01*
X137189655Y-108663601D01*
X137185542Y-108697860D01*
X137175037Y-108717364D01*
X137150042Y-108728275D01*
X137102462Y-108736758D01*
X137091358Y-108738430D01*
X136998095Y-108752436D01*
X136998095Y-109750691D01*
X137091358Y-109764697D01*
X137143661Y-109773385D01*
X137171980Y-109783436D01*
X137184410Y-109801015D01*
X137189049Y-109832284D01*
X137189655Y-109839527D01*
X137194689Y-109900350D01*
X136511505Y-109900350D01*
X136511505Y-109775112D01*
X136592989Y-109765461D01*
X136643130Y-109758051D01*
X136680051Y-109749928D01*
X136690307Y-109746025D01*
X136696405Y-109726695D01*
X136701332Y-109680539D01*
X136704700Y-109613163D01*
X136706120Y-109530172D01*
X136706141Y-109518231D01*
X136706141Y-109300223D01*
X136203331Y-109300223D01*
X136203331Y-109750691D01*
X136296594Y-109764697D01*
X136348898Y-109773385D01*
X136377216Y-109783436D01*
X136389646Y-109801015D01*
X136394285Y-109832284D01*
X136394891Y-109839527D01*
X136399925Y-109900350D01*
X135716741Y-109900350D01*
X135716741Y-109774783D01*
X135911377Y-109752763D01*
X135911377Y-108752436D01*
X135818114Y-108738430D01*
X135765811Y-108729742D01*
X135737492Y-108719691D01*
X135725062Y-108702113D01*
X135720423Y-108670843D01*
X135719817Y-108663601D01*
X135714783Y-108602777D01*
X136399925Y-108602777D01*
X136394891Y-108663601D01*
G37*
G36*
X143546664Y-108849521D02*
G01*
X143584229Y-108946056D01*
X143629541Y-109062749D01*
X143678677Y-109189488D01*
X143727719Y-109316162D01*
X143769558Y-109424407D01*
X143895803Y-109751337D01*
X143986892Y-109765020D01*
X144038439Y-109773660D01*
X144066103Y-109783924D01*
X144078094Y-109802176D01*
X144082618Y-109834777D01*
X144083014Y-109839527D01*
X144088048Y-109900350D01*
X143402905Y-109900350D01*
X143407939Y-109839907D01*
X143412238Y-109805609D01*
X143423274Y-109785854D01*
X143449180Y-109774161D01*
X143498092Y-109764049D01*
X143504621Y-109762864D01*
X143596269Y-109746264D01*
X143505843Y-109519188D01*
X143012622Y-109519188D01*
X142973558Y-109615207D01*
X142953148Y-109668390D01*
X142939011Y-109710994D01*
X142934493Y-109731562D01*
X142949506Y-109746121D01*
X142989804Y-109759559D01*
X143019646Y-109765368D01*
X143069083Y-109774305D01*
X143094953Y-109785530D01*
X143105786Y-109806063D01*
X143109834Y-109839593D01*
X143114868Y-109900350D01*
X142545221Y-109900350D01*
X142545221Y-109775844D01*
X142637989Y-109761054D01*
X142730756Y-109746264D01*
X142882810Y-109353166D01*
X143080470Y-109353166D01*
X143095597Y-109357962D01*
X143136613Y-109361838D01*
X143196973Y-109364356D01*
X143258887Y-109365101D01*
X143330581Y-109364090D01*
X143388521Y-109361346D01*
X143426160Y-109357308D01*
X143437303Y-109353166D01*
X143431950Y-109331085D01*
X143417479Y-109286619D01*
X143396270Y-109226101D01*
X143370702Y-109155864D01*
X143343156Y-109082239D01*
X143316013Y-109011559D01*
X143291652Y-108950156D01*
X143272454Y-108904362D01*
X143260798Y-108880508D01*
X143258887Y-108878511D01*
X143250586Y-108892751D01*
X143233872Y-108931250D01*
X143211125Y-108987675D01*
X143184723Y-109055695D01*
X143157049Y-109128977D01*
X143130481Y-109201188D01*
X143107400Y-109265998D01*
X143090187Y-109317073D01*
X143081221Y-109348082D01*
X143080470Y-109353166D01*
X142882810Y-109353166D01*
X142950343Y-109178575D01*
X143169930Y-108610887D01*
X143450014Y-108601565D01*
X143546664Y-108849521D01*
G37*
G36*
X134954154Y-108226081D02*
G01*
X135093139Y-108251558D01*
X135222321Y-108298561D01*
X135306708Y-108346486D01*
X135397436Y-108427179D01*
X135471050Y-108533847D01*
X135526871Y-108664492D01*
X135564217Y-108817120D01*
X135582409Y-108989735D01*
X135582142Y-109154246D01*
X135563422Y-109336151D01*
X135524950Y-109492511D01*
X135466266Y-109623861D01*
X135386909Y-109730735D01*
X135286420Y-109813669D01*
X135164338Y-109873197D01*
X135020202Y-109909855D01*
X134921977Y-109921162D01*
X134842549Y-109923387D01*
X134757596Y-109920556D01*
X134694902Y-109914445D01*
X134550130Y-109879919D01*
X134426602Y-109821412D01*
X134324182Y-109738727D01*
X134242734Y-109631667D01*
X134182123Y-109500035D01*
X134142212Y-109343635D01*
X134122867Y-109162269D01*
X134120851Y-109081257D01*
X134121515Y-109065038D01*
X134444152Y-109065038D01*
X134449872Y-109233917D01*
X134468683Y-109375294D01*
X134501351Y-109491675D01*
X134548640Y-109585566D01*
X134611317Y-109659470D01*
X134630961Y-109676310D01*
X134710866Y-109720865D01*
X134805168Y-109742412D01*
X134904737Y-109740276D01*
X135000445Y-109713782D01*
X135019295Y-109705012D01*
X135099513Y-109647351D01*
X135163298Y-109563077D01*
X135211073Y-109451480D01*
X135239575Y-109333679D01*
X135255285Y-109205758D01*
X135259879Y-109068504D01*
X135253941Y-108930741D01*
X135238055Y-108801297D01*
X135212805Y-108688998D01*
X135193167Y-108632953D01*
X135155393Y-108566366D01*
X135102544Y-108502822D01*
X135043573Y-108451581D01*
X134989895Y-108422687D01*
X134907358Y-108406295D01*
X134816881Y-108405471D01*
X134732387Y-108419546D01*
X134685472Y-108437277D01*
X134607482Y-108490246D01*
X134545783Y-108562067D01*
X134499490Y-108655050D01*
X134467712Y-108771504D01*
X134449564Y-108913738D01*
X134444152Y-109065038D01*
X134121515Y-109065038D01*
X134128449Y-108895548D01*
X134153179Y-108735886D01*
X134195587Y-108600438D01*
X134256219Y-108487374D01*
X134321590Y-108408400D01*
X134419843Y-108331896D01*
X134538209Y-108275035D01*
X134670705Y-108238195D01*
X134811348Y-108221752D01*
X134954154Y-108226081D01*
G37*
G36*
X138620062Y-111044343D02*
G01*
X138765031Y-111044948D01*
X138881663Y-111046852D01*
X138974058Y-111050780D01*
X139046311Y-111057459D01*
X139102521Y-111067612D01*
X139146787Y-111081966D01*
X139183205Y-111101246D01*
X139215873Y-111126177D01*
X139246653Y-111155241D01*
X139309120Y-111238376D01*
X139341318Y-111330287D01*
X139342876Y-111427162D01*
X139313424Y-111525191D01*
X139287285Y-111572925D01*
X139248564Y-111621855D01*
X139203097Y-111662989D01*
X139184566Y-111674944D01*
X139126933Y-111705923D01*
X139188706Y-111801499D01*
X139224023Y-111862028D01*
X139263667Y-111939024D01*
X139300587Y-112018577D01*
X139310347Y-112041509D01*
X139370214Y-112185943D01*
X139445234Y-112195954D01*
X139505081Y-112204945D01*
X139539625Y-112215174D01*
X139555801Y-112231474D01*
X139560548Y-112258681D01*
X139560802Y-112276494D01*
X139560802Y-112334242D01*
X139347770Y-112329717D01*
X139134737Y-112325191D01*
X139040524Y-112099314D01*
X138991074Y-111985952D01*
X138947738Y-111899992D01*
X138907494Y-111837710D01*
X138867320Y-111795381D01*
X138824193Y-111769283D01*
X138775090Y-111755690D01*
X138759949Y-111753628D01*
X138684940Y-111745174D01*
X138684940Y-112183641D01*
X138778203Y-112197647D01*
X138830507Y-112206335D01*
X138858825Y-112216386D01*
X138871255Y-112233965D01*
X138875894Y-112265234D01*
X138876500Y-112272477D01*
X138881534Y-112333301D01*
X138198350Y-112333301D01*
X138198350Y-112276023D01*
X138200088Y-112242551D01*
X138209883Y-112221936D01*
X138234613Y-112209480D01*
X138281151Y-112200481D01*
X138315943Y-112195650D01*
X138392986Y-112185336D01*
X138392986Y-111606850D01*
X138684940Y-111606850D01*
X138813459Y-111601014D01*
X138882079Y-111596467D01*
X138927513Y-111588753D01*
X138959007Y-111575412D01*
X138984038Y-111555664D01*
X139028556Y-111494621D01*
X139050100Y-111422554D01*
X139048715Y-111348182D01*
X139024444Y-111280221D01*
X138982426Y-111231233D01*
X138953443Y-111213430D01*
X138916747Y-111203167D01*
X138863147Y-111198642D01*
X138812510Y-111197924D01*
X138684940Y-111197924D01*
X138684940Y-111606850D01*
X138392986Y-111606850D01*
X138392986Y-111185387D01*
X138299723Y-111171381D01*
X138247489Y-111162740D01*
X138219657Y-111153055D01*
X138208544Y-111136495D01*
X138206467Y-111107229D01*
X138206460Y-111100606D01*
X138206460Y-111043837D01*
X138620062Y-111044343D01*
G37*
G36*
X138861363Y-108597596D02*
G01*
X138956038Y-108607780D01*
X139032803Y-108627663D01*
X139098728Y-108659587D01*
X139160884Y-108705896D01*
X139206628Y-108748817D01*
X139273261Y-108827293D01*
X139321256Y-108913464D01*
X139352581Y-109013274D01*
X139369208Y-109132668D01*
X139373257Y-109251564D01*
X139362799Y-109417782D01*
X139331206Y-109559459D01*
X139278146Y-109676946D01*
X139203290Y-109770590D01*
X139106307Y-109840739D01*
X138986868Y-109887743D01*
X138844640Y-109911951D01*
X138744055Y-109915659D01*
X138613174Y-109907857D01*
X138503757Y-109885507D01*
X138492966Y-109882204D01*
X138386686Y-109832269D01*
X138293192Y-109756432D01*
X138218605Y-109660536D01*
X138180710Y-109584067D01*
X138165337Y-109541151D01*
X138154690Y-109499785D01*
X138147909Y-109452543D01*
X138144133Y-109392002D01*
X138142503Y-109310736D01*
X138142203Y-109251564D01*
X138449755Y-109251564D01*
X138450877Y-109359610D01*
X138455133Y-109442007D01*
X138463857Y-109505495D01*
X138478385Y-109556815D01*
X138500051Y-109602705D01*
X138528026Y-109646781D01*
X138574108Y-109691504D01*
X138639298Y-109728218D01*
X138710298Y-109750391D01*
X138746285Y-109754017D01*
X138797820Y-109747687D01*
X138853433Y-109731738D01*
X138859601Y-109729270D01*
X138931193Y-109688956D01*
X138985673Y-109633146D01*
X139024536Y-109558451D01*
X139049278Y-109461481D01*
X139061394Y-109338844D01*
X139063178Y-109267783D01*
X139058215Y-109122686D01*
X139040515Y-109005281D01*
X139008998Y-108912983D01*
X138962580Y-108843211D01*
X138900177Y-108793381D01*
X138855466Y-108772305D01*
X138760688Y-108751453D01*
X138671607Y-108761311D01*
X138592262Y-108800192D01*
X138526693Y-108866411D01*
X138493267Y-108923541D01*
X138476094Y-108962150D01*
X138464144Y-108996940D01*
X138456477Y-109035007D01*
X138452151Y-109083446D01*
X138450225Y-109149352D01*
X138449758Y-109239819D01*
X138449755Y-109251564D01*
X138142203Y-109251564D01*
X138142508Y-109155871D01*
X138144469Y-109085268D01*
X138148932Y-109032416D01*
X138156741Y-108989976D01*
X138168742Y-108950610D01*
X138180319Y-108920377D01*
X138242586Y-108806432D01*
X138328612Y-108714548D01*
X138437888Y-108645260D01*
X138445741Y-108641570D01*
X138491878Y-108621437D01*
X138532035Y-108608079D01*
X138574932Y-108600117D01*
X138629291Y-108596171D01*
X138703833Y-108594863D01*
X138741709Y-108594769D01*
X138861363Y-108597596D01*
G37*
G36*
X140896076Y-108229129D02*
G01*
X141062135Y-108256703D01*
X141211154Y-108296774D01*
X141263867Y-108313339D01*
X141263867Y-108635216D01*
X141191614Y-108635216D01*
X141146764Y-108633704D01*
X141124223Y-108624169D01*
X141113862Y-108599119D01*
X141109422Y-108574393D01*
X141098075Y-108505482D01*
X141088455Y-108461961D01*
X141076135Y-108437365D01*
X141056693Y-108425232D01*
X141025702Y-108419101D01*
X141000807Y-108415763D01*
X140888489Y-108404804D01*
X140786866Y-108403502D01*
X140702298Y-108411545D01*
X140641145Y-108428622D01*
X140630886Y-108433896D01*
X140561977Y-108488086D01*
X140522260Y-108554351D01*
X140509653Y-108635216D01*
X140518139Y-108703488D01*
X140545567Y-108761349D01*
X140594887Y-108811339D01*
X140669050Y-108855997D01*
X140771010Y-108897863D01*
X140842156Y-108921284D01*
X140981806Y-108969168D01*
X141092372Y-109018567D01*
X141177196Y-109071905D01*
X141239621Y-109131604D01*
X141282989Y-109200089D01*
X141304348Y-109256393D01*
X141328778Y-109385095D01*
X141325702Y-109507626D01*
X141296855Y-109620194D01*
X141243972Y-109719006D01*
X141168789Y-109800272D01*
X141073041Y-109860200D01*
X141018578Y-109880799D01*
X140889094Y-109909427D01*
X140745138Y-109922682D01*
X140601362Y-109919480D01*
X140558312Y-109914871D01*
X140480704Y-109901831D01*
X140393361Y-109882848D01*
X140327182Y-109865407D01*
X140209589Y-109830746D01*
X140209589Y-109478639D01*
X140351787Y-109478639D01*
X140363091Y-109584195D01*
X140370449Y-109638251D01*
X140382407Y-109676875D01*
X140403915Y-109702668D01*
X140439923Y-109718236D01*
X140495381Y-109726181D01*
X140575240Y-109729109D01*
X140639410Y-109729547D01*
X140724060Y-109729210D01*
X140783984Y-109726918D01*
X140826886Y-109721510D01*
X140860471Y-109711826D01*
X140892443Y-109696708D01*
X140905422Y-109689495D01*
X140976831Y-109632102D01*
X141021121Y-109557609D01*
X141036780Y-109468587D01*
X141036792Y-109465922D01*
X141024250Y-109381119D01*
X140988223Y-109313509D01*
X140949811Y-109278844D01*
X140918943Y-109263311D01*
X140865033Y-109240739D01*
X140795847Y-109214235D01*
X140724058Y-109188591D01*
X140603406Y-109145163D01*
X140509153Y-109106588D01*
X140436147Y-109070184D01*
X140379235Y-109033272D01*
X140333264Y-108993171D01*
X140318691Y-108977760D01*
X140262181Y-108892624D01*
X140226532Y-108790172D01*
X140212963Y-108678908D01*
X140222694Y-108567334D01*
X140247850Y-108484104D01*
X140302429Y-108393894D01*
X140381595Y-108322147D01*
X140482946Y-108269330D01*
X140604078Y-108235909D01*
X140742589Y-108222353D01*
X140896076Y-108229129D01*
G37*
G36*
X132493082Y-110682584D02*
G01*
X132789091Y-110687004D01*
X132794008Y-110745861D01*
X132794984Y-110784449D01*
X132783452Y-110803277D01*
X132750752Y-110812946D01*
X132737239Y-110815350D01*
X132683435Y-110824922D01*
X132635269Y-110833954D01*
X132631880Y-110834620D01*
X132588206Y-110843260D01*
X132583150Y-111422029D01*
X132581633Y-111585812D01*
X132579770Y-111720669D01*
X132576894Y-111830115D01*
X132572337Y-111917660D01*
X132565432Y-111986819D01*
X132555511Y-112041102D01*
X132541905Y-112084024D01*
X132523948Y-112119096D01*
X132500971Y-112149832D01*
X132472307Y-112179744D01*
X132437289Y-112212344D01*
X132431997Y-112217180D01*
X132360887Y-112273672D01*
X132290176Y-112309622D01*
X132251275Y-112322282D01*
X132163453Y-112340608D01*
X132059514Y-112352798D01*
X131952202Y-112358100D01*
X131854256Y-112355765D01*
X131797205Y-112349026D01*
X131653760Y-112311733D01*
X131535766Y-112256193D01*
X131443913Y-112182920D01*
X131378893Y-112092425D01*
X131348813Y-112015943D01*
X131341047Y-111984102D01*
X131334847Y-111947353D01*
X131330046Y-111901863D01*
X131326479Y-111843795D01*
X131323979Y-111769315D01*
X131322380Y-111674588D01*
X131321515Y-111555778D01*
X131321217Y-111409050D01*
X131321211Y-111379640D01*
X131321211Y-110841709D01*
X131284717Y-110834225D01*
X131243748Y-110826542D01*
X131192568Y-110817798D01*
X131187399Y-110816961D01*
X131148195Y-110808367D01*
X131130947Y-110792406D01*
X131126671Y-110758159D01*
X131126575Y-110743038D01*
X131126575Y-110678895D01*
X131824021Y-110678895D01*
X131824021Y-110743038D01*
X131821849Y-110784731D01*
X131809343Y-110804931D01*
X131777521Y-110814557D01*
X131763197Y-110816961D01*
X131712218Y-110825589D01*
X131669114Y-110833571D01*
X131665879Y-110834225D01*
X131629385Y-110841709D01*
X131629475Y-111364485D01*
X131630059Y-111517205D01*
X131631697Y-111651738D01*
X131634305Y-111765198D01*
X131637797Y-111854704D01*
X131642088Y-111917370D01*
X131646774Y-111949232D01*
X131677651Y-112015847D01*
X131728204Y-112080371D01*
X131788751Y-112132227D01*
X131837255Y-112157271D01*
X131883791Y-112167442D01*
X131948814Y-112174625D01*
X132018409Y-112177293D01*
X132019722Y-112177290D01*
X132132184Y-112168166D01*
X132220877Y-112140369D01*
X132289777Y-112092037D01*
X132339224Y-112027624D01*
X132383599Y-111952138D01*
X132393641Y-110842194D01*
X132356181Y-110834467D01*
X132314453Y-110826601D01*
X132262866Y-110817766D01*
X132257897Y-110816961D01*
X132218774Y-110808406D01*
X132201503Y-110792538D01*
X132197178Y-110758479D01*
X132197073Y-110742672D01*
X132197073Y-110678163D01*
X132493082Y-110682584D01*
G37*
G36*
X140343882Y-111034288D02*
G01*
X140379896Y-111040507D01*
X140466946Y-111057288D01*
X140527243Y-111071750D01*
X140565687Y-111088677D01*
X140587178Y-111112851D01*
X140596615Y-111149058D01*
X140598897Y-111202079D01*
X140598861Y-111254291D01*
X140598861Y-111408780D01*
X140535075Y-111408780D01*
X140499328Y-111407270D01*
X140476820Y-111398326D01*
X140462783Y-111375328D01*
X140452450Y-111331653D01*
X140444525Y-111283026D01*
X140437956Y-111247894D01*
X140427150Y-111224886D01*
X140405697Y-111210525D01*
X140367188Y-111201331D01*
X140305212Y-111193825D01*
X140274468Y-111190721D01*
X140172203Y-111189873D01*
X140089346Y-111208561D01*
X140028474Y-111245343D01*
X139992160Y-111298778D01*
X139982514Y-111354163D01*
X139990557Y-111404217D01*
X140016994Y-111446604D01*
X140065286Y-111483990D01*
X140138893Y-111519043D01*
X140241278Y-111554428D01*
X140243271Y-111555043D01*
X140319569Y-111579626D01*
X140390413Y-111604367D01*
X140446213Y-111625817D01*
X140470639Y-111636750D01*
X140553701Y-111696099D01*
X140614020Y-111775737D01*
X140649622Y-111871032D01*
X140658531Y-111977356D01*
X140648352Y-112053511D01*
X140611524Y-112148197D01*
X140548047Y-112227988D01*
X140461761Y-112289069D01*
X140377980Y-112322154D01*
X140280467Y-112340500D01*
X140164010Y-112348403D01*
X140040339Y-112345980D01*
X139921181Y-112333349D01*
X139839975Y-112316764D01*
X139780797Y-112300561D01*
X139733637Y-112286361D01*
X139707590Y-112276924D01*
X139706162Y-112276150D01*
X139699573Y-112256812D01*
X139694360Y-112212462D01*
X139691197Y-112150519D01*
X139690560Y-112104335D01*
X139690560Y-111942163D01*
X139759493Y-111947151D01*
X139828427Y-111952138D01*
X139842670Y-112052163D01*
X139850482Y-112100633D01*
X139861397Y-112133665D01*
X139881061Y-112154230D01*
X139915119Y-112165302D01*
X139969216Y-112169850D01*
X140048998Y-112170848D01*
X140068188Y-112170883D01*
X140181415Y-112164822D01*
X140266471Y-112145488D01*
X140325270Y-112111751D01*
X140359721Y-112062479D01*
X140371736Y-111996542D01*
X140371786Y-111991266D01*
X140365908Y-111939565D01*
X140345447Y-111898213D01*
X140306156Y-111863642D01*
X140243793Y-111832283D01*
X140154112Y-111800568D01*
X140139589Y-111796036D01*
X140011328Y-111753187D01*
X139911313Y-111711426D01*
X139835588Y-111667950D01*
X139780195Y-111619952D01*
X139741175Y-111564627D01*
X139714571Y-111499170D01*
X139712907Y-111493571D01*
X139698607Y-111397646D01*
X139707927Y-111300544D01*
X139738709Y-111211401D01*
X139788794Y-111139353D01*
X139798909Y-111129610D01*
X139873049Y-111081589D01*
X139970856Y-111047089D01*
X140086090Y-111027068D01*
X140212512Y-111022482D01*
X140343882Y-111034288D01*
G37*
D14*
%TO.C,J3*%
X154610000Y-51104600D02*
X154610000Y-78892600D01*
X147396000Y-51104600D02*
X154610000Y-51104600D01*
X154610000Y-78892600D02*
X147396000Y-78892600D01*
X147396000Y-78892600D02*
X147396000Y-51104600D01*
D12*
X145961480Y-54564280D02*
G75*
G03*
X145961480Y-54564280I-100000J0D01*
G01*
%TO.C,G\u002A\u002A\u002A*%
G36*
X144143173Y-59380436D02*
G01*
X144228830Y-59431059D01*
X144299444Y-59475020D01*
X144346298Y-59506759D01*
X144360553Y-59519117D01*
X144362209Y-59553762D01*
X144346539Y-59602902D01*
X144321830Y-59647839D01*
X144296369Y-59669875D01*
X144293640Y-59670092D01*
X144265147Y-59658739D01*
X144207687Y-59628738D01*
X144130270Y-59584975D01*
X144061785Y-59544402D01*
X143977666Y-59491394D01*
X143910140Y-59444625D01*
X143867113Y-59409840D01*
X143855642Y-59394529D01*
X143868632Y-59360050D01*
X143897317Y-59315869D01*
X143938496Y-59262310D01*
X144143173Y-59380436D01*
G37*
G36*
X143192649Y-60553476D02*
G01*
X143249552Y-60583966D01*
X143327058Y-60628949D01*
X143408962Y-60678862D01*
X143502788Y-60737915D01*
X143564113Y-60779380D01*
X143598650Y-60808815D01*
X143612114Y-60831778D01*
X143610220Y-60853830D01*
X143604173Y-60868748D01*
X143581342Y-60908473D01*
X143565797Y-60922023D01*
X143544039Y-60907261D01*
X143501216Y-60868751D01*
X143452101Y-60820364D01*
X143377436Y-60751166D01*
X143293719Y-60683699D01*
X143246394Y-60650489D01*
X143177657Y-60601328D01*
X143143569Y-60565421D01*
X143146158Y-60545461D01*
X143164879Y-60542251D01*
X143192649Y-60553476D01*
G37*
G36*
X143531386Y-60432703D02*
G01*
X143620158Y-60486702D01*
X143693258Y-60535076D01*
X143742702Y-60572276D01*
X143760437Y-60591871D01*
X143753605Y-60626830D01*
X143730304Y-60676918D01*
X143699826Y-60726221D01*
X143671462Y-60758827D01*
X143660003Y-60763865D01*
X143635063Y-60752062D01*
X143580823Y-60721498D01*
X143505853Y-60677119D01*
X143437391Y-60635413D01*
X143352141Y-60580942D01*
X143281748Y-60532337D01*
X143234714Y-60495692D01*
X143219739Y-60479401D01*
X143223616Y-60443629D01*
X143248295Y-60391104D01*
X143257884Y-60376082D01*
X143308154Y-60302103D01*
X143531386Y-60432703D01*
G37*
G36*
X136282971Y-60574536D02*
G01*
X136267753Y-60602079D01*
X136218547Y-60643786D01*
X136175945Y-60672829D01*
X136098749Y-60729039D01*
X136015592Y-60799378D01*
X135970239Y-60842704D01*
X135916972Y-60895253D01*
X135876336Y-60931977D01*
X135858330Y-60944362D01*
X135838254Y-60927821D01*
X135819563Y-60902005D01*
X135805584Y-60862248D01*
X135828863Y-60828446D01*
X135830944Y-60826609D01*
X135869160Y-60798118D01*
X135931364Y-60756705D01*
X136007721Y-60708356D01*
X136088397Y-60659055D01*
X136163557Y-60614788D01*
X136223367Y-60581540D01*
X136257994Y-60565295D01*
X136261488Y-60564591D01*
X136282971Y-60574536D01*
G37*
G36*
X144081358Y-59103441D02*
G01*
X144145375Y-59134484D01*
X144238123Y-59189417D01*
X144245391Y-59193896D01*
X144341546Y-59254755D01*
X144404350Y-59299621D01*
X144439451Y-59334306D01*
X144452495Y-59364621D01*
X144449130Y-59396376D01*
X144447482Y-59401865D01*
X144429509Y-59433459D01*
X144398300Y-59443337D01*
X144347918Y-59430174D01*
X144272425Y-59392640D01*
X144190237Y-59344343D01*
X144092072Y-59283701D01*
X144027140Y-59240157D01*
X143990106Y-59208258D01*
X143975634Y-59182551D01*
X143978386Y-59157583D01*
X143987787Y-59137470D01*
X144009954Y-59106553D01*
X144038681Y-59094671D01*
X144081358Y-59103441D01*
G37*
G36*
X135505431Y-59308636D02*
G01*
X135537273Y-59348711D01*
X135561549Y-59393295D01*
X135567194Y-59416326D01*
X135549306Y-59435962D01*
X135501907Y-59471667D01*
X135434393Y-59517542D01*
X135356160Y-59567693D01*
X135276605Y-59616223D01*
X135205124Y-59657237D01*
X135151113Y-59684837D01*
X135125710Y-59693351D01*
X135102535Y-59675267D01*
X135079311Y-59636451D01*
X135060149Y-59588130D01*
X135053386Y-59560464D01*
X135071119Y-59542472D01*
X135117999Y-59508024D01*
X135184545Y-59463117D01*
X135261279Y-59413750D01*
X135338720Y-59365921D01*
X135407389Y-59325630D01*
X135457806Y-59298873D01*
X135478857Y-59291240D01*
X135505431Y-59308636D01*
G37*
G36*
X143523318Y-60039151D02*
G01*
X143575586Y-60067496D01*
X143646630Y-60107809D01*
X143726778Y-60154419D01*
X143806358Y-60201659D01*
X143875700Y-60243858D01*
X143925130Y-60275347D01*
X143943544Y-60288734D01*
X143940462Y-60312670D01*
X143919568Y-60359549D01*
X143888633Y-60415688D01*
X143855427Y-60467401D01*
X143827724Y-60501003D01*
X143819995Y-60506281D01*
X143791742Y-60499409D01*
X143733868Y-60473427D01*
X143654895Y-60432494D01*
X143566298Y-60382499D01*
X143338103Y-60248931D01*
X143373229Y-60194536D01*
X143413555Y-60132097D01*
X143444434Y-60084292D01*
X143475928Y-60044407D01*
X143499497Y-60028443D01*
X143523318Y-60039151D01*
G37*
G36*
X143695119Y-59771507D02*
G01*
X143751777Y-59800991D01*
X143824627Y-59842932D01*
X143904199Y-59891439D01*
X143981020Y-59940621D01*
X144045619Y-59984587D01*
X144088526Y-60017447D01*
X144100879Y-60032013D01*
X144089901Y-60070156D01*
X144062987Y-60123451D01*
X144029167Y-60177266D01*
X143997471Y-60216966D01*
X143979483Y-60228729D01*
X143951569Y-60217628D01*
X143894295Y-60188146D01*
X143816533Y-60145023D01*
X143743448Y-60102655D01*
X143657414Y-60051741D01*
X143586870Y-60009772D01*
X143539904Y-59981575D01*
X143524578Y-59972052D01*
X143529596Y-59950751D01*
X143553364Y-59906868D01*
X143587412Y-59853248D01*
X143623271Y-59802740D01*
X143652472Y-59768192D01*
X143664124Y-59760369D01*
X143695119Y-59771507D01*
G37*
G36*
X135943610Y-60068340D02*
G01*
X135979564Y-60111718D01*
X136017018Y-60166976D01*
X136046530Y-60220173D01*
X136058661Y-60257370D01*
X136058663Y-60257637D01*
X136040740Y-60278392D01*
X135993174Y-60315085D01*
X135925268Y-60361765D01*
X135846329Y-60412477D01*
X135765660Y-60461269D01*
X135692567Y-60502187D01*
X135636352Y-60529278D01*
X135630540Y-60531560D01*
X135599730Y-60528482D01*
X135564630Y-60492418D01*
X135535597Y-60447002D01*
X135502445Y-60386567D01*
X135481554Y-60341053D01*
X135477836Y-60327250D01*
X135495680Y-60308423D01*
X135542959Y-60273345D01*
X135610299Y-60227895D01*
X135688325Y-60177954D01*
X135767660Y-60129403D01*
X135838931Y-60088123D01*
X135892760Y-60059994D01*
X135918593Y-60050783D01*
X135943610Y-60068340D01*
G37*
G36*
X136129027Y-60358215D02*
G01*
X136166880Y-60398492D01*
X136199848Y-60445855D01*
X136214981Y-60484133D01*
X136215039Y-60485813D01*
X136197461Y-60504987D01*
X136150726Y-60541424D01*
X136083834Y-60589147D01*
X136005788Y-60642176D01*
X135925586Y-60694533D01*
X135852230Y-60740239D01*
X135794720Y-60773316D01*
X135762057Y-60787784D01*
X135760143Y-60787986D01*
X135741177Y-60771207D01*
X135707824Y-60728794D01*
X135690549Y-60704213D01*
X135656899Y-60651738D01*
X135647447Y-60621930D01*
X135660103Y-60601325D01*
X135672989Y-60591071D01*
X135722122Y-60557424D01*
X135791663Y-60513457D01*
X135871741Y-60464955D01*
X135952486Y-60417704D01*
X136024028Y-60377491D01*
X136076497Y-60350101D01*
X136099238Y-60341196D01*
X136129027Y-60358215D01*
G37*
G36*
X143839089Y-59502841D02*
G01*
X143892805Y-59530778D01*
X143964315Y-59570556D01*
X144044147Y-59616623D01*
X144122829Y-59663429D01*
X144190889Y-59705424D01*
X144238854Y-59737056D01*
X144257253Y-59752774D01*
X144257256Y-59752842D01*
X144246130Y-59788249D01*
X144219055Y-59839056D01*
X144185487Y-59890454D01*
X144154881Y-59927630D01*
X144139520Y-59937267D01*
X144109140Y-59925341D01*
X144051374Y-59895021D01*
X143976552Y-59851869D01*
X143942324Y-59831131D01*
X143841305Y-59768879D01*
X143773194Y-59724408D01*
X143733162Y-59691576D01*
X143716383Y-59664237D01*
X143718029Y-59636251D01*
X143733273Y-59601474D01*
X143744563Y-59579467D01*
X143776584Y-59526348D01*
X143804722Y-59495467D01*
X143812640Y-59492295D01*
X143839089Y-59502841D01*
G37*
G36*
X135770061Y-59782379D02*
G01*
X135800547Y-59818814D01*
X135820842Y-59848813D01*
X135855983Y-59908077D01*
X135877152Y-59955667D01*
X135879947Y-59969363D01*
X135862012Y-59990885D01*
X135814461Y-60028250D01*
X135746674Y-60075500D01*
X135668034Y-60126674D01*
X135587920Y-60175812D01*
X135515714Y-60216954D01*
X135460798Y-60244140D01*
X135435331Y-60251838D01*
X135411954Y-60233629D01*
X135380012Y-60187567D01*
X135365034Y-60160314D01*
X135339073Y-60099657D01*
X135327834Y-60052963D01*
X135328897Y-60041284D01*
X135351949Y-60017955D01*
X135404190Y-59979714D01*
X135475848Y-59933523D01*
X135503587Y-59916837D01*
X135585340Y-59868271D01*
X135657189Y-59825089D01*
X135706587Y-59794845D01*
X135714729Y-59789697D01*
X135745296Y-59774814D01*
X135770061Y-59782379D01*
G37*
G36*
X136501392Y-56553419D02*
G01*
X136523976Y-56593414D01*
X136545970Y-56671227D01*
X136560314Y-56738953D01*
X136600341Y-56914603D01*
X136650912Y-57094943D01*
X136708739Y-57270932D01*
X136770535Y-57433530D01*
X136833012Y-57573697D01*
X136892882Y-57682391D01*
X136915163Y-57714764D01*
X136962475Y-57779684D01*
X136984302Y-57817103D01*
X136983037Y-57834439D01*
X136961070Y-57839106D01*
X136955275Y-57839173D01*
X136909988Y-57825335D01*
X136854477Y-57791153D01*
X136843230Y-57782155D01*
X136770099Y-57700817D01*
X136695510Y-57581150D01*
X136622296Y-57429298D01*
X136553292Y-57251407D01*
X136491331Y-57053619D01*
X136469657Y-56972299D01*
X136434486Y-56815236D01*
X136418645Y-56696734D01*
X136422024Y-56615127D01*
X136442902Y-56570290D01*
X136475330Y-56547094D01*
X136501392Y-56553419D01*
G37*
G36*
X135401978Y-59107910D02*
G01*
X135430346Y-59148583D01*
X135451326Y-59193451D01*
X135455497Y-59214380D01*
X135437470Y-59231356D01*
X135388515Y-59265828D01*
X135316315Y-59312821D01*
X135228557Y-59367357D01*
X135132926Y-59424458D01*
X135115205Y-59434777D01*
X135009478Y-59496089D01*
X134983469Y-59439005D01*
X134973472Y-59379456D01*
X134995330Y-59333184D01*
X135042460Y-59313617D01*
X135044952Y-59313580D01*
X135072881Y-59300594D01*
X135075726Y-59291240D01*
X135093820Y-59271421D01*
X135109235Y-59268901D01*
X135138963Y-59256838D01*
X135142744Y-59246561D01*
X135160838Y-59226742D01*
X135176253Y-59224222D01*
X135205982Y-59212159D01*
X135209762Y-59201882D01*
X135226887Y-59180339D01*
X135233036Y-59179543D01*
X135264899Y-59165571D01*
X135304267Y-59134864D01*
X135347186Y-59102410D01*
X135377935Y-59090185D01*
X135401978Y-59107910D01*
G37*
G36*
X142976917Y-56549261D02*
G01*
X142993187Y-56569030D01*
X143001574Y-56594109D01*
X143002004Y-56633706D01*
X142994402Y-56697031D01*
X142978692Y-56793294D01*
X142974731Y-56816377D01*
X142924894Y-57048697D01*
X142859067Y-57266292D01*
X142780248Y-57461741D01*
X142691437Y-57627622D01*
X142595631Y-57756512D01*
X142594426Y-57757831D01*
X142542645Y-57803288D01*
X142490183Y-57832551D01*
X142447808Y-57841688D01*
X142426286Y-57826765D01*
X142425418Y-57819569D01*
X142440718Y-57790576D01*
X142459741Y-57771479D01*
X142512875Y-57709293D01*
X142571107Y-57609601D01*
X142631848Y-57478909D01*
X142692505Y-57323723D01*
X142750486Y-57150549D01*
X142803201Y-56965892D01*
X142838350Y-56820970D01*
X142862970Y-56716337D01*
X142886270Y-56627332D01*
X142905652Y-56563265D01*
X142918516Y-56533443D01*
X142918678Y-56533270D01*
X142949676Y-56529369D01*
X142976917Y-56549261D01*
G37*
G36*
X135621199Y-59531324D02*
G01*
X135654028Y-59572136D01*
X135687703Y-59623192D01*
X135713254Y-59670611D01*
X135721712Y-59700513D01*
X135720241Y-59703505D01*
X135692113Y-59723178D01*
X135636722Y-59757708D01*
X135563786Y-59801448D01*
X135483024Y-59848748D01*
X135404153Y-59893961D01*
X135336893Y-59931439D01*
X135290962Y-59955532D01*
X135276449Y-59961425D01*
X135254428Y-59943280D01*
X135223590Y-59897537D01*
X135210216Y-59872957D01*
X135178934Y-59809175D01*
X135167378Y-59775326D01*
X135173757Y-59762186D01*
X135188357Y-59760369D01*
X135220331Y-59746404D01*
X135258759Y-59716463D01*
X135298424Y-59688504D01*
X135324843Y-59684272D01*
X135342720Y-59679513D01*
X135343799Y-59672330D01*
X135361872Y-59651349D01*
X135377309Y-59648672D01*
X135407049Y-59637408D01*
X135410818Y-59627838D01*
X135429382Y-59605676D01*
X135460040Y-59591381D01*
X135513751Y-59565303D01*
X135539824Y-59545197D01*
X135579009Y-59519216D01*
X135598186Y-59514635D01*
X135621199Y-59531324D01*
G37*
G36*
X143773017Y-58858191D02*
G01*
X143823328Y-58892709D01*
X143879552Y-58937947D01*
X143929621Y-58983850D01*
X143961467Y-59020362D01*
X143966842Y-59032896D01*
X143955401Y-59073256D01*
X143923175Y-59144519D01*
X143873315Y-59241516D01*
X143808972Y-59359082D01*
X143733295Y-59492048D01*
X143649434Y-59635246D01*
X143560539Y-59783511D01*
X143469760Y-59931673D01*
X143380246Y-60074566D01*
X143295149Y-60207022D01*
X143217618Y-60323874D01*
X143150803Y-60419955D01*
X143097853Y-60490096D01*
X143061920Y-60529131D01*
X143050923Y-60535432D01*
X143009930Y-60531698D01*
X142947050Y-60517138D01*
X142922096Y-60509753D01*
X142839190Y-60483533D01*
X142791553Y-60464661D01*
X142772313Y-60445639D01*
X142774599Y-60418966D01*
X142791541Y-60377143D01*
X142794393Y-60370366D01*
X142842143Y-60267915D01*
X142910437Y-60137570D01*
X142994151Y-59988005D01*
X143088159Y-59827896D01*
X143187340Y-59665918D01*
X143286568Y-59510748D01*
X143380719Y-59371060D01*
X143404906Y-59336702D01*
X143483334Y-59225207D01*
X143555499Y-59120200D01*
X143616124Y-59029542D01*
X143659934Y-58961095D01*
X143679018Y-58928223D01*
X143709620Y-58876437D01*
X143734808Y-58847004D01*
X143740689Y-58844450D01*
X143773017Y-58858191D01*
G37*
G36*
X135290153Y-58687724D02*
G01*
X135379338Y-58717020D01*
X135474061Y-58739412D01*
X135505761Y-58744448D01*
X135567547Y-58755576D01*
X135605802Y-58768889D01*
X135611873Y-58775548D01*
X135594504Y-58803015D01*
X135546493Y-58850872D01*
X135473985Y-58914154D01*
X135383125Y-58987894D01*
X135280056Y-59067126D01*
X135170924Y-59146883D01*
X135061873Y-59222200D01*
X135047138Y-59231991D01*
X134866131Y-59362511D01*
X134727197Y-59489116D01*
X134628512Y-59616213D01*
X134568253Y-59748213D01*
X134544597Y-59889524D01*
X134555720Y-60044557D01*
X134599799Y-60217719D01*
X134617823Y-60270123D01*
X134644936Y-60347068D01*
X134664775Y-60406768D01*
X134673497Y-60437604D01*
X134673615Y-60438842D01*
X134661491Y-60454226D01*
X134628722Y-60436721D01*
X134580714Y-60389735D01*
X134563090Y-60369120D01*
X134495704Y-60264611D01*
X134435706Y-60127311D01*
X134388055Y-59969043D01*
X134379391Y-59931050D01*
X134366937Y-59829179D01*
X134364999Y-59702988D01*
X134372571Y-59569175D01*
X134388651Y-59444439D01*
X134412234Y-59345478D01*
X134415092Y-59337294D01*
X134484376Y-59201820D01*
X134591779Y-59064251D01*
X134731431Y-58930325D01*
X134897466Y-58805776D01*
X135055588Y-58711229D01*
X135180658Y-58644380D01*
X135290153Y-58687724D01*
G37*
G36*
X144637122Y-59483834D02*
G01*
X144699786Y-59560022D01*
X144754578Y-59644455D01*
X144782404Y-59701624D01*
X144804189Y-59767490D01*
X144812941Y-59826586D01*
X144809890Y-59897173D01*
X144800439Y-59969697D01*
X144755008Y-60165496D01*
X144673597Y-60383795D01*
X144557428Y-60622346D01*
X144407721Y-60878904D01*
X144225695Y-61151220D01*
X144012572Y-61437048D01*
X143983328Y-61474219D01*
X143914608Y-61558947D01*
X143867741Y-61610397D01*
X143838596Y-61631639D01*
X143823045Y-61625743D01*
X143817100Y-61597792D01*
X143811009Y-61554276D01*
X143800922Y-61506375D01*
X143791272Y-61473777D01*
X143788176Y-61469340D01*
X143782098Y-61450519D01*
X143775179Y-61417388D01*
X143756024Y-61354463D01*
X143738838Y-61316861D01*
X143714365Y-61259826D01*
X143704848Y-61224358D01*
X143686993Y-61171766D01*
X143664147Y-61129415D01*
X143643453Y-61092560D01*
X143641852Y-61078399D01*
X143643361Y-61060685D01*
X143632564Y-61024692D01*
X143628207Y-61001077D01*
X143633452Y-60969912D01*
X143651027Y-60925616D01*
X143683655Y-60862608D01*
X143734062Y-60775308D01*
X143804974Y-60658134D01*
X143837117Y-60605826D01*
X144044348Y-60263192D01*
X144227268Y-59947615D01*
X144384108Y-59662176D01*
X144436619Y-59562022D01*
X144533302Y-59374845D01*
X144637122Y-59483834D01*
G37*
G36*
X135655957Y-56436830D02*
G01*
X135718901Y-56450219D01*
X135746328Y-56465798D01*
X135755204Y-56486784D01*
X135761528Y-56528156D01*
X135765413Y-56594368D01*
X135766970Y-56689874D01*
X135766313Y-56819127D01*
X135763552Y-56986582D01*
X135761678Y-57074549D01*
X135757150Y-57236247D01*
X135750642Y-57412528D01*
X135742524Y-57597319D01*
X135733165Y-57784549D01*
X135722937Y-57968144D01*
X135712208Y-58142032D01*
X135701349Y-58300142D01*
X135690729Y-58436402D01*
X135680719Y-58544738D01*
X135671689Y-58619079D01*
X135665749Y-58648980D01*
X135655632Y-58670416D01*
X135635966Y-58681450D01*
X135597638Y-58682669D01*
X135531537Y-58674662D01*
X135455705Y-58662533D01*
X135381758Y-58645907D01*
X135323779Y-58625066D01*
X135302676Y-58611846D01*
X135271123Y-58557564D01*
X135244957Y-58462703D01*
X135224053Y-58326380D01*
X135208290Y-58147713D01*
X135197543Y-57925819D01*
X135194980Y-57839173D01*
X135191358Y-57674391D01*
X135190375Y-57542047D01*
X135192710Y-57429944D01*
X135199041Y-57325884D01*
X135210046Y-57217669D01*
X135226405Y-57093101D01*
X135242739Y-56980634D01*
X135268733Y-56813152D01*
X135291835Y-56684799D01*
X135313762Y-56590264D01*
X135336232Y-56524235D01*
X135360960Y-56481402D01*
X135389665Y-56456453D01*
X135415508Y-56446100D01*
X135489787Y-56433909D01*
X135574761Y-56431106D01*
X135655957Y-56436830D01*
G37*
G36*
X143956218Y-56433076D02*
G01*
X144017419Y-56438052D01*
X144053110Y-56448625D01*
X144072856Y-56466642D01*
X144077068Y-56473713D01*
X144096254Y-56526414D01*
X144118661Y-56614977D01*
X144142801Y-56730835D01*
X144167186Y-56865421D01*
X144190328Y-57010168D01*
X144210740Y-57156507D01*
X144226932Y-57295873D01*
X144234689Y-57381214D01*
X144243015Y-57518784D01*
X144247711Y-57663227D01*
X144248452Y-57797536D01*
X144244908Y-57904702D01*
X144244808Y-57906192D01*
X144234026Y-58023762D01*
X144217679Y-58149949D01*
X144197478Y-58275766D01*
X144175131Y-58392226D01*
X144152350Y-58490345D01*
X144130843Y-58561135D01*
X144113903Y-58594146D01*
X144074567Y-58614604D01*
X144012772Y-58628336D01*
X143998539Y-58629760D01*
X143932756Y-58637864D01*
X143882798Y-58649285D01*
X143876844Y-58651578D01*
X143832725Y-58651715D01*
X143805776Y-58638303D01*
X143786971Y-58602798D01*
X143767997Y-58528645D01*
X143749768Y-58421861D01*
X143733200Y-58288465D01*
X143719207Y-58134473D01*
X143711448Y-58017889D01*
X143708057Y-57962613D01*
X143702241Y-57872329D01*
X143694630Y-57756604D01*
X143685851Y-57625006D01*
X143678444Y-57515251D01*
X143669304Y-57351976D01*
X143662433Y-57172145D01*
X143658313Y-56993455D01*
X143657427Y-56833607D01*
X143658212Y-56772533D01*
X143665259Y-56431927D01*
X143859944Y-56431856D01*
X143956218Y-56433076D01*
G37*
G36*
X144384273Y-58699856D02*
G01*
X144504530Y-58774851D01*
X144633199Y-58872483D01*
X144755791Y-58980548D01*
X144857816Y-59086839D01*
X144888369Y-59124476D01*
X144973924Y-59271408D01*
X145029839Y-59442199D01*
X145056398Y-59627529D01*
X145053885Y-59818080D01*
X145022584Y-60004531D01*
X144962778Y-60177565D01*
X144874752Y-60327862D01*
X144850784Y-60357951D01*
X144806554Y-60403576D01*
X144769896Y-60430095D01*
X144750195Y-60431326D01*
X144749023Y-60424969D01*
X144756022Y-60402873D01*
X144774511Y-60348400D01*
X144801154Y-60271323D01*
X144815743Y-60229499D01*
X144867348Y-60040643D01*
X144881366Y-59872519D01*
X144857178Y-59720769D01*
X144794169Y-59581040D01*
X144707700Y-59466315D01*
X144631131Y-59390687D01*
X144541806Y-59315958D01*
X144480776Y-59272637D01*
X144415917Y-59230601D01*
X144367345Y-59197519D01*
X144346614Y-59181464D01*
X144321293Y-59163984D01*
X144271295Y-59135936D01*
X144250590Y-59125179D01*
X144203914Y-59095984D01*
X144138717Y-59048276D01*
X144063102Y-58988847D01*
X143985167Y-58924495D01*
X143913014Y-58862013D01*
X143854743Y-58808197D01*
X143818454Y-58769843D01*
X143810466Y-58755974D01*
X143830554Y-58744087D01*
X143882139Y-58731809D01*
X143927102Y-58725162D01*
X144022325Y-58708280D01*
X144121634Y-58682462D01*
X144152053Y-58672399D01*
X144260367Y-58633450D01*
X144384273Y-58699856D01*
G37*
G36*
X135688115Y-58847206D02*
G01*
X135702032Y-58870748D01*
X135727347Y-58918751D01*
X135735004Y-58933808D01*
X135762532Y-58980765D01*
X135810250Y-59054523D01*
X135871981Y-59145813D01*
X135941549Y-59245368D01*
X135958324Y-59268901D01*
X136039596Y-59383838D01*
X136124991Y-59506916D01*
X136204367Y-59623390D01*
X136267581Y-59718514D01*
X136267623Y-59718579D01*
X136328131Y-59815934D01*
X136391912Y-59926001D01*
X136455505Y-60041887D01*
X136515449Y-60156705D01*
X136568281Y-60263565D01*
X136610539Y-60355576D01*
X136638762Y-60425850D01*
X136649488Y-60467496D01*
X136647711Y-60475036D01*
X136618632Y-60489579D01*
X136561831Y-60510690D01*
X136492747Y-60533393D01*
X136426818Y-60552708D01*
X136379483Y-60563656D01*
X136369995Y-60564591D01*
X136353155Y-60546852D01*
X136316419Y-60497737D01*
X136264139Y-60423397D01*
X136200664Y-60329984D01*
X136148700Y-60251673D01*
X136083243Y-60149784D01*
X136008522Y-60029671D01*
X135927787Y-59896947D01*
X135844290Y-59757227D01*
X135761280Y-59616126D01*
X135682009Y-59479256D01*
X135609728Y-59352232D01*
X135547686Y-59240669D01*
X135499136Y-59150180D01*
X135467326Y-59086380D01*
X135455509Y-59054882D01*
X135455497Y-59054474D01*
X135470421Y-59030108D01*
X135508354Y-58989429D01*
X135559039Y-58941576D01*
X135612220Y-58895689D01*
X135657639Y-58860908D01*
X135685038Y-58846370D01*
X135688115Y-58847206D01*
G37*
G36*
X134904891Y-59444078D02*
G01*
X134937860Y-59494660D01*
X134978931Y-59568294D01*
X135005643Y-59620748D01*
X135095552Y-59795707D01*
X135206090Y-59998243D01*
X135332150Y-60219407D01*
X135468627Y-60450252D01*
X135610414Y-60681830D01*
X135619401Y-60696230D01*
X135692601Y-60813895D01*
X135744795Y-60900269D01*
X135778837Y-60961831D01*
X135797582Y-61005064D01*
X135803885Y-61036450D01*
X135800600Y-61062468D01*
X135791592Y-61087171D01*
X135742073Y-61212616D01*
X135696390Y-61338899D01*
X135658459Y-61454362D01*
X135632198Y-61547346D01*
X135623816Y-61586623D01*
X135610048Y-61644466D01*
X135594109Y-61678103D01*
X135588275Y-61681565D01*
X135567646Y-61664889D01*
X135526248Y-61619540D01*
X135470184Y-61552542D01*
X135408657Y-61474925D01*
X135323173Y-61361658D01*
X135236648Y-61241981D01*
X135152556Y-61121269D01*
X135074370Y-61004893D01*
X135005564Y-60898226D01*
X134949609Y-60806639D01*
X134909981Y-60735507D01*
X134890152Y-60690201D01*
X134892126Y-60675946D01*
X134892619Y-60666557D01*
X134883136Y-60659192D01*
X134855108Y-60625667D01*
X134817270Y-60560076D01*
X134774420Y-60472576D01*
X134731356Y-60373325D01*
X134692877Y-60272480D01*
X134674881Y-60218329D01*
X134640976Y-60077156D01*
X134624857Y-59936553D01*
X134626823Y-59808245D01*
X134647177Y-59703955D01*
X134660829Y-59671011D01*
X134697883Y-59611759D01*
X134748309Y-59547121D01*
X134802563Y-59487539D01*
X134851103Y-59443456D01*
X134884386Y-59425316D01*
X134885395Y-59425277D01*
X134904891Y-59444078D01*
G37*
G36*
X139796522Y-52883016D02*
G01*
X140017492Y-52885372D01*
X140234435Y-52889504D01*
X140440430Y-52895313D01*
X140628559Y-52902701D01*
X140791902Y-52911569D01*
X140923540Y-52921818D01*
X141007094Y-52931812D01*
X141332075Y-52991112D01*
X141641174Y-53064856D01*
X141928959Y-53151178D01*
X142189999Y-53248214D01*
X142418862Y-53354099D01*
X142610117Y-53466967D01*
X142652619Y-53496937D01*
X142832054Y-53656080D01*
X142988232Y-53852456D01*
X143120452Y-54084731D01*
X143228016Y-54351572D01*
X143310222Y-54651644D01*
X143340557Y-54807613D01*
X143354404Y-54898573D01*
X143368944Y-55011137D01*
X143383475Y-55137634D01*
X143397294Y-55270392D01*
X143409699Y-55401737D01*
X143419988Y-55523999D01*
X143427460Y-55629505D01*
X143431411Y-55710583D01*
X143431140Y-55759560D01*
X143428671Y-55770334D01*
X143404320Y-55770006D01*
X143345549Y-55762576D01*
X143261812Y-55749381D01*
X143184960Y-55735892D01*
X142566915Y-55635767D01*
X141935998Y-55559378D01*
X141280857Y-55505430D01*
X141040369Y-55491435D01*
X140889811Y-55485448D01*
X140701382Y-55480961D01*
X140481860Y-55477916D01*
X140238028Y-55476259D01*
X139976664Y-55475934D01*
X139704549Y-55476886D01*
X139428463Y-55479057D01*
X139155186Y-55482394D01*
X138891499Y-55486840D01*
X138644182Y-55492339D01*
X138420014Y-55498836D01*
X138225777Y-55506276D01*
X138068249Y-55514601D01*
X138046878Y-55516014D01*
X137775073Y-55537627D01*
X137484391Y-55566149D01*
X137185092Y-55600243D01*
X136887435Y-55638574D01*
X136601680Y-55679806D01*
X136338087Y-55722602D01*
X136106916Y-55765628D01*
X136066957Y-55773832D01*
X136015048Y-55778211D01*
X135985006Y-55768818D01*
X135984404Y-55767958D01*
X135980524Y-55736923D01*
X135981061Y-55669510D01*
X135985412Y-55573739D01*
X135992979Y-55457628D01*
X136003159Y-55329198D01*
X136015353Y-55196467D01*
X136028959Y-55067454D01*
X136043378Y-54950178D01*
X136048306Y-54914771D01*
X136085732Y-54690666D01*
X136130049Y-54498114D01*
X136185013Y-54324097D01*
X136254377Y-54155601D01*
X136287337Y-54086139D01*
X136345597Y-53972573D01*
X136399065Y-53883765D01*
X136458479Y-53804803D01*
X136534576Y-53720774D01*
X136593563Y-53660869D01*
X136708983Y-53551927D01*
X136812516Y-53469397D01*
X136917697Y-53402945D01*
X136963412Y-53378474D01*
X137292745Y-53231282D01*
X137657813Y-53109010D01*
X138056999Y-53012064D01*
X138488687Y-52940846D01*
X138873439Y-52901340D01*
X139010755Y-52893332D01*
X139178641Y-52887595D01*
X139370177Y-52884029D01*
X139578444Y-52882535D01*
X139796522Y-52883016D01*
G37*
G36*
X139886683Y-57006786D02*
G01*
X140033211Y-57044566D01*
X140189253Y-57106918D01*
X140359264Y-57195542D01*
X140547701Y-57312134D01*
X140759019Y-57458393D01*
X140928672Y-57583650D01*
X141183015Y-57772719D01*
X141409749Y-57935052D01*
X141614445Y-58073833D01*
X141802677Y-58192243D01*
X141980018Y-58293465D01*
X142152040Y-58380682D01*
X142324317Y-58457077D01*
X142502421Y-58525832D01*
X142689986Y-58589508D01*
X142817351Y-58630995D01*
X142910481Y-58663737D01*
X142977914Y-58691900D01*
X143028190Y-58719646D01*
X143069846Y-58751140D01*
X143111421Y-58790546D01*
X143119912Y-58799165D01*
X143212371Y-58922755D01*
X143263716Y-59061269D01*
X143274318Y-59164742D01*
X143261449Y-59254707D01*
X143225004Y-59372168D01*
X143168228Y-59508888D01*
X143094364Y-59656630D01*
X143048552Y-59738030D01*
X142977452Y-59860478D01*
X142898174Y-59998659D01*
X142822649Y-60131711D01*
X142784331Y-60199988D01*
X142725788Y-60301743D01*
X142683051Y-60367684D01*
X142652693Y-60402324D01*
X142631286Y-60410175D01*
X142626292Y-60408103D01*
X142589452Y-60396935D01*
X142577276Y-60399837D01*
X142560623Y-60394027D01*
X142559455Y-60385875D01*
X142545846Y-60371307D01*
X142537115Y-60374705D01*
X142516530Y-60372934D01*
X142514776Y-60364854D01*
X142502927Y-60345346D01*
X142498021Y-60345593D01*
X142472001Y-60337984D01*
X142416193Y-60313924D01*
X142340353Y-60277760D01*
X142297066Y-60256036D01*
X142214583Y-60214419D01*
X142147223Y-60181281D01*
X142104812Y-60161413D01*
X142096010Y-60157948D01*
X142068358Y-60140961D01*
X142036678Y-60114241D01*
X141999356Y-60088143D01*
X141977586Y-60084936D01*
X141956914Y-60076890D01*
X141947617Y-60060408D01*
X141926535Y-60036695D01*
X141914108Y-60038069D01*
X141890488Y-60031981D01*
X141880599Y-60015729D01*
X141859517Y-59992016D01*
X141847090Y-59993390D01*
X141823298Y-59987531D01*
X141814124Y-59972466D01*
X141790914Y-59942955D01*
X141779062Y-59939085D01*
X141748285Y-59925181D01*
X141705757Y-59891892D01*
X141641886Y-59831204D01*
X141554264Y-59745659D01*
X141450163Y-59642554D01*
X141336852Y-59529186D01*
X141221601Y-59412852D01*
X141111682Y-59300848D01*
X141014365Y-59200474D01*
X140957191Y-59140570D01*
X140838641Y-59015904D01*
X140734030Y-58907793D01*
X140629717Y-58802355D01*
X140512060Y-58685711D01*
X140457801Y-58632409D01*
X140407157Y-58587080D01*
X140367047Y-58558779D01*
X140354078Y-58554037D01*
X140326434Y-58536110D01*
X140316884Y-58519112D01*
X140295803Y-58495303D01*
X140283325Y-58496644D01*
X140259918Y-58490281D01*
X140249132Y-58472523D01*
X140231455Y-58447820D01*
X140222074Y-58448967D01*
X140198504Y-58445174D01*
X140163368Y-58419427D01*
X140124173Y-58392173D01*
X140098728Y-58388582D01*
X140080630Y-58384839D01*
X140079771Y-58379061D01*
X140060258Y-58359095D01*
X140011681Y-58337649D01*
X139948984Y-58320954D01*
X139934565Y-58318505D01*
X139894971Y-58307491D01*
X139878716Y-58301342D01*
X139834876Y-58294267D01*
X139762805Y-58293105D01*
X139676242Y-58296859D01*
X139588924Y-58304532D01*
X139514591Y-58315129D01*
X139466980Y-58327652D01*
X139459850Y-58331725D01*
X139436787Y-58339019D01*
X139395636Y-58352118D01*
X139339888Y-58377096D01*
X139284199Y-58406358D01*
X139243219Y-58432312D01*
X139230871Y-58445732D01*
X139212859Y-58462818D01*
X139199223Y-58464679D01*
X139165836Y-58475476D01*
X139160129Y-58482774D01*
X139139937Y-58504713D01*
X139093993Y-58545115D01*
X139032094Y-58595380D01*
X139029815Y-58597168D01*
X138952322Y-58662964D01*
X138876980Y-58735133D01*
X138830726Y-58785713D01*
X138773594Y-58851147D01*
X138690145Y-58941765D01*
X138586136Y-59051728D01*
X138467323Y-59175195D01*
X138339465Y-59306325D01*
X138208319Y-59439279D01*
X138079642Y-59568214D01*
X137959192Y-59687291D01*
X137852727Y-59790669D01*
X137766002Y-59872508D01*
X137710282Y-59922331D01*
X137652056Y-59967940D01*
X137604457Y-59998366D01*
X137583569Y-60006104D01*
X137557450Y-60020115D01*
X137555409Y-60028443D01*
X137537315Y-60048262D01*
X137521900Y-60050783D01*
X137492171Y-60062845D01*
X137488390Y-60073122D01*
X137470296Y-60092941D01*
X137454881Y-60095462D01*
X137425130Y-60105911D01*
X137421372Y-60114766D01*
X137402382Y-60133276D01*
X137354074Y-60158682D01*
X137320844Y-60172463D01*
X137262180Y-60198993D01*
X137225960Y-60223321D01*
X137220317Y-60232665D01*
X137206521Y-60244281D01*
X137197977Y-60240668D01*
X137177425Y-60243181D01*
X137175638Y-60251838D01*
X137162029Y-60266406D01*
X137153298Y-60263008D01*
X137132746Y-60265520D01*
X137130959Y-60274178D01*
X137117350Y-60288745D01*
X137108619Y-60285347D01*
X137088067Y-60287860D01*
X137086280Y-60296517D01*
X137072671Y-60311085D01*
X137063940Y-60307687D01*
X137043388Y-60310199D01*
X137041601Y-60318857D01*
X137027992Y-60333424D01*
X137019261Y-60330026D01*
X136998709Y-60332539D01*
X136996922Y-60341196D01*
X136983313Y-60355764D01*
X136974582Y-60352366D01*
X136954030Y-60354878D01*
X136952243Y-60363536D01*
X136938634Y-60378103D01*
X136929903Y-60374705D01*
X136909229Y-60374416D01*
X136907564Y-60380971D01*
X136889366Y-60402805D01*
X136847082Y-60428435D01*
X136799175Y-60448031D01*
X136772476Y-60452894D01*
X136750942Y-60435056D01*
X136748542Y-60424969D01*
X136747907Y-60386111D01*
X136748542Y-60380290D01*
X136734121Y-60364224D01*
X136727529Y-60363536D01*
X136714187Y-60349850D01*
X136717678Y-60341196D01*
X136717291Y-60320550D01*
X136710248Y-60318857D01*
X136689586Y-60299909D01*
X136674995Y-60263008D01*
X136656600Y-60221155D01*
X136637746Y-60207159D01*
X136624801Y-60193448D01*
X136628320Y-60184820D01*
X136626549Y-60164234D01*
X136618469Y-60162480D01*
X136596884Y-60144673D01*
X136594811Y-60132389D01*
X136581131Y-60094997D01*
X136550132Y-60050783D01*
X136518032Y-60004558D01*
X136505453Y-59969176D01*
X136491453Y-59941722D01*
X136481795Y-59939085D01*
X136468453Y-59925399D01*
X136471944Y-59916746D01*
X136470414Y-59896150D01*
X136462518Y-59894406D01*
X136440347Y-59875437D01*
X136425268Y-59838558D01*
X136407564Y-59796724D01*
X136390015Y-59782709D01*
X136378936Y-59768879D01*
X136382586Y-59760369D01*
X136382199Y-59739724D01*
X136375156Y-59738030D01*
X136354494Y-59719082D01*
X136339903Y-59682181D01*
X136321508Y-59640329D01*
X136302653Y-59626332D01*
X136289708Y-59612621D01*
X136293228Y-59603993D01*
X136290715Y-59583441D01*
X136282058Y-59581653D01*
X136267490Y-59568045D01*
X136270888Y-59559314D01*
X136269117Y-59538728D01*
X136261037Y-59536974D01*
X136240840Y-59525039D01*
X136240829Y-59520220D01*
X136234636Y-59491042D01*
X136214975Y-59438165D01*
X136205970Y-59417178D01*
X136159349Y-59264645D01*
X136154896Y-59116202D01*
X136192027Y-58976797D01*
X136270162Y-58851377D01*
X136272807Y-58848263D01*
X136315881Y-58800589D01*
X136358230Y-58762468D01*
X136407723Y-58729825D01*
X136472227Y-58698582D01*
X136559611Y-58664664D01*
X136677742Y-58623995D01*
X136754875Y-58598517D01*
X136962515Y-58525144D01*
X137161490Y-58443079D01*
X137357877Y-58348854D01*
X137557757Y-58238999D01*
X137767209Y-58110045D01*
X137992312Y-57958525D01*
X138239147Y-57780969D01*
X138404309Y-57657390D01*
X138601759Y-57509251D01*
X138769581Y-57386849D01*
X138912496Y-57287348D01*
X139035226Y-57207915D01*
X139142494Y-57145715D01*
X139239020Y-57097914D01*
X139329528Y-57061677D01*
X139418737Y-57034169D01*
X139459621Y-57023906D01*
X139604344Y-56998154D01*
X139745212Y-56991881D01*
X139886683Y-57006786D01*
G37*
G36*
X140647788Y-55957476D02*
G01*
X141329225Y-55990544D01*
X141598857Y-56008168D01*
X141914005Y-56034247D01*
X142223959Y-56068501D01*
X142544893Y-56112935D01*
X142872207Y-56165977D01*
X143067090Y-56199831D01*
X143222321Y-56227968D01*
X143342391Y-56251564D01*
X143431793Y-56271794D01*
X143495018Y-56289834D01*
X143536559Y-56306860D01*
X143560907Y-56324049D01*
X143572554Y-56342574D01*
X143574506Y-56349809D01*
X143577287Y-56383532D01*
X143580559Y-56456101D01*
X143584148Y-56561688D01*
X143587885Y-56694464D01*
X143591597Y-56848601D01*
X143595112Y-57018270D01*
X143596652Y-57101970D01*
X143600826Y-57297377D01*
X143606416Y-57498257D01*
X143613059Y-57694835D01*
X143620389Y-57877334D01*
X143628043Y-58035979D01*
X143635656Y-58160993D01*
X143636624Y-58174266D01*
X143649515Y-58357656D01*
X143657469Y-58503163D01*
X143660269Y-58617332D01*
X143657696Y-58706707D01*
X143649529Y-58777835D01*
X143635551Y-58837262D01*
X143615542Y-58891531D01*
X143612381Y-58898786D01*
X143581599Y-58958806D01*
X143537985Y-59032175D01*
X143488125Y-59109212D01*
X143438606Y-59180238D01*
X143396016Y-59235572D01*
X143366940Y-59265534D01*
X143360978Y-59268249D01*
X143352158Y-59248188D01*
X143341922Y-59194753D01*
X143332364Y-59119110D01*
X143331637Y-59111877D01*
X143324598Y-59029859D01*
X143326247Y-58973621D01*
X143340986Y-58926035D01*
X143373218Y-58869971D01*
X143406939Y-58818918D01*
X143448561Y-58752703D01*
X143476732Y-58693607D01*
X143492452Y-58632251D01*
X143496723Y-58559256D01*
X143490546Y-58465242D01*
X143474920Y-58340829D01*
X143465178Y-58273143D01*
X143452145Y-58171387D01*
X143437967Y-58039142D01*
X143424015Y-57890526D01*
X143411659Y-57739658D01*
X143406768Y-57671627D01*
X143397975Y-57546581D01*
X143389831Y-57438153D01*
X143382931Y-57353728D01*
X143377874Y-57300689D01*
X143375579Y-57285841D01*
X143369685Y-57304475D01*
X143356759Y-57359864D01*
X143338349Y-57444913D01*
X143316002Y-57552529D01*
X143298603Y-57638701D01*
X143259039Y-57828655D01*
X143222580Y-57980696D01*
X143186162Y-58101162D01*
X143146722Y-58196391D01*
X143101195Y-58272722D01*
X143046519Y-58336493D01*
X142979629Y-58394042D01*
X142909486Y-58443733D01*
X142806574Y-58502779D01*
X142724619Y-58526843D01*
X142658265Y-58517046D01*
X142632058Y-58501882D01*
X142607883Y-58492615D01*
X142604134Y-58498188D01*
X142590390Y-58500197D01*
X142570624Y-58487018D01*
X142543608Y-58471422D01*
X142537115Y-58475849D01*
X142523371Y-58477858D01*
X142503606Y-58464679D01*
X142476585Y-58449014D01*
X142470097Y-58453343D01*
X142454278Y-58454437D01*
X142416034Y-58434386D01*
X142414248Y-58433224D01*
X142375324Y-58411649D01*
X142358421Y-58410066D01*
X142358399Y-58410438D01*
X142341263Y-58408187D01*
X142297343Y-58387455D01*
X142260813Y-58367056D01*
X142202669Y-58336998D01*
X142160853Y-58322765D01*
X142149115Y-58323977D01*
X142136255Y-58320695D01*
X142135004Y-58310707D01*
X142121900Y-58293889D01*
X142112665Y-58297133D01*
X142092112Y-58294620D01*
X142090325Y-58285963D01*
X142076717Y-58271395D01*
X142067986Y-58274793D01*
X142047434Y-58272281D01*
X142045646Y-58263624D01*
X142032038Y-58249056D01*
X142023307Y-58252454D01*
X142002678Y-58251670D01*
X142000967Y-58244335D01*
X141981917Y-58223745D01*
X141934886Y-58200865D01*
X141922779Y-58196605D01*
X141871828Y-58175370D01*
X141845558Y-58155785D01*
X141844591Y-58152615D01*
X141825679Y-58134257D01*
X141788742Y-58120413D01*
X141746902Y-58102474D01*
X141732893Y-58084482D01*
X141714793Y-58065038D01*
X141699384Y-58062568D01*
X141669656Y-58050505D01*
X141665875Y-58040229D01*
X141647781Y-58020409D01*
X141632366Y-58017889D01*
X141602637Y-58005826D01*
X141598857Y-57995550D01*
X141580763Y-57975730D01*
X141565347Y-57973210D01*
X141535619Y-57961147D01*
X141531838Y-57950871D01*
X141513696Y-57931166D01*
X141497628Y-57928531D01*
X141460353Y-57910458D01*
X141450559Y-57895022D01*
X141422431Y-57865332D01*
X141406581Y-57861513D01*
X141378419Y-57848651D01*
X141375462Y-57839173D01*
X141357546Y-57818957D01*
X141344342Y-57816834D01*
X141309856Y-57798814D01*
X141300365Y-57783324D01*
X141270510Y-57753607D01*
X141253296Y-57749815D01*
X141223120Y-57737968D01*
X141219085Y-57727476D01*
X141201169Y-57707260D01*
X141187966Y-57705136D01*
X141153479Y-57687117D01*
X141143988Y-57671627D01*
X141114133Y-57641909D01*
X141096919Y-57638118D01*
X141066743Y-57626271D01*
X141062709Y-57615778D01*
X141044566Y-57596073D01*
X141028498Y-57593439D01*
X140991224Y-57575366D01*
X140981429Y-57559930D01*
X140954635Y-57530264D01*
X140939842Y-57526420D01*
X140907510Y-57508446D01*
X140898254Y-57492911D01*
X140868399Y-57463193D01*
X140851185Y-57459402D01*
X140821009Y-57447555D01*
X140816974Y-57437062D01*
X140799058Y-57416846D01*
X140785855Y-57414723D01*
X140751368Y-57396703D01*
X140741877Y-57381214D01*
X140712022Y-57351496D01*
X140694808Y-57347704D01*
X140664632Y-57335857D01*
X140660598Y-57325365D01*
X140642504Y-57305546D01*
X140627089Y-57303025D01*
X140597360Y-57290963D01*
X140593580Y-57280686D01*
X140575485Y-57260867D01*
X140560070Y-57258346D01*
X140530342Y-57246284D01*
X140526561Y-57236007D01*
X140508467Y-57216188D01*
X140493052Y-57213667D01*
X140463323Y-57201605D01*
X140459543Y-57191328D01*
X140441565Y-57171245D01*
X140427629Y-57168988D01*
X140385685Y-57154281D01*
X140365103Y-57138376D01*
X140321457Y-57104324D01*
X140266857Y-57073291D01*
X140216388Y-57052544D01*
X140185136Y-57049347D01*
X140183131Y-57050736D01*
X140170226Y-57047661D01*
X140169129Y-57038675D01*
X140158048Y-57015909D01*
X140152375Y-57015258D01*
X140118865Y-57012465D01*
X140082416Y-57002112D01*
X140079771Y-57001442D01*
X140053417Y-56992370D01*
X140051847Y-56991356D01*
X140028417Y-56983148D01*
X140001583Y-56976113D01*
X139793986Y-56941306D01*
X139607940Y-56942455D01*
X139543623Y-56951947D01*
X139448687Y-56970794D01*
X139389152Y-56984696D01*
X139370492Y-56991356D01*
X139348153Y-57000475D01*
X139255606Y-57036202D01*
X139133833Y-57099524D01*
X138986696Y-57188013D01*
X138818061Y-57299245D01*
X138631790Y-57430791D01*
X138463539Y-57555961D01*
X138208440Y-57746200D01*
X137980106Y-57908421D01*
X137773553Y-58046042D01*
X137583795Y-58162483D01*
X137554188Y-58179648D01*
X137433269Y-58247240D01*
X137318515Y-58307880D01*
X137218204Y-58357459D01*
X137140613Y-58391868D01*
X137097449Y-58406387D01*
X137061994Y-58419962D01*
X137024846Y-58438615D01*
X136987767Y-58454203D01*
X136974582Y-58451560D01*
X136960844Y-58449698D01*
X136946658Y-58458778D01*
X136910022Y-58478331D01*
X136848190Y-58503463D01*
X136811020Y-58516551D01*
X136733731Y-58536642D01*
X136674413Y-58533052D01*
X136615989Y-58501851D01*
X136564641Y-58459867D01*
X136525601Y-58435160D01*
X136502070Y-58433261D01*
X136484273Y-58428367D01*
X136483113Y-58420765D01*
X136464640Y-58395500D01*
X136429460Y-58376156D01*
X136367136Y-58333658D01*
X136304374Y-58258888D01*
X136249719Y-58163341D01*
X136223982Y-58099683D01*
X136208099Y-58043307D01*
X136186438Y-57952721D01*
X136161164Y-57837681D01*
X136134443Y-57707942D01*
X136115488Y-57610729D01*
X136091413Y-57484612D01*
X136072275Y-57389812D01*
X136057128Y-57327905D01*
X136045025Y-57300469D01*
X136035021Y-57309082D01*
X136026169Y-57355320D01*
X136017523Y-57440760D01*
X136008137Y-57566979D01*
X135997065Y-57735555D01*
X135991847Y-57816834D01*
X135981811Y-57960861D01*
X135969955Y-58111952D01*
X135957618Y-58254095D01*
X135946135Y-58371278D01*
X135943784Y-58392759D01*
X135931786Y-58536590D01*
X135933932Y-58647565D01*
X135952234Y-58735827D01*
X135988706Y-58811521D01*
X136040336Y-58879116D01*
X136076104Y-58921953D01*
X136095213Y-58957411D01*
X136100722Y-59000069D01*
X136095685Y-59064503D01*
X136089592Y-59114000D01*
X136069833Y-59270280D01*
X136019195Y-59234552D01*
X135986553Y-59202109D01*
X135981517Y-59177856D01*
X135975857Y-59153579D01*
X135959551Y-59143485D01*
X135928987Y-59115650D01*
X135924626Y-59098964D01*
X135911765Y-59070803D01*
X135902287Y-59067845D01*
X135882467Y-59049751D01*
X135879947Y-59034336D01*
X135869792Y-59004580D01*
X135861193Y-59000827D01*
X135839567Y-58982725D01*
X135815038Y-58940686D01*
X135791052Y-58877980D01*
X135774541Y-58807483D01*
X135765183Y-58722377D01*
X135762651Y-58615839D01*
X135766623Y-58481051D01*
X135776773Y-58311191D01*
X135781793Y-58241284D01*
X135790563Y-58104626D01*
X135799403Y-57933606D01*
X135807903Y-57738538D01*
X135815657Y-57529736D01*
X135822254Y-57317515D01*
X135827286Y-57112189D01*
X135828047Y-57073979D01*
X135833323Y-56837246D01*
X135839256Y-56645141D01*
X135840486Y-56617634D01*
X136361175Y-56617634D01*
X136369890Y-56715024D01*
X136393883Y-56845089D01*
X136433391Y-57011162D01*
X136471687Y-57155310D01*
X136536711Y-57363160D01*
X136609683Y-57543960D01*
X136688399Y-57693805D01*
X136770656Y-57808789D01*
X136854250Y-57885006D01*
X136896064Y-57907440D01*
X136995269Y-57926140D01*
X137104674Y-57911765D01*
X137172800Y-57885300D01*
X137213463Y-57862281D01*
X137286112Y-57818798D01*
X137385033Y-57758366D01*
X137504512Y-57684502D01*
X137638837Y-57600721D01*
X137782294Y-57510539D01*
X137803000Y-57497465D01*
X138026918Y-57356615D01*
X138219709Y-57236829D01*
X138387499Y-57134498D01*
X138536410Y-57046013D01*
X138672565Y-56967766D01*
X138802088Y-56896148D01*
X138931102Y-56827549D01*
X139001464Y-56791132D01*
X139099368Y-56737570D01*
X139187408Y-56683424D01*
X139254694Y-56635738D01*
X139286292Y-56606935D01*
X139330863Y-56527563D01*
X139339173Y-56463878D01*
X140079771Y-56463878D01*
X140082496Y-56506729D01*
X140093378Y-56545360D01*
X140116483Y-56582861D01*
X140155875Y-56622320D01*
X140215618Y-56666825D01*
X140299777Y-56719467D01*
X140412417Y-56783334D01*
X140557601Y-56861514D01*
X140705277Y-56939249D01*
X140765091Y-56972454D01*
X140856795Y-57025826D01*
X140974433Y-57095785D01*
X141112050Y-57178747D01*
X141263690Y-57271132D01*
X141423399Y-57369359D01*
X141520668Y-57429638D01*
X141722496Y-57555070D01*
X141890120Y-57658820D01*
X142027356Y-57742675D01*
X142138021Y-57808424D01*
X142225930Y-57857852D01*
X142294899Y-57892748D01*
X142348743Y-57914897D01*
X142391278Y-57926088D01*
X142426321Y-57928108D01*
X142457686Y-57922743D01*
X142489190Y-57911780D01*
X142521427Y-57898350D01*
X142606407Y-57843228D01*
X142691222Y-57752702D01*
X142768540Y-57635468D01*
X142806184Y-57560607D01*
X142866040Y-57415965D01*
X142920926Y-57260858D01*
X142969014Y-57102928D01*
X143008475Y-56949819D01*
X143037483Y-56809172D01*
X143054207Y-56688630D01*
X143056820Y-56595835D01*
X143048279Y-56548667D01*
X143012827Y-56500564D01*
X142978721Y-56479115D01*
X142942568Y-56472655D01*
X142868758Y-56464819D01*
X142764267Y-56456157D01*
X142636075Y-56447217D01*
X142491162Y-56438546D01*
X142403078Y-56433901D01*
X142257780Y-56426364D01*
X142108846Y-56418090D01*
X141951331Y-56408755D01*
X141780288Y-56398030D01*
X141590772Y-56385590D01*
X141377835Y-56371109D01*
X141136534Y-56354259D01*
X140861921Y-56334715D01*
X140549050Y-56312150D01*
X140456826Y-56305458D01*
X140313913Y-56300096D01*
X140209377Y-56309058D01*
X140138678Y-56334250D01*
X140097273Y-56377581D01*
X140080620Y-56440960D01*
X140079771Y-56463878D01*
X139339173Y-56463878D01*
X139341802Y-56443726D01*
X139318528Y-56368671D01*
X139297889Y-56342427D01*
X139281784Y-56327777D01*
X139262951Y-56316220D01*
X139237063Y-56307803D01*
X139199794Y-56302569D01*
X139146817Y-56300564D01*
X139073806Y-56301831D01*
X138976433Y-56306415D01*
X138850373Y-56314362D01*
X138691298Y-56325714D01*
X138494882Y-56340518D01*
X138341764Y-56352271D01*
X138130447Y-56368207D01*
X137899576Y-56385041D01*
X137662164Y-56401863D01*
X137431223Y-56417764D01*
X137219766Y-56431832D01*
X137052770Y-56442427D01*
X136893924Y-56452442D01*
X136747956Y-56462156D01*
X136621374Y-56471095D01*
X136520685Y-56478786D01*
X136452395Y-56484754D01*
X136424330Y-56488192D01*
X136388631Y-56507551D01*
X136367501Y-56549587D01*
X136361175Y-56617634D01*
X135840486Y-56617634D01*
X135845850Y-56497620D01*
X135853107Y-56394635D01*
X135861028Y-56336143D01*
X135866569Y-56321932D01*
X135899357Y-56308996D01*
X135970038Y-56290488D01*
X136072345Y-56267609D01*
X136200010Y-56241561D01*
X136346762Y-56213547D01*
X136506335Y-56184769D01*
X136672459Y-56156429D01*
X136838867Y-56129730D01*
X136974582Y-56109407D01*
X137512111Y-56042930D01*
X138086234Y-55992768D01*
X138691906Y-55959031D01*
X139324085Y-55941830D01*
X139977727Y-55941274D01*
X140647788Y-55957476D01*
G37*
G36*
X139830210Y-58840130D02*
G01*
X140030394Y-58894644D01*
X140239151Y-58989806D01*
X140454724Y-59125004D01*
X140632674Y-59263059D01*
X140690623Y-59309713D01*
X140732541Y-59339471D01*
X140749883Y-59346305D01*
X140749956Y-59345803D01*
X140761570Y-59349667D01*
X140789795Y-59380572D01*
X140792451Y-59383917D01*
X140821563Y-59414234D01*
X140874610Y-59463574D01*
X140944502Y-59525899D01*
X141024148Y-59595167D01*
X141106458Y-59665339D01*
X141184342Y-59730374D01*
X141250710Y-59784232D01*
X141298470Y-59820873D01*
X141320534Y-59834256D01*
X141320960Y-59834151D01*
X141340462Y-59844876D01*
X141379810Y-59877021D01*
X141394252Y-59890000D01*
X141441548Y-59927782D01*
X141512322Y-59977785D01*
X141596544Y-60033665D01*
X141684184Y-60089076D01*
X141765212Y-60137675D01*
X141829597Y-60173118D01*
X141866930Y-60188983D01*
X141903788Y-60203307D01*
X141911609Y-60209743D01*
X141939054Y-60230262D01*
X141986802Y-60256425D01*
X142040855Y-60281780D01*
X142087212Y-60299874D01*
X142111872Y-60304257D01*
X142113007Y-60302556D01*
X142122246Y-60301510D01*
X142130445Y-60312245D01*
X142157558Y-60330969D01*
X142216188Y-60359825D01*
X142295576Y-60394500D01*
X142384962Y-60430678D01*
X142473584Y-60464043D01*
X142550684Y-60490282D01*
X142605499Y-60505078D01*
X142614951Y-60506537D01*
X142663351Y-60516050D01*
X142683267Y-60523642D01*
X142712313Y-60535033D01*
X142774197Y-60556408D01*
X142859104Y-60584446D01*
X142934312Y-60608587D01*
X143038461Y-60644253D01*
X143134752Y-60681883D01*
X143209972Y-60716083D01*
X143241480Y-60734035D01*
X143288771Y-60763425D01*
X143316215Y-60775250D01*
X143318997Y-60773710D01*
X143330260Y-60775863D01*
X143359938Y-60807082D01*
X143401864Y-60859124D01*
X143449873Y-60923748D01*
X143497799Y-60992710D01*
X143539476Y-61057767D01*
X143564181Y-61101475D01*
X143668793Y-61352961D01*
X143730964Y-61616397D01*
X143750690Y-61892158D01*
X143727965Y-62180617D01*
X143662782Y-62482151D01*
X143555136Y-62797132D01*
X143536824Y-62841971D01*
X143505139Y-62920786D01*
X143482543Y-62982255D01*
X143472732Y-63016130D01*
X143472872Y-63019437D01*
X143464609Y-63037677D01*
X143459407Y-63041777D01*
X143436584Y-63067472D01*
X143403989Y-63115121D01*
X143368493Y-63172992D01*
X143336965Y-63229356D01*
X143316275Y-63272484D01*
X143313292Y-63290647D01*
X143313619Y-63290688D01*
X143311417Y-63300146D01*
X143291073Y-63314138D01*
X143258723Y-63344878D01*
X143251979Y-63363933D01*
X143234918Y-63395793D01*
X143207300Y-63418861D01*
X143172140Y-63452875D01*
X143162621Y-63478098D01*
X143146453Y-63510811D01*
X143106085Y-63554311D01*
X143090018Y-63568065D01*
X143027448Y-63619235D01*
X142968704Y-63668247D01*
X142961565Y-63674310D01*
X142839374Y-63755515D01*
X142680303Y-63825368D01*
X142490907Y-63882983D01*
X142277742Y-63927475D01*
X142047363Y-63957958D01*
X141806327Y-63973548D01*
X141561188Y-63973358D01*
X141318502Y-63956504D01*
X141102358Y-63925395D01*
X140877758Y-63876528D01*
X140692685Y-63819307D01*
X140542454Y-63751809D01*
X140422377Y-63672114D01*
X140370504Y-63625420D01*
X140319134Y-63566554D01*
X140285374Y-63505687D01*
X140268854Y-63435526D01*
X140269207Y-63348776D01*
X140286067Y-63238147D01*
X140319065Y-63096344D01*
X140339866Y-63017511D01*
X140328932Y-62978173D01*
X140281963Y-62944334D01*
X140228238Y-62909529D01*
X140217645Y-62884435D01*
X140249355Y-62870805D01*
X140317232Y-62870024D01*
X140420655Y-62876728D01*
X140505006Y-62582264D01*
X140546987Y-62436082D01*
X140577608Y-62327039D01*
X140597178Y-62249143D01*
X140606008Y-62196405D01*
X140604407Y-62162834D01*
X140592685Y-62142440D01*
X140571153Y-62129233D01*
X140540119Y-62117224D01*
X140529283Y-62113069D01*
X140438652Y-62077468D01*
X140432342Y-61840423D01*
X140426033Y-61603377D01*
X140308751Y-61596625D01*
X140238449Y-61589333D01*
X140201402Y-61572169D01*
X140194297Y-61536991D01*
X140213822Y-61475660D01*
X140237531Y-61421625D01*
X140263943Y-61358896D01*
X140271197Y-61319363D01*
X140260455Y-61286433D01*
X140248389Y-61266786D01*
X140188702Y-61201387D01*
X140112554Y-61153418D01*
X140029961Y-61124912D01*
X139950939Y-61117903D01*
X139885507Y-61134426D01*
X139843682Y-61176512D01*
X139840498Y-61183975D01*
X139814637Y-61225563D01*
X139771043Y-61274951D01*
X139764864Y-61280909D01*
X139704118Y-61338213D01*
X139611461Y-61230645D01*
X139546103Y-61163109D01*
X139488602Y-61130066D01*
X139425206Y-61128588D01*
X139342163Y-61155749D01*
X139314850Y-61167497D01*
X139253380Y-61199110D01*
X139203116Y-61232540D01*
X139172291Y-61261035D01*
X139169137Y-61277846D01*
X139177871Y-61279797D01*
X139179748Y-61289184D01*
X139165420Y-61300353D01*
X139150549Y-61317854D01*
X139151949Y-61348719D01*
X139171416Y-61403026D01*
X139192141Y-61450227D01*
X139224674Y-61530176D01*
X139231373Y-61579044D01*
X139208897Y-61604351D01*
X139153907Y-61613618D01*
X139119173Y-61614547D01*
X139060644Y-61617400D01*
X139021747Y-61629708D01*
X138998857Y-61658925D01*
X138988354Y-61712500D01*
X138986615Y-61797887D01*
X138988744Y-61882864D01*
X138995945Y-62112814D01*
X138908446Y-62143107D01*
X138851712Y-62164096D01*
X138816039Y-62179813D01*
X138811613Y-62182735D01*
X138812333Y-62203339D01*
X138824009Y-62257325D01*
X138847174Y-62346697D01*
X138882360Y-62473456D01*
X138930101Y-62639604D01*
X138965788Y-62761738D01*
X139010733Y-62914822D01*
X139107651Y-62900288D01*
X139176949Y-62896483D01*
X139216087Y-62906910D01*
X139220705Y-62927029D01*
X139186448Y-62952298D01*
X139165894Y-62960984D01*
X139123737Y-62983894D01*
X139101686Y-63018485D01*
X139098608Y-63073096D01*
X139113373Y-63156064D01*
X139130343Y-63222990D01*
X139158466Y-63364422D01*
X139158666Y-63474096D01*
X139131132Y-63550177D01*
X139110791Y-63589386D01*
X139110730Y-63609212D01*
X139102627Y-63627911D01*
X139066604Y-63657561D01*
X139059678Y-63662121D01*
X139004881Y-63700356D01*
X138963317Y-63734393D01*
X138901180Y-63776291D01*
X138802887Y-63820907D01*
X138676651Y-63865679D01*
X138530683Y-63908050D01*
X138373193Y-63945458D01*
X138212393Y-63975346D01*
X138169745Y-63981756D01*
X138058924Y-63992550D01*
X137917058Y-63999101D01*
X137756629Y-64001534D01*
X137590116Y-63999975D01*
X137430000Y-63994549D01*
X137288762Y-63985380D01*
X137178882Y-63972595D01*
X137173872Y-63971768D01*
X136935172Y-63921296D01*
X136732413Y-63855113D01*
X136558696Y-63770186D01*
X136407119Y-63663481D01*
X136343348Y-63606648D01*
X136194614Y-63440911D01*
X136055043Y-63239166D01*
X135928719Y-63009795D01*
X135819728Y-62761178D01*
X135816775Y-62752429D01*
X136519870Y-62752429D01*
X136553910Y-62921358D01*
X136599458Y-63031044D01*
X136682979Y-63154202D01*
X136802460Y-63273646D01*
X136949274Y-63382824D01*
X137114792Y-63475186D01*
X137264230Y-63535742D01*
X137432942Y-63577197D01*
X137627642Y-63600401D01*
X137833460Y-63605172D01*
X138035522Y-63591327D01*
X138218956Y-63558685D01*
X138258832Y-63547953D01*
X138389826Y-63502088D01*
X138521552Y-63442577D01*
X138638220Y-63377211D01*
X138711993Y-63324355D01*
X138784961Y-63242911D01*
X138838766Y-63143899D01*
X138866392Y-63042827D01*
X138866835Y-62982230D01*
X138849227Y-62862031D01*
X138831249Y-62769285D01*
X138808861Y-62686920D01*
X138778026Y-62597859D01*
X138772250Y-62582409D01*
X138735187Y-62486926D01*
X138704731Y-62426331D01*
X138671840Y-62393664D01*
X138627475Y-62381963D01*
X138562595Y-62384266D01*
X138520331Y-62388424D01*
X138374273Y-62403388D01*
X138443778Y-62316135D01*
X138475149Y-62267932D01*
X138520055Y-62187043D01*
X138574226Y-62081757D01*
X138633388Y-61960364D01*
X138690203Y-61837942D01*
X138793503Y-61611418D01*
X138882035Y-61422106D01*
X138958342Y-61266029D01*
X139024970Y-61139212D01*
X139084462Y-61037676D01*
X139139364Y-60957447D01*
X139192220Y-60894547D01*
X139245574Y-60845000D01*
X139301970Y-60804830D01*
X139363954Y-60770061D01*
X139378033Y-60763017D01*
X139461878Y-60724641D01*
X139531647Y-60702502D01*
X139606823Y-60692265D01*
X139706888Y-60689596D01*
X139708071Y-60689593D01*
X139874264Y-60698871D01*
X140010586Y-60730338D01*
X140128009Y-60788066D01*
X140237501Y-60876125D01*
X140253831Y-60892113D01*
X140293659Y-60934945D01*
X140332668Y-60984312D01*
X140373098Y-61044471D01*
X140417188Y-61119681D01*
X140467175Y-61214197D01*
X140525301Y-61332277D01*
X140593802Y-61478179D01*
X140674918Y-61656160D01*
X140770889Y-61870477D01*
X140784808Y-61901758D01*
X140838514Y-62016881D01*
X140893390Y-62124811D01*
X140943834Y-62215137D01*
X140984244Y-62277449D01*
X140992761Y-62288183D01*
X141033631Y-62339041D01*
X141057252Y-62374486D01*
X141059779Y-62384075D01*
X141035072Y-62385072D01*
X140979983Y-62379408D01*
X140928672Y-62371841D01*
X140855553Y-62362019D01*
X140811858Y-62364147D01*
X140783451Y-62380243D01*
X140770329Y-62394439D01*
X140737871Y-62450301D01*
X140702286Y-62538428D01*
X140667096Y-62646903D01*
X140635826Y-62763813D01*
X140611996Y-62877239D01*
X140599304Y-62972931D01*
X140586940Y-63136153D01*
X140718748Y-63264333D01*
X140835719Y-63361501D01*
X140968184Y-63437462D01*
X141124985Y-63496155D01*
X141314965Y-63541520D01*
X141359128Y-63549586D01*
X141543174Y-63570566D01*
X141739594Y-63573762D01*
X141930845Y-63559728D01*
X142099387Y-63529020D01*
X142111652Y-63525781D01*
X142285372Y-63463637D01*
X142452796Y-63376010D01*
X142604181Y-63269681D01*
X142729786Y-63151435D01*
X142815503Y-63035716D01*
X142861842Y-62937637D01*
X142898842Y-62825012D01*
X142922866Y-62712928D01*
X142930280Y-62616469D01*
X142926168Y-62576534D01*
X142913702Y-62516141D01*
X142904932Y-62473459D01*
X142904302Y-62470365D01*
X142859235Y-62344755D01*
X142780064Y-62220074D01*
X142676160Y-62107537D01*
X142556898Y-62018359D01*
X142502589Y-61989694D01*
X142408820Y-61959927D01*
X142291417Y-61941713D01*
X142164686Y-61935333D01*
X142042931Y-61941074D01*
X141940460Y-61959218D01*
X141891423Y-61977564D01*
X141834045Y-62003238D01*
X141790388Y-62016257D01*
X141785310Y-62016658D01*
X141757827Y-62027814D01*
X141755233Y-62035411D01*
X141737366Y-62058032D01*
X141704969Y-62077545D01*
X141663670Y-62103614D01*
X141602276Y-62150219D01*
X141533557Y-62207628D01*
X141528655Y-62211929D01*
X141416123Y-62295647D01*
X141313236Y-62338244D01*
X141215412Y-62340951D01*
X141140155Y-62316392D01*
X141096010Y-62288837D01*
X141052594Y-62246078D01*
X141006842Y-62183149D01*
X140955687Y-62095084D01*
X140896065Y-61976920D01*
X140824908Y-61823690D01*
X140795729Y-61758655D01*
X140741467Y-61638816D01*
X140687672Y-61523392D01*
X140639541Y-61423316D01*
X140602274Y-61349517D01*
X140592928Y-61332221D01*
X140560912Y-61268786D01*
X140543236Y-61221624D01*
X140542675Y-61203769D01*
X140539266Y-61191159D01*
X140530284Y-61190097D01*
X140508739Y-61179154D01*
X140508648Y-61173342D01*
X140505520Y-61134187D01*
X140487115Y-61089180D01*
X140463095Y-61059184D01*
X140454314Y-61056060D01*
X140440388Y-61047066D01*
X140443768Y-61042049D01*
X140442311Y-61014780D01*
X140415659Y-60966644D01*
X140371331Y-60907202D01*
X140316847Y-60846017D01*
X140259726Y-60792652D01*
X140229927Y-60770109D01*
X140056662Y-60677669D01*
X139875721Y-60626683D01*
X139692780Y-60616494D01*
X139513513Y-60646444D01*
X139343597Y-60715875D01*
X139188708Y-60824129D01*
X139112279Y-60899647D01*
X139075415Y-60946134D01*
X139034054Y-61009845D01*
X138985753Y-61095377D01*
X138928070Y-61207325D01*
X138858564Y-61350284D01*
X138774790Y-61528850D01*
X138754145Y-61573494D01*
X138664366Y-61767603D01*
X138590713Y-61925094D01*
X138530786Y-62050006D01*
X138482184Y-62146375D01*
X138442508Y-62218242D01*
X138409357Y-62269644D01*
X138380331Y-62304619D01*
X138353029Y-62327207D01*
X138325051Y-62341445D01*
X138293996Y-62351373D01*
X138291369Y-62352085D01*
X138199248Y-62364522D01*
X138110782Y-62347530D01*
X138017000Y-62297961D01*
X137918875Y-62221365D01*
X137745704Y-62092637D01*
X137571641Y-62007326D01*
X137393568Y-61964224D01*
X137242656Y-61959515D01*
X137133366Y-61968756D01*
X137049454Y-61985160D01*
X136971670Y-62013792D01*
X136899098Y-62049870D01*
X136756757Y-62149299D01*
X136645635Y-62275911D01*
X136567761Y-62423064D01*
X136525164Y-62584117D01*
X136519870Y-62752429D01*
X135816775Y-62752429D01*
X135732156Y-62501698D01*
X135670085Y-62239736D01*
X135665980Y-62216840D01*
X135641997Y-61986579D01*
X135648263Y-61756218D01*
X135682694Y-61532003D01*
X135743204Y-61320182D01*
X135827710Y-61127001D01*
X135934127Y-60958706D01*
X136060371Y-60821544D01*
X136155465Y-60749884D01*
X136202898Y-60726247D01*
X136284852Y-60692153D01*
X136393268Y-60650672D01*
X136520085Y-60604874D01*
X136657242Y-60557828D01*
X136676914Y-60551282D01*
X136920576Y-60467421D01*
X137136415Y-60385347D01*
X137331679Y-60300828D01*
X137513620Y-60209630D01*
X137689487Y-60107520D01*
X137866533Y-59990265D01*
X138052005Y-59853632D01*
X138253156Y-59693388D01*
X138477235Y-59505299D01*
X138496134Y-59489124D01*
X138673318Y-59339051D01*
X138823557Y-59216300D01*
X138952225Y-59117347D01*
X139064698Y-59038667D01*
X139166351Y-58976737D01*
X139262559Y-58928031D01*
X139358699Y-58889027D01*
X139460146Y-58856198D01*
X139462580Y-58855489D01*
X139640353Y-58826874D01*
X139830210Y-58840130D01*
G37*
D14*
%TO.C,J4*%
X154610000Y-86182000D02*
X154610000Y-113970000D01*
X147396000Y-86182000D02*
X154610000Y-86182000D01*
X154610000Y-113970000D02*
X147396000Y-113970000D01*
X147396000Y-113970000D02*
X147396000Y-86182000D01*
D12*
X145961480Y-89641680D02*
G75*
G03*
X145961480Y-89641680I-100000J0D01*
G01*
D14*
%TO.C,J1*%
X109128760Y-51104600D02*
X109128760Y-78892600D01*
X101914760Y-51104600D02*
X109128760Y-51104600D01*
X109128760Y-78892600D02*
X101914760Y-78892600D01*
X101914760Y-78892600D02*
X101914760Y-51104600D01*
D12*
X100480240Y-54564280D02*
G75*
G03*
X100480240Y-54564280I-100000J0D01*
G01*
%TD*%
M02*
