%TF.GenerationSoftware,KiCad,Pcbnew,7.0.7*%
%TF.CreationDate,2023-09-14T15:51:43-04:00*%
%TF.ProjectId,Temps_South_DCT_HSK,54656d70-735f-4536-9f75-74685f444354,B*%
%TF.SameCoordinates,Original*%
%TF.FileFunction,Copper,L1,Top*%
%TF.FilePolarity,Positive*%
%FSLAX46Y46*%
G04 Gerber Fmt 4.6, Leading zero omitted, Abs format (unit mm)*
G04 Created by KiCad (PCBNEW 7.0.7) date 2023-09-14 15:51:43*
%MOMM*%
%LPD*%
G01*
G04 APERTURE LIST*
%TA.AperFunction,ComponentPad*%
%ADD10R,0.940800X0.940800*%
%TD*%
%TA.AperFunction,ComponentPad*%
%ADD11C,0.940800*%
%TD*%
%TA.AperFunction,ComponentPad*%
%ADD12C,0.890000*%
%TD*%
%TA.AperFunction,Conductor*%
%ADD13C,0.200000*%
%TD*%
G04 APERTURE END LIST*
D10*
%TO.P,J2,1,Pin_1*%
%TO.N,/TD2_1*%
X104256840Y-89916000D03*
D11*
%TO.P,J2,2,Pin_2*%
%TO.N,/TD2_2*%
X106817160Y-89916000D03*
%TO.P,J2,3,Pin_3*%
%TO.N,unconnected-(J2-Pin_3-Pad3)*%
X104267000Y-91186000D03*
%TO.P,J2,4,Pin_4*%
%TO.N,unconnected-(J2-Pin_4-Pad4)*%
X106807000Y-91186000D03*
%TO.P,J2,5,Pin_5*%
%TO.N,/TD2_5*%
X104267000Y-92456000D03*
%TO.P,J2,6,Pin_6*%
%TO.N,/TD2_6*%
X106807000Y-92456000D03*
%TO.P,J2,7,Pin_7*%
%TO.N,unconnected-(J2-Pin_7-Pad7)*%
X104267000Y-93726000D03*
%TO.P,J2,8,Pin_8*%
%TO.N,unconnected-(J2-Pin_8-Pad8)*%
X106807000Y-93726000D03*
%TO.P,J2,9,Pin_9*%
%TO.N,/TD2_9*%
X104267000Y-94996000D03*
%TO.P,J2,10,Pin_10*%
%TO.N,/TD2_10*%
X106807000Y-94996000D03*
%TO.P,J2,11,Pin_11*%
%TO.N,/TD2_11*%
X104267000Y-96266000D03*
%TO.P,J2,12,Pin_12*%
%TO.N,unconnected-(J2-Pin_12-Pad12)*%
X106807000Y-96266000D03*
%TO.P,J2,13,Pin_13*%
%TO.N,unconnected-(J2-Pin_13-Pad13)*%
X104267000Y-97536000D03*
%TO.P,J2,14,Pin_14*%
%TO.N,unconnected-(J2-Pin_14-Pad14)*%
X106807000Y-97536000D03*
%TO.P,J2,15,Pin_15*%
%TO.N,unconnected-(J2-Pin_15-Pad15)*%
X104267000Y-98806000D03*
%TO.P,J2,16,Pin_16*%
%TO.N,unconnected-(J2-Pin_16-Pad16)*%
X106807000Y-98806000D03*
%TO.P,J2,17,Pin_17*%
%TO.N,unconnected-(J2-Pin_17-Pad17)*%
X104267000Y-100076000D03*
%TO.P,J2,18,Pin_18*%
%TO.N,unconnected-(J2-Pin_18-Pad18)*%
X106807000Y-100076000D03*
%TO.P,J2,19,Pin_19*%
%TO.N,unconnected-(J2-Pin_19-Pad19)*%
X104267000Y-101346000D03*
%TO.P,J2,20,Pin_20*%
%TO.N,unconnected-(J2-Pin_20-Pad20)*%
X106807000Y-101346000D03*
%TO.P,J2,21,Pin_21*%
%TO.N,unconnected-(J2-Pin_21-Pad21)*%
X104267000Y-102616000D03*
%TO.P,J2,22,Pin_22*%
%TO.N,unconnected-(J2-Pin_22-Pad22)*%
X106807000Y-102616000D03*
%TO.P,J2,23,Pin_23*%
%TO.N,unconnected-(J2-Pin_23-Pad23)*%
X104267000Y-103886000D03*
%TO.P,J2,24,Pin_24*%
%TO.N,unconnected-(J2-Pin_24-Pad24)*%
X106807000Y-103886000D03*
%TO.P,J2,25,Pin_25*%
%TO.N,unconnected-(J2-Pin_25-Pad25)*%
X104267000Y-105156000D03*
%TO.P,J2,26,Pin_26*%
%TO.N,unconnected-(J2-Pin_26-Pad26)*%
X106807000Y-105156000D03*
%TO.P,J2,27,Pin_27*%
%TO.N,unconnected-(J2-Pin_27-Pad27)*%
X104267000Y-106426000D03*
%TO.P,J2,28,Pin_28*%
%TO.N,unconnected-(J2-Pin_28-Pad28)*%
X106807000Y-106426000D03*
%TO.P,J2,29,Pin_29*%
%TO.N,unconnected-(J2-Pin_29-Pad29)*%
X104267000Y-107696000D03*
%TO.P,J2,30,Pin_30*%
%TO.N,unconnected-(J2-Pin_30-Pad30)*%
X106807000Y-107696000D03*
%TO.P,J2,31,Pin_31*%
%TO.N,unconnected-(J2-Pin_31-Pad31)*%
X104267000Y-108966000D03*
%TO.P,J2,32,Pin_32*%
%TO.N,unconnected-(J2-Pin_32-Pad32)*%
X106807000Y-108966000D03*
%TO.P,J2,33,Pin_33*%
%TO.N,unconnected-(J2-Pin_33-Pad33)*%
X104267000Y-110236000D03*
%TO.P,J2,34,Pin_34*%
%TO.N,unconnected-(J2-Pin_34-Pad34)*%
X106807000Y-110236000D03*
%TD*%
D10*
%TO.P,J3,1,Pin_1*%
%TO.N,/TD1_1+*%
X149722840Y-54838600D03*
D11*
%TO.P,J3,2,Pin_2*%
%TO.N,/TD1_1-*%
X152283160Y-54838600D03*
%TO.P,J3,3,Pin_3*%
%TO.N,unconnected-(J3-Pin_3-Pad3)*%
X149733000Y-56108600D03*
%TO.P,J3,4,Pin_4*%
%TO.N,unconnected-(J3-Pin_4-Pad4)*%
X152273000Y-56108600D03*
%TO.P,J3,5,Pin_5*%
%TO.N,/TD1_5*%
X149733000Y-57378600D03*
%TO.P,J3,6,Pin_6*%
%TO.N,/TD1_6*%
X152273000Y-57378600D03*
%TO.P,J3,7,Pin_7*%
%TO.N,unconnected-(J3-Pin_7-Pad7)*%
X149733000Y-58648600D03*
%TO.P,J3,8,Pin_8*%
%TO.N,unconnected-(J3-Pin_8-Pad8)*%
X152273000Y-58648600D03*
%TO.P,J3,9,Pin_9*%
%TO.N,/TD1_9*%
X149733000Y-59918600D03*
%TO.P,J3,10,Pin_10*%
%TO.N,/TD1_10*%
X152273000Y-59918600D03*
%TO.P,J3,11,Pin_11*%
%TO.N,unconnected-(J3-Pin_11-Pad11)*%
X149733000Y-61188600D03*
%TO.P,J3,12,Pin_12*%
%TO.N,unconnected-(J3-Pin_12-Pad12)*%
X152273000Y-61188600D03*
%TO.P,J3,13,Pin_13*%
%TO.N,/TD1_13*%
X149733000Y-62458600D03*
%TO.P,J3,14,Pin_14*%
%TO.N,/TD1_14*%
X152273000Y-62458600D03*
%TO.P,J3,15,Pin_15*%
%TO.N,unconnected-(J3-Pin_15-Pad15)*%
X149733000Y-63728600D03*
%TO.P,J3,16,Pin_16*%
%TO.N,unconnected-(J3-Pin_16-Pad16)*%
X152273000Y-63728600D03*
%TO.P,J3,17,Pin_17*%
%TO.N,/TD1_17*%
X149733000Y-64998600D03*
%TO.P,J3,18,Pin_18*%
%TO.N,/TD1_18*%
X152273000Y-64998600D03*
%TO.P,J3,19,Pin_19*%
%TO.N,unconnected-(J3-Pin_19-Pad19)*%
X149733000Y-66268600D03*
%TO.P,J3,20,Pin_20*%
%TO.N,unconnected-(J3-Pin_20-Pad20)*%
X152273000Y-66268600D03*
%TO.P,J3,21,Pin_21*%
%TO.N,/TD1_21*%
X149733000Y-67538600D03*
%TO.P,J3,22,Pin_22*%
%TO.N,/TD1_22*%
X152273000Y-67538600D03*
%TO.P,J3,23,Pin_23*%
%TO.N,unconnected-(J3-Pin_23-Pad23)*%
X149733000Y-68808600D03*
%TO.P,J3,24,Pin_24*%
%TO.N,unconnected-(J3-Pin_24-Pad24)*%
X152273000Y-68808600D03*
%TO.P,J3,25,Pin_25*%
%TO.N,/TD1_25*%
X149733000Y-70078600D03*
%TO.P,J3,26,Pin_26*%
%TO.N,/TD1_26*%
X152273000Y-70078600D03*
%TO.P,J3,27,Pin_27*%
%TO.N,unconnected-(J3-Pin_27-Pad27)*%
X149733000Y-71348600D03*
%TO.P,J3,28,Pin_28*%
%TO.N,unconnected-(J3-Pin_28-Pad28)*%
X152273000Y-71348600D03*
%TO.P,J3,29,Pin_29*%
%TO.N,/TD1_29*%
X149733000Y-72618600D03*
%TO.P,J3,30,Pin_30*%
%TO.N,/TD1_30*%
X152273000Y-72618600D03*
%TO.P,J3,31,Pin_31*%
%TO.N,unconnected-(J3-Pin_31-Pad31)*%
X149733000Y-73888600D03*
%TO.P,J3,32,Pin_32*%
%TO.N,unconnected-(J3-Pin_32-Pad32)*%
X152273000Y-73888600D03*
%TO.P,J3,33,Pin_33*%
%TO.N,/TD1_33*%
X149733000Y-75158600D03*
%TO.P,J3,34,Pin_34*%
%TO.N,/TD1_34*%
X152273000Y-75158600D03*
%TD*%
D10*
%TO.P,J4,1,Pin_1*%
%TO.N,/TD2_1*%
X149722840Y-89916000D03*
D11*
%TO.P,J4,2,Pin_2*%
%TO.N,/TD2_2*%
X152283160Y-89916000D03*
%TO.P,J4,3,Pin_3*%
%TO.N,unconnected-(J4-Pin_3-Pad3)*%
X149733000Y-91186000D03*
%TO.P,J4,4,Pin_4*%
%TO.N,unconnected-(J4-Pin_4-Pad4)*%
X152273000Y-91186000D03*
%TO.P,J4,5,Pin_5*%
%TO.N,/TD2_5*%
X149733000Y-92456000D03*
%TO.P,J4,6,Pin_6*%
%TO.N,/TD2_6*%
X152273000Y-92456000D03*
%TO.P,J4,7,Pin_7*%
%TO.N,unconnected-(J4-Pin_7-Pad7)*%
X149733000Y-93726000D03*
%TO.P,J4,8,Pin_8*%
%TO.N,unconnected-(J4-Pin_8-Pad8)*%
X152273000Y-93726000D03*
%TO.P,J4,9,Pin_9*%
%TO.N,/TD2_10*%
X149733000Y-94996000D03*
%TO.P,J4,10,Pin_10*%
%TO.N,/TD2_9*%
X152273000Y-94996000D03*
%TO.P,J4,11,Pin_11*%
%TO.N,unconnected-(J4-Pin_11-Pad11)*%
X149733000Y-96266000D03*
%TO.P,J4,12,Pin_12*%
%TO.N,/TD2_11*%
X152273000Y-96266000D03*
%TO.P,J4,13,Pin_13*%
%TO.N,unconnected-(J4-Pin_13-Pad13)*%
X149733000Y-97536000D03*
%TO.P,J4,14,Pin_14*%
%TO.N,unconnected-(J4-Pin_14-Pad14)*%
X152273000Y-97536000D03*
%TO.P,J4,15,Pin_15*%
%TO.N,unconnected-(J4-Pin_15-Pad15)*%
X149733000Y-98806000D03*
%TO.P,J4,16,Pin_16*%
%TO.N,unconnected-(J4-Pin_16-Pad16)*%
X152273000Y-98806000D03*
%TO.P,J4,17,Pin_17*%
%TO.N,unconnected-(J4-Pin_17-Pad17)*%
X149733000Y-100076000D03*
%TO.P,J4,18,Pin_18*%
%TO.N,unconnected-(J4-Pin_18-Pad18)*%
X152273000Y-100076000D03*
%TO.P,J4,19,Pin_19*%
%TO.N,unconnected-(J4-Pin_19-Pad19)*%
X149733000Y-101346000D03*
%TO.P,J4,20,Pin_20*%
%TO.N,unconnected-(J4-Pin_20-Pad20)*%
X152273000Y-101346000D03*
%TO.P,J4,21,Pin_21*%
%TO.N,unconnected-(J4-Pin_21-Pad21)*%
X149733000Y-102616000D03*
%TO.P,J4,22,Pin_22*%
%TO.N,unconnected-(J4-Pin_22-Pad22)*%
X152273000Y-102616000D03*
%TO.P,J4,23,Pin_23*%
%TO.N,unconnected-(J4-Pin_23-Pad23)*%
X149733000Y-103886000D03*
%TO.P,J4,24,Pin_24*%
%TO.N,unconnected-(J4-Pin_24-Pad24)*%
X152273000Y-103886000D03*
%TO.P,J4,25,Pin_25*%
%TO.N,unconnected-(J4-Pin_25-Pad25)*%
X149733000Y-105156000D03*
%TO.P,J4,26,Pin_26*%
%TO.N,unconnected-(J4-Pin_26-Pad26)*%
X152273000Y-105156000D03*
%TO.P,J4,27,Pin_27*%
%TO.N,unconnected-(J4-Pin_27-Pad27)*%
X149733000Y-106426000D03*
%TO.P,J4,28,Pin_28*%
%TO.N,unconnected-(J4-Pin_28-Pad28)*%
X152273000Y-106426000D03*
%TO.P,J4,29,Pin_29*%
%TO.N,unconnected-(J4-Pin_29-Pad29)*%
X149733000Y-107696000D03*
%TO.P,J4,30,Pin_30*%
%TO.N,unconnected-(J4-Pin_30-Pad30)*%
X152273000Y-107696000D03*
%TO.P,J4,31,Pin_31*%
%TO.N,unconnected-(J4-Pin_31-Pad31)*%
X149733000Y-108966000D03*
%TO.P,J4,32,Pin_32*%
%TO.N,unconnected-(J4-Pin_32-Pad32)*%
X152273000Y-108966000D03*
%TO.P,J4,33,Pin_33*%
%TO.N,unconnected-(J4-Pin_33-Pad33)*%
X149733000Y-110236000D03*
%TO.P,J4,34,Pin_34*%
%TO.N,unconnected-(J4-Pin_34-Pad34)*%
X152273000Y-110236000D03*
%TD*%
D10*
%TO.P,J1,1,Pin_1*%
%TO.N,/TD1_1+*%
X104241600Y-54838600D03*
D11*
%TO.P,J1,2,Pin_2*%
%TO.N,/TD1_1-*%
X106801920Y-54838600D03*
%TO.P,J1,3,Pin_3*%
%TO.N,unconnected-(J1-Pin_3-Pad3)*%
X104251760Y-56108600D03*
%TO.P,J1,4,Pin_4*%
%TO.N,unconnected-(J1-Pin_4-Pad4)*%
X106791760Y-56108600D03*
%TO.P,J1,5,Pin_5*%
%TO.N,/TD1_5*%
X104251760Y-57378600D03*
%TO.P,J1,6,Pin_6*%
%TO.N,/TD1_6*%
X106791760Y-57378600D03*
%TO.P,J1,7,Pin_7*%
%TO.N,unconnected-(J1-Pin_7-Pad7)*%
X104251760Y-58648600D03*
%TO.P,J1,8,Pin_8*%
%TO.N,unconnected-(J1-Pin_8-Pad8)*%
X106791760Y-58648600D03*
%TO.P,J1,9,Pin_9*%
%TO.N,/TD1_9*%
X104251760Y-59918600D03*
%TO.P,J1,10,Pin_10*%
%TO.N,/TD1_10*%
X106791760Y-59918600D03*
%TO.P,J1,11,Pin_11*%
%TO.N,unconnected-(J1-Pin_11-Pad11)*%
X104251760Y-61188600D03*
%TO.P,J1,12,Pin_12*%
%TO.N,unconnected-(J1-Pin_12-Pad12)*%
X106791760Y-61188600D03*
%TO.P,J1,13,Pin_13*%
%TO.N,/TD1_13*%
X104251760Y-62458600D03*
%TO.P,J1,14,Pin_14*%
%TO.N,/TD1_14*%
X106791760Y-62458600D03*
%TO.P,J1,15,Pin_15*%
%TO.N,unconnected-(J1-Pin_15-Pad15)*%
X104251760Y-63728600D03*
%TO.P,J1,16,Pin_16*%
%TO.N,unconnected-(J1-Pin_16-Pad16)*%
X106791760Y-63728600D03*
%TO.P,J1,17,Pin_17*%
%TO.N,/TD1_17*%
X104251760Y-64998600D03*
%TO.P,J1,18,Pin_18*%
%TO.N,/TD1_18*%
X106791760Y-64998600D03*
%TO.P,J1,19,Pin_19*%
%TO.N,unconnected-(J1-Pin_19-Pad19)*%
X104251760Y-66268600D03*
%TO.P,J1,20,Pin_20*%
%TO.N,unconnected-(J1-Pin_20-Pad20)*%
X106791760Y-66268600D03*
%TO.P,J1,21,Pin_21*%
%TO.N,/TD1_21*%
X104251760Y-67538600D03*
%TO.P,J1,22,Pin_22*%
%TO.N,/TD1_22*%
X106791760Y-67538600D03*
%TO.P,J1,23,Pin_23*%
%TO.N,unconnected-(J1-Pin_23-Pad23)*%
X104251760Y-68808600D03*
%TO.P,J1,24,Pin_24*%
%TO.N,unconnected-(J1-Pin_24-Pad24)*%
X106791760Y-68808600D03*
%TO.P,J1,25,Pin_25*%
%TO.N,/TD1_25*%
X104251760Y-70078600D03*
%TO.P,J1,26,Pin_26*%
%TO.N,/TD1_26*%
X106791760Y-70078600D03*
%TO.P,J1,27,Pin_27*%
%TO.N,unconnected-(J1-Pin_27-Pad27)*%
X104251760Y-71348600D03*
%TO.P,J1,28,Pin_28*%
%TO.N,unconnected-(J1-Pin_28-Pad28)*%
X106791760Y-71348600D03*
%TO.P,J1,29,Pin_29*%
%TO.N,/TD1_29*%
X104251760Y-72618600D03*
%TO.P,J1,30,Pin_30*%
%TO.N,/TD1_30*%
X106791760Y-72618600D03*
%TO.P,J1,31,Pin_31*%
%TO.N,unconnected-(J1-Pin_31-Pad31)*%
X104251760Y-73888600D03*
D12*
%TO.P,J1,32,Pin_32*%
%TO.N,unconnected-(J1-Pin_32-Pad32)*%
X106791760Y-73888600D03*
D11*
%TO.P,J1,33,Pin_33*%
%TO.N,/TD1_33*%
X104251760Y-75158600D03*
D12*
%TO.P,J1,34,Pin_34*%
%TO.N,/TD1_34*%
X106791760Y-75158600D03*
%TD*%
D13*
%TO.N,/TD1_5*%
X103230000Y-56400800D02*
X103230000Y-54119400D01*
X148931400Y-52520800D02*
X151030000Y-54619400D01*
X103230000Y-54119400D02*
X104828600Y-52520800D01*
X104202600Y-57373400D02*
X103230000Y-56400800D01*
X104828600Y-52520800D02*
X148931400Y-52520800D01*
X151030000Y-56291400D02*
X149897200Y-57424200D01*
X151030000Y-54619400D02*
X151030000Y-56291400D01*
%TO.N,/TD1_9*%
X151430000Y-58431400D02*
X149897200Y-59964200D01*
X104662914Y-52120800D02*
X149097085Y-52120800D01*
X102830000Y-58540800D02*
X102830000Y-53953714D01*
X151430000Y-54453715D02*
X151430000Y-58431400D01*
X102830000Y-53953714D02*
X104662914Y-52120800D01*
X149097085Y-52120800D02*
X151430000Y-54453715D01*
X104202600Y-59913400D02*
X102830000Y-58540800D01*
%TO.N,/TD1_13*%
X106030000Y-53619400D02*
X146330000Y-53619400D01*
X105230000Y-54419400D02*
X106030000Y-53619400D01*
X146330000Y-53619400D02*
X147830000Y-55119400D01*
X104202600Y-62453400D02*
X105230000Y-61426000D01*
X147830000Y-60437000D02*
X149897200Y-62504200D01*
X105230000Y-61426000D02*
X105230000Y-54419400D01*
X147830000Y-55119400D02*
X147830000Y-60437000D01*
%TO.N,/TD1_17*%
X149255600Y-65044200D02*
X149897200Y-65044200D01*
X105630000Y-75619400D02*
X106030000Y-76019400D01*
X104202600Y-64993400D02*
X105630000Y-66420800D01*
X106030000Y-76019400D02*
X138280400Y-76019400D01*
X138280400Y-76019400D02*
X149255600Y-65044200D01*
X105630000Y-66420800D02*
X105630000Y-75619400D01*
%TO.N,/TD1_21*%
X105130000Y-68460800D02*
X105130000Y-75919400D01*
X105130000Y-75919400D02*
X105630000Y-76419400D01*
X139630000Y-76419400D02*
X148465200Y-67584200D01*
X105630000Y-76419400D02*
X139630000Y-76419400D01*
X104202600Y-67533400D02*
X105130000Y-68460800D01*
X148465200Y-67584200D02*
X149897200Y-67584200D01*
%TO.N,/TD1_25*%
X151333200Y-71560200D02*
X149897200Y-70124200D01*
X104730000Y-77719400D02*
X149530000Y-77719400D01*
X149530000Y-77719400D02*
X151333200Y-75916200D01*
X102730000Y-75719400D02*
X104730000Y-77719400D01*
X151333200Y-75916200D02*
X151333200Y-71560200D01*
X104202600Y-70073400D02*
X102730000Y-71546000D01*
X102730000Y-71546000D02*
X102730000Y-75719400D01*
%TO.N,/TD1_29*%
X105030000Y-77319400D02*
X149230000Y-77319400D01*
X149230000Y-77319400D02*
X150930000Y-75619400D01*
X104202600Y-72613400D02*
X103230000Y-73586000D01*
X103230000Y-73586000D02*
X103230000Y-75519400D01*
X150930000Y-75619400D02*
X150930000Y-73697000D01*
X150930000Y-73697000D02*
X149897200Y-72664200D01*
X103230000Y-75519400D02*
X105030000Y-77319400D01*
%TO.N,/TD1_33*%
X105230000Y-76819400D02*
X148282000Y-76819400D01*
X104202600Y-75153400D02*
X104202600Y-75792000D01*
X148282000Y-76819400D02*
X149897200Y-75204200D01*
X104202600Y-75792000D02*
X105230000Y-76819400D01*
%TO.N,/TD2_1*%
X105359200Y-88620600D02*
X148683800Y-88620600D01*
X148683800Y-88620600D02*
X149982720Y-89919520D01*
X149982720Y-89919520D02*
X149853283Y-90048957D01*
X104267320Y-89712480D02*
X105359200Y-88620600D01*
X104267320Y-89919520D02*
X104267320Y-89712480D01*
%TO.N,/TD2_5*%
X104422800Y-87757000D02*
X104554764Y-87888964D01*
X151030280Y-89149520D02*
X151030280Y-91422120D01*
X121201011Y-87888964D02*
X121332975Y-87757000D01*
X149637760Y-87757000D02*
X151030280Y-89149520D01*
X151030280Y-91422120D02*
X149992880Y-92459520D01*
X121332975Y-87757000D02*
X149637760Y-87757000D01*
X103330280Y-91512320D02*
X103330280Y-88849520D01*
X104554764Y-87888964D02*
X121201011Y-87888964D01*
X104277480Y-92459520D02*
X103330280Y-91512320D01*
X103330280Y-88849520D02*
X104422800Y-87757000D01*
%TO.N,/TD2_9*%
X121230280Y-87179645D02*
X121230280Y-86849520D01*
X102830280Y-88549520D02*
X104830280Y-86549520D01*
X152022520Y-94999520D02*
X152532880Y-94999520D01*
X116430280Y-86249520D02*
X116430280Y-85919419D01*
X118830280Y-87179645D02*
X118830280Y-85919419D01*
X102830280Y-93552320D02*
X102830280Y-88549520D01*
X118230280Y-85919419D02*
X118230280Y-87179645D01*
X151430280Y-94407280D02*
X152022520Y-94999520D01*
X104277480Y-94999520D02*
X102830280Y-93552320D01*
X151430280Y-88983835D02*
X151430280Y-94407280D01*
X117630280Y-87179621D02*
X117630280Y-85919419D01*
X148995965Y-86549520D02*
X151430280Y-88983835D01*
X119430280Y-85919419D02*
X119430280Y-87179645D01*
X120030280Y-87179645D02*
X120030280Y-85919419D01*
X117030280Y-85919419D02*
X117030280Y-87179621D01*
X120630280Y-85919419D02*
X120630280Y-87179645D01*
X121530280Y-86549520D02*
X148995965Y-86549520D01*
X104830280Y-86549520D02*
X116130280Y-86549520D01*
X116730280Y-85619380D02*
G75*
G03*
X116430280Y-85919419I20J-300020D01*
G01*
X118530280Y-87479580D02*
G75*
G03*
X118830280Y-87179645I20J299980D01*
G01*
X117030281Y-85919419D02*
G75*
G03*
X116730280Y-85619419I-299981J19D01*
G01*
X120630281Y-85919419D02*
G75*
G03*
X120330280Y-85619419I-299981J19D01*
G01*
X120330280Y-85619380D02*
G75*
G03*
X120030280Y-85919419I20J-300020D01*
G01*
X120630255Y-87179645D02*
G75*
G03*
X120930280Y-87479645I300045J45D01*
G01*
X117030279Y-87179621D02*
G75*
G03*
X117330280Y-87479621I300021J21D01*
G01*
X121530280Y-86549480D02*
G75*
G03*
X121230280Y-86849520I20J-300020D01*
G01*
X118230255Y-87179645D02*
G75*
G03*
X118530280Y-87479645I300045J45D01*
G01*
X117330280Y-87479580D02*
G75*
G03*
X117630280Y-87179621I20J299980D01*
G01*
X120930280Y-87479580D02*
G75*
G03*
X121230280Y-87179645I20J299980D01*
G01*
X119430255Y-87179645D02*
G75*
G03*
X119730280Y-87479645I300045J45D01*
G01*
X119130280Y-85619380D02*
G75*
G03*
X118830280Y-85919419I20J-300020D01*
G01*
X117930280Y-85619380D02*
G75*
G03*
X117630280Y-85919419I20J-300020D01*
G01*
X119430281Y-85919419D02*
G75*
G03*
X119130280Y-85619419I-299981J19D01*
G01*
X118230281Y-85919419D02*
G75*
G03*
X117930280Y-85619419I-299981J19D01*
G01*
X116130280Y-86549480D02*
G75*
G03*
X116430280Y-86249520I20J299980D01*
G01*
X119730280Y-87479580D02*
G75*
G03*
X120030280Y-87179645I20J299980D01*
G01*
%TO.N,/TD2_10*%
X120547000Y-94991200D02*
X120547000Y-94322304D01*
X106834200Y-95025096D02*
X110047000Y-95025096D01*
X114547000Y-94991200D02*
X114547000Y-94322329D01*
X120547000Y-95660071D02*
X120547000Y-94991200D01*
X121147000Y-94322304D02*
X121147000Y-94991200D01*
X113947000Y-94991200D02*
X113947000Y-95660071D01*
X113347000Y-95660071D02*
X113347000Y-94991200D01*
X119347000Y-95660071D02*
X119347000Y-94991200D01*
X122347000Y-94322304D02*
X122347000Y-94691200D01*
X119947000Y-94322304D02*
X119947000Y-94991200D01*
X118747000Y-94991200D02*
X118747000Y-95660071D01*
X118147000Y-94991200D02*
X118147000Y-94322329D01*
X115147000Y-94991200D02*
X115147000Y-95660071D01*
X112747000Y-94991200D02*
X112747000Y-95660071D01*
X116947000Y-94991200D02*
X116947000Y-94322329D01*
X116347000Y-94322329D02*
X116347000Y-94991200D01*
X121747000Y-94991200D02*
X121747000Y-94322304D01*
X118747000Y-94322329D02*
X118747000Y-94991200D01*
X118147000Y-95660071D02*
X118147000Y-94991200D01*
X149733000Y-94996000D02*
X122651800Y-94996000D01*
X117547000Y-94322329D02*
X117547000Y-94991200D01*
X115747000Y-94991200D02*
X115747000Y-94322329D01*
X111547000Y-94322329D02*
X111547000Y-94991200D01*
X121747000Y-95660071D02*
X121747000Y-94991200D01*
X113347000Y-94991200D02*
X113347000Y-94322329D01*
X110347000Y-95291200D02*
X110347000Y-95660071D01*
X119347000Y-94991200D02*
X119347000Y-94322304D01*
X110947000Y-95291200D02*
X110947000Y-94322329D01*
X115747000Y-95660071D02*
X115747000Y-94991200D01*
X110947000Y-95660071D02*
X110947000Y-95291200D01*
X116347000Y-94991200D02*
X116347000Y-95660071D01*
X117547000Y-94991200D02*
X117547000Y-95660071D01*
X115147000Y-94322329D02*
X115147000Y-94991200D01*
X112747000Y-94322329D02*
X112747000Y-94991200D01*
X113947000Y-94322329D02*
X113947000Y-94991200D01*
X114547000Y-95660071D02*
X114547000Y-94991200D01*
X112147000Y-95660071D02*
X112147000Y-94991200D01*
X112147000Y-94991200D02*
X112147000Y-94322329D01*
X121147000Y-94991200D02*
X121147000Y-95660071D01*
X111547000Y-94991200D02*
X111547000Y-95660071D01*
X119947000Y-94991200D02*
X119947000Y-95660071D01*
X116947000Y-95660071D02*
X116947000Y-94991200D01*
X120247000Y-95960100D02*
G75*
G03*
X120547000Y-95660071I0J300000D01*
G01*
X116047000Y-94022300D02*
G75*
G03*
X115747000Y-94322329I0J-300000D01*
G01*
X114247000Y-95960100D02*
G75*
G03*
X114547000Y-95660071I0J300000D01*
G01*
X118747029Y-95660071D02*
G75*
G03*
X119047000Y-95960071I299971J-29D01*
G01*
X116647000Y-95960100D02*
G75*
G03*
X116947000Y-95660071I0J300000D01*
G01*
X113947029Y-95660071D02*
G75*
G03*
X114247000Y-95960071I299971J-29D01*
G01*
X114847000Y-94022300D02*
G75*
G03*
X114547000Y-94322329I0J-300000D01*
G01*
X112746971Y-94322329D02*
G75*
G03*
X112447000Y-94022329I-299971J29D01*
G01*
X115146971Y-94322329D02*
G75*
G03*
X114847000Y-94022329I-299971J29D01*
G01*
X119647000Y-94022300D02*
G75*
G03*
X119347000Y-94322304I0J-300000D01*
G01*
X116346971Y-94322329D02*
G75*
G03*
X116047000Y-94022329I-299971J29D01*
G01*
X121146996Y-94322304D02*
G75*
G03*
X120847000Y-94022304I-299996J4D01*
G01*
X121447000Y-95960100D02*
G75*
G03*
X121747000Y-95660071I0J300000D01*
G01*
X115147029Y-95660071D02*
G75*
G03*
X115447000Y-95960071I299971J-29D01*
G01*
X117247000Y-94022300D02*
G75*
G03*
X116947000Y-94322329I0J-300000D01*
G01*
X112447000Y-94022300D02*
G75*
G03*
X112147000Y-94322329I0J-300000D01*
G01*
X113946971Y-94322329D02*
G75*
G03*
X113647000Y-94022329I-299971J29D01*
G01*
X121147029Y-95660071D02*
G75*
G03*
X121447000Y-95960071I299971J-29D01*
G01*
X122346996Y-94322304D02*
G75*
G03*
X122047000Y-94022304I-299996J4D01*
G01*
X115447000Y-95960100D02*
G75*
G03*
X115747000Y-95660071I0J300000D01*
G01*
X117546971Y-94322329D02*
G75*
G03*
X117247000Y-94022329I-299971J29D01*
G01*
X120847000Y-94022300D02*
G75*
G03*
X120547000Y-94322304I0J-300000D01*
G01*
X110347004Y-95325096D02*
G75*
G03*
X110047000Y-95025096I-300004J-4D01*
G01*
X117547029Y-95660071D02*
G75*
G03*
X117847000Y-95960071I299971J-29D01*
G01*
X112747029Y-95660071D02*
G75*
G03*
X113047000Y-95960071I299971J-29D01*
G01*
X122347000Y-94691200D02*
G75*
G03*
X122647000Y-94991200I300000J0D01*
G01*
X110347029Y-95660071D02*
G75*
G03*
X110647000Y-95960071I299971J-29D01*
G01*
X113647000Y-94022300D02*
G75*
G03*
X113347000Y-94322329I0J-300000D01*
G01*
X111847000Y-95960100D02*
G75*
G03*
X112147000Y-95660071I0J300000D01*
G01*
X118746971Y-94322329D02*
G75*
G03*
X118447000Y-94022329I-299971J29D01*
G01*
X113047000Y-95960100D02*
G75*
G03*
X113347000Y-95660071I0J300000D01*
G01*
X119947029Y-95660071D02*
G75*
G03*
X120247000Y-95960071I299971J-29D01*
G01*
X111546971Y-94322329D02*
G75*
G03*
X111247000Y-94022329I-299971J29D01*
G01*
X116347029Y-95660071D02*
G75*
G03*
X116647000Y-95960071I299971J-29D01*
G01*
X119946996Y-94322304D02*
G75*
G03*
X119647000Y-94022304I-299996J4D01*
G01*
X117847000Y-95960100D02*
G75*
G03*
X118147000Y-95660071I0J300000D01*
G01*
X122047000Y-94022300D02*
G75*
G03*
X121747000Y-94322304I0J-300000D01*
G01*
X119047000Y-95960100D02*
G75*
G03*
X119347000Y-95660071I0J300000D01*
G01*
X110647000Y-95960100D02*
G75*
G03*
X110947000Y-95660071I0J300000D01*
G01*
X111247000Y-94022300D02*
G75*
G03*
X110947000Y-94322329I0J-300000D01*
G01*
X118447000Y-94022300D02*
G75*
G03*
X118147000Y-94322329I0J-300000D01*
G01*
X111547029Y-95660071D02*
G75*
G03*
X111847000Y-95960071I299971J-29D01*
G01*
%TO.N,/TD2_11*%
X152514200Y-96308600D02*
X152230400Y-96308600D01*
X152230400Y-96308600D02*
X151311600Y-97227400D01*
X106611600Y-111688600D02*
X105511600Y-110588600D01*
X105511600Y-97561400D02*
X104258800Y-96308600D01*
X150611600Y-111688600D02*
X106611600Y-111688600D01*
X151311600Y-110988600D02*
X150611600Y-111688600D01*
X105511600Y-110588600D02*
X105511600Y-97561400D01*
X151311600Y-97227400D02*
X151311600Y-110988600D01*
%TO.N,/TD1_1+*%
X104192440Y-54833400D02*
X104192440Y-54056960D01*
X104192440Y-54056960D02*
X105239600Y-53009800D01*
X148012640Y-53009800D02*
X149887040Y-54884200D01*
X105239600Y-53009800D02*
X148012640Y-53009800D01*
%TD*%
M02*
