%TF.GenerationSoftware,KiCad,Pcbnew,7.0.7*%
%TF.CreationDate,2023-09-14T17:34:38-04:00*%
%TF.ProjectId,Temps_South_DCT_HSK,54656d70-735f-4536-9f75-74685f444354,B*%
%TF.SameCoordinates,Original*%
%TF.FileFunction,Copper,L1,Top*%
%TF.FilePolarity,Positive*%
%FSLAX46Y46*%
G04 Gerber Fmt 4.6, Leading zero omitted, Abs format (unit mm)*
G04 Created by KiCad (PCBNEW 7.0.7) date 2023-09-14 17:34:38*
%MOMM*%
%LPD*%
G01*
G04 APERTURE LIST*
%TA.AperFunction,ComponentPad*%
%ADD10R,0.940800X0.940800*%
%TD*%
%TA.AperFunction,ComponentPad*%
%ADD11C,0.940800*%
%TD*%
%TA.AperFunction,ComponentPad*%
%ADD12C,0.890000*%
%TD*%
%TA.AperFunction,Conductor*%
%ADD13C,0.250000*%
%TD*%
%TA.AperFunction,Conductor*%
%ADD14C,0.200000*%
%TD*%
G04 APERTURE END LIST*
D10*
%TO.P,J2,1,Pin_1*%
%TO.N,/TD2_1*%
X104256840Y-89916000D03*
D11*
%TO.P,J2,2,Pin_2*%
%TO.N,/TD2_2*%
X106817160Y-89916000D03*
%TO.P,J2,3,Pin_3*%
%TO.N,unconnected-(J2-Pin_3-Pad3)*%
X104267000Y-91186000D03*
%TO.P,J2,4,Pin_4*%
%TO.N,unconnected-(J2-Pin_4-Pad4)*%
X106807000Y-91186000D03*
%TO.P,J2,5,Pin_5*%
%TO.N,/TD2_5*%
X104267000Y-92456000D03*
%TO.P,J2,6,Pin_6*%
%TO.N,/TD2_6*%
X106807000Y-92456000D03*
%TO.P,J2,7,Pin_7*%
%TO.N,unconnected-(J2-Pin_7-Pad7)*%
X104267000Y-93726000D03*
%TO.P,J2,8,Pin_8*%
%TO.N,unconnected-(J2-Pin_8-Pad8)*%
X106807000Y-93726000D03*
%TO.P,J2,9,Pin_9*%
%TO.N,/TD2_9*%
X104267000Y-94996000D03*
%TO.P,J2,10,Pin_10*%
%TO.N,/TD2_10*%
X106807000Y-94996000D03*
%TO.P,J2,11,Pin_11*%
%TO.N,/TD2_11*%
X104267000Y-96266000D03*
%TO.P,J2,12,Pin_12*%
%TO.N,unconnected-(J2-Pin_12-Pad12)*%
X106807000Y-96266000D03*
%TO.P,J2,13,Pin_13*%
%TO.N,unconnected-(J2-Pin_13-Pad13)*%
X104267000Y-97536000D03*
%TO.P,J2,14,Pin_14*%
%TO.N,unconnected-(J2-Pin_14-Pad14)*%
X106807000Y-97536000D03*
%TO.P,J2,15,Pin_15*%
%TO.N,unconnected-(J2-Pin_15-Pad15)*%
X104267000Y-98806000D03*
%TO.P,J2,16,Pin_16*%
%TO.N,unconnected-(J2-Pin_16-Pad16)*%
X106807000Y-98806000D03*
%TO.P,J2,17,Pin_17*%
%TO.N,unconnected-(J2-Pin_17-Pad17)*%
X104267000Y-100076000D03*
%TO.P,J2,18,Pin_18*%
%TO.N,unconnected-(J2-Pin_18-Pad18)*%
X106807000Y-100076000D03*
%TO.P,J2,19,Pin_19*%
%TO.N,unconnected-(J2-Pin_19-Pad19)*%
X104267000Y-101346000D03*
%TO.P,J2,20,Pin_20*%
%TO.N,unconnected-(J2-Pin_20-Pad20)*%
X106807000Y-101346000D03*
%TO.P,J2,21,Pin_21*%
%TO.N,unconnected-(J2-Pin_21-Pad21)*%
X104267000Y-102616000D03*
%TO.P,J2,22,Pin_22*%
%TO.N,unconnected-(J2-Pin_22-Pad22)*%
X106807000Y-102616000D03*
%TO.P,J2,23,Pin_23*%
%TO.N,unconnected-(J2-Pin_23-Pad23)*%
X104267000Y-103886000D03*
%TO.P,J2,24,Pin_24*%
%TO.N,unconnected-(J2-Pin_24-Pad24)*%
X106807000Y-103886000D03*
%TO.P,J2,25,Pin_25*%
%TO.N,unconnected-(J2-Pin_25-Pad25)*%
X104267000Y-105156000D03*
%TO.P,J2,26,Pin_26*%
%TO.N,unconnected-(J2-Pin_26-Pad26)*%
X106807000Y-105156000D03*
%TO.P,J2,27,Pin_27*%
%TO.N,unconnected-(J2-Pin_27-Pad27)*%
X104267000Y-106426000D03*
%TO.P,J2,28,Pin_28*%
%TO.N,unconnected-(J2-Pin_28-Pad28)*%
X106807000Y-106426000D03*
%TO.P,J2,29,Pin_29*%
%TO.N,unconnected-(J2-Pin_29-Pad29)*%
X104267000Y-107696000D03*
%TO.P,J2,30,Pin_30*%
%TO.N,unconnected-(J2-Pin_30-Pad30)*%
X106807000Y-107696000D03*
%TO.P,J2,31,Pin_31*%
%TO.N,unconnected-(J2-Pin_31-Pad31)*%
X104267000Y-108966000D03*
%TO.P,J2,32,Pin_32*%
%TO.N,unconnected-(J2-Pin_32-Pad32)*%
X106807000Y-108966000D03*
%TO.P,J2,33,Pin_33*%
%TO.N,unconnected-(J2-Pin_33-Pad33)*%
X104267000Y-110236000D03*
%TO.P,J2,34,Pin_34*%
%TO.N,unconnected-(J2-Pin_34-Pad34)*%
X106807000Y-110236000D03*
%TD*%
D10*
%TO.P,J3,1,Pin_1*%
%TO.N,/TD1_1+*%
X149722840Y-54838600D03*
D11*
%TO.P,J3,2,Pin_2*%
%TO.N,/TD1_1-*%
X152283160Y-54838600D03*
%TO.P,J3,3,Pin_3*%
%TO.N,unconnected-(J3-Pin_3-Pad3)*%
X149733000Y-56108600D03*
%TO.P,J3,4,Pin_4*%
%TO.N,unconnected-(J3-Pin_4-Pad4)*%
X152273000Y-56108600D03*
%TO.P,J3,5,Pin_5*%
%TO.N,/TD1_5*%
X149733000Y-57378600D03*
%TO.P,J3,6,Pin_6*%
%TO.N,/TD1_6*%
X152273000Y-57378600D03*
%TO.P,J3,7,Pin_7*%
%TO.N,unconnected-(J3-Pin_7-Pad7)*%
X149733000Y-58648600D03*
%TO.P,J3,8,Pin_8*%
%TO.N,unconnected-(J3-Pin_8-Pad8)*%
X152273000Y-58648600D03*
%TO.P,J3,9,Pin_9*%
%TO.N,/TD1_9*%
X149733000Y-59918600D03*
%TO.P,J3,10,Pin_10*%
%TO.N,/TD1_10*%
X152273000Y-59918600D03*
%TO.P,J3,11,Pin_11*%
%TO.N,unconnected-(J3-Pin_11-Pad11)*%
X149733000Y-61188600D03*
%TO.P,J3,12,Pin_12*%
%TO.N,unconnected-(J3-Pin_12-Pad12)*%
X152273000Y-61188600D03*
%TO.P,J3,13,Pin_13*%
%TO.N,/TD1_13*%
X149733000Y-62458600D03*
%TO.P,J3,14,Pin_14*%
%TO.N,/TD1_14*%
X152273000Y-62458600D03*
%TO.P,J3,15,Pin_15*%
%TO.N,unconnected-(J3-Pin_15-Pad15)*%
X149733000Y-63728600D03*
%TO.P,J3,16,Pin_16*%
%TO.N,unconnected-(J3-Pin_16-Pad16)*%
X152273000Y-63728600D03*
%TO.P,J3,17,Pin_17*%
%TO.N,/TD1_17*%
X149733000Y-64998600D03*
%TO.P,J3,18,Pin_18*%
%TO.N,/TD1_18*%
X152273000Y-64998600D03*
%TO.P,J3,19,Pin_19*%
%TO.N,unconnected-(J3-Pin_19-Pad19)*%
X149733000Y-66268600D03*
%TO.P,J3,20,Pin_20*%
%TO.N,unconnected-(J3-Pin_20-Pad20)*%
X152273000Y-66268600D03*
%TO.P,J3,21,Pin_21*%
%TO.N,/TD1_21*%
X149733000Y-67538600D03*
%TO.P,J3,22,Pin_22*%
%TO.N,/TD1_22*%
X152273000Y-67538600D03*
%TO.P,J3,23,Pin_23*%
%TO.N,unconnected-(J3-Pin_23-Pad23)*%
X149733000Y-68808600D03*
%TO.P,J3,24,Pin_24*%
%TO.N,unconnected-(J3-Pin_24-Pad24)*%
X152273000Y-68808600D03*
%TO.P,J3,25,Pin_25*%
%TO.N,/TD1_25*%
X149733000Y-70078600D03*
%TO.P,J3,26,Pin_26*%
%TO.N,/TD1_26*%
X152273000Y-70078600D03*
%TO.P,J3,27,Pin_27*%
%TO.N,unconnected-(J3-Pin_27-Pad27)*%
X149733000Y-71348600D03*
%TO.P,J3,28,Pin_28*%
%TO.N,unconnected-(J3-Pin_28-Pad28)*%
X152273000Y-71348600D03*
%TO.P,J3,29,Pin_29*%
%TO.N,/TD1_29*%
X149733000Y-72618600D03*
%TO.P,J3,30,Pin_30*%
%TO.N,/TD1_30*%
X152273000Y-72618600D03*
%TO.P,J3,31,Pin_31*%
%TO.N,unconnected-(J3-Pin_31-Pad31)*%
X149733000Y-73888600D03*
%TO.P,J3,32,Pin_32*%
%TO.N,unconnected-(J3-Pin_32-Pad32)*%
X152273000Y-73888600D03*
%TO.P,J3,33,Pin_33*%
%TO.N,/TD1_33*%
X149733000Y-75158600D03*
%TO.P,J3,34,Pin_34*%
%TO.N,/TD1_34*%
X152273000Y-75158600D03*
%TD*%
D10*
%TO.P,J4,1,Pin_1*%
%TO.N,/TD2_1*%
X149722840Y-89916000D03*
D11*
%TO.P,J4,2,Pin_2*%
%TO.N,/TD2_2*%
X152283160Y-89916000D03*
%TO.P,J4,3,Pin_3*%
%TO.N,unconnected-(J4-Pin_3-Pad3)*%
X149733000Y-91186000D03*
%TO.P,J4,4,Pin_4*%
%TO.N,unconnected-(J4-Pin_4-Pad4)*%
X152273000Y-91186000D03*
%TO.P,J4,5,Pin_5*%
%TO.N,/TD2_5*%
X149733000Y-92456000D03*
%TO.P,J4,6,Pin_6*%
%TO.N,/TD2_6*%
X152273000Y-92456000D03*
%TO.P,J4,7,Pin_7*%
%TO.N,unconnected-(J4-Pin_7-Pad7)*%
X149733000Y-93726000D03*
%TO.P,J4,8,Pin_8*%
%TO.N,unconnected-(J4-Pin_8-Pad8)*%
X152273000Y-93726000D03*
%TO.P,J4,9,Pin_9*%
%TO.N,/TD2_10*%
X149733000Y-94996000D03*
%TO.P,J4,10,Pin_10*%
%TO.N,/TD2_9*%
X152273000Y-94996000D03*
%TO.P,J4,11,Pin_11*%
%TO.N,unconnected-(J4-Pin_11-Pad11)*%
X149733000Y-96266000D03*
%TO.P,J4,12,Pin_12*%
%TO.N,/TD2_11*%
X152273000Y-96266000D03*
%TO.P,J4,13,Pin_13*%
%TO.N,unconnected-(J4-Pin_13-Pad13)*%
X149733000Y-97536000D03*
%TO.P,J4,14,Pin_14*%
%TO.N,unconnected-(J4-Pin_14-Pad14)*%
X152273000Y-97536000D03*
%TO.P,J4,15,Pin_15*%
%TO.N,unconnected-(J4-Pin_15-Pad15)*%
X149733000Y-98806000D03*
%TO.P,J4,16,Pin_16*%
%TO.N,unconnected-(J4-Pin_16-Pad16)*%
X152273000Y-98806000D03*
%TO.P,J4,17,Pin_17*%
%TO.N,unconnected-(J4-Pin_17-Pad17)*%
X149733000Y-100076000D03*
%TO.P,J4,18,Pin_18*%
%TO.N,unconnected-(J4-Pin_18-Pad18)*%
X152273000Y-100076000D03*
%TO.P,J4,19,Pin_19*%
%TO.N,unconnected-(J4-Pin_19-Pad19)*%
X149733000Y-101346000D03*
%TO.P,J4,20,Pin_20*%
%TO.N,unconnected-(J4-Pin_20-Pad20)*%
X152273000Y-101346000D03*
%TO.P,J4,21,Pin_21*%
%TO.N,unconnected-(J4-Pin_21-Pad21)*%
X149733000Y-102616000D03*
%TO.P,J4,22,Pin_22*%
%TO.N,unconnected-(J4-Pin_22-Pad22)*%
X152273000Y-102616000D03*
%TO.P,J4,23,Pin_23*%
%TO.N,unconnected-(J4-Pin_23-Pad23)*%
X149733000Y-103886000D03*
%TO.P,J4,24,Pin_24*%
%TO.N,unconnected-(J4-Pin_24-Pad24)*%
X152273000Y-103886000D03*
%TO.P,J4,25,Pin_25*%
%TO.N,unconnected-(J4-Pin_25-Pad25)*%
X149733000Y-105156000D03*
%TO.P,J4,26,Pin_26*%
%TO.N,unconnected-(J4-Pin_26-Pad26)*%
X152273000Y-105156000D03*
%TO.P,J4,27,Pin_27*%
%TO.N,unconnected-(J4-Pin_27-Pad27)*%
X149733000Y-106426000D03*
%TO.P,J4,28,Pin_28*%
%TO.N,unconnected-(J4-Pin_28-Pad28)*%
X152273000Y-106426000D03*
%TO.P,J4,29,Pin_29*%
%TO.N,unconnected-(J4-Pin_29-Pad29)*%
X149733000Y-107696000D03*
%TO.P,J4,30,Pin_30*%
%TO.N,unconnected-(J4-Pin_30-Pad30)*%
X152273000Y-107696000D03*
%TO.P,J4,31,Pin_31*%
%TO.N,unconnected-(J4-Pin_31-Pad31)*%
X149733000Y-108966000D03*
%TO.P,J4,32,Pin_32*%
%TO.N,unconnected-(J4-Pin_32-Pad32)*%
X152273000Y-108966000D03*
%TO.P,J4,33,Pin_33*%
%TO.N,unconnected-(J4-Pin_33-Pad33)*%
X149733000Y-110236000D03*
%TO.P,J4,34,Pin_34*%
%TO.N,unconnected-(J4-Pin_34-Pad34)*%
X152273000Y-110236000D03*
%TD*%
D10*
%TO.P,J1,1,Pin_1*%
%TO.N,/TD1_1+*%
X104241600Y-54838600D03*
D11*
%TO.P,J1,2,Pin_2*%
%TO.N,/TD1_1-*%
X106801920Y-54838600D03*
%TO.P,J1,3,Pin_3*%
%TO.N,unconnected-(J1-Pin_3-Pad3)*%
X104251760Y-56108600D03*
%TO.P,J1,4,Pin_4*%
%TO.N,unconnected-(J1-Pin_4-Pad4)*%
X106791760Y-56108600D03*
%TO.P,J1,5,Pin_5*%
%TO.N,/TD1_5*%
X104251760Y-57378600D03*
%TO.P,J1,6,Pin_6*%
%TO.N,/TD1_6*%
X106791760Y-57378600D03*
%TO.P,J1,7,Pin_7*%
%TO.N,unconnected-(J1-Pin_7-Pad7)*%
X104251760Y-58648600D03*
%TO.P,J1,8,Pin_8*%
%TO.N,unconnected-(J1-Pin_8-Pad8)*%
X106791760Y-58648600D03*
%TO.P,J1,9,Pin_9*%
%TO.N,/TD1_9*%
X104251760Y-59918600D03*
%TO.P,J1,10,Pin_10*%
%TO.N,/TD1_10*%
X106791760Y-59918600D03*
%TO.P,J1,11,Pin_11*%
%TO.N,unconnected-(J1-Pin_11-Pad11)*%
X104251760Y-61188600D03*
%TO.P,J1,12,Pin_12*%
%TO.N,unconnected-(J1-Pin_12-Pad12)*%
X106791760Y-61188600D03*
%TO.P,J1,13,Pin_13*%
%TO.N,/TD1_13*%
X104251760Y-62458600D03*
%TO.P,J1,14,Pin_14*%
%TO.N,/TD1_14*%
X106791760Y-62458600D03*
%TO.P,J1,15,Pin_15*%
%TO.N,unconnected-(J1-Pin_15-Pad15)*%
X104251760Y-63728600D03*
%TO.P,J1,16,Pin_16*%
%TO.N,unconnected-(J1-Pin_16-Pad16)*%
X106791760Y-63728600D03*
%TO.P,J1,17,Pin_17*%
%TO.N,/TD1_17*%
X104251760Y-64998600D03*
%TO.P,J1,18,Pin_18*%
%TO.N,/TD1_18*%
X106791760Y-64998600D03*
%TO.P,J1,19,Pin_19*%
%TO.N,unconnected-(J1-Pin_19-Pad19)*%
X104251760Y-66268600D03*
%TO.P,J1,20,Pin_20*%
%TO.N,unconnected-(J1-Pin_20-Pad20)*%
X106791760Y-66268600D03*
%TO.P,J1,21,Pin_21*%
%TO.N,/TD1_21*%
X104251760Y-67538600D03*
%TO.P,J1,22,Pin_22*%
%TO.N,/TD1_22*%
X106791760Y-67538600D03*
%TO.P,J1,23,Pin_23*%
%TO.N,unconnected-(J1-Pin_23-Pad23)*%
X104251760Y-68808600D03*
%TO.P,J1,24,Pin_24*%
%TO.N,unconnected-(J1-Pin_24-Pad24)*%
X106791760Y-68808600D03*
%TO.P,J1,25,Pin_25*%
%TO.N,/TD1_25*%
X104251760Y-70078600D03*
%TO.P,J1,26,Pin_26*%
%TO.N,/TD1_26*%
X106791760Y-70078600D03*
%TO.P,J1,27,Pin_27*%
%TO.N,unconnected-(J1-Pin_27-Pad27)*%
X104251760Y-71348600D03*
%TO.P,J1,28,Pin_28*%
%TO.N,unconnected-(J1-Pin_28-Pad28)*%
X106791760Y-71348600D03*
%TO.P,J1,29,Pin_29*%
%TO.N,/TD1_29*%
X104251760Y-72618600D03*
%TO.P,J1,30,Pin_30*%
%TO.N,/TD1_30*%
X106791760Y-72618600D03*
%TO.P,J1,31,Pin_31*%
%TO.N,unconnected-(J1-Pin_31-Pad31)*%
X104251760Y-73888600D03*
D12*
%TO.P,J1,32,Pin_32*%
%TO.N,unconnected-(J1-Pin_32-Pad32)*%
X106791760Y-73888600D03*
D11*
%TO.P,J1,33,Pin_33*%
%TO.N,/TD1_33*%
X104251760Y-75158600D03*
D12*
%TO.P,J1,34,Pin_34*%
%TO.N,/TD1_34*%
X106791760Y-75158600D03*
%TD*%
D13*
%TO.N,/TD2_9*%
X114434600Y-85394800D02*
X114434600Y-86044926D01*
X113834600Y-85394800D02*
X113834600Y-84744651D01*
X113234600Y-85394800D02*
X113234600Y-86044926D01*
X113234600Y-84744651D02*
X113234600Y-85394800D01*
X112934600Y-84444700D02*
G75*
G03*
X112634600Y-84744651I0J-300000D01*
G01*
X112034600Y-85694800D02*
X112034600Y-86044949D01*
X114434600Y-84744651D02*
X114434600Y-85394800D01*
X147876600Y-85394800D02*
X151455280Y-88973480D01*
X105003600Y-85394800D02*
X111734600Y-85394800D01*
X102870000Y-93599000D02*
X102870000Y-87528400D01*
X113834600Y-86044926D02*
X113834600Y-85394800D01*
X115634551Y-86044949D02*
G75*
G03*
X115934600Y-86344949I300049J49D01*
G01*
X112634600Y-86044949D02*
X112634600Y-85694800D01*
X116534600Y-85394800D02*
G75*
G03*
X116234600Y-85694800I0J-300000D01*
G01*
X116534600Y-85394800D02*
X117630580Y-85394800D01*
X115934600Y-86344900D02*
G75*
G03*
X116234600Y-86044949I0J300000D01*
G01*
X115034600Y-86044926D02*
X115034600Y-85394800D01*
X115634600Y-85394800D02*
X115634600Y-86044949D01*
X112034600Y-85694800D02*
G75*
G03*
X111734600Y-85394800I-300000J0D01*
G01*
X117630580Y-85394800D02*
X147876600Y-85394800D01*
X114134600Y-84444700D02*
G75*
G03*
X113834600Y-84744651I0J-300000D01*
G01*
X102870000Y-87528400D02*
X105003600Y-85394800D01*
X115034600Y-85394800D02*
X115034600Y-84744674D01*
X112034551Y-86044949D02*
G75*
G03*
X112334600Y-86344949I300049J49D01*
G01*
X115634626Y-84744674D02*
G75*
G03*
X115334600Y-84444674I-300026J-26D01*
G01*
X114434649Y-84744651D02*
G75*
G03*
X114134600Y-84444651I-300049J-49D01*
G01*
X112334600Y-86344900D02*
G75*
G03*
X112634600Y-86044949I0J300000D01*
G01*
X114434574Y-86044926D02*
G75*
G03*
X114734600Y-86344926I300026J26D01*
G01*
X112634600Y-85694800D02*
X112634600Y-84744651D01*
X116234600Y-86044949D02*
X116234600Y-85694800D01*
X104267000Y-94996000D02*
X102870000Y-93599000D01*
X113534600Y-86344900D02*
G75*
G03*
X113834600Y-86044926I0J300000D01*
G01*
X113234574Y-86044926D02*
G75*
G03*
X113534600Y-86344926I300026J26D01*
G01*
X113234649Y-84744651D02*
G75*
G03*
X112934600Y-84444651I-300049J-49D01*
G01*
X114734600Y-86344900D02*
G75*
G03*
X115034600Y-86044926I0J300000D01*
G01*
X115334600Y-84444700D02*
G75*
G03*
X115034600Y-84744674I0J-300000D01*
G01*
X115634600Y-84744674D02*
X115634600Y-85394800D01*
X151455280Y-88973480D02*
X151455280Y-94178280D01*
X151455280Y-94178280D02*
X152273000Y-94996000D01*
%TO.N,/TD2_10*%
X113186600Y-94996000D02*
X113186600Y-94318947D01*
X110186553Y-94318947D02*
G75*
G03*
X109886600Y-94018947I-299953J47D01*
G01*
X113186600Y-95673053D02*
X113186600Y-94996000D01*
X112586600Y-94996000D02*
X112586600Y-95673053D01*
X111986600Y-94996000D02*
X111986600Y-94318947D01*
X113786600Y-94318947D02*
X113786600Y-94996000D01*
X111386600Y-94318947D02*
X111386600Y-94996000D01*
X114986647Y-95673053D02*
G75*
G03*
X115286600Y-95973053I299953J-47D01*
G01*
X110186600Y-94996000D02*
X110186600Y-95673053D01*
X116786600Y-95673053D02*
X116786600Y-94996000D01*
X109586600Y-95673065D02*
X109586600Y-95296000D01*
X113486600Y-94018900D02*
G75*
G03*
X113186600Y-94318947I0J-300000D01*
G01*
X106807000Y-94996000D02*
X108686600Y-94996000D01*
X120386600Y-95673050D02*
X120386600Y-94996000D01*
X120986553Y-94318947D02*
G75*
G03*
X120686600Y-94018947I-299953J47D01*
G01*
X119786550Y-95673050D02*
G75*
G03*
X120086600Y-95973050I300050J50D01*
G01*
X118886600Y-95973100D02*
G75*
G03*
X119186600Y-95673053I0J300000D01*
G01*
X120086600Y-95973000D02*
G75*
G03*
X120386600Y-95673050I0J300000D01*
G01*
X114986600Y-94996000D02*
X114986600Y-95673053D01*
X118586647Y-95673053D02*
G75*
G03*
X118886600Y-95973053I299953J-47D01*
G01*
X110786600Y-95673053D02*
X110786600Y-94996000D01*
X110786600Y-94996000D02*
X110786600Y-94318947D01*
X110186600Y-94318947D02*
X110186600Y-94996000D01*
X108986600Y-95296000D02*
X108986600Y-95673065D01*
X112586647Y-95673053D02*
G75*
G03*
X112886600Y-95973053I299953J-47D01*
G01*
X118586553Y-94318947D02*
G75*
G03*
X118286600Y-94018947I-299953J47D01*
G01*
X112586600Y-94318947D02*
X112586600Y-94996000D01*
X118286600Y-94018900D02*
G75*
G03*
X117986600Y-94318947I0J-300000D01*
G01*
X109586600Y-95296000D02*
X109586600Y-94318947D01*
X112286600Y-94018900D02*
G75*
G03*
X111986600Y-94318947I0J-300000D01*
G01*
X111086600Y-94018900D02*
G75*
G03*
X110786600Y-94318947I0J-300000D01*
G01*
X114686600Y-94018900D02*
G75*
G03*
X114386600Y-94318947I0J-300000D01*
G01*
X119786553Y-94318947D02*
G75*
G03*
X119486600Y-94018947I-299953J47D01*
G01*
X111386647Y-95673053D02*
G75*
G03*
X111686600Y-95973053I299953J-47D01*
G01*
X110186647Y-95673053D02*
G75*
G03*
X110486600Y-95973053I299953J-47D01*
G01*
X111986600Y-95673053D02*
X111986600Y-94996000D01*
X114386600Y-94996000D02*
X114386600Y-94318947D01*
X110486600Y-95973100D02*
G75*
G03*
X110786600Y-95673053I0J300000D01*
G01*
X113786553Y-94318947D02*
G75*
G03*
X113486600Y-94018947I-299953J47D01*
G01*
X115586600Y-95673053D02*
X115586600Y-94996000D01*
X111686600Y-95973100D02*
G75*
G03*
X111986600Y-95673053I0J300000D01*
G01*
X115886600Y-94018900D02*
G75*
G03*
X115586600Y-94318947I0J-300000D01*
G01*
X113786647Y-95673053D02*
G75*
G03*
X114086600Y-95973053I299953J-47D01*
G01*
X119486600Y-94018900D02*
G75*
G03*
X119186600Y-94318947I0J-300000D01*
G01*
X120686600Y-94018900D02*
G75*
G03*
X120386600Y-94318947I0J-300000D01*
G01*
X111386553Y-94318947D02*
G75*
G03*
X111086600Y-94018947I-299953J47D01*
G01*
X109886600Y-94018900D02*
G75*
G03*
X109586600Y-94318947I0J-300000D01*
G01*
X114086600Y-95973100D02*
G75*
G03*
X114386600Y-95673053I0J300000D01*
G01*
X109286600Y-95973100D02*
G75*
G03*
X109586600Y-95673065I0J300000D01*
G01*
X112586553Y-94318947D02*
G75*
G03*
X112286600Y-94018947I-299953J47D01*
G01*
X108986635Y-95673065D02*
G75*
G03*
X109286600Y-95973065I299965J-35D01*
G01*
X117086600Y-94018900D02*
G75*
G03*
X116786600Y-94318947I0J-300000D01*
G01*
X108986600Y-95296000D02*
G75*
G03*
X108686600Y-94996000I-300000J0D01*
G01*
X112886600Y-95973100D02*
G75*
G03*
X113186600Y-95673053I0J300000D01*
G01*
X111386600Y-94996000D02*
X111386600Y-95673053D01*
X114986553Y-94318947D02*
G75*
G03*
X114686600Y-94018947I-299953J47D01*
G01*
X116186600Y-94318947D02*
X116186600Y-94996000D01*
X117386647Y-95673053D02*
G75*
G03*
X117686600Y-95973053I299953J-47D01*
G01*
X121286600Y-94996000D02*
X125375922Y-94996000D01*
X116186647Y-95673053D02*
G75*
G03*
X116486600Y-95973053I299953J-47D01*
G01*
X120986600Y-94696000D02*
G75*
G03*
X121286600Y-94996000I300000J0D01*
G01*
X116186553Y-94318947D02*
G75*
G03*
X115886600Y-94018947I-299953J47D01*
G01*
X117386553Y-94318947D02*
G75*
G03*
X117086600Y-94018947I-299953J47D01*
G01*
X117686600Y-95973100D02*
G75*
G03*
X117986600Y-95673053I0J300000D01*
G01*
X115286600Y-95973100D02*
G75*
G03*
X115586600Y-95673053I0J300000D01*
G01*
X116486600Y-95973100D02*
G75*
G03*
X116786600Y-95673053I0J300000D01*
G01*
X113786600Y-94996000D02*
X113786600Y-95673053D01*
X114386600Y-95673053D02*
X114386600Y-94996000D01*
X114986600Y-94318947D02*
X114986600Y-94996000D01*
X115586600Y-94996000D02*
X115586600Y-94318947D01*
X119186600Y-94996000D02*
X119186600Y-94318947D01*
X116186600Y-94996000D02*
X116186600Y-95673053D01*
X116786600Y-94996000D02*
X116786600Y-94318947D01*
X117386600Y-94318947D02*
X117386600Y-94996000D01*
X117386600Y-94996000D02*
X117386600Y-95673053D01*
X117986600Y-95673053D02*
X117986600Y-94996000D01*
X117986600Y-94996000D02*
X117986600Y-94318947D01*
X120386600Y-94996000D02*
X120386600Y-94318947D01*
X118586600Y-94318947D02*
X118586600Y-94996000D01*
X120986600Y-94318947D02*
X120986600Y-94696000D01*
X118586600Y-94996000D02*
X118586600Y-95673053D01*
X119186600Y-95673053D02*
X119186600Y-94996000D01*
X119786600Y-94318947D02*
X119786600Y-94996000D01*
X119786600Y-94996000D02*
X119786600Y-95673050D01*
X125375922Y-94996000D02*
X149733000Y-94996000D01*
D14*
%TO.N,/TD2_11*%
X152514200Y-96308600D02*
X152230400Y-96308600D01*
X152230400Y-96308600D02*
X151311600Y-97227400D01*
X105308400Y-110385400D02*
X105308400Y-97078800D01*
X151311600Y-97227400D02*
X151311600Y-110988600D01*
X151311600Y-110988600D02*
X150611600Y-111688600D01*
X150611600Y-111688600D02*
X106611600Y-111688600D01*
X106611600Y-111688600D02*
X105308400Y-110385400D01*
X105308400Y-97078800D02*
X104538200Y-96308600D01*
X104538200Y-96308600D02*
X104258800Y-96308600D01*
%TO.N,/TD1_5*%
X103230000Y-56400800D02*
X103230000Y-54119400D01*
X148931400Y-52520800D02*
X151030000Y-54619400D01*
X103230000Y-54119400D02*
X104828600Y-52520800D01*
X104202600Y-57373400D02*
X103230000Y-56400800D01*
X104828600Y-52520800D02*
X148931400Y-52520800D01*
X151030000Y-56291400D02*
X149897200Y-57424200D01*
X151030000Y-54619400D02*
X151030000Y-56291400D01*
%TO.N,/TD1_9*%
X151430000Y-58431400D02*
X149897200Y-59964200D01*
X104662914Y-52120800D02*
X149097085Y-52120800D01*
X102830000Y-58540800D02*
X102830000Y-53953714D01*
X151430000Y-54453715D02*
X151430000Y-58431400D01*
X102830000Y-53953714D02*
X104662914Y-52120800D01*
X149097085Y-52120800D02*
X151430000Y-54453715D01*
X104202600Y-59913400D02*
X102830000Y-58540800D01*
%TO.N,/TD1_13*%
X106030000Y-53619400D02*
X146330000Y-53619400D01*
X105230000Y-54419400D02*
X106030000Y-53619400D01*
X146330000Y-53619400D02*
X147830000Y-55119400D01*
X104202600Y-62453400D02*
X105230000Y-61426000D01*
X147830000Y-60437000D02*
X149897200Y-62504200D01*
X105230000Y-61426000D02*
X105230000Y-54419400D01*
X147830000Y-55119400D02*
X147830000Y-60437000D01*
%TO.N,/TD1_17*%
X149255600Y-65044200D02*
X149897200Y-65044200D01*
X105630000Y-75619400D02*
X106030000Y-76019400D01*
X104202600Y-64993400D02*
X105630000Y-66420800D01*
X106030000Y-76019400D02*
X138280400Y-76019400D01*
X138280400Y-76019400D02*
X149255600Y-65044200D01*
X105630000Y-66420800D02*
X105630000Y-75619400D01*
%TO.N,/TD1_21*%
X105130000Y-68460800D02*
X105130000Y-75919400D01*
X105130000Y-75919400D02*
X105630000Y-76419400D01*
X139630000Y-76419400D02*
X148465200Y-67584200D01*
X105630000Y-76419400D02*
X139630000Y-76419400D01*
X104202600Y-67533400D02*
X105130000Y-68460800D01*
X148465200Y-67584200D02*
X149897200Y-67584200D01*
%TO.N,/TD1_25*%
X151333200Y-71560200D02*
X149897200Y-70124200D01*
X104730000Y-77719400D02*
X149530000Y-77719400D01*
X149530000Y-77719400D02*
X151333200Y-75916200D01*
X102730000Y-75719400D02*
X104730000Y-77719400D01*
X151333200Y-75916200D02*
X151333200Y-71560200D01*
X104202600Y-70073400D02*
X102730000Y-71546000D01*
X102730000Y-71546000D02*
X102730000Y-75719400D01*
%TO.N,/TD1_29*%
X105030000Y-77319400D02*
X149230000Y-77319400D01*
X149230000Y-77319400D02*
X150930000Y-75619400D01*
X104202600Y-72613400D02*
X103230000Y-73586000D01*
X103230000Y-73586000D02*
X103230000Y-75519400D01*
X150930000Y-75619400D02*
X150930000Y-73697000D01*
X150930000Y-73697000D02*
X149897200Y-72664200D01*
X103230000Y-75519400D02*
X105030000Y-77319400D01*
%TO.N,/TD1_33*%
X105230000Y-76819400D02*
X148282000Y-76819400D01*
X104202600Y-75153400D02*
X104202600Y-75792000D01*
X148282000Y-76819400D02*
X149897200Y-75204200D01*
X104202600Y-75792000D02*
X105230000Y-76819400D01*
%TO.N,/TD2_1*%
X105359200Y-88620600D02*
X148683800Y-88620600D01*
X148683800Y-88620600D02*
X149982720Y-89919520D01*
X149982720Y-89919520D02*
X149853283Y-90048957D01*
X104267320Y-89712480D02*
X105359200Y-88620600D01*
X104267320Y-89919520D02*
X104267320Y-89712480D01*
%TO.N,/TD2_5*%
X104554764Y-87888964D02*
X149769724Y-87888964D01*
X104277480Y-92459520D02*
X103330280Y-91512320D01*
X104554764Y-87901036D02*
X104554764Y-87888964D01*
X103330280Y-89125520D02*
X104554764Y-87901036D01*
X149769724Y-87888964D02*
X151030280Y-89149520D01*
X151030280Y-89149520D02*
X151030280Y-91422120D01*
X103330280Y-91512320D02*
X103330280Y-89125520D01*
X151030280Y-91422120D02*
X149992880Y-92459520D01*
%TO.N,/TD1_1+*%
X104192440Y-54833400D02*
X104192440Y-54056960D01*
X104192440Y-54056960D02*
X105239600Y-53009800D01*
X148012640Y-53009800D02*
X149887040Y-54884200D01*
X105239600Y-53009800D02*
X148012640Y-53009800D01*
%TD*%
M02*
