M48
; DRILL file {KiCad (6.0.9)} date Sun 22 Jan 2023 08:13:31 PM EST
; FORMAT={-:-/ absolute / metric / decimal}
; #@! TF.CreationDate,2023-01-22T20:13:31-05:00
; #@! TF.GenerationSoftware,Kicad,Pcbnew,(6.0.9)
; #@! TF.FileFunction,Plated,1,2,PTH
FMAT,2
METRIC
; #@! TA.AperFunction,Plated,PTH,ComponentDrill
T1C0.560
%
G90
G05
T1
X93.944Y-79.858
X93.955Y-81.128
X93.955Y-82.398
X93.955Y-83.668
X93.955Y-84.938
X93.955Y-86.208
X93.955Y-87.478
X93.955Y-88.748
X93.955Y-90.018
X93.955Y-91.288
X93.955Y-92.558
X93.955Y-93.828
X93.955Y-95.098
X93.955Y-96.368
X93.955Y-97.638
X93.955Y-98.908
X93.955Y-100.178
X93.97Y-50.902
X93.98Y-52.172
X93.98Y-53.442
X93.98Y-54.712
X93.98Y-55.982
X93.98Y-57.252
X93.98Y-58.522
X93.98Y-59.792
X93.98Y-61.062
X93.98Y-62.332
X93.98Y-63.602
X93.98Y-64.872
X93.98Y-66.142
X93.98Y-67.412
X93.98Y-68.682
X93.98Y-69.952
X93.98Y-71.222
X96.495Y-81.128
X96.495Y-82.398
X96.495Y-83.668
X96.495Y-84.938
X96.495Y-86.208
X96.495Y-87.478
X96.495Y-88.748
X96.495Y-90.018
X96.495Y-91.288
X96.495Y-92.558
X96.495Y-93.828
X96.495Y-95.098
X96.495Y-96.368
X96.495Y-97.638
X96.495Y-98.908
X96.495Y-100.178
X96.505Y-79.858
X96.52Y-52.172
X96.52Y-53.442
X96.52Y-54.712
X96.52Y-55.982
X96.52Y-57.252
X96.52Y-58.522
X96.52Y-59.792
X96.52Y-61.062
X96.52Y-62.332
X96.52Y-63.602
X96.52Y-64.872
X96.52Y-66.142
X96.52Y-67.412
X96.52Y-68.682
X96.52Y-69.952
X96.52Y-71.222
X96.53Y-50.902
X139.66Y-79.858
X139.664Y-50.952
X139.67Y-81.128
X139.67Y-82.398
X139.67Y-83.668
X139.67Y-84.938
X139.67Y-86.208
X139.67Y-87.478
X139.67Y-88.748
X139.67Y-90.018
X139.67Y-91.288
X139.67Y-92.558
X139.67Y-93.828
X139.67Y-95.098
X139.67Y-96.368
X139.67Y-97.638
X139.67Y-98.908
X139.67Y-100.178
X139.675Y-52.222
X139.675Y-53.492
X139.675Y-54.762
X139.675Y-56.032
X139.675Y-57.302
X139.675Y-58.572
X139.675Y-59.842
X139.675Y-61.112
X139.675Y-62.382
X139.675Y-63.652
X139.675Y-64.922
X139.675Y-66.192
X139.675Y-67.462
X139.675Y-68.732
X139.675Y-70.002
X139.675Y-71.272
X142.21Y-81.128
X142.21Y-82.398
X142.21Y-83.668
X142.21Y-84.938
X142.21Y-86.208
X142.21Y-87.478
X142.21Y-88.748
X142.21Y-90.018
X142.21Y-91.288
X142.21Y-92.558
X142.21Y-93.828
X142.21Y-95.098
X142.21Y-96.368
X142.21Y-97.638
X142.21Y-98.908
X142.21Y-100.178
X142.215Y-52.222
X142.215Y-53.492
X142.215Y-54.762
X142.215Y-56.032
X142.215Y-57.302
X142.215Y-58.572
X142.215Y-59.842
X142.215Y-61.112
X142.215Y-62.382
X142.215Y-63.652
X142.215Y-64.922
X142.215Y-66.192
X142.215Y-67.462
X142.215Y-68.732
X142.215Y-70.002
X142.215Y-71.272
X142.22Y-79.858
X142.225Y-50.952
T0
M30
