%TF.GenerationSoftware,KiCad,Pcbnew,(6.0.9)*%
%TF.CreationDate,2023-01-22T20:54:45-05:00*%
%TF.ProjectId,Temps_North_DCT_HSK,54656d70-735f-44e6-9f72-74685f444354,rev?*%
%TF.SameCoordinates,Original*%
%TF.FileFunction,Legend,Top*%
%TF.FilePolarity,Positive*%
%FSLAX46Y46*%
G04 Gerber Fmt 4.6, Leading zero omitted, Abs format (unit mm)*
G04 Created by KiCad (PCBNEW (6.0.9)) date 2023-01-22 20:54:45*
%MOMM*%
%LPD*%
G01*
G04 APERTURE LIST*
%ADD10C,0.254000*%
%ADD11C,0.400000*%
%ADD12C,0.150000*%
%ADD13C,0.200000*%
%ADD14C,0.127000*%
G04 APERTURE END LIST*
D10*
X138392956Y-50900000D02*
G75*
G03*
X138392956Y-50900000I-102956J0D01*
G01*
X92670001Y-50830000D02*
G75*
G03*
X92670001Y-50830000I-1J0D01*
G01*
X92680001Y-80020000D02*
G75*
G03*
X92680001Y-80020000I-1J0D01*
G01*
X138312956Y-79920000D02*
G75*
G03*
X138312956Y-79920000I-102956J0D01*
G01*
D11*
X131663352Y-86514980D02*
X131663352Y-85086409D01*
X134163352Y-85800695D02*
X131663352Y-85800695D01*
X134163352Y-83895933D02*
X134044304Y-84134028D01*
X133925257Y-84253076D01*
X133687161Y-84372123D01*
X132972876Y-84372123D01*
X132734780Y-84253076D01*
X132615733Y-84134028D01*
X132496685Y-83895933D01*
X132496685Y-83538790D01*
X132615733Y-83300695D01*
X132734780Y-83181647D01*
X132972876Y-83062600D01*
X133687161Y-83062600D01*
X133925257Y-83181647D01*
X134044304Y-83300695D01*
X134163352Y-83538790D01*
X134163352Y-83895933D01*
X134163352Y-80086409D02*
X131663352Y-80086409D01*
X131663352Y-79491171D01*
X131782400Y-79134028D01*
X132020495Y-78895933D01*
X132258590Y-78776885D01*
X132734780Y-78657838D01*
X133091923Y-78657838D01*
X133568114Y-78776885D01*
X133806209Y-78895933D01*
X134044304Y-79134028D01*
X134163352Y-79491171D01*
X134163352Y-80086409D01*
X133925257Y-76157838D02*
X134044304Y-76276885D01*
X134163352Y-76634028D01*
X134163352Y-76872123D01*
X134044304Y-77229266D01*
X133806209Y-77467361D01*
X133568114Y-77586409D01*
X133091923Y-77705457D01*
X132734780Y-77705457D01*
X132258590Y-77586409D01*
X132020495Y-77467361D01*
X131782400Y-77229266D01*
X131663352Y-76872123D01*
X131663352Y-76634028D01*
X131782400Y-76276885D01*
X131901447Y-76157838D01*
X131663352Y-75443552D02*
X131663352Y-74014980D01*
X134163352Y-74729266D02*
X131663352Y-74729266D01*
X134163352Y-71276885D02*
X131663352Y-71276885D01*
X132853828Y-71276885D02*
X132853828Y-69848314D01*
X134163352Y-69848314D02*
X131663352Y-69848314D01*
X134044304Y-68776885D02*
X134163352Y-68419742D01*
X134163352Y-67824504D01*
X134044304Y-67586409D01*
X133925257Y-67467361D01*
X133687161Y-67348314D01*
X133449066Y-67348314D01*
X133210971Y-67467361D01*
X133091923Y-67586409D01*
X132972876Y-67824504D01*
X132853828Y-68300695D01*
X132734780Y-68538790D01*
X132615733Y-68657838D01*
X132377638Y-68776885D01*
X132139542Y-68776885D01*
X131901447Y-68657838D01*
X131782400Y-68538790D01*
X131663352Y-68300695D01*
X131663352Y-67705457D01*
X131782400Y-67348314D01*
X134163352Y-66276885D02*
X131663352Y-66276885D01*
X134163352Y-64848314D02*
X132734780Y-65919742D01*
X131663352Y-64848314D02*
X133091923Y-66276885D01*
D12*
X120993685Y-100118494D02*
X121429114Y-100118494D01*
X121211400Y-100880494D02*
X121211400Y-100118494D01*
X121973400Y-100844208D02*
X121900828Y-100880494D01*
X121755685Y-100880494D01*
X121683114Y-100844208D01*
X121646828Y-100771637D01*
X121646828Y-100481351D01*
X121683114Y-100408780D01*
X121755685Y-100372494D01*
X121900828Y-100372494D01*
X121973400Y-100408780D01*
X122009685Y-100481351D01*
X122009685Y-100553922D01*
X121646828Y-100626494D01*
X122336257Y-100880494D02*
X122336257Y-100372494D01*
X122336257Y-100445065D02*
X122372542Y-100408780D01*
X122445114Y-100372494D01*
X122553971Y-100372494D01*
X122626542Y-100408780D01*
X122662828Y-100481351D01*
X122662828Y-100880494D01*
X122662828Y-100481351D02*
X122699114Y-100408780D01*
X122771685Y-100372494D01*
X122880542Y-100372494D01*
X122953114Y-100408780D01*
X122989400Y-100481351D01*
X122989400Y-100880494D01*
X123352257Y-100372494D02*
X123352257Y-101134494D01*
X123352257Y-100408780D02*
X123424828Y-100372494D01*
X123569971Y-100372494D01*
X123642542Y-100408780D01*
X123678828Y-100445065D01*
X123715114Y-100517637D01*
X123715114Y-100735351D01*
X123678828Y-100807922D01*
X123642542Y-100844208D01*
X123569971Y-100880494D01*
X123424828Y-100880494D01*
X123352257Y-100844208D01*
X124005400Y-100844208D02*
X124077971Y-100880494D01*
X124223114Y-100880494D01*
X124295685Y-100844208D01*
X124331971Y-100771637D01*
X124331971Y-100735351D01*
X124295685Y-100662780D01*
X124223114Y-100626494D01*
X124114257Y-100626494D01*
X124041685Y-100590208D01*
X124005400Y-100517637D01*
X124005400Y-100481351D01*
X124041685Y-100408780D01*
X124114257Y-100372494D01*
X124223114Y-100372494D01*
X124295685Y-100408780D01*
X124477114Y-100953065D02*
X125057685Y-100953065D01*
X125239114Y-100880494D02*
X125239114Y-100118494D01*
X125674542Y-100880494D01*
X125674542Y-100118494D01*
X126146257Y-100880494D02*
X126073685Y-100844208D01*
X126037400Y-100807922D01*
X126001114Y-100735351D01*
X126001114Y-100517637D01*
X126037400Y-100445065D01*
X126073685Y-100408780D01*
X126146257Y-100372494D01*
X126255114Y-100372494D01*
X126327685Y-100408780D01*
X126363971Y-100445065D01*
X126400257Y-100517637D01*
X126400257Y-100735351D01*
X126363971Y-100807922D01*
X126327685Y-100844208D01*
X126255114Y-100880494D01*
X126146257Y-100880494D01*
X126726828Y-100880494D02*
X126726828Y-100372494D01*
X126726828Y-100517637D02*
X126763114Y-100445065D01*
X126799400Y-100408780D01*
X126871971Y-100372494D01*
X126944542Y-100372494D01*
X127089685Y-100372494D02*
X127379971Y-100372494D01*
X127198542Y-100118494D02*
X127198542Y-100771637D01*
X127234828Y-100844208D01*
X127307400Y-100880494D01*
X127379971Y-100880494D01*
X127633971Y-100880494D02*
X127633971Y-100118494D01*
X127960542Y-100880494D02*
X127960542Y-100481351D01*
X127924257Y-100408780D01*
X127851685Y-100372494D01*
X127742828Y-100372494D01*
X127670257Y-100408780D01*
X127633971Y-100445065D01*
X128141971Y-100953065D02*
X128722542Y-100953065D01*
X128903971Y-100880494D02*
X128903971Y-100118494D01*
X129085400Y-100118494D01*
X129194257Y-100154780D01*
X129266828Y-100227351D01*
X129303114Y-100299922D01*
X129339400Y-100445065D01*
X129339400Y-100553922D01*
X129303114Y-100699065D01*
X129266828Y-100771637D01*
X129194257Y-100844208D01*
X129085400Y-100880494D01*
X128903971Y-100880494D01*
X130101400Y-100807922D02*
X130065114Y-100844208D01*
X129956257Y-100880494D01*
X129883685Y-100880494D01*
X129774828Y-100844208D01*
X129702257Y-100771637D01*
X129665971Y-100699065D01*
X129629685Y-100553922D01*
X129629685Y-100445065D01*
X129665971Y-100299922D01*
X129702257Y-100227351D01*
X129774828Y-100154780D01*
X129883685Y-100118494D01*
X129956257Y-100118494D01*
X130065114Y-100154780D01*
X130101400Y-100191065D01*
X130319114Y-100118494D02*
X130754542Y-100118494D01*
X130536828Y-100880494D02*
X130536828Y-100118494D01*
X130827114Y-100953065D02*
X131407685Y-100953065D01*
X131589114Y-100880494D02*
X131589114Y-100118494D01*
X131589114Y-100481351D02*
X132024542Y-100481351D01*
X132024542Y-100880494D02*
X132024542Y-100118494D01*
X132351114Y-100844208D02*
X132459971Y-100880494D01*
X132641400Y-100880494D01*
X132713971Y-100844208D01*
X132750257Y-100807922D01*
X132786542Y-100735351D01*
X132786542Y-100662780D01*
X132750257Y-100590208D01*
X132713971Y-100553922D01*
X132641400Y-100517637D01*
X132496257Y-100481351D01*
X132423685Y-100445065D01*
X132387400Y-100408780D01*
X132351114Y-100336208D01*
X132351114Y-100263637D01*
X132387400Y-100191065D01*
X132423685Y-100154780D01*
X132496257Y-100118494D01*
X132677685Y-100118494D01*
X132786542Y-100154780D01*
X133113114Y-100880494D02*
X133113114Y-100118494D01*
X133548542Y-100880494D02*
X133221971Y-100445065D01*
X133548542Y-100118494D02*
X133113114Y-100553922D01*
X121918971Y-102107314D02*
X121918971Y-101345314D01*
X122100400Y-101345314D01*
X122209257Y-101381600D01*
X122281828Y-101454171D01*
X122318114Y-101526742D01*
X122354400Y-101671885D01*
X122354400Y-101780742D01*
X122318114Y-101925885D01*
X122281828Y-101998457D01*
X122209257Y-102071028D01*
X122100400Y-102107314D01*
X121918971Y-102107314D01*
X122971257Y-102071028D02*
X122898685Y-102107314D01*
X122753542Y-102107314D01*
X122680971Y-102071028D01*
X122644685Y-101998457D01*
X122644685Y-101708171D01*
X122680971Y-101635600D01*
X122753542Y-101599314D01*
X122898685Y-101599314D01*
X122971257Y-101635600D01*
X123007542Y-101708171D01*
X123007542Y-101780742D01*
X122644685Y-101853314D01*
X123334114Y-101599314D02*
X123334114Y-102107314D01*
X123334114Y-101671885D02*
X123370400Y-101635600D01*
X123442971Y-101599314D01*
X123551828Y-101599314D01*
X123624400Y-101635600D01*
X123660685Y-101708171D01*
X123660685Y-102107314D01*
X124023542Y-101599314D02*
X124023542Y-102107314D01*
X124023542Y-101671885D02*
X124059828Y-101635600D01*
X124132400Y-101599314D01*
X124241257Y-101599314D01*
X124313828Y-101635600D01*
X124350114Y-101708171D01*
X124350114Y-102107314D01*
X124712971Y-102107314D02*
X124712971Y-101599314D01*
X124712971Y-101345314D02*
X124676685Y-101381600D01*
X124712971Y-101417885D01*
X124749257Y-101381600D01*
X124712971Y-101345314D01*
X124712971Y-101417885D01*
X125039542Y-102071028D02*
X125112114Y-102107314D01*
X125257257Y-102107314D01*
X125329828Y-102071028D01*
X125366114Y-101998457D01*
X125366114Y-101962171D01*
X125329828Y-101889600D01*
X125257257Y-101853314D01*
X125148400Y-101853314D01*
X125075828Y-101817028D01*
X125039542Y-101744457D01*
X125039542Y-101708171D01*
X125075828Y-101635600D01*
X125148400Y-101599314D01*
X125257257Y-101599314D01*
X125329828Y-101635600D01*
X126273257Y-102107314D02*
X126273257Y-101345314D01*
X126273257Y-101708171D02*
X126708685Y-101708171D01*
X126708685Y-102107314D02*
X126708685Y-101345314D01*
X127071542Y-102034742D02*
X127107828Y-102071028D01*
X127071542Y-102107314D01*
X127035257Y-102071028D01*
X127071542Y-102034742D01*
X127071542Y-102107314D01*
X128450400Y-102034742D02*
X128414114Y-102071028D01*
X128305257Y-102107314D01*
X128232685Y-102107314D01*
X128123828Y-102071028D01*
X128051257Y-101998457D01*
X128014971Y-101925885D01*
X127978685Y-101780742D01*
X127978685Y-101671885D01*
X128014971Y-101526742D01*
X128051257Y-101454171D01*
X128123828Y-101381600D01*
X128232685Y-101345314D01*
X128305257Y-101345314D01*
X128414114Y-101381600D01*
X128450400Y-101417885D01*
X129103542Y-102107314D02*
X129103542Y-101708171D01*
X129067257Y-101635600D01*
X128994685Y-101599314D01*
X128849542Y-101599314D01*
X128776971Y-101635600D01*
X129103542Y-102071028D02*
X129030971Y-102107314D01*
X128849542Y-102107314D01*
X128776971Y-102071028D01*
X128740685Y-101998457D01*
X128740685Y-101925885D01*
X128776971Y-101853314D01*
X128849542Y-101817028D01*
X129030971Y-101817028D01*
X129103542Y-101780742D01*
X129575257Y-102107314D02*
X129502685Y-102071028D01*
X129466400Y-101998457D01*
X129466400Y-101345314D01*
X130192114Y-102107314D02*
X130192114Y-101345314D01*
X130192114Y-102071028D02*
X130119542Y-102107314D01*
X129974400Y-102107314D01*
X129901828Y-102071028D01*
X129865542Y-102034742D01*
X129829257Y-101962171D01*
X129829257Y-101744457D01*
X129865542Y-101671885D01*
X129901828Y-101635600D01*
X129974400Y-101599314D01*
X130119542Y-101599314D01*
X130192114Y-101635600D01*
X130845257Y-102071028D02*
X130772685Y-102107314D01*
X130627542Y-102107314D01*
X130554971Y-102071028D01*
X130518685Y-101998457D01*
X130518685Y-101708171D01*
X130554971Y-101635600D01*
X130627542Y-101599314D01*
X130772685Y-101599314D01*
X130845257Y-101635600D01*
X130881542Y-101708171D01*
X130881542Y-101780742D01*
X130518685Y-101853314D01*
X131208114Y-102107314D02*
X131208114Y-101599314D01*
X131208114Y-101744457D02*
X131244400Y-101671885D01*
X131280685Y-101635600D01*
X131353257Y-101599314D01*
X131425828Y-101599314D01*
X131788685Y-102107314D02*
X131716114Y-102071028D01*
X131679828Y-102034742D01*
X131643542Y-101962171D01*
X131643542Y-101744457D01*
X131679828Y-101671885D01*
X131716114Y-101635600D01*
X131788685Y-101599314D01*
X131897542Y-101599314D01*
X131970114Y-101635600D01*
X132006400Y-101671885D01*
X132042685Y-101744457D01*
X132042685Y-101962171D01*
X132006400Y-102034742D01*
X131970114Y-102071028D01*
X131897542Y-102107314D01*
X131788685Y-102107314D01*
X132369257Y-101599314D02*
X132369257Y-102107314D01*
X132369257Y-101671885D02*
X132405542Y-101635600D01*
X132478114Y-101599314D01*
X132586971Y-101599314D01*
X132659542Y-101635600D01*
X132695828Y-101708171D01*
X132695828Y-102107314D01*
X124186828Y-103334134D02*
X123751400Y-103334134D01*
X123969114Y-103334134D02*
X123969114Y-102572134D01*
X123896542Y-102680991D01*
X123823971Y-102753562D01*
X123751400Y-102789848D01*
X124658542Y-102572134D02*
X124731114Y-102572134D01*
X124803685Y-102608420D01*
X124839971Y-102644705D01*
X124876257Y-102717277D01*
X124912542Y-102862420D01*
X124912542Y-103043848D01*
X124876257Y-103188991D01*
X124839971Y-103261562D01*
X124803685Y-103297848D01*
X124731114Y-103334134D01*
X124658542Y-103334134D01*
X124585971Y-103297848D01*
X124549685Y-103261562D01*
X124513400Y-103188991D01*
X124477114Y-103043848D01*
X124477114Y-102862420D01*
X124513400Y-102717277D01*
X124549685Y-102644705D01*
X124585971Y-102608420D01*
X124658542Y-102572134D01*
X125783400Y-102535848D02*
X125130257Y-103515562D01*
X126001114Y-102644705D02*
X126037400Y-102608420D01*
X126109971Y-102572134D01*
X126291400Y-102572134D01*
X126363971Y-102608420D01*
X126400257Y-102644705D01*
X126436542Y-102717277D01*
X126436542Y-102789848D01*
X126400257Y-102898705D01*
X125964828Y-103334134D01*
X126436542Y-103334134D01*
X127162257Y-103334134D02*
X126726828Y-103334134D01*
X126944542Y-103334134D02*
X126944542Y-102572134D01*
X126871971Y-102680991D01*
X126799400Y-102753562D01*
X126726828Y-102789848D01*
X128033114Y-102535848D02*
X127379971Y-103515562D01*
X128250828Y-102644705D02*
X128287114Y-102608420D01*
X128359685Y-102572134D01*
X128541114Y-102572134D01*
X128613685Y-102608420D01*
X128649971Y-102644705D01*
X128686257Y-102717277D01*
X128686257Y-102789848D01*
X128649971Y-102898705D01*
X128214542Y-103334134D01*
X128686257Y-103334134D01*
X129157971Y-102572134D02*
X129230542Y-102572134D01*
X129303114Y-102608420D01*
X129339400Y-102644705D01*
X129375685Y-102717277D01*
X129411971Y-102862420D01*
X129411971Y-103043848D01*
X129375685Y-103188991D01*
X129339400Y-103261562D01*
X129303114Y-103297848D01*
X129230542Y-103334134D01*
X129157971Y-103334134D01*
X129085400Y-103297848D01*
X129049114Y-103261562D01*
X129012828Y-103188991D01*
X128976542Y-103043848D01*
X128976542Y-102862420D01*
X129012828Y-102717277D01*
X129049114Y-102644705D01*
X129085400Y-102608420D01*
X129157971Y-102572134D01*
X129702257Y-102644705D02*
X129738542Y-102608420D01*
X129811114Y-102572134D01*
X129992542Y-102572134D01*
X130065114Y-102608420D01*
X130101400Y-102644705D01*
X130137685Y-102717277D01*
X130137685Y-102789848D01*
X130101400Y-102898705D01*
X129665971Y-103334134D01*
X130137685Y-103334134D01*
X130427971Y-102644705D02*
X130464257Y-102608420D01*
X130536828Y-102572134D01*
X130718257Y-102572134D01*
X130790828Y-102608420D01*
X130827114Y-102644705D01*
X130863400Y-102717277D01*
X130863400Y-102789848D01*
X130827114Y-102898705D01*
X130391685Y-103334134D01*
X130863400Y-103334134D01*
D13*
X100634780Y-91660458D02*
X99634780Y-91660458D01*
X100634780Y-91089029D01*
X99634780Y-91089029D01*
X99634780Y-90755696D02*
X99634780Y-90184267D01*
X100634780Y-90469981D02*
X99634780Y-90469981D01*
X100110971Y-89517601D02*
X100158590Y-89374743D01*
X100206209Y-89327124D01*
X100301447Y-89279505D01*
X100444304Y-89279505D01*
X100539542Y-89327124D01*
X100587161Y-89374743D01*
X100634780Y-89469981D01*
X100634780Y-89850934D01*
X99634780Y-89850934D01*
X99634780Y-89517601D01*
X99682400Y-89422362D01*
X99730019Y-89374743D01*
X99825257Y-89327124D01*
X99920495Y-89327124D01*
X100015733Y-89374743D01*
X100063352Y-89422362D01*
X100110971Y-89517601D01*
X100110971Y-89850934D01*
X99730019Y-88898553D02*
X99682400Y-88850934D01*
X99634780Y-88755696D01*
X99634780Y-88517601D01*
X99682400Y-88422362D01*
X99730019Y-88374743D01*
X99825257Y-88327124D01*
X99920495Y-88327124D01*
X100063352Y-88374743D01*
X100634780Y-88946172D01*
X100634780Y-88327124D01*
X136759780Y-91630457D02*
X135759780Y-91630457D01*
X136759780Y-91059028D01*
X135759780Y-91059028D01*
X135759780Y-90725695D02*
X135759780Y-90154266D01*
X136759780Y-90439980D02*
X135759780Y-90439980D01*
X136235971Y-89487600D02*
X136283590Y-89344742D01*
X136331209Y-89297123D01*
X136426447Y-89249504D01*
X136569304Y-89249504D01*
X136664542Y-89297123D01*
X136712161Y-89344742D01*
X136759780Y-89439980D01*
X136759780Y-89820933D01*
X135759780Y-89820933D01*
X135759780Y-89487600D01*
X135807400Y-89392361D01*
X135855019Y-89344742D01*
X135950257Y-89297123D01*
X136045495Y-89297123D01*
X136140733Y-89344742D01*
X136188352Y-89392361D01*
X136235971Y-89487600D01*
X136235971Y-89820933D01*
X135855019Y-88868552D02*
X135807400Y-88820933D01*
X135759780Y-88725695D01*
X135759780Y-88487600D01*
X135807400Y-88392361D01*
X135855019Y-88344742D01*
X135950257Y-88297123D01*
X136045495Y-88297123D01*
X136188352Y-88344742D01*
X136759780Y-88916171D01*
X136759780Y-88297123D01*
D11*
X102678828Y-83381647D02*
X102678828Y-84214980D01*
X103988352Y-84214980D02*
X101488352Y-84214980D01*
X101488352Y-83024504D01*
X103988352Y-82072123D02*
X102321685Y-82072123D01*
X102797876Y-82072123D02*
X102559780Y-81953076D01*
X102440733Y-81834028D01*
X102321685Y-81595933D01*
X102321685Y-81357838D01*
X103988352Y-80167361D02*
X103869304Y-80405457D01*
X103750257Y-80524504D01*
X103512161Y-80643552D01*
X102797876Y-80643552D01*
X102559780Y-80524504D01*
X102440733Y-80405457D01*
X102321685Y-80167361D01*
X102321685Y-79810219D01*
X102440733Y-79572123D01*
X102559780Y-79453076D01*
X102797876Y-79334028D01*
X103512161Y-79334028D01*
X103750257Y-79453076D01*
X103869304Y-79572123D01*
X103988352Y-79810219D01*
X103988352Y-80167361D01*
X103988352Y-78262600D02*
X102321685Y-78262600D01*
X102559780Y-78262600D02*
X102440733Y-78143552D01*
X102321685Y-77905457D01*
X102321685Y-77548314D01*
X102440733Y-77310219D01*
X102678828Y-77191171D01*
X103988352Y-77191171D01*
X102678828Y-77191171D02*
X102440733Y-77072123D01*
X102321685Y-76834028D01*
X102321685Y-76476885D01*
X102440733Y-76238790D01*
X102678828Y-76119742D01*
X103988352Y-76119742D01*
X103988352Y-73024504D02*
X101488352Y-73024504D01*
X101488352Y-72429266D01*
X101607400Y-72072123D01*
X101845495Y-71834028D01*
X102083590Y-71714980D01*
X102559780Y-71595933D01*
X102916923Y-71595933D01*
X103393114Y-71714980D01*
X103631209Y-71834028D01*
X103869304Y-72072123D01*
X103988352Y-72429266D01*
X103988352Y-73024504D01*
X103750257Y-69095933D02*
X103869304Y-69214980D01*
X103988352Y-69572123D01*
X103988352Y-69810219D01*
X103869304Y-70167361D01*
X103631209Y-70405457D01*
X103393114Y-70524504D01*
X102916923Y-70643552D01*
X102559780Y-70643552D01*
X102083590Y-70524504D01*
X101845495Y-70405457D01*
X101607400Y-70167361D01*
X101488352Y-69810219D01*
X101488352Y-69572123D01*
X101607400Y-69214980D01*
X101726447Y-69095933D01*
X101488352Y-68381647D02*
X101488352Y-66953076D01*
X103988352Y-67667361D02*
X101488352Y-67667361D01*
D13*
X136759780Y-62755258D02*
X135759780Y-62755258D01*
X136759780Y-62183829D01*
X135759780Y-62183829D01*
X135759780Y-61850496D02*
X135759780Y-61279067D01*
X136759780Y-61564781D02*
X135759780Y-61564781D01*
X136235971Y-60612401D02*
X136283590Y-60469543D01*
X136331209Y-60421924D01*
X136426447Y-60374305D01*
X136569304Y-60374305D01*
X136664542Y-60421924D01*
X136712161Y-60469543D01*
X136759780Y-60564781D01*
X136759780Y-60945734D01*
X135759780Y-60945734D01*
X135759780Y-60612401D01*
X135807400Y-60517162D01*
X135855019Y-60469543D01*
X135950257Y-60421924D01*
X136045495Y-60421924D01*
X136140733Y-60469543D01*
X136188352Y-60517162D01*
X136235971Y-60612401D01*
X136235971Y-60945734D01*
X136759780Y-59421924D02*
X136759780Y-59993353D01*
X136759780Y-59707639D02*
X135759780Y-59707639D01*
X135902638Y-59802877D01*
X135997876Y-59898115D01*
X136045495Y-59993353D01*
X100634780Y-62704458D02*
X99634780Y-62704458D01*
X100634780Y-62133029D01*
X99634780Y-62133029D01*
X99634780Y-61799696D02*
X99634780Y-61228267D01*
X100634780Y-61513981D02*
X99634780Y-61513981D01*
X100110971Y-60561601D02*
X100158590Y-60418743D01*
X100206209Y-60371124D01*
X100301447Y-60323505D01*
X100444304Y-60323505D01*
X100539542Y-60371124D01*
X100587161Y-60418743D01*
X100634780Y-60513981D01*
X100634780Y-60894934D01*
X99634780Y-60894934D01*
X99634780Y-60561601D01*
X99682400Y-60466362D01*
X99730019Y-60418743D01*
X99825257Y-60371124D01*
X99920495Y-60371124D01*
X100015733Y-60418743D01*
X100063352Y-60466362D01*
X100110971Y-60561601D01*
X100110971Y-60894934D01*
X100634780Y-59371124D02*
X100634780Y-59942553D01*
X100634780Y-59656839D02*
X99634780Y-59656839D01*
X99777638Y-59752077D01*
X99872876Y-59847315D01*
X99920495Y-59942553D01*
D12*
%TO.C,J2*%
X99147380Y-103406533D02*
X99861666Y-103406533D01*
X100004523Y-103454152D01*
X100099761Y-103549390D01*
X100147380Y-103692247D01*
X100147380Y-103787485D01*
X99242619Y-102977961D02*
X99195000Y-102930342D01*
X99147380Y-102835104D01*
X99147380Y-102597009D01*
X99195000Y-102501771D01*
X99242619Y-102454152D01*
X99337857Y-102406533D01*
X99433095Y-102406533D01*
X99575952Y-102454152D01*
X100147380Y-103025580D01*
X100147380Y-102406533D01*
%TO.C,J3*%
X135748780Y-48644133D02*
X136463066Y-48644133D01*
X136605923Y-48691752D01*
X136701161Y-48786990D01*
X136748780Y-48929847D01*
X136748780Y-49025085D01*
X135748780Y-48263180D02*
X135748780Y-47644133D01*
X136129733Y-47977466D01*
X136129733Y-47834609D01*
X136177352Y-47739371D01*
X136224971Y-47691752D01*
X136320209Y-47644133D01*
X136558304Y-47644133D01*
X136653542Y-47691752D01*
X136701161Y-47739371D01*
X136748780Y-47834609D01*
X136748780Y-48120323D01*
X136701161Y-48215561D01*
X136653542Y-48263180D01*
%TO.C,J4*%
X135494780Y-77574733D02*
X136209066Y-77574733D01*
X136351923Y-77622352D01*
X136447161Y-77717590D01*
X136494780Y-77860447D01*
X136494780Y-77955685D01*
X135828114Y-76669971D02*
X136494780Y-76669971D01*
X135447161Y-76908066D02*
X136161447Y-77146161D01*
X136161447Y-76527114D01*
%TO.C,J1*%
X99172780Y-74450533D02*
X99887066Y-74450533D01*
X100029923Y-74498152D01*
X100125161Y-74593390D01*
X100172780Y-74736247D01*
X100172780Y-74831485D01*
X100172780Y-73450533D02*
X100172780Y-74021961D01*
X100172780Y-73736247D02*
X99172780Y-73736247D01*
X99315638Y-73831485D01*
X99410876Y-73926723D01*
X99458495Y-74021961D01*
D14*
%TO.C,J2*%
X98831600Y-103911600D02*
X91617600Y-103911600D01*
X98831600Y-76123600D02*
X98831600Y-103911600D01*
X91617600Y-76123600D02*
X98831600Y-76123600D01*
X91617600Y-103911600D02*
X91617600Y-76123600D01*
D13*
X90183080Y-79583280D02*
G75*
G03*
X90183080Y-79583280I-100000J0D01*
G01*
%TO.C,G\u002A\u002A\u002A*%
G36*
X127705069Y-95330468D02*
G01*
X127709532Y-95277616D01*
X127717341Y-95235176D01*
X127729342Y-95195810D01*
X127740919Y-95165577D01*
X127803186Y-95051632D01*
X127889212Y-94959748D01*
X127998488Y-94890460D01*
X128006341Y-94886770D01*
X128052478Y-94866637D01*
X128092635Y-94853279D01*
X128135532Y-94845317D01*
X128189891Y-94841371D01*
X128264433Y-94840063D01*
X128302309Y-94839969D01*
X128421963Y-94842796D01*
X128516638Y-94852980D01*
X128593403Y-94872863D01*
X128659328Y-94904787D01*
X128721484Y-94951096D01*
X128767228Y-94994017D01*
X128833861Y-95072493D01*
X128881856Y-95158664D01*
X128913181Y-95258474D01*
X128929808Y-95377868D01*
X128933857Y-95496764D01*
X128923399Y-95662982D01*
X128891806Y-95804659D01*
X128838746Y-95922146D01*
X128763890Y-96015790D01*
X128666907Y-96085939D01*
X128547468Y-96132943D01*
X128405240Y-96157151D01*
X128304655Y-96160859D01*
X128173774Y-96153057D01*
X128064357Y-96130707D01*
X128053566Y-96127404D01*
X127947286Y-96077469D01*
X127853792Y-96001632D01*
X127779205Y-95905736D01*
X127741310Y-95829267D01*
X127725937Y-95786351D01*
X127715290Y-95744985D01*
X127708509Y-95697743D01*
X127704733Y-95637202D01*
X127703103Y-95555936D01*
X127702803Y-95496764D01*
X128010355Y-95496764D01*
X128011477Y-95604810D01*
X128015733Y-95687207D01*
X128024457Y-95750695D01*
X128038985Y-95802015D01*
X128060651Y-95847905D01*
X128088626Y-95891981D01*
X128134708Y-95936704D01*
X128199898Y-95973418D01*
X128270898Y-95995591D01*
X128306885Y-95999217D01*
X128358420Y-95992887D01*
X128414033Y-95976938D01*
X128420201Y-95974470D01*
X128491793Y-95934156D01*
X128546273Y-95878346D01*
X128585136Y-95803651D01*
X128609878Y-95706681D01*
X128621994Y-95584044D01*
X128623778Y-95512983D01*
X128618815Y-95367886D01*
X128601115Y-95250481D01*
X128569598Y-95158183D01*
X128523180Y-95088411D01*
X128460777Y-95038581D01*
X128416066Y-95017505D01*
X128321288Y-94996653D01*
X128232207Y-95006511D01*
X128152862Y-95045392D01*
X128087293Y-95111611D01*
X128053867Y-95168741D01*
X128036694Y-95207350D01*
X128024744Y-95242140D01*
X128017077Y-95280207D01*
X128012751Y-95328646D01*
X128010825Y-95394552D01*
X128010358Y-95485019D01*
X128010355Y-95496764D01*
X127702803Y-95496764D01*
X127703108Y-95401071D01*
X127705069Y-95330468D01*
G37*
G36*
X125955491Y-94908801D02*
G01*
X125951378Y-94943060D01*
X125940873Y-94962564D01*
X125915879Y-94973475D01*
X125868298Y-94981958D01*
X125857194Y-94983630D01*
X125763931Y-94997636D01*
X125763931Y-95383226D01*
X126267770Y-95383226D01*
X126263201Y-95192645D01*
X126258631Y-95002064D01*
X126169423Y-94985061D01*
X126118598Y-94974313D01*
X126091460Y-94962511D01*
X126079759Y-94942909D01*
X126075243Y-94908765D01*
X126075181Y-94908017D01*
X126070147Y-94847977D01*
X126755289Y-94847977D01*
X126750255Y-94908801D01*
X126746142Y-94943060D01*
X126735637Y-94962564D01*
X126710642Y-94973475D01*
X126663062Y-94981958D01*
X126651958Y-94983630D01*
X126558695Y-94997636D01*
X126558695Y-95995891D01*
X126651958Y-96009897D01*
X126704261Y-96018585D01*
X126732580Y-96028636D01*
X126745010Y-96046215D01*
X126749649Y-96077484D01*
X126750255Y-96084727D01*
X126755289Y-96145550D01*
X126072105Y-96145550D01*
X126072105Y-96020312D01*
X126153589Y-96010661D01*
X126203730Y-96003251D01*
X126240651Y-95995128D01*
X126250907Y-95991225D01*
X126257005Y-95971895D01*
X126261932Y-95925739D01*
X126265300Y-95858363D01*
X126266720Y-95775372D01*
X126266741Y-95763431D01*
X126266741Y-95545423D01*
X125763931Y-95545423D01*
X125763931Y-95995891D01*
X125857194Y-96009897D01*
X125909498Y-96018585D01*
X125937816Y-96028636D01*
X125950246Y-96046215D01*
X125954885Y-96077484D01*
X125955491Y-96084727D01*
X125960525Y-96145550D01*
X125277341Y-96145550D01*
X125277341Y-96019983D01*
X125471977Y-95997963D01*
X125471977Y-94997636D01*
X125378714Y-94983630D01*
X125326411Y-94974942D01*
X125298092Y-94964891D01*
X125285662Y-94947313D01*
X125281023Y-94916043D01*
X125280417Y-94908801D01*
X125275383Y-94847977D01*
X125960525Y-94847977D01*
X125955491Y-94908801D01*
G37*
G36*
X132186920Y-95204810D02*
G01*
X132059150Y-95204810D01*
X132048835Y-95127766D01*
X132040983Y-95072114D01*
X132031021Y-95037521D01*
X132012091Y-95018991D01*
X131977334Y-95011531D01*
X131919891Y-95010146D01*
X131887365Y-95010174D01*
X131748989Y-95010174D01*
X131748989Y-95997239D01*
X131927405Y-96019531D01*
X131927405Y-96145550D01*
X131262398Y-96145550D01*
X131262398Y-96019531D01*
X131351607Y-96008385D01*
X131440815Y-95997239D01*
X131440815Y-95010174D01*
X131303257Y-95010174D01*
X131235780Y-95010042D01*
X131193545Y-95013562D01*
X131169431Y-95026603D01*
X131156315Y-95055039D01*
X131147075Y-95104739D01*
X131140951Y-95143986D01*
X131132357Y-95183190D01*
X131116395Y-95200438D01*
X131082148Y-95204714D01*
X131067028Y-95204810D01*
X131002884Y-95204810D01*
X131002884Y-94847977D01*
X132186920Y-94847977D01*
X132186920Y-95204810D01*
G37*
G36*
X127564314Y-97621540D02*
G01*
X127436891Y-97621540D01*
X127414599Y-97443124D01*
X126930718Y-97443124D01*
X126935287Y-97633705D01*
X126939857Y-97824286D01*
X127231582Y-97824286D01*
X127248693Y-97743188D01*
X127260600Y-97694952D01*
X127274474Y-97670046D01*
X127297300Y-97659752D01*
X127317741Y-97657007D01*
X127369678Y-97651924D01*
X127369678Y-98140570D01*
X127314999Y-98140570D01*
X127282468Y-98138783D01*
X127264871Y-98127899D01*
X127255522Y-98099633D01*
X127249562Y-98059471D01*
X127238804Y-97978373D01*
X126931747Y-97978373D01*
X126931747Y-98416304D01*
X127414599Y-98416304D01*
X127436891Y-98237888D01*
X127564314Y-98237888D01*
X127564314Y-98578501D01*
X126445157Y-98578501D01*
X126445157Y-98521223D01*
X126446894Y-98487751D01*
X126456690Y-98467136D01*
X126481420Y-98454680D01*
X126527958Y-98445681D01*
X126562750Y-98440850D01*
X126639793Y-98430536D01*
X126639793Y-97430587D01*
X126546530Y-97416581D01*
X126494296Y-97407940D01*
X126466464Y-97398255D01*
X126455350Y-97381695D01*
X126453274Y-97352429D01*
X126453267Y-97345806D01*
X126453267Y-97289037D01*
X127008791Y-97284769D01*
X127564314Y-97280501D01*
X127564314Y-97621540D01*
G37*
G36*
X125930291Y-88542471D02*
G01*
X126372386Y-88100595D01*
X128237656Y-88100595D01*
X128671419Y-88534582D01*
X129105183Y-88968569D01*
X129105183Y-92067104D01*
X128236047Y-92934056D01*
X126371947Y-92934056D01*
X125930072Y-92491962D01*
X125488197Y-92049867D01*
X125488197Y-91676502D01*
X126380278Y-91676502D01*
X126554363Y-91851129D01*
X126728448Y-92025755D01*
X127880044Y-92025755D01*
X128046572Y-91859793D01*
X128213101Y-91693831D01*
X128213101Y-89341929D01*
X127864931Y-88992677D01*
X126745729Y-88992677D01*
X126563003Y-89174884D01*
X126380278Y-89357090D01*
X126380278Y-91676502D01*
X125488197Y-91676502D01*
X125488197Y-88984346D01*
X125930291Y-88542471D01*
G37*
G36*
X126347839Y-97405434D02*
G01*
X126256004Y-97420224D01*
X126164170Y-97435014D01*
X125951380Y-98002702D01*
X125738590Y-98570391D01*
X125596909Y-98575081D01*
X125527582Y-98576583D01*
X125483936Y-98574793D01*
X125459288Y-98568648D01*
X125446955Y-98557085D01*
X125443991Y-98550752D01*
X125435809Y-98529256D01*
X125417546Y-98481053D01*
X125390578Y-98409784D01*
X125356283Y-98319089D01*
X125316036Y-98212609D01*
X125271216Y-98093985D01*
X125227547Y-97978373D01*
X125022339Y-97435014D01*
X124930875Y-97420224D01*
X124839410Y-97405434D01*
X124839410Y-97280927D01*
X125504416Y-97280927D01*
X125504416Y-97406947D01*
X125415208Y-97418093D01*
X125366442Y-97425841D01*
X125334040Y-97434160D01*
X125326000Y-97439347D01*
X125331478Y-97461042D01*
X125346732Y-97506955D01*
X125369989Y-97572468D01*
X125399477Y-97652962D01*
X125433424Y-97743820D01*
X125470057Y-97840425D01*
X125507605Y-97938158D01*
X125544295Y-98032403D01*
X125578355Y-98118541D01*
X125608013Y-98191955D01*
X125631496Y-98248027D01*
X125647033Y-98282139D01*
X125652641Y-98290451D01*
X125660493Y-98273307D01*
X125677598Y-98230508D01*
X125702161Y-98166899D01*
X125732384Y-98087323D01*
X125766470Y-97996625D01*
X125802623Y-97899649D01*
X125839046Y-97801238D01*
X125873942Y-97706239D01*
X125905515Y-97619493D01*
X125931967Y-97545846D01*
X125951502Y-97490142D01*
X125962323Y-97457225D01*
X125963806Y-97451540D01*
X125950950Y-97440081D01*
X125914745Y-97427037D01*
X125877469Y-97418228D01*
X125826768Y-97407328D01*
X125800191Y-97395858D01*
X125789951Y-97377419D01*
X125788261Y-97345612D01*
X125788261Y-97289037D01*
X126347839Y-97280161D01*
X126347839Y-97405434D01*
G37*
G36*
X123115023Y-97614533D02*
G01*
X123185677Y-97712900D01*
X123254626Y-97808912D01*
X123318160Y-97897399D01*
X123372570Y-97973196D01*
X123414145Y-98031133D01*
X123432354Y-98056524D01*
X123509397Y-98164007D01*
X123509397Y-97430089D01*
X123314761Y-97407499D01*
X123314761Y-97280927D01*
X123898669Y-97280927D01*
X123898669Y-97407499D01*
X123704033Y-97430089D01*
X123704033Y-98578501D01*
X123586441Y-98577802D01*
X123468848Y-98577104D01*
X123178611Y-98165590D01*
X123104982Y-98061428D01*
X123035771Y-97963957D01*
X122973617Y-97876862D01*
X122921162Y-97803826D01*
X122881046Y-97748535D01*
X122855908Y-97714672D01*
X122850746Y-97708083D01*
X122813118Y-97662089D01*
X122812535Y-98045465D01*
X122811951Y-98428841D01*
X122905215Y-98442847D01*
X122957518Y-98451535D01*
X122985836Y-98461586D01*
X122998266Y-98479165D01*
X123002905Y-98510434D01*
X123003512Y-98517677D01*
X123008546Y-98578501D01*
X122422679Y-98578501D01*
X122422679Y-98521223D01*
X122424417Y-98487751D01*
X122434212Y-98467136D01*
X122458942Y-98454680D01*
X122505481Y-98445681D01*
X122540272Y-98440850D01*
X122617315Y-98430536D01*
X122617315Y-97430587D01*
X122524052Y-97416581D01*
X122471818Y-97407940D01*
X122443986Y-97398255D01*
X122432873Y-97381695D01*
X122430796Y-97352429D01*
X122430789Y-97345806D01*
X122430789Y-97289037D01*
X122652763Y-97284531D01*
X122874736Y-97280025D01*
X123115023Y-97614533D01*
G37*
G36*
X131067762Y-97405434D02*
G01*
X130881236Y-97435014D01*
X130876950Y-97931893D01*
X130872663Y-98428773D01*
X130966158Y-98442813D01*
X131018541Y-98451506D01*
X131046929Y-98461536D01*
X131059406Y-98479046D01*
X131064059Y-98510179D01*
X131064687Y-98517677D01*
X131069721Y-98578501D01*
X130386536Y-98578501D01*
X130386536Y-98521223D01*
X130388274Y-98487751D01*
X130398069Y-98467136D01*
X130422799Y-98454680D01*
X130469337Y-98445681D01*
X130504129Y-98440850D01*
X130581172Y-98430536D01*
X130581172Y-97430587D01*
X130487909Y-97416581D01*
X130435675Y-97407940D01*
X130407843Y-97398255D01*
X130396730Y-97381695D01*
X130394653Y-97352429D01*
X130394646Y-97345806D01*
X130394646Y-97289037D01*
X131067762Y-97280269D01*
X131067762Y-97405434D01*
G37*
G36*
X133192539Y-97406947D02*
G01*
X133102102Y-97418246D01*
X133046036Y-97428517D01*
X133020163Y-97441314D01*
X133019009Y-97448499D01*
X133030048Y-97468464D01*
X133055269Y-97510155D01*
X133091260Y-97568044D01*
X133134609Y-97636604D01*
X133148947Y-97659063D01*
X133197455Y-97734495D01*
X133231795Y-97785914D01*
X133255180Y-97816697D01*
X133270822Y-97830222D01*
X133281936Y-97829865D01*
X133291734Y-97819004D01*
X133295573Y-97813150D01*
X133313395Y-97785017D01*
X133344086Y-97736264D01*
X133383321Y-97673773D01*
X133426213Y-97605321D01*
X133532821Y-97435014D01*
X133443779Y-97420224D01*
X133354736Y-97405434D01*
X133354736Y-97280927D01*
X133922424Y-97280927D01*
X133922424Y-97406947D01*
X133745510Y-97429051D01*
X133558232Y-97719762D01*
X133370955Y-98010474D01*
X133370955Y-98430536D01*
X133447999Y-98440850D01*
X133508477Y-98449902D01*
X133543599Y-98459988D01*
X133560241Y-98475807D01*
X133565277Y-98502059D01*
X133565591Y-98521223D01*
X133565591Y-98578501D01*
X132882407Y-98578501D01*
X132887441Y-98517677D01*
X132891554Y-98483417D01*
X132902059Y-98463914D01*
X132927054Y-98453002D01*
X132974634Y-98444519D01*
X132985738Y-98442847D01*
X133079001Y-98428841D01*
X133079001Y-98027159D01*
X132883357Y-97728073D01*
X132687713Y-97428986D01*
X132599513Y-97417967D01*
X132511313Y-97406947D01*
X132511313Y-97280927D01*
X133192539Y-97280927D01*
X133192539Y-97406947D01*
G37*
G36*
X127580534Y-94973544D02*
G01*
X127483216Y-94984555D01*
X127385898Y-94995565D01*
X127385898Y-95488502D01*
X127386413Y-95633017D01*
X127387910Y-95756305D01*
X127390317Y-95856076D01*
X127393562Y-95930037D01*
X127397572Y-95975897D01*
X127401731Y-95991225D01*
X127426062Y-95998688D01*
X127470407Y-96006795D01*
X127499049Y-96010661D01*
X127580534Y-96020312D01*
X127580534Y-96145550D01*
X126897350Y-96145550D01*
X126902384Y-96084727D01*
X126906497Y-96050467D01*
X126917002Y-96030964D01*
X126941996Y-96020052D01*
X126989577Y-96011569D01*
X127000681Y-96009897D01*
X127093944Y-95995891D01*
X127093944Y-94997636D01*
X127000681Y-94983630D01*
X126948377Y-94974942D01*
X126920059Y-94964891D01*
X126907629Y-94947313D01*
X126902990Y-94916043D01*
X126902384Y-94908801D01*
X126897350Y-94847977D01*
X127580534Y-94847977D01*
X127580534Y-94973544D01*
G37*
G36*
X126660406Y-89272108D02*
G01*
X126794558Y-89138654D01*
X127818075Y-89138654D01*
X127950709Y-89274539D01*
X128083344Y-89410425D01*
X128083344Y-91624227D01*
X127950709Y-91760112D01*
X127818075Y-91895997D01*
X126793164Y-91895997D01*
X126659710Y-91761846D01*
X126526255Y-91627695D01*
X126526255Y-91595061D01*
X126623573Y-91595061D01*
X126724478Y-91696870D01*
X126825382Y-91798679D01*
X127782407Y-91798679D01*
X127884216Y-91697775D01*
X127986026Y-91596871D01*
X127986026Y-89439532D01*
X127767930Y-89219752D01*
X126843353Y-89219752D01*
X126623573Y-89437848D01*
X126623573Y-91595061D01*
X126526255Y-91595061D01*
X126526255Y-89405562D01*
X126660406Y-89272108D01*
G37*
G36*
X129904482Y-97279488D02*
G01*
X129940496Y-97285707D01*
X130027546Y-97302488D01*
X130087843Y-97316950D01*
X130126287Y-97333877D01*
X130147778Y-97358051D01*
X130157215Y-97394258D01*
X130159497Y-97447279D01*
X130159461Y-97499491D01*
X130159461Y-97653980D01*
X130095675Y-97653980D01*
X130059928Y-97652470D01*
X130037420Y-97643526D01*
X130023383Y-97620528D01*
X130013050Y-97576853D01*
X130005125Y-97528226D01*
X129998556Y-97493094D01*
X129987750Y-97470086D01*
X129966297Y-97455725D01*
X129927788Y-97446531D01*
X129865812Y-97439025D01*
X129835068Y-97435921D01*
X129732803Y-97435073D01*
X129649946Y-97453761D01*
X129589074Y-97490543D01*
X129552760Y-97543978D01*
X129543114Y-97599363D01*
X129551157Y-97649417D01*
X129577594Y-97691804D01*
X129625886Y-97729190D01*
X129699493Y-97764243D01*
X129801878Y-97799628D01*
X129803871Y-97800243D01*
X129880169Y-97824826D01*
X129951013Y-97849567D01*
X130006813Y-97871017D01*
X130031239Y-97881950D01*
X130114301Y-97941299D01*
X130174620Y-98020937D01*
X130210222Y-98116232D01*
X130219131Y-98222556D01*
X130208952Y-98298711D01*
X130172124Y-98393397D01*
X130108647Y-98473188D01*
X130022361Y-98534269D01*
X129938580Y-98567354D01*
X129841067Y-98585700D01*
X129724610Y-98593603D01*
X129600939Y-98591180D01*
X129481781Y-98578549D01*
X129400575Y-98561964D01*
X129341397Y-98545761D01*
X129294237Y-98531561D01*
X129268190Y-98522124D01*
X129266762Y-98521350D01*
X129260173Y-98502012D01*
X129254960Y-98457662D01*
X129251797Y-98395719D01*
X129251160Y-98349535D01*
X129251160Y-98187363D01*
X129320093Y-98192351D01*
X129389027Y-98197338D01*
X129403270Y-98297363D01*
X129411082Y-98345833D01*
X129421997Y-98378865D01*
X129441661Y-98399430D01*
X129475719Y-98410502D01*
X129529816Y-98415050D01*
X129609598Y-98416048D01*
X129628788Y-98416083D01*
X129742015Y-98410022D01*
X129827071Y-98390688D01*
X129885870Y-98356951D01*
X129920321Y-98307679D01*
X129932336Y-98241742D01*
X129932386Y-98236466D01*
X129926508Y-98184765D01*
X129906047Y-98143413D01*
X129866756Y-98108842D01*
X129804393Y-98077483D01*
X129714712Y-98045768D01*
X129700189Y-98041236D01*
X129571928Y-97998387D01*
X129471913Y-97956626D01*
X129396188Y-97913150D01*
X129340795Y-97865152D01*
X129301775Y-97809827D01*
X129275171Y-97744370D01*
X129273507Y-97738771D01*
X129259207Y-97642846D01*
X129268527Y-97545744D01*
X129299309Y-97456601D01*
X129349394Y-97384553D01*
X129359509Y-97374810D01*
X129433649Y-97326789D01*
X129531456Y-97292289D01*
X129646690Y-97272268D01*
X129773112Y-97267682D01*
X129904482Y-97279488D01*
G37*
G36*
X130456676Y-94474329D02*
G01*
X130622735Y-94501903D01*
X130771754Y-94541974D01*
X130824467Y-94558539D01*
X130824467Y-94880416D01*
X130752214Y-94880416D01*
X130707364Y-94878904D01*
X130684823Y-94869369D01*
X130674462Y-94844319D01*
X130670022Y-94819593D01*
X130658675Y-94750682D01*
X130649055Y-94707161D01*
X130636735Y-94682565D01*
X130617293Y-94670432D01*
X130586302Y-94664301D01*
X130561407Y-94660963D01*
X130449089Y-94650004D01*
X130347466Y-94648702D01*
X130262898Y-94656745D01*
X130201745Y-94673822D01*
X130191486Y-94679096D01*
X130122577Y-94733286D01*
X130082860Y-94799551D01*
X130070253Y-94880416D01*
X130078739Y-94948688D01*
X130106167Y-95006549D01*
X130155487Y-95056539D01*
X130229650Y-95101197D01*
X130331610Y-95143063D01*
X130402756Y-95166484D01*
X130542406Y-95214368D01*
X130652972Y-95263767D01*
X130737796Y-95317105D01*
X130800221Y-95376804D01*
X130843589Y-95445289D01*
X130864948Y-95501593D01*
X130889378Y-95630295D01*
X130886302Y-95752826D01*
X130857455Y-95865394D01*
X130804572Y-95964206D01*
X130729389Y-96045472D01*
X130633641Y-96105400D01*
X130579178Y-96125999D01*
X130449694Y-96154627D01*
X130305738Y-96167882D01*
X130161962Y-96164680D01*
X130118912Y-96160071D01*
X130041304Y-96147031D01*
X129953961Y-96128048D01*
X129887782Y-96110607D01*
X129770189Y-96075946D01*
X129770189Y-95723839D01*
X129912387Y-95723839D01*
X129923691Y-95829395D01*
X129931049Y-95883451D01*
X129943007Y-95922075D01*
X129964515Y-95947868D01*
X130000523Y-95963436D01*
X130055981Y-95971381D01*
X130135840Y-95974309D01*
X130200010Y-95974747D01*
X130284660Y-95974410D01*
X130344584Y-95972118D01*
X130387486Y-95966710D01*
X130421071Y-95957026D01*
X130453043Y-95941908D01*
X130466022Y-95934695D01*
X130537431Y-95877302D01*
X130581721Y-95802809D01*
X130597380Y-95713787D01*
X130597392Y-95711122D01*
X130584850Y-95626319D01*
X130548823Y-95558709D01*
X130510411Y-95524044D01*
X130479543Y-95508511D01*
X130425633Y-95485939D01*
X130356447Y-95459435D01*
X130284658Y-95433791D01*
X130164006Y-95390363D01*
X130069753Y-95351788D01*
X129996747Y-95315384D01*
X129939835Y-95278472D01*
X129893864Y-95238371D01*
X129879291Y-95222960D01*
X129822781Y-95137824D01*
X129787132Y-95035372D01*
X129773563Y-94924108D01*
X129783294Y-94812534D01*
X129808450Y-94729304D01*
X129863029Y-94639094D01*
X129942195Y-94567347D01*
X130043546Y-94514530D01*
X130164678Y-94481109D01*
X130303189Y-94467553D01*
X130456676Y-94474329D01*
G37*
G36*
X122844391Y-95188590D02*
G01*
X122716968Y-95188590D01*
X122694676Y-95010174D01*
X122210794Y-95010174D01*
X122219934Y-95391336D01*
X122511658Y-95391336D01*
X122528770Y-95310238D01*
X122540677Y-95262002D01*
X122554550Y-95237096D01*
X122577376Y-95226802D01*
X122597818Y-95224057D01*
X122649755Y-95218974D01*
X122649755Y-95707619D01*
X122594508Y-95707619D01*
X122561645Y-95705858D01*
X122543838Y-95695055D01*
X122534309Y-95666934D01*
X122528107Y-95626521D01*
X122516953Y-95545423D01*
X122211824Y-95545423D01*
X122211824Y-95983354D01*
X122694676Y-95983354D01*
X122705822Y-95894146D01*
X122716968Y-95804937D01*
X122844391Y-95804937D01*
X122844391Y-96145550D01*
X121723276Y-96145550D01*
X121728310Y-96084727D01*
X121732423Y-96050467D01*
X121742928Y-96030964D01*
X121767922Y-96020052D01*
X121815502Y-96011569D01*
X121826607Y-96009897D01*
X121919870Y-95995891D01*
X121919870Y-94997636D01*
X121826607Y-94983630D01*
X121774303Y-94974942D01*
X121745985Y-94964891D01*
X121733555Y-94947313D01*
X121728916Y-94916043D01*
X121728310Y-94908801D01*
X121723276Y-94847977D01*
X122844391Y-94847977D01*
X122844391Y-95188590D01*
G37*
G36*
X132730530Y-94856087D02*
G01*
X133010614Y-94846765D01*
X133107264Y-95094721D01*
X133144829Y-95191256D01*
X133190141Y-95307949D01*
X133239277Y-95434688D01*
X133288319Y-95561362D01*
X133330158Y-95669607D01*
X133456403Y-95996537D01*
X133547492Y-96010220D01*
X133599039Y-96018860D01*
X133626703Y-96029124D01*
X133638694Y-96047376D01*
X133643218Y-96079977D01*
X133643614Y-96084727D01*
X133648648Y-96145550D01*
X132963505Y-96145550D01*
X132968539Y-96085107D01*
X132972838Y-96050809D01*
X132983874Y-96031054D01*
X133009780Y-96019361D01*
X133058692Y-96009249D01*
X133065221Y-96008064D01*
X133156869Y-95991464D01*
X133066443Y-95764388D01*
X132573222Y-95764388D01*
X132534158Y-95860407D01*
X132513748Y-95913590D01*
X132499611Y-95956194D01*
X132495093Y-95976762D01*
X132510106Y-95991321D01*
X132550404Y-96004759D01*
X132580246Y-96010568D01*
X132629683Y-96019505D01*
X132655553Y-96030730D01*
X132666386Y-96051263D01*
X132670434Y-96084793D01*
X132675468Y-96145550D01*
X132105821Y-96145550D01*
X132105821Y-96021044D01*
X132198589Y-96006254D01*
X132291356Y-95991464D01*
X132443410Y-95598366D01*
X132641070Y-95598366D01*
X132656197Y-95603162D01*
X132697213Y-95607038D01*
X132757573Y-95609556D01*
X132819487Y-95610301D01*
X132891181Y-95609290D01*
X132949121Y-95606546D01*
X132986760Y-95602508D01*
X132997903Y-95598366D01*
X132992550Y-95576285D01*
X132978079Y-95531819D01*
X132956870Y-95471301D01*
X132931302Y-95401064D01*
X132903756Y-95327439D01*
X132876613Y-95256759D01*
X132852252Y-95195356D01*
X132833054Y-95149562D01*
X132821398Y-95125708D01*
X132819487Y-95123711D01*
X132811186Y-95137951D01*
X132794472Y-95176450D01*
X132771725Y-95232875D01*
X132745323Y-95300895D01*
X132717649Y-95374177D01*
X132691081Y-95446388D01*
X132668000Y-95511198D01*
X132650787Y-95562273D01*
X132641821Y-95593282D01*
X132641070Y-95598366D01*
X132443410Y-95598366D01*
X132510943Y-95423775D01*
X132730530Y-94856087D01*
G37*
G36*
X134733407Y-95204810D02*
G01*
X134607840Y-95204810D01*
X134585820Y-95010174D01*
X134295476Y-95010174D01*
X134295476Y-95997963D01*
X134490112Y-96019983D01*
X134490112Y-96145550D01*
X133808886Y-96145550D01*
X133808886Y-96019983D01*
X134003522Y-95997963D01*
X134003522Y-95010174D01*
X133713179Y-95010174D01*
X133691159Y-95204810D01*
X133565591Y-95204810D01*
X133565591Y-94847977D01*
X134733407Y-94847977D01*
X134733407Y-95204810D01*
G37*
G36*
X126275047Y-87873520D02*
G01*
X128338294Y-87873520D01*
X129316038Y-88862582D01*
X129316038Y-92147599D01*
X128817187Y-92646255D01*
X128318336Y-93144912D01*
X126270466Y-93144912D01*
X125782623Y-92646157D01*
X125294779Y-92147402D01*
X125294761Y-92098541D01*
X125374659Y-92098541D01*
X125848981Y-92573067D01*
X126323303Y-93047594D01*
X128286299Y-93047594D01*
X128752344Y-92581278D01*
X129218389Y-92114963D01*
X129240301Y-88909039D01*
X128771410Y-88439938D01*
X128302519Y-87970838D01*
X126307496Y-87970838D01*
X125841078Y-88437048D01*
X125374659Y-88903259D01*
X125374659Y-92098541D01*
X125294761Y-92098541D01*
X125293561Y-88854610D01*
X126275047Y-87873520D01*
G37*
G36*
X122053682Y-96927784D02*
G01*
X122349691Y-96932204D01*
X122354608Y-96991061D01*
X122355584Y-97029649D01*
X122344052Y-97048477D01*
X122311352Y-97058146D01*
X122297839Y-97060550D01*
X122244035Y-97070122D01*
X122195869Y-97079154D01*
X122192480Y-97079820D01*
X122148806Y-97088460D01*
X122143750Y-97667229D01*
X122142233Y-97831012D01*
X122140370Y-97965869D01*
X122137494Y-98075315D01*
X122132937Y-98162860D01*
X122126032Y-98232019D01*
X122116111Y-98286302D01*
X122102505Y-98329224D01*
X122084548Y-98364296D01*
X122061571Y-98395032D01*
X122032907Y-98424944D01*
X121997889Y-98457544D01*
X121992597Y-98462380D01*
X121921487Y-98518872D01*
X121850776Y-98554822D01*
X121811875Y-98567482D01*
X121724053Y-98585808D01*
X121620114Y-98597998D01*
X121512802Y-98603300D01*
X121414856Y-98600965D01*
X121357805Y-98594226D01*
X121214360Y-98556933D01*
X121096366Y-98501393D01*
X121004513Y-98428120D01*
X120939493Y-98337625D01*
X120909413Y-98261143D01*
X120901647Y-98229302D01*
X120895447Y-98192553D01*
X120890646Y-98147063D01*
X120887079Y-98088995D01*
X120884579Y-98014515D01*
X120882980Y-97919788D01*
X120882115Y-97800978D01*
X120881817Y-97654250D01*
X120881811Y-97624840D01*
X120881811Y-97086909D01*
X120845317Y-97079425D01*
X120804348Y-97071742D01*
X120753168Y-97062998D01*
X120747999Y-97062161D01*
X120708795Y-97053567D01*
X120691547Y-97037606D01*
X120687271Y-97003359D01*
X120687175Y-96988238D01*
X120687175Y-96924095D01*
X121384621Y-96924095D01*
X121384621Y-96988238D01*
X121382449Y-97029931D01*
X121369943Y-97050131D01*
X121338121Y-97059757D01*
X121323797Y-97062161D01*
X121272818Y-97070789D01*
X121229714Y-97078771D01*
X121226479Y-97079425D01*
X121189985Y-97086909D01*
X121190075Y-97609685D01*
X121190659Y-97762405D01*
X121192297Y-97896938D01*
X121194905Y-98010398D01*
X121198397Y-98099904D01*
X121202688Y-98162570D01*
X121207374Y-98194432D01*
X121238251Y-98261047D01*
X121288804Y-98325571D01*
X121349351Y-98377427D01*
X121397855Y-98402471D01*
X121444391Y-98412642D01*
X121509414Y-98419825D01*
X121579009Y-98422493D01*
X121580322Y-98422490D01*
X121692784Y-98413366D01*
X121781477Y-98385569D01*
X121850377Y-98337237D01*
X121899824Y-98272824D01*
X121944199Y-98197338D01*
X121954241Y-97087394D01*
X121916781Y-97079667D01*
X121875053Y-97071801D01*
X121823466Y-97062966D01*
X121818497Y-97062161D01*
X121779374Y-97053606D01*
X121762103Y-97037738D01*
X121757778Y-97003679D01*
X121757673Y-96987872D01*
X121757673Y-96923363D01*
X122053682Y-96927784D01*
G37*
G36*
X120797637Y-94908801D02*
G01*
X120793524Y-94943060D01*
X120783018Y-94962564D01*
X120758024Y-94973475D01*
X120710444Y-94981958D01*
X120699340Y-94983630D01*
X120606077Y-94997636D01*
X120606077Y-95383226D01*
X121108886Y-95383226D01*
X121108886Y-94997636D01*
X121015623Y-94983630D01*
X120963320Y-94974942D01*
X120935002Y-94964891D01*
X120922571Y-94947313D01*
X120917932Y-94916043D01*
X120917326Y-94908801D01*
X120912292Y-94847977D01*
X121597435Y-94847977D01*
X121592401Y-94908801D01*
X121588287Y-94943060D01*
X121577782Y-94962564D01*
X121552788Y-94973475D01*
X121505208Y-94981958D01*
X121494103Y-94983630D01*
X121400840Y-94997636D01*
X121400840Y-95995891D01*
X121494103Y-96009897D01*
X121546407Y-96018585D01*
X121574725Y-96028636D01*
X121587155Y-96046215D01*
X121591794Y-96077484D01*
X121592401Y-96084727D01*
X121597435Y-96145550D01*
X120914250Y-96145550D01*
X120914250Y-96020312D01*
X120995735Y-96010661D01*
X121045876Y-96003251D01*
X121082797Y-95995128D01*
X121093053Y-95991225D01*
X121099150Y-95971895D01*
X121104078Y-95925739D01*
X121107446Y-95858363D01*
X121108865Y-95775372D01*
X121108886Y-95763431D01*
X121108886Y-95545423D01*
X120606077Y-95545423D01*
X120606077Y-95995891D01*
X120699340Y-96009897D01*
X120751643Y-96018585D01*
X120779961Y-96028636D01*
X120792391Y-96046215D01*
X120797030Y-96077484D01*
X120797637Y-96084727D01*
X120802671Y-96145550D01*
X120119487Y-96145550D01*
X120119487Y-96019983D01*
X120314123Y-95997963D01*
X120314123Y-94997636D01*
X120220860Y-94983630D01*
X120168556Y-94974942D01*
X120140238Y-94964891D01*
X120127808Y-94947313D01*
X120123169Y-94916043D01*
X120122562Y-94908801D01*
X120117528Y-94847977D01*
X120802671Y-94847977D01*
X120797637Y-94908801D01*
G37*
G36*
X124725872Y-97407499D02*
G01*
X124531236Y-97430089D01*
X124531236Y-98428841D01*
X124624499Y-98442847D01*
X124676803Y-98451535D01*
X124705121Y-98461586D01*
X124717551Y-98479165D01*
X124722190Y-98510434D01*
X124722796Y-98517677D01*
X124727831Y-98578501D01*
X124044646Y-98578501D01*
X124044646Y-98521223D01*
X124046384Y-98487751D01*
X124056179Y-98467136D01*
X124080909Y-98454680D01*
X124127447Y-98445681D01*
X124162239Y-98440850D01*
X124239282Y-98430536D01*
X124239282Y-97430089D01*
X124044646Y-97407499D01*
X124044646Y-97280927D01*
X124725872Y-97280927D01*
X124725872Y-97407499D01*
G37*
G36*
X123713779Y-94981086D02*
G01*
X123756187Y-94845638D01*
X123816819Y-94732574D01*
X123882190Y-94653600D01*
X123980443Y-94577096D01*
X124098809Y-94520235D01*
X124231305Y-94483395D01*
X124371948Y-94466952D01*
X124514754Y-94471281D01*
X124653739Y-94496758D01*
X124782921Y-94543761D01*
X124867308Y-94591686D01*
X124958036Y-94672379D01*
X125031650Y-94779047D01*
X125087471Y-94909692D01*
X125124817Y-95062320D01*
X125143009Y-95234935D01*
X125142742Y-95399446D01*
X125124022Y-95581351D01*
X125085550Y-95737711D01*
X125026866Y-95869061D01*
X124947509Y-95975935D01*
X124847020Y-96058869D01*
X124724938Y-96118397D01*
X124580802Y-96155055D01*
X124482577Y-96166362D01*
X124403149Y-96168587D01*
X124318196Y-96165756D01*
X124255502Y-96159645D01*
X124110730Y-96125119D01*
X123987202Y-96066612D01*
X123884782Y-95983927D01*
X123803334Y-95876867D01*
X123742723Y-95745235D01*
X123702812Y-95588835D01*
X123683467Y-95407469D01*
X123681451Y-95326457D01*
X123682115Y-95310238D01*
X124004752Y-95310238D01*
X124010472Y-95479117D01*
X124029283Y-95620494D01*
X124061951Y-95736875D01*
X124109240Y-95830766D01*
X124171917Y-95904670D01*
X124191561Y-95921510D01*
X124271466Y-95966065D01*
X124365768Y-95987612D01*
X124465337Y-95985476D01*
X124561045Y-95958982D01*
X124579895Y-95950212D01*
X124660113Y-95892551D01*
X124723898Y-95808277D01*
X124771673Y-95696680D01*
X124800175Y-95578879D01*
X124815885Y-95450958D01*
X124820479Y-95313704D01*
X124814541Y-95175941D01*
X124798655Y-95046497D01*
X124773405Y-94934198D01*
X124753767Y-94878153D01*
X124715993Y-94811566D01*
X124663144Y-94748022D01*
X124604173Y-94696781D01*
X124550495Y-94667887D01*
X124467958Y-94651495D01*
X124377481Y-94650671D01*
X124292987Y-94664746D01*
X124246072Y-94682477D01*
X124168082Y-94735446D01*
X124106383Y-94807267D01*
X124060090Y-94900250D01*
X124028312Y-95016704D01*
X124010164Y-95158938D01*
X124004752Y-95310238D01*
X123682115Y-95310238D01*
X123689049Y-95140748D01*
X123713779Y-94981086D01*
G37*
G36*
X132381556Y-97637760D02*
G01*
X132255988Y-97637760D01*
X132233968Y-97443124D01*
X131943625Y-97443124D01*
X131943625Y-98428841D01*
X132036888Y-98442847D01*
X132089191Y-98451535D01*
X132117509Y-98461586D01*
X132129939Y-98479165D01*
X132134578Y-98510434D01*
X132135185Y-98517677D01*
X132140219Y-98578501D01*
X131455076Y-98578501D01*
X131460110Y-98517677D01*
X131464223Y-98483417D01*
X131474729Y-98463914D01*
X131499723Y-98453002D01*
X131547303Y-98444519D01*
X131558407Y-98442847D01*
X131651671Y-98428841D01*
X131651671Y-97443124D01*
X131362902Y-97443124D01*
X131340312Y-97637760D01*
X131213739Y-97637760D01*
X131213739Y-97280927D01*
X132381556Y-97280927D01*
X132381556Y-97637760D01*
G37*
G36*
X120022169Y-94864197D02*
G01*
X119958025Y-94864197D01*
X119916332Y-94862025D01*
X119896132Y-94849519D01*
X119886506Y-94817697D01*
X119884102Y-94803373D01*
X119875379Y-94746356D01*
X119867031Y-94708234D01*
X119853120Y-94685241D01*
X119827712Y-94673614D01*
X119784870Y-94669587D01*
X119718659Y-94669395D01*
X119673137Y-94669561D01*
X119486920Y-94669561D01*
X119486920Y-95325364D01*
X119486736Y-95489882D01*
X119486548Y-95624929D01*
X119486903Y-95733470D01*
X119488346Y-95818471D01*
X119491423Y-95882895D01*
X119496680Y-95929708D01*
X119504664Y-95961873D01*
X119515919Y-95982356D01*
X119530993Y-95994120D01*
X119550430Y-96000131D01*
X119574778Y-96003353D01*
X119604582Y-96006751D01*
X119612622Y-96007924D01*
X119655707Y-96016314D01*
X119675602Y-96029971D01*
X119681264Y-96058531D01*
X119681556Y-96082097D01*
X119681556Y-96145550D01*
X118984110Y-96145550D01*
X118984110Y-96082097D01*
X118985945Y-96042153D01*
X118997420Y-96022055D01*
X119027490Y-96012167D01*
X119053043Y-96007924D01*
X119084240Y-96004042D01*
X119109850Y-96001049D01*
X119130418Y-95995979D01*
X119146491Y-95985868D01*
X119158615Y-95967753D01*
X119167335Y-95938667D01*
X119173198Y-95895647D01*
X119176750Y-95835728D01*
X119178536Y-95755946D01*
X119179102Y-95653335D01*
X119178995Y-95524931D01*
X119178760Y-95367771D01*
X119178746Y-95325364D01*
X119178746Y-94669561D01*
X118807163Y-94669561D01*
X118797384Y-94730384D01*
X118786565Y-94795588D01*
X118777036Y-94835200D01*
X118764545Y-94855592D01*
X118744839Y-94863136D01*
X118713665Y-94864202D01*
X118708066Y-94864197D01*
X118643497Y-94864197D01*
X118643497Y-94491144D01*
X120022169Y-94491144D01*
X120022169Y-94864197D01*
G37*
G36*
X134019742Y-99567900D02*
G01*
X120589857Y-99567900D01*
X120589857Y-99470582D01*
X134019742Y-99470582D01*
X134019742Y-99567900D01*
G37*
G36*
X127860323Y-97416581D02*
G01*
X127808089Y-97407940D01*
X127780257Y-97398255D01*
X127769144Y-97381695D01*
X127767067Y-97352429D01*
X127767060Y-97345806D01*
X127767060Y-97289037D01*
X128180662Y-97289543D01*
X128325631Y-97290148D01*
X128442263Y-97292052D01*
X128534658Y-97295980D01*
X128606911Y-97302659D01*
X128663121Y-97312812D01*
X128707387Y-97327166D01*
X128743805Y-97346446D01*
X128776473Y-97371377D01*
X128807253Y-97400441D01*
X128869720Y-97483576D01*
X128901918Y-97575487D01*
X128903476Y-97672362D01*
X128874024Y-97770391D01*
X128847885Y-97818125D01*
X128809164Y-97867055D01*
X128763697Y-97908189D01*
X128745166Y-97920144D01*
X128687533Y-97951123D01*
X128749306Y-98046699D01*
X128784623Y-98107228D01*
X128824267Y-98184224D01*
X128861187Y-98263777D01*
X128870947Y-98286709D01*
X128930814Y-98431143D01*
X129005834Y-98441154D01*
X129065681Y-98450145D01*
X129100225Y-98460374D01*
X129116401Y-98476674D01*
X129121148Y-98503881D01*
X129121402Y-98521694D01*
X129121402Y-98579442D01*
X128908370Y-98574917D01*
X128695337Y-98570391D01*
X128601124Y-98344514D01*
X128551674Y-98231152D01*
X128508338Y-98145192D01*
X128468094Y-98082910D01*
X128427920Y-98040581D01*
X128384793Y-98014483D01*
X128335690Y-98000890D01*
X128320549Y-97998828D01*
X128245540Y-97990374D01*
X128245540Y-98428841D01*
X128338803Y-98442847D01*
X128391107Y-98451535D01*
X128419425Y-98461586D01*
X128431855Y-98479165D01*
X128436494Y-98510434D01*
X128437100Y-98517677D01*
X128442134Y-98578501D01*
X127758950Y-98578501D01*
X127758950Y-98521223D01*
X127760688Y-98487751D01*
X127770483Y-98467136D01*
X127795213Y-98454680D01*
X127841751Y-98445681D01*
X127876543Y-98440850D01*
X127953586Y-98430536D01*
X127953586Y-97852050D01*
X128245540Y-97852050D01*
X128374059Y-97846214D01*
X128442679Y-97841667D01*
X128488113Y-97833953D01*
X128519607Y-97820612D01*
X128544638Y-97800864D01*
X128589156Y-97739821D01*
X128610700Y-97667754D01*
X128609315Y-97593382D01*
X128585044Y-97525421D01*
X128543026Y-97476433D01*
X128514043Y-97458630D01*
X128477347Y-97448367D01*
X128423747Y-97443842D01*
X128373110Y-97443124D01*
X128245540Y-97443124D01*
X128245540Y-97852050D01*
X127953586Y-97852050D01*
X127953586Y-97430587D01*
X127860323Y-97416581D01*
G37*
G36*
X135966102Y-95188590D02*
G01*
X135838819Y-95188590D01*
X135811747Y-95018284D01*
X135572641Y-95013795D01*
X135333535Y-95009307D01*
X135333535Y-95400663D01*
X135483567Y-95395999D01*
X135633599Y-95391336D01*
X135648045Y-95306183D01*
X135657548Y-95256855D01*
X135668665Y-95231572D01*
X135687893Y-95222307D01*
X135716979Y-95221029D01*
X135771466Y-95221029D01*
X135771466Y-95707619D01*
X135715256Y-95707619D01*
X135681846Y-95705940D01*
X135663842Y-95695381D01*
X135654404Y-95667659D01*
X135648288Y-95626521D01*
X135637530Y-95545423D01*
X135333535Y-95545423D01*
X135333535Y-95984221D01*
X135572641Y-95979732D01*
X135811747Y-95975244D01*
X135825283Y-95890091D01*
X135838819Y-95804937D01*
X135966102Y-95804937D01*
X135966102Y-96145550D01*
X134846945Y-96145550D01*
X134846945Y-96019983D01*
X135041581Y-95997963D01*
X135041581Y-94997636D01*
X134948318Y-94983630D01*
X134896015Y-94974942D01*
X134867696Y-94964891D01*
X134855266Y-94947313D01*
X134850627Y-94916043D01*
X134850021Y-94908801D01*
X134844987Y-94847977D01*
X135966102Y-94847977D01*
X135966102Y-95188590D01*
G37*
D14*
%TO.C,J3*%
X144551600Y-75006400D02*
X137337600Y-75006400D01*
X144551600Y-47218400D02*
X144551600Y-75006400D01*
X137337600Y-47218400D02*
X144551600Y-47218400D01*
X137337600Y-75006400D02*
X137337600Y-47218400D01*
D13*
X135903080Y-50678080D02*
G75*
G03*
X135903080Y-50678080I-100000J0D01*
G01*
%TO.C,G\u002A\u002A\u002A*%
G36*
X126292460Y-59183006D02*
G01*
X125985400Y-59183006D01*
X125985591Y-58911258D01*
X125985783Y-58639510D01*
X126139121Y-58484656D01*
X126292460Y-58329803D01*
X126292460Y-59183006D01*
G37*
G36*
X123090717Y-56096947D02*
G01*
X123114947Y-56038266D01*
X123136932Y-55985591D01*
X123156957Y-55938245D01*
X123175309Y-55895553D01*
X123192274Y-55856839D01*
X123208138Y-55821426D01*
X123223188Y-55788638D01*
X123237709Y-55757800D01*
X123251988Y-55728235D01*
X123266312Y-55699267D01*
X123280966Y-55670220D01*
X123296236Y-55640418D01*
X123298276Y-55636463D01*
X123368567Y-55504748D01*
X123440342Y-55379496D01*
X123484622Y-55307736D01*
X124486947Y-55307736D01*
X124490730Y-55315492D01*
X124501429Y-55331442D01*
X124518071Y-55354365D01*
X124539682Y-55383043D01*
X124565290Y-55416256D01*
X124593920Y-55452785D01*
X124624599Y-55491409D01*
X124656353Y-55530910D01*
X124688209Y-55570067D01*
X124719194Y-55607662D01*
X124748334Y-55642475D01*
X124774655Y-55673285D01*
X124797185Y-55698875D01*
X124812045Y-55715000D01*
X124891331Y-55790785D01*
X124973868Y-55854819D01*
X125059972Y-55907276D01*
X125149960Y-55948334D01*
X125244149Y-55978166D01*
X125312938Y-55992496D01*
X125375624Y-56001314D01*
X125446659Y-56008569D01*
X125523059Y-56014147D01*
X125601838Y-56017935D01*
X125680011Y-56019818D01*
X125754593Y-56019683D01*
X125822600Y-56017416D01*
X125872256Y-56013800D01*
X126014137Y-55993974D01*
X126156183Y-55961916D01*
X126298459Y-55917608D01*
X126336092Y-55902996D01*
X126808646Y-55902996D01*
X126811164Y-55903605D01*
X126818025Y-55901543D01*
X126832477Y-55896267D01*
X126843405Y-55892048D01*
X126858412Y-55886951D01*
X126883291Y-55879410D01*
X126916005Y-55869981D01*
X126954513Y-55859215D01*
X126996779Y-55847666D01*
X127040762Y-55835888D01*
X127084423Y-55824433D01*
X127125726Y-55813855D01*
X127162629Y-55804707D01*
X127183880Y-55799653D01*
X127247158Y-55787584D01*
X127303947Y-55782686D01*
X127357602Y-55784787D01*
X127388664Y-55789155D01*
X127414106Y-55794234D01*
X127447849Y-55801859D01*
X127487836Y-55811482D01*
X127532008Y-55822559D01*
X127578309Y-55834541D01*
X127624681Y-55846883D01*
X127669066Y-55859038D01*
X127709406Y-55870460D01*
X127743643Y-55880602D01*
X127769721Y-55888918D01*
X127783844Y-55894104D01*
X127805976Y-55903202D01*
X127819145Y-55907871D01*
X127825620Y-55908654D01*
X127827668Y-55906091D01*
X127827759Y-55904592D01*
X127822802Y-55898332D01*
X127808980Y-55886681D01*
X127787871Y-55870720D01*
X127761049Y-55851529D01*
X127730091Y-55830187D01*
X127696573Y-55807774D01*
X127662071Y-55785371D01*
X127628161Y-55764056D01*
X127617370Y-55757547D01*
X127980781Y-55757547D01*
X127981801Y-55758561D01*
X127991124Y-55765157D01*
X128008728Y-55776037D01*
X128032046Y-55789731D01*
X128058509Y-55804768D01*
X128085549Y-55819676D01*
X128110597Y-55832984D01*
X128121043Y-55838315D01*
X128239343Y-55891430D01*
X128365458Y-55936386D01*
X128497607Y-55972687D01*
X128634007Y-55999839D01*
X128761222Y-56016263D01*
X128788196Y-56017950D01*
X128824918Y-56018961D01*
X128868870Y-56019332D01*
X128917539Y-56019099D01*
X128968408Y-56018298D01*
X129018963Y-56016967D01*
X129066689Y-56015140D01*
X129109070Y-56012854D01*
X129135835Y-56010861D01*
X129201300Y-56004595D01*
X129256984Y-55997927D01*
X129305384Y-55990452D01*
X129349003Y-55981767D01*
X129390338Y-55971468D01*
X129404391Y-55967506D01*
X129485382Y-55938236D01*
X129566349Y-55897749D01*
X129645852Y-55847031D01*
X129722448Y-55787065D01*
X129794694Y-55718836D01*
X129837314Y-55672066D01*
X129864798Y-55639648D01*
X129894721Y-55603610D01*
X129926127Y-55565171D01*
X129958064Y-55525551D01*
X129989577Y-55485968D01*
X130019712Y-55447642D01*
X130047516Y-55411791D01*
X130072033Y-55379636D01*
X130092311Y-55352395D01*
X130107396Y-55331288D01*
X130116332Y-55317534D01*
X130118427Y-55312796D01*
X130117588Y-55309467D01*
X130114319Y-55309392D01*
X130107490Y-55313445D01*
X130095973Y-55322504D01*
X130078638Y-55337444D01*
X130054356Y-55359142D01*
X130028414Y-55382642D01*
X129964242Y-55439979D01*
X129900486Y-55495092D01*
X129838571Y-55546828D01*
X129779919Y-55594034D01*
X129725956Y-55635558D01*
X129678106Y-55670246D01*
X129648420Y-55690225D01*
X129578591Y-55731074D01*
X129504335Y-55766118D01*
X129424711Y-55795563D01*
X129338775Y-55819616D01*
X129245587Y-55838484D01*
X129144204Y-55852372D01*
X129033684Y-55861489D01*
X128913086Y-55866039D01*
X128844128Y-55866671D01*
X128741682Y-55865893D01*
X128649708Y-55863438D01*
X128566499Y-55859211D01*
X128490345Y-55853118D01*
X128419540Y-55845064D01*
X128395820Y-55841780D01*
X128337845Y-55832478D01*
X128273972Y-55820690D01*
X128208046Y-55807227D01*
X128143906Y-55792900D01*
X128085396Y-55778519D01*
X128049243Y-55768681D01*
X128015162Y-55759428D01*
X127992462Y-55754498D01*
X127981038Y-55753877D01*
X127980781Y-55757547D01*
X127617370Y-55757547D01*
X127596419Y-55744910D01*
X127585182Y-55738387D01*
X127510761Y-55702492D01*
X127433807Y-55678573D01*
X127354633Y-55666694D01*
X127273554Y-55666922D01*
X127254047Y-55668763D01*
X127199308Y-55677177D01*
X127148766Y-55690280D01*
X127099001Y-55709300D01*
X127046592Y-55735465D01*
X127010937Y-55756014D01*
X126969235Y-55781623D01*
X126930085Y-55806743D01*
X126894558Y-55830586D01*
X126863721Y-55852361D01*
X126838642Y-55871279D01*
X126820391Y-55886550D01*
X126810036Y-55897386D01*
X126808646Y-55902996D01*
X126336092Y-55902996D01*
X126412444Y-55873350D01*
X126443987Y-55859301D01*
X126477812Y-55843004D01*
X126512028Y-55825507D01*
X126544745Y-55807862D01*
X126574073Y-55791119D01*
X126598122Y-55776328D01*
X126615002Y-55764540D01*
X126622823Y-55756805D01*
X126623025Y-55756324D01*
X126622136Y-55750985D01*
X126614175Y-55752708D01*
X126599492Y-55757502D01*
X126575028Y-55764353D01*
X126543010Y-55772725D01*
X126505662Y-55782080D01*
X126465210Y-55791882D01*
X126423878Y-55801594D01*
X126383893Y-55810678D01*
X126347480Y-55818598D01*
X126316863Y-55824816D01*
X126309922Y-55826126D01*
X126261316Y-55834850D01*
X126217167Y-55842113D01*
X126175649Y-55848046D01*
X126134936Y-55852781D01*
X126093202Y-55856447D01*
X126048621Y-55859178D01*
X125999365Y-55861104D01*
X125943610Y-55862357D01*
X125879529Y-55863069D01*
X125805296Y-55863369D01*
X125791952Y-55863389D01*
X125727482Y-55863421D01*
X125673736Y-55863316D01*
X125629156Y-55863011D01*
X125592185Y-55862446D01*
X125561266Y-55861560D01*
X125534839Y-55860293D01*
X125511347Y-55858582D01*
X125489233Y-55856368D01*
X125466939Y-55853589D01*
X125442906Y-55850185D01*
X125438833Y-55849583D01*
X125354008Y-55835815D01*
X125278031Y-55820572D01*
X125209047Y-55803000D01*
X125145203Y-55782244D01*
X125084643Y-55757450D01*
X125025514Y-55727765D01*
X124965960Y-55692333D01*
X124904128Y-55650300D01*
X124838163Y-55600812D01*
X124766210Y-55543015D01*
X124757160Y-55535542D01*
X124728725Y-55511684D01*
X124696657Y-55484242D01*
X124662623Y-55454698D01*
X124628289Y-55424531D01*
X124595323Y-55395222D01*
X124565393Y-55368251D01*
X124540164Y-55345099D01*
X124521305Y-55327246D01*
X124511977Y-55317830D01*
X124498277Y-55305264D01*
X124489625Y-55302139D01*
X124486947Y-55307736D01*
X123484622Y-55307736D01*
X123515479Y-55257729D01*
X123595854Y-55136465D01*
X123683344Y-55012723D01*
X123735192Y-54942508D01*
X123775765Y-54888873D01*
X123812277Y-54842026D01*
X123846695Y-54799712D01*
X123880985Y-54759674D01*
X123917116Y-54719658D01*
X123957053Y-54677407D01*
X124002765Y-54630666D01*
X124038060Y-54595259D01*
X124106031Y-54528725D01*
X124168202Y-54470777D01*
X124226165Y-54420193D01*
X124281512Y-54375747D01*
X124335834Y-54336218D01*
X124390722Y-54300381D01*
X124447769Y-54267013D01*
X124503380Y-54237516D01*
X124588598Y-54197223D01*
X124680008Y-54159490D01*
X124774382Y-54125418D01*
X124868489Y-54096106D01*
X124959098Y-54072654D01*
X125029712Y-54058361D01*
X125062924Y-54052769D01*
X125084684Y-54050043D01*
X125095655Y-54051018D01*
X125096500Y-54056526D01*
X125087880Y-54067400D01*
X125070458Y-54084476D01*
X125059018Y-54095256D01*
X125029276Y-54124400D01*
X124994232Y-54160614D01*
X124956212Y-54201340D01*
X124917541Y-54244023D01*
X124880543Y-54286104D01*
X124847546Y-54325026D01*
X124826771Y-54350669D01*
X124789471Y-54400479D01*
X124749031Y-54458882D01*
X124707130Y-54523170D01*
X124665448Y-54590637D01*
X124625662Y-54658577D01*
X124589453Y-54724285D01*
X124562883Y-54776069D01*
X124548395Y-54806270D01*
X124538827Y-54828728D01*
X124533208Y-54846481D01*
X124530568Y-54862563D01*
X124529935Y-54879127D01*
X124532268Y-54907760D01*
X124538523Y-54938051D01*
X124547582Y-54966446D01*
X124558329Y-54989391D01*
X124568743Y-55002628D01*
X124588455Y-55016006D01*
X124618699Y-55032755D01*
X124658332Y-55052429D01*
X124706211Y-55074582D01*
X124761195Y-55098768D01*
X124822140Y-55124540D01*
X124887905Y-55151452D01*
X124957346Y-55179058D01*
X125029322Y-55206911D01*
X125102689Y-55234566D01*
X125176306Y-55261577D01*
X125249029Y-55287497D01*
X125319717Y-55311879D01*
X125387227Y-55334278D01*
X125450416Y-55354248D01*
X125508142Y-55371341D01*
X125524502Y-55375919D01*
X125602003Y-55396356D01*
X125674341Y-55413318D01*
X125743534Y-55427005D01*
X125811601Y-55437619D01*
X125880562Y-55445363D01*
X125952436Y-55450437D01*
X126029242Y-55453043D01*
X126112999Y-55453383D01*
X126205728Y-55451659D01*
X126264231Y-55449800D01*
X126342008Y-55446973D01*
X126408288Y-55444446D01*
X126463853Y-55442177D01*
X126509484Y-55440123D01*
X126545963Y-55438244D01*
X126574069Y-55436497D01*
X126594585Y-55434840D01*
X126608292Y-55433233D01*
X126615971Y-55431632D01*
X126617670Y-55430902D01*
X126618573Y-55424819D01*
X126617034Y-55408918D01*
X126612987Y-55382825D01*
X126606366Y-55346166D01*
X126597105Y-55298566D01*
X126585136Y-55239652D01*
X126574957Y-55190750D01*
X126563914Y-55138217D01*
X126553548Y-55089130D01*
X126544153Y-55044863D01*
X126536024Y-55006792D01*
X126529454Y-54976292D01*
X126524738Y-54954739D01*
X126522168Y-54943507D01*
X126521906Y-54942508D01*
X126522496Y-54938871D01*
X126528450Y-54941782D01*
X126540149Y-54951623D01*
X126557978Y-54968776D01*
X126582320Y-54993625D01*
X126613559Y-55026550D01*
X126652076Y-55067936D01*
X126698257Y-55118165D01*
X126702101Y-55122366D01*
X126751027Y-55175255D01*
X126793595Y-55219759D01*
X126831188Y-55257029D01*
X126865189Y-55288215D01*
X126896984Y-55314466D01*
X126927956Y-55336934D01*
X126959489Y-55356767D01*
X126992967Y-55375116D01*
X127025580Y-55391159D01*
X127108411Y-55423709D01*
X127193279Y-55444435D01*
X127279294Y-55453438D01*
X127365567Y-55450823D01*
X127451207Y-55436692D01*
X127535325Y-55411150D01*
X127617031Y-55374298D01*
X127695434Y-55326241D01*
X127716427Y-55310977D01*
X127742040Y-55290569D01*
X127769124Y-55266613D01*
X127799111Y-55237712D01*
X127833436Y-55202467D01*
X127873532Y-55159480D01*
X127888004Y-55143655D01*
X127932484Y-55095143D01*
X127972349Y-55052316D01*
X128007072Y-55015707D01*
X128036129Y-54985850D01*
X128058994Y-54963278D01*
X128075143Y-54948526D01*
X128084051Y-54942127D01*
X128085710Y-54942672D01*
X128084486Y-54949812D01*
X128080988Y-54967647D01*
X128075487Y-54994854D01*
X128068254Y-55030115D01*
X128059561Y-55072107D01*
X128049678Y-55119509D01*
X128038878Y-55171000D01*
X128035584Y-55186648D01*
X128024689Y-55238997D01*
X128014837Y-55287590D01*
X128006272Y-55331117D01*
X127999242Y-55368269D01*
X127993991Y-55397736D01*
X127990767Y-55418209D01*
X127989814Y-55428379D01*
X127990009Y-55429225D01*
X127994880Y-55431162D01*
X128006044Y-55433060D01*
X128024227Y-55434959D01*
X128050157Y-55436902D01*
X128084561Y-55438932D01*
X128128167Y-55441089D01*
X128181702Y-55443416D01*
X128245894Y-55445955D01*
X128321469Y-55448747D01*
X128340550Y-55449430D01*
X128439812Y-55452232D01*
X128530763Y-55453043D01*
X128615090Y-55451579D01*
X128694481Y-55447558D01*
X128770622Y-55440695D01*
X128845200Y-55430706D01*
X128919902Y-55417308D01*
X128996416Y-55400218D01*
X129076429Y-55379150D01*
X129161627Y-55353823D01*
X129253697Y-55323952D01*
X129354328Y-55289253D01*
X129409118Y-55269740D01*
X129497124Y-55237683D01*
X129581444Y-55206102D01*
X129661287Y-55175337D01*
X129735858Y-55145726D01*
X129804362Y-55117608D01*
X129866006Y-55091322D01*
X129919997Y-55067206D01*
X129965540Y-55045599D01*
X130001842Y-55026841D01*
X130028108Y-55011269D01*
X130043545Y-54999224D01*
X130043919Y-54998828D01*
X130054048Y-54982880D01*
X130064111Y-54958716D01*
X130072875Y-54930346D01*
X130079108Y-54901782D01*
X130081576Y-54877034D01*
X130081580Y-54876286D01*
X130078089Y-54853477D01*
X130067560Y-54822039D01*
X130049902Y-54781798D01*
X130025028Y-54732579D01*
X129992849Y-54674205D01*
X129953276Y-54606500D01*
X129908143Y-54532394D01*
X129845995Y-54437902D01*
X129778164Y-54346494D01*
X129702972Y-54256094D01*
X129618740Y-54164626D01*
X129573035Y-54118168D01*
X129550173Y-54094920D01*
X129531477Y-54075001D01*
X129518212Y-54059835D01*
X129511642Y-54050846D01*
X129511623Y-54048988D01*
X129536915Y-54050976D01*
X129571714Y-54056479D01*
X129613925Y-54064990D01*
X129661449Y-54076001D01*
X129712190Y-54089004D01*
X129764051Y-54103493D01*
X129814934Y-54118958D01*
X129854059Y-54131876D01*
X129949165Y-54166576D01*
X130036360Y-54202876D01*
X130117479Y-54241938D01*
X130194355Y-54284924D01*
X130268823Y-54332995D01*
X130342718Y-54387313D01*
X130417874Y-54449040D01*
X130496126Y-54519336D01*
X130555603Y-54576093D01*
X130613620Y-54634070D01*
X130668713Y-54692284D01*
X130722318Y-54752453D01*
X130775870Y-54816296D01*
X130830808Y-54885533D01*
X130888566Y-54961883D01*
X130950582Y-55047064D01*
X130959256Y-55059190D01*
X131061828Y-55208685D01*
X131157521Y-55360503D01*
X131247285Y-55516419D01*
X131332068Y-55678204D01*
X131412819Y-55847633D01*
X131490487Y-56026479D01*
X131532761Y-56130830D01*
X131552174Y-56179595D01*
X131574337Y-56234744D01*
X131597421Y-56291758D01*
X131619597Y-56346117D01*
X131638047Y-56390921D01*
X131727508Y-56610201D01*
X131810198Y-56820007D01*
X131886340Y-57020958D01*
X131956159Y-57213675D01*
X132019879Y-57398778D01*
X132077726Y-57576888D01*
X132129923Y-57748624D01*
X132132737Y-57758247D01*
X132148245Y-57811059D01*
X132165960Y-57870820D01*
X132184544Y-57933054D01*
X132202661Y-57993285D01*
X132218972Y-58047035D01*
X132221741Y-58056096D01*
X132258825Y-58179166D01*
X132291467Y-58291616D01*
X132319852Y-58394202D01*
X132344166Y-58487682D01*
X132364596Y-58572811D01*
X132381327Y-58650346D01*
X132394545Y-58721045D01*
X132404437Y-58785662D01*
X132407857Y-58812998D01*
X132409907Y-58834522D01*
X132410566Y-58850327D01*
X132409725Y-58857400D01*
X132409477Y-58857522D01*
X132402852Y-58855154D01*
X132387232Y-58848674D01*
X132364817Y-58839018D01*
X132337807Y-58827124D01*
X132332286Y-58824666D01*
X132261498Y-58794045D01*
X132186264Y-58763214D01*
X132110264Y-58733601D01*
X132037175Y-58706633D01*
X131970677Y-58683737D01*
X131960787Y-58680512D01*
X131892837Y-58658687D01*
X131834254Y-58640225D01*
X131782784Y-58624504D01*
X131736177Y-58610903D01*
X131692178Y-58598799D01*
X131648537Y-58587572D01*
X131603001Y-58576599D01*
X131553318Y-58565260D01*
X131503267Y-58554242D01*
X131426651Y-58537634D01*
X131360470Y-58523453D01*
X131303176Y-58511431D01*
X131253222Y-58501299D01*
X131209059Y-58492788D01*
X131169139Y-58485630D01*
X131131916Y-58479557D01*
X131095840Y-58474299D01*
X131059364Y-58469588D01*
X131020940Y-58465156D01*
X130979021Y-58460734D01*
X130944418Y-58457269D01*
X130912454Y-58454900D01*
X130870154Y-58452954D01*
X130819457Y-58451432D01*
X130762302Y-58450334D01*
X130700627Y-58449659D01*
X130636372Y-58449408D01*
X130571476Y-58449581D01*
X130507877Y-58450178D01*
X130447515Y-58451198D01*
X130392328Y-58452643D01*
X130344256Y-58454512D01*
X130305237Y-58456805D01*
X130299592Y-58457241D01*
X130240806Y-58462203D01*
X130186784Y-58467185D01*
X130138679Y-58472052D01*
X130097648Y-58476671D01*
X130064844Y-58480908D01*
X130041422Y-58484630D01*
X130028537Y-58487701D01*
X130026425Y-58488920D01*
X130024134Y-58495461D01*
X130018462Y-58512836D01*
X130009690Y-58540157D01*
X129998099Y-58576534D01*
X129983970Y-58621078D01*
X129967586Y-58672900D01*
X129949226Y-58731111D01*
X129929173Y-58794821D01*
X129907708Y-58863143D01*
X129885112Y-58935186D01*
X129875940Y-58964464D01*
X129728641Y-59434795D01*
X129579511Y-59434795D01*
X129506597Y-59399483D01*
X129476731Y-59385146D01*
X129454792Y-59375335D01*
X129437664Y-59369195D01*
X129422235Y-59365868D01*
X129405389Y-59364500D01*
X129384013Y-59364232D01*
X129378412Y-59364236D01*
X129350550Y-59364677D01*
X129330502Y-59366566D01*
X129313812Y-59370872D01*
X129296021Y-59378562D01*
X129283770Y-59384783D01*
X129252422Y-59404093D01*
X129220641Y-59428783D01*
X129192002Y-59455717D01*
X129170080Y-59481761D01*
X129165721Y-59488322D01*
X129157002Y-59500655D01*
X129150823Y-59506220D01*
X129149790Y-59506068D01*
X129149716Y-59498647D01*
X129153276Y-59482706D01*
X129159544Y-59461131D01*
X129167594Y-59436807D01*
X129176500Y-59412618D01*
X129185336Y-59391450D01*
X129189148Y-59383469D01*
X129214299Y-59344265D01*
X129246579Y-59309872D01*
X129283390Y-59282453D01*
X129322136Y-59264171D01*
X129337595Y-59259900D01*
X129385102Y-59255437D01*
X129434470Y-59261171D01*
X129481954Y-59276370D01*
X129515911Y-59294748D01*
X129531725Y-59303933D01*
X129543427Y-59308256D01*
X129547211Y-59307736D01*
X129549331Y-59301437D01*
X129554646Y-59284042D01*
X129562959Y-59256231D01*
X129574073Y-59218685D01*
X129587791Y-59172084D01*
X129603916Y-59117109D01*
X129622251Y-59054439D01*
X129642598Y-58984756D01*
X129664762Y-58908739D01*
X129688545Y-58827070D01*
X129713749Y-58740428D01*
X129740179Y-58649494D01*
X129767636Y-58554948D01*
X129795925Y-58457472D01*
X129824848Y-58357744D01*
X129854207Y-58256447D01*
X129883807Y-58154259D01*
X129913449Y-58051862D01*
X129942938Y-57949935D01*
X129972076Y-57849160D01*
X130000666Y-57750217D01*
X130028510Y-57653786D01*
X130055413Y-57560547D01*
X130081177Y-57471181D01*
X130105605Y-57386369D01*
X130128500Y-57306791D01*
X130149665Y-57233126D01*
X130168904Y-57166057D01*
X130186018Y-57106262D01*
X130200812Y-57054423D01*
X130213087Y-57011220D01*
X130222648Y-56977333D01*
X130229297Y-56953443D01*
X130232837Y-56940230D01*
X130233380Y-56937692D01*
X130230922Y-56943094D01*
X130224100Y-56959333D01*
X130213141Y-56985851D01*
X130198270Y-57022091D01*
X130179713Y-57067497D01*
X130157697Y-57121512D01*
X130132447Y-57183579D01*
X130104189Y-57253142D01*
X130073150Y-57329643D01*
X130039555Y-57412527D01*
X130003631Y-57501236D01*
X129965603Y-57595214D01*
X129925698Y-57693904D01*
X129884141Y-57796749D01*
X129841159Y-57903193D01*
X129802292Y-57999506D01*
X129758070Y-58109111D01*
X129714991Y-58215875D01*
X129673287Y-58319220D01*
X129633191Y-58418570D01*
X129594935Y-58513350D01*
X129558752Y-58602982D01*
X129524874Y-58686892D01*
X129493535Y-58764502D01*
X129464968Y-58835236D01*
X129439403Y-58898518D01*
X129417076Y-58953773D01*
X129398217Y-59000423D01*
X129383061Y-59037893D01*
X129371839Y-59065607D01*
X129364784Y-59082987D01*
X129362253Y-59089169D01*
X129351370Y-59115087D01*
X128849218Y-58610156D01*
X128774813Y-58535342D01*
X128696625Y-58456730D01*
X128615841Y-58375512D01*
X128533647Y-58292881D01*
X128451229Y-58210029D01*
X128369773Y-58128149D01*
X128290466Y-58048433D01*
X128214495Y-57972073D01*
X128143045Y-57900263D01*
X128077302Y-57834194D01*
X128018454Y-57775059D01*
X127992554Y-57749036D01*
X127638043Y-57392846D01*
X127648080Y-57352928D01*
X127653869Y-57320187D01*
X127657333Y-57279870D01*
X127658476Y-57235887D01*
X127657301Y-57192152D01*
X127653812Y-57152577D01*
X127648012Y-57121074D01*
X127647869Y-57120541D01*
X127625477Y-57059015D01*
X127593396Y-57002318D01*
X127562256Y-56962904D01*
X127521618Y-56924149D01*
X127478835Y-56895199D01*
X127431917Y-56875252D01*
X127378876Y-56863500D01*
X127317722Y-56859141D01*
X127305758Y-56859079D01*
X127240190Y-56862767D01*
X127183408Y-56873794D01*
X127133878Y-56892832D01*
X127090067Y-56920557D01*
X127050444Y-56957642D01*
X127032063Y-56979473D01*
X126996375Y-57034702D01*
X126970519Y-57096480D01*
X126954717Y-57163703D01*
X126949193Y-57235271D01*
X126954169Y-57310081D01*
X126959104Y-57340428D01*
X126968640Y-57390697D01*
X126885401Y-57477749D01*
X126872185Y-57491390D01*
X126850799Y-57513227D01*
X126821743Y-57542757D01*
X126785516Y-57579477D01*
X126742617Y-57622881D01*
X126693545Y-57672467D01*
X126638802Y-57727730D01*
X126578885Y-57788167D01*
X126514295Y-57853274D01*
X126445531Y-57922547D01*
X126373092Y-57995483D01*
X126297478Y-58071577D01*
X126219189Y-58150326D01*
X126138724Y-58231227D01*
X126056583Y-58313774D01*
X126029915Y-58340565D01*
X125257668Y-59116331D01*
X124819070Y-58028913D01*
X124774535Y-57918537D01*
X124731222Y-57811266D01*
X124689353Y-57707649D01*
X124649152Y-57608238D01*
X124610843Y-57513584D01*
X124574650Y-57424235D01*
X124540796Y-57340744D01*
X124509505Y-57263660D01*
X124481000Y-57193534D01*
X124455506Y-57130917D01*
X124433245Y-57076359D01*
X124414441Y-57030410D01*
X124399318Y-56993621D01*
X124388100Y-56966543D01*
X124381010Y-56949726D01*
X124378272Y-56943721D01*
X124378252Y-56943716D01*
X124379751Y-56949679D01*
X124384472Y-56966758D01*
X124392220Y-56994272D01*
X124402798Y-57031541D01*
X124416009Y-57077883D01*
X124431656Y-57132618D01*
X124449544Y-57195065D01*
X124469475Y-57264543D01*
X124491252Y-57340372D01*
X124514680Y-57421870D01*
X124539562Y-57508356D01*
X124565701Y-57599151D01*
X124592900Y-57693573D01*
X124620963Y-57790941D01*
X124649694Y-57890574D01*
X124678895Y-57991792D01*
X124708371Y-58093915D01*
X124737924Y-58196260D01*
X124767359Y-58298147D01*
X124796478Y-58398896D01*
X124825085Y-58497826D01*
X124852983Y-58594255D01*
X124879976Y-58687503D01*
X124905867Y-58776890D01*
X124930460Y-58861734D01*
X124953558Y-58941355D01*
X124974965Y-59015071D01*
X124994483Y-59082203D01*
X125011917Y-59142068D01*
X125027069Y-59193987D01*
X125039744Y-59237279D01*
X125049744Y-59271262D01*
X125056874Y-59295256D01*
X125060935Y-59308581D01*
X125061832Y-59311192D01*
X125067481Y-59309350D01*
X125080179Y-59302217D01*
X125092845Y-59294168D01*
X125137507Y-59271318D01*
X125186955Y-59259118D01*
X125224775Y-59256700D01*
X125275320Y-59262262D01*
X125320636Y-59278911D01*
X125360666Y-59306596D01*
X125395352Y-59345264D01*
X125424638Y-59394864D01*
X125448467Y-59455343D01*
X125451248Y-59464292D01*
X125457423Y-59485899D01*
X125461487Y-59502431D01*
X125462716Y-59510871D01*
X125462560Y-59511320D01*
X125458233Y-59507879D01*
X125449223Y-59496740D01*
X125439343Y-59482978D01*
X125401276Y-59438361D01*
X125354011Y-59401516D01*
X125322807Y-59384037D01*
X125300744Y-59373895D01*
X125282397Y-59367916D01*
X125262799Y-59365036D01*
X125236979Y-59364190D01*
X125230123Y-59364171D01*
X125208444Y-59364383D01*
X125191384Y-59365591D01*
X125175883Y-59368651D01*
X125158883Y-59374420D01*
X125137323Y-59383755D01*
X125108146Y-59397511D01*
X125104023Y-59399483D01*
X125030213Y-59434795D01*
X124955512Y-59434795D01*
X124923736Y-59434608D01*
X124902165Y-59433856D01*
X124888727Y-59432254D01*
X124881347Y-59429516D01*
X124877954Y-59425357D01*
X124877481Y-59424048D01*
X124864159Y-59381155D01*
X124848743Y-59331677D01*
X124831563Y-59276660D01*
X124812949Y-59217154D01*
X124793231Y-59154206D01*
X124772739Y-59088864D01*
X124751803Y-59022176D01*
X124730752Y-58955191D01*
X124709917Y-58888957D01*
X124689627Y-58824521D01*
X124670213Y-58762933D01*
X124652004Y-58705239D01*
X124635331Y-58652488D01*
X124620523Y-58605729D01*
X124607910Y-58566009D01*
X124597822Y-58534376D01*
X124590590Y-58511879D01*
X124586543Y-58499565D01*
X124585836Y-58497598D01*
X124581175Y-58491000D01*
X124572361Y-58486185D01*
X124556866Y-58482318D01*
X124532160Y-58478561D01*
X124525858Y-58477744D01*
X124458138Y-58469776D01*
X124391166Y-58463316D01*
X124322796Y-58458252D01*
X124250882Y-58454472D01*
X124173278Y-58451865D01*
X124087838Y-58450319D01*
X123992417Y-58449723D01*
X123986439Y-58449716D01*
X123906213Y-58449870D01*
X123834282Y-58450650D01*
X123768886Y-58452258D01*
X123708263Y-58454896D01*
X123650652Y-58458766D01*
X123594291Y-58464071D01*
X123537419Y-58471013D01*
X123478275Y-58479793D01*
X123415097Y-58490615D01*
X123346124Y-58503681D01*
X123269595Y-58519192D01*
X123183747Y-58537352D01*
X123138777Y-58547055D01*
X123086845Y-58558455D01*
X123036769Y-58569719D01*
X122990307Y-58580429D01*
X122949218Y-58590171D01*
X122915260Y-58598529D01*
X122890192Y-58605087D01*
X122877953Y-58608682D01*
X122856102Y-58615663D01*
X122825674Y-58625153D01*
X122789863Y-58636165D01*
X122751869Y-58647714D01*
X122729093Y-58654570D01*
X122621118Y-58689382D01*
X122504721Y-58731564D01*
X122380993Y-58780711D01*
X122319104Y-58806749D01*
X122284981Y-58821341D01*
X122254444Y-58834375D01*
X122229407Y-58845034D01*
X122211782Y-58852506D01*
X122203482Y-58855975D01*
X122203406Y-58856005D01*
X122199736Y-58854945D01*
X122198076Y-58847426D01*
X122198526Y-58832448D01*
X122201188Y-58809012D01*
X122206160Y-58776117D01*
X122213545Y-58732764D01*
X122218691Y-58703992D01*
X122232803Y-58630562D01*
X122248893Y-58555753D01*
X122267404Y-58477844D01*
X122288776Y-58395110D01*
X122313452Y-58305831D01*
X122341875Y-58208284D01*
X122368390Y-58120578D01*
X122383778Y-58070094D01*
X122400275Y-58015488D01*
X122416819Y-57960310D01*
X122432350Y-57908104D01*
X122445805Y-57862418D01*
X122451104Y-57844224D01*
X122512833Y-57637511D01*
X122576069Y-57438496D01*
X122642126Y-57243370D01*
X122712317Y-57048323D01*
X122787954Y-56849546D01*
X122834187Y-56732667D01*
X122882150Y-56613016D01*
X122925865Y-56504102D01*
X122965616Y-56405251D01*
X123001691Y-56315786D01*
X123034375Y-56235031D01*
X123063955Y-56162310D01*
X123067482Y-56153695D01*
X124515272Y-56153695D01*
X124517372Y-56158296D01*
X124523713Y-56166655D01*
X124534824Y-56179329D01*
X124551229Y-56196871D01*
X124573456Y-56219837D01*
X124602030Y-56248782D01*
X124637478Y-56284262D01*
X124680327Y-56326831D01*
X124731102Y-56377045D01*
X124769308Y-56414738D01*
X125015193Y-56657161D01*
X125182489Y-56615849D01*
X125272695Y-56594139D01*
X125353687Y-56575911D01*
X125427880Y-56560685D01*
X125497685Y-56547980D01*
X125565516Y-56537318D01*
X125603816Y-56532023D01*
X125639305Y-56528311D01*
X125682390Y-56525337D01*
X125730811Y-56523117D01*
X125782306Y-56521666D01*
X125834616Y-56521001D01*
X125885479Y-56521136D01*
X125932635Y-56522087D01*
X125973823Y-56523868D01*
X126006783Y-56526497D01*
X126025317Y-56529143D01*
X126117347Y-56548793D01*
X126220150Y-56574088D01*
X126301454Y-56595971D01*
X126405636Y-56624908D01*
X126375148Y-56632927D01*
X126274461Y-56662520D01*
X126184087Y-56695902D01*
X126102416Y-56733912D01*
X126027838Y-56777389D01*
X125958742Y-56827172D01*
X125894109Y-56883538D01*
X125833634Y-56945117D01*
X125778930Y-57009813D01*
X125728787Y-57079452D01*
X125681996Y-57155859D01*
X125637347Y-57240859D01*
X125593630Y-57336278D01*
X125592800Y-57338204D01*
X125556116Y-57427646D01*
X125524008Y-57515381D01*
X125495945Y-57603492D01*
X125471397Y-57694061D01*
X125449831Y-57789170D01*
X125430718Y-57890903D01*
X125413525Y-58001341D01*
X125402391Y-58084601D01*
X125398616Y-58115900D01*
X125394422Y-58152925D01*
X125390025Y-58193526D01*
X125385640Y-58235559D01*
X125381480Y-58276875D01*
X125377761Y-58315328D01*
X125374698Y-58348771D01*
X125372505Y-58375057D01*
X125371396Y-58392039D01*
X125371305Y-58395397D01*
X125374382Y-58402512D01*
X125380825Y-58400921D01*
X125386096Y-58392326D01*
X125388222Y-58384576D01*
X125393170Y-58366017D01*
X125400657Y-58337724D01*
X125410399Y-58300770D01*
X125422115Y-58256231D01*
X125435521Y-58205181D01*
X125450336Y-58148695D01*
X125466276Y-58087847D01*
X125481757Y-58028685D01*
X125501207Y-57954413D01*
X125517928Y-57890871D01*
X125532271Y-57836898D01*
X125544584Y-57791334D01*
X125555218Y-57753018D01*
X125564522Y-57720790D01*
X125572845Y-57693488D01*
X125580538Y-57669953D01*
X125587949Y-57649024D01*
X125595428Y-57629539D01*
X125603325Y-57610340D01*
X125611989Y-57590264D01*
X125617704Y-57577307D01*
X125670237Y-57462674D01*
X125721219Y-57359588D01*
X125771070Y-57267475D01*
X125820212Y-57185757D01*
X125869064Y-57113861D01*
X125918049Y-57051210D01*
X125967587Y-56997230D01*
X126018099Y-56951343D01*
X126070006Y-56912976D01*
X126123728Y-56881551D01*
X126128151Y-56879303D01*
X126154300Y-56866458D01*
X126189338Y-56849686D01*
X126230937Y-56830064D01*
X126276770Y-56808666D01*
X126324508Y-56786567D01*
X126371822Y-56764845D01*
X126416385Y-56744572D01*
X126455868Y-56726826D01*
X126487942Y-56712682D01*
X126501260Y-56706963D01*
X126545600Y-56687584D01*
X126579253Y-56671199D01*
X126603202Y-56656970D01*
X126618431Y-56644061D01*
X126625921Y-56631634D01*
X126625945Y-56631215D01*
X127983781Y-56631215D01*
X127986060Y-56638102D01*
X127990036Y-56644467D01*
X127996983Y-56651036D01*
X128008175Y-56658535D01*
X128024884Y-56667689D01*
X128048384Y-56679225D01*
X128079948Y-56693868D01*
X128120850Y-56712344D01*
X128145368Y-56723322D01*
X128230868Y-56761826D01*
X128307309Y-56796840D01*
X128374325Y-56828184D01*
X128431547Y-56855682D01*
X128478607Y-56879155D01*
X128515137Y-56898425D01*
X128540768Y-56913316D01*
X128546545Y-56917083D01*
X128607313Y-56964568D01*
X128667208Y-57023919D01*
X128726289Y-57095216D01*
X128784613Y-57178537D01*
X128842239Y-57273959D01*
X128899227Y-57381561D01*
X128907308Y-57397909D01*
X128932446Y-57449299D01*
X128954118Y-57494127D01*
X128972862Y-57533909D01*
X128989215Y-57570164D01*
X129003713Y-57604410D01*
X129016896Y-57638164D01*
X129029299Y-57672944D01*
X129041460Y-57710268D01*
X129053916Y-57751655D01*
X129067206Y-57798621D01*
X129081865Y-57852684D01*
X129098431Y-57915364D01*
X129117442Y-57988176D01*
X129120736Y-58000825D01*
X129141610Y-58081011D01*
X129159613Y-58150133D01*
X129174970Y-58209011D01*
X129187906Y-58258467D01*
X129198649Y-58299321D01*
X129207424Y-58332395D01*
X129214458Y-58358508D01*
X129219976Y-58378482D01*
X129224205Y-58393138D01*
X129227371Y-58403297D01*
X129229700Y-58409779D01*
X129231418Y-58413406D01*
X129232751Y-58414998D01*
X129233927Y-58415376D01*
X129234938Y-58415356D01*
X129237374Y-58409721D01*
X129238031Y-58394622D01*
X129236883Y-58373903D01*
X129222324Y-58224066D01*
X129206428Y-58086351D01*
X129189180Y-57960665D01*
X129170567Y-57846920D01*
X129150574Y-57745024D01*
X129129186Y-57654888D01*
X129113610Y-57599507D01*
X129088492Y-57522601D01*
X129059035Y-57442839D01*
X129026323Y-57362635D01*
X128991441Y-57284402D01*
X128955472Y-57210555D01*
X128919503Y-57143506D01*
X128884616Y-57085670D01*
X128878635Y-57076574D01*
X128810917Y-56984628D01*
X128737288Y-56903183D01*
X128657215Y-56831866D01*
X128570171Y-56770302D01*
X128475623Y-56718115D01*
X128373043Y-56674931D01*
X128261899Y-56640376D01*
X128260806Y-56640090D01*
X128205628Y-56625644D01*
X128242383Y-56614291D01*
X128270706Y-56605994D01*
X128308016Y-56595714D01*
X128351330Y-56584213D01*
X128397661Y-56572253D01*
X128444027Y-56560595D01*
X128487440Y-56550000D01*
X128524918Y-56541229D01*
X128551715Y-56535399D01*
X128592558Y-56528897D01*
X128643552Y-56523814D01*
X128702625Y-56520347D01*
X128718233Y-56519762D01*
X128792509Y-56518689D01*
X128866653Y-56520633D01*
X128942200Y-56525807D01*
X129020683Y-56534425D01*
X129103636Y-56546699D01*
X129192593Y-56562842D01*
X129289087Y-56583068D01*
X129394651Y-56607590D01*
X129452107Y-56621726D01*
X129593354Y-56657047D01*
X129844134Y-56410975D01*
X129890379Y-56365511D01*
X129934061Y-56322398D01*
X129974378Y-56282439D01*
X130010527Y-56246437D01*
X130041706Y-56215196D01*
X130067113Y-56189519D01*
X130085945Y-56170210D01*
X130097399Y-56158072D01*
X130100672Y-56154145D01*
X130103350Y-56146485D01*
X130097443Y-56146853D01*
X130096091Y-56147355D01*
X130089176Y-56151683D01*
X130073370Y-56162548D01*
X130049687Y-56179223D01*
X130019142Y-56200984D01*
X129982748Y-56227105D01*
X129941520Y-56256860D01*
X129896473Y-56289524D01*
X129848620Y-56324372D01*
X129848427Y-56324513D01*
X129800473Y-56359480D01*
X129755268Y-56392392D01*
X129713836Y-56422506D01*
X129677202Y-56449079D01*
X129646391Y-56471369D01*
X129622427Y-56488633D01*
X129606336Y-56500129D01*
X129599157Y-56505106D01*
X129593058Y-56507263D01*
X129583437Y-56507483D01*
X129568669Y-56505469D01*
X129547125Y-56500922D01*
X129517181Y-56493543D01*
X129477210Y-56483033D01*
X129473450Y-56482027D01*
X129384762Y-56458899D01*
X129305361Y-56439717D01*
X129233021Y-56424156D01*
X129165510Y-56411894D01*
X129100602Y-56402608D01*
X129036066Y-56395975D01*
X128969674Y-56391672D01*
X128899196Y-56389377D01*
X128829622Y-56388760D01*
X128732613Y-56390213D01*
X128644461Y-56394847D01*
X128562054Y-56403075D01*
X128482284Y-56415312D01*
X128402038Y-56431971D01*
X128318208Y-56453465D01*
X128296159Y-56459690D01*
X128220011Y-56482975D01*
X128153842Y-56506198D01*
X128097979Y-56529181D01*
X128052748Y-56551742D01*
X128018477Y-56573703D01*
X127995492Y-56594885D01*
X127984121Y-56615108D01*
X127983781Y-56631215D01*
X126625945Y-56631215D01*
X126626656Y-56618851D01*
X126621619Y-56604874D01*
X126621445Y-56604536D01*
X126606815Y-56586665D01*
X126581341Y-56567334D01*
X126546306Y-56547026D01*
X126502994Y-56526225D01*
X126452688Y-56505417D01*
X126396671Y-56485084D01*
X126336227Y-56465712D01*
X126272638Y-56447784D01*
X126207189Y-56431786D01*
X126141162Y-56418200D01*
X126115601Y-56413671D01*
X126061208Y-56405130D01*
X126010323Y-56398650D01*
X125959819Y-56394004D01*
X125906566Y-56390960D01*
X125847437Y-56389289D01*
X125779301Y-56388761D01*
X125776599Y-56388760D01*
X125702646Y-56389421D01*
X125635693Y-56391626D01*
X125573263Y-56395713D01*
X125512881Y-56402015D01*
X125452071Y-56410869D01*
X125388358Y-56422610D01*
X125319266Y-56437574D01*
X125242320Y-56456095D01*
X125199326Y-56467002D01*
X125156580Y-56477865D01*
X125117099Y-56487657D01*
X125082644Y-56495961D01*
X125054970Y-56502361D01*
X125035838Y-56506440D01*
X125027373Y-56507781D01*
X125019796Y-56505251D01*
X125005294Y-56497180D01*
X124983445Y-56483278D01*
X124953825Y-56463255D01*
X124916010Y-56436821D01*
X124869576Y-56403685D01*
X124814100Y-56363558D01*
X124772092Y-56332932D01*
X124723974Y-56297835D01*
X124678650Y-56264917D01*
X124637127Y-56234899D01*
X124600414Y-56208504D01*
X124569518Y-56186454D01*
X124545448Y-56169472D01*
X124529211Y-56158279D01*
X124521815Y-56153597D01*
X124521696Y-56153547D01*
X124516889Y-56152297D01*
X124515272Y-56153695D01*
X123067482Y-56153695D01*
X123088659Y-56101973D01*
X126956948Y-56101973D01*
X126957026Y-56105833D01*
X126966268Y-56104202D01*
X126966456Y-56104140D01*
X126975439Y-56101489D01*
X126994318Y-56096140D01*
X127021142Y-56088637D01*
X127053962Y-56079526D01*
X127090826Y-56069351D01*
X127100027Y-56066820D01*
X127157891Y-56051268D01*
X127205752Y-56039278D01*
X127245268Y-56030554D01*
X127278098Y-56024802D01*
X127305901Y-56021726D01*
X127330333Y-56021029D01*
X127350460Y-56022159D01*
X127369024Y-56024968D01*
X127397044Y-56030542D01*
X127432157Y-56038307D01*
X127472000Y-56047685D01*
X127514208Y-56058102D01*
X127556420Y-56068981D01*
X127596271Y-56079747D01*
X127631400Y-56089824D01*
X127644266Y-56093740D01*
X127667813Y-56100498D01*
X127682315Y-56103119D01*
X127687523Y-56101255D01*
X127683192Y-56094558D01*
X127669075Y-56082680D01*
X127644925Y-56065274D01*
X127610495Y-56041992D01*
X127604935Y-56038306D01*
X127552903Y-56005136D01*
X127507719Y-55979441D01*
X127467166Y-55960406D01*
X127429031Y-55947215D01*
X127391098Y-55939051D01*
X127351154Y-55935099D01*
X127322948Y-55934402D01*
X127275628Y-55936116D01*
X127234980Y-55942187D01*
X127195828Y-55953737D01*
X127155298Y-55970814D01*
X127131082Y-55983004D01*
X127104393Y-55997919D01*
X127076525Y-56014648D01*
X127048769Y-56032277D01*
X127022421Y-56049893D01*
X126998771Y-56066583D01*
X126979114Y-56081435D01*
X126964742Y-56093536D01*
X126956948Y-56101973D01*
X123088659Y-56101973D01*
X123090717Y-56096947D01*
G37*
G36*
X127449576Y-59650629D02*
G01*
X127596808Y-59650687D01*
X127739685Y-59650782D01*
X127876136Y-59650914D01*
X128004091Y-59651082D01*
X128102346Y-59651250D01*
X128916369Y-59652807D01*
X128109528Y-60079085D01*
X128016778Y-60128086D01*
X127927000Y-60175516D01*
X127840793Y-60221058D01*
X127758757Y-60264394D01*
X127681492Y-60305209D01*
X127609597Y-60343185D01*
X127543672Y-60378006D01*
X127484315Y-60409355D01*
X127432128Y-60436917D01*
X127387708Y-60460373D01*
X127351655Y-60479408D01*
X127324570Y-60493704D01*
X127307051Y-60502946D01*
X127299698Y-60506816D01*
X127299507Y-60506915D01*
X127293793Y-60504305D01*
X127277787Y-60496324D01*
X127252083Y-60483278D01*
X127217280Y-60465477D01*
X127173973Y-60443228D01*
X127122759Y-60416841D01*
X127064234Y-60386622D01*
X126998995Y-60352882D01*
X126927639Y-60315927D01*
X126850761Y-60276067D01*
X126768959Y-60233610D01*
X126682830Y-60188864D01*
X126592969Y-60142137D01*
X126499973Y-60093738D01*
X126474814Y-60080638D01*
X125653302Y-59652807D01*
X126470812Y-59651250D01*
X126590592Y-59651051D01*
X126720502Y-59650889D01*
X126858473Y-59650763D01*
X127002435Y-59650674D01*
X127150319Y-59650623D01*
X127300056Y-59650607D01*
X127449576Y-59650629D01*
G37*
G36*
X127489993Y-59183006D02*
G01*
X127109239Y-59183006D01*
X127109239Y-57684553D01*
X127489993Y-57684553D01*
X127489993Y-59183006D01*
G37*
G36*
X127746647Y-57823901D02*
G01*
X127759630Y-57835962D01*
X127779143Y-57854845D01*
X127804174Y-57879553D01*
X127833713Y-57909088D01*
X127866748Y-57942455D01*
X127897805Y-57974089D01*
X128048843Y-58128519D01*
X128048843Y-59183006D01*
X127735641Y-59183006D01*
X127735641Y-58501333D01*
X127735691Y-58400490D01*
X127735836Y-58305726D01*
X127736071Y-58217621D01*
X127736393Y-58136757D01*
X127736796Y-58063717D01*
X127737275Y-57999081D01*
X127737826Y-57943433D01*
X127738444Y-57897353D01*
X127739124Y-57861423D01*
X127739862Y-57836226D01*
X127740653Y-57822342D01*
X127741205Y-57819659D01*
X127746647Y-57823901D01*
G37*
G36*
X126869732Y-59183006D02*
G01*
X126562672Y-59183006D01*
X126562672Y-58123557D01*
X126869732Y-57816681D01*
X126869732Y-59183006D01*
G37*
G36*
X127426198Y-59324261D02*
G01*
X127567985Y-59324285D01*
X127706063Y-59324323D01*
X127839942Y-59324375D01*
X127969134Y-59324441D01*
X128093148Y-59324520D01*
X128211495Y-59324611D01*
X128323686Y-59324714D01*
X128429230Y-59324828D01*
X128527639Y-59324952D01*
X128618422Y-59325086D01*
X128701090Y-59325228D01*
X128775153Y-59325380D01*
X128840122Y-59325539D01*
X128895506Y-59325705D01*
X128940818Y-59325877D01*
X128975566Y-59326056D01*
X128999262Y-59326239D01*
X129011415Y-59326427D01*
X129013011Y-59326525D01*
X129011382Y-59332978D01*
X129006970Y-59348695D01*
X129000491Y-59371166D01*
X128994232Y-59392543D01*
X128984847Y-59424410D01*
X128975202Y-59457171D01*
X128966770Y-59485827D01*
X128963266Y-59497742D01*
X128951079Y-59539195D01*
X127278276Y-59539195D01*
X127108530Y-59539193D01*
X126950638Y-59539183D01*
X126804172Y-59539163D01*
X126668702Y-59539130D01*
X126543800Y-59539082D01*
X126429037Y-59539016D01*
X126323985Y-59538929D01*
X126228216Y-59538818D01*
X126141300Y-59538681D01*
X126062810Y-59538514D01*
X125992316Y-59538316D01*
X125929390Y-59538082D01*
X125873603Y-59537812D01*
X125824527Y-59537501D01*
X125781733Y-59537147D01*
X125744793Y-59536748D01*
X125713278Y-59536300D01*
X125686759Y-59535801D01*
X125664808Y-59535248D01*
X125646996Y-59534638D01*
X125632895Y-59533969D01*
X125622076Y-59533238D01*
X125614110Y-59532442D01*
X125608570Y-59531578D01*
X125605025Y-59530644D01*
X125603049Y-59529636D01*
X125602211Y-59528553D01*
X125602176Y-59528448D01*
X125598904Y-59516977D01*
X125593512Y-59497210D01*
X125586632Y-59471556D01*
X125578899Y-59442423D01*
X125570945Y-59412218D01*
X125563404Y-59383351D01*
X125556908Y-59358229D01*
X125552092Y-59339261D01*
X125549588Y-59328855D01*
X125549375Y-59327655D01*
X125555434Y-59327370D01*
X125573287Y-59327092D01*
X125602442Y-59326821D01*
X125642411Y-59326558D01*
X125692704Y-59326304D01*
X125752832Y-59326060D01*
X125822304Y-59325828D01*
X125900631Y-59325607D01*
X125987324Y-59325400D01*
X126081893Y-59325207D01*
X126183849Y-59325028D01*
X126292700Y-59324866D01*
X126407959Y-59324721D01*
X126529136Y-59324593D01*
X126655741Y-59324484D01*
X126787283Y-59324395D01*
X126923275Y-59324327D01*
X127063225Y-59324280D01*
X127206645Y-59324256D01*
X127281193Y-59324253D01*
X127426198Y-59324261D01*
G37*
G36*
X128469515Y-58482909D02*
G01*
X128626115Y-58639419D01*
X128626115Y-59183006D01*
X128312914Y-59183006D01*
X128312914Y-58326399D01*
X128469515Y-58482909D01*
G37*
G36*
X123005170Y-53937523D02*
G01*
X123039769Y-53890369D01*
X123075166Y-53842848D01*
X123112111Y-53793893D01*
X123151354Y-53742438D01*
X123184820Y-53698872D01*
X123243458Y-53622153D01*
X123294617Y-53553868D01*
X123338829Y-53493137D01*
X123376629Y-53439082D01*
X123408547Y-53390826D01*
X123435117Y-53347491D01*
X123456870Y-53308198D01*
X123474339Y-53272070D01*
X123488057Y-53238229D01*
X123498556Y-53205796D01*
X123506368Y-53173894D01*
X123507943Y-53166004D01*
X123510888Y-53149095D01*
X123515356Y-53121400D01*
X123521147Y-53084291D01*
X123528058Y-53039143D01*
X123535889Y-52987329D01*
X123544436Y-52930223D01*
X123553500Y-52869199D01*
X123562877Y-52805631D01*
X123572367Y-52740892D01*
X123581768Y-52676356D01*
X123590878Y-52613396D01*
X123599496Y-52553388D01*
X123607420Y-52497703D01*
X123614448Y-52447716D01*
X123620379Y-52404801D01*
X123625011Y-52370331D01*
X123627119Y-52353992D01*
X123630472Y-52327676D01*
X123635228Y-52290825D01*
X123641172Y-52245081D01*
X123648091Y-52192083D01*
X123655769Y-52133473D01*
X123663991Y-52070891D01*
X123672544Y-52005979D01*
X123681212Y-51940376D01*
X123682552Y-51930249D01*
X123697729Y-51812675D01*
X123710769Y-51705425D01*
X123721626Y-51608911D01*
X123730253Y-51523546D01*
X123736606Y-51449743D01*
X123737637Y-51435883D01*
X123742404Y-51370913D01*
X123746660Y-51315963D01*
X123750639Y-51268793D01*
X123754576Y-51227163D01*
X123758704Y-51188833D01*
X123763258Y-51151563D01*
X123768472Y-51113114D01*
X123774580Y-51071245D01*
X123778410Y-51045917D01*
X123810581Y-50863446D01*
X123850883Y-50685766D01*
X123899900Y-50511026D01*
X123958218Y-50337377D01*
X124026421Y-50162968D01*
X124105094Y-49985949D01*
X124129709Y-49934360D01*
X124213735Y-49774190D01*
X124307303Y-49620806D01*
X124409915Y-49474881D01*
X124521075Y-49337092D01*
X124640285Y-49208113D01*
X124723383Y-49127911D01*
X124758319Y-49096298D01*
X124799294Y-49060187D01*
X124844566Y-49021033D01*
X124892391Y-48980294D01*
X124941028Y-48939427D01*
X124988734Y-48899889D01*
X125033766Y-48863138D01*
X125074381Y-48830630D01*
X125108837Y-48803824D01*
X125128702Y-48788981D01*
X125208362Y-48734021D01*
X125288961Y-48684791D01*
X125372634Y-48640256D01*
X125461516Y-48599385D01*
X125557743Y-48561143D01*
X125663451Y-48524498D01*
X125698598Y-48513263D01*
X125735173Y-48502256D01*
X125774401Y-48491435D01*
X125817075Y-48480650D01*
X125863989Y-48469752D01*
X125915935Y-48458591D01*
X125973706Y-48447017D01*
X126038097Y-48434883D01*
X126109899Y-48422037D01*
X126189907Y-48408330D01*
X126278913Y-48393614D01*
X126377711Y-48377738D01*
X126487093Y-48360554D01*
X126607853Y-48341911D01*
X126608731Y-48341776D01*
X126780685Y-48315423D01*
X126782271Y-48337282D01*
X126782447Y-48344889D01*
X126782744Y-48364263D01*
X126783157Y-48394888D01*
X126783682Y-48436251D01*
X126784312Y-48487835D01*
X126785042Y-48549126D01*
X126785866Y-48619610D01*
X126786778Y-48698771D01*
X126787775Y-48786093D01*
X126788849Y-48881064D01*
X126789995Y-48983166D01*
X126791208Y-49091886D01*
X126792482Y-49206708D01*
X126793812Y-49327118D01*
X126795192Y-49452601D01*
X126796617Y-49582641D01*
X126798081Y-49716724D01*
X126799579Y-49854334D01*
X126801105Y-49994958D01*
X126802653Y-50138079D01*
X126804219Y-50283183D01*
X126805797Y-50429755D01*
X126807380Y-50577280D01*
X126808964Y-50725244D01*
X126810544Y-50873130D01*
X126812113Y-51020425D01*
X126813665Y-51166613D01*
X126815197Y-51311180D01*
X126816701Y-51453609D01*
X126818174Y-51593388D01*
X126819608Y-51730000D01*
X126820998Y-51862930D01*
X126822340Y-51991664D01*
X126823627Y-52115687D01*
X126824854Y-52234484D01*
X126826016Y-52347539D01*
X126827106Y-52454339D01*
X126828120Y-52554367D01*
X126829052Y-52647109D01*
X126829896Y-52732051D01*
X126830647Y-52808676D01*
X126831300Y-52876471D01*
X126831848Y-52934920D01*
X126832287Y-52983509D01*
X126832611Y-53021721D01*
X126832814Y-53049043D01*
X126832891Y-53064960D01*
X126832891Y-53065860D01*
X126833118Y-53096888D01*
X126833746Y-53122674D01*
X126834690Y-53141166D01*
X126835865Y-53150312D01*
X126836422Y-53150859D01*
X126838563Y-53144180D01*
X126842905Y-53127003D01*
X126849098Y-53100844D01*
X126856790Y-53067219D01*
X126865632Y-53027646D01*
X126875273Y-52983639D01*
X126878397Y-52969204D01*
X126916837Y-52791085D01*
X126897135Y-50495278D01*
X126895710Y-50328052D01*
X126894332Y-50163960D01*
X126893004Y-50003430D01*
X126891729Y-49846886D01*
X126890509Y-49694755D01*
X126889348Y-49547464D01*
X126888248Y-49405439D01*
X126887213Y-49269105D01*
X126886245Y-49138890D01*
X126885348Y-49015219D01*
X126884524Y-48898519D01*
X126883776Y-48789215D01*
X126883108Y-48687735D01*
X126882521Y-48594504D01*
X126882020Y-48509948D01*
X126881607Y-48434494D01*
X126881285Y-48368568D01*
X126881056Y-48312597D01*
X126880925Y-48267006D01*
X126880893Y-48232221D01*
X126880965Y-48208670D01*
X126881141Y-48196777D01*
X126881259Y-48195339D01*
X126891182Y-48191257D01*
X126912111Y-48187640D01*
X126942778Y-48184488D01*
X126981917Y-48181798D01*
X127028261Y-48179567D01*
X127080541Y-48177794D01*
X127137492Y-48176477D01*
X127197844Y-48175613D01*
X127260332Y-48175199D01*
X127323688Y-48175235D01*
X127386645Y-48175717D01*
X127447934Y-48176644D01*
X127506290Y-48178013D01*
X127560445Y-48179822D01*
X127609131Y-48182069D01*
X127651081Y-48184752D01*
X127685028Y-48187869D01*
X127709705Y-48191417D01*
X127723844Y-48195395D01*
X127725969Y-48196789D01*
X127726409Y-48203369D01*
X127726727Y-48221982D01*
X127726925Y-48252379D01*
X127727005Y-48294313D01*
X127726967Y-48347533D01*
X127726814Y-48411792D01*
X127726546Y-48486840D01*
X127726166Y-48572430D01*
X127725675Y-48668312D01*
X127725075Y-48774237D01*
X127724366Y-48889958D01*
X127723551Y-49015225D01*
X127722631Y-49149790D01*
X127721607Y-49293403D01*
X127720482Y-49445818D01*
X127719255Y-49606783D01*
X127717930Y-49776052D01*
X127716508Y-49953375D01*
X127714989Y-50138504D01*
X127713376Y-50331190D01*
X127711985Y-50494590D01*
X127692321Y-52786947D01*
X127730869Y-52968112D01*
X127769418Y-53149277D01*
X127773778Y-53094007D01*
X127774163Y-53083781D01*
X127774660Y-53061722D01*
X127775264Y-53028280D01*
X127775968Y-52983904D01*
X127776768Y-52929043D01*
X127777659Y-52864145D01*
X127778635Y-52789661D01*
X127779692Y-52706040D01*
X127780823Y-52613730D01*
X127782025Y-52513182D01*
X127783291Y-52404843D01*
X127784616Y-52289163D01*
X127785996Y-52166592D01*
X127787425Y-52037579D01*
X127788897Y-51902573D01*
X127790409Y-51762022D01*
X127791953Y-51616377D01*
X127793526Y-51466087D01*
X127795122Y-51311600D01*
X127796736Y-51153365D01*
X127798362Y-50991833D01*
X127799871Y-50840187D01*
X127801511Y-50674806D01*
X127803141Y-50511753D01*
X127804754Y-50351506D01*
X127806346Y-50194542D01*
X127807911Y-50041341D01*
X127809445Y-49892381D01*
X127810941Y-49748141D01*
X127812395Y-49609099D01*
X127813802Y-49475734D01*
X127815156Y-49348524D01*
X127816453Y-49227948D01*
X127817687Y-49114484D01*
X127818853Y-49008611D01*
X127819945Y-48910808D01*
X127820959Y-48821553D01*
X127821890Y-48741324D01*
X127822732Y-48670600D01*
X127823480Y-48609860D01*
X127824129Y-48559582D01*
X127824674Y-48520245D01*
X127825110Y-48492327D01*
X127825377Y-48478504D01*
X127829150Y-48315370D01*
X127897543Y-48325956D01*
X128017937Y-48344634D01*
X128126948Y-48361652D01*
X128225342Y-48377155D01*
X128313886Y-48391283D01*
X128393347Y-48404180D01*
X128464491Y-48415988D01*
X128528085Y-48426850D01*
X128584895Y-48436907D01*
X128635688Y-48446303D01*
X128681230Y-48455180D01*
X128722288Y-48463680D01*
X128759629Y-48471946D01*
X128794018Y-48480121D01*
X128826224Y-48488346D01*
X128857011Y-48496764D01*
X128887147Y-48505518D01*
X128917398Y-48514750D01*
X128923354Y-48516612D01*
X129054268Y-48561624D01*
X129175478Y-48611762D01*
X129288827Y-48667974D01*
X129396160Y-48731204D01*
X129499321Y-48802398D01*
X129538083Y-48831950D01*
X129661443Y-48931312D01*
X129776995Y-49030173D01*
X129884000Y-49127829D01*
X129981714Y-49223577D01*
X130069397Y-49316715D01*
X130146306Y-49406540D01*
X130152910Y-49414732D01*
X130247600Y-49541121D01*
X130337585Y-49677852D01*
X130422321Y-49823709D01*
X130501265Y-49977480D01*
X130573873Y-50137950D01*
X130639602Y-50303904D01*
X130697909Y-50474128D01*
X130748251Y-50647408D01*
X130790082Y-50822530D01*
X130796323Y-50852469D01*
X130808180Y-50912161D01*
X130818628Y-50968533D01*
X130827887Y-51023343D01*
X130836176Y-51078353D01*
X130843715Y-51135321D01*
X130850724Y-51196008D01*
X130857422Y-51262173D01*
X130864030Y-51335578D01*
X130870766Y-51417981D01*
X130876823Y-51497295D01*
X130879787Y-51531902D01*
X130884214Y-51576561D01*
X130889863Y-51629162D01*
X130896492Y-51687593D01*
X130903859Y-51749743D01*
X130911724Y-51813501D01*
X130919844Y-51876756D01*
X130922856Y-51899543D01*
X130931310Y-51963095D01*
X130940015Y-52028765D01*
X130948674Y-52094287D01*
X130956987Y-52157394D01*
X130964657Y-52215817D01*
X130971384Y-52267290D01*
X130976870Y-52309545D01*
X130978246Y-52320216D01*
X130983493Y-52360068D01*
X130990115Y-52408888D01*
X130997884Y-52465098D01*
X131006572Y-52527123D01*
X131015950Y-52593387D01*
X131025791Y-52662312D01*
X131035866Y-52732324D01*
X131045948Y-52801846D01*
X131055808Y-52869301D01*
X131065219Y-52933113D01*
X131073952Y-52991706D01*
X131081779Y-53043505D01*
X131088473Y-53086931D01*
X131093804Y-53120411D01*
X131095535Y-53130845D01*
X131102779Y-53168826D01*
X131111635Y-53204767D01*
X131122734Y-53239800D01*
X131136703Y-53275060D01*
X131154170Y-53311680D01*
X131175765Y-53350794D01*
X131202115Y-53393535D01*
X131233850Y-53441038D01*
X131271598Y-53494436D01*
X131315987Y-53554862D01*
X131367647Y-53623451D01*
X131371326Y-53628291D01*
X131427585Y-53702382D01*
X131478556Y-53769820D01*
X131525147Y-53831889D01*
X131568265Y-53889873D01*
X131608819Y-53945054D01*
X131647716Y-53998717D01*
X131685865Y-54052145D01*
X131724174Y-54106621D01*
X131763550Y-54163430D01*
X131804902Y-54223853D01*
X131849138Y-54289175D01*
X131897166Y-54360679D01*
X131949893Y-54439650D01*
X132008228Y-54527369D01*
X132020864Y-54546400D01*
X132099326Y-54664721D01*
X132171415Y-54773772D01*
X132237627Y-54874463D01*
X132298463Y-54967704D01*
X132354421Y-55054405D01*
X132406000Y-55135474D01*
X132453698Y-55211823D01*
X132498015Y-55284360D01*
X132539448Y-55353995D01*
X132578497Y-55421638D01*
X132615661Y-55488198D01*
X132651439Y-55554586D01*
X132686328Y-55621710D01*
X132720828Y-55690481D01*
X132755439Y-55761808D01*
X132790657Y-55836602D01*
X132826983Y-55915770D01*
X132864915Y-56000224D01*
X132904952Y-56090873D01*
X132947592Y-56188626D01*
X132993334Y-56294394D01*
X133042678Y-56409086D01*
X133044499Y-56413325D01*
X133073097Y-56480066D01*
X133101883Y-56547537D01*
X133130200Y-56614179D01*
X133157390Y-56678432D01*
X133182795Y-56738734D01*
X133205756Y-56793525D01*
X133225617Y-56841245D01*
X133241718Y-56880333D01*
X133250331Y-56901550D01*
X133274418Y-56961678D01*
X133299753Y-57025354D01*
X133325818Y-57091242D01*
X133352093Y-57158006D01*
X133378059Y-57224308D01*
X133403197Y-57288812D01*
X133426987Y-57350182D01*
X133448910Y-57407081D01*
X133468446Y-57458172D01*
X133485078Y-57502118D01*
X133498284Y-57537583D01*
X133507546Y-57563231D01*
X133508798Y-57566829D01*
X133524626Y-57614814D01*
X133542277Y-57671957D01*
X133560947Y-57735416D01*
X133579833Y-57802350D01*
X133598130Y-57869918D01*
X133615035Y-57935279D01*
X133627814Y-57987421D01*
X133654336Y-58099084D01*
X133638635Y-58126719D01*
X133615864Y-58165444D01*
X133591054Y-58204829D01*
X133563414Y-58245934D01*
X133532152Y-58289822D01*
X133496476Y-58337552D01*
X133455594Y-58390186D01*
X133408717Y-58448786D01*
X133355050Y-58514411D01*
X133299617Y-58581168D01*
X133270014Y-58616776D01*
X133239632Y-58653609D01*
X133210542Y-58689134D01*
X133184818Y-58720817D01*
X133164532Y-58746125D01*
X133161427Y-58750051D01*
X133151062Y-58762190D01*
X133133749Y-58781278D01*
X133110386Y-58806395D01*
X133081872Y-58836618D01*
X133049106Y-58871025D01*
X133012987Y-58908695D01*
X132974414Y-58948705D01*
X132934285Y-58990135D01*
X132893501Y-59032062D01*
X132852959Y-59073564D01*
X132813558Y-59113720D01*
X132776198Y-59151607D01*
X132741778Y-59186304D01*
X132711196Y-59216889D01*
X132685351Y-59242440D01*
X132665142Y-59262036D01*
X132651468Y-59274754D01*
X132645229Y-59279673D01*
X132644971Y-59279666D01*
X132643596Y-59273481D01*
X132640408Y-59256689D01*
X132635676Y-59230786D01*
X132629669Y-59197270D01*
X132622658Y-59157638D01*
X132614912Y-59113387D01*
X132612068Y-59097029D01*
X132587120Y-58954601D01*
X132563590Y-58823158D01*
X132541214Y-58701514D01*
X132519726Y-58588489D01*
X132498861Y-58482898D01*
X132478355Y-58383559D01*
X132457943Y-58289289D01*
X132437359Y-58198906D01*
X132416339Y-58111225D01*
X132394617Y-58025064D01*
X132371929Y-57939241D01*
X132348010Y-57852572D01*
X132322594Y-57763875D01*
X132295418Y-57671966D01*
X132285473Y-57638929D01*
X132271825Y-57593851D01*
X132259149Y-57552272D01*
X132247153Y-57513429D01*
X132235547Y-57476556D01*
X132224040Y-57440887D01*
X132212342Y-57405659D01*
X132200162Y-57370106D01*
X132187208Y-57333462D01*
X132173191Y-57294963D01*
X132157820Y-57253844D01*
X132140803Y-57209340D01*
X132121851Y-57160685D01*
X132100672Y-57107116D01*
X132076975Y-57047865D01*
X132050471Y-56982170D01*
X132020867Y-56909264D01*
X131987874Y-56828383D01*
X131951201Y-56738761D01*
X131910557Y-56639634D01*
X131865651Y-56530237D01*
X131845382Y-56480878D01*
X131800148Y-56370700D01*
X131759298Y-56271176D01*
X131722519Y-56181608D01*
X131689500Y-56101300D01*
X131659929Y-56029556D01*
X131633492Y-55965681D01*
X131609879Y-55908976D01*
X131588777Y-55858747D01*
X131569873Y-55814297D01*
X131552857Y-55774930D01*
X131537414Y-55739948D01*
X131523235Y-55708657D01*
X131510005Y-55680360D01*
X131497414Y-55654360D01*
X131485149Y-55629961D01*
X131472897Y-55606467D01*
X131460347Y-55583182D01*
X131447187Y-55559409D01*
X131433105Y-55534452D01*
X131417787Y-55507614D01*
X131400923Y-55478200D01*
X131382200Y-55445513D01*
X131377771Y-55437761D01*
X131336569Y-55365772D01*
X131300438Y-55303082D01*
X131268475Y-55248262D01*
X131239778Y-55199880D01*
X131213442Y-55156504D01*
X131188565Y-55116704D01*
X131164245Y-55079047D01*
X131139577Y-55042104D01*
X131113659Y-55004442D01*
X131085587Y-54964630D01*
X131054460Y-54921237D01*
X131034297Y-54893378D01*
X130990546Y-54833600D01*
X130951597Y-54781734D01*
X130915499Y-54735433D01*
X130880300Y-54692348D01*
X130844048Y-54650132D01*
X130804793Y-54606439D01*
X130760581Y-54558921D01*
X130725703Y-54522191D01*
X130670983Y-54465210D01*
X130623316Y-54416373D01*
X130581519Y-54374714D01*
X130544411Y-54339264D01*
X130510809Y-54309055D01*
X130479531Y-54283119D01*
X130449396Y-54260488D01*
X130419221Y-54240195D01*
X130387824Y-54221270D01*
X130354024Y-54202747D01*
X130316638Y-54183656D01*
X130305733Y-54178258D01*
X130223019Y-54139176D01*
X130146256Y-54106678D01*
X130071913Y-54079544D01*
X129996459Y-54056551D01*
X129916363Y-54036476D01*
X129863205Y-54025036D01*
X129809484Y-54014397D01*
X129761684Y-54005779D01*
X129717490Y-53998977D01*
X129674587Y-53993784D01*
X129630660Y-53989997D01*
X129583393Y-53987409D01*
X129530470Y-53985816D01*
X129469577Y-53985013D01*
X129409118Y-53984798D01*
X129352906Y-53984810D01*
X129307301Y-53984989D01*
X129270625Y-53985421D01*
X129241203Y-53986194D01*
X129217359Y-53987395D01*
X129197417Y-53989112D01*
X129179700Y-53991431D01*
X129162533Y-53994441D01*
X129144239Y-53998229D01*
X129141976Y-53998721D01*
X129037098Y-54026992D01*
X128930289Y-54066207D01*
X128823221Y-54115565D01*
X128717568Y-54174270D01*
X128615002Y-54241521D01*
X128580083Y-54266976D01*
X128522833Y-54311866D01*
X128460341Y-54364409D01*
X128394835Y-54422510D01*
X128328540Y-54484069D01*
X128263684Y-54546991D01*
X128202494Y-54609179D01*
X128147197Y-54668534D01*
X128115875Y-54704128D01*
X128091384Y-54733319D01*
X128062391Y-54768810D01*
X128031744Y-54807061D01*
X128002291Y-54844532D01*
X127987423Y-54863800D01*
X127940578Y-54924089D01*
X127898386Y-54976254D01*
X127858905Y-55022533D01*
X127820194Y-55065162D01*
X127780309Y-55106379D01*
X127756192Y-55130210D01*
X127696476Y-55186774D01*
X127642900Y-55234003D01*
X127594516Y-55272590D01*
X127550372Y-55303228D01*
X127509519Y-55326610D01*
X127471007Y-55343431D01*
X127457917Y-55347892D01*
X127438457Y-55353685D01*
X127420795Y-55357807D01*
X127402195Y-55360535D01*
X127379920Y-55362144D01*
X127351235Y-55362910D01*
X127313405Y-55363109D01*
X127306976Y-55363107D01*
X127255388Y-55362430D01*
X127215101Y-55360439D01*
X127185195Y-55357073D01*
X127170651Y-55354057D01*
X127118907Y-55335357D01*
X127064238Y-55306329D01*
X127008469Y-55267974D01*
X126995627Y-55257898D01*
X126955933Y-55224281D01*
X126911140Y-55183434D01*
X126863639Y-55137767D01*
X126815821Y-55089694D01*
X126770075Y-55041624D01*
X126728792Y-54995970D01*
X126694363Y-54955142D01*
X126689626Y-54949189D01*
X126642070Y-54888950D01*
X126600981Y-54837231D01*
X126565333Y-54792819D01*
X126534102Y-54754502D01*
X126506261Y-54721068D01*
X126480784Y-54691305D01*
X126456646Y-54664001D01*
X126432820Y-54637944D01*
X126408280Y-54611921D01*
X126382002Y-54584721D01*
X126375756Y-54578327D01*
X126283300Y-54486725D01*
X126193160Y-54403204D01*
X126106056Y-54328366D01*
X126022709Y-54262814D01*
X125943840Y-54207150D01*
X125894176Y-54175875D01*
X125803220Y-54124442D01*
X125717512Y-54082017D01*
X125634990Y-54047739D01*
X125553593Y-54020747D01*
X125476304Y-54001255D01*
X125454408Y-53996617D01*
X125435242Y-53992927D01*
X125417028Y-53990077D01*
X125397990Y-53987958D01*
X125376350Y-53986461D01*
X125350330Y-53985478D01*
X125318153Y-53984900D01*
X125278041Y-53984619D01*
X125228217Y-53984526D01*
X125202397Y-53984516D01*
X125118201Y-53985108D01*
X125043781Y-53987094D01*
X124976683Y-53990740D01*
X124914451Y-53996312D01*
X124854632Y-54004076D01*
X124794771Y-54014298D01*
X124732413Y-54027244D01*
X124668112Y-54042436D01*
X124573837Y-54068846D01*
X124479490Y-54101158D01*
X124387532Y-54138296D01*
X124300423Y-54179188D01*
X124220624Y-54222761D01*
X124150595Y-54267940D01*
X124149533Y-54268694D01*
X124125059Y-54287792D01*
X124093809Y-54314813D01*
X124057093Y-54348434D01*
X124016221Y-54387334D01*
X123972504Y-54430189D01*
X123927252Y-54475677D01*
X123881775Y-54522477D01*
X123837383Y-54569265D01*
X123795386Y-54614720D01*
X123757095Y-54657519D01*
X123723819Y-54696340D01*
X123713946Y-54708318D01*
X123680629Y-54750393D01*
X123642674Y-54800301D01*
X123601731Y-54855717D01*
X123559452Y-54914314D01*
X123517488Y-54973767D01*
X123477489Y-55031750D01*
X123441106Y-55085938D01*
X123409991Y-55134005D01*
X123397428Y-55154194D01*
X123381147Y-55181176D01*
X123360723Y-55215618D01*
X123337013Y-55256028D01*
X123310872Y-55300911D01*
X123283157Y-55348775D01*
X123254722Y-55398127D01*
X123226424Y-55447474D01*
X123199120Y-55495323D01*
X123173664Y-55540181D01*
X123150913Y-55580556D01*
X123131723Y-55614953D01*
X123116950Y-55641881D01*
X123107449Y-55659846D01*
X123106854Y-55661028D01*
X123099166Y-55677468D01*
X123087227Y-55704442D01*
X123071386Y-55741094D01*
X123051995Y-55786572D01*
X123029404Y-55840022D01*
X123003963Y-55900589D01*
X122976025Y-55967418D01*
X122945939Y-56039658D01*
X122914057Y-56116452D01*
X122880729Y-56196948D01*
X122846305Y-56280290D01*
X122811137Y-56365626D01*
X122775576Y-56452102D01*
X122739972Y-56538862D01*
X122704675Y-56625054D01*
X122670037Y-56709822D01*
X122636409Y-56792314D01*
X122604141Y-56871675D01*
X122573584Y-56947051D01*
X122545088Y-57017588D01*
X122519005Y-57082432D01*
X122495686Y-57140729D01*
X122475480Y-57191625D01*
X122458739Y-57234266D01*
X122445814Y-57267799D01*
X122437055Y-57291368D01*
X122435912Y-57294587D01*
X122389110Y-57432515D01*
X122342739Y-57577994D01*
X122297537Y-57728350D01*
X122254242Y-57880912D01*
X122213592Y-58033008D01*
X122176325Y-58181964D01*
X122143180Y-58325108D01*
X122116787Y-58450238D01*
X122104082Y-58514923D01*
X122089766Y-58589654D01*
X122074219Y-58672357D01*
X122057820Y-58760958D01*
X122040948Y-58853382D01*
X122023985Y-58947557D01*
X122007309Y-59041407D01*
X121991299Y-59132858D01*
X121982821Y-59181940D01*
X121965591Y-59282204D01*
X121747775Y-59064981D01*
X121703496Y-59020662D01*
X121660685Y-58977507D01*
X121620373Y-58936577D01*
X121583592Y-58898932D01*
X121551373Y-58865632D01*
X121524747Y-58837739D01*
X121504745Y-58816313D01*
X121492398Y-58802413D01*
X121492034Y-58801976D01*
X121422686Y-58718202D01*
X121360707Y-58643177D01*
X121305580Y-58576233D01*
X121256789Y-58516701D01*
X121213818Y-58463912D01*
X121176151Y-58417197D01*
X121143271Y-58375889D01*
X121114663Y-58339318D01*
X121089809Y-58306817D01*
X121068195Y-58277715D01*
X121049304Y-58251346D01*
X121032619Y-58227040D01*
X121017625Y-58204128D01*
X121003805Y-58181942D01*
X120990644Y-58159814D01*
X120977625Y-58137075D01*
X120974729Y-58131925D01*
X120955263Y-58097214D01*
X120986353Y-57969366D01*
X121001149Y-57909120D01*
X121015029Y-57854160D01*
X121028438Y-57803153D01*
X121041821Y-57754764D01*
X121055623Y-57707660D01*
X121070287Y-57660506D01*
X121086260Y-57611968D01*
X121103985Y-57560712D01*
X121123907Y-57505404D01*
X121146471Y-57444710D01*
X121172121Y-57377296D01*
X121201303Y-57301828D01*
X121234460Y-57216972D01*
X121252214Y-57171763D01*
X121284606Y-57089552D01*
X121314418Y-57014316D01*
X121342343Y-56944378D01*
X121369077Y-56878064D01*
X121395314Y-56813697D01*
X121421748Y-56749603D01*
X121449073Y-56684106D01*
X121477985Y-56615531D01*
X121509178Y-56542202D01*
X121543346Y-56462444D01*
X121581184Y-56374581D01*
X121617518Y-56290501D01*
X121661840Y-56188316D01*
X121703197Y-56093671D01*
X121742073Y-56005700D01*
X121778950Y-55923540D01*
X121814311Y-55846326D01*
X121848639Y-55773194D01*
X121882416Y-55703279D01*
X121916126Y-55635717D01*
X121950251Y-55569644D01*
X121985273Y-55504195D01*
X122021677Y-55438506D01*
X122059945Y-55371713D01*
X122100558Y-55302952D01*
X122144002Y-55231358D01*
X122190757Y-55156066D01*
X122241307Y-55076213D01*
X122296135Y-54990933D01*
X122355724Y-54899364D01*
X122420556Y-54800640D01*
X122491114Y-54693897D01*
X122567881Y-54578271D01*
X122605857Y-54521194D01*
X122667045Y-54429392D01*
X122722277Y-54346815D01*
X122772303Y-54272396D01*
X122817875Y-54205070D01*
X122859742Y-54143770D01*
X122898654Y-54087431D01*
X122935363Y-54034988D01*
X122970618Y-53985373D01*
X122993435Y-53953775D01*
X123627179Y-53953775D01*
X123630250Y-53956845D01*
X123633320Y-53953775D01*
X123630250Y-53950704D01*
X123627179Y-53953775D01*
X122993435Y-53953775D01*
X122996822Y-53949084D01*
X123640150Y-53949084D01*
X123645339Y-53950702D01*
X123645659Y-53950704D01*
X123652686Y-53948060D01*
X123669073Y-53940637D01*
X123693216Y-53929201D01*
X123723514Y-53914518D01*
X123758366Y-53897351D01*
X123782133Y-53885509D01*
X123856754Y-53848513D01*
X123934695Y-53810511D01*
X124014704Y-53772076D01*
X124095526Y-53733782D01*
X124099973Y-53731703D01*
X128036713Y-53731703D01*
X128037143Y-53732251D01*
X128043532Y-53730843D01*
X128059164Y-53724783D01*
X128082262Y-53714837D01*
X128111047Y-53701772D01*
X128143740Y-53686355D01*
X128144575Y-53685954D01*
X128240885Y-53640619D01*
X128328986Y-53601253D01*
X128410979Y-53567150D01*
X128488966Y-53537603D01*
X128565048Y-53511906D01*
X128641327Y-53489353D01*
X128719902Y-53469237D01*
X128802876Y-53450852D01*
X128892349Y-53433491D01*
X128899399Y-53432207D01*
X128973142Y-53419328D01*
X129037913Y-53409228D01*
X129096632Y-53401621D01*
X129152220Y-53396221D01*
X129207597Y-53392742D01*
X129265685Y-53390898D01*
X129326212Y-53390400D01*
X129459917Y-53394551D01*
X129591376Y-53406664D01*
X129718712Y-53426427D01*
X129840044Y-53453531D01*
X129953495Y-53487664D01*
X129986789Y-53499631D01*
X130023828Y-53514165D01*
X130070591Y-53533590D01*
X130125804Y-53557325D01*
X130188197Y-53584786D01*
X130256497Y-53615391D01*
X130329433Y-53648558D01*
X130405733Y-53683703D01*
X130484125Y-53720244D01*
X130563337Y-53757598D01*
X130642097Y-53795182D01*
X130719133Y-53832414D01*
X130793175Y-53868711D01*
X130803170Y-53873656D01*
X130844901Y-53894260D01*
X130883117Y-53913006D01*
X130916424Y-53929220D01*
X130943424Y-53942226D01*
X130962723Y-53951349D01*
X130972925Y-53955914D01*
X130974101Y-53956312D01*
X130977336Y-53952410D01*
X130976799Y-53949587D01*
X130970347Y-53942002D01*
X130954722Y-53928616D01*
X130931105Y-53910236D01*
X130900676Y-53887668D01*
X130864615Y-53861721D01*
X130824104Y-53833200D01*
X130780323Y-53802912D01*
X130734451Y-53771664D01*
X130687670Y-53740263D01*
X130641161Y-53709516D01*
X130596103Y-53680230D01*
X130553677Y-53653212D01*
X130515064Y-53629268D01*
X130481444Y-53609205D01*
X130465405Y-53600059D01*
X130358071Y-53542517D01*
X130248585Y-53488259D01*
X130138815Y-53438061D01*
X130030628Y-53392704D01*
X129925893Y-53352966D01*
X129826477Y-53319625D01*
X129734249Y-53293462D01*
X129723834Y-53290861D01*
X129662735Y-53276248D01*
X129610134Y-53264782D01*
X129562999Y-53256102D01*
X129518295Y-53249844D01*
X129472992Y-53245644D01*
X129424056Y-53243138D01*
X129368455Y-53241964D01*
X129313930Y-53241742D01*
X129262620Y-53241887D01*
X129221135Y-53242329D01*
X129187015Y-53243224D01*
X129157804Y-53244732D01*
X129131042Y-53247008D01*
X129104273Y-53250210D01*
X129075037Y-53254496D01*
X129048700Y-53258733D01*
X129005379Y-53266344D01*
X128957572Y-53275544D01*
X128910332Y-53285314D01*
X128868713Y-53294635D01*
X128858323Y-53297131D01*
X128824410Y-53306034D01*
X128783508Y-53317719D01*
X128737558Y-53331543D01*
X128688500Y-53346866D01*
X128638276Y-53363048D01*
X128588827Y-53379447D01*
X128542095Y-53395423D01*
X128500020Y-53410336D01*
X128464543Y-53423543D01*
X128437606Y-53434406D01*
X128425191Y-53440108D01*
X128388789Y-53460372D01*
X128345368Y-53487715D01*
X128296853Y-53520798D01*
X128245174Y-53558287D01*
X128192256Y-53598844D01*
X128165525Y-53620187D01*
X128126363Y-53651943D01*
X128095778Y-53676872D01*
X128072778Y-53695842D01*
X128056366Y-53709722D01*
X128045548Y-53719380D01*
X128039330Y-53725684D01*
X128036716Y-53729502D01*
X128036713Y-53731703D01*
X124099973Y-53731703D01*
X124175906Y-53696200D01*
X124254591Y-53659904D01*
X124330327Y-53625466D01*
X124401860Y-53593460D01*
X124467935Y-53564457D01*
X124527298Y-53539032D01*
X124578696Y-53517755D01*
X124620874Y-53501202D01*
X124634767Y-53496073D01*
X124748794Y-53459995D01*
X124870378Y-53430809D01*
X124996650Y-53408915D01*
X125124741Y-53394711D01*
X125251781Y-53388596D01*
X125374902Y-53390970D01*
X125385591Y-53391608D01*
X125522870Y-53403955D01*
X125663119Y-53423566D01*
X125802892Y-53449780D01*
X125938743Y-53481934D01*
X126067225Y-53519369D01*
X126088997Y-53526515D01*
X126132384Y-53541427D01*
X126174049Y-53556705D01*
X126216063Y-53573221D01*
X126260499Y-53591845D01*
X126309428Y-53613447D01*
X126364922Y-53638898D01*
X126429054Y-53669069D01*
X126435329Y-53672050D01*
X126471078Y-53688789D01*
X126503074Y-53703284D01*
X126529678Y-53714835D01*
X126549255Y-53722739D01*
X126560166Y-53726293D01*
X126561816Y-53726282D01*
X126559403Y-53720446D01*
X126548397Y-53708397D01*
X126530104Y-53691201D01*
X126505826Y-53669920D01*
X126476868Y-53645619D01*
X126444534Y-53619361D01*
X126410128Y-53592210D01*
X126374953Y-53565229D01*
X126340314Y-53539482D01*
X126307514Y-53516034D01*
X126286318Y-53501537D01*
X126249972Y-53477981D01*
X126216468Y-53458147D01*
X126183078Y-53440749D01*
X126147073Y-53424499D01*
X126105722Y-53408110D01*
X126056297Y-53390294D01*
X126034529Y-53382780D01*
X125937618Y-53350683D01*
X125848957Y-53323708D01*
X125765950Y-53301219D01*
X125685998Y-53282580D01*
X125606502Y-53267156D01*
X125524865Y-53254310D01*
X125491033Y-53249752D01*
X125409710Y-53242072D01*
X125322267Y-53238801D01*
X125232795Y-53239859D01*
X125145382Y-53245166D01*
X125064118Y-53254639D01*
X125039258Y-53258681D01*
X124944941Y-53277235D01*
X124852776Y-53299544D01*
X124760983Y-53326235D01*
X124667783Y-53357938D01*
X124571395Y-53395279D01*
X124470040Y-53438886D01*
X124361938Y-53489387D01*
X124302711Y-53518459D01*
X124228151Y-53556369D01*
X124158719Y-53593439D01*
X124092391Y-53630922D01*
X124027145Y-53670072D01*
X123960960Y-53712143D01*
X123891813Y-53758388D01*
X123817681Y-53810061D01*
X123736543Y-53868416D01*
X123726974Y-53875391D01*
X123692140Y-53901130D01*
X123666771Y-53920693D01*
X123650136Y-53934756D01*
X123641505Y-53943994D01*
X123640150Y-53949084D01*
X122996822Y-53949084D01*
X123005170Y-53937523D01*
G37*
D14*
%TO.C,J4*%
X144547000Y-76123600D02*
X144547000Y-103911600D01*
X137333000Y-103911600D02*
X137333000Y-76123600D01*
X137333000Y-76123600D02*
X144547000Y-76123600D01*
X144547000Y-103911600D02*
X137333000Y-103911600D01*
D13*
X135898480Y-79583280D02*
G75*
G03*
X135898480Y-79583280I-100000J0D01*
G01*
D14*
%TO.C,J1*%
X91643000Y-47167600D02*
X98857000Y-47167600D01*
X98857000Y-74955600D02*
X91643000Y-74955600D01*
X98857000Y-47167600D02*
X98857000Y-74955600D01*
X91643000Y-74955600D02*
X91643000Y-47167600D01*
D13*
X90208480Y-50627280D02*
G75*
G03*
X90208480Y-50627280I-100000J0D01*
G01*
%TD*%
M02*
