%TF.GenerationSoftware,KiCad,Pcbnew,7.0.7*%
%TF.CreationDate,2023-09-12T10:12:06-04:00*%
%TF.ProjectId,Temps_North_DCT_HSK,54656d70-735f-44e6-9f72-74685f444354,B*%
%TF.SameCoordinates,Original*%
%TF.FileFunction,Legend,Top*%
%TF.FilePolarity,Positive*%
%FSLAX46Y46*%
G04 Gerber Fmt 4.6, Leading zero omitted, Abs format (unit mm)*
G04 Created by KiCad (PCBNEW 7.0.7) date 2023-09-12 10:12:06*
%MOMM*%
%LPD*%
G01*
G04 APERTURE LIST*
%ADD10C,0.254000*%
%ADD11C,0.400000*%
%ADD12C,0.150000*%
%ADD13C,0.200000*%
%ADD14C,0.127000*%
G04 APERTURE END LIST*
D10*
X138861800Y-50932498D02*
G75*
G03*
X138861800Y-50932498I-25400J0D01*
G01*
X92670001Y-50830000D02*
G75*
G03*
X92670001Y-50830000I-1J0D01*
G01*
X92760800Y-80020000D02*
G75*
G03*
X92760800Y-80020000I-25400J0D01*
G01*
X138861800Y-79832200D02*
G75*
G03*
X138861800Y-79832200I-25400J0D01*
G01*
D11*
X131668147Y-86514980D02*
X131668147Y-85086409D01*
X134168147Y-85800695D02*
X131668147Y-85800695D01*
X134168147Y-83895933D02*
X134049100Y-84134028D01*
X134049100Y-84134028D02*
X133930052Y-84253075D01*
X133930052Y-84253075D02*
X133691957Y-84372123D01*
X133691957Y-84372123D02*
X132977671Y-84372123D01*
X132977671Y-84372123D02*
X132739576Y-84253075D01*
X132739576Y-84253075D02*
X132620528Y-84134028D01*
X132620528Y-84134028D02*
X132501480Y-83895933D01*
X132501480Y-83895933D02*
X132501480Y-83538790D01*
X132501480Y-83538790D02*
X132620528Y-83300694D01*
X132620528Y-83300694D02*
X132739576Y-83181647D01*
X132739576Y-83181647D02*
X132977671Y-83062599D01*
X132977671Y-83062599D02*
X133691957Y-83062599D01*
X133691957Y-83062599D02*
X133930052Y-83181647D01*
X133930052Y-83181647D02*
X134049100Y-83300694D01*
X134049100Y-83300694D02*
X134168147Y-83538790D01*
X134168147Y-83538790D02*
X134168147Y-83895933D01*
X134168147Y-80086408D02*
X131668147Y-80086408D01*
X131668147Y-80086408D02*
X131668147Y-79491170D01*
X131668147Y-79491170D02*
X131787195Y-79134027D01*
X131787195Y-79134027D02*
X132025290Y-78895932D01*
X132025290Y-78895932D02*
X132263385Y-78776885D01*
X132263385Y-78776885D02*
X132739576Y-78657837D01*
X132739576Y-78657837D02*
X133096719Y-78657837D01*
X133096719Y-78657837D02*
X133572909Y-78776885D01*
X133572909Y-78776885D02*
X133811004Y-78895932D01*
X133811004Y-78895932D02*
X134049100Y-79134027D01*
X134049100Y-79134027D02*
X134168147Y-79491170D01*
X134168147Y-79491170D02*
X134168147Y-80086408D01*
X133930052Y-76157837D02*
X134049100Y-76276885D01*
X134049100Y-76276885D02*
X134168147Y-76634027D01*
X134168147Y-76634027D02*
X134168147Y-76872123D01*
X134168147Y-76872123D02*
X134049100Y-77229266D01*
X134049100Y-77229266D02*
X133811004Y-77467361D01*
X133811004Y-77467361D02*
X133572909Y-77586408D01*
X133572909Y-77586408D02*
X133096719Y-77705456D01*
X133096719Y-77705456D02*
X132739576Y-77705456D01*
X132739576Y-77705456D02*
X132263385Y-77586408D01*
X132263385Y-77586408D02*
X132025290Y-77467361D01*
X132025290Y-77467361D02*
X131787195Y-77229266D01*
X131787195Y-77229266D02*
X131668147Y-76872123D01*
X131668147Y-76872123D02*
X131668147Y-76634027D01*
X131668147Y-76634027D02*
X131787195Y-76276885D01*
X131787195Y-76276885D02*
X131906242Y-76157837D01*
X131668147Y-75443551D02*
X131668147Y-74014980D01*
X134168147Y-74729266D02*
X131668147Y-74729266D01*
X134168147Y-71276884D02*
X131668147Y-71276884D01*
X132858623Y-71276884D02*
X132858623Y-69848313D01*
X134168147Y-69848313D02*
X131668147Y-69848313D01*
X134049100Y-68776884D02*
X134168147Y-68419741D01*
X134168147Y-68419741D02*
X134168147Y-67824503D01*
X134168147Y-67824503D02*
X134049100Y-67586408D01*
X134049100Y-67586408D02*
X133930052Y-67467360D01*
X133930052Y-67467360D02*
X133691957Y-67348313D01*
X133691957Y-67348313D02*
X133453861Y-67348313D01*
X133453861Y-67348313D02*
X133215766Y-67467360D01*
X133215766Y-67467360D02*
X133096719Y-67586408D01*
X133096719Y-67586408D02*
X132977671Y-67824503D01*
X132977671Y-67824503D02*
X132858623Y-68300694D01*
X132858623Y-68300694D02*
X132739576Y-68538789D01*
X132739576Y-68538789D02*
X132620528Y-68657836D01*
X132620528Y-68657836D02*
X132382433Y-68776884D01*
X132382433Y-68776884D02*
X132144338Y-68776884D01*
X132144338Y-68776884D02*
X131906242Y-68657836D01*
X131906242Y-68657836D02*
X131787195Y-68538789D01*
X131787195Y-68538789D02*
X131668147Y-68300694D01*
X131668147Y-68300694D02*
X131668147Y-67705455D01*
X131668147Y-67705455D02*
X131787195Y-67348313D01*
X134168147Y-66276884D02*
X131668147Y-66276884D01*
X134168147Y-64848313D02*
X132739576Y-65919742D01*
X131668147Y-64848313D02*
X133096719Y-66276884D01*
D12*
X121810114Y-100118495D02*
X122245543Y-100118495D01*
X122027828Y-100880495D02*
X122027828Y-100118495D01*
X122789828Y-100844210D02*
X122717256Y-100880495D01*
X122717256Y-100880495D02*
X122572114Y-100880495D01*
X122572114Y-100880495D02*
X122499542Y-100844210D01*
X122499542Y-100844210D02*
X122463256Y-100771638D01*
X122463256Y-100771638D02*
X122463256Y-100481352D01*
X122463256Y-100481352D02*
X122499542Y-100408781D01*
X122499542Y-100408781D02*
X122572114Y-100372495D01*
X122572114Y-100372495D02*
X122717256Y-100372495D01*
X122717256Y-100372495D02*
X122789828Y-100408781D01*
X122789828Y-100408781D02*
X122826114Y-100481352D01*
X122826114Y-100481352D02*
X122826114Y-100553924D01*
X122826114Y-100553924D02*
X122463256Y-100626495D01*
X123152685Y-100880495D02*
X123152685Y-100372495D01*
X123152685Y-100445067D02*
X123188971Y-100408781D01*
X123188971Y-100408781D02*
X123261542Y-100372495D01*
X123261542Y-100372495D02*
X123370399Y-100372495D01*
X123370399Y-100372495D02*
X123442971Y-100408781D01*
X123442971Y-100408781D02*
X123479257Y-100481352D01*
X123479257Y-100481352D02*
X123479257Y-100880495D01*
X123479257Y-100481352D02*
X123515542Y-100408781D01*
X123515542Y-100408781D02*
X123588114Y-100372495D01*
X123588114Y-100372495D02*
X123696971Y-100372495D01*
X123696971Y-100372495D02*
X123769542Y-100408781D01*
X123769542Y-100408781D02*
X123805828Y-100481352D01*
X123805828Y-100481352D02*
X123805828Y-100880495D01*
X124168685Y-100372495D02*
X124168685Y-101134495D01*
X124168685Y-100408781D02*
X124241257Y-100372495D01*
X124241257Y-100372495D02*
X124386399Y-100372495D01*
X124386399Y-100372495D02*
X124458971Y-100408781D01*
X124458971Y-100408781D02*
X124495257Y-100445067D01*
X124495257Y-100445067D02*
X124531542Y-100517638D01*
X124531542Y-100517638D02*
X124531542Y-100735352D01*
X124531542Y-100735352D02*
X124495257Y-100807924D01*
X124495257Y-100807924D02*
X124458971Y-100844210D01*
X124458971Y-100844210D02*
X124386399Y-100880495D01*
X124386399Y-100880495D02*
X124241257Y-100880495D01*
X124241257Y-100880495D02*
X124168685Y-100844210D01*
X124821828Y-100844210D02*
X124894400Y-100880495D01*
X124894400Y-100880495D02*
X125039543Y-100880495D01*
X125039543Y-100880495D02*
X125112114Y-100844210D01*
X125112114Y-100844210D02*
X125148400Y-100771638D01*
X125148400Y-100771638D02*
X125148400Y-100735352D01*
X125148400Y-100735352D02*
X125112114Y-100662781D01*
X125112114Y-100662781D02*
X125039543Y-100626495D01*
X125039543Y-100626495D02*
X124930686Y-100626495D01*
X124930686Y-100626495D02*
X124858114Y-100590210D01*
X124858114Y-100590210D02*
X124821828Y-100517638D01*
X124821828Y-100517638D02*
X124821828Y-100481352D01*
X124821828Y-100481352D02*
X124858114Y-100408781D01*
X124858114Y-100408781D02*
X124930686Y-100372495D01*
X124930686Y-100372495D02*
X125039543Y-100372495D01*
X125039543Y-100372495D02*
X125112114Y-100408781D01*
X126055542Y-100880495D02*
X126055542Y-100118495D01*
X126055542Y-100118495D02*
X126490971Y-100880495D01*
X126490971Y-100880495D02*
X126490971Y-100118495D01*
X126962685Y-100880495D02*
X126890114Y-100844210D01*
X126890114Y-100844210D02*
X126853828Y-100807924D01*
X126853828Y-100807924D02*
X126817542Y-100735352D01*
X126817542Y-100735352D02*
X126817542Y-100517638D01*
X126817542Y-100517638D02*
X126853828Y-100445067D01*
X126853828Y-100445067D02*
X126890114Y-100408781D01*
X126890114Y-100408781D02*
X126962685Y-100372495D01*
X126962685Y-100372495D02*
X127071542Y-100372495D01*
X127071542Y-100372495D02*
X127144114Y-100408781D01*
X127144114Y-100408781D02*
X127180400Y-100445067D01*
X127180400Y-100445067D02*
X127216685Y-100517638D01*
X127216685Y-100517638D02*
X127216685Y-100735352D01*
X127216685Y-100735352D02*
X127180400Y-100807924D01*
X127180400Y-100807924D02*
X127144114Y-100844210D01*
X127144114Y-100844210D02*
X127071542Y-100880495D01*
X127071542Y-100880495D02*
X126962685Y-100880495D01*
X127543257Y-100880495D02*
X127543257Y-100372495D01*
X127543257Y-100517638D02*
X127579543Y-100445067D01*
X127579543Y-100445067D02*
X127615829Y-100408781D01*
X127615829Y-100408781D02*
X127688400Y-100372495D01*
X127688400Y-100372495D02*
X127760971Y-100372495D01*
X127906114Y-100372495D02*
X128196400Y-100372495D01*
X128014971Y-100118495D02*
X128014971Y-100771638D01*
X128014971Y-100771638D02*
X128051257Y-100844210D01*
X128051257Y-100844210D02*
X128123828Y-100880495D01*
X128123828Y-100880495D02*
X128196400Y-100880495D01*
X128450400Y-100880495D02*
X128450400Y-100118495D01*
X128776972Y-100880495D02*
X128776972Y-100481352D01*
X128776972Y-100481352D02*
X128740686Y-100408781D01*
X128740686Y-100408781D02*
X128668114Y-100372495D01*
X128668114Y-100372495D02*
X128559257Y-100372495D01*
X128559257Y-100372495D02*
X128486686Y-100408781D01*
X128486686Y-100408781D02*
X128450400Y-100445067D01*
X130155829Y-100880495D02*
X129901829Y-100517638D01*
X129720400Y-100880495D02*
X129720400Y-100118495D01*
X129720400Y-100118495D02*
X130010686Y-100118495D01*
X130010686Y-100118495D02*
X130083257Y-100154781D01*
X130083257Y-100154781D02*
X130119543Y-100191067D01*
X130119543Y-100191067D02*
X130155829Y-100263638D01*
X130155829Y-100263638D02*
X130155829Y-100372495D01*
X130155829Y-100372495D02*
X130119543Y-100445067D01*
X130119543Y-100445067D02*
X130083257Y-100481352D01*
X130083257Y-100481352D02*
X130010686Y-100517638D01*
X130010686Y-100517638D02*
X129720400Y-100517638D01*
X130772686Y-100844210D02*
X130700114Y-100880495D01*
X130700114Y-100880495D02*
X130554972Y-100880495D01*
X130554972Y-100880495D02*
X130482400Y-100844210D01*
X130482400Y-100844210D02*
X130446114Y-100771638D01*
X130446114Y-100771638D02*
X130446114Y-100481352D01*
X130446114Y-100481352D02*
X130482400Y-100408781D01*
X130482400Y-100408781D02*
X130554972Y-100372495D01*
X130554972Y-100372495D02*
X130700114Y-100372495D01*
X130700114Y-100372495D02*
X130772686Y-100408781D01*
X130772686Y-100408781D02*
X130808972Y-100481352D01*
X130808972Y-100481352D02*
X130808972Y-100553924D01*
X130808972Y-100553924D02*
X130446114Y-100626495D01*
X131062972Y-100372495D02*
X131244400Y-100880495D01*
X131244400Y-100880495D02*
X131425829Y-100372495D01*
X132550685Y-100481352D02*
X132659542Y-100517638D01*
X132659542Y-100517638D02*
X132695828Y-100553924D01*
X132695828Y-100553924D02*
X132732114Y-100626495D01*
X132732114Y-100626495D02*
X132732114Y-100735352D01*
X132732114Y-100735352D02*
X132695828Y-100807924D01*
X132695828Y-100807924D02*
X132659542Y-100844210D01*
X132659542Y-100844210D02*
X132586971Y-100880495D01*
X132586971Y-100880495D02*
X132296685Y-100880495D01*
X132296685Y-100880495D02*
X132296685Y-100118495D01*
X132296685Y-100118495D02*
X132550685Y-100118495D01*
X132550685Y-100118495D02*
X132623257Y-100154781D01*
X132623257Y-100154781D02*
X132659542Y-100191067D01*
X132659542Y-100191067D02*
X132695828Y-100263638D01*
X132695828Y-100263638D02*
X132695828Y-100336210D01*
X132695828Y-100336210D02*
X132659542Y-100408781D01*
X132659542Y-100408781D02*
X132623257Y-100445067D01*
X132623257Y-100445067D02*
X132550685Y-100481352D01*
X132550685Y-100481352D02*
X132296685Y-100481352D01*
X121918970Y-102107315D02*
X121918970Y-101345315D01*
X121918970Y-101345315D02*
X122100399Y-101345315D01*
X122100399Y-101345315D02*
X122209256Y-101381601D01*
X122209256Y-101381601D02*
X122281827Y-101454172D01*
X122281827Y-101454172D02*
X122318113Y-101526744D01*
X122318113Y-101526744D02*
X122354399Y-101671887D01*
X122354399Y-101671887D02*
X122354399Y-101780744D01*
X122354399Y-101780744D02*
X122318113Y-101925887D01*
X122318113Y-101925887D02*
X122281827Y-101998458D01*
X122281827Y-101998458D02*
X122209256Y-102071030D01*
X122209256Y-102071030D02*
X122100399Y-102107315D01*
X122100399Y-102107315D02*
X121918970Y-102107315D01*
X122971256Y-102071030D02*
X122898684Y-102107315D01*
X122898684Y-102107315D02*
X122753542Y-102107315D01*
X122753542Y-102107315D02*
X122680970Y-102071030D01*
X122680970Y-102071030D02*
X122644684Y-101998458D01*
X122644684Y-101998458D02*
X122644684Y-101708172D01*
X122644684Y-101708172D02*
X122680970Y-101635601D01*
X122680970Y-101635601D02*
X122753542Y-101599315D01*
X122753542Y-101599315D02*
X122898684Y-101599315D01*
X122898684Y-101599315D02*
X122971256Y-101635601D01*
X122971256Y-101635601D02*
X123007542Y-101708172D01*
X123007542Y-101708172D02*
X123007542Y-101780744D01*
X123007542Y-101780744D02*
X122644684Y-101853315D01*
X123334113Y-101599315D02*
X123334113Y-102107315D01*
X123334113Y-101671887D02*
X123370399Y-101635601D01*
X123370399Y-101635601D02*
X123442970Y-101599315D01*
X123442970Y-101599315D02*
X123551827Y-101599315D01*
X123551827Y-101599315D02*
X123624399Y-101635601D01*
X123624399Y-101635601D02*
X123660685Y-101708172D01*
X123660685Y-101708172D02*
X123660685Y-102107315D01*
X124023542Y-101599315D02*
X124023542Y-102107315D01*
X124023542Y-101671887D02*
X124059828Y-101635601D01*
X124059828Y-101635601D02*
X124132399Y-101599315D01*
X124132399Y-101599315D02*
X124241256Y-101599315D01*
X124241256Y-101599315D02*
X124313828Y-101635601D01*
X124313828Y-101635601D02*
X124350114Y-101708172D01*
X124350114Y-101708172D02*
X124350114Y-102107315D01*
X124712971Y-102107315D02*
X124712971Y-101599315D01*
X124712971Y-101345315D02*
X124676685Y-101381601D01*
X124676685Y-101381601D02*
X124712971Y-101417887D01*
X124712971Y-101417887D02*
X124749257Y-101381601D01*
X124749257Y-101381601D02*
X124712971Y-101345315D01*
X124712971Y-101345315D02*
X124712971Y-101417887D01*
X125039542Y-102071030D02*
X125112114Y-102107315D01*
X125112114Y-102107315D02*
X125257257Y-102107315D01*
X125257257Y-102107315D02*
X125329828Y-102071030D01*
X125329828Y-102071030D02*
X125366114Y-101998458D01*
X125366114Y-101998458D02*
X125366114Y-101962172D01*
X125366114Y-101962172D02*
X125329828Y-101889601D01*
X125329828Y-101889601D02*
X125257257Y-101853315D01*
X125257257Y-101853315D02*
X125148400Y-101853315D01*
X125148400Y-101853315D02*
X125075828Y-101817030D01*
X125075828Y-101817030D02*
X125039542Y-101744458D01*
X125039542Y-101744458D02*
X125039542Y-101708172D01*
X125039542Y-101708172D02*
X125075828Y-101635601D01*
X125075828Y-101635601D02*
X125148400Y-101599315D01*
X125148400Y-101599315D02*
X125257257Y-101599315D01*
X125257257Y-101599315D02*
X125329828Y-101635601D01*
X126273256Y-102107315D02*
X126273256Y-101345315D01*
X126273256Y-101708172D02*
X126708685Y-101708172D01*
X126708685Y-102107315D02*
X126708685Y-101345315D01*
X127071542Y-102034744D02*
X127107828Y-102071030D01*
X127107828Y-102071030D02*
X127071542Y-102107315D01*
X127071542Y-102107315D02*
X127035256Y-102071030D01*
X127035256Y-102071030D02*
X127071542Y-102034744D01*
X127071542Y-102034744D02*
X127071542Y-102107315D01*
X128450399Y-102034744D02*
X128414113Y-102071030D01*
X128414113Y-102071030D02*
X128305256Y-102107315D01*
X128305256Y-102107315D02*
X128232684Y-102107315D01*
X128232684Y-102107315D02*
X128123827Y-102071030D01*
X128123827Y-102071030D02*
X128051256Y-101998458D01*
X128051256Y-101998458D02*
X128014970Y-101925887D01*
X128014970Y-101925887D02*
X127978684Y-101780744D01*
X127978684Y-101780744D02*
X127978684Y-101671887D01*
X127978684Y-101671887D02*
X128014970Y-101526744D01*
X128014970Y-101526744D02*
X128051256Y-101454172D01*
X128051256Y-101454172D02*
X128123827Y-101381601D01*
X128123827Y-101381601D02*
X128232684Y-101345315D01*
X128232684Y-101345315D02*
X128305256Y-101345315D01*
X128305256Y-101345315D02*
X128414113Y-101381601D01*
X128414113Y-101381601D02*
X128450399Y-101417887D01*
X129103542Y-102107315D02*
X129103542Y-101708172D01*
X129103542Y-101708172D02*
X129067256Y-101635601D01*
X129067256Y-101635601D02*
X128994684Y-101599315D01*
X128994684Y-101599315D02*
X128849542Y-101599315D01*
X128849542Y-101599315D02*
X128776970Y-101635601D01*
X129103542Y-102071030D02*
X129030970Y-102107315D01*
X129030970Y-102107315D02*
X128849542Y-102107315D01*
X128849542Y-102107315D02*
X128776970Y-102071030D01*
X128776970Y-102071030D02*
X128740684Y-101998458D01*
X128740684Y-101998458D02*
X128740684Y-101925887D01*
X128740684Y-101925887D02*
X128776970Y-101853315D01*
X128776970Y-101853315D02*
X128849542Y-101817030D01*
X128849542Y-101817030D02*
X129030970Y-101817030D01*
X129030970Y-101817030D02*
X129103542Y-101780744D01*
X129575256Y-102107315D02*
X129502685Y-102071030D01*
X129502685Y-102071030D02*
X129466399Y-101998458D01*
X129466399Y-101998458D02*
X129466399Y-101345315D01*
X130192114Y-102107315D02*
X130192114Y-101345315D01*
X130192114Y-102071030D02*
X130119542Y-102107315D01*
X130119542Y-102107315D02*
X129974399Y-102107315D01*
X129974399Y-102107315D02*
X129901828Y-102071030D01*
X129901828Y-102071030D02*
X129865542Y-102034744D01*
X129865542Y-102034744D02*
X129829256Y-101962172D01*
X129829256Y-101962172D02*
X129829256Y-101744458D01*
X129829256Y-101744458D02*
X129865542Y-101671887D01*
X129865542Y-101671887D02*
X129901828Y-101635601D01*
X129901828Y-101635601D02*
X129974399Y-101599315D01*
X129974399Y-101599315D02*
X130119542Y-101599315D01*
X130119542Y-101599315D02*
X130192114Y-101635601D01*
X130845257Y-102071030D02*
X130772685Y-102107315D01*
X130772685Y-102107315D02*
X130627543Y-102107315D01*
X130627543Y-102107315D02*
X130554971Y-102071030D01*
X130554971Y-102071030D02*
X130518685Y-101998458D01*
X130518685Y-101998458D02*
X130518685Y-101708172D01*
X130518685Y-101708172D02*
X130554971Y-101635601D01*
X130554971Y-101635601D02*
X130627543Y-101599315D01*
X130627543Y-101599315D02*
X130772685Y-101599315D01*
X130772685Y-101599315D02*
X130845257Y-101635601D01*
X130845257Y-101635601D02*
X130881543Y-101708172D01*
X130881543Y-101708172D02*
X130881543Y-101780744D01*
X130881543Y-101780744D02*
X130518685Y-101853315D01*
X131208114Y-102107315D02*
X131208114Y-101599315D01*
X131208114Y-101744458D02*
X131244400Y-101671887D01*
X131244400Y-101671887D02*
X131280686Y-101635601D01*
X131280686Y-101635601D02*
X131353257Y-101599315D01*
X131353257Y-101599315D02*
X131425828Y-101599315D01*
X131788685Y-102107315D02*
X131716114Y-102071030D01*
X131716114Y-102071030D02*
X131679828Y-102034744D01*
X131679828Y-102034744D02*
X131643542Y-101962172D01*
X131643542Y-101962172D02*
X131643542Y-101744458D01*
X131643542Y-101744458D02*
X131679828Y-101671887D01*
X131679828Y-101671887D02*
X131716114Y-101635601D01*
X131716114Y-101635601D02*
X131788685Y-101599315D01*
X131788685Y-101599315D02*
X131897542Y-101599315D01*
X131897542Y-101599315D02*
X131970114Y-101635601D01*
X131970114Y-101635601D02*
X132006400Y-101671887D01*
X132006400Y-101671887D02*
X132042685Y-101744458D01*
X132042685Y-101744458D02*
X132042685Y-101962172D01*
X132042685Y-101962172D02*
X132006400Y-102034744D01*
X132006400Y-102034744D02*
X131970114Y-102071030D01*
X131970114Y-102071030D02*
X131897542Y-102107315D01*
X131897542Y-102107315D02*
X131788685Y-102107315D01*
X132369257Y-101599315D02*
X132369257Y-102107315D01*
X132369257Y-101671887D02*
X132405543Y-101635601D01*
X132405543Y-101635601D02*
X132478114Y-101599315D01*
X132478114Y-101599315D02*
X132586971Y-101599315D01*
X132586971Y-101599315D02*
X132659543Y-101635601D01*
X132659543Y-101635601D02*
X132695829Y-101708172D01*
X132695829Y-101708172D02*
X132695829Y-102107315D01*
X123932829Y-102572135D02*
X124005400Y-102572135D01*
X124005400Y-102572135D02*
X124077972Y-102608421D01*
X124077972Y-102608421D02*
X124114258Y-102644707D01*
X124114258Y-102644707D02*
X124150543Y-102717278D01*
X124150543Y-102717278D02*
X124186829Y-102862421D01*
X124186829Y-102862421D02*
X124186829Y-103043850D01*
X124186829Y-103043850D02*
X124150543Y-103188992D01*
X124150543Y-103188992D02*
X124114258Y-103261564D01*
X124114258Y-103261564D02*
X124077972Y-103297850D01*
X124077972Y-103297850D02*
X124005400Y-103334135D01*
X124005400Y-103334135D02*
X123932829Y-103334135D01*
X123932829Y-103334135D02*
X123860258Y-103297850D01*
X123860258Y-103297850D02*
X123823972Y-103261564D01*
X123823972Y-103261564D02*
X123787686Y-103188992D01*
X123787686Y-103188992D02*
X123751400Y-103043850D01*
X123751400Y-103043850D02*
X123751400Y-102862421D01*
X123751400Y-102862421D02*
X123787686Y-102717278D01*
X123787686Y-102717278D02*
X123823972Y-102644707D01*
X123823972Y-102644707D02*
X123860258Y-102608421D01*
X123860258Y-102608421D02*
X123932829Y-102572135D01*
X124549686Y-103334135D02*
X124694829Y-103334135D01*
X124694829Y-103334135D02*
X124767400Y-103297850D01*
X124767400Y-103297850D02*
X124803686Y-103261564D01*
X124803686Y-103261564D02*
X124876257Y-103152707D01*
X124876257Y-103152707D02*
X124912543Y-103007564D01*
X124912543Y-103007564D02*
X124912543Y-102717278D01*
X124912543Y-102717278D02*
X124876257Y-102644707D01*
X124876257Y-102644707D02*
X124839972Y-102608421D01*
X124839972Y-102608421D02*
X124767400Y-102572135D01*
X124767400Y-102572135D02*
X124622257Y-102572135D01*
X124622257Y-102572135D02*
X124549686Y-102608421D01*
X124549686Y-102608421D02*
X124513400Y-102644707D01*
X124513400Y-102644707D02*
X124477114Y-102717278D01*
X124477114Y-102717278D02*
X124477114Y-102898707D01*
X124477114Y-102898707D02*
X124513400Y-102971278D01*
X124513400Y-102971278D02*
X124549686Y-103007564D01*
X124549686Y-103007564D02*
X124622257Y-103043850D01*
X124622257Y-103043850D02*
X124767400Y-103043850D01*
X124767400Y-103043850D02*
X124839972Y-103007564D01*
X124839972Y-103007564D02*
X124876257Y-102971278D01*
X124876257Y-102971278D02*
X124912543Y-102898707D01*
X125783400Y-102535850D02*
X125130257Y-103515564D01*
X126182543Y-102572135D02*
X126255114Y-102572135D01*
X126255114Y-102572135D02*
X126327686Y-102608421D01*
X126327686Y-102608421D02*
X126363972Y-102644707D01*
X126363972Y-102644707D02*
X126400257Y-102717278D01*
X126400257Y-102717278D02*
X126436543Y-102862421D01*
X126436543Y-102862421D02*
X126436543Y-103043850D01*
X126436543Y-103043850D02*
X126400257Y-103188992D01*
X126400257Y-103188992D02*
X126363972Y-103261564D01*
X126363972Y-103261564D02*
X126327686Y-103297850D01*
X126327686Y-103297850D02*
X126255114Y-103334135D01*
X126255114Y-103334135D02*
X126182543Y-103334135D01*
X126182543Y-103334135D02*
X126109972Y-103297850D01*
X126109972Y-103297850D02*
X126073686Y-103261564D01*
X126073686Y-103261564D02*
X126037400Y-103188992D01*
X126037400Y-103188992D02*
X126001114Y-103043850D01*
X126001114Y-103043850D02*
X126001114Y-102862421D01*
X126001114Y-102862421D02*
X126037400Y-102717278D01*
X126037400Y-102717278D02*
X126073686Y-102644707D01*
X126073686Y-102644707D02*
X126109972Y-102608421D01*
X126109972Y-102608421D02*
X126182543Y-102572135D01*
X126799400Y-103334135D02*
X126944543Y-103334135D01*
X126944543Y-103334135D02*
X127017114Y-103297850D01*
X127017114Y-103297850D02*
X127053400Y-103261564D01*
X127053400Y-103261564D02*
X127125971Y-103152707D01*
X127125971Y-103152707D02*
X127162257Y-103007564D01*
X127162257Y-103007564D02*
X127162257Y-102717278D01*
X127162257Y-102717278D02*
X127125971Y-102644707D01*
X127125971Y-102644707D02*
X127089686Y-102608421D01*
X127089686Y-102608421D02*
X127017114Y-102572135D01*
X127017114Y-102572135D02*
X126871971Y-102572135D01*
X126871971Y-102572135D02*
X126799400Y-102608421D01*
X126799400Y-102608421D02*
X126763114Y-102644707D01*
X126763114Y-102644707D02*
X126726828Y-102717278D01*
X126726828Y-102717278D02*
X126726828Y-102898707D01*
X126726828Y-102898707D02*
X126763114Y-102971278D01*
X126763114Y-102971278D02*
X126799400Y-103007564D01*
X126799400Y-103007564D02*
X126871971Y-103043850D01*
X126871971Y-103043850D02*
X127017114Y-103043850D01*
X127017114Y-103043850D02*
X127089686Y-103007564D01*
X127089686Y-103007564D02*
X127125971Y-102971278D01*
X127125971Y-102971278D02*
X127162257Y-102898707D01*
X128033114Y-102535850D02*
X127379971Y-103515564D01*
X128250828Y-102644707D02*
X128287114Y-102608421D01*
X128287114Y-102608421D02*
X128359686Y-102572135D01*
X128359686Y-102572135D02*
X128541114Y-102572135D01*
X128541114Y-102572135D02*
X128613686Y-102608421D01*
X128613686Y-102608421D02*
X128649971Y-102644707D01*
X128649971Y-102644707D02*
X128686257Y-102717278D01*
X128686257Y-102717278D02*
X128686257Y-102789850D01*
X128686257Y-102789850D02*
X128649971Y-102898707D01*
X128649971Y-102898707D02*
X128214543Y-103334135D01*
X128214543Y-103334135D02*
X128686257Y-103334135D01*
X129157971Y-102572135D02*
X129230542Y-102572135D01*
X129230542Y-102572135D02*
X129303114Y-102608421D01*
X129303114Y-102608421D02*
X129339400Y-102644707D01*
X129339400Y-102644707D02*
X129375685Y-102717278D01*
X129375685Y-102717278D02*
X129411971Y-102862421D01*
X129411971Y-102862421D02*
X129411971Y-103043850D01*
X129411971Y-103043850D02*
X129375685Y-103188992D01*
X129375685Y-103188992D02*
X129339400Y-103261564D01*
X129339400Y-103261564D02*
X129303114Y-103297850D01*
X129303114Y-103297850D02*
X129230542Y-103334135D01*
X129230542Y-103334135D02*
X129157971Y-103334135D01*
X129157971Y-103334135D02*
X129085400Y-103297850D01*
X129085400Y-103297850D02*
X129049114Y-103261564D01*
X129049114Y-103261564D02*
X129012828Y-103188992D01*
X129012828Y-103188992D02*
X128976542Y-103043850D01*
X128976542Y-103043850D02*
X128976542Y-102862421D01*
X128976542Y-102862421D02*
X129012828Y-102717278D01*
X129012828Y-102717278D02*
X129049114Y-102644707D01*
X129049114Y-102644707D02*
X129085400Y-102608421D01*
X129085400Y-102608421D02*
X129157971Y-102572135D01*
X129702256Y-102644707D02*
X129738542Y-102608421D01*
X129738542Y-102608421D02*
X129811114Y-102572135D01*
X129811114Y-102572135D02*
X129992542Y-102572135D01*
X129992542Y-102572135D02*
X130065114Y-102608421D01*
X130065114Y-102608421D02*
X130101399Y-102644707D01*
X130101399Y-102644707D02*
X130137685Y-102717278D01*
X130137685Y-102717278D02*
X130137685Y-102789850D01*
X130137685Y-102789850D02*
X130101399Y-102898707D01*
X130101399Y-102898707D02*
X129665971Y-103334135D01*
X129665971Y-103334135D02*
X130137685Y-103334135D01*
X130391685Y-102572135D02*
X130863399Y-102572135D01*
X130863399Y-102572135D02*
X130609399Y-102862421D01*
X130609399Y-102862421D02*
X130718256Y-102862421D01*
X130718256Y-102862421D02*
X130790828Y-102898707D01*
X130790828Y-102898707D02*
X130827113Y-102934992D01*
X130827113Y-102934992D02*
X130863399Y-103007564D01*
X130863399Y-103007564D02*
X130863399Y-103188992D01*
X130863399Y-103188992D02*
X130827113Y-103261564D01*
X130827113Y-103261564D02*
X130790828Y-103297850D01*
X130790828Y-103297850D02*
X130718256Y-103334135D01*
X130718256Y-103334135D02*
X130500542Y-103334135D01*
X130500542Y-103334135D02*
X130427970Y-103297850D01*
X130427970Y-103297850D02*
X130391685Y-103261564D01*
D13*
X100634619Y-91660457D02*
X99634619Y-91660457D01*
X99634619Y-91660457D02*
X100634619Y-91089029D01*
X100634619Y-91089029D02*
X99634619Y-91089029D01*
X99634619Y-90755695D02*
X99634619Y-90184267D01*
X100634619Y-90469981D02*
X99634619Y-90469981D01*
X100110809Y-89517600D02*
X100158428Y-89374743D01*
X100158428Y-89374743D02*
X100206047Y-89327124D01*
X100206047Y-89327124D02*
X100301285Y-89279505D01*
X100301285Y-89279505D02*
X100444142Y-89279505D01*
X100444142Y-89279505D02*
X100539380Y-89327124D01*
X100539380Y-89327124D02*
X100587000Y-89374743D01*
X100587000Y-89374743D02*
X100634619Y-89469981D01*
X100634619Y-89469981D02*
X100634619Y-89850933D01*
X100634619Y-89850933D02*
X99634619Y-89850933D01*
X99634619Y-89850933D02*
X99634619Y-89517600D01*
X99634619Y-89517600D02*
X99682238Y-89422362D01*
X99682238Y-89422362D02*
X99729857Y-89374743D01*
X99729857Y-89374743D02*
X99825095Y-89327124D01*
X99825095Y-89327124D02*
X99920333Y-89327124D01*
X99920333Y-89327124D02*
X100015571Y-89374743D01*
X100015571Y-89374743D02*
X100063190Y-89422362D01*
X100063190Y-89422362D02*
X100110809Y-89517600D01*
X100110809Y-89517600D02*
X100110809Y-89850933D01*
X99729857Y-88898552D02*
X99682238Y-88850933D01*
X99682238Y-88850933D02*
X99634619Y-88755695D01*
X99634619Y-88755695D02*
X99634619Y-88517600D01*
X99634619Y-88517600D02*
X99682238Y-88422362D01*
X99682238Y-88422362D02*
X99729857Y-88374743D01*
X99729857Y-88374743D02*
X99825095Y-88327124D01*
X99825095Y-88327124D02*
X99920333Y-88327124D01*
X99920333Y-88327124D02*
X100063190Y-88374743D01*
X100063190Y-88374743D02*
X100634619Y-88946171D01*
X100634619Y-88946171D02*
X100634619Y-88327124D01*
X136759619Y-91630456D02*
X135759619Y-91630456D01*
X135759619Y-91630456D02*
X136759619Y-91059028D01*
X136759619Y-91059028D02*
X135759619Y-91059028D01*
X135759619Y-90725694D02*
X135759619Y-90154266D01*
X136759619Y-90439980D02*
X135759619Y-90439980D01*
X136235809Y-89487599D02*
X136283428Y-89344742D01*
X136283428Y-89344742D02*
X136331047Y-89297123D01*
X136331047Y-89297123D02*
X136426285Y-89249504D01*
X136426285Y-89249504D02*
X136569142Y-89249504D01*
X136569142Y-89249504D02*
X136664380Y-89297123D01*
X136664380Y-89297123D02*
X136712000Y-89344742D01*
X136712000Y-89344742D02*
X136759619Y-89439980D01*
X136759619Y-89439980D02*
X136759619Y-89820932D01*
X136759619Y-89820932D02*
X135759619Y-89820932D01*
X135759619Y-89820932D02*
X135759619Y-89487599D01*
X135759619Y-89487599D02*
X135807238Y-89392361D01*
X135807238Y-89392361D02*
X135854857Y-89344742D01*
X135854857Y-89344742D02*
X135950095Y-89297123D01*
X135950095Y-89297123D02*
X136045333Y-89297123D01*
X136045333Y-89297123D02*
X136140571Y-89344742D01*
X136140571Y-89344742D02*
X136188190Y-89392361D01*
X136188190Y-89392361D02*
X136235809Y-89487599D01*
X136235809Y-89487599D02*
X136235809Y-89820932D01*
X135854857Y-88868551D02*
X135807238Y-88820932D01*
X135807238Y-88820932D02*
X135759619Y-88725694D01*
X135759619Y-88725694D02*
X135759619Y-88487599D01*
X135759619Y-88487599D02*
X135807238Y-88392361D01*
X135807238Y-88392361D02*
X135854857Y-88344742D01*
X135854857Y-88344742D02*
X135950095Y-88297123D01*
X135950095Y-88297123D02*
X136045333Y-88297123D01*
X136045333Y-88297123D02*
X136188190Y-88344742D01*
X136188190Y-88344742D02*
X136759619Y-88916170D01*
X136759619Y-88916170D02*
X136759619Y-88297123D01*
D11*
X102683623Y-83381647D02*
X102683623Y-84214980D01*
X103993147Y-84214980D02*
X101493147Y-84214980D01*
X101493147Y-84214980D02*
X101493147Y-83024504D01*
X103993147Y-82072123D02*
X102326480Y-82072123D01*
X102802671Y-82072123D02*
X102564576Y-81953076D01*
X102564576Y-81953076D02*
X102445528Y-81834028D01*
X102445528Y-81834028D02*
X102326480Y-81595933D01*
X102326480Y-81595933D02*
X102326480Y-81357838D01*
X103993147Y-80167362D02*
X103874100Y-80405457D01*
X103874100Y-80405457D02*
X103755052Y-80524504D01*
X103755052Y-80524504D02*
X103516957Y-80643552D01*
X103516957Y-80643552D02*
X102802671Y-80643552D01*
X102802671Y-80643552D02*
X102564576Y-80524504D01*
X102564576Y-80524504D02*
X102445528Y-80405457D01*
X102445528Y-80405457D02*
X102326480Y-80167362D01*
X102326480Y-80167362D02*
X102326480Y-79810219D01*
X102326480Y-79810219D02*
X102445528Y-79572123D01*
X102445528Y-79572123D02*
X102564576Y-79453076D01*
X102564576Y-79453076D02*
X102802671Y-79334028D01*
X102802671Y-79334028D02*
X103516957Y-79334028D01*
X103516957Y-79334028D02*
X103755052Y-79453076D01*
X103755052Y-79453076D02*
X103874100Y-79572123D01*
X103874100Y-79572123D02*
X103993147Y-79810219D01*
X103993147Y-79810219D02*
X103993147Y-80167362D01*
X103993147Y-78262599D02*
X102326480Y-78262599D01*
X102564576Y-78262599D02*
X102445528Y-78143552D01*
X102445528Y-78143552D02*
X102326480Y-77905457D01*
X102326480Y-77905457D02*
X102326480Y-77548314D01*
X102326480Y-77548314D02*
X102445528Y-77310218D01*
X102445528Y-77310218D02*
X102683623Y-77191171D01*
X102683623Y-77191171D02*
X103993147Y-77191171D01*
X102683623Y-77191171D02*
X102445528Y-77072123D01*
X102445528Y-77072123D02*
X102326480Y-76834028D01*
X102326480Y-76834028D02*
X102326480Y-76476885D01*
X102326480Y-76476885D02*
X102445528Y-76238790D01*
X102445528Y-76238790D02*
X102683623Y-76119742D01*
X102683623Y-76119742D02*
X103993147Y-76119742D01*
X103993147Y-73024504D02*
X101493147Y-73024504D01*
X101493147Y-73024504D02*
X101493147Y-72429266D01*
X101493147Y-72429266D02*
X101612195Y-72072123D01*
X101612195Y-72072123D02*
X101850290Y-71834028D01*
X101850290Y-71834028D02*
X102088385Y-71714981D01*
X102088385Y-71714981D02*
X102564576Y-71595933D01*
X102564576Y-71595933D02*
X102921719Y-71595933D01*
X102921719Y-71595933D02*
X103397909Y-71714981D01*
X103397909Y-71714981D02*
X103636004Y-71834028D01*
X103636004Y-71834028D02*
X103874100Y-72072123D01*
X103874100Y-72072123D02*
X103993147Y-72429266D01*
X103993147Y-72429266D02*
X103993147Y-73024504D01*
X103755052Y-69095933D02*
X103874100Y-69214981D01*
X103874100Y-69214981D02*
X103993147Y-69572123D01*
X103993147Y-69572123D02*
X103993147Y-69810219D01*
X103993147Y-69810219D02*
X103874100Y-70167362D01*
X103874100Y-70167362D02*
X103636004Y-70405457D01*
X103636004Y-70405457D02*
X103397909Y-70524504D01*
X103397909Y-70524504D02*
X102921719Y-70643552D01*
X102921719Y-70643552D02*
X102564576Y-70643552D01*
X102564576Y-70643552D02*
X102088385Y-70524504D01*
X102088385Y-70524504D02*
X101850290Y-70405457D01*
X101850290Y-70405457D02*
X101612195Y-70167362D01*
X101612195Y-70167362D02*
X101493147Y-69810219D01*
X101493147Y-69810219D02*
X101493147Y-69572123D01*
X101493147Y-69572123D02*
X101612195Y-69214981D01*
X101612195Y-69214981D02*
X101731242Y-69095933D01*
X101493147Y-68381647D02*
X101493147Y-66953076D01*
X103993147Y-67667362D02*
X101493147Y-67667362D01*
D13*
X136759619Y-62755257D02*
X135759619Y-62755257D01*
X135759619Y-62755257D02*
X136759619Y-62183829D01*
X136759619Y-62183829D02*
X135759619Y-62183829D01*
X135759619Y-61850495D02*
X135759619Y-61279067D01*
X136759619Y-61564781D02*
X135759619Y-61564781D01*
X136235809Y-60612400D02*
X136283428Y-60469543D01*
X136283428Y-60469543D02*
X136331047Y-60421924D01*
X136331047Y-60421924D02*
X136426285Y-60374305D01*
X136426285Y-60374305D02*
X136569142Y-60374305D01*
X136569142Y-60374305D02*
X136664380Y-60421924D01*
X136664380Y-60421924D02*
X136712000Y-60469543D01*
X136712000Y-60469543D02*
X136759619Y-60564781D01*
X136759619Y-60564781D02*
X136759619Y-60945733D01*
X136759619Y-60945733D02*
X135759619Y-60945733D01*
X135759619Y-60945733D02*
X135759619Y-60612400D01*
X135759619Y-60612400D02*
X135807238Y-60517162D01*
X135807238Y-60517162D02*
X135854857Y-60469543D01*
X135854857Y-60469543D02*
X135950095Y-60421924D01*
X135950095Y-60421924D02*
X136045333Y-60421924D01*
X136045333Y-60421924D02*
X136140571Y-60469543D01*
X136140571Y-60469543D02*
X136188190Y-60517162D01*
X136188190Y-60517162D02*
X136235809Y-60612400D01*
X136235809Y-60612400D02*
X136235809Y-60945733D01*
X136759619Y-59421924D02*
X136759619Y-59993352D01*
X136759619Y-59707638D02*
X135759619Y-59707638D01*
X135759619Y-59707638D02*
X135902476Y-59802876D01*
X135902476Y-59802876D02*
X135997714Y-59898114D01*
X135997714Y-59898114D02*
X136045333Y-59993352D01*
X100634619Y-62704457D02*
X99634619Y-62704457D01*
X99634619Y-62704457D02*
X100634619Y-62133029D01*
X100634619Y-62133029D02*
X99634619Y-62133029D01*
X99634619Y-61799695D02*
X99634619Y-61228267D01*
X100634619Y-61513981D02*
X99634619Y-61513981D01*
X100110809Y-60561600D02*
X100158428Y-60418743D01*
X100158428Y-60418743D02*
X100206047Y-60371124D01*
X100206047Y-60371124D02*
X100301285Y-60323505D01*
X100301285Y-60323505D02*
X100444142Y-60323505D01*
X100444142Y-60323505D02*
X100539380Y-60371124D01*
X100539380Y-60371124D02*
X100587000Y-60418743D01*
X100587000Y-60418743D02*
X100634619Y-60513981D01*
X100634619Y-60513981D02*
X100634619Y-60894933D01*
X100634619Y-60894933D02*
X99634619Y-60894933D01*
X99634619Y-60894933D02*
X99634619Y-60561600D01*
X99634619Y-60561600D02*
X99682238Y-60466362D01*
X99682238Y-60466362D02*
X99729857Y-60418743D01*
X99729857Y-60418743D02*
X99825095Y-60371124D01*
X99825095Y-60371124D02*
X99920333Y-60371124D01*
X99920333Y-60371124D02*
X100015571Y-60418743D01*
X100015571Y-60418743D02*
X100063190Y-60466362D01*
X100063190Y-60466362D02*
X100110809Y-60561600D01*
X100110809Y-60561600D02*
X100110809Y-60894933D01*
X100634619Y-59371124D02*
X100634619Y-59942552D01*
X100634619Y-59656838D02*
X99634619Y-59656838D01*
X99634619Y-59656838D02*
X99777476Y-59752076D01*
X99777476Y-59752076D02*
X99872714Y-59847314D01*
X99872714Y-59847314D02*
X99920333Y-59942552D01*
D12*
X99149819Y-103406533D02*
X99864104Y-103406533D01*
X99864104Y-103406533D02*
X100006961Y-103454152D01*
X100006961Y-103454152D02*
X100102200Y-103549390D01*
X100102200Y-103549390D02*
X100149819Y-103692247D01*
X100149819Y-103692247D02*
X100149819Y-103787485D01*
X99245057Y-102977961D02*
X99197438Y-102930342D01*
X99197438Y-102930342D02*
X99149819Y-102835104D01*
X99149819Y-102835104D02*
X99149819Y-102597009D01*
X99149819Y-102597009D02*
X99197438Y-102501771D01*
X99197438Y-102501771D02*
X99245057Y-102454152D01*
X99245057Y-102454152D02*
X99340295Y-102406533D01*
X99340295Y-102406533D02*
X99435533Y-102406533D01*
X99435533Y-102406533D02*
X99578390Y-102454152D01*
X99578390Y-102454152D02*
X100149819Y-103025580D01*
X100149819Y-103025580D02*
X100149819Y-102406533D01*
X135751219Y-48644133D02*
X136465504Y-48644133D01*
X136465504Y-48644133D02*
X136608361Y-48691752D01*
X136608361Y-48691752D02*
X136703600Y-48786990D01*
X136703600Y-48786990D02*
X136751219Y-48929847D01*
X136751219Y-48929847D02*
X136751219Y-49025085D01*
X135751219Y-48263180D02*
X135751219Y-47644133D01*
X135751219Y-47644133D02*
X136132171Y-47977466D01*
X136132171Y-47977466D02*
X136132171Y-47834609D01*
X136132171Y-47834609D02*
X136179790Y-47739371D01*
X136179790Y-47739371D02*
X136227409Y-47691752D01*
X136227409Y-47691752D02*
X136322647Y-47644133D01*
X136322647Y-47644133D02*
X136560742Y-47644133D01*
X136560742Y-47644133D02*
X136655980Y-47691752D01*
X136655980Y-47691752D02*
X136703600Y-47739371D01*
X136703600Y-47739371D02*
X136751219Y-47834609D01*
X136751219Y-47834609D02*
X136751219Y-48120323D01*
X136751219Y-48120323D02*
X136703600Y-48215561D01*
X136703600Y-48215561D02*
X136655980Y-48263180D01*
X135497219Y-77574733D02*
X136211504Y-77574733D01*
X136211504Y-77574733D02*
X136354361Y-77622352D01*
X136354361Y-77622352D02*
X136449600Y-77717590D01*
X136449600Y-77717590D02*
X136497219Y-77860447D01*
X136497219Y-77860447D02*
X136497219Y-77955685D01*
X135830552Y-76669971D02*
X136497219Y-76669971D01*
X135449600Y-76908066D02*
X136163885Y-77146161D01*
X136163885Y-77146161D02*
X136163885Y-76527114D01*
X99175219Y-74450533D02*
X99889504Y-74450533D01*
X99889504Y-74450533D02*
X100032361Y-74498152D01*
X100032361Y-74498152D02*
X100127600Y-74593390D01*
X100127600Y-74593390D02*
X100175219Y-74736247D01*
X100175219Y-74736247D02*
X100175219Y-74831485D01*
X100175219Y-73450533D02*
X100175219Y-74021961D01*
X100175219Y-73736247D02*
X99175219Y-73736247D01*
X99175219Y-73736247D02*
X99318076Y-73831485D01*
X99318076Y-73831485D02*
X99413314Y-73926723D01*
X99413314Y-73926723D02*
X99460933Y-74021961D01*
D14*
%TO.C,J2*%
X98831600Y-76123600D02*
X98831600Y-103911600D01*
X91617600Y-76123600D02*
X98831600Y-76123600D01*
X98831600Y-103911600D02*
X91617600Y-103911600D01*
X91617600Y-103911600D02*
X91617600Y-76123600D01*
D13*
X90183080Y-79583280D02*
G75*
G03*
X90183080Y-79583280I-100000J0D01*
G01*
%TO.C,G\u002A\u002A\u002A*%
G36*
X134019742Y-99567900D02*
G01*
X120589857Y-99567900D01*
X120589857Y-99470582D01*
X134019742Y-99470582D01*
X134019742Y-99567900D01*
G37*
G36*
X134733407Y-95204810D02*
G01*
X134607840Y-95204810D01*
X134585820Y-95010174D01*
X134295476Y-95010174D01*
X134295476Y-95997963D01*
X134490112Y-96019983D01*
X134490112Y-96145550D01*
X133808886Y-96145550D01*
X133808886Y-96019983D01*
X134003522Y-95997963D01*
X134003522Y-95010174D01*
X133713179Y-95010174D01*
X133691159Y-95204810D01*
X133565591Y-95204810D01*
X133565591Y-94847977D01*
X134733407Y-94847977D01*
X134733407Y-95204810D01*
G37*
G36*
X124725872Y-97407499D02*
G01*
X124531236Y-97430089D01*
X124531236Y-98428841D01*
X124624499Y-98442847D01*
X124676803Y-98451535D01*
X124705121Y-98461586D01*
X124717551Y-98479165D01*
X124722190Y-98510434D01*
X124722796Y-98517677D01*
X124727831Y-98578501D01*
X124044646Y-98578501D01*
X124044646Y-98521223D01*
X124046384Y-98487751D01*
X124056179Y-98467136D01*
X124080909Y-98454680D01*
X124127447Y-98445681D01*
X124162239Y-98440850D01*
X124239282Y-98430536D01*
X124239282Y-97430089D01*
X124044646Y-97407499D01*
X124044646Y-97280927D01*
X124725872Y-97280927D01*
X124725872Y-97407499D01*
G37*
G36*
X127950709Y-89274539D02*
G01*
X128083344Y-89410425D01*
X128083344Y-91624227D01*
X127950709Y-91760112D01*
X127818075Y-91895997D01*
X126793164Y-91895997D01*
X126659710Y-91761846D01*
X126526255Y-91627695D01*
X126526255Y-91595061D01*
X126623573Y-91595061D01*
X126724478Y-91696870D01*
X126825382Y-91798679D01*
X127782407Y-91798679D01*
X127884216Y-91697775D01*
X127986026Y-91596871D01*
X127986026Y-89439532D01*
X127767930Y-89219752D01*
X126843353Y-89219752D01*
X126623573Y-89437848D01*
X126623573Y-91595061D01*
X126526255Y-91595061D01*
X126526255Y-89405562D01*
X126660406Y-89272108D01*
X126794558Y-89138654D01*
X127818075Y-89138654D01*
X127950709Y-89274539D01*
G37*
G36*
X128671419Y-88534582D02*
G01*
X129105183Y-88968569D01*
X129105183Y-92067104D01*
X128236047Y-92934056D01*
X126371947Y-92934056D01*
X125930072Y-92491962D01*
X125488197Y-92049867D01*
X125488197Y-91676502D01*
X126380278Y-91676502D01*
X126554363Y-91851129D01*
X126728448Y-92025755D01*
X127880044Y-92025755D01*
X128046572Y-91859793D01*
X128213101Y-91693831D01*
X128213101Y-89341929D01*
X127864931Y-88992677D01*
X126745729Y-88992677D01*
X126563003Y-89174884D01*
X126380278Y-89357090D01*
X126380278Y-91676502D01*
X125488197Y-91676502D01*
X125488197Y-88984346D01*
X125930291Y-88542471D01*
X126372386Y-88100595D01*
X128237656Y-88100595D01*
X128671419Y-88534582D01*
G37*
G36*
X129316038Y-88862582D02*
G01*
X129316038Y-92147599D01*
X128817187Y-92646255D01*
X128318336Y-93144912D01*
X126270466Y-93144912D01*
X125782623Y-92646157D01*
X125294779Y-92147402D01*
X125294761Y-92098541D01*
X125374659Y-92098541D01*
X125848981Y-92573067D01*
X126323303Y-93047594D01*
X128286299Y-93047594D01*
X128752344Y-92581278D01*
X129218389Y-92114963D01*
X129240301Y-88909039D01*
X128771410Y-88439938D01*
X128302519Y-87970838D01*
X126307496Y-87970838D01*
X125841078Y-88437048D01*
X125374659Y-88903259D01*
X125374659Y-92098541D01*
X125294761Y-92098541D01*
X125293561Y-88854610D01*
X126275047Y-87873520D01*
X128338294Y-87873520D01*
X129316038Y-88862582D01*
G37*
G36*
X132381556Y-97637760D02*
G01*
X132255988Y-97637760D01*
X132233968Y-97443124D01*
X131943625Y-97443124D01*
X131943625Y-98428841D01*
X132036888Y-98442847D01*
X132089191Y-98451535D01*
X132117509Y-98461586D01*
X132129939Y-98479165D01*
X132134578Y-98510434D01*
X132135185Y-98517677D01*
X132140219Y-98578501D01*
X131455076Y-98578501D01*
X131460110Y-98517677D01*
X131464223Y-98483417D01*
X131474729Y-98463914D01*
X131499723Y-98453002D01*
X131547303Y-98444519D01*
X131558407Y-98442847D01*
X131651671Y-98428841D01*
X131651671Y-97443124D01*
X131362902Y-97443124D01*
X131340312Y-97637760D01*
X131213739Y-97637760D01*
X131213739Y-97280927D01*
X132381556Y-97280927D01*
X132381556Y-97637760D01*
G37*
G36*
X131067762Y-97405434D02*
G01*
X130881236Y-97435014D01*
X130876950Y-97931893D01*
X130872663Y-98428773D01*
X130966158Y-98442813D01*
X131018541Y-98451506D01*
X131046929Y-98461536D01*
X131059406Y-98479046D01*
X131064059Y-98510179D01*
X131064687Y-98517677D01*
X131069721Y-98578501D01*
X130386536Y-98578501D01*
X130386536Y-98521223D01*
X130388274Y-98487751D01*
X130398069Y-98467136D01*
X130422799Y-98454680D01*
X130469337Y-98445681D01*
X130504129Y-98440850D01*
X130581172Y-98430536D01*
X130581172Y-97430587D01*
X130487909Y-97416581D01*
X130435675Y-97407940D01*
X130407843Y-97398255D01*
X130396730Y-97381695D01*
X130394653Y-97352429D01*
X130394646Y-97345806D01*
X130394646Y-97289037D01*
X131067762Y-97280269D01*
X131067762Y-97405434D01*
G37*
G36*
X127580534Y-94973544D02*
G01*
X127483216Y-94984555D01*
X127385898Y-94995565D01*
X127385898Y-95488502D01*
X127386413Y-95633017D01*
X127387910Y-95756305D01*
X127390317Y-95856076D01*
X127393562Y-95930037D01*
X127397572Y-95975897D01*
X127401731Y-95991225D01*
X127426062Y-95998688D01*
X127470407Y-96006795D01*
X127499049Y-96010661D01*
X127580534Y-96020312D01*
X127580534Y-96145550D01*
X126897350Y-96145550D01*
X126902384Y-96084727D01*
X126906497Y-96050467D01*
X126917002Y-96030964D01*
X126941996Y-96020052D01*
X126989577Y-96011569D01*
X127000681Y-96009897D01*
X127093944Y-95995891D01*
X127093944Y-94997636D01*
X127000681Y-94983630D01*
X126948377Y-94974942D01*
X126920059Y-94964891D01*
X126907629Y-94947313D01*
X126902990Y-94916043D01*
X126902384Y-94908801D01*
X126897350Y-94847977D01*
X127580534Y-94847977D01*
X127580534Y-94973544D01*
G37*
G36*
X132186920Y-95204810D02*
G01*
X132059150Y-95204810D01*
X132048835Y-95127766D01*
X132040983Y-95072114D01*
X132031021Y-95037521D01*
X132012091Y-95018991D01*
X131977334Y-95011531D01*
X131919891Y-95010146D01*
X131887365Y-95010174D01*
X131748989Y-95010174D01*
X131748989Y-95997239D01*
X131927405Y-96019531D01*
X131927405Y-96145550D01*
X131262398Y-96145550D01*
X131262398Y-96019531D01*
X131351607Y-96008385D01*
X131440815Y-95997239D01*
X131440815Y-95010174D01*
X131303257Y-95010174D01*
X131235780Y-95010042D01*
X131193545Y-95013562D01*
X131169431Y-95026603D01*
X131156315Y-95055039D01*
X131147075Y-95104739D01*
X131140951Y-95143986D01*
X131132357Y-95183190D01*
X131116395Y-95200438D01*
X131082148Y-95204714D01*
X131067028Y-95204810D01*
X131002884Y-95204810D01*
X131002884Y-94847977D01*
X132186920Y-94847977D01*
X132186920Y-95204810D01*
G37*
G36*
X135966102Y-95188590D02*
G01*
X135838819Y-95188590D01*
X135811747Y-95018284D01*
X135572641Y-95013795D01*
X135333535Y-95009307D01*
X135333535Y-95400663D01*
X135483567Y-95395999D01*
X135633599Y-95391336D01*
X135648045Y-95306183D01*
X135657548Y-95256855D01*
X135668665Y-95231572D01*
X135687893Y-95222307D01*
X135716979Y-95221029D01*
X135771466Y-95221029D01*
X135771466Y-95707619D01*
X135715256Y-95707619D01*
X135681846Y-95705940D01*
X135663842Y-95695381D01*
X135654404Y-95667659D01*
X135648288Y-95626521D01*
X135637530Y-95545423D01*
X135333535Y-95545423D01*
X135333535Y-95984221D01*
X135572641Y-95979732D01*
X135811747Y-95975244D01*
X135825283Y-95890091D01*
X135838819Y-95804937D01*
X135966102Y-95804937D01*
X135966102Y-96145550D01*
X134846945Y-96145550D01*
X134846945Y-96019983D01*
X135041581Y-95997963D01*
X135041581Y-94997636D01*
X134948318Y-94983630D01*
X134896015Y-94974942D01*
X134867696Y-94964891D01*
X134855266Y-94947313D01*
X134850627Y-94916043D01*
X134850021Y-94908801D01*
X134844987Y-94847977D01*
X135966102Y-94847977D01*
X135966102Y-95188590D01*
G37*
G36*
X122844391Y-95188590D02*
G01*
X122716968Y-95188590D01*
X122694676Y-95010174D01*
X122210794Y-95010174D01*
X122219934Y-95391336D01*
X122511658Y-95391336D01*
X122528770Y-95310238D01*
X122540677Y-95262002D01*
X122554550Y-95237096D01*
X122577376Y-95226802D01*
X122597818Y-95224057D01*
X122649755Y-95218974D01*
X122649755Y-95707619D01*
X122594508Y-95707619D01*
X122561645Y-95705858D01*
X122543838Y-95695055D01*
X122534309Y-95666934D01*
X122528107Y-95626521D01*
X122516953Y-95545423D01*
X122211824Y-95545423D01*
X122211824Y-95983354D01*
X122694676Y-95983354D01*
X122705822Y-95894146D01*
X122716968Y-95804937D01*
X122844391Y-95804937D01*
X122844391Y-96145550D01*
X121723276Y-96145550D01*
X121728310Y-96084727D01*
X121732423Y-96050467D01*
X121742928Y-96030964D01*
X121767922Y-96020052D01*
X121815502Y-96011569D01*
X121826607Y-96009897D01*
X121919870Y-95995891D01*
X121919870Y-94997636D01*
X121826607Y-94983630D01*
X121774303Y-94974942D01*
X121745985Y-94964891D01*
X121733555Y-94947313D01*
X121728916Y-94916043D01*
X121728310Y-94908801D01*
X121723276Y-94847977D01*
X122844391Y-94847977D01*
X122844391Y-95188590D01*
G37*
G36*
X127564314Y-97621540D02*
G01*
X127436891Y-97621540D01*
X127414599Y-97443124D01*
X126930718Y-97443124D01*
X126935287Y-97633705D01*
X126939857Y-97824286D01*
X127231582Y-97824286D01*
X127248693Y-97743188D01*
X127260600Y-97694952D01*
X127274474Y-97670046D01*
X127297300Y-97659752D01*
X127317741Y-97657007D01*
X127369678Y-97651924D01*
X127369678Y-98140570D01*
X127314999Y-98140570D01*
X127282468Y-98138783D01*
X127264871Y-98127899D01*
X127255522Y-98099633D01*
X127249562Y-98059471D01*
X127238804Y-97978373D01*
X126931747Y-97978373D01*
X126931747Y-98416304D01*
X127414599Y-98416304D01*
X127436891Y-98237888D01*
X127564314Y-98237888D01*
X127564314Y-98578501D01*
X126445157Y-98578501D01*
X126445157Y-98521223D01*
X126446894Y-98487751D01*
X126456690Y-98467136D01*
X126481420Y-98454680D01*
X126527958Y-98445681D01*
X126562750Y-98440850D01*
X126639793Y-98430536D01*
X126639793Y-97430587D01*
X126546530Y-97416581D01*
X126494296Y-97407940D01*
X126466464Y-97398255D01*
X126455350Y-97381695D01*
X126453274Y-97352429D01*
X126453267Y-97345806D01*
X126453267Y-97289037D01*
X127008791Y-97284769D01*
X127564314Y-97280501D01*
X127564314Y-97621540D01*
G37*
G36*
X123115023Y-97614533D02*
G01*
X123185677Y-97712900D01*
X123254626Y-97808912D01*
X123318160Y-97897399D01*
X123372570Y-97973196D01*
X123414145Y-98031133D01*
X123432354Y-98056524D01*
X123509397Y-98164007D01*
X123509397Y-97430089D01*
X123314761Y-97407499D01*
X123314761Y-97280927D01*
X123898669Y-97280927D01*
X123898669Y-97407499D01*
X123704033Y-97430089D01*
X123704033Y-98578501D01*
X123586441Y-98577802D01*
X123468848Y-98577104D01*
X123178611Y-98165590D01*
X123104982Y-98061428D01*
X123035771Y-97963957D01*
X122973617Y-97876862D01*
X122921162Y-97803826D01*
X122881046Y-97748535D01*
X122855908Y-97714672D01*
X122850746Y-97708083D01*
X122813118Y-97662089D01*
X122812535Y-98045465D01*
X122811951Y-98428841D01*
X122905215Y-98442847D01*
X122957518Y-98451535D01*
X122985836Y-98461586D01*
X122998266Y-98479165D01*
X123002905Y-98510434D01*
X123003512Y-98517677D01*
X123008546Y-98578501D01*
X122422679Y-98578501D01*
X122422679Y-98521223D01*
X122424417Y-98487751D01*
X122434212Y-98467136D01*
X122458942Y-98454680D01*
X122505481Y-98445681D01*
X122540272Y-98440850D01*
X122617315Y-98430536D01*
X122617315Y-97430587D01*
X122524052Y-97416581D01*
X122471818Y-97407940D01*
X122443986Y-97398255D01*
X122432873Y-97381695D01*
X122430796Y-97352429D01*
X122430789Y-97345806D01*
X122430789Y-97289037D01*
X122652763Y-97284531D01*
X122874736Y-97280025D01*
X123115023Y-97614533D01*
G37*
G36*
X133192539Y-97406947D02*
G01*
X133102102Y-97418246D01*
X133046036Y-97428517D01*
X133020163Y-97441314D01*
X133019009Y-97448499D01*
X133030048Y-97468464D01*
X133055269Y-97510155D01*
X133091260Y-97568044D01*
X133134609Y-97636604D01*
X133148947Y-97659063D01*
X133197455Y-97734495D01*
X133231795Y-97785914D01*
X133255180Y-97816697D01*
X133270822Y-97830222D01*
X133281936Y-97829865D01*
X133291734Y-97819004D01*
X133295573Y-97813150D01*
X133313395Y-97785017D01*
X133344086Y-97736264D01*
X133383321Y-97673773D01*
X133426213Y-97605321D01*
X133532821Y-97435014D01*
X133443779Y-97420224D01*
X133354736Y-97405434D01*
X133354736Y-97280927D01*
X133922424Y-97280927D01*
X133922424Y-97406947D01*
X133745510Y-97429051D01*
X133558232Y-97719762D01*
X133370955Y-98010474D01*
X133370955Y-98430536D01*
X133447999Y-98440850D01*
X133508477Y-98449902D01*
X133543599Y-98459988D01*
X133560241Y-98475807D01*
X133565277Y-98502059D01*
X133565591Y-98521223D01*
X133565591Y-98578501D01*
X132882407Y-98578501D01*
X132887441Y-98517677D01*
X132891554Y-98483417D01*
X132902059Y-98463914D01*
X132927054Y-98453002D01*
X132974634Y-98444519D01*
X132985738Y-98442847D01*
X133079001Y-98428841D01*
X133079001Y-98027159D01*
X132883357Y-97728073D01*
X132687713Y-97428986D01*
X132599513Y-97417967D01*
X132511313Y-97406947D01*
X132511313Y-97280927D01*
X133192539Y-97280927D01*
X133192539Y-97406947D01*
G37*
G36*
X126347839Y-97405434D02*
G01*
X126256004Y-97420224D01*
X126164170Y-97435014D01*
X125951380Y-98002702D01*
X125738590Y-98570391D01*
X125596909Y-98575081D01*
X125527582Y-98576583D01*
X125483936Y-98574793D01*
X125459288Y-98568648D01*
X125446955Y-98557085D01*
X125443991Y-98550752D01*
X125435809Y-98529256D01*
X125417546Y-98481053D01*
X125390578Y-98409784D01*
X125356283Y-98319089D01*
X125316036Y-98212609D01*
X125271216Y-98093985D01*
X125227547Y-97978373D01*
X125022339Y-97435014D01*
X124930875Y-97420224D01*
X124839410Y-97405434D01*
X124839410Y-97280927D01*
X125504416Y-97280927D01*
X125504416Y-97406947D01*
X125415208Y-97418093D01*
X125366442Y-97425841D01*
X125334040Y-97434160D01*
X125326000Y-97439347D01*
X125331478Y-97461042D01*
X125346732Y-97506955D01*
X125369989Y-97572468D01*
X125399477Y-97652962D01*
X125433424Y-97743820D01*
X125470057Y-97840425D01*
X125507605Y-97938158D01*
X125544295Y-98032403D01*
X125578355Y-98118541D01*
X125608013Y-98191955D01*
X125631496Y-98248027D01*
X125647033Y-98282139D01*
X125652641Y-98290451D01*
X125660493Y-98273307D01*
X125677598Y-98230508D01*
X125702161Y-98166899D01*
X125732384Y-98087323D01*
X125766470Y-97996625D01*
X125802623Y-97899649D01*
X125839046Y-97801238D01*
X125873942Y-97706239D01*
X125905515Y-97619493D01*
X125931967Y-97545846D01*
X125951502Y-97490142D01*
X125962323Y-97457225D01*
X125963806Y-97451540D01*
X125950950Y-97440081D01*
X125914745Y-97427037D01*
X125877469Y-97418228D01*
X125826768Y-97407328D01*
X125800191Y-97395858D01*
X125789951Y-97377419D01*
X125788261Y-97345612D01*
X125788261Y-97289037D01*
X126347839Y-97280161D01*
X126347839Y-97405434D01*
G37*
G36*
X120022169Y-94864197D02*
G01*
X119958025Y-94864197D01*
X119916332Y-94862025D01*
X119896132Y-94849519D01*
X119886506Y-94817697D01*
X119884102Y-94803373D01*
X119875379Y-94746356D01*
X119867031Y-94708234D01*
X119853120Y-94685241D01*
X119827712Y-94673614D01*
X119784870Y-94669587D01*
X119718659Y-94669395D01*
X119673137Y-94669561D01*
X119486920Y-94669561D01*
X119486920Y-95325364D01*
X119486736Y-95489882D01*
X119486548Y-95624929D01*
X119486903Y-95733470D01*
X119488346Y-95818471D01*
X119491423Y-95882895D01*
X119496680Y-95929708D01*
X119504664Y-95961873D01*
X119515919Y-95982356D01*
X119530993Y-95994120D01*
X119550430Y-96000131D01*
X119574778Y-96003353D01*
X119604582Y-96006751D01*
X119612622Y-96007924D01*
X119655707Y-96016314D01*
X119675602Y-96029971D01*
X119681264Y-96058531D01*
X119681556Y-96082097D01*
X119681556Y-96145550D01*
X118984110Y-96145550D01*
X118984110Y-96082097D01*
X118985945Y-96042153D01*
X118997420Y-96022055D01*
X119027490Y-96012167D01*
X119053043Y-96007924D01*
X119084240Y-96004042D01*
X119109850Y-96001049D01*
X119130418Y-95995979D01*
X119146491Y-95985868D01*
X119158615Y-95967753D01*
X119167335Y-95938667D01*
X119173198Y-95895647D01*
X119176750Y-95835728D01*
X119178536Y-95755946D01*
X119179102Y-95653335D01*
X119178995Y-95524931D01*
X119178760Y-95367771D01*
X119178746Y-95325364D01*
X119178746Y-94669561D01*
X118807163Y-94669561D01*
X118797384Y-94730384D01*
X118786565Y-94795588D01*
X118777036Y-94835200D01*
X118764545Y-94855592D01*
X118744839Y-94863136D01*
X118713665Y-94864202D01*
X118708066Y-94864197D01*
X118643497Y-94864197D01*
X118643497Y-94491144D01*
X120022169Y-94491144D01*
X120022169Y-94864197D01*
G37*
G36*
X120797637Y-94908801D02*
G01*
X120793524Y-94943060D01*
X120783018Y-94962564D01*
X120758024Y-94973475D01*
X120710444Y-94981958D01*
X120699340Y-94983630D01*
X120606077Y-94997636D01*
X120606077Y-95383226D01*
X121108886Y-95383226D01*
X121108886Y-94997636D01*
X121015623Y-94983630D01*
X120963320Y-94974942D01*
X120935002Y-94964891D01*
X120922571Y-94947313D01*
X120917932Y-94916043D01*
X120917326Y-94908801D01*
X120912292Y-94847977D01*
X121597435Y-94847977D01*
X121592401Y-94908801D01*
X121588287Y-94943060D01*
X121577782Y-94962564D01*
X121552788Y-94973475D01*
X121505208Y-94981958D01*
X121494103Y-94983630D01*
X121400840Y-94997636D01*
X121400840Y-95995891D01*
X121494103Y-96009897D01*
X121546407Y-96018585D01*
X121574725Y-96028636D01*
X121587155Y-96046215D01*
X121591794Y-96077484D01*
X121592401Y-96084727D01*
X121597435Y-96145550D01*
X120914250Y-96145550D01*
X120914250Y-96020312D01*
X120995735Y-96010661D01*
X121045876Y-96003251D01*
X121082797Y-95995128D01*
X121093053Y-95991225D01*
X121099150Y-95971895D01*
X121104078Y-95925739D01*
X121107446Y-95858363D01*
X121108865Y-95775372D01*
X121108886Y-95763431D01*
X121108886Y-95545423D01*
X120606077Y-95545423D01*
X120606077Y-95995891D01*
X120699340Y-96009897D01*
X120751643Y-96018585D01*
X120779961Y-96028636D01*
X120792391Y-96046215D01*
X120797030Y-96077484D01*
X120797637Y-96084727D01*
X120802671Y-96145550D01*
X120119487Y-96145550D01*
X120119487Y-96019983D01*
X120314123Y-95997963D01*
X120314123Y-94997636D01*
X120220860Y-94983630D01*
X120168556Y-94974942D01*
X120140238Y-94964891D01*
X120127808Y-94947313D01*
X120123169Y-94916043D01*
X120122562Y-94908801D01*
X120117528Y-94847977D01*
X120802671Y-94847977D01*
X120797637Y-94908801D01*
G37*
G36*
X125955491Y-94908801D02*
G01*
X125951378Y-94943060D01*
X125940873Y-94962564D01*
X125915879Y-94973475D01*
X125868298Y-94981958D01*
X125857194Y-94983630D01*
X125763931Y-94997636D01*
X125763931Y-95383226D01*
X126267770Y-95383226D01*
X126263201Y-95192645D01*
X126258631Y-95002064D01*
X126169423Y-94985061D01*
X126118598Y-94974313D01*
X126091460Y-94962511D01*
X126079759Y-94942909D01*
X126075243Y-94908765D01*
X126075181Y-94908017D01*
X126070147Y-94847977D01*
X126755289Y-94847977D01*
X126750255Y-94908801D01*
X126746142Y-94943060D01*
X126735637Y-94962564D01*
X126710642Y-94973475D01*
X126663062Y-94981958D01*
X126651958Y-94983630D01*
X126558695Y-94997636D01*
X126558695Y-95995891D01*
X126651958Y-96009897D01*
X126704261Y-96018585D01*
X126732580Y-96028636D01*
X126745010Y-96046215D01*
X126749649Y-96077484D01*
X126750255Y-96084727D01*
X126755289Y-96145550D01*
X126072105Y-96145550D01*
X126072105Y-96020312D01*
X126153589Y-96010661D01*
X126203730Y-96003251D01*
X126240651Y-95995128D01*
X126250907Y-95991225D01*
X126257005Y-95971895D01*
X126261932Y-95925739D01*
X126265300Y-95858363D01*
X126266720Y-95775372D01*
X126266741Y-95763431D01*
X126266741Y-95545423D01*
X125763931Y-95545423D01*
X125763931Y-95995891D01*
X125857194Y-96009897D01*
X125909498Y-96018585D01*
X125937816Y-96028636D01*
X125950246Y-96046215D01*
X125954885Y-96077484D01*
X125955491Y-96084727D01*
X125960525Y-96145550D01*
X125277341Y-96145550D01*
X125277341Y-96019983D01*
X125471977Y-95997963D01*
X125471977Y-94997636D01*
X125378714Y-94983630D01*
X125326411Y-94974942D01*
X125298092Y-94964891D01*
X125285662Y-94947313D01*
X125281023Y-94916043D01*
X125280417Y-94908801D01*
X125275383Y-94847977D01*
X125960525Y-94847977D01*
X125955491Y-94908801D01*
G37*
G36*
X133107264Y-95094721D02*
G01*
X133144829Y-95191256D01*
X133190141Y-95307949D01*
X133239277Y-95434688D01*
X133288319Y-95561362D01*
X133330158Y-95669607D01*
X133456403Y-95996537D01*
X133547492Y-96010220D01*
X133599039Y-96018860D01*
X133626703Y-96029124D01*
X133638694Y-96047376D01*
X133643218Y-96079977D01*
X133643614Y-96084727D01*
X133648648Y-96145550D01*
X132963505Y-96145550D01*
X132968539Y-96085107D01*
X132972838Y-96050809D01*
X132983874Y-96031054D01*
X133009780Y-96019361D01*
X133058692Y-96009249D01*
X133065221Y-96008064D01*
X133156869Y-95991464D01*
X133066443Y-95764388D01*
X132573222Y-95764388D01*
X132534158Y-95860407D01*
X132513748Y-95913590D01*
X132499611Y-95956194D01*
X132495093Y-95976762D01*
X132510106Y-95991321D01*
X132550404Y-96004759D01*
X132580246Y-96010568D01*
X132629683Y-96019505D01*
X132655553Y-96030730D01*
X132666386Y-96051263D01*
X132670434Y-96084793D01*
X132675468Y-96145550D01*
X132105821Y-96145550D01*
X132105821Y-96021044D01*
X132198589Y-96006254D01*
X132291356Y-95991464D01*
X132443410Y-95598366D01*
X132641070Y-95598366D01*
X132656197Y-95603162D01*
X132697213Y-95607038D01*
X132757573Y-95609556D01*
X132819487Y-95610301D01*
X132891181Y-95609290D01*
X132949121Y-95606546D01*
X132986760Y-95602508D01*
X132997903Y-95598366D01*
X132992550Y-95576285D01*
X132978079Y-95531819D01*
X132956870Y-95471301D01*
X132931302Y-95401064D01*
X132903756Y-95327439D01*
X132876613Y-95256759D01*
X132852252Y-95195356D01*
X132833054Y-95149562D01*
X132821398Y-95125708D01*
X132819487Y-95123711D01*
X132811186Y-95137951D01*
X132794472Y-95176450D01*
X132771725Y-95232875D01*
X132745323Y-95300895D01*
X132717649Y-95374177D01*
X132691081Y-95446388D01*
X132668000Y-95511198D01*
X132650787Y-95562273D01*
X132641821Y-95593282D01*
X132641070Y-95598366D01*
X132443410Y-95598366D01*
X132510943Y-95423775D01*
X132730530Y-94856087D01*
X133010614Y-94846765D01*
X133107264Y-95094721D01*
G37*
G36*
X124514754Y-94471281D02*
G01*
X124653739Y-94496758D01*
X124782921Y-94543761D01*
X124867308Y-94591686D01*
X124958036Y-94672379D01*
X125031650Y-94779047D01*
X125087471Y-94909692D01*
X125124817Y-95062320D01*
X125143009Y-95234935D01*
X125142742Y-95399446D01*
X125124022Y-95581351D01*
X125085550Y-95737711D01*
X125026866Y-95869061D01*
X124947509Y-95975935D01*
X124847020Y-96058869D01*
X124724938Y-96118397D01*
X124580802Y-96155055D01*
X124482577Y-96166362D01*
X124403149Y-96168587D01*
X124318196Y-96165756D01*
X124255502Y-96159645D01*
X124110730Y-96125119D01*
X123987202Y-96066612D01*
X123884782Y-95983927D01*
X123803334Y-95876867D01*
X123742723Y-95745235D01*
X123702812Y-95588835D01*
X123683467Y-95407469D01*
X123681451Y-95326457D01*
X123682115Y-95310238D01*
X124004752Y-95310238D01*
X124010472Y-95479117D01*
X124029283Y-95620494D01*
X124061951Y-95736875D01*
X124109240Y-95830766D01*
X124171917Y-95904670D01*
X124191561Y-95921510D01*
X124271466Y-95966065D01*
X124365768Y-95987612D01*
X124465337Y-95985476D01*
X124561045Y-95958982D01*
X124579895Y-95950212D01*
X124660113Y-95892551D01*
X124723898Y-95808277D01*
X124771673Y-95696680D01*
X124800175Y-95578879D01*
X124815885Y-95450958D01*
X124820479Y-95313704D01*
X124814541Y-95175941D01*
X124798655Y-95046497D01*
X124773405Y-94934198D01*
X124753767Y-94878153D01*
X124715993Y-94811566D01*
X124663144Y-94748022D01*
X124604173Y-94696781D01*
X124550495Y-94667887D01*
X124467958Y-94651495D01*
X124377481Y-94650671D01*
X124292987Y-94664746D01*
X124246072Y-94682477D01*
X124168082Y-94735446D01*
X124106383Y-94807267D01*
X124060090Y-94900250D01*
X124028312Y-95016704D01*
X124010164Y-95158938D01*
X124004752Y-95310238D01*
X123682115Y-95310238D01*
X123689049Y-95140748D01*
X123713779Y-94981086D01*
X123756187Y-94845638D01*
X123816819Y-94732574D01*
X123882190Y-94653600D01*
X123980443Y-94577096D01*
X124098809Y-94520235D01*
X124231305Y-94483395D01*
X124371948Y-94466952D01*
X124514754Y-94471281D01*
G37*
G36*
X128180662Y-97289543D02*
G01*
X128325631Y-97290148D01*
X128442263Y-97292052D01*
X128534658Y-97295980D01*
X128606911Y-97302659D01*
X128663121Y-97312812D01*
X128707387Y-97327166D01*
X128743805Y-97346446D01*
X128776473Y-97371377D01*
X128807253Y-97400441D01*
X128869720Y-97483576D01*
X128901918Y-97575487D01*
X128903476Y-97672362D01*
X128874024Y-97770391D01*
X128847885Y-97818125D01*
X128809164Y-97867055D01*
X128763697Y-97908189D01*
X128745166Y-97920144D01*
X128687533Y-97951123D01*
X128749306Y-98046699D01*
X128784623Y-98107228D01*
X128824267Y-98184224D01*
X128861187Y-98263777D01*
X128870947Y-98286709D01*
X128930814Y-98431143D01*
X129005834Y-98441154D01*
X129065681Y-98450145D01*
X129100225Y-98460374D01*
X129116401Y-98476674D01*
X129121148Y-98503881D01*
X129121402Y-98521694D01*
X129121402Y-98579442D01*
X128908370Y-98574917D01*
X128695337Y-98570391D01*
X128601124Y-98344514D01*
X128551674Y-98231152D01*
X128508338Y-98145192D01*
X128468094Y-98082910D01*
X128427920Y-98040581D01*
X128384793Y-98014483D01*
X128335690Y-98000890D01*
X128320549Y-97998828D01*
X128245540Y-97990374D01*
X128245540Y-98428841D01*
X128338803Y-98442847D01*
X128391107Y-98451535D01*
X128419425Y-98461586D01*
X128431855Y-98479165D01*
X128436494Y-98510434D01*
X128437100Y-98517677D01*
X128442134Y-98578501D01*
X127758950Y-98578501D01*
X127758950Y-98521223D01*
X127760688Y-98487751D01*
X127770483Y-98467136D01*
X127795213Y-98454680D01*
X127841751Y-98445681D01*
X127876543Y-98440850D01*
X127953586Y-98430536D01*
X127953586Y-97852050D01*
X128245540Y-97852050D01*
X128374059Y-97846214D01*
X128442679Y-97841667D01*
X128488113Y-97833953D01*
X128519607Y-97820612D01*
X128544638Y-97800864D01*
X128589156Y-97739821D01*
X128610700Y-97667754D01*
X128609315Y-97593382D01*
X128585044Y-97525421D01*
X128543026Y-97476433D01*
X128514043Y-97458630D01*
X128477347Y-97448367D01*
X128423747Y-97443842D01*
X128373110Y-97443124D01*
X128245540Y-97443124D01*
X128245540Y-97852050D01*
X127953586Y-97852050D01*
X127953586Y-97430587D01*
X127860323Y-97416581D01*
X127808089Y-97407940D01*
X127780257Y-97398255D01*
X127769144Y-97381695D01*
X127767067Y-97352429D01*
X127767060Y-97345806D01*
X127767060Y-97289037D01*
X128180662Y-97289543D01*
G37*
G36*
X128421963Y-94842796D02*
G01*
X128516638Y-94852980D01*
X128593403Y-94872863D01*
X128659328Y-94904787D01*
X128721484Y-94951096D01*
X128767228Y-94994017D01*
X128833861Y-95072493D01*
X128881856Y-95158664D01*
X128913181Y-95258474D01*
X128929808Y-95377868D01*
X128933857Y-95496764D01*
X128923399Y-95662982D01*
X128891806Y-95804659D01*
X128838746Y-95922146D01*
X128763890Y-96015790D01*
X128666907Y-96085939D01*
X128547468Y-96132943D01*
X128405240Y-96157151D01*
X128304655Y-96160859D01*
X128173774Y-96153057D01*
X128064357Y-96130707D01*
X128053566Y-96127404D01*
X127947286Y-96077469D01*
X127853792Y-96001632D01*
X127779205Y-95905736D01*
X127741310Y-95829267D01*
X127725937Y-95786351D01*
X127715290Y-95744985D01*
X127708509Y-95697743D01*
X127704733Y-95637202D01*
X127703103Y-95555936D01*
X127702803Y-95496764D01*
X128010355Y-95496764D01*
X128011477Y-95604810D01*
X128015733Y-95687207D01*
X128024457Y-95750695D01*
X128038985Y-95802015D01*
X128060651Y-95847905D01*
X128088626Y-95891981D01*
X128134708Y-95936704D01*
X128199898Y-95973418D01*
X128270898Y-95995591D01*
X128306885Y-95999217D01*
X128358420Y-95992887D01*
X128414033Y-95976938D01*
X128420201Y-95974470D01*
X128491793Y-95934156D01*
X128546273Y-95878346D01*
X128585136Y-95803651D01*
X128609878Y-95706681D01*
X128621994Y-95584044D01*
X128623778Y-95512983D01*
X128618815Y-95367886D01*
X128601115Y-95250481D01*
X128569598Y-95158183D01*
X128523180Y-95088411D01*
X128460777Y-95038581D01*
X128416066Y-95017505D01*
X128321288Y-94996653D01*
X128232207Y-95006511D01*
X128152862Y-95045392D01*
X128087293Y-95111611D01*
X128053867Y-95168741D01*
X128036694Y-95207350D01*
X128024744Y-95242140D01*
X128017077Y-95280207D01*
X128012751Y-95328646D01*
X128010825Y-95394552D01*
X128010358Y-95485019D01*
X128010355Y-95496764D01*
X127702803Y-95496764D01*
X127703108Y-95401071D01*
X127705069Y-95330468D01*
X127709532Y-95277616D01*
X127717341Y-95235176D01*
X127729342Y-95195810D01*
X127740919Y-95165577D01*
X127803186Y-95051632D01*
X127889212Y-94959748D01*
X127998488Y-94890460D01*
X128006341Y-94886770D01*
X128052478Y-94866637D01*
X128092635Y-94853279D01*
X128135532Y-94845317D01*
X128189891Y-94841371D01*
X128264433Y-94840063D01*
X128302309Y-94839969D01*
X128421963Y-94842796D01*
G37*
G36*
X130456676Y-94474329D02*
G01*
X130622735Y-94501903D01*
X130771754Y-94541974D01*
X130824467Y-94558539D01*
X130824467Y-94880416D01*
X130752214Y-94880416D01*
X130707364Y-94878904D01*
X130684823Y-94869369D01*
X130674462Y-94844319D01*
X130670022Y-94819593D01*
X130658675Y-94750682D01*
X130649055Y-94707161D01*
X130636735Y-94682565D01*
X130617293Y-94670432D01*
X130586302Y-94664301D01*
X130561407Y-94660963D01*
X130449089Y-94650004D01*
X130347466Y-94648702D01*
X130262898Y-94656745D01*
X130201745Y-94673822D01*
X130191486Y-94679096D01*
X130122577Y-94733286D01*
X130082860Y-94799551D01*
X130070253Y-94880416D01*
X130078739Y-94948688D01*
X130106167Y-95006549D01*
X130155487Y-95056539D01*
X130229650Y-95101197D01*
X130331610Y-95143063D01*
X130402756Y-95166484D01*
X130542406Y-95214368D01*
X130652972Y-95263767D01*
X130737796Y-95317105D01*
X130800221Y-95376804D01*
X130843589Y-95445289D01*
X130864948Y-95501593D01*
X130889378Y-95630295D01*
X130886302Y-95752826D01*
X130857455Y-95865394D01*
X130804572Y-95964206D01*
X130729389Y-96045472D01*
X130633641Y-96105400D01*
X130579178Y-96125999D01*
X130449694Y-96154627D01*
X130305738Y-96167882D01*
X130161962Y-96164680D01*
X130118912Y-96160071D01*
X130041304Y-96147031D01*
X129953961Y-96128048D01*
X129887782Y-96110607D01*
X129770189Y-96075946D01*
X129770189Y-95723839D01*
X129912387Y-95723839D01*
X129923691Y-95829395D01*
X129931049Y-95883451D01*
X129943007Y-95922075D01*
X129964515Y-95947868D01*
X130000523Y-95963436D01*
X130055981Y-95971381D01*
X130135840Y-95974309D01*
X130200010Y-95974747D01*
X130284660Y-95974410D01*
X130344584Y-95972118D01*
X130387486Y-95966710D01*
X130421071Y-95957026D01*
X130453043Y-95941908D01*
X130466022Y-95934695D01*
X130537431Y-95877302D01*
X130581721Y-95802809D01*
X130597380Y-95713787D01*
X130597392Y-95711122D01*
X130584850Y-95626319D01*
X130548823Y-95558709D01*
X130510411Y-95524044D01*
X130479543Y-95508511D01*
X130425633Y-95485939D01*
X130356447Y-95459435D01*
X130284658Y-95433791D01*
X130164006Y-95390363D01*
X130069753Y-95351788D01*
X129996747Y-95315384D01*
X129939835Y-95278472D01*
X129893864Y-95238371D01*
X129879291Y-95222960D01*
X129822781Y-95137824D01*
X129787132Y-95035372D01*
X129773563Y-94924108D01*
X129783294Y-94812534D01*
X129808450Y-94729304D01*
X129863029Y-94639094D01*
X129942195Y-94567347D01*
X130043546Y-94514530D01*
X130164678Y-94481109D01*
X130303189Y-94467553D01*
X130456676Y-94474329D01*
G37*
G36*
X122053682Y-96927784D02*
G01*
X122349691Y-96932204D01*
X122354608Y-96991061D01*
X122355584Y-97029649D01*
X122344052Y-97048477D01*
X122311352Y-97058146D01*
X122297839Y-97060550D01*
X122244035Y-97070122D01*
X122195869Y-97079154D01*
X122192480Y-97079820D01*
X122148806Y-97088460D01*
X122143750Y-97667229D01*
X122142233Y-97831012D01*
X122140370Y-97965869D01*
X122137494Y-98075315D01*
X122132937Y-98162860D01*
X122126032Y-98232019D01*
X122116111Y-98286302D01*
X122102505Y-98329224D01*
X122084548Y-98364296D01*
X122061571Y-98395032D01*
X122032907Y-98424944D01*
X121997889Y-98457544D01*
X121992597Y-98462380D01*
X121921487Y-98518872D01*
X121850776Y-98554822D01*
X121811875Y-98567482D01*
X121724053Y-98585808D01*
X121620114Y-98597998D01*
X121512802Y-98603300D01*
X121414856Y-98600965D01*
X121357805Y-98594226D01*
X121214360Y-98556933D01*
X121096366Y-98501393D01*
X121004513Y-98428120D01*
X120939493Y-98337625D01*
X120909413Y-98261143D01*
X120901647Y-98229302D01*
X120895447Y-98192553D01*
X120890646Y-98147063D01*
X120887079Y-98088995D01*
X120884579Y-98014515D01*
X120882980Y-97919788D01*
X120882115Y-97800978D01*
X120881817Y-97654250D01*
X120881811Y-97624840D01*
X120881811Y-97086909D01*
X120845317Y-97079425D01*
X120804348Y-97071742D01*
X120753168Y-97062998D01*
X120747999Y-97062161D01*
X120708795Y-97053567D01*
X120691547Y-97037606D01*
X120687271Y-97003359D01*
X120687175Y-96988238D01*
X120687175Y-96924095D01*
X121384621Y-96924095D01*
X121384621Y-96988238D01*
X121382449Y-97029931D01*
X121369943Y-97050131D01*
X121338121Y-97059757D01*
X121323797Y-97062161D01*
X121272818Y-97070789D01*
X121229714Y-97078771D01*
X121226479Y-97079425D01*
X121189985Y-97086909D01*
X121190075Y-97609685D01*
X121190659Y-97762405D01*
X121192297Y-97896938D01*
X121194905Y-98010398D01*
X121198397Y-98099904D01*
X121202688Y-98162570D01*
X121207374Y-98194432D01*
X121238251Y-98261047D01*
X121288804Y-98325571D01*
X121349351Y-98377427D01*
X121397855Y-98402471D01*
X121444391Y-98412642D01*
X121509414Y-98419825D01*
X121579009Y-98422493D01*
X121580322Y-98422490D01*
X121692784Y-98413366D01*
X121781477Y-98385569D01*
X121850377Y-98337237D01*
X121899824Y-98272824D01*
X121944199Y-98197338D01*
X121954241Y-97087394D01*
X121916781Y-97079667D01*
X121875053Y-97071801D01*
X121823466Y-97062966D01*
X121818497Y-97062161D01*
X121779374Y-97053606D01*
X121762103Y-97037738D01*
X121757778Y-97003679D01*
X121757673Y-96987872D01*
X121757673Y-96923363D01*
X122053682Y-96927784D01*
G37*
G36*
X129904482Y-97279488D02*
G01*
X129940496Y-97285707D01*
X130027546Y-97302488D01*
X130087843Y-97316950D01*
X130126287Y-97333877D01*
X130147778Y-97358051D01*
X130157215Y-97394258D01*
X130159497Y-97447279D01*
X130159461Y-97499491D01*
X130159461Y-97653980D01*
X130095675Y-97653980D01*
X130059928Y-97652470D01*
X130037420Y-97643526D01*
X130023383Y-97620528D01*
X130013050Y-97576853D01*
X130005125Y-97528226D01*
X129998556Y-97493094D01*
X129987750Y-97470086D01*
X129966297Y-97455725D01*
X129927788Y-97446531D01*
X129865812Y-97439025D01*
X129835068Y-97435921D01*
X129732803Y-97435073D01*
X129649946Y-97453761D01*
X129589074Y-97490543D01*
X129552760Y-97543978D01*
X129543114Y-97599363D01*
X129551157Y-97649417D01*
X129577594Y-97691804D01*
X129625886Y-97729190D01*
X129699493Y-97764243D01*
X129801878Y-97799628D01*
X129803871Y-97800243D01*
X129880169Y-97824826D01*
X129951013Y-97849567D01*
X130006813Y-97871017D01*
X130031239Y-97881950D01*
X130114301Y-97941299D01*
X130174620Y-98020937D01*
X130210222Y-98116232D01*
X130219131Y-98222556D01*
X130208952Y-98298711D01*
X130172124Y-98393397D01*
X130108647Y-98473188D01*
X130022361Y-98534269D01*
X129938580Y-98567354D01*
X129841067Y-98585700D01*
X129724610Y-98593603D01*
X129600939Y-98591180D01*
X129481781Y-98578549D01*
X129400575Y-98561964D01*
X129341397Y-98545761D01*
X129294237Y-98531561D01*
X129268190Y-98522124D01*
X129266762Y-98521350D01*
X129260173Y-98502012D01*
X129254960Y-98457662D01*
X129251797Y-98395719D01*
X129251160Y-98349535D01*
X129251160Y-98187363D01*
X129320093Y-98192351D01*
X129389027Y-98197338D01*
X129403270Y-98297363D01*
X129411082Y-98345833D01*
X129421997Y-98378865D01*
X129441661Y-98399430D01*
X129475719Y-98410502D01*
X129529816Y-98415050D01*
X129609598Y-98416048D01*
X129628788Y-98416083D01*
X129742015Y-98410022D01*
X129827071Y-98390688D01*
X129885870Y-98356951D01*
X129920321Y-98307679D01*
X129932336Y-98241742D01*
X129932386Y-98236466D01*
X129926508Y-98184765D01*
X129906047Y-98143413D01*
X129866756Y-98108842D01*
X129804393Y-98077483D01*
X129714712Y-98045768D01*
X129700189Y-98041236D01*
X129571928Y-97998387D01*
X129471913Y-97956626D01*
X129396188Y-97913150D01*
X129340795Y-97865152D01*
X129301775Y-97809827D01*
X129275171Y-97744370D01*
X129273507Y-97738771D01*
X129259207Y-97642846D01*
X129268527Y-97545744D01*
X129299309Y-97456601D01*
X129349394Y-97384553D01*
X129359509Y-97374810D01*
X129433649Y-97326789D01*
X129531456Y-97292289D01*
X129646690Y-97272268D01*
X129773112Y-97267682D01*
X129904482Y-97279488D01*
G37*
D14*
%TO.C,J3*%
X144551600Y-47218400D02*
X144551600Y-75006400D01*
X137337600Y-47218400D02*
X144551600Y-47218400D01*
X144551600Y-75006400D02*
X137337600Y-75006400D01*
X137337600Y-75006400D02*
X137337600Y-47218400D01*
D13*
X135903080Y-50678080D02*
G75*
G03*
X135903080Y-50678080I-100000J0D01*
G01*
%TO.C,G\u002A\u002A\u002A*%
G36*
X129586574Y-58388606D02*
G01*
X129279514Y-58388606D01*
X129279514Y-57329157D01*
X129586574Y-57022281D01*
X129586574Y-58388606D01*
G37*
G36*
X130206835Y-58388606D02*
G01*
X129826081Y-58388606D01*
X129826081Y-56890153D01*
X130206835Y-56890153D01*
X130206835Y-58388606D01*
G37*
G36*
X131186357Y-57688509D02*
G01*
X131342957Y-57845019D01*
X131342957Y-58388606D01*
X131029756Y-58388606D01*
X131029756Y-57531999D01*
X131186357Y-57688509D01*
G37*
G36*
X129009302Y-58388606D02*
G01*
X128702242Y-58388606D01*
X128702433Y-58116858D01*
X128702625Y-57845110D01*
X128855963Y-57690256D01*
X129009302Y-57535403D01*
X129009302Y-58388606D01*
G37*
G36*
X130463489Y-57029501D02*
G01*
X130476472Y-57041562D01*
X130495985Y-57060445D01*
X130521016Y-57085153D01*
X130550555Y-57114688D01*
X130583590Y-57148055D01*
X130614647Y-57179689D01*
X130765685Y-57334119D01*
X130765685Y-58388606D01*
X130452483Y-58388606D01*
X130452483Y-57706933D01*
X130452533Y-57606090D01*
X130452678Y-57511326D01*
X130452913Y-57423221D01*
X130453235Y-57342357D01*
X130453638Y-57269317D01*
X130454117Y-57204681D01*
X130454668Y-57149033D01*
X130455286Y-57102953D01*
X130455966Y-57067023D01*
X130456704Y-57041826D01*
X130457495Y-57027942D01*
X130458047Y-57025259D01*
X130463489Y-57029501D01*
G37*
G36*
X130166418Y-58856229D02*
G01*
X130313650Y-58856287D01*
X130456527Y-58856382D01*
X130592978Y-58856514D01*
X130720933Y-58856682D01*
X130819188Y-58856850D01*
X131633211Y-58858407D01*
X130826370Y-59284685D01*
X130733620Y-59333686D01*
X130643842Y-59381116D01*
X130557635Y-59426658D01*
X130475599Y-59469994D01*
X130398334Y-59510809D01*
X130326439Y-59548785D01*
X130260514Y-59583606D01*
X130201157Y-59614955D01*
X130148970Y-59642517D01*
X130104550Y-59665973D01*
X130068497Y-59685008D01*
X130041412Y-59699304D01*
X130023893Y-59708546D01*
X130016540Y-59712416D01*
X130016349Y-59712515D01*
X130010635Y-59709905D01*
X129994629Y-59701924D01*
X129968925Y-59688878D01*
X129934122Y-59671077D01*
X129890815Y-59648828D01*
X129839601Y-59622441D01*
X129781076Y-59592222D01*
X129715837Y-59558482D01*
X129644481Y-59521527D01*
X129567603Y-59481667D01*
X129485801Y-59439210D01*
X129399672Y-59394464D01*
X129309811Y-59347737D01*
X129216815Y-59299338D01*
X129191656Y-59286238D01*
X128370144Y-58858407D01*
X129187654Y-58856850D01*
X129307434Y-58856651D01*
X129437344Y-58856489D01*
X129575315Y-58856363D01*
X129719277Y-58856274D01*
X129867161Y-58856223D01*
X130016898Y-58856207D01*
X130166418Y-58856229D01*
G37*
G36*
X130143040Y-58529861D02*
G01*
X130284827Y-58529885D01*
X130422905Y-58529923D01*
X130556784Y-58529975D01*
X130685976Y-58530041D01*
X130809990Y-58530120D01*
X130928337Y-58530211D01*
X131040528Y-58530314D01*
X131146072Y-58530428D01*
X131244481Y-58530552D01*
X131335264Y-58530686D01*
X131417932Y-58530828D01*
X131491995Y-58530980D01*
X131556964Y-58531139D01*
X131612348Y-58531305D01*
X131657660Y-58531477D01*
X131692408Y-58531656D01*
X131716104Y-58531839D01*
X131728257Y-58532027D01*
X131729853Y-58532125D01*
X131728224Y-58538578D01*
X131723812Y-58554295D01*
X131717333Y-58576766D01*
X131711074Y-58598143D01*
X131701689Y-58630010D01*
X131692044Y-58662771D01*
X131683612Y-58691427D01*
X131680108Y-58703342D01*
X131667921Y-58744795D01*
X129995118Y-58744795D01*
X129825372Y-58744793D01*
X129667480Y-58744783D01*
X129521014Y-58744763D01*
X129385544Y-58744730D01*
X129260642Y-58744682D01*
X129145879Y-58744616D01*
X129040827Y-58744529D01*
X128945058Y-58744418D01*
X128858142Y-58744281D01*
X128779652Y-58744114D01*
X128709158Y-58743916D01*
X128646232Y-58743682D01*
X128590445Y-58743412D01*
X128541369Y-58743101D01*
X128498575Y-58742747D01*
X128461635Y-58742348D01*
X128430120Y-58741900D01*
X128403601Y-58741401D01*
X128381650Y-58740848D01*
X128363838Y-58740238D01*
X128349737Y-58739569D01*
X128338918Y-58738838D01*
X128330952Y-58738042D01*
X128325412Y-58737178D01*
X128321867Y-58736244D01*
X128319891Y-58735236D01*
X128319053Y-58734153D01*
X128319018Y-58734048D01*
X128315746Y-58722577D01*
X128310354Y-58702810D01*
X128303474Y-58677156D01*
X128295741Y-58648023D01*
X128287787Y-58617818D01*
X128280246Y-58588951D01*
X128273750Y-58563829D01*
X128268934Y-58544861D01*
X128266430Y-58534455D01*
X128266217Y-58533255D01*
X128272276Y-58532970D01*
X128290129Y-58532692D01*
X128319284Y-58532421D01*
X128359253Y-58532158D01*
X128409546Y-58531904D01*
X128469674Y-58531660D01*
X128539146Y-58531428D01*
X128617473Y-58531207D01*
X128704166Y-58531000D01*
X128798735Y-58530807D01*
X128900691Y-58530628D01*
X129009542Y-58530466D01*
X129124801Y-58530321D01*
X129245978Y-58530193D01*
X129372583Y-58530084D01*
X129504125Y-58529995D01*
X129640117Y-58529927D01*
X129780067Y-58529880D01*
X129923487Y-58529856D01*
X129998035Y-58529853D01*
X130143040Y-58529861D01*
G37*
G36*
X130040530Y-47380835D02*
G01*
X130103487Y-47381317D01*
X130164776Y-47382244D01*
X130223132Y-47383613D01*
X130277287Y-47385422D01*
X130325973Y-47387669D01*
X130367923Y-47390352D01*
X130401870Y-47393469D01*
X130426547Y-47397017D01*
X130440686Y-47400995D01*
X130442811Y-47402389D01*
X130443251Y-47408969D01*
X130443569Y-47427582D01*
X130443767Y-47457979D01*
X130443847Y-47499913D01*
X130443809Y-47553133D01*
X130443656Y-47617392D01*
X130443388Y-47692440D01*
X130443008Y-47778030D01*
X130442517Y-47873912D01*
X130441917Y-47979837D01*
X130441208Y-48095558D01*
X130440393Y-48220825D01*
X130439473Y-48355390D01*
X130438449Y-48499003D01*
X130437324Y-48651418D01*
X130436097Y-48812383D01*
X130434772Y-48981652D01*
X130433350Y-49158975D01*
X130431831Y-49344104D01*
X130430218Y-49536790D01*
X130428827Y-49700190D01*
X130409163Y-51992547D01*
X130447711Y-52173712D01*
X130486260Y-52354877D01*
X130490620Y-52299607D01*
X130491005Y-52289381D01*
X130491502Y-52267322D01*
X130492106Y-52233880D01*
X130492810Y-52189504D01*
X130493610Y-52134643D01*
X130494501Y-52069745D01*
X130495477Y-51995261D01*
X130496534Y-51911640D01*
X130497665Y-51819330D01*
X130498867Y-51718782D01*
X130500133Y-51610443D01*
X130501458Y-51494763D01*
X130502838Y-51372192D01*
X130504267Y-51243179D01*
X130505739Y-51108173D01*
X130507251Y-50967622D01*
X130508795Y-50821977D01*
X130510368Y-50671687D01*
X130511964Y-50517200D01*
X130513578Y-50358965D01*
X130515204Y-50197433D01*
X130516713Y-50045787D01*
X130518353Y-49880406D01*
X130519983Y-49717353D01*
X130521596Y-49557106D01*
X130523188Y-49400142D01*
X130524753Y-49246941D01*
X130526287Y-49097981D01*
X130527783Y-48953741D01*
X130529237Y-48814699D01*
X130530644Y-48681334D01*
X130531998Y-48554124D01*
X130533295Y-48433548D01*
X130534529Y-48320084D01*
X130535695Y-48214211D01*
X130536787Y-48116408D01*
X130537801Y-48027153D01*
X130538732Y-47946924D01*
X130539574Y-47876200D01*
X130540322Y-47815460D01*
X130540971Y-47765182D01*
X130541516Y-47725845D01*
X130541952Y-47697927D01*
X130542219Y-47684104D01*
X130545992Y-47520970D01*
X130614385Y-47531556D01*
X130734779Y-47550234D01*
X130843790Y-47567252D01*
X130942184Y-47582755D01*
X131030728Y-47596883D01*
X131110189Y-47609780D01*
X131181333Y-47621588D01*
X131244927Y-47632450D01*
X131301737Y-47642507D01*
X131352530Y-47651903D01*
X131398072Y-47660780D01*
X131439130Y-47669280D01*
X131476471Y-47677546D01*
X131510860Y-47685721D01*
X131543066Y-47693946D01*
X131573853Y-47702364D01*
X131603989Y-47711118D01*
X131634240Y-47720350D01*
X131640196Y-47722212D01*
X131771110Y-47767224D01*
X131892320Y-47817362D01*
X132005669Y-47873574D01*
X132113002Y-47936804D01*
X132216163Y-48007998D01*
X132254925Y-48037550D01*
X132378285Y-48136912D01*
X132493837Y-48235773D01*
X132600842Y-48333429D01*
X132698556Y-48429177D01*
X132786239Y-48522315D01*
X132863148Y-48612140D01*
X132869752Y-48620332D01*
X132964442Y-48746721D01*
X133054427Y-48883452D01*
X133139163Y-49029309D01*
X133218107Y-49183080D01*
X133290715Y-49343550D01*
X133356444Y-49509504D01*
X133414751Y-49679728D01*
X133465093Y-49853008D01*
X133506924Y-50028130D01*
X133513165Y-50058069D01*
X133525022Y-50117761D01*
X133535470Y-50174133D01*
X133544729Y-50228943D01*
X133553018Y-50283953D01*
X133560557Y-50340921D01*
X133567566Y-50401608D01*
X133574264Y-50467773D01*
X133580872Y-50541178D01*
X133587608Y-50623581D01*
X133593665Y-50702895D01*
X133596629Y-50737502D01*
X133601056Y-50782161D01*
X133606705Y-50834762D01*
X133613334Y-50893193D01*
X133620701Y-50955343D01*
X133628566Y-51019101D01*
X133636686Y-51082356D01*
X133639698Y-51105143D01*
X133648152Y-51168695D01*
X133656857Y-51234365D01*
X133665516Y-51299887D01*
X133673829Y-51362994D01*
X133681499Y-51421417D01*
X133688226Y-51472890D01*
X133693712Y-51515145D01*
X133695088Y-51525816D01*
X133700335Y-51565668D01*
X133706957Y-51614488D01*
X133714726Y-51670698D01*
X133723414Y-51732723D01*
X133732792Y-51798987D01*
X133742633Y-51867912D01*
X133752708Y-51937924D01*
X133762790Y-52007446D01*
X133772650Y-52074901D01*
X133782061Y-52138713D01*
X133790794Y-52197306D01*
X133798621Y-52249105D01*
X133805315Y-52292531D01*
X133810646Y-52326011D01*
X133812377Y-52336445D01*
X133819621Y-52374426D01*
X133828477Y-52410367D01*
X133839576Y-52445400D01*
X133853545Y-52480660D01*
X133871012Y-52517280D01*
X133892607Y-52556394D01*
X133918957Y-52599135D01*
X133950692Y-52646638D01*
X133988440Y-52700036D01*
X134032829Y-52760462D01*
X134084489Y-52829051D01*
X134088168Y-52833891D01*
X134144427Y-52907982D01*
X134195398Y-52975420D01*
X134241989Y-53037489D01*
X134285107Y-53095473D01*
X134325661Y-53150654D01*
X134364558Y-53204317D01*
X134402707Y-53257745D01*
X134441016Y-53312221D01*
X134480392Y-53369030D01*
X134521744Y-53429453D01*
X134565980Y-53494775D01*
X134614008Y-53566279D01*
X134666735Y-53645250D01*
X134725070Y-53732969D01*
X134737706Y-53752000D01*
X134816168Y-53870321D01*
X134888257Y-53979372D01*
X134954469Y-54080063D01*
X135015305Y-54173304D01*
X135071263Y-54260005D01*
X135122842Y-54341074D01*
X135170540Y-54417423D01*
X135214857Y-54489960D01*
X135256290Y-54559595D01*
X135295339Y-54627238D01*
X135332503Y-54693798D01*
X135368281Y-54760186D01*
X135403170Y-54827310D01*
X135437670Y-54896081D01*
X135472281Y-54967408D01*
X135507499Y-55042202D01*
X135543825Y-55121370D01*
X135581757Y-55205824D01*
X135621794Y-55296473D01*
X135664434Y-55394226D01*
X135710176Y-55499994D01*
X135759520Y-55614686D01*
X135761341Y-55618925D01*
X135789939Y-55685666D01*
X135818725Y-55753137D01*
X135847042Y-55819779D01*
X135874232Y-55884032D01*
X135899637Y-55944334D01*
X135922598Y-55999125D01*
X135942459Y-56046845D01*
X135958560Y-56085933D01*
X135967173Y-56107150D01*
X135991260Y-56167278D01*
X136016595Y-56230954D01*
X136042660Y-56296842D01*
X136068935Y-56363606D01*
X136094901Y-56429908D01*
X136120039Y-56494412D01*
X136143829Y-56555782D01*
X136165752Y-56612681D01*
X136185288Y-56663772D01*
X136201920Y-56707718D01*
X136215126Y-56743183D01*
X136224388Y-56768831D01*
X136225640Y-56772429D01*
X136241468Y-56820414D01*
X136259119Y-56877557D01*
X136277789Y-56941016D01*
X136296675Y-57007950D01*
X136314972Y-57075518D01*
X136331877Y-57140879D01*
X136344656Y-57193021D01*
X136371178Y-57304684D01*
X136355477Y-57332319D01*
X136332706Y-57371044D01*
X136307896Y-57410429D01*
X136280256Y-57451534D01*
X136248994Y-57495422D01*
X136213318Y-57543152D01*
X136172436Y-57595786D01*
X136125559Y-57654386D01*
X136071892Y-57720011D01*
X136016459Y-57786768D01*
X135986856Y-57822376D01*
X135956474Y-57859209D01*
X135927384Y-57894734D01*
X135901660Y-57926417D01*
X135881374Y-57951725D01*
X135878269Y-57955651D01*
X135867904Y-57967790D01*
X135850591Y-57986878D01*
X135827228Y-58011995D01*
X135798714Y-58042218D01*
X135765948Y-58076625D01*
X135729829Y-58114295D01*
X135691256Y-58154305D01*
X135651127Y-58195735D01*
X135610343Y-58237662D01*
X135569801Y-58279164D01*
X135530400Y-58319320D01*
X135493040Y-58357207D01*
X135458620Y-58391904D01*
X135428038Y-58422489D01*
X135402193Y-58448040D01*
X135381984Y-58467636D01*
X135368310Y-58480354D01*
X135362071Y-58485273D01*
X135361813Y-58485266D01*
X135360438Y-58479081D01*
X135357250Y-58462289D01*
X135352518Y-58436386D01*
X135346511Y-58402870D01*
X135339500Y-58363238D01*
X135331754Y-58318987D01*
X135328910Y-58302629D01*
X135303962Y-58160201D01*
X135280432Y-58028758D01*
X135258056Y-57907114D01*
X135236568Y-57794089D01*
X135215703Y-57688498D01*
X135195197Y-57589159D01*
X135174785Y-57494889D01*
X135154201Y-57404506D01*
X135133181Y-57316825D01*
X135111459Y-57230664D01*
X135088771Y-57144841D01*
X135064852Y-57058172D01*
X135039436Y-56969475D01*
X135012260Y-56877566D01*
X135002315Y-56844529D01*
X134988667Y-56799451D01*
X134975991Y-56757872D01*
X134963995Y-56719029D01*
X134952389Y-56682156D01*
X134940882Y-56646487D01*
X134929184Y-56611259D01*
X134917004Y-56575706D01*
X134904050Y-56539062D01*
X134890033Y-56500563D01*
X134874662Y-56459444D01*
X134857645Y-56414940D01*
X134838693Y-56366285D01*
X134817514Y-56312716D01*
X134793817Y-56253465D01*
X134767313Y-56187770D01*
X134737709Y-56114864D01*
X134704716Y-56033983D01*
X134668043Y-55944361D01*
X134627399Y-55845234D01*
X134582493Y-55735837D01*
X134562224Y-55686478D01*
X134516990Y-55576300D01*
X134476140Y-55476776D01*
X134439361Y-55387208D01*
X134406342Y-55306900D01*
X134376771Y-55235156D01*
X134350334Y-55171281D01*
X134326721Y-55114576D01*
X134305619Y-55064347D01*
X134286715Y-55019897D01*
X134269699Y-54980530D01*
X134254256Y-54945548D01*
X134240077Y-54914257D01*
X134226847Y-54885960D01*
X134214256Y-54859960D01*
X134201991Y-54835561D01*
X134189739Y-54812067D01*
X134177189Y-54788782D01*
X134164029Y-54765009D01*
X134149947Y-54740052D01*
X134134629Y-54713214D01*
X134117765Y-54683800D01*
X134099042Y-54651113D01*
X134094613Y-54643361D01*
X134053411Y-54571372D01*
X134017280Y-54508682D01*
X133985317Y-54453862D01*
X133956620Y-54405480D01*
X133930284Y-54362104D01*
X133905407Y-54322304D01*
X133881087Y-54284647D01*
X133856419Y-54247704D01*
X133830501Y-54210042D01*
X133802429Y-54170230D01*
X133771302Y-54126837D01*
X133751139Y-54098978D01*
X133707388Y-54039200D01*
X133668439Y-53987334D01*
X133632341Y-53941033D01*
X133597142Y-53897948D01*
X133560890Y-53855732D01*
X133521635Y-53812039D01*
X133477423Y-53764521D01*
X133442545Y-53727791D01*
X133387825Y-53670810D01*
X133340158Y-53621973D01*
X133298361Y-53580314D01*
X133261253Y-53544864D01*
X133227651Y-53514655D01*
X133196373Y-53488719D01*
X133166238Y-53466088D01*
X133136063Y-53445795D01*
X133104666Y-53426870D01*
X133070866Y-53408347D01*
X133033480Y-53389256D01*
X133022575Y-53383858D01*
X132939861Y-53344776D01*
X132863098Y-53312278D01*
X132788755Y-53285144D01*
X132713301Y-53262151D01*
X132633205Y-53242076D01*
X132580047Y-53230636D01*
X132526326Y-53219997D01*
X132478526Y-53211379D01*
X132434332Y-53204577D01*
X132391429Y-53199384D01*
X132347502Y-53195597D01*
X132300235Y-53193009D01*
X132247312Y-53191416D01*
X132186419Y-53190613D01*
X132125960Y-53190398D01*
X132069748Y-53190410D01*
X132024143Y-53190589D01*
X131987467Y-53191021D01*
X131958045Y-53191794D01*
X131934201Y-53192995D01*
X131914259Y-53194712D01*
X131896542Y-53197031D01*
X131879375Y-53200041D01*
X131861081Y-53203829D01*
X131858818Y-53204321D01*
X131753940Y-53232592D01*
X131647131Y-53271807D01*
X131540063Y-53321165D01*
X131434410Y-53379870D01*
X131331844Y-53447121D01*
X131296925Y-53472576D01*
X131239675Y-53517466D01*
X131177183Y-53570009D01*
X131111677Y-53628110D01*
X131045382Y-53689669D01*
X130980526Y-53752591D01*
X130919336Y-53814779D01*
X130864039Y-53874134D01*
X130832717Y-53909728D01*
X130808226Y-53938919D01*
X130779233Y-53974410D01*
X130748586Y-54012661D01*
X130719133Y-54050132D01*
X130704265Y-54069400D01*
X130657420Y-54129689D01*
X130615228Y-54181854D01*
X130575747Y-54228133D01*
X130537036Y-54270762D01*
X130497151Y-54311979D01*
X130473034Y-54335810D01*
X130413318Y-54392374D01*
X130359742Y-54439603D01*
X130311358Y-54478190D01*
X130267214Y-54508828D01*
X130226361Y-54532210D01*
X130187849Y-54549031D01*
X130174759Y-54553492D01*
X130155299Y-54559285D01*
X130137637Y-54563407D01*
X130119037Y-54566135D01*
X130096762Y-54567744D01*
X130068077Y-54568510D01*
X130030247Y-54568709D01*
X130023818Y-54568707D01*
X129972230Y-54568030D01*
X129931943Y-54566039D01*
X129902037Y-54562673D01*
X129887493Y-54559657D01*
X129835749Y-54540957D01*
X129781080Y-54511929D01*
X129725311Y-54473574D01*
X129712469Y-54463498D01*
X129672775Y-54429881D01*
X129627982Y-54389034D01*
X129580481Y-54343367D01*
X129532663Y-54295294D01*
X129486917Y-54247224D01*
X129445634Y-54201570D01*
X129411205Y-54160742D01*
X129406468Y-54154789D01*
X129358912Y-54094550D01*
X129317823Y-54042831D01*
X129282175Y-53998419D01*
X129250944Y-53960102D01*
X129223103Y-53926668D01*
X129197626Y-53896905D01*
X129173488Y-53869601D01*
X129149662Y-53843544D01*
X129125122Y-53817521D01*
X129098844Y-53790321D01*
X129092598Y-53783927D01*
X129000142Y-53692325D01*
X128910002Y-53608804D01*
X128822898Y-53533966D01*
X128739551Y-53468414D01*
X128660682Y-53412750D01*
X128611018Y-53381475D01*
X128520062Y-53330042D01*
X128434354Y-53287617D01*
X128351832Y-53253339D01*
X128270435Y-53226347D01*
X128193146Y-53206855D01*
X128171250Y-53202217D01*
X128152084Y-53198527D01*
X128133870Y-53195677D01*
X128114832Y-53193558D01*
X128093192Y-53192061D01*
X128067172Y-53191078D01*
X128034995Y-53190500D01*
X127994883Y-53190219D01*
X127945059Y-53190126D01*
X127919239Y-53190116D01*
X127835043Y-53190708D01*
X127760623Y-53192694D01*
X127693525Y-53196340D01*
X127631293Y-53201912D01*
X127571474Y-53209676D01*
X127511613Y-53219898D01*
X127449255Y-53232844D01*
X127384954Y-53248036D01*
X127290679Y-53274446D01*
X127196332Y-53306758D01*
X127104374Y-53343896D01*
X127017265Y-53384788D01*
X126937466Y-53428361D01*
X126867437Y-53473540D01*
X126866375Y-53474294D01*
X126841901Y-53493392D01*
X126810651Y-53520413D01*
X126773935Y-53554034D01*
X126733063Y-53592934D01*
X126689346Y-53635789D01*
X126644094Y-53681277D01*
X126598617Y-53728077D01*
X126554225Y-53774865D01*
X126512228Y-53820320D01*
X126473937Y-53863119D01*
X126440661Y-53901940D01*
X126430788Y-53913918D01*
X126397471Y-53955993D01*
X126359516Y-54005901D01*
X126318573Y-54061317D01*
X126276294Y-54119914D01*
X126234330Y-54179367D01*
X126194331Y-54237350D01*
X126157948Y-54291538D01*
X126126833Y-54339605D01*
X126114270Y-54359794D01*
X126097989Y-54386776D01*
X126077565Y-54421218D01*
X126053855Y-54461628D01*
X126027714Y-54506511D01*
X125999999Y-54554375D01*
X125971564Y-54603727D01*
X125943266Y-54653074D01*
X125915962Y-54700923D01*
X125890506Y-54745781D01*
X125867755Y-54786156D01*
X125848565Y-54820553D01*
X125833792Y-54847481D01*
X125824291Y-54865446D01*
X125823696Y-54866628D01*
X125816008Y-54883068D01*
X125804069Y-54910042D01*
X125788228Y-54946694D01*
X125768837Y-54992172D01*
X125746246Y-55045622D01*
X125720805Y-55106189D01*
X125692867Y-55173018D01*
X125662781Y-55245258D01*
X125630899Y-55322052D01*
X125597571Y-55402548D01*
X125563147Y-55485890D01*
X125527979Y-55571226D01*
X125492418Y-55657702D01*
X125456814Y-55744462D01*
X125421517Y-55830654D01*
X125386879Y-55915422D01*
X125353251Y-55997914D01*
X125320983Y-56077275D01*
X125290426Y-56152651D01*
X125261930Y-56223188D01*
X125235847Y-56288032D01*
X125212528Y-56346329D01*
X125192322Y-56397225D01*
X125175581Y-56439866D01*
X125162656Y-56473399D01*
X125153897Y-56496968D01*
X125152754Y-56500187D01*
X125105952Y-56638115D01*
X125059581Y-56783594D01*
X125014379Y-56933950D01*
X124971084Y-57086512D01*
X124930434Y-57238608D01*
X124893167Y-57387564D01*
X124860022Y-57530708D01*
X124833629Y-57655838D01*
X124820924Y-57720523D01*
X124806608Y-57795254D01*
X124791061Y-57877957D01*
X124774662Y-57966558D01*
X124757790Y-58058982D01*
X124740827Y-58153157D01*
X124724151Y-58247007D01*
X124708141Y-58338458D01*
X124699663Y-58387540D01*
X124682433Y-58487804D01*
X124464617Y-58270581D01*
X124420338Y-58226262D01*
X124377527Y-58183107D01*
X124337215Y-58142177D01*
X124300434Y-58104532D01*
X124268215Y-58071232D01*
X124241589Y-58043339D01*
X124221587Y-58021913D01*
X124209240Y-58008013D01*
X124208876Y-58007576D01*
X124139528Y-57923802D01*
X124077549Y-57848777D01*
X124022422Y-57781833D01*
X123973631Y-57722301D01*
X123930660Y-57669512D01*
X123892993Y-57622797D01*
X123860113Y-57581489D01*
X123831505Y-57544918D01*
X123806651Y-57512417D01*
X123785037Y-57483315D01*
X123766146Y-57456946D01*
X123749461Y-57432640D01*
X123734467Y-57409728D01*
X123720647Y-57387542D01*
X123707486Y-57365414D01*
X123694467Y-57342675D01*
X123691571Y-57337525D01*
X123672105Y-57302814D01*
X123703195Y-57174966D01*
X123717991Y-57114720D01*
X123731871Y-57059760D01*
X123745280Y-57008753D01*
X123758663Y-56960364D01*
X123772465Y-56913260D01*
X123787129Y-56866106D01*
X123803102Y-56817568D01*
X123820827Y-56766312D01*
X123840749Y-56711004D01*
X123863313Y-56650310D01*
X123888963Y-56582896D01*
X123918145Y-56507428D01*
X123951302Y-56422572D01*
X123969056Y-56377363D01*
X124001448Y-56295152D01*
X124031260Y-56219916D01*
X124059185Y-56149978D01*
X124085919Y-56083664D01*
X124112156Y-56019297D01*
X124138590Y-55955203D01*
X124165915Y-55889706D01*
X124194827Y-55821131D01*
X124226020Y-55747802D01*
X124260188Y-55668044D01*
X124298026Y-55580181D01*
X124334360Y-55496101D01*
X124378682Y-55393916D01*
X124420039Y-55299271D01*
X124458915Y-55211300D01*
X124495792Y-55129140D01*
X124531153Y-55051926D01*
X124565481Y-54978794D01*
X124599258Y-54908879D01*
X124632968Y-54841317D01*
X124667093Y-54775244D01*
X124702115Y-54709795D01*
X124738519Y-54644106D01*
X124776787Y-54577313D01*
X124817400Y-54508552D01*
X124860844Y-54436958D01*
X124907599Y-54361666D01*
X124958149Y-54281813D01*
X125012977Y-54196533D01*
X125072566Y-54104964D01*
X125137398Y-54006240D01*
X125207956Y-53899497D01*
X125284723Y-53783871D01*
X125322699Y-53726794D01*
X125383887Y-53634992D01*
X125439119Y-53552415D01*
X125489145Y-53477996D01*
X125534717Y-53410670D01*
X125576584Y-53349370D01*
X125615496Y-53293031D01*
X125652205Y-53240588D01*
X125687460Y-53190973D01*
X125710277Y-53159375D01*
X126344021Y-53159375D01*
X126347092Y-53162445D01*
X126350162Y-53159375D01*
X126347092Y-53156304D01*
X126344021Y-53159375D01*
X125710277Y-53159375D01*
X125713664Y-53154684D01*
X126356992Y-53154684D01*
X126362181Y-53156302D01*
X126362501Y-53156304D01*
X126369528Y-53153660D01*
X126385915Y-53146237D01*
X126410058Y-53134801D01*
X126440356Y-53120118D01*
X126475208Y-53102951D01*
X126498975Y-53091109D01*
X126573596Y-53054113D01*
X126651537Y-53016111D01*
X126731546Y-52977676D01*
X126812368Y-52939382D01*
X126816815Y-52937303D01*
X130753555Y-52937303D01*
X130753985Y-52937851D01*
X130760374Y-52936443D01*
X130776006Y-52930383D01*
X130799104Y-52920437D01*
X130827889Y-52907372D01*
X130860582Y-52891955D01*
X130861417Y-52891554D01*
X130957727Y-52846219D01*
X131045828Y-52806853D01*
X131127821Y-52772750D01*
X131205808Y-52743203D01*
X131281890Y-52717506D01*
X131358169Y-52694953D01*
X131436744Y-52674837D01*
X131519718Y-52656452D01*
X131609191Y-52639091D01*
X131616241Y-52637807D01*
X131689984Y-52624928D01*
X131754755Y-52614828D01*
X131813474Y-52607221D01*
X131869062Y-52601821D01*
X131924439Y-52598342D01*
X131982527Y-52596498D01*
X132043054Y-52596000D01*
X132176759Y-52600151D01*
X132308218Y-52612264D01*
X132435554Y-52632027D01*
X132556886Y-52659131D01*
X132670337Y-52693264D01*
X132703631Y-52705231D01*
X132740670Y-52719765D01*
X132787433Y-52739190D01*
X132842646Y-52762925D01*
X132905039Y-52790386D01*
X132973339Y-52820991D01*
X133046275Y-52854158D01*
X133122575Y-52889303D01*
X133200967Y-52925844D01*
X133280179Y-52963198D01*
X133358939Y-53000782D01*
X133435975Y-53038014D01*
X133510017Y-53074311D01*
X133520012Y-53079256D01*
X133561743Y-53099860D01*
X133599959Y-53118606D01*
X133633266Y-53134820D01*
X133660266Y-53147826D01*
X133679565Y-53156949D01*
X133689767Y-53161514D01*
X133690943Y-53161912D01*
X133694178Y-53158010D01*
X133693641Y-53155187D01*
X133687189Y-53147602D01*
X133671564Y-53134216D01*
X133647947Y-53115836D01*
X133617518Y-53093268D01*
X133581457Y-53067321D01*
X133540946Y-53038800D01*
X133497165Y-53008512D01*
X133451293Y-52977264D01*
X133404512Y-52945863D01*
X133358003Y-52915116D01*
X133312945Y-52885830D01*
X133270519Y-52858812D01*
X133231906Y-52834868D01*
X133198286Y-52814805D01*
X133182247Y-52805659D01*
X133074913Y-52748117D01*
X132965427Y-52693859D01*
X132855657Y-52643661D01*
X132747470Y-52598304D01*
X132642735Y-52558566D01*
X132543319Y-52525225D01*
X132451091Y-52499062D01*
X132440676Y-52496461D01*
X132379577Y-52481848D01*
X132326976Y-52470382D01*
X132279841Y-52461702D01*
X132235137Y-52455444D01*
X132189834Y-52451244D01*
X132140898Y-52448738D01*
X132085297Y-52447564D01*
X132030772Y-52447342D01*
X131979462Y-52447487D01*
X131937977Y-52447929D01*
X131903857Y-52448824D01*
X131874646Y-52450332D01*
X131847884Y-52452608D01*
X131821115Y-52455810D01*
X131791879Y-52460096D01*
X131765542Y-52464333D01*
X131722221Y-52471944D01*
X131674414Y-52481144D01*
X131627174Y-52490914D01*
X131585555Y-52500235D01*
X131575165Y-52502731D01*
X131541252Y-52511634D01*
X131500350Y-52523319D01*
X131454400Y-52537143D01*
X131405342Y-52552466D01*
X131355118Y-52568648D01*
X131305669Y-52585047D01*
X131258937Y-52601023D01*
X131216862Y-52615936D01*
X131181385Y-52629143D01*
X131154448Y-52640006D01*
X131142033Y-52645708D01*
X131105631Y-52665972D01*
X131062210Y-52693315D01*
X131013695Y-52726398D01*
X130962016Y-52763887D01*
X130909098Y-52804444D01*
X130882367Y-52825787D01*
X130843205Y-52857543D01*
X130812620Y-52882472D01*
X130789620Y-52901442D01*
X130773208Y-52915322D01*
X130762390Y-52924980D01*
X130756172Y-52931284D01*
X130753558Y-52935102D01*
X130753555Y-52937303D01*
X126816815Y-52937303D01*
X126892748Y-52901800D01*
X126971433Y-52865504D01*
X127047169Y-52831066D01*
X127118702Y-52799060D01*
X127184777Y-52770057D01*
X127244140Y-52744632D01*
X127295538Y-52723355D01*
X127337716Y-52706802D01*
X127351609Y-52701673D01*
X127465636Y-52665595D01*
X127587220Y-52636409D01*
X127713492Y-52614515D01*
X127841583Y-52600311D01*
X127968623Y-52594196D01*
X128091744Y-52596570D01*
X128102433Y-52597208D01*
X128239712Y-52609555D01*
X128379961Y-52629166D01*
X128519734Y-52655380D01*
X128655585Y-52687534D01*
X128784067Y-52724969D01*
X128805839Y-52732115D01*
X128849226Y-52747027D01*
X128890891Y-52762305D01*
X128932905Y-52778821D01*
X128977341Y-52797445D01*
X129026270Y-52819047D01*
X129081764Y-52844498D01*
X129145896Y-52874669D01*
X129152171Y-52877650D01*
X129187920Y-52894389D01*
X129219916Y-52908884D01*
X129246520Y-52920435D01*
X129266097Y-52928339D01*
X129277008Y-52931893D01*
X129278658Y-52931882D01*
X129276245Y-52926046D01*
X129265239Y-52913997D01*
X129246946Y-52896801D01*
X129222668Y-52875520D01*
X129193710Y-52851219D01*
X129161376Y-52824961D01*
X129126970Y-52797810D01*
X129091795Y-52770829D01*
X129057156Y-52745082D01*
X129024356Y-52721634D01*
X129003160Y-52707137D01*
X128966814Y-52683581D01*
X128933310Y-52663747D01*
X128899920Y-52646349D01*
X128863915Y-52630099D01*
X128822564Y-52613710D01*
X128773139Y-52595894D01*
X128751371Y-52588380D01*
X128654460Y-52556283D01*
X128565799Y-52529308D01*
X128482792Y-52506819D01*
X128402840Y-52488180D01*
X128323344Y-52472756D01*
X128241707Y-52459910D01*
X128207875Y-52455352D01*
X128126552Y-52447672D01*
X128039109Y-52444401D01*
X127949637Y-52445459D01*
X127862224Y-52450766D01*
X127780960Y-52460239D01*
X127756100Y-52464281D01*
X127661783Y-52482835D01*
X127569618Y-52505144D01*
X127477825Y-52531835D01*
X127384625Y-52563538D01*
X127288237Y-52600879D01*
X127186882Y-52644486D01*
X127078780Y-52694987D01*
X127019553Y-52724059D01*
X126944993Y-52761969D01*
X126875561Y-52799039D01*
X126809233Y-52836522D01*
X126743987Y-52875672D01*
X126677802Y-52917743D01*
X126608655Y-52963988D01*
X126534523Y-53015661D01*
X126453385Y-53074016D01*
X126443816Y-53080991D01*
X126408982Y-53106730D01*
X126383613Y-53126293D01*
X126366978Y-53140356D01*
X126358347Y-53149594D01*
X126356992Y-53154684D01*
X125713664Y-53154684D01*
X125722012Y-53143123D01*
X125756611Y-53095969D01*
X125792008Y-53048448D01*
X125828953Y-52999493D01*
X125868196Y-52948038D01*
X125901662Y-52904472D01*
X125960300Y-52827753D01*
X126011459Y-52759468D01*
X126055671Y-52698737D01*
X126093471Y-52644682D01*
X126125389Y-52596426D01*
X126151959Y-52553091D01*
X126173712Y-52513798D01*
X126191181Y-52477670D01*
X126204899Y-52443829D01*
X126215398Y-52411396D01*
X126223210Y-52379494D01*
X126224785Y-52371604D01*
X126227730Y-52354695D01*
X126232198Y-52327000D01*
X126237989Y-52289891D01*
X126244900Y-52244743D01*
X126252731Y-52192929D01*
X126261278Y-52135823D01*
X126270342Y-52074799D01*
X126279719Y-52011231D01*
X126289209Y-51946492D01*
X126298610Y-51881956D01*
X126307720Y-51818996D01*
X126316338Y-51758988D01*
X126324262Y-51703303D01*
X126331290Y-51653316D01*
X126337221Y-51610401D01*
X126341853Y-51575931D01*
X126343961Y-51559592D01*
X126347314Y-51533276D01*
X126352070Y-51496425D01*
X126358014Y-51450681D01*
X126364933Y-51397683D01*
X126372611Y-51339073D01*
X126380833Y-51276491D01*
X126389386Y-51211579D01*
X126398054Y-51145976D01*
X126399394Y-51135849D01*
X126414571Y-51018275D01*
X126427611Y-50911025D01*
X126438468Y-50814511D01*
X126447095Y-50729146D01*
X126453448Y-50655343D01*
X126454479Y-50641483D01*
X126459246Y-50576513D01*
X126463502Y-50521563D01*
X126467481Y-50474393D01*
X126471418Y-50432763D01*
X126475546Y-50394433D01*
X126480100Y-50357163D01*
X126485314Y-50318714D01*
X126491422Y-50276845D01*
X126495252Y-50251517D01*
X126527423Y-50069046D01*
X126567725Y-49891366D01*
X126616742Y-49716626D01*
X126675060Y-49542977D01*
X126743263Y-49368568D01*
X126821936Y-49191549D01*
X126846551Y-49139960D01*
X126930577Y-48979790D01*
X127024145Y-48826406D01*
X127126757Y-48680481D01*
X127237917Y-48542692D01*
X127357127Y-48413713D01*
X127440225Y-48333511D01*
X127475161Y-48301898D01*
X127516136Y-48265787D01*
X127561408Y-48226633D01*
X127609233Y-48185894D01*
X127657870Y-48145027D01*
X127705576Y-48105489D01*
X127750608Y-48068738D01*
X127791223Y-48036230D01*
X127825679Y-48009424D01*
X127845544Y-47994581D01*
X127925204Y-47939621D01*
X128005803Y-47890391D01*
X128089476Y-47845856D01*
X128178358Y-47804985D01*
X128274585Y-47766743D01*
X128380293Y-47730098D01*
X128415440Y-47718863D01*
X128452015Y-47707856D01*
X128491243Y-47697035D01*
X128533917Y-47686250D01*
X128580831Y-47675352D01*
X128632777Y-47664191D01*
X128690548Y-47652617D01*
X128754939Y-47640483D01*
X128826741Y-47627637D01*
X128906749Y-47613930D01*
X128995755Y-47599214D01*
X129094553Y-47583338D01*
X129203935Y-47566154D01*
X129324695Y-47547511D01*
X129325573Y-47547376D01*
X129497527Y-47521023D01*
X129499113Y-47542882D01*
X129499289Y-47550489D01*
X129499586Y-47569863D01*
X129499999Y-47600488D01*
X129500524Y-47641851D01*
X129501154Y-47693435D01*
X129501884Y-47754726D01*
X129502708Y-47825210D01*
X129503620Y-47904371D01*
X129504617Y-47991693D01*
X129505691Y-48086664D01*
X129506837Y-48188766D01*
X129508050Y-48297486D01*
X129509324Y-48412308D01*
X129510654Y-48532718D01*
X129512034Y-48658201D01*
X129513459Y-48788241D01*
X129514923Y-48922324D01*
X129516421Y-49059934D01*
X129517947Y-49200558D01*
X129519495Y-49343679D01*
X129521061Y-49488783D01*
X129522639Y-49635355D01*
X129524222Y-49782880D01*
X129525806Y-49930844D01*
X129527386Y-50078730D01*
X129528955Y-50226025D01*
X129530507Y-50372213D01*
X129532039Y-50516780D01*
X129533543Y-50659209D01*
X129535016Y-50798988D01*
X129536450Y-50935600D01*
X129537840Y-51068530D01*
X129539182Y-51197264D01*
X129540469Y-51321287D01*
X129541696Y-51440084D01*
X129542858Y-51553139D01*
X129543948Y-51659939D01*
X129544962Y-51759967D01*
X129545894Y-51852709D01*
X129546738Y-51937651D01*
X129547489Y-52014276D01*
X129548142Y-52082071D01*
X129548690Y-52140520D01*
X129549129Y-52189109D01*
X129549453Y-52227321D01*
X129549656Y-52254643D01*
X129549733Y-52270560D01*
X129549733Y-52271460D01*
X129549960Y-52302488D01*
X129550588Y-52328274D01*
X129551532Y-52346766D01*
X129552707Y-52355912D01*
X129553264Y-52356459D01*
X129555405Y-52349780D01*
X129559747Y-52332603D01*
X129565940Y-52306444D01*
X129573632Y-52272819D01*
X129582474Y-52233246D01*
X129592115Y-52189239D01*
X129595239Y-52174804D01*
X129633679Y-51996685D01*
X129613977Y-49700878D01*
X129612552Y-49533652D01*
X129611174Y-49369560D01*
X129609846Y-49209030D01*
X129608571Y-49052486D01*
X129607351Y-48900355D01*
X129606190Y-48753064D01*
X129605090Y-48611039D01*
X129604055Y-48474705D01*
X129603087Y-48344490D01*
X129602190Y-48220819D01*
X129601366Y-48104119D01*
X129600618Y-47994815D01*
X129599950Y-47893335D01*
X129599363Y-47800104D01*
X129598862Y-47715548D01*
X129598449Y-47640094D01*
X129598127Y-47574168D01*
X129597898Y-47518197D01*
X129597767Y-47472606D01*
X129597735Y-47437821D01*
X129597807Y-47414270D01*
X129597983Y-47402377D01*
X129598101Y-47400939D01*
X129608024Y-47396857D01*
X129628953Y-47393240D01*
X129659620Y-47390088D01*
X129698759Y-47387398D01*
X129745103Y-47385167D01*
X129797383Y-47383394D01*
X129854334Y-47382077D01*
X129914686Y-47381213D01*
X129977174Y-47380799D01*
X130040530Y-47380835D01*
G37*
G36*
X132253757Y-53256576D02*
G01*
X132288556Y-53262079D01*
X132330767Y-53270590D01*
X132378291Y-53281601D01*
X132429032Y-53294604D01*
X132480893Y-53309093D01*
X132531776Y-53324558D01*
X132570901Y-53337476D01*
X132666007Y-53372176D01*
X132753202Y-53408476D01*
X132834321Y-53447538D01*
X132911197Y-53490524D01*
X132985665Y-53538595D01*
X133059560Y-53592913D01*
X133134716Y-53654640D01*
X133212968Y-53724936D01*
X133272445Y-53781693D01*
X133330462Y-53839670D01*
X133385555Y-53897884D01*
X133439160Y-53958053D01*
X133492712Y-54021896D01*
X133547650Y-54091133D01*
X133605408Y-54167483D01*
X133667424Y-54252664D01*
X133676098Y-54264790D01*
X133778670Y-54414285D01*
X133874363Y-54566103D01*
X133964127Y-54722019D01*
X134048910Y-54883804D01*
X134129661Y-55053233D01*
X134207329Y-55232079D01*
X134249603Y-55336430D01*
X134269016Y-55385195D01*
X134291179Y-55440344D01*
X134314263Y-55497358D01*
X134336439Y-55551717D01*
X134354889Y-55596521D01*
X134444350Y-55815801D01*
X134527040Y-56025607D01*
X134603182Y-56226558D01*
X134673001Y-56419275D01*
X134736721Y-56604378D01*
X134794568Y-56782488D01*
X134846765Y-56954224D01*
X134849579Y-56963847D01*
X134865087Y-57016659D01*
X134882802Y-57076420D01*
X134901386Y-57138654D01*
X134919503Y-57198885D01*
X134935814Y-57252635D01*
X134938583Y-57261696D01*
X134975667Y-57384766D01*
X135008309Y-57497216D01*
X135036694Y-57599802D01*
X135061008Y-57693282D01*
X135081438Y-57778411D01*
X135098169Y-57855946D01*
X135111387Y-57926645D01*
X135121279Y-57991262D01*
X135124699Y-58018598D01*
X135126749Y-58040122D01*
X135127408Y-58055927D01*
X135126567Y-58063000D01*
X135126319Y-58063122D01*
X135119694Y-58060754D01*
X135104074Y-58054274D01*
X135081659Y-58044618D01*
X135054649Y-58032724D01*
X135049128Y-58030266D01*
X134978340Y-57999645D01*
X134903106Y-57968814D01*
X134827106Y-57939201D01*
X134754017Y-57912233D01*
X134687519Y-57889337D01*
X134677629Y-57886112D01*
X134609679Y-57864287D01*
X134551096Y-57845825D01*
X134499626Y-57830104D01*
X134453019Y-57816503D01*
X134409020Y-57804399D01*
X134365379Y-57793172D01*
X134319843Y-57782199D01*
X134270160Y-57770860D01*
X134220109Y-57759842D01*
X134143493Y-57743234D01*
X134077312Y-57729053D01*
X134020018Y-57717031D01*
X133970064Y-57706899D01*
X133925901Y-57698388D01*
X133885981Y-57691230D01*
X133848758Y-57685157D01*
X133812682Y-57679899D01*
X133776206Y-57675188D01*
X133737782Y-57670756D01*
X133695863Y-57666334D01*
X133661260Y-57662869D01*
X133629296Y-57660500D01*
X133586996Y-57658554D01*
X133536299Y-57657032D01*
X133479144Y-57655934D01*
X133417469Y-57655259D01*
X133353214Y-57655008D01*
X133288318Y-57655181D01*
X133224719Y-57655778D01*
X133164357Y-57656798D01*
X133109170Y-57658243D01*
X133061098Y-57660112D01*
X133022079Y-57662405D01*
X133016434Y-57662841D01*
X132957648Y-57667803D01*
X132903626Y-57672785D01*
X132855521Y-57677652D01*
X132814490Y-57682271D01*
X132781686Y-57686508D01*
X132758264Y-57690230D01*
X132745379Y-57693301D01*
X132743267Y-57694520D01*
X132740976Y-57701061D01*
X132735304Y-57718436D01*
X132726532Y-57745757D01*
X132714941Y-57782134D01*
X132700812Y-57826678D01*
X132684428Y-57878500D01*
X132666068Y-57936711D01*
X132646015Y-58000421D01*
X132624550Y-58068743D01*
X132601954Y-58140786D01*
X132592782Y-58170064D01*
X132445483Y-58640395D01*
X132296353Y-58640395D01*
X132223439Y-58605083D01*
X132193573Y-58590746D01*
X132171634Y-58580935D01*
X132154506Y-58574795D01*
X132139077Y-58571468D01*
X132122231Y-58570100D01*
X132100855Y-58569832D01*
X132095254Y-58569836D01*
X132067392Y-58570277D01*
X132047344Y-58572166D01*
X132030654Y-58576472D01*
X132012863Y-58584162D01*
X132000612Y-58590383D01*
X131969264Y-58609693D01*
X131937483Y-58634383D01*
X131908844Y-58661317D01*
X131886922Y-58687361D01*
X131882563Y-58693922D01*
X131873844Y-58706255D01*
X131867665Y-58711820D01*
X131866632Y-58711668D01*
X131866558Y-58704247D01*
X131870118Y-58688306D01*
X131876386Y-58666731D01*
X131884436Y-58642407D01*
X131893342Y-58618218D01*
X131902178Y-58597050D01*
X131905990Y-58589069D01*
X131931141Y-58549865D01*
X131963421Y-58515472D01*
X132000232Y-58488053D01*
X132038978Y-58469771D01*
X132054437Y-58465500D01*
X132101944Y-58461037D01*
X132151312Y-58466771D01*
X132198796Y-58481970D01*
X132232753Y-58500348D01*
X132248567Y-58509533D01*
X132260269Y-58513856D01*
X132264053Y-58513336D01*
X132266173Y-58507037D01*
X132271488Y-58489642D01*
X132279801Y-58461831D01*
X132290915Y-58424285D01*
X132304633Y-58377684D01*
X132320758Y-58322709D01*
X132339093Y-58260039D01*
X132359440Y-58190356D01*
X132381604Y-58114339D01*
X132405387Y-58032670D01*
X132430591Y-57946028D01*
X132457021Y-57855094D01*
X132484478Y-57760548D01*
X132512767Y-57663072D01*
X132541690Y-57563344D01*
X132571049Y-57462047D01*
X132600649Y-57359859D01*
X132630291Y-57257462D01*
X132659780Y-57155535D01*
X132688918Y-57054760D01*
X132717508Y-56955817D01*
X132745352Y-56859386D01*
X132772255Y-56766147D01*
X132798019Y-56676781D01*
X132822447Y-56591969D01*
X132845342Y-56512391D01*
X132866507Y-56438726D01*
X132885746Y-56371657D01*
X132902860Y-56311862D01*
X132917654Y-56260023D01*
X132929929Y-56216820D01*
X132939490Y-56182933D01*
X132946139Y-56159043D01*
X132949679Y-56145830D01*
X132950222Y-56143292D01*
X132947764Y-56148694D01*
X132940942Y-56164933D01*
X132929983Y-56191451D01*
X132915112Y-56227691D01*
X132896555Y-56273097D01*
X132874539Y-56327112D01*
X132849289Y-56389179D01*
X132821031Y-56458742D01*
X132789992Y-56535243D01*
X132756397Y-56618127D01*
X132720473Y-56706836D01*
X132682445Y-56800814D01*
X132642540Y-56899504D01*
X132600983Y-57002349D01*
X132558001Y-57108793D01*
X132519134Y-57205106D01*
X132474912Y-57314711D01*
X132431833Y-57421475D01*
X132390129Y-57524820D01*
X132350033Y-57624170D01*
X132311777Y-57718950D01*
X132275594Y-57808582D01*
X132241716Y-57892492D01*
X132210377Y-57970102D01*
X132181810Y-58040836D01*
X132156245Y-58104118D01*
X132133918Y-58159373D01*
X132115059Y-58206023D01*
X132099903Y-58243493D01*
X132088681Y-58271207D01*
X132081626Y-58288587D01*
X132079095Y-58294769D01*
X132068212Y-58320687D01*
X131566060Y-57815756D01*
X131491655Y-57740942D01*
X131413467Y-57662330D01*
X131332683Y-57581112D01*
X131250489Y-57498481D01*
X131168071Y-57415629D01*
X131086615Y-57333749D01*
X131007308Y-57254033D01*
X130931337Y-57177673D01*
X130859887Y-57105863D01*
X130794144Y-57039794D01*
X130735296Y-56980659D01*
X130709396Y-56954636D01*
X130354885Y-56598446D01*
X130364922Y-56558528D01*
X130370711Y-56525787D01*
X130374175Y-56485470D01*
X130375318Y-56441487D01*
X130374143Y-56397752D01*
X130370654Y-56358177D01*
X130364854Y-56326674D01*
X130364711Y-56326141D01*
X130342319Y-56264615D01*
X130310238Y-56207918D01*
X130279098Y-56168504D01*
X130238460Y-56129749D01*
X130195677Y-56100799D01*
X130148759Y-56080852D01*
X130095718Y-56069100D01*
X130034564Y-56064741D01*
X130022600Y-56064679D01*
X129957032Y-56068367D01*
X129900250Y-56079394D01*
X129850720Y-56098432D01*
X129806909Y-56126157D01*
X129767286Y-56163242D01*
X129748905Y-56185073D01*
X129713217Y-56240302D01*
X129687361Y-56302080D01*
X129671559Y-56369303D01*
X129666035Y-56440871D01*
X129671011Y-56515681D01*
X129675946Y-56546028D01*
X129685482Y-56596297D01*
X129602243Y-56683349D01*
X129589027Y-56696990D01*
X129567641Y-56718827D01*
X129538585Y-56748357D01*
X129502358Y-56785077D01*
X129459459Y-56828481D01*
X129410387Y-56878067D01*
X129355644Y-56933330D01*
X129295727Y-56993767D01*
X129231137Y-57058874D01*
X129162373Y-57128147D01*
X129089934Y-57201083D01*
X129014320Y-57277177D01*
X128936031Y-57355926D01*
X128855566Y-57436827D01*
X128773425Y-57519374D01*
X128746757Y-57546165D01*
X127974510Y-58321931D01*
X127535912Y-57234513D01*
X127491377Y-57124137D01*
X127448064Y-57016866D01*
X127406195Y-56913249D01*
X127365994Y-56813838D01*
X127327685Y-56719184D01*
X127291492Y-56629835D01*
X127257638Y-56546344D01*
X127226347Y-56469260D01*
X127197842Y-56399134D01*
X127172348Y-56336517D01*
X127150087Y-56281959D01*
X127131283Y-56236010D01*
X127116160Y-56199221D01*
X127104942Y-56172143D01*
X127097852Y-56155326D01*
X127095114Y-56149321D01*
X127095094Y-56149316D01*
X127096593Y-56155279D01*
X127101314Y-56172358D01*
X127109062Y-56199872D01*
X127119640Y-56237141D01*
X127132851Y-56283483D01*
X127148498Y-56338218D01*
X127166386Y-56400665D01*
X127186317Y-56470143D01*
X127208094Y-56545972D01*
X127231522Y-56627470D01*
X127256404Y-56713956D01*
X127282543Y-56804751D01*
X127309742Y-56899173D01*
X127337805Y-56996541D01*
X127366536Y-57096174D01*
X127395737Y-57197392D01*
X127425213Y-57299515D01*
X127454766Y-57401860D01*
X127484201Y-57503747D01*
X127513320Y-57604496D01*
X127541927Y-57703426D01*
X127569825Y-57799855D01*
X127596818Y-57893103D01*
X127622709Y-57982490D01*
X127647302Y-58067334D01*
X127670400Y-58146955D01*
X127691807Y-58220671D01*
X127711325Y-58287803D01*
X127728759Y-58347668D01*
X127743911Y-58399587D01*
X127756586Y-58442879D01*
X127766586Y-58476862D01*
X127773716Y-58500856D01*
X127777777Y-58514181D01*
X127778674Y-58516792D01*
X127784323Y-58514950D01*
X127797021Y-58507817D01*
X127809687Y-58499768D01*
X127854349Y-58476918D01*
X127903797Y-58464718D01*
X127941617Y-58462300D01*
X127992162Y-58467862D01*
X128037478Y-58484511D01*
X128077508Y-58512196D01*
X128112194Y-58550864D01*
X128141480Y-58600464D01*
X128165309Y-58660943D01*
X128168090Y-58669892D01*
X128174265Y-58691499D01*
X128178329Y-58708031D01*
X128179558Y-58716471D01*
X128179402Y-58716920D01*
X128175075Y-58713479D01*
X128166065Y-58702340D01*
X128156185Y-58688578D01*
X128118118Y-58643961D01*
X128070853Y-58607116D01*
X128039649Y-58589637D01*
X128017586Y-58579495D01*
X127999239Y-58573516D01*
X127979641Y-58570636D01*
X127953821Y-58569790D01*
X127946965Y-58569771D01*
X127925286Y-58569983D01*
X127908226Y-58571191D01*
X127892725Y-58574251D01*
X127875725Y-58580020D01*
X127854165Y-58589355D01*
X127824988Y-58603111D01*
X127820865Y-58605083D01*
X127747055Y-58640395D01*
X127672354Y-58640395D01*
X127640578Y-58640208D01*
X127619007Y-58639456D01*
X127605569Y-58637854D01*
X127598189Y-58635116D01*
X127594796Y-58630957D01*
X127594323Y-58629648D01*
X127581001Y-58586755D01*
X127565585Y-58537277D01*
X127548405Y-58482260D01*
X127529791Y-58422754D01*
X127510073Y-58359806D01*
X127489581Y-58294464D01*
X127468645Y-58227776D01*
X127447594Y-58160791D01*
X127426759Y-58094557D01*
X127406469Y-58030121D01*
X127387055Y-57968533D01*
X127368846Y-57910839D01*
X127352173Y-57858088D01*
X127337365Y-57811329D01*
X127324752Y-57771609D01*
X127314664Y-57739976D01*
X127307432Y-57717479D01*
X127303385Y-57705165D01*
X127302678Y-57703198D01*
X127298017Y-57696600D01*
X127289203Y-57691785D01*
X127273708Y-57687918D01*
X127249002Y-57684161D01*
X127242700Y-57683344D01*
X127174980Y-57675376D01*
X127108008Y-57668916D01*
X127039638Y-57663852D01*
X126967724Y-57660072D01*
X126890120Y-57657465D01*
X126804680Y-57655919D01*
X126709259Y-57655323D01*
X126703281Y-57655316D01*
X126623055Y-57655470D01*
X126551124Y-57656250D01*
X126485728Y-57657858D01*
X126425105Y-57660496D01*
X126367494Y-57664366D01*
X126311133Y-57669671D01*
X126254261Y-57676613D01*
X126195117Y-57685393D01*
X126131939Y-57696215D01*
X126062966Y-57709281D01*
X125986437Y-57724792D01*
X125900589Y-57742952D01*
X125855619Y-57752655D01*
X125803687Y-57764055D01*
X125753611Y-57775319D01*
X125707149Y-57786029D01*
X125666060Y-57795771D01*
X125632102Y-57804129D01*
X125607034Y-57810687D01*
X125594795Y-57814282D01*
X125572944Y-57821263D01*
X125542516Y-57830753D01*
X125506705Y-57841765D01*
X125468711Y-57853314D01*
X125445935Y-57860170D01*
X125337960Y-57894982D01*
X125221563Y-57937164D01*
X125097835Y-57986311D01*
X125035946Y-58012349D01*
X125001823Y-58026941D01*
X124971286Y-58039975D01*
X124946249Y-58050634D01*
X124928624Y-58058106D01*
X124920324Y-58061575D01*
X124920248Y-58061605D01*
X124916578Y-58060545D01*
X124914918Y-58053026D01*
X124915368Y-58038048D01*
X124918030Y-58014612D01*
X124923002Y-57981717D01*
X124930387Y-57938364D01*
X124935533Y-57909592D01*
X124949645Y-57836162D01*
X124965735Y-57761353D01*
X124984246Y-57683444D01*
X125005618Y-57600710D01*
X125030294Y-57511431D01*
X125058717Y-57413884D01*
X125085232Y-57326178D01*
X125100620Y-57275694D01*
X125117117Y-57221088D01*
X125133661Y-57165910D01*
X125149192Y-57113704D01*
X125162647Y-57068018D01*
X125167946Y-57049824D01*
X125229675Y-56843111D01*
X125292911Y-56644096D01*
X125358968Y-56448970D01*
X125429159Y-56253923D01*
X125504796Y-56055146D01*
X125551029Y-55938267D01*
X125598992Y-55818616D01*
X125642707Y-55709702D01*
X125682458Y-55610851D01*
X125718533Y-55521386D01*
X125751217Y-55440631D01*
X125780797Y-55367910D01*
X125784324Y-55359295D01*
X127232114Y-55359295D01*
X127234214Y-55363896D01*
X127240555Y-55372255D01*
X127251666Y-55384929D01*
X127268071Y-55402471D01*
X127290298Y-55425437D01*
X127318872Y-55454382D01*
X127354320Y-55489862D01*
X127397169Y-55532431D01*
X127447944Y-55582645D01*
X127486150Y-55620338D01*
X127732035Y-55862761D01*
X127899331Y-55821449D01*
X127989537Y-55799739D01*
X128070529Y-55781511D01*
X128144722Y-55766285D01*
X128214527Y-55753580D01*
X128282358Y-55742918D01*
X128320658Y-55737623D01*
X128356147Y-55733911D01*
X128399232Y-55730937D01*
X128447653Y-55728717D01*
X128499148Y-55727266D01*
X128551458Y-55726601D01*
X128602321Y-55726736D01*
X128649477Y-55727687D01*
X128690665Y-55729468D01*
X128723625Y-55732097D01*
X128742159Y-55734743D01*
X128834189Y-55754393D01*
X128936992Y-55779688D01*
X129018296Y-55801571D01*
X129122478Y-55830508D01*
X129091990Y-55838527D01*
X128991303Y-55868120D01*
X128900929Y-55901502D01*
X128819258Y-55939512D01*
X128744680Y-55982989D01*
X128675584Y-56032772D01*
X128610951Y-56089138D01*
X128550476Y-56150717D01*
X128495772Y-56215413D01*
X128445629Y-56285052D01*
X128398838Y-56361459D01*
X128354189Y-56446459D01*
X128310472Y-56541878D01*
X128309642Y-56543804D01*
X128272958Y-56633246D01*
X128240850Y-56720981D01*
X128212787Y-56809092D01*
X128188239Y-56899661D01*
X128166673Y-56994770D01*
X128147560Y-57096503D01*
X128130367Y-57206941D01*
X128119233Y-57290201D01*
X128115458Y-57321500D01*
X128111264Y-57358525D01*
X128106867Y-57399126D01*
X128102482Y-57441159D01*
X128098322Y-57482475D01*
X128094603Y-57520928D01*
X128091540Y-57554371D01*
X128089347Y-57580657D01*
X128088238Y-57597639D01*
X128088147Y-57600997D01*
X128091224Y-57608112D01*
X128097667Y-57606521D01*
X128102938Y-57597926D01*
X128105064Y-57590176D01*
X128110012Y-57571617D01*
X128117499Y-57543324D01*
X128127241Y-57506370D01*
X128138957Y-57461831D01*
X128152363Y-57410781D01*
X128167178Y-57354295D01*
X128183118Y-57293447D01*
X128198599Y-57234285D01*
X128218049Y-57160013D01*
X128234770Y-57096471D01*
X128249113Y-57042498D01*
X128261426Y-56996934D01*
X128272060Y-56958618D01*
X128281364Y-56926390D01*
X128289687Y-56899088D01*
X128297380Y-56875553D01*
X128304791Y-56854624D01*
X128312270Y-56835139D01*
X128320167Y-56815940D01*
X128328831Y-56795864D01*
X128334546Y-56782907D01*
X128387079Y-56668274D01*
X128438061Y-56565188D01*
X128487912Y-56473075D01*
X128537054Y-56391357D01*
X128585906Y-56319461D01*
X128634891Y-56256810D01*
X128684429Y-56202830D01*
X128734941Y-56156943D01*
X128786848Y-56118576D01*
X128840570Y-56087151D01*
X128844993Y-56084903D01*
X128871142Y-56072058D01*
X128906180Y-56055286D01*
X128947779Y-56035664D01*
X128993612Y-56014266D01*
X129041350Y-55992167D01*
X129088664Y-55970445D01*
X129133227Y-55950172D01*
X129172710Y-55932426D01*
X129204784Y-55918282D01*
X129218102Y-55912563D01*
X129262442Y-55893184D01*
X129296095Y-55876799D01*
X129320044Y-55862570D01*
X129335273Y-55849661D01*
X129342763Y-55837234D01*
X129342787Y-55836815D01*
X130700623Y-55836815D01*
X130702902Y-55843702D01*
X130706878Y-55850067D01*
X130713825Y-55856636D01*
X130725017Y-55864135D01*
X130741726Y-55873289D01*
X130765226Y-55884825D01*
X130796790Y-55899468D01*
X130837692Y-55917944D01*
X130862210Y-55928922D01*
X130947710Y-55967426D01*
X131024151Y-56002440D01*
X131091167Y-56033784D01*
X131148389Y-56061282D01*
X131195449Y-56084755D01*
X131231979Y-56104025D01*
X131257610Y-56118916D01*
X131263387Y-56122683D01*
X131324155Y-56170168D01*
X131384050Y-56229519D01*
X131443131Y-56300816D01*
X131501455Y-56384137D01*
X131559081Y-56479559D01*
X131616069Y-56587161D01*
X131624150Y-56603509D01*
X131649288Y-56654899D01*
X131670960Y-56699727D01*
X131689704Y-56739509D01*
X131706057Y-56775764D01*
X131720555Y-56810010D01*
X131733738Y-56843764D01*
X131746141Y-56878544D01*
X131758302Y-56915868D01*
X131770758Y-56957255D01*
X131784048Y-57004221D01*
X131798707Y-57058284D01*
X131815273Y-57120964D01*
X131834284Y-57193776D01*
X131837578Y-57206425D01*
X131858452Y-57286611D01*
X131876455Y-57355733D01*
X131891812Y-57414611D01*
X131904748Y-57464067D01*
X131915491Y-57504921D01*
X131924266Y-57537995D01*
X131931300Y-57564108D01*
X131936818Y-57584082D01*
X131941047Y-57598738D01*
X131944213Y-57608897D01*
X131946542Y-57615379D01*
X131948260Y-57619006D01*
X131949593Y-57620598D01*
X131950769Y-57620976D01*
X131951780Y-57620956D01*
X131954216Y-57615321D01*
X131954873Y-57600222D01*
X131953725Y-57579503D01*
X131939166Y-57429666D01*
X131923270Y-57291951D01*
X131906022Y-57166265D01*
X131887409Y-57052520D01*
X131867416Y-56950624D01*
X131846028Y-56860488D01*
X131830452Y-56805107D01*
X131805334Y-56728201D01*
X131775877Y-56648439D01*
X131743165Y-56568235D01*
X131708283Y-56490002D01*
X131672314Y-56416155D01*
X131636345Y-56349106D01*
X131601458Y-56291270D01*
X131595477Y-56282174D01*
X131527759Y-56190228D01*
X131454130Y-56108783D01*
X131374057Y-56037466D01*
X131287013Y-55975902D01*
X131192465Y-55923715D01*
X131089885Y-55880531D01*
X130978741Y-55845976D01*
X130977648Y-55845690D01*
X130922470Y-55831244D01*
X130959225Y-55819891D01*
X130987548Y-55811594D01*
X131024858Y-55801314D01*
X131068172Y-55789813D01*
X131114503Y-55777853D01*
X131160869Y-55766195D01*
X131204282Y-55755600D01*
X131241760Y-55746829D01*
X131268557Y-55740999D01*
X131309400Y-55734497D01*
X131360394Y-55729414D01*
X131419467Y-55725947D01*
X131435075Y-55725362D01*
X131509351Y-55724289D01*
X131583495Y-55726233D01*
X131659042Y-55731407D01*
X131737525Y-55740025D01*
X131820478Y-55752299D01*
X131909435Y-55768442D01*
X132005929Y-55788668D01*
X132111493Y-55813190D01*
X132168949Y-55827326D01*
X132310196Y-55862647D01*
X132560976Y-55616575D01*
X132607221Y-55571111D01*
X132650903Y-55527998D01*
X132691220Y-55488039D01*
X132727369Y-55452037D01*
X132758548Y-55420796D01*
X132783955Y-55395119D01*
X132802787Y-55375810D01*
X132814241Y-55363672D01*
X132817514Y-55359745D01*
X132820192Y-55352085D01*
X132814285Y-55352453D01*
X132812933Y-55352955D01*
X132806018Y-55357283D01*
X132790212Y-55368148D01*
X132766529Y-55384823D01*
X132735984Y-55406584D01*
X132699590Y-55432705D01*
X132658362Y-55462460D01*
X132613315Y-55495124D01*
X132565462Y-55529972D01*
X132565269Y-55530113D01*
X132517315Y-55565080D01*
X132472110Y-55597992D01*
X132430678Y-55628106D01*
X132394044Y-55654679D01*
X132363233Y-55676969D01*
X132339269Y-55694233D01*
X132323178Y-55705729D01*
X132315999Y-55710706D01*
X132309900Y-55712863D01*
X132300279Y-55713083D01*
X132285511Y-55711069D01*
X132263967Y-55706522D01*
X132234023Y-55699143D01*
X132194052Y-55688633D01*
X132190292Y-55687627D01*
X132101604Y-55664499D01*
X132022203Y-55645317D01*
X131949863Y-55629756D01*
X131882352Y-55617494D01*
X131817444Y-55608208D01*
X131752908Y-55601575D01*
X131686516Y-55597272D01*
X131616038Y-55594977D01*
X131546464Y-55594360D01*
X131449455Y-55595813D01*
X131361303Y-55600447D01*
X131278896Y-55608675D01*
X131199126Y-55620912D01*
X131118880Y-55637571D01*
X131035050Y-55659065D01*
X131013001Y-55665290D01*
X130936853Y-55688575D01*
X130870684Y-55711798D01*
X130814821Y-55734781D01*
X130769590Y-55757342D01*
X130735319Y-55779303D01*
X130712334Y-55800485D01*
X130700963Y-55820708D01*
X130700623Y-55836815D01*
X129342787Y-55836815D01*
X129343498Y-55824451D01*
X129338461Y-55810474D01*
X129338287Y-55810136D01*
X129323657Y-55792265D01*
X129298183Y-55772934D01*
X129263148Y-55752626D01*
X129219836Y-55731825D01*
X129169530Y-55711017D01*
X129113513Y-55690684D01*
X129053069Y-55671312D01*
X128989480Y-55653384D01*
X128924031Y-55637386D01*
X128858004Y-55623800D01*
X128832443Y-55619271D01*
X128778050Y-55610730D01*
X128727165Y-55604250D01*
X128676661Y-55599604D01*
X128623408Y-55596560D01*
X128564279Y-55594889D01*
X128496143Y-55594361D01*
X128493441Y-55594360D01*
X128419488Y-55595021D01*
X128352535Y-55597226D01*
X128290105Y-55601313D01*
X128229723Y-55607615D01*
X128168913Y-55616469D01*
X128105200Y-55628210D01*
X128036108Y-55643174D01*
X127959162Y-55661695D01*
X127916168Y-55672602D01*
X127873422Y-55683465D01*
X127833941Y-55693257D01*
X127799486Y-55701561D01*
X127771812Y-55707961D01*
X127752680Y-55712040D01*
X127744215Y-55713381D01*
X127736638Y-55710851D01*
X127722136Y-55702780D01*
X127700287Y-55688878D01*
X127670667Y-55668855D01*
X127632852Y-55642421D01*
X127586418Y-55609285D01*
X127530942Y-55569158D01*
X127488934Y-55538532D01*
X127440816Y-55503435D01*
X127395492Y-55470517D01*
X127353969Y-55440499D01*
X127317256Y-55414104D01*
X127286360Y-55392054D01*
X127262290Y-55375072D01*
X127246053Y-55363879D01*
X127238657Y-55359197D01*
X127238538Y-55359147D01*
X127233731Y-55357897D01*
X127232114Y-55359295D01*
X125784324Y-55359295D01*
X125805501Y-55307573D01*
X129673790Y-55307573D01*
X129673868Y-55311433D01*
X129683110Y-55309802D01*
X129683298Y-55309740D01*
X129692281Y-55307089D01*
X129711160Y-55301740D01*
X129737984Y-55294237D01*
X129770804Y-55285126D01*
X129807668Y-55274951D01*
X129816869Y-55272420D01*
X129874733Y-55256868D01*
X129922594Y-55244878D01*
X129962110Y-55236154D01*
X129994940Y-55230402D01*
X130022743Y-55227326D01*
X130047175Y-55226629D01*
X130067302Y-55227759D01*
X130085866Y-55230568D01*
X130113886Y-55236142D01*
X130148999Y-55243907D01*
X130188842Y-55253285D01*
X130231050Y-55263702D01*
X130273262Y-55274581D01*
X130313113Y-55285347D01*
X130348242Y-55295424D01*
X130361108Y-55299340D01*
X130384655Y-55306098D01*
X130399157Y-55308719D01*
X130404365Y-55306855D01*
X130400034Y-55300158D01*
X130385917Y-55288280D01*
X130361767Y-55270874D01*
X130327337Y-55247592D01*
X130321777Y-55243906D01*
X130269745Y-55210736D01*
X130224561Y-55185041D01*
X130184008Y-55166006D01*
X130145873Y-55152815D01*
X130107940Y-55144651D01*
X130067996Y-55140699D01*
X130039790Y-55140002D01*
X129992470Y-55141716D01*
X129951822Y-55147787D01*
X129912670Y-55159337D01*
X129872140Y-55176414D01*
X129847924Y-55188604D01*
X129821235Y-55203519D01*
X129793367Y-55220248D01*
X129765611Y-55237877D01*
X129739263Y-55255493D01*
X129715613Y-55272183D01*
X129695956Y-55287035D01*
X129681584Y-55299136D01*
X129673790Y-55307573D01*
X125805501Y-55307573D01*
X125807559Y-55302547D01*
X125831789Y-55243866D01*
X125853774Y-55191191D01*
X125873799Y-55143845D01*
X125892151Y-55101153D01*
X125909116Y-55062439D01*
X125924980Y-55027026D01*
X125940030Y-54994238D01*
X125954551Y-54963400D01*
X125968830Y-54933835D01*
X125983154Y-54904867D01*
X125997808Y-54875820D01*
X126013078Y-54846018D01*
X126015118Y-54842063D01*
X126085409Y-54710348D01*
X126157184Y-54585096D01*
X126201464Y-54513336D01*
X127203789Y-54513336D01*
X127207572Y-54521092D01*
X127218271Y-54537042D01*
X127234913Y-54559965D01*
X127256524Y-54588643D01*
X127282132Y-54621856D01*
X127310762Y-54658385D01*
X127341441Y-54697009D01*
X127373195Y-54736510D01*
X127405051Y-54775667D01*
X127436036Y-54813262D01*
X127465176Y-54848075D01*
X127491497Y-54878885D01*
X127514027Y-54904475D01*
X127528887Y-54920600D01*
X127608173Y-54996385D01*
X127690710Y-55060419D01*
X127776814Y-55112876D01*
X127866802Y-55153934D01*
X127960991Y-55183766D01*
X128029780Y-55198096D01*
X128092466Y-55206914D01*
X128163501Y-55214169D01*
X128239901Y-55219747D01*
X128318680Y-55223535D01*
X128396853Y-55225418D01*
X128471435Y-55225283D01*
X128539442Y-55223016D01*
X128589098Y-55219400D01*
X128730979Y-55199574D01*
X128873025Y-55167516D01*
X129015301Y-55123208D01*
X129052934Y-55108596D01*
X129525488Y-55108596D01*
X129528006Y-55109205D01*
X129534867Y-55107143D01*
X129549319Y-55101867D01*
X129560247Y-55097648D01*
X129575254Y-55092551D01*
X129600133Y-55085010D01*
X129632847Y-55075581D01*
X129671355Y-55064815D01*
X129713621Y-55053266D01*
X129757604Y-55041488D01*
X129801265Y-55030033D01*
X129842568Y-55019455D01*
X129879471Y-55010307D01*
X129900722Y-55005253D01*
X129964000Y-54993184D01*
X130020789Y-54988286D01*
X130074444Y-54990387D01*
X130105506Y-54994755D01*
X130130948Y-54999834D01*
X130164691Y-55007459D01*
X130204678Y-55017082D01*
X130248850Y-55028159D01*
X130295151Y-55040141D01*
X130341523Y-55052483D01*
X130385908Y-55064638D01*
X130426248Y-55076060D01*
X130460485Y-55086202D01*
X130486563Y-55094518D01*
X130500686Y-55099704D01*
X130522818Y-55108802D01*
X130535987Y-55113471D01*
X130542462Y-55114254D01*
X130544510Y-55111691D01*
X130544601Y-55110192D01*
X130539644Y-55103932D01*
X130525822Y-55092281D01*
X130504713Y-55076320D01*
X130477891Y-55057129D01*
X130446933Y-55035787D01*
X130413415Y-55013374D01*
X130378913Y-54990971D01*
X130345003Y-54969656D01*
X130334212Y-54963147D01*
X130697623Y-54963147D01*
X130698643Y-54964161D01*
X130707966Y-54970757D01*
X130725570Y-54981637D01*
X130748888Y-54995331D01*
X130775351Y-55010368D01*
X130802391Y-55025276D01*
X130827439Y-55038584D01*
X130837885Y-55043915D01*
X130956185Y-55097030D01*
X131082300Y-55141986D01*
X131214449Y-55178287D01*
X131350849Y-55205439D01*
X131478064Y-55221863D01*
X131505038Y-55223550D01*
X131541760Y-55224561D01*
X131585712Y-55224932D01*
X131634381Y-55224699D01*
X131685250Y-55223898D01*
X131735805Y-55222567D01*
X131783531Y-55220740D01*
X131825912Y-55218454D01*
X131852677Y-55216461D01*
X131918142Y-55210195D01*
X131973826Y-55203527D01*
X132022226Y-55196052D01*
X132065845Y-55187367D01*
X132107180Y-55177068D01*
X132121233Y-55173106D01*
X132202224Y-55143836D01*
X132283191Y-55103349D01*
X132362694Y-55052631D01*
X132439290Y-54992665D01*
X132511536Y-54924436D01*
X132554156Y-54877666D01*
X132581640Y-54845248D01*
X132611563Y-54809210D01*
X132642969Y-54770771D01*
X132674906Y-54731151D01*
X132706419Y-54691568D01*
X132736554Y-54653242D01*
X132764358Y-54617391D01*
X132788875Y-54585236D01*
X132809153Y-54557995D01*
X132824238Y-54536888D01*
X132833174Y-54523134D01*
X132835269Y-54518396D01*
X132834430Y-54515067D01*
X132831161Y-54514992D01*
X132824332Y-54519045D01*
X132812815Y-54528104D01*
X132795480Y-54543044D01*
X132771198Y-54564742D01*
X132745256Y-54588242D01*
X132681084Y-54645579D01*
X132617328Y-54700692D01*
X132555413Y-54752428D01*
X132496761Y-54799634D01*
X132442798Y-54841158D01*
X132394948Y-54875846D01*
X132365262Y-54895825D01*
X132295433Y-54936674D01*
X132221177Y-54971718D01*
X132141553Y-55001163D01*
X132055617Y-55025216D01*
X131962429Y-55044084D01*
X131861046Y-55057972D01*
X131750526Y-55067089D01*
X131629928Y-55071639D01*
X131560970Y-55072271D01*
X131458524Y-55071493D01*
X131366550Y-55069038D01*
X131283341Y-55064811D01*
X131207187Y-55058718D01*
X131136382Y-55050664D01*
X131112662Y-55047380D01*
X131054687Y-55038078D01*
X130990814Y-55026290D01*
X130924888Y-55012827D01*
X130860748Y-54998500D01*
X130802238Y-54984119D01*
X130766085Y-54974281D01*
X130732004Y-54965028D01*
X130709304Y-54960098D01*
X130697880Y-54959477D01*
X130697623Y-54963147D01*
X130334212Y-54963147D01*
X130313261Y-54950510D01*
X130302024Y-54943987D01*
X130227603Y-54908092D01*
X130150649Y-54884173D01*
X130071475Y-54872294D01*
X129990396Y-54872522D01*
X129970889Y-54874363D01*
X129916150Y-54882777D01*
X129865608Y-54895880D01*
X129815843Y-54914900D01*
X129763434Y-54941065D01*
X129727779Y-54961614D01*
X129686077Y-54987223D01*
X129646927Y-55012343D01*
X129611400Y-55036186D01*
X129580563Y-55057961D01*
X129555484Y-55076879D01*
X129537233Y-55092150D01*
X129526878Y-55102986D01*
X129525488Y-55108596D01*
X129052934Y-55108596D01*
X129129286Y-55078950D01*
X129160829Y-55064901D01*
X129194654Y-55048604D01*
X129228870Y-55031107D01*
X129261587Y-55013462D01*
X129290915Y-54996719D01*
X129314964Y-54981928D01*
X129331844Y-54970140D01*
X129339665Y-54962405D01*
X129339867Y-54961924D01*
X129338978Y-54956585D01*
X129331017Y-54958308D01*
X129316334Y-54963102D01*
X129291870Y-54969953D01*
X129259852Y-54978325D01*
X129222504Y-54987680D01*
X129182052Y-54997482D01*
X129140720Y-55007194D01*
X129100735Y-55016278D01*
X129064322Y-55024198D01*
X129033705Y-55030416D01*
X129026764Y-55031726D01*
X128978158Y-55040450D01*
X128934009Y-55047713D01*
X128892491Y-55053646D01*
X128851778Y-55058381D01*
X128810044Y-55062047D01*
X128765463Y-55064778D01*
X128716207Y-55066704D01*
X128660452Y-55067957D01*
X128596371Y-55068669D01*
X128522138Y-55068969D01*
X128508794Y-55068989D01*
X128444324Y-55069021D01*
X128390578Y-55068916D01*
X128345998Y-55068611D01*
X128309027Y-55068046D01*
X128278108Y-55067160D01*
X128251681Y-55065893D01*
X128228189Y-55064182D01*
X128206075Y-55061968D01*
X128183781Y-55059189D01*
X128159748Y-55055785D01*
X128155675Y-55055183D01*
X128070850Y-55041415D01*
X127994873Y-55026172D01*
X127925889Y-55008600D01*
X127862045Y-54987844D01*
X127801485Y-54963050D01*
X127742356Y-54933365D01*
X127682802Y-54897933D01*
X127620970Y-54855900D01*
X127555005Y-54806412D01*
X127483052Y-54748615D01*
X127474002Y-54741142D01*
X127445567Y-54717284D01*
X127413499Y-54689842D01*
X127379465Y-54660298D01*
X127345131Y-54630131D01*
X127312165Y-54600822D01*
X127282235Y-54573851D01*
X127257006Y-54550699D01*
X127238147Y-54532846D01*
X127228819Y-54523430D01*
X127215119Y-54510864D01*
X127206467Y-54507739D01*
X127203789Y-54513336D01*
X126201464Y-54513336D01*
X126232321Y-54463329D01*
X126312696Y-54342065D01*
X126400186Y-54218323D01*
X126452034Y-54148108D01*
X126492607Y-54094473D01*
X126529119Y-54047626D01*
X126563537Y-54005312D01*
X126597827Y-53965274D01*
X126633958Y-53925258D01*
X126673895Y-53883007D01*
X126719607Y-53836266D01*
X126754902Y-53800859D01*
X126822873Y-53734325D01*
X126885044Y-53676377D01*
X126943007Y-53625793D01*
X126998354Y-53581347D01*
X127052676Y-53541818D01*
X127107564Y-53505981D01*
X127164611Y-53472613D01*
X127220222Y-53443116D01*
X127305440Y-53402823D01*
X127396850Y-53365090D01*
X127491224Y-53331018D01*
X127585331Y-53301706D01*
X127675940Y-53278254D01*
X127746554Y-53263961D01*
X127779766Y-53258369D01*
X127801526Y-53255643D01*
X127812497Y-53256618D01*
X127813342Y-53262126D01*
X127804722Y-53273000D01*
X127787300Y-53290076D01*
X127775860Y-53300856D01*
X127746118Y-53330000D01*
X127711074Y-53366214D01*
X127673054Y-53406940D01*
X127634383Y-53449623D01*
X127597385Y-53491704D01*
X127564388Y-53530626D01*
X127543613Y-53556269D01*
X127506313Y-53606079D01*
X127465873Y-53664482D01*
X127423972Y-53728770D01*
X127382290Y-53796237D01*
X127342504Y-53864177D01*
X127306295Y-53929885D01*
X127279725Y-53981669D01*
X127265237Y-54011870D01*
X127255669Y-54034328D01*
X127250050Y-54052081D01*
X127247410Y-54068163D01*
X127246777Y-54084727D01*
X127249110Y-54113360D01*
X127255365Y-54143651D01*
X127264424Y-54172046D01*
X127275171Y-54194991D01*
X127285585Y-54208228D01*
X127305297Y-54221606D01*
X127335541Y-54238355D01*
X127375174Y-54258029D01*
X127423053Y-54280182D01*
X127478037Y-54304368D01*
X127538982Y-54330140D01*
X127604747Y-54357052D01*
X127674188Y-54384658D01*
X127746164Y-54412511D01*
X127819531Y-54440166D01*
X127893148Y-54467177D01*
X127965871Y-54493097D01*
X128036559Y-54517479D01*
X128104069Y-54539878D01*
X128167258Y-54559848D01*
X128224984Y-54576941D01*
X128241344Y-54581519D01*
X128318845Y-54601956D01*
X128391183Y-54618918D01*
X128460376Y-54632605D01*
X128528443Y-54643219D01*
X128597404Y-54650963D01*
X128669278Y-54656037D01*
X128746084Y-54658643D01*
X128829841Y-54658983D01*
X128922570Y-54657259D01*
X128981073Y-54655400D01*
X129058850Y-54652573D01*
X129125130Y-54650046D01*
X129180695Y-54647777D01*
X129226326Y-54645723D01*
X129262805Y-54643844D01*
X129290911Y-54642097D01*
X129311427Y-54640440D01*
X129325134Y-54638833D01*
X129332813Y-54637232D01*
X129334512Y-54636502D01*
X129335415Y-54630419D01*
X129333876Y-54614518D01*
X129329829Y-54588425D01*
X129323208Y-54551766D01*
X129313947Y-54504166D01*
X129301978Y-54445252D01*
X129291799Y-54396350D01*
X129280756Y-54343817D01*
X129270390Y-54294730D01*
X129260995Y-54250463D01*
X129252866Y-54212392D01*
X129246296Y-54181892D01*
X129241580Y-54160339D01*
X129239010Y-54149107D01*
X129238748Y-54148108D01*
X129239338Y-54144471D01*
X129245292Y-54147382D01*
X129256991Y-54157223D01*
X129274820Y-54174376D01*
X129299162Y-54199225D01*
X129330401Y-54232150D01*
X129368918Y-54273536D01*
X129415099Y-54323765D01*
X129418943Y-54327966D01*
X129467869Y-54380855D01*
X129510437Y-54425359D01*
X129548030Y-54462629D01*
X129582031Y-54493815D01*
X129613826Y-54520066D01*
X129644798Y-54542534D01*
X129676331Y-54562367D01*
X129709809Y-54580716D01*
X129742422Y-54596759D01*
X129825253Y-54629309D01*
X129910121Y-54650035D01*
X129996136Y-54659038D01*
X130082409Y-54656423D01*
X130168049Y-54642292D01*
X130252167Y-54616750D01*
X130333873Y-54579898D01*
X130412276Y-54531841D01*
X130433269Y-54516577D01*
X130458882Y-54496169D01*
X130485966Y-54472213D01*
X130515953Y-54443312D01*
X130550278Y-54408067D01*
X130590374Y-54365080D01*
X130604846Y-54349255D01*
X130649326Y-54300743D01*
X130689191Y-54257916D01*
X130723914Y-54221307D01*
X130752971Y-54191450D01*
X130775836Y-54168878D01*
X130791985Y-54154126D01*
X130800893Y-54147727D01*
X130802552Y-54148272D01*
X130801328Y-54155412D01*
X130797830Y-54173247D01*
X130792329Y-54200454D01*
X130785096Y-54235715D01*
X130776403Y-54277707D01*
X130766520Y-54325109D01*
X130755720Y-54376600D01*
X130752426Y-54392248D01*
X130741531Y-54444597D01*
X130731679Y-54493190D01*
X130723114Y-54536717D01*
X130716084Y-54573869D01*
X130710833Y-54603336D01*
X130707609Y-54623809D01*
X130706656Y-54633979D01*
X130706851Y-54634825D01*
X130711722Y-54636762D01*
X130722886Y-54638660D01*
X130741069Y-54640559D01*
X130766999Y-54642502D01*
X130801403Y-54644532D01*
X130845009Y-54646689D01*
X130898544Y-54649016D01*
X130962736Y-54651555D01*
X131038311Y-54654347D01*
X131057392Y-54655030D01*
X131156654Y-54657832D01*
X131247605Y-54658643D01*
X131331932Y-54657179D01*
X131411323Y-54653158D01*
X131487464Y-54646295D01*
X131562042Y-54636306D01*
X131636744Y-54622908D01*
X131713258Y-54605818D01*
X131793271Y-54584750D01*
X131878469Y-54559423D01*
X131970539Y-54529552D01*
X132071170Y-54494853D01*
X132125960Y-54475340D01*
X132213966Y-54443283D01*
X132298286Y-54411702D01*
X132378129Y-54380937D01*
X132452700Y-54351326D01*
X132521204Y-54323208D01*
X132582848Y-54296922D01*
X132636839Y-54272806D01*
X132682382Y-54251199D01*
X132718684Y-54232441D01*
X132744950Y-54216869D01*
X132760387Y-54204824D01*
X132760761Y-54204428D01*
X132770890Y-54188480D01*
X132780953Y-54164316D01*
X132789717Y-54135946D01*
X132795950Y-54107382D01*
X132798418Y-54082634D01*
X132798422Y-54081886D01*
X132794931Y-54059077D01*
X132784402Y-54027639D01*
X132766744Y-53987398D01*
X132741870Y-53938179D01*
X132709691Y-53879805D01*
X132670118Y-53812100D01*
X132624985Y-53737994D01*
X132562837Y-53643502D01*
X132495006Y-53552094D01*
X132419814Y-53461694D01*
X132335582Y-53370226D01*
X132289877Y-53323768D01*
X132267015Y-53300520D01*
X132248319Y-53280601D01*
X132235054Y-53265435D01*
X132228484Y-53256446D01*
X132228465Y-53254588D01*
X132253757Y-53256576D01*
G37*
D14*
%TO.C,J4*%
X144547000Y-76123600D02*
X144547000Y-103911600D01*
X137333000Y-76123600D02*
X144547000Y-76123600D01*
X144547000Y-103911600D02*
X137333000Y-103911600D01*
X137333000Y-103911600D02*
X137333000Y-76123600D01*
D13*
X135898480Y-79583280D02*
G75*
G03*
X135898480Y-79583280I-100000J0D01*
G01*
D14*
%TO.C,J1*%
X98857000Y-47167600D02*
X98857000Y-74955600D01*
X91643000Y-47167600D02*
X98857000Y-47167600D01*
X98857000Y-74955600D02*
X91643000Y-74955600D01*
X91643000Y-74955600D02*
X91643000Y-47167600D01*
D13*
X90208480Y-50627280D02*
G75*
G03*
X90208480Y-50627280I-100000J0D01*
G01*
%TD*%
M02*
