%TF.GenerationSoftware,KiCad,Pcbnew,7.0.7*%
%TF.CreationDate,2023-09-12T23:40:55-05:00*%
%TF.ProjectId,Temps_South,54656d70-735f-4536-9f75-74682e6b6963,B*%
%TF.SameCoordinates,Original*%
%TF.FileFunction,Legend,Top*%
%TF.FilePolarity,Positive*%
%FSLAX46Y46*%
G04 Gerber Fmt 4.6, Leading zero omitted, Abs format (unit mm)*
G04 Created by KiCad (PCBNEW 7.0.7) date 2023-09-12 23:40:55*
%MOMM*%
%LPD*%
G01*
G04 APERTURE LIST*
%ADD10C,0.254000*%
%ADD11C,0.400000*%
%ADD12C,0.300000*%
%ADD13C,0.150000*%
%ADD14C,0.127000*%
%ADD15C,0.200000*%
G04 APERTURE END LIST*
D10*
X138861800Y-50900000D02*
G75*
G03*
X138861800Y-50900000I-25400J0D01*
G01*
X92670001Y-50830000D02*
G75*
G03*
X92670001Y-50830000I-1J0D01*
G01*
X92680001Y-80020000D02*
G75*
G03*
X92680001Y-80020000I-1J0D01*
G01*
X138861800Y-79832200D02*
G75*
G03*
X138861800Y-79832200I-25400J0D01*
G01*
D11*
X131668147Y-86514980D02*
X131668147Y-85086409D01*
X134168147Y-85800695D02*
X131668147Y-85800695D01*
X134168147Y-83895933D02*
X134049100Y-84134028D01*
X134049100Y-84134028D02*
X133930052Y-84253075D01*
X133930052Y-84253075D02*
X133691957Y-84372123D01*
X133691957Y-84372123D02*
X132977671Y-84372123D01*
X132977671Y-84372123D02*
X132739576Y-84253075D01*
X132739576Y-84253075D02*
X132620528Y-84134028D01*
X132620528Y-84134028D02*
X132501480Y-83895933D01*
X132501480Y-83895933D02*
X132501480Y-83538790D01*
X132501480Y-83538790D02*
X132620528Y-83300694D01*
X132620528Y-83300694D02*
X132739576Y-83181647D01*
X132739576Y-83181647D02*
X132977671Y-83062599D01*
X132977671Y-83062599D02*
X133691957Y-83062599D01*
X133691957Y-83062599D02*
X133930052Y-83181647D01*
X133930052Y-83181647D02*
X134049100Y-83300694D01*
X134049100Y-83300694D02*
X134168147Y-83538790D01*
X134168147Y-83538790D02*
X134168147Y-83895933D01*
X134168147Y-80086408D02*
X131668147Y-80086408D01*
X131668147Y-80086408D02*
X131668147Y-79491170D01*
X131668147Y-79491170D02*
X131787195Y-79134027D01*
X131787195Y-79134027D02*
X132025290Y-78895932D01*
X132025290Y-78895932D02*
X132263385Y-78776885D01*
X132263385Y-78776885D02*
X132739576Y-78657837D01*
X132739576Y-78657837D02*
X133096719Y-78657837D01*
X133096719Y-78657837D02*
X133572909Y-78776885D01*
X133572909Y-78776885D02*
X133811004Y-78895932D01*
X133811004Y-78895932D02*
X134049100Y-79134027D01*
X134049100Y-79134027D02*
X134168147Y-79491170D01*
X134168147Y-79491170D02*
X134168147Y-80086408D01*
X133930052Y-76157837D02*
X134049100Y-76276885D01*
X134049100Y-76276885D02*
X134168147Y-76634027D01*
X134168147Y-76634027D02*
X134168147Y-76872123D01*
X134168147Y-76872123D02*
X134049100Y-77229266D01*
X134049100Y-77229266D02*
X133811004Y-77467361D01*
X133811004Y-77467361D02*
X133572909Y-77586408D01*
X133572909Y-77586408D02*
X133096719Y-77705456D01*
X133096719Y-77705456D02*
X132739576Y-77705456D01*
X132739576Y-77705456D02*
X132263385Y-77586408D01*
X132263385Y-77586408D02*
X132025290Y-77467361D01*
X132025290Y-77467361D02*
X131787195Y-77229266D01*
X131787195Y-77229266D02*
X131668147Y-76872123D01*
X131668147Y-76872123D02*
X131668147Y-76634027D01*
X131668147Y-76634027D02*
X131787195Y-76276885D01*
X131787195Y-76276885D02*
X131906242Y-76157837D01*
X131668147Y-75443551D02*
X131668147Y-74014980D01*
X134168147Y-74729266D02*
X131668147Y-74729266D01*
X134168147Y-71276884D02*
X131668147Y-71276884D01*
X132858623Y-71276884D02*
X132858623Y-69848313D01*
X134168147Y-69848313D02*
X131668147Y-69848313D01*
X134049100Y-68776884D02*
X134168147Y-68419741D01*
X134168147Y-68419741D02*
X134168147Y-67824503D01*
X134168147Y-67824503D02*
X134049100Y-67586408D01*
X134049100Y-67586408D02*
X133930052Y-67467360D01*
X133930052Y-67467360D02*
X133691957Y-67348313D01*
X133691957Y-67348313D02*
X133453861Y-67348313D01*
X133453861Y-67348313D02*
X133215766Y-67467360D01*
X133215766Y-67467360D02*
X133096719Y-67586408D01*
X133096719Y-67586408D02*
X132977671Y-67824503D01*
X132977671Y-67824503D02*
X132858623Y-68300694D01*
X132858623Y-68300694D02*
X132739576Y-68538789D01*
X132739576Y-68538789D02*
X132620528Y-68657836D01*
X132620528Y-68657836D02*
X132382433Y-68776884D01*
X132382433Y-68776884D02*
X132144338Y-68776884D01*
X132144338Y-68776884D02*
X131906242Y-68657836D01*
X131906242Y-68657836D02*
X131787195Y-68538789D01*
X131787195Y-68538789D02*
X131668147Y-68300694D01*
X131668147Y-68300694D02*
X131668147Y-67705455D01*
X131668147Y-67705455D02*
X131787195Y-67348313D01*
X134168147Y-66276884D02*
X131668147Y-66276884D01*
X134168147Y-64848313D02*
X132739576Y-65919742D01*
X131668147Y-64848313D02*
X133096719Y-66276884D01*
D12*
X100789300Y-92481885D02*
X100860728Y-92267600D01*
X100860728Y-92267600D02*
X100860728Y-91910457D01*
X100860728Y-91910457D02*
X100789300Y-91767600D01*
X100789300Y-91767600D02*
X100717871Y-91696171D01*
X100717871Y-91696171D02*
X100575014Y-91624742D01*
X100575014Y-91624742D02*
X100432157Y-91624742D01*
X100432157Y-91624742D02*
X100289300Y-91696171D01*
X100289300Y-91696171D02*
X100217871Y-91767600D01*
X100217871Y-91767600D02*
X100146442Y-91910457D01*
X100146442Y-91910457D02*
X100075014Y-92196171D01*
X100075014Y-92196171D02*
X100003585Y-92339028D01*
X100003585Y-92339028D02*
X99932157Y-92410457D01*
X99932157Y-92410457D02*
X99789300Y-92481885D01*
X99789300Y-92481885D02*
X99646442Y-92481885D01*
X99646442Y-92481885D02*
X99503585Y-92410457D01*
X99503585Y-92410457D02*
X99432157Y-92339028D01*
X99432157Y-92339028D02*
X99360728Y-92196171D01*
X99360728Y-92196171D02*
X99360728Y-91839028D01*
X99360728Y-91839028D02*
X99432157Y-91624742D01*
X99360728Y-91196171D02*
X99360728Y-90339029D01*
X100860728Y-90767600D02*
X99360728Y-90767600D01*
X100075014Y-89339029D02*
X100146442Y-89124743D01*
X100146442Y-89124743D02*
X100217871Y-89053314D01*
X100217871Y-89053314D02*
X100360728Y-88981886D01*
X100360728Y-88981886D02*
X100575014Y-88981886D01*
X100575014Y-88981886D02*
X100717871Y-89053314D01*
X100717871Y-89053314D02*
X100789300Y-89124743D01*
X100789300Y-89124743D02*
X100860728Y-89267600D01*
X100860728Y-89267600D02*
X100860728Y-89839029D01*
X100860728Y-89839029D02*
X99360728Y-89839029D01*
X99360728Y-89839029D02*
X99360728Y-89339029D01*
X99360728Y-89339029D02*
X99432157Y-89196172D01*
X99432157Y-89196172D02*
X99503585Y-89124743D01*
X99503585Y-89124743D02*
X99646442Y-89053314D01*
X99646442Y-89053314D02*
X99789300Y-89053314D01*
X99789300Y-89053314D02*
X99932157Y-89124743D01*
X99932157Y-89124743D02*
X100003585Y-89196172D01*
X100003585Y-89196172D02*
X100075014Y-89339029D01*
X100075014Y-89339029D02*
X100075014Y-89839029D01*
X99503585Y-88410457D02*
X99432157Y-88339029D01*
X99432157Y-88339029D02*
X99360728Y-88196172D01*
X99360728Y-88196172D02*
X99360728Y-87839029D01*
X99360728Y-87839029D02*
X99432157Y-87696172D01*
X99432157Y-87696172D02*
X99503585Y-87624743D01*
X99503585Y-87624743D02*
X99646442Y-87553314D01*
X99646442Y-87553314D02*
X99789300Y-87553314D01*
X99789300Y-87553314D02*
X100003585Y-87624743D01*
X100003585Y-87624743D02*
X100860728Y-88481886D01*
X100860728Y-88481886D02*
X100860728Y-87553314D01*
X136831300Y-92123313D02*
X136893204Y-91937599D01*
X136893204Y-91937599D02*
X136893204Y-91628075D01*
X136893204Y-91628075D02*
X136831300Y-91504266D01*
X136831300Y-91504266D02*
X136769395Y-91442361D01*
X136769395Y-91442361D02*
X136645585Y-91380456D01*
X136645585Y-91380456D02*
X136521776Y-91380456D01*
X136521776Y-91380456D02*
X136397966Y-91442361D01*
X136397966Y-91442361D02*
X136336061Y-91504266D01*
X136336061Y-91504266D02*
X136274157Y-91628075D01*
X136274157Y-91628075D02*
X136212252Y-91875694D01*
X136212252Y-91875694D02*
X136150347Y-91999504D01*
X136150347Y-91999504D02*
X136088442Y-92061409D01*
X136088442Y-92061409D02*
X135964633Y-92123313D01*
X135964633Y-92123313D02*
X135840823Y-92123313D01*
X135840823Y-92123313D02*
X135717014Y-92061409D01*
X135717014Y-92061409D02*
X135655109Y-91999504D01*
X135655109Y-91999504D02*
X135593204Y-91875694D01*
X135593204Y-91875694D02*
X135593204Y-91566171D01*
X135593204Y-91566171D02*
X135655109Y-91380456D01*
X135593204Y-91009028D02*
X135593204Y-90266171D01*
X136893204Y-90637599D02*
X135593204Y-90637599D01*
X136212252Y-89399504D02*
X136274157Y-89213790D01*
X136274157Y-89213790D02*
X136336061Y-89151885D01*
X136336061Y-89151885D02*
X136459871Y-89089981D01*
X136459871Y-89089981D02*
X136645585Y-89089981D01*
X136645585Y-89089981D02*
X136769395Y-89151885D01*
X136769395Y-89151885D02*
X136831300Y-89213790D01*
X136831300Y-89213790D02*
X136893204Y-89337600D01*
X136893204Y-89337600D02*
X136893204Y-89832838D01*
X136893204Y-89832838D02*
X135593204Y-89832838D01*
X135593204Y-89832838D02*
X135593204Y-89399504D01*
X135593204Y-89399504D02*
X135655109Y-89275695D01*
X135655109Y-89275695D02*
X135717014Y-89213790D01*
X135717014Y-89213790D02*
X135840823Y-89151885D01*
X135840823Y-89151885D02*
X135964633Y-89151885D01*
X135964633Y-89151885D02*
X136088442Y-89213790D01*
X136088442Y-89213790D02*
X136150347Y-89275695D01*
X136150347Y-89275695D02*
X136212252Y-89399504D01*
X136212252Y-89399504D02*
X136212252Y-89832838D01*
X135717014Y-88594742D02*
X135655109Y-88532838D01*
X135655109Y-88532838D02*
X135593204Y-88409028D01*
X135593204Y-88409028D02*
X135593204Y-88099504D01*
X135593204Y-88099504D02*
X135655109Y-87975695D01*
X135655109Y-87975695D02*
X135717014Y-87913790D01*
X135717014Y-87913790D02*
X135840823Y-87851885D01*
X135840823Y-87851885D02*
X135964633Y-87851885D01*
X135964633Y-87851885D02*
X136150347Y-87913790D01*
X136150347Y-87913790D02*
X136893204Y-88656647D01*
X136893204Y-88656647D02*
X136893204Y-87851885D01*
D11*
X102683623Y-83381647D02*
X102683623Y-84214980D01*
X103993147Y-84214980D02*
X101493147Y-84214980D01*
X101493147Y-84214980D02*
X101493147Y-83024504D01*
X103993147Y-82072123D02*
X102326480Y-82072123D01*
X102802671Y-82072123D02*
X102564576Y-81953076D01*
X102564576Y-81953076D02*
X102445528Y-81834028D01*
X102445528Y-81834028D02*
X102326480Y-81595933D01*
X102326480Y-81595933D02*
X102326480Y-81357838D01*
X103993147Y-80167362D02*
X103874100Y-80405457D01*
X103874100Y-80405457D02*
X103755052Y-80524504D01*
X103755052Y-80524504D02*
X103516957Y-80643552D01*
X103516957Y-80643552D02*
X102802671Y-80643552D01*
X102802671Y-80643552D02*
X102564576Y-80524504D01*
X102564576Y-80524504D02*
X102445528Y-80405457D01*
X102445528Y-80405457D02*
X102326480Y-80167362D01*
X102326480Y-80167362D02*
X102326480Y-79810219D01*
X102326480Y-79810219D02*
X102445528Y-79572123D01*
X102445528Y-79572123D02*
X102564576Y-79453076D01*
X102564576Y-79453076D02*
X102802671Y-79334028D01*
X102802671Y-79334028D02*
X103516957Y-79334028D01*
X103516957Y-79334028D02*
X103755052Y-79453076D01*
X103755052Y-79453076D02*
X103874100Y-79572123D01*
X103874100Y-79572123D02*
X103993147Y-79810219D01*
X103993147Y-79810219D02*
X103993147Y-80167362D01*
X103993147Y-78262599D02*
X102326480Y-78262599D01*
X102564576Y-78262599D02*
X102445528Y-78143552D01*
X102445528Y-78143552D02*
X102326480Y-77905457D01*
X102326480Y-77905457D02*
X102326480Y-77548314D01*
X102326480Y-77548314D02*
X102445528Y-77310218D01*
X102445528Y-77310218D02*
X102683623Y-77191171D01*
X102683623Y-77191171D02*
X103993147Y-77191171D01*
X102683623Y-77191171D02*
X102445528Y-77072123D01*
X102445528Y-77072123D02*
X102326480Y-76834028D01*
X102326480Y-76834028D02*
X102326480Y-76476885D01*
X102326480Y-76476885D02*
X102445528Y-76238790D01*
X102445528Y-76238790D02*
X102683623Y-76119742D01*
X102683623Y-76119742D02*
X103993147Y-76119742D01*
X103993147Y-73024504D02*
X101493147Y-73024504D01*
X101493147Y-73024504D02*
X101493147Y-72429266D01*
X101493147Y-72429266D02*
X101612195Y-72072123D01*
X101612195Y-72072123D02*
X101850290Y-71834028D01*
X101850290Y-71834028D02*
X102088385Y-71714981D01*
X102088385Y-71714981D02*
X102564576Y-71595933D01*
X102564576Y-71595933D02*
X102921719Y-71595933D01*
X102921719Y-71595933D02*
X103397909Y-71714981D01*
X103397909Y-71714981D02*
X103636004Y-71834028D01*
X103636004Y-71834028D02*
X103874100Y-72072123D01*
X103874100Y-72072123D02*
X103993147Y-72429266D01*
X103993147Y-72429266D02*
X103993147Y-73024504D01*
X103755052Y-69095933D02*
X103874100Y-69214981D01*
X103874100Y-69214981D02*
X103993147Y-69572123D01*
X103993147Y-69572123D02*
X103993147Y-69810219D01*
X103993147Y-69810219D02*
X103874100Y-70167362D01*
X103874100Y-70167362D02*
X103636004Y-70405457D01*
X103636004Y-70405457D02*
X103397909Y-70524504D01*
X103397909Y-70524504D02*
X102921719Y-70643552D01*
X102921719Y-70643552D02*
X102564576Y-70643552D01*
X102564576Y-70643552D02*
X102088385Y-70524504D01*
X102088385Y-70524504D02*
X101850290Y-70405457D01*
X101850290Y-70405457D02*
X101612195Y-70167362D01*
X101612195Y-70167362D02*
X101493147Y-69810219D01*
X101493147Y-69810219D02*
X101493147Y-69572123D01*
X101493147Y-69572123D02*
X101612195Y-69214981D01*
X101612195Y-69214981D02*
X101731242Y-69095933D01*
X101493147Y-68381647D02*
X101493147Y-66953076D01*
X103993147Y-67667362D02*
X101493147Y-67667362D01*
D12*
X136914300Y-63576685D02*
X136985728Y-63362400D01*
X136985728Y-63362400D02*
X136985728Y-63005257D01*
X136985728Y-63005257D02*
X136914300Y-62862400D01*
X136914300Y-62862400D02*
X136842871Y-62790971D01*
X136842871Y-62790971D02*
X136700014Y-62719542D01*
X136700014Y-62719542D02*
X136557157Y-62719542D01*
X136557157Y-62719542D02*
X136414300Y-62790971D01*
X136414300Y-62790971D02*
X136342871Y-62862400D01*
X136342871Y-62862400D02*
X136271442Y-63005257D01*
X136271442Y-63005257D02*
X136200014Y-63290971D01*
X136200014Y-63290971D02*
X136128585Y-63433828D01*
X136128585Y-63433828D02*
X136057157Y-63505257D01*
X136057157Y-63505257D02*
X135914300Y-63576685D01*
X135914300Y-63576685D02*
X135771442Y-63576685D01*
X135771442Y-63576685D02*
X135628585Y-63505257D01*
X135628585Y-63505257D02*
X135557157Y-63433828D01*
X135557157Y-63433828D02*
X135485728Y-63290971D01*
X135485728Y-63290971D02*
X135485728Y-62933828D01*
X135485728Y-62933828D02*
X135557157Y-62719542D01*
X135485728Y-62290971D02*
X135485728Y-61433829D01*
X136985728Y-61862400D02*
X135485728Y-61862400D01*
X136200014Y-60433829D02*
X136271442Y-60219543D01*
X136271442Y-60219543D02*
X136342871Y-60148114D01*
X136342871Y-60148114D02*
X136485728Y-60076686D01*
X136485728Y-60076686D02*
X136700014Y-60076686D01*
X136700014Y-60076686D02*
X136842871Y-60148114D01*
X136842871Y-60148114D02*
X136914300Y-60219543D01*
X136914300Y-60219543D02*
X136985728Y-60362400D01*
X136985728Y-60362400D02*
X136985728Y-60933829D01*
X136985728Y-60933829D02*
X135485728Y-60933829D01*
X135485728Y-60933829D02*
X135485728Y-60433829D01*
X135485728Y-60433829D02*
X135557157Y-60290972D01*
X135557157Y-60290972D02*
X135628585Y-60219543D01*
X135628585Y-60219543D02*
X135771442Y-60148114D01*
X135771442Y-60148114D02*
X135914300Y-60148114D01*
X135914300Y-60148114D02*
X136057157Y-60219543D01*
X136057157Y-60219543D02*
X136128585Y-60290972D01*
X136128585Y-60290972D02*
X136200014Y-60433829D01*
X136200014Y-60433829D02*
X136200014Y-60933829D01*
X136985728Y-58648114D02*
X136985728Y-59505257D01*
X136985728Y-59076686D02*
X135485728Y-59076686D01*
X135485728Y-59076686D02*
X135700014Y-59219543D01*
X135700014Y-59219543D02*
X135842871Y-59362400D01*
X135842871Y-59362400D02*
X135914300Y-59505257D01*
X100789300Y-63525885D02*
X100860728Y-63311600D01*
X100860728Y-63311600D02*
X100860728Y-62954457D01*
X100860728Y-62954457D02*
X100789300Y-62811600D01*
X100789300Y-62811600D02*
X100717871Y-62740171D01*
X100717871Y-62740171D02*
X100575014Y-62668742D01*
X100575014Y-62668742D02*
X100432157Y-62668742D01*
X100432157Y-62668742D02*
X100289300Y-62740171D01*
X100289300Y-62740171D02*
X100217871Y-62811600D01*
X100217871Y-62811600D02*
X100146442Y-62954457D01*
X100146442Y-62954457D02*
X100075014Y-63240171D01*
X100075014Y-63240171D02*
X100003585Y-63383028D01*
X100003585Y-63383028D02*
X99932157Y-63454457D01*
X99932157Y-63454457D02*
X99789300Y-63525885D01*
X99789300Y-63525885D02*
X99646442Y-63525885D01*
X99646442Y-63525885D02*
X99503585Y-63454457D01*
X99503585Y-63454457D02*
X99432157Y-63383028D01*
X99432157Y-63383028D02*
X99360728Y-63240171D01*
X99360728Y-63240171D02*
X99360728Y-62883028D01*
X99360728Y-62883028D02*
X99432157Y-62668742D01*
X99360728Y-62240171D02*
X99360728Y-61383029D01*
X100860728Y-61811600D02*
X99360728Y-61811600D01*
X100075014Y-60383029D02*
X100146442Y-60168743D01*
X100146442Y-60168743D02*
X100217871Y-60097314D01*
X100217871Y-60097314D02*
X100360728Y-60025886D01*
X100360728Y-60025886D02*
X100575014Y-60025886D01*
X100575014Y-60025886D02*
X100717871Y-60097314D01*
X100717871Y-60097314D02*
X100789300Y-60168743D01*
X100789300Y-60168743D02*
X100860728Y-60311600D01*
X100860728Y-60311600D02*
X100860728Y-60883029D01*
X100860728Y-60883029D02*
X99360728Y-60883029D01*
X99360728Y-60883029D02*
X99360728Y-60383029D01*
X99360728Y-60383029D02*
X99432157Y-60240172D01*
X99432157Y-60240172D02*
X99503585Y-60168743D01*
X99503585Y-60168743D02*
X99646442Y-60097314D01*
X99646442Y-60097314D02*
X99789300Y-60097314D01*
X99789300Y-60097314D02*
X99932157Y-60168743D01*
X99932157Y-60168743D02*
X100003585Y-60240172D01*
X100003585Y-60240172D02*
X100075014Y-60383029D01*
X100075014Y-60383029D02*
X100075014Y-60883029D01*
X100860728Y-58597314D02*
X100860728Y-59454457D01*
X100860728Y-59025886D02*
X99360728Y-59025886D01*
X99360728Y-59025886D02*
X99575014Y-59168743D01*
X99575014Y-59168743D02*
X99717871Y-59311600D01*
X99717871Y-59311600D02*
X99789300Y-59454457D01*
D13*
X99149819Y-103406533D02*
X99864104Y-103406533D01*
X99864104Y-103406533D02*
X100006961Y-103454152D01*
X100006961Y-103454152D02*
X100102200Y-103549390D01*
X100102200Y-103549390D02*
X100149819Y-103692247D01*
X100149819Y-103692247D02*
X100149819Y-103787485D01*
X99245057Y-102977961D02*
X99197438Y-102930342D01*
X99197438Y-102930342D02*
X99149819Y-102835104D01*
X99149819Y-102835104D02*
X99149819Y-102597009D01*
X99149819Y-102597009D02*
X99197438Y-102501771D01*
X99197438Y-102501771D02*
X99245057Y-102454152D01*
X99245057Y-102454152D02*
X99340295Y-102406533D01*
X99340295Y-102406533D02*
X99435533Y-102406533D01*
X99435533Y-102406533D02*
X99578390Y-102454152D01*
X99578390Y-102454152D02*
X100149819Y-103025580D01*
X100149819Y-103025580D02*
X100149819Y-102406533D01*
X135751219Y-48644133D02*
X136465504Y-48644133D01*
X136465504Y-48644133D02*
X136608361Y-48691752D01*
X136608361Y-48691752D02*
X136703600Y-48786990D01*
X136703600Y-48786990D02*
X136751219Y-48929847D01*
X136751219Y-48929847D02*
X136751219Y-49025085D01*
X135751219Y-48263180D02*
X135751219Y-47644133D01*
X135751219Y-47644133D02*
X136132171Y-47977466D01*
X136132171Y-47977466D02*
X136132171Y-47834609D01*
X136132171Y-47834609D02*
X136179790Y-47739371D01*
X136179790Y-47739371D02*
X136227409Y-47691752D01*
X136227409Y-47691752D02*
X136322647Y-47644133D01*
X136322647Y-47644133D02*
X136560742Y-47644133D01*
X136560742Y-47644133D02*
X136655980Y-47691752D01*
X136655980Y-47691752D02*
X136703600Y-47739371D01*
X136703600Y-47739371D02*
X136751219Y-47834609D01*
X136751219Y-47834609D02*
X136751219Y-48120323D01*
X136751219Y-48120323D02*
X136703600Y-48215561D01*
X136703600Y-48215561D02*
X136655980Y-48263180D01*
X135497219Y-77574733D02*
X136211504Y-77574733D01*
X136211504Y-77574733D02*
X136354361Y-77622352D01*
X136354361Y-77622352D02*
X136449600Y-77717590D01*
X136449600Y-77717590D02*
X136497219Y-77860447D01*
X136497219Y-77860447D02*
X136497219Y-77955685D01*
X135830552Y-76669971D02*
X136497219Y-76669971D01*
X135449600Y-76908066D02*
X136163885Y-77146161D01*
X136163885Y-77146161D02*
X136163885Y-76527114D01*
X99175219Y-74450533D02*
X99889504Y-74450533D01*
X99889504Y-74450533D02*
X100032361Y-74498152D01*
X100032361Y-74498152D02*
X100127600Y-74593390D01*
X100127600Y-74593390D02*
X100175219Y-74736247D01*
X100175219Y-74736247D02*
X100175219Y-74831485D01*
X100175219Y-73450533D02*
X100175219Y-74021961D01*
X100175219Y-73736247D02*
X99175219Y-73736247D01*
X99175219Y-73736247D02*
X99318076Y-73831485D01*
X99318076Y-73831485D02*
X99413314Y-73926723D01*
X99413314Y-73926723D02*
X99460933Y-74021961D01*
D14*
%TO.C,J2*%
X98831600Y-76123600D02*
X98831600Y-103911600D01*
X91617600Y-76123600D02*
X98831600Y-76123600D01*
X98831600Y-103911600D02*
X91617600Y-103911600D01*
X91617600Y-103911600D02*
X91617600Y-76123600D01*
D15*
X90183080Y-79583280D02*
G75*
G03*
X90183080Y-79583280I-100000J0D01*
G01*
%TO.C,G\u002A\u002A\u002A*%
G36*
X134454116Y-54485059D02*
G01*
X134539773Y-54535682D01*
X134610387Y-54579643D01*
X134657241Y-54611382D01*
X134671496Y-54623740D01*
X134673152Y-54658385D01*
X134657482Y-54707525D01*
X134632773Y-54752462D01*
X134607312Y-54774498D01*
X134604583Y-54774715D01*
X134576090Y-54763362D01*
X134518630Y-54733361D01*
X134441213Y-54689598D01*
X134372728Y-54649025D01*
X134288609Y-54596017D01*
X134221083Y-54549248D01*
X134178056Y-54514463D01*
X134166585Y-54499152D01*
X134179575Y-54464673D01*
X134208260Y-54420492D01*
X134249439Y-54366933D01*
X134454116Y-54485059D01*
G37*
G36*
X133503592Y-55658099D02*
G01*
X133560495Y-55688589D01*
X133638001Y-55733572D01*
X133719905Y-55783485D01*
X133813731Y-55842538D01*
X133875056Y-55884003D01*
X133909593Y-55913438D01*
X133923057Y-55936401D01*
X133921163Y-55958453D01*
X133915116Y-55973371D01*
X133892285Y-56013096D01*
X133876740Y-56026646D01*
X133854982Y-56011884D01*
X133812159Y-55973374D01*
X133763044Y-55924987D01*
X133688379Y-55855789D01*
X133604662Y-55788322D01*
X133557337Y-55755112D01*
X133488600Y-55705951D01*
X133454512Y-55670044D01*
X133457101Y-55650084D01*
X133475822Y-55646874D01*
X133503592Y-55658099D01*
G37*
G36*
X133842329Y-55537326D02*
G01*
X133931101Y-55591325D01*
X134004201Y-55639699D01*
X134053645Y-55676899D01*
X134071380Y-55696494D01*
X134064548Y-55731453D01*
X134041247Y-55781541D01*
X134010769Y-55830844D01*
X133982405Y-55863450D01*
X133970946Y-55868488D01*
X133946006Y-55856685D01*
X133891766Y-55826121D01*
X133816796Y-55781742D01*
X133748334Y-55740036D01*
X133663084Y-55685565D01*
X133592691Y-55636960D01*
X133545657Y-55600315D01*
X133530682Y-55584024D01*
X133534559Y-55548252D01*
X133559238Y-55495727D01*
X133568827Y-55480705D01*
X133619097Y-55406726D01*
X133842329Y-55537326D01*
G37*
G36*
X126593914Y-55679159D02*
G01*
X126578696Y-55706702D01*
X126529490Y-55748409D01*
X126486888Y-55777452D01*
X126409692Y-55833662D01*
X126326535Y-55904001D01*
X126281182Y-55947327D01*
X126227915Y-55999876D01*
X126187279Y-56036600D01*
X126169273Y-56048985D01*
X126149197Y-56032444D01*
X126130506Y-56006628D01*
X126116527Y-55966871D01*
X126139806Y-55933069D01*
X126141887Y-55931232D01*
X126180103Y-55902741D01*
X126242307Y-55861328D01*
X126318664Y-55812979D01*
X126399340Y-55763678D01*
X126474500Y-55719411D01*
X126534310Y-55686163D01*
X126568937Y-55669918D01*
X126572431Y-55669214D01*
X126593914Y-55679159D01*
G37*
G36*
X134392301Y-54208064D02*
G01*
X134456318Y-54239107D01*
X134549066Y-54294040D01*
X134556334Y-54298519D01*
X134652489Y-54359378D01*
X134715293Y-54404244D01*
X134750394Y-54438929D01*
X134763438Y-54469244D01*
X134760073Y-54500999D01*
X134758425Y-54506488D01*
X134740452Y-54538082D01*
X134709243Y-54547960D01*
X134658861Y-54534797D01*
X134583368Y-54497263D01*
X134501180Y-54448966D01*
X134403015Y-54388324D01*
X134338083Y-54344780D01*
X134301049Y-54312881D01*
X134286577Y-54287174D01*
X134289329Y-54262206D01*
X134298730Y-54242093D01*
X134320897Y-54211176D01*
X134349624Y-54199294D01*
X134392301Y-54208064D01*
G37*
G36*
X125816374Y-54413259D02*
G01*
X125848216Y-54453334D01*
X125872492Y-54497918D01*
X125878137Y-54520949D01*
X125860249Y-54540585D01*
X125812850Y-54576290D01*
X125745336Y-54622165D01*
X125667103Y-54672316D01*
X125587548Y-54720846D01*
X125516067Y-54761860D01*
X125462056Y-54789460D01*
X125436653Y-54797974D01*
X125413478Y-54779890D01*
X125390254Y-54741074D01*
X125371092Y-54692753D01*
X125364329Y-54665087D01*
X125382062Y-54647095D01*
X125428942Y-54612647D01*
X125495488Y-54567740D01*
X125572222Y-54518373D01*
X125649663Y-54470544D01*
X125718332Y-54430253D01*
X125768749Y-54403496D01*
X125789800Y-54395863D01*
X125816374Y-54413259D01*
G37*
G36*
X133834261Y-55143774D02*
G01*
X133886529Y-55172119D01*
X133957573Y-55212432D01*
X134037721Y-55259042D01*
X134117301Y-55306282D01*
X134186643Y-55348481D01*
X134236073Y-55379970D01*
X134254487Y-55393357D01*
X134251405Y-55417293D01*
X134230511Y-55464172D01*
X134199576Y-55520311D01*
X134166370Y-55572024D01*
X134138667Y-55605626D01*
X134130938Y-55610904D01*
X134102685Y-55604032D01*
X134044811Y-55578050D01*
X133965838Y-55537117D01*
X133877241Y-55487122D01*
X133649046Y-55353554D01*
X133684172Y-55299159D01*
X133724498Y-55236720D01*
X133755377Y-55188915D01*
X133786871Y-55149030D01*
X133810440Y-55133066D01*
X133834261Y-55143774D01*
G37*
G36*
X134006062Y-54876130D02*
G01*
X134062720Y-54905614D01*
X134135570Y-54947555D01*
X134215142Y-54996062D01*
X134291963Y-55045244D01*
X134356562Y-55089210D01*
X134399469Y-55122070D01*
X134411822Y-55136636D01*
X134400844Y-55174779D01*
X134373930Y-55228074D01*
X134340110Y-55281889D01*
X134308414Y-55321589D01*
X134290426Y-55333352D01*
X134262512Y-55322251D01*
X134205238Y-55292769D01*
X134127476Y-55249646D01*
X134054391Y-55207278D01*
X133968357Y-55156364D01*
X133897813Y-55114395D01*
X133850847Y-55086198D01*
X133835521Y-55076675D01*
X133840539Y-55055374D01*
X133864307Y-55011491D01*
X133898355Y-54957871D01*
X133934214Y-54907363D01*
X133963415Y-54872815D01*
X133975067Y-54864992D01*
X134006062Y-54876130D01*
G37*
G36*
X126254553Y-55172963D02*
G01*
X126290507Y-55216341D01*
X126327961Y-55271599D01*
X126357473Y-55324796D01*
X126369604Y-55361993D01*
X126369606Y-55362260D01*
X126351683Y-55383015D01*
X126304117Y-55419708D01*
X126236211Y-55466388D01*
X126157272Y-55517100D01*
X126076603Y-55565892D01*
X126003510Y-55606810D01*
X125947295Y-55633901D01*
X125941483Y-55636183D01*
X125910673Y-55633105D01*
X125875573Y-55597041D01*
X125846540Y-55551625D01*
X125813388Y-55491190D01*
X125792497Y-55445676D01*
X125788779Y-55431873D01*
X125806623Y-55413046D01*
X125853902Y-55377968D01*
X125921242Y-55332518D01*
X125999268Y-55282577D01*
X126078603Y-55234026D01*
X126149874Y-55192746D01*
X126203703Y-55164617D01*
X126229536Y-55155406D01*
X126254553Y-55172963D01*
G37*
G36*
X126439970Y-55462838D02*
G01*
X126477823Y-55503115D01*
X126510791Y-55550478D01*
X126525924Y-55588756D01*
X126525982Y-55590436D01*
X126508404Y-55609610D01*
X126461669Y-55646047D01*
X126394777Y-55693770D01*
X126316731Y-55746799D01*
X126236529Y-55799156D01*
X126163173Y-55844862D01*
X126105663Y-55877939D01*
X126073000Y-55892407D01*
X126071086Y-55892609D01*
X126052120Y-55875830D01*
X126018767Y-55833417D01*
X126001492Y-55808836D01*
X125967842Y-55756361D01*
X125958390Y-55726553D01*
X125971046Y-55705948D01*
X125983932Y-55695694D01*
X126033065Y-55662047D01*
X126102606Y-55618080D01*
X126182684Y-55569578D01*
X126263429Y-55522327D01*
X126334971Y-55482114D01*
X126387440Y-55454724D01*
X126410181Y-55445819D01*
X126439970Y-55462838D01*
G37*
G36*
X134150032Y-54607464D02*
G01*
X134203748Y-54635401D01*
X134275258Y-54675179D01*
X134355090Y-54721246D01*
X134433772Y-54768052D01*
X134501832Y-54810047D01*
X134549797Y-54841679D01*
X134568196Y-54857397D01*
X134568199Y-54857465D01*
X134557073Y-54892872D01*
X134529998Y-54943679D01*
X134496430Y-54995077D01*
X134465824Y-55032253D01*
X134450463Y-55041890D01*
X134420083Y-55029964D01*
X134362317Y-54999644D01*
X134287495Y-54956492D01*
X134253267Y-54935754D01*
X134152248Y-54873502D01*
X134084137Y-54829031D01*
X134044105Y-54796199D01*
X134027326Y-54768860D01*
X134028972Y-54740874D01*
X134044216Y-54706097D01*
X134055506Y-54684090D01*
X134087527Y-54630971D01*
X134115665Y-54600090D01*
X134123583Y-54596918D01*
X134150032Y-54607464D01*
G37*
G36*
X126081004Y-54887002D02*
G01*
X126111490Y-54923437D01*
X126131785Y-54953436D01*
X126166926Y-55012700D01*
X126188095Y-55060290D01*
X126190890Y-55073986D01*
X126172955Y-55095508D01*
X126125404Y-55132873D01*
X126057617Y-55180123D01*
X125978977Y-55231297D01*
X125898863Y-55280435D01*
X125826657Y-55321577D01*
X125771741Y-55348763D01*
X125746274Y-55356461D01*
X125722897Y-55338252D01*
X125690955Y-55292190D01*
X125675977Y-55264937D01*
X125650016Y-55204280D01*
X125638777Y-55157586D01*
X125639840Y-55145907D01*
X125662892Y-55122578D01*
X125715133Y-55084337D01*
X125786791Y-55038146D01*
X125814530Y-55021460D01*
X125896283Y-54972894D01*
X125968132Y-54929712D01*
X126017530Y-54899468D01*
X126025672Y-54894320D01*
X126056239Y-54879437D01*
X126081004Y-54887002D01*
G37*
G36*
X126812335Y-51658042D02*
G01*
X126834919Y-51698037D01*
X126856913Y-51775850D01*
X126871257Y-51843576D01*
X126911284Y-52019226D01*
X126961855Y-52199566D01*
X127019682Y-52375555D01*
X127081478Y-52538153D01*
X127143955Y-52678320D01*
X127203825Y-52787014D01*
X127226106Y-52819387D01*
X127273418Y-52884307D01*
X127295245Y-52921726D01*
X127293980Y-52939062D01*
X127272013Y-52943729D01*
X127266218Y-52943796D01*
X127220931Y-52929958D01*
X127165420Y-52895776D01*
X127154173Y-52886778D01*
X127081042Y-52805440D01*
X127006453Y-52685773D01*
X126933239Y-52533921D01*
X126864235Y-52356030D01*
X126802274Y-52158242D01*
X126780600Y-52076922D01*
X126745429Y-51919859D01*
X126729588Y-51801357D01*
X126732967Y-51719750D01*
X126753845Y-51674913D01*
X126786273Y-51651717D01*
X126812335Y-51658042D01*
G37*
G36*
X125712921Y-54212533D02*
G01*
X125741289Y-54253206D01*
X125762269Y-54298074D01*
X125766440Y-54319003D01*
X125748413Y-54335979D01*
X125699458Y-54370451D01*
X125627258Y-54417444D01*
X125539500Y-54471980D01*
X125443869Y-54529081D01*
X125426148Y-54539400D01*
X125320421Y-54600712D01*
X125294412Y-54543628D01*
X125284415Y-54484079D01*
X125306273Y-54437807D01*
X125353403Y-54418240D01*
X125355895Y-54418203D01*
X125383824Y-54405217D01*
X125386669Y-54395863D01*
X125404763Y-54376044D01*
X125420178Y-54373524D01*
X125449906Y-54361461D01*
X125453687Y-54351184D01*
X125471781Y-54331365D01*
X125487196Y-54328845D01*
X125516925Y-54316782D01*
X125520705Y-54306505D01*
X125537830Y-54284962D01*
X125543979Y-54284166D01*
X125575842Y-54270194D01*
X125615210Y-54239487D01*
X125658129Y-54207033D01*
X125688878Y-54194808D01*
X125712921Y-54212533D01*
G37*
G36*
X133287860Y-51653884D02*
G01*
X133304130Y-51673653D01*
X133312517Y-51698732D01*
X133312947Y-51738329D01*
X133305345Y-51801654D01*
X133289635Y-51897917D01*
X133285674Y-51921000D01*
X133235837Y-52153320D01*
X133170010Y-52370915D01*
X133091191Y-52566364D01*
X133002380Y-52732245D01*
X132906574Y-52861135D01*
X132905369Y-52862454D01*
X132853588Y-52907911D01*
X132801126Y-52937174D01*
X132758751Y-52946311D01*
X132737229Y-52931388D01*
X132736361Y-52924192D01*
X132751661Y-52895199D01*
X132770684Y-52876102D01*
X132823818Y-52813916D01*
X132882050Y-52714224D01*
X132942791Y-52583532D01*
X133003448Y-52428346D01*
X133061429Y-52255172D01*
X133114144Y-52070515D01*
X133149293Y-51925593D01*
X133173913Y-51820960D01*
X133197213Y-51731955D01*
X133216595Y-51667888D01*
X133229459Y-51638066D01*
X133229621Y-51637893D01*
X133260619Y-51633992D01*
X133287860Y-51653884D01*
G37*
G36*
X125932142Y-54635947D02*
G01*
X125964971Y-54676759D01*
X125998646Y-54727815D01*
X126024197Y-54775234D01*
X126032655Y-54805136D01*
X126031184Y-54808128D01*
X126003056Y-54827801D01*
X125947665Y-54862331D01*
X125874729Y-54906071D01*
X125793967Y-54953371D01*
X125715096Y-54998584D01*
X125647836Y-55036062D01*
X125601905Y-55060155D01*
X125587392Y-55066048D01*
X125565371Y-55047903D01*
X125534533Y-55002160D01*
X125521159Y-54977580D01*
X125489877Y-54913798D01*
X125478321Y-54879949D01*
X125484700Y-54866809D01*
X125499300Y-54864992D01*
X125531274Y-54851027D01*
X125569702Y-54821086D01*
X125609367Y-54793127D01*
X125635786Y-54788895D01*
X125653663Y-54784136D01*
X125654742Y-54776953D01*
X125672815Y-54755972D01*
X125688252Y-54753295D01*
X125717992Y-54742031D01*
X125721761Y-54732461D01*
X125740325Y-54710299D01*
X125770983Y-54696004D01*
X125824694Y-54669926D01*
X125850767Y-54649820D01*
X125889952Y-54623839D01*
X125909129Y-54619258D01*
X125932142Y-54635947D01*
G37*
G36*
X134083960Y-53962814D02*
G01*
X134134271Y-53997332D01*
X134190495Y-54042570D01*
X134240564Y-54088473D01*
X134272410Y-54124985D01*
X134277785Y-54137519D01*
X134266344Y-54177879D01*
X134234118Y-54249142D01*
X134184258Y-54346139D01*
X134119915Y-54463705D01*
X134044238Y-54596671D01*
X133960377Y-54739869D01*
X133871482Y-54888134D01*
X133780703Y-55036296D01*
X133691189Y-55179189D01*
X133606092Y-55311645D01*
X133528561Y-55428497D01*
X133461746Y-55524578D01*
X133408796Y-55594719D01*
X133372863Y-55633754D01*
X133361866Y-55640055D01*
X133320873Y-55636321D01*
X133257993Y-55621761D01*
X133233039Y-55614376D01*
X133150133Y-55588156D01*
X133102496Y-55569284D01*
X133083256Y-55550262D01*
X133085542Y-55523589D01*
X133102484Y-55481766D01*
X133105336Y-55474989D01*
X133153086Y-55372538D01*
X133221380Y-55242193D01*
X133305094Y-55092628D01*
X133399102Y-54932519D01*
X133498283Y-54770541D01*
X133597511Y-54615371D01*
X133691662Y-54475683D01*
X133715849Y-54441325D01*
X133794277Y-54329830D01*
X133866442Y-54224823D01*
X133927067Y-54134165D01*
X133970877Y-54065718D01*
X133989961Y-54032846D01*
X134020563Y-53981060D01*
X134045751Y-53951627D01*
X134051632Y-53949073D01*
X134083960Y-53962814D01*
G37*
G36*
X125601096Y-53792347D02*
G01*
X125690281Y-53821643D01*
X125785004Y-53844035D01*
X125816704Y-53849071D01*
X125878490Y-53860199D01*
X125916745Y-53873512D01*
X125922816Y-53880171D01*
X125905447Y-53907638D01*
X125857436Y-53955495D01*
X125784928Y-54018777D01*
X125694068Y-54092517D01*
X125590999Y-54171749D01*
X125481867Y-54251506D01*
X125372816Y-54326823D01*
X125358081Y-54336614D01*
X125177074Y-54467134D01*
X125038140Y-54593739D01*
X124939455Y-54720836D01*
X124879196Y-54852836D01*
X124855540Y-54994147D01*
X124866663Y-55149180D01*
X124910742Y-55322342D01*
X124928766Y-55374746D01*
X124955879Y-55451691D01*
X124975718Y-55511391D01*
X124984440Y-55542227D01*
X124984558Y-55543465D01*
X124972434Y-55558849D01*
X124939665Y-55541344D01*
X124891657Y-55494358D01*
X124874033Y-55473743D01*
X124806647Y-55369234D01*
X124746649Y-55231934D01*
X124698998Y-55073666D01*
X124690334Y-55035673D01*
X124677880Y-54933802D01*
X124675942Y-54807611D01*
X124683514Y-54673798D01*
X124699594Y-54549062D01*
X124723177Y-54450101D01*
X124726035Y-54441917D01*
X124795319Y-54306443D01*
X124902722Y-54168874D01*
X125042374Y-54034948D01*
X125208409Y-53910399D01*
X125366531Y-53815852D01*
X125491601Y-53749003D01*
X125601096Y-53792347D01*
G37*
G36*
X134948065Y-54588457D02*
G01*
X135010729Y-54664645D01*
X135065521Y-54749078D01*
X135093347Y-54806247D01*
X135115132Y-54872113D01*
X135123884Y-54931209D01*
X135120833Y-55001796D01*
X135111382Y-55074320D01*
X135065951Y-55270119D01*
X134984540Y-55488418D01*
X134868371Y-55726969D01*
X134718664Y-55983527D01*
X134536638Y-56255843D01*
X134323515Y-56541671D01*
X134294271Y-56578842D01*
X134225551Y-56663570D01*
X134178684Y-56715020D01*
X134149539Y-56736262D01*
X134133988Y-56730366D01*
X134128043Y-56702415D01*
X134121952Y-56658899D01*
X134111865Y-56610998D01*
X134102215Y-56578400D01*
X134099119Y-56573963D01*
X134093041Y-56555142D01*
X134086122Y-56522011D01*
X134066967Y-56459086D01*
X134049781Y-56421484D01*
X134025308Y-56364449D01*
X134015791Y-56328981D01*
X133997936Y-56276389D01*
X133975090Y-56234038D01*
X133954396Y-56197183D01*
X133952795Y-56183022D01*
X133954304Y-56165308D01*
X133943507Y-56129315D01*
X133939150Y-56105700D01*
X133944395Y-56074535D01*
X133961970Y-56030239D01*
X133994598Y-55967231D01*
X134045005Y-55879931D01*
X134115917Y-55762757D01*
X134148060Y-55710449D01*
X134355291Y-55367815D01*
X134538211Y-55052238D01*
X134695051Y-54766799D01*
X134747562Y-54666645D01*
X134844245Y-54479468D01*
X134948065Y-54588457D01*
G37*
G36*
X125966900Y-51541453D02*
G01*
X126029844Y-51554842D01*
X126057271Y-51570421D01*
X126066147Y-51591407D01*
X126072471Y-51632779D01*
X126076356Y-51698991D01*
X126077913Y-51794497D01*
X126077256Y-51923750D01*
X126074495Y-52091205D01*
X126072621Y-52179172D01*
X126068093Y-52340870D01*
X126061585Y-52517151D01*
X126053467Y-52701942D01*
X126044108Y-52889172D01*
X126033880Y-53072767D01*
X126023151Y-53246655D01*
X126012292Y-53404765D01*
X126001672Y-53541025D01*
X125991662Y-53649361D01*
X125982632Y-53723702D01*
X125976692Y-53753603D01*
X125966575Y-53775039D01*
X125946909Y-53786073D01*
X125908581Y-53787292D01*
X125842480Y-53779285D01*
X125766648Y-53767156D01*
X125692701Y-53750530D01*
X125634722Y-53729689D01*
X125613619Y-53716469D01*
X125582066Y-53662187D01*
X125555900Y-53567326D01*
X125534996Y-53431003D01*
X125519233Y-53252336D01*
X125508486Y-53030442D01*
X125505923Y-52943796D01*
X125502301Y-52779014D01*
X125501318Y-52646670D01*
X125503653Y-52534567D01*
X125509984Y-52430507D01*
X125520989Y-52322292D01*
X125537348Y-52197724D01*
X125553682Y-52085257D01*
X125579676Y-51917775D01*
X125602778Y-51789422D01*
X125624705Y-51694887D01*
X125647175Y-51628858D01*
X125671903Y-51586025D01*
X125700608Y-51561076D01*
X125726451Y-51550723D01*
X125800730Y-51538532D01*
X125885704Y-51535729D01*
X125966900Y-51541453D01*
G37*
G36*
X134267161Y-51537699D02*
G01*
X134328362Y-51542675D01*
X134364053Y-51553248D01*
X134383799Y-51571265D01*
X134388011Y-51578336D01*
X134407197Y-51631037D01*
X134429604Y-51719600D01*
X134453744Y-51835458D01*
X134478129Y-51970044D01*
X134501271Y-52114791D01*
X134521683Y-52261130D01*
X134537875Y-52400496D01*
X134545632Y-52485837D01*
X134553958Y-52623407D01*
X134558654Y-52767850D01*
X134559395Y-52902159D01*
X134555851Y-53009325D01*
X134555751Y-53010815D01*
X134544969Y-53128385D01*
X134528622Y-53254572D01*
X134508421Y-53380389D01*
X134486074Y-53496849D01*
X134463293Y-53594968D01*
X134441786Y-53665758D01*
X134424846Y-53698769D01*
X134385510Y-53719227D01*
X134323715Y-53732959D01*
X134309482Y-53734383D01*
X134243699Y-53742487D01*
X134193741Y-53753908D01*
X134187787Y-53756201D01*
X134143668Y-53756338D01*
X134116719Y-53742926D01*
X134097914Y-53707421D01*
X134078940Y-53633268D01*
X134060711Y-53526484D01*
X134044143Y-53393088D01*
X134030150Y-53239096D01*
X134022391Y-53122512D01*
X134019000Y-53067236D01*
X134013184Y-52976952D01*
X134005573Y-52861227D01*
X133996794Y-52729629D01*
X133989387Y-52619874D01*
X133980247Y-52456599D01*
X133973376Y-52276768D01*
X133969256Y-52098078D01*
X133968370Y-51938230D01*
X133969155Y-51877156D01*
X133976202Y-51536550D01*
X134170887Y-51536479D01*
X134267161Y-51537699D01*
G37*
G36*
X134695216Y-53804479D02*
G01*
X134815473Y-53879474D01*
X134944142Y-53977106D01*
X135066734Y-54085171D01*
X135168759Y-54191462D01*
X135199312Y-54229099D01*
X135284867Y-54376031D01*
X135340782Y-54546822D01*
X135367341Y-54732152D01*
X135364828Y-54922703D01*
X135333527Y-55109154D01*
X135273721Y-55282188D01*
X135185695Y-55432485D01*
X135161727Y-55462574D01*
X135117497Y-55508199D01*
X135080839Y-55534718D01*
X135061138Y-55535949D01*
X135059966Y-55529592D01*
X135066965Y-55507496D01*
X135085454Y-55453023D01*
X135112097Y-55375946D01*
X135126686Y-55334122D01*
X135178291Y-55145266D01*
X135192309Y-54977142D01*
X135168121Y-54825392D01*
X135105112Y-54685663D01*
X135018643Y-54570938D01*
X134942074Y-54495310D01*
X134852749Y-54420581D01*
X134791719Y-54377260D01*
X134726860Y-54335224D01*
X134678288Y-54302142D01*
X134657557Y-54286087D01*
X134632236Y-54268607D01*
X134582238Y-54240559D01*
X134561533Y-54229802D01*
X134514857Y-54200607D01*
X134449660Y-54152899D01*
X134374045Y-54093470D01*
X134296110Y-54029118D01*
X134223957Y-53966636D01*
X134165686Y-53912820D01*
X134129397Y-53874466D01*
X134121409Y-53860597D01*
X134141497Y-53848710D01*
X134193082Y-53836432D01*
X134238045Y-53829785D01*
X134333268Y-53812903D01*
X134432577Y-53787085D01*
X134462996Y-53777022D01*
X134571310Y-53738073D01*
X134695216Y-53804479D01*
G37*
G36*
X125999058Y-53951829D02*
G01*
X126012975Y-53975371D01*
X126038290Y-54023374D01*
X126045947Y-54038431D01*
X126073475Y-54085388D01*
X126121193Y-54159146D01*
X126182924Y-54250436D01*
X126252492Y-54349991D01*
X126269267Y-54373524D01*
X126350539Y-54488461D01*
X126435934Y-54611539D01*
X126515310Y-54728013D01*
X126578524Y-54823137D01*
X126578566Y-54823202D01*
X126639074Y-54920557D01*
X126702855Y-55030624D01*
X126766448Y-55146510D01*
X126826392Y-55261328D01*
X126879224Y-55368188D01*
X126921482Y-55460199D01*
X126949705Y-55530473D01*
X126960431Y-55572119D01*
X126958654Y-55579659D01*
X126929575Y-55594202D01*
X126872774Y-55615313D01*
X126803690Y-55638016D01*
X126737761Y-55657331D01*
X126690426Y-55668279D01*
X126680938Y-55669214D01*
X126664098Y-55651475D01*
X126627362Y-55602360D01*
X126575082Y-55528020D01*
X126511607Y-55434607D01*
X126459643Y-55356296D01*
X126394186Y-55254407D01*
X126319465Y-55134294D01*
X126238730Y-55001570D01*
X126155233Y-54861850D01*
X126072223Y-54720749D01*
X125992952Y-54583879D01*
X125920671Y-54456855D01*
X125858629Y-54345292D01*
X125810079Y-54254803D01*
X125778269Y-54191003D01*
X125766452Y-54159505D01*
X125766440Y-54159097D01*
X125781364Y-54134731D01*
X125819297Y-54094052D01*
X125869982Y-54046199D01*
X125923163Y-54000312D01*
X125968582Y-53965531D01*
X125995981Y-53950993D01*
X125999058Y-53951829D01*
G37*
G36*
X125215834Y-54548701D02*
G01*
X125248803Y-54599283D01*
X125289874Y-54672917D01*
X125316586Y-54725371D01*
X125406495Y-54900330D01*
X125517033Y-55102866D01*
X125643093Y-55324030D01*
X125779570Y-55554875D01*
X125921357Y-55786453D01*
X125930344Y-55800853D01*
X126003544Y-55918518D01*
X126055738Y-56004892D01*
X126089780Y-56066454D01*
X126108525Y-56109687D01*
X126114828Y-56141073D01*
X126111543Y-56167091D01*
X126102535Y-56191794D01*
X126053016Y-56317239D01*
X126007333Y-56443522D01*
X125969402Y-56558985D01*
X125943141Y-56651969D01*
X125934759Y-56691246D01*
X125920991Y-56749089D01*
X125905052Y-56782726D01*
X125899218Y-56786188D01*
X125878589Y-56769512D01*
X125837191Y-56724163D01*
X125781127Y-56657165D01*
X125719600Y-56579548D01*
X125634116Y-56466281D01*
X125547591Y-56346604D01*
X125463499Y-56225892D01*
X125385313Y-56109516D01*
X125316507Y-56002849D01*
X125260552Y-55911262D01*
X125220924Y-55840130D01*
X125201095Y-55794824D01*
X125203069Y-55780569D01*
X125203562Y-55771180D01*
X125194079Y-55763815D01*
X125166051Y-55730290D01*
X125128213Y-55664699D01*
X125085363Y-55577199D01*
X125042299Y-55477948D01*
X125003820Y-55377103D01*
X124985824Y-55322952D01*
X124951919Y-55181779D01*
X124935800Y-55041176D01*
X124937766Y-54912868D01*
X124958120Y-54808578D01*
X124971772Y-54775634D01*
X125008826Y-54716382D01*
X125059252Y-54651744D01*
X125113506Y-54592162D01*
X125162046Y-54548079D01*
X125195329Y-54529939D01*
X125196338Y-54529900D01*
X125215834Y-54548701D01*
G37*
G36*
X130107465Y-47987639D02*
G01*
X130328435Y-47989995D01*
X130545378Y-47994127D01*
X130751373Y-47999936D01*
X130939502Y-48007324D01*
X131102845Y-48016192D01*
X131234483Y-48026441D01*
X131318037Y-48036435D01*
X131643018Y-48095735D01*
X131952117Y-48169479D01*
X132239902Y-48255801D01*
X132500942Y-48352837D01*
X132729805Y-48458722D01*
X132921060Y-48571590D01*
X132963562Y-48601560D01*
X133142997Y-48760703D01*
X133299175Y-48957079D01*
X133431395Y-49189354D01*
X133538959Y-49456195D01*
X133621165Y-49756267D01*
X133651500Y-49912236D01*
X133665347Y-50003196D01*
X133679887Y-50115760D01*
X133694418Y-50242257D01*
X133708237Y-50375015D01*
X133720642Y-50506360D01*
X133730931Y-50628622D01*
X133738403Y-50734128D01*
X133742354Y-50815206D01*
X133742083Y-50864183D01*
X133739614Y-50874957D01*
X133715263Y-50874629D01*
X133656492Y-50867199D01*
X133572755Y-50854004D01*
X133495903Y-50840515D01*
X132877858Y-50740390D01*
X132246941Y-50664001D01*
X131591800Y-50610053D01*
X131351312Y-50596058D01*
X131200754Y-50590071D01*
X131012325Y-50585584D01*
X130792803Y-50582539D01*
X130548971Y-50580882D01*
X130287607Y-50580557D01*
X130015492Y-50581509D01*
X129739406Y-50583680D01*
X129466129Y-50587017D01*
X129202442Y-50591463D01*
X128955125Y-50596962D01*
X128730957Y-50603459D01*
X128536720Y-50610899D01*
X128379192Y-50619224D01*
X128357821Y-50620637D01*
X128086016Y-50642250D01*
X127795334Y-50670772D01*
X127496035Y-50704866D01*
X127198378Y-50743197D01*
X126912623Y-50784429D01*
X126649030Y-50827225D01*
X126417859Y-50870251D01*
X126377900Y-50878455D01*
X126325991Y-50882834D01*
X126295949Y-50873441D01*
X126295347Y-50872581D01*
X126291467Y-50841546D01*
X126292004Y-50774133D01*
X126296355Y-50678362D01*
X126303922Y-50562251D01*
X126314102Y-50433821D01*
X126326296Y-50301090D01*
X126339902Y-50172077D01*
X126354321Y-50054801D01*
X126359249Y-50019394D01*
X126396675Y-49795289D01*
X126440992Y-49602737D01*
X126495956Y-49428720D01*
X126565320Y-49260224D01*
X126598280Y-49190762D01*
X126656540Y-49077196D01*
X126710008Y-48988388D01*
X126769422Y-48909426D01*
X126845519Y-48825397D01*
X126904506Y-48765492D01*
X127019926Y-48656550D01*
X127123459Y-48574020D01*
X127228640Y-48507568D01*
X127274355Y-48483097D01*
X127603688Y-48335905D01*
X127968756Y-48213633D01*
X128367942Y-48116687D01*
X128799630Y-48045469D01*
X129184382Y-48005963D01*
X129321698Y-47997955D01*
X129489584Y-47992218D01*
X129681120Y-47988652D01*
X129889387Y-47987158D01*
X130107465Y-47987639D01*
G37*
G36*
X130197626Y-52111409D02*
G01*
X130344154Y-52149189D01*
X130500196Y-52211541D01*
X130670207Y-52300165D01*
X130858644Y-52416757D01*
X131069962Y-52563016D01*
X131239615Y-52688273D01*
X131493958Y-52877342D01*
X131720692Y-53039675D01*
X131925388Y-53178456D01*
X132113620Y-53296866D01*
X132290961Y-53398088D01*
X132462983Y-53485305D01*
X132635260Y-53561700D01*
X132813364Y-53630455D01*
X133000929Y-53694131D01*
X133128294Y-53735618D01*
X133221424Y-53768360D01*
X133288857Y-53796523D01*
X133339133Y-53824269D01*
X133380789Y-53855763D01*
X133422364Y-53895169D01*
X133430855Y-53903788D01*
X133523314Y-54027378D01*
X133574659Y-54165892D01*
X133585261Y-54269365D01*
X133572392Y-54359330D01*
X133535947Y-54476791D01*
X133479171Y-54613511D01*
X133405307Y-54761253D01*
X133359495Y-54842653D01*
X133288395Y-54965101D01*
X133209117Y-55103282D01*
X133133592Y-55236334D01*
X133095274Y-55304611D01*
X133036731Y-55406366D01*
X132993994Y-55472307D01*
X132963636Y-55506947D01*
X132942229Y-55514798D01*
X132937235Y-55512726D01*
X132900395Y-55501558D01*
X132888219Y-55504460D01*
X132871566Y-55498650D01*
X132870398Y-55490498D01*
X132856789Y-55475930D01*
X132848058Y-55479328D01*
X132827473Y-55477557D01*
X132825719Y-55469477D01*
X132813870Y-55449969D01*
X132808964Y-55450216D01*
X132782944Y-55442607D01*
X132727136Y-55418547D01*
X132651296Y-55382383D01*
X132608009Y-55360659D01*
X132525526Y-55319042D01*
X132458166Y-55285904D01*
X132415755Y-55266036D01*
X132406953Y-55262571D01*
X132379301Y-55245584D01*
X132347621Y-55218864D01*
X132310299Y-55192766D01*
X132288529Y-55189559D01*
X132267857Y-55181513D01*
X132258560Y-55165031D01*
X132237478Y-55141318D01*
X132225051Y-55142692D01*
X132201431Y-55136604D01*
X132191542Y-55120352D01*
X132170460Y-55096639D01*
X132158033Y-55098013D01*
X132134241Y-55092154D01*
X132125067Y-55077089D01*
X132101857Y-55047578D01*
X132090005Y-55043708D01*
X132059228Y-55029804D01*
X132016700Y-54996515D01*
X131952829Y-54935827D01*
X131865207Y-54850282D01*
X131761106Y-54747177D01*
X131647795Y-54633809D01*
X131532544Y-54517475D01*
X131422625Y-54405471D01*
X131325308Y-54305097D01*
X131268134Y-54245193D01*
X131149584Y-54120527D01*
X131044973Y-54012416D01*
X130940660Y-53906978D01*
X130823003Y-53790334D01*
X130768744Y-53737032D01*
X130718100Y-53691703D01*
X130677990Y-53663402D01*
X130665021Y-53658660D01*
X130637377Y-53640733D01*
X130627827Y-53623735D01*
X130606746Y-53599926D01*
X130594268Y-53601267D01*
X130570861Y-53594904D01*
X130560075Y-53577146D01*
X130542398Y-53552443D01*
X130533017Y-53553590D01*
X130509447Y-53549797D01*
X130474311Y-53524050D01*
X130435116Y-53496796D01*
X130409671Y-53493205D01*
X130391573Y-53489462D01*
X130390714Y-53483684D01*
X130371201Y-53463718D01*
X130322624Y-53442272D01*
X130259927Y-53425577D01*
X130245508Y-53423128D01*
X130205914Y-53412114D01*
X130189659Y-53405965D01*
X130145819Y-53398890D01*
X130073748Y-53397728D01*
X129987185Y-53401482D01*
X129899867Y-53409155D01*
X129825534Y-53419752D01*
X129777923Y-53432275D01*
X129770793Y-53436348D01*
X129747730Y-53443642D01*
X129706579Y-53456741D01*
X129650831Y-53481719D01*
X129595142Y-53510981D01*
X129554162Y-53536935D01*
X129541814Y-53550355D01*
X129523802Y-53567441D01*
X129510166Y-53569302D01*
X129476779Y-53580099D01*
X129471072Y-53587397D01*
X129450880Y-53609336D01*
X129404936Y-53649738D01*
X129343037Y-53700003D01*
X129340758Y-53701791D01*
X129263265Y-53767587D01*
X129187923Y-53839756D01*
X129141669Y-53890336D01*
X129084537Y-53955770D01*
X129001088Y-54046388D01*
X128897079Y-54156351D01*
X128778266Y-54279818D01*
X128650408Y-54410948D01*
X128519262Y-54543902D01*
X128390585Y-54672837D01*
X128270135Y-54791914D01*
X128163670Y-54895292D01*
X128076945Y-54977131D01*
X128021225Y-55026954D01*
X127962999Y-55072563D01*
X127915400Y-55102989D01*
X127894512Y-55110727D01*
X127868393Y-55124738D01*
X127866352Y-55133066D01*
X127848258Y-55152885D01*
X127832843Y-55155406D01*
X127803114Y-55167468D01*
X127799333Y-55177745D01*
X127781239Y-55197564D01*
X127765824Y-55200085D01*
X127736073Y-55210534D01*
X127732315Y-55219389D01*
X127713325Y-55237899D01*
X127665017Y-55263305D01*
X127631787Y-55277086D01*
X127573123Y-55303616D01*
X127536903Y-55327944D01*
X127531260Y-55337288D01*
X127517464Y-55348904D01*
X127508920Y-55345291D01*
X127488368Y-55347804D01*
X127486581Y-55356461D01*
X127472972Y-55371029D01*
X127464241Y-55367631D01*
X127443689Y-55370143D01*
X127441902Y-55378801D01*
X127428293Y-55393368D01*
X127419562Y-55389970D01*
X127399010Y-55392483D01*
X127397223Y-55401140D01*
X127383614Y-55415708D01*
X127374883Y-55412310D01*
X127354331Y-55414822D01*
X127352544Y-55423480D01*
X127338935Y-55438047D01*
X127330204Y-55434649D01*
X127309652Y-55437162D01*
X127307865Y-55445819D01*
X127294256Y-55460387D01*
X127285525Y-55456989D01*
X127264973Y-55459501D01*
X127263186Y-55468159D01*
X127249577Y-55482726D01*
X127240846Y-55479328D01*
X127220172Y-55479039D01*
X127218507Y-55485594D01*
X127200309Y-55507428D01*
X127158025Y-55533058D01*
X127110118Y-55552654D01*
X127083419Y-55557517D01*
X127061885Y-55539679D01*
X127059485Y-55529592D01*
X127058850Y-55490734D01*
X127059485Y-55484913D01*
X127045064Y-55468847D01*
X127038472Y-55468159D01*
X127025130Y-55454473D01*
X127028621Y-55445819D01*
X127028234Y-55425173D01*
X127021191Y-55423480D01*
X127000529Y-55404532D01*
X126985938Y-55367631D01*
X126967543Y-55325778D01*
X126948689Y-55311782D01*
X126935744Y-55298071D01*
X126939263Y-55289443D01*
X126937492Y-55268857D01*
X126929412Y-55267103D01*
X126907827Y-55249296D01*
X126905754Y-55237012D01*
X126892074Y-55199620D01*
X126861075Y-55155406D01*
X126828975Y-55109181D01*
X126816396Y-55073799D01*
X126802396Y-55046345D01*
X126792738Y-55043708D01*
X126779396Y-55030022D01*
X126782887Y-55021369D01*
X126781357Y-55000773D01*
X126773461Y-54999029D01*
X126751290Y-54980060D01*
X126736211Y-54943181D01*
X126718507Y-54901347D01*
X126700958Y-54887332D01*
X126689879Y-54873502D01*
X126693529Y-54864992D01*
X126693142Y-54844347D01*
X126686099Y-54842653D01*
X126665437Y-54823705D01*
X126650846Y-54786804D01*
X126632451Y-54744952D01*
X126613596Y-54730955D01*
X126600651Y-54717244D01*
X126604171Y-54708616D01*
X126601658Y-54688064D01*
X126593001Y-54686276D01*
X126578433Y-54672668D01*
X126581831Y-54663937D01*
X126580060Y-54643351D01*
X126571980Y-54641597D01*
X126551783Y-54629662D01*
X126551772Y-54624843D01*
X126545579Y-54595665D01*
X126525918Y-54542788D01*
X126516913Y-54521801D01*
X126470292Y-54369268D01*
X126465839Y-54220825D01*
X126502970Y-54081420D01*
X126581105Y-53956000D01*
X126583750Y-53952886D01*
X126626824Y-53905212D01*
X126669173Y-53867091D01*
X126718666Y-53834448D01*
X126783170Y-53803205D01*
X126870554Y-53769287D01*
X126988685Y-53728618D01*
X127065818Y-53703140D01*
X127273458Y-53629767D01*
X127472433Y-53547702D01*
X127668820Y-53453477D01*
X127868700Y-53343622D01*
X128078152Y-53214668D01*
X128303255Y-53063148D01*
X128550090Y-52885592D01*
X128715252Y-52762013D01*
X128912702Y-52613874D01*
X129080524Y-52491472D01*
X129223439Y-52391971D01*
X129346169Y-52312538D01*
X129453437Y-52250338D01*
X129549963Y-52202537D01*
X129640471Y-52166300D01*
X129729680Y-52138792D01*
X129770564Y-52128529D01*
X129915287Y-52102777D01*
X130056155Y-52096504D01*
X130197626Y-52111409D01*
G37*
G36*
X130958731Y-51062099D02*
G01*
X131640168Y-51095167D01*
X131909800Y-51112791D01*
X132224948Y-51138870D01*
X132534902Y-51173124D01*
X132855836Y-51217558D01*
X133183150Y-51270600D01*
X133378033Y-51304454D01*
X133533264Y-51332591D01*
X133653334Y-51356187D01*
X133742736Y-51376417D01*
X133805961Y-51394457D01*
X133847502Y-51411483D01*
X133871850Y-51428672D01*
X133883497Y-51447197D01*
X133885449Y-51454432D01*
X133888230Y-51488155D01*
X133891502Y-51560724D01*
X133895091Y-51666311D01*
X133898828Y-51799087D01*
X133902540Y-51953224D01*
X133906055Y-52122893D01*
X133907595Y-52206593D01*
X133911769Y-52402000D01*
X133917359Y-52602880D01*
X133924002Y-52799458D01*
X133931332Y-52981957D01*
X133938986Y-53140602D01*
X133946599Y-53265616D01*
X133947567Y-53278889D01*
X133960458Y-53462279D01*
X133968412Y-53607786D01*
X133971212Y-53721955D01*
X133968639Y-53811330D01*
X133960472Y-53882458D01*
X133946494Y-53941885D01*
X133926485Y-53996154D01*
X133923324Y-54003409D01*
X133892542Y-54063429D01*
X133848928Y-54136798D01*
X133799068Y-54213835D01*
X133749549Y-54284861D01*
X133706959Y-54340195D01*
X133677883Y-54370157D01*
X133671921Y-54372872D01*
X133663101Y-54352811D01*
X133652865Y-54299376D01*
X133643307Y-54223733D01*
X133642580Y-54216500D01*
X133635541Y-54134482D01*
X133637190Y-54078244D01*
X133651929Y-54030658D01*
X133684161Y-53974594D01*
X133717882Y-53923541D01*
X133759504Y-53857326D01*
X133787675Y-53798230D01*
X133803395Y-53736874D01*
X133807666Y-53663879D01*
X133801489Y-53569865D01*
X133785863Y-53445452D01*
X133776121Y-53377766D01*
X133763088Y-53276010D01*
X133748910Y-53143765D01*
X133734958Y-52995149D01*
X133722602Y-52844281D01*
X133717711Y-52776250D01*
X133708918Y-52651204D01*
X133700774Y-52542776D01*
X133693874Y-52458351D01*
X133688817Y-52405312D01*
X133686522Y-52390464D01*
X133680628Y-52409098D01*
X133667702Y-52464487D01*
X133649292Y-52549536D01*
X133626945Y-52657152D01*
X133609546Y-52743324D01*
X133569982Y-52933278D01*
X133533523Y-53085319D01*
X133497105Y-53205785D01*
X133457665Y-53301014D01*
X133412138Y-53377345D01*
X133357462Y-53441116D01*
X133290572Y-53498665D01*
X133220429Y-53548356D01*
X133117517Y-53607402D01*
X133035562Y-53631466D01*
X132969208Y-53621669D01*
X132943001Y-53606505D01*
X132918826Y-53597238D01*
X132915077Y-53602811D01*
X132901333Y-53604820D01*
X132881567Y-53591641D01*
X132854551Y-53576045D01*
X132848058Y-53580472D01*
X132834314Y-53582481D01*
X132814549Y-53569302D01*
X132787528Y-53553637D01*
X132781040Y-53557966D01*
X132765221Y-53559060D01*
X132726977Y-53539009D01*
X132725191Y-53537847D01*
X132686267Y-53516272D01*
X132669364Y-53514689D01*
X132669342Y-53515061D01*
X132652206Y-53512810D01*
X132608286Y-53492078D01*
X132571756Y-53471679D01*
X132513612Y-53441621D01*
X132471796Y-53427388D01*
X132460058Y-53428600D01*
X132447198Y-53425318D01*
X132445947Y-53415330D01*
X132432843Y-53398512D01*
X132423608Y-53401756D01*
X132403055Y-53399243D01*
X132401268Y-53390586D01*
X132387660Y-53376018D01*
X132378929Y-53379416D01*
X132358377Y-53376904D01*
X132356589Y-53368247D01*
X132342981Y-53353679D01*
X132334250Y-53357077D01*
X132313621Y-53356293D01*
X132311910Y-53348958D01*
X132292860Y-53328368D01*
X132245829Y-53305488D01*
X132233722Y-53301228D01*
X132182771Y-53279993D01*
X132156501Y-53260408D01*
X132155534Y-53257238D01*
X132136622Y-53238880D01*
X132099685Y-53225036D01*
X132057845Y-53207097D01*
X132043836Y-53189105D01*
X132025736Y-53169661D01*
X132010327Y-53167191D01*
X131980599Y-53155128D01*
X131976818Y-53144852D01*
X131958724Y-53125032D01*
X131943309Y-53122512D01*
X131913580Y-53110449D01*
X131909800Y-53100173D01*
X131891706Y-53080353D01*
X131876290Y-53077833D01*
X131846562Y-53065770D01*
X131842781Y-53055494D01*
X131824639Y-53035789D01*
X131808571Y-53033154D01*
X131771296Y-53015081D01*
X131761502Y-52999645D01*
X131733374Y-52969955D01*
X131717524Y-52966136D01*
X131689362Y-52953274D01*
X131686405Y-52943796D01*
X131668489Y-52923580D01*
X131655285Y-52921457D01*
X131620799Y-52903437D01*
X131611308Y-52887947D01*
X131581453Y-52858230D01*
X131564239Y-52854438D01*
X131534063Y-52842591D01*
X131530028Y-52832099D01*
X131512112Y-52811883D01*
X131498909Y-52809759D01*
X131464422Y-52791740D01*
X131454931Y-52776250D01*
X131425076Y-52746532D01*
X131407862Y-52742741D01*
X131377686Y-52730894D01*
X131373652Y-52720401D01*
X131355509Y-52700696D01*
X131339441Y-52698062D01*
X131302167Y-52679989D01*
X131292372Y-52664553D01*
X131265578Y-52634887D01*
X131250785Y-52631043D01*
X131218453Y-52613069D01*
X131209197Y-52597534D01*
X131179342Y-52567816D01*
X131162128Y-52564025D01*
X131131952Y-52552178D01*
X131127917Y-52541685D01*
X131110001Y-52521469D01*
X131096798Y-52519346D01*
X131062311Y-52501326D01*
X131052820Y-52485837D01*
X131022965Y-52456119D01*
X131005751Y-52452327D01*
X130975575Y-52440480D01*
X130971541Y-52429988D01*
X130953447Y-52410169D01*
X130938032Y-52407648D01*
X130908303Y-52395586D01*
X130904523Y-52385309D01*
X130886428Y-52365490D01*
X130871013Y-52362969D01*
X130841285Y-52350907D01*
X130837504Y-52340630D01*
X130819410Y-52320811D01*
X130803995Y-52318290D01*
X130774266Y-52306228D01*
X130770486Y-52295951D01*
X130752508Y-52275868D01*
X130738572Y-52273611D01*
X130696628Y-52258904D01*
X130676046Y-52242999D01*
X130632400Y-52208947D01*
X130577800Y-52177914D01*
X130527331Y-52157167D01*
X130496079Y-52153970D01*
X130494074Y-52155359D01*
X130481169Y-52152284D01*
X130480072Y-52143298D01*
X130468991Y-52120532D01*
X130463318Y-52119881D01*
X130429808Y-52117088D01*
X130393359Y-52106735D01*
X130390714Y-52106065D01*
X130364360Y-52096993D01*
X130362790Y-52095979D01*
X130339360Y-52087771D01*
X130312526Y-52080736D01*
X130104929Y-52045929D01*
X129918883Y-52047078D01*
X129854566Y-52056570D01*
X129759630Y-52075417D01*
X129700095Y-52089319D01*
X129681435Y-52095979D01*
X129659096Y-52105098D01*
X129566549Y-52140825D01*
X129444776Y-52204147D01*
X129297639Y-52292636D01*
X129129004Y-52403868D01*
X128942733Y-52535414D01*
X128774482Y-52660584D01*
X128519383Y-52850823D01*
X128291049Y-53013044D01*
X128084496Y-53150665D01*
X127894738Y-53267106D01*
X127865131Y-53284271D01*
X127744212Y-53351863D01*
X127629458Y-53412503D01*
X127529147Y-53462082D01*
X127451556Y-53496491D01*
X127408392Y-53511010D01*
X127372937Y-53524585D01*
X127335789Y-53543238D01*
X127298710Y-53558826D01*
X127285525Y-53556183D01*
X127271787Y-53554321D01*
X127257601Y-53563401D01*
X127220965Y-53582954D01*
X127159133Y-53608086D01*
X127121963Y-53621174D01*
X127044674Y-53641265D01*
X126985356Y-53637675D01*
X126926932Y-53606474D01*
X126875584Y-53564490D01*
X126836544Y-53539783D01*
X126813013Y-53537884D01*
X126795216Y-53532990D01*
X126794056Y-53525388D01*
X126775583Y-53500123D01*
X126740403Y-53480779D01*
X126678079Y-53438281D01*
X126615317Y-53363511D01*
X126560662Y-53267964D01*
X126534925Y-53204306D01*
X126519042Y-53147930D01*
X126497381Y-53057344D01*
X126472107Y-52942304D01*
X126445386Y-52812565D01*
X126426431Y-52715352D01*
X126402356Y-52589235D01*
X126383218Y-52494435D01*
X126368071Y-52432528D01*
X126355968Y-52405092D01*
X126345964Y-52413705D01*
X126337112Y-52459943D01*
X126328466Y-52545383D01*
X126319080Y-52671602D01*
X126308008Y-52840178D01*
X126302790Y-52921457D01*
X126292754Y-53065484D01*
X126280898Y-53216575D01*
X126268561Y-53358718D01*
X126257078Y-53475901D01*
X126254727Y-53497382D01*
X126242729Y-53641213D01*
X126244875Y-53752188D01*
X126263177Y-53840450D01*
X126299649Y-53916144D01*
X126351279Y-53983739D01*
X126387047Y-54026576D01*
X126406156Y-54062034D01*
X126411665Y-54104692D01*
X126406628Y-54169126D01*
X126400535Y-54218623D01*
X126380776Y-54374903D01*
X126330138Y-54339175D01*
X126297496Y-54306732D01*
X126292460Y-54282479D01*
X126286800Y-54258202D01*
X126270494Y-54248108D01*
X126239930Y-54220273D01*
X126235569Y-54203587D01*
X126222708Y-54175426D01*
X126213230Y-54172468D01*
X126193410Y-54154374D01*
X126190890Y-54138959D01*
X126180735Y-54109203D01*
X126172136Y-54105450D01*
X126150510Y-54087348D01*
X126125981Y-54045309D01*
X126101995Y-53982603D01*
X126085484Y-53912106D01*
X126076126Y-53827000D01*
X126073594Y-53720462D01*
X126077566Y-53585674D01*
X126087716Y-53415814D01*
X126092736Y-53345907D01*
X126101506Y-53209249D01*
X126110346Y-53038229D01*
X126118846Y-52843161D01*
X126126600Y-52634359D01*
X126133197Y-52422138D01*
X126138229Y-52216812D01*
X126138990Y-52178602D01*
X126144266Y-51941869D01*
X126150199Y-51749764D01*
X126151429Y-51722257D01*
X126672118Y-51722257D01*
X126680833Y-51819647D01*
X126704826Y-51949712D01*
X126744334Y-52115785D01*
X126782630Y-52259933D01*
X126847654Y-52467783D01*
X126920626Y-52648583D01*
X126999342Y-52798428D01*
X127081599Y-52913412D01*
X127165193Y-52989629D01*
X127207007Y-53012063D01*
X127306212Y-53030763D01*
X127415617Y-53016388D01*
X127483743Y-52989923D01*
X127524406Y-52966904D01*
X127597055Y-52923421D01*
X127695976Y-52862989D01*
X127815455Y-52789125D01*
X127949780Y-52705344D01*
X128093237Y-52615162D01*
X128113943Y-52602088D01*
X128337861Y-52461238D01*
X128530652Y-52341452D01*
X128698442Y-52239121D01*
X128847353Y-52150636D01*
X128983508Y-52072389D01*
X129113031Y-52000771D01*
X129242045Y-51932172D01*
X129312407Y-51895755D01*
X129410311Y-51842193D01*
X129498351Y-51788047D01*
X129565637Y-51740361D01*
X129597235Y-51711558D01*
X129641806Y-51632186D01*
X129650116Y-51568501D01*
X130390714Y-51568501D01*
X130393439Y-51611352D01*
X130404321Y-51649983D01*
X130427426Y-51687484D01*
X130466818Y-51726943D01*
X130526561Y-51771448D01*
X130610720Y-51824090D01*
X130723360Y-51887957D01*
X130868544Y-51966137D01*
X131016220Y-52043872D01*
X131076034Y-52077077D01*
X131167738Y-52130449D01*
X131285376Y-52200408D01*
X131422993Y-52283370D01*
X131574633Y-52375755D01*
X131734342Y-52473982D01*
X131831611Y-52534261D01*
X132033439Y-52659693D01*
X132201063Y-52763443D01*
X132338299Y-52847298D01*
X132448964Y-52913047D01*
X132536873Y-52962475D01*
X132605842Y-52997371D01*
X132659686Y-53019520D01*
X132702221Y-53030711D01*
X132737264Y-53032731D01*
X132768629Y-53027366D01*
X132800133Y-53016403D01*
X132832370Y-53002973D01*
X132917350Y-52947851D01*
X133002165Y-52857325D01*
X133079483Y-52740091D01*
X133117127Y-52665230D01*
X133176983Y-52520588D01*
X133231869Y-52365481D01*
X133279957Y-52207551D01*
X133319418Y-52054442D01*
X133348426Y-51913795D01*
X133365150Y-51793253D01*
X133367763Y-51700458D01*
X133359222Y-51653290D01*
X133323770Y-51605187D01*
X133289664Y-51583738D01*
X133253511Y-51577278D01*
X133179701Y-51569442D01*
X133075210Y-51560780D01*
X132947018Y-51551840D01*
X132802105Y-51543169D01*
X132714021Y-51538524D01*
X132568723Y-51530987D01*
X132419789Y-51522713D01*
X132262274Y-51513378D01*
X132091231Y-51502653D01*
X131901715Y-51490213D01*
X131688778Y-51475732D01*
X131447477Y-51458882D01*
X131172864Y-51439338D01*
X130859993Y-51416773D01*
X130767769Y-51410081D01*
X130624856Y-51404719D01*
X130520320Y-51413681D01*
X130449621Y-51438873D01*
X130408216Y-51482204D01*
X130391563Y-51545583D01*
X130390714Y-51568501D01*
X129650116Y-51568501D01*
X129652745Y-51548349D01*
X129629471Y-51473294D01*
X129608832Y-51447050D01*
X129592727Y-51432400D01*
X129573894Y-51420843D01*
X129548006Y-51412426D01*
X129510737Y-51407192D01*
X129457760Y-51405187D01*
X129384749Y-51406454D01*
X129287376Y-51411038D01*
X129161316Y-51418985D01*
X129002241Y-51430337D01*
X128805825Y-51445141D01*
X128652707Y-51456894D01*
X128441390Y-51472830D01*
X128210519Y-51489664D01*
X127973107Y-51506486D01*
X127742166Y-51522387D01*
X127530709Y-51536455D01*
X127363713Y-51547050D01*
X127204867Y-51557065D01*
X127058899Y-51566779D01*
X126932317Y-51575718D01*
X126831628Y-51583409D01*
X126763338Y-51589377D01*
X126735273Y-51592815D01*
X126699574Y-51612174D01*
X126678444Y-51654210D01*
X126672118Y-51722257D01*
X126151429Y-51722257D01*
X126156793Y-51602243D01*
X126164050Y-51499258D01*
X126171971Y-51440766D01*
X126177512Y-51426555D01*
X126210300Y-51413619D01*
X126280981Y-51395111D01*
X126383288Y-51372232D01*
X126510953Y-51346184D01*
X126657705Y-51318170D01*
X126817278Y-51289392D01*
X126983402Y-51261052D01*
X127149810Y-51234353D01*
X127285525Y-51214030D01*
X127823054Y-51147553D01*
X128397177Y-51097391D01*
X129002849Y-51063654D01*
X129635028Y-51046453D01*
X130288670Y-51045897D01*
X130958731Y-51062099D01*
G37*
G36*
X130141153Y-53944753D02*
G01*
X130341337Y-53999267D01*
X130550094Y-54094429D01*
X130765667Y-54229627D01*
X130943617Y-54367682D01*
X131001566Y-54414336D01*
X131043484Y-54444094D01*
X131060826Y-54450928D01*
X131060899Y-54450426D01*
X131072513Y-54454290D01*
X131100738Y-54485195D01*
X131103394Y-54488540D01*
X131132506Y-54518857D01*
X131185553Y-54568197D01*
X131255445Y-54630522D01*
X131335091Y-54699790D01*
X131417401Y-54769962D01*
X131495285Y-54834997D01*
X131561653Y-54888855D01*
X131609413Y-54925496D01*
X131631477Y-54938879D01*
X131631903Y-54938774D01*
X131651405Y-54949499D01*
X131690753Y-54981644D01*
X131705195Y-54994623D01*
X131752491Y-55032405D01*
X131823265Y-55082408D01*
X131907487Y-55138288D01*
X131995127Y-55193699D01*
X132076155Y-55242298D01*
X132140540Y-55277741D01*
X132177873Y-55293606D01*
X132214731Y-55307930D01*
X132222552Y-55314366D01*
X132249997Y-55334885D01*
X132297745Y-55361048D01*
X132351798Y-55386403D01*
X132398155Y-55404497D01*
X132422815Y-55408880D01*
X132423950Y-55407179D01*
X132433189Y-55406133D01*
X132441388Y-55416868D01*
X132468501Y-55435592D01*
X132527131Y-55464448D01*
X132606519Y-55499123D01*
X132695905Y-55535301D01*
X132784527Y-55568666D01*
X132861627Y-55594905D01*
X132916442Y-55609701D01*
X132925894Y-55611160D01*
X132974294Y-55620673D01*
X132994210Y-55628265D01*
X133023256Y-55639656D01*
X133085140Y-55661031D01*
X133170047Y-55689069D01*
X133245255Y-55713210D01*
X133349404Y-55748876D01*
X133445695Y-55786506D01*
X133520915Y-55820706D01*
X133552423Y-55838658D01*
X133599714Y-55868048D01*
X133627158Y-55879873D01*
X133629940Y-55878333D01*
X133641203Y-55880486D01*
X133670881Y-55911705D01*
X133712807Y-55963747D01*
X133760816Y-56028371D01*
X133808742Y-56097333D01*
X133850419Y-56162390D01*
X133875124Y-56206098D01*
X133979736Y-56457584D01*
X134041907Y-56721020D01*
X134061633Y-56996781D01*
X134038908Y-57285240D01*
X133973725Y-57586774D01*
X133866079Y-57901755D01*
X133847767Y-57946594D01*
X133816082Y-58025409D01*
X133793486Y-58086878D01*
X133783675Y-58120753D01*
X133783815Y-58124060D01*
X133775552Y-58142300D01*
X133770350Y-58146400D01*
X133747527Y-58172095D01*
X133714932Y-58219744D01*
X133679436Y-58277615D01*
X133647908Y-58333979D01*
X133627218Y-58377107D01*
X133624235Y-58395270D01*
X133624562Y-58395311D01*
X133622360Y-58404769D01*
X133602016Y-58418761D01*
X133569666Y-58449501D01*
X133562922Y-58468556D01*
X133545861Y-58500416D01*
X133518243Y-58523484D01*
X133483083Y-58557498D01*
X133473564Y-58582721D01*
X133457396Y-58615434D01*
X133417028Y-58658934D01*
X133400961Y-58672688D01*
X133338391Y-58723858D01*
X133279647Y-58772870D01*
X133272508Y-58778933D01*
X133150317Y-58860138D01*
X132991246Y-58929991D01*
X132801850Y-58987606D01*
X132588685Y-59032098D01*
X132358306Y-59062581D01*
X132117270Y-59078171D01*
X131872131Y-59077981D01*
X131629445Y-59061127D01*
X131413301Y-59030018D01*
X131188701Y-58981151D01*
X131003628Y-58923930D01*
X130853397Y-58856432D01*
X130733320Y-58776737D01*
X130681447Y-58730043D01*
X130630077Y-58671177D01*
X130596317Y-58610310D01*
X130579797Y-58540149D01*
X130580150Y-58453399D01*
X130597010Y-58342770D01*
X130630008Y-58200967D01*
X130650809Y-58122134D01*
X130639875Y-58082796D01*
X130592906Y-58048957D01*
X130539181Y-58014152D01*
X130528588Y-57989058D01*
X130560298Y-57975428D01*
X130628175Y-57974647D01*
X130731598Y-57981351D01*
X130815949Y-57686887D01*
X130857930Y-57540705D01*
X130888551Y-57431662D01*
X130908121Y-57353766D01*
X130916951Y-57301028D01*
X130915350Y-57267457D01*
X130903628Y-57247063D01*
X130882096Y-57233856D01*
X130851062Y-57221847D01*
X130840226Y-57217692D01*
X130749595Y-57182091D01*
X130743285Y-56945046D01*
X130736976Y-56708000D01*
X130619694Y-56701248D01*
X130549392Y-56693956D01*
X130512345Y-56676792D01*
X130505240Y-56641614D01*
X130524765Y-56580283D01*
X130548474Y-56526248D01*
X130574886Y-56463519D01*
X130582140Y-56423986D01*
X130571398Y-56391056D01*
X130559332Y-56371409D01*
X130499645Y-56306010D01*
X130423497Y-56258041D01*
X130340904Y-56229535D01*
X130261882Y-56222526D01*
X130196450Y-56239049D01*
X130154625Y-56281135D01*
X130151441Y-56288598D01*
X130125580Y-56330186D01*
X130081986Y-56379574D01*
X130075807Y-56385532D01*
X130015061Y-56442836D01*
X129922404Y-56335268D01*
X129857046Y-56267732D01*
X129799545Y-56234689D01*
X129736149Y-56233211D01*
X129653106Y-56260372D01*
X129625793Y-56272120D01*
X129564323Y-56303733D01*
X129514059Y-56337163D01*
X129483234Y-56365658D01*
X129480080Y-56382469D01*
X129488814Y-56384420D01*
X129490691Y-56393807D01*
X129476363Y-56404976D01*
X129461492Y-56422477D01*
X129462892Y-56453342D01*
X129482359Y-56507649D01*
X129503084Y-56554850D01*
X129535617Y-56634799D01*
X129542316Y-56683667D01*
X129519840Y-56708974D01*
X129464850Y-56718241D01*
X129430116Y-56719170D01*
X129371587Y-56722023D01*
X129332690Y-56734331D01*
X129309800Y-56763548D01*
X129299297Y-56817123D01*
X129297558Y-56902510D01*
X129299687Y-56987487D01*
X129306888Y-57217437D01*
X129219389Y-57247730D01*
X129162655Y-57268719D01*
X129126982Y-57284436D01*
X129122556Y-57287358D01*
X129123276Y-57307962D01*
X129134952Y-57361948D01*
X129158117Y-57451320D01*
X129193303Y-57578079D01*
X129241044Y-57744227D01*
X129276731Y-57866361D01*
X129321676Y-58019445D01*
X129418594Y-58004911D01*
X129487892Y-58001106D01*
X129527030Y-58011533D01*
X129531648Y-58031652D01*
X129497391Y-58056921D01*
X129476837Y-58065607D01*
X129434680Y-58088517D01*
X129412629Y-58123108D01*
X129409551Y-58177719D01*
X129424316Y-58260687D01*
X129441286Y-58327613D01*
X129469409Y-58469045D01*
X129469609Y-58578719D01*
X129442075Y-58654800D01*
X129421734Y-58694009D01*
X129421673Y-58713835D01*
X129413570Y-58732534D01*
X129377547Y-58762184D01*
X129370621Y-58766744D01*
X129315824Y-58804979D01*
X129274260Y-58839016D01*
X129212123Y-58880914D01*
X129113830Y-58925530D01*
X128987594Y-58970302D01*
X128841626Y-59012673D01*
X128684136Y-59050081D01*
X128523336Y-59079969D01*
X128480688Y-59086379D01*
X128369867Y-59097173D01*
X128228001Y-59103724D01*
X128067572Y-59106157D01*
X127901059Y-59104598D01*
X127740943Y-59099172D01*
X127599705Y-59090003D01*
X127489825Y-59077218D01*
X127484815Y-59076391D01*
X127246115Y-59025919D01*
X127043356Y-58959736D01*
X126869639Y-58874809D01*
X126718062Y-58768104D01*
X126654291Y-58711271D01*
X126505557Y-58545534D01*
X126365986Y-58343789D01*
X126239662Y-58114418D01*
X126130671Y-57865801D01*
X126127718Y-57857052D01*
X126830813Y-57857052D01*
X126864853Y-58025981D01*
X126910401Y-58135667D01*
X126993922Y-58258825D01*
X127113403Y-58378269D01*
X127260217Y-58487447D01*
X127425735Y-58579809D01*
X127575173Y-58640365D01*
X127743885Y-58681820D01*
X127938585Y-58705024D01*
X128144403Y-58709795D01*
X128346465Y-58695950D01*
X128529899Y-58663308D01*
X128569775Y-58652576D01*
X128700769Y-58606711D01*
X128832495Y-58547200D01*
X128949163Y-58481834D01*
X129022936Y-58428978D01*
X129095904Y-58347534D01*
X129149709Y-58248522D01*
X129177335Y-58147450D01*
X129177778Y-58086853D01*
X129160170Y-57966654D01*
X129142192Y-57873908D01*
X129119804Y-57791543D01*
X129088969Y-57702482D01*
X129083193Y-57687032D01*
X129046130Y-57591549D01*
X129015674Y-57530954D01*
X128982783Y-57498287D01*
X128938418Y-57486586D01*
X128873538Y-57488889D01*
X128831274Y-57493047D01*
X128685216Y-57508011D01*
X128754721Y-57420758D01*
X128786092Y-57372555D01*
X128830998Y-57291666D01*
X128885169Y-57186380D01*
X128944331Y-57064987D01*
X129001146Y-56942565D01*
X129104446Y-56716041D01*
X129192978Y-56526729D01*
X129269285Y-56370652D01*
X129335913Y-56243835D01*
X129395405Y-56142299D01*
X129450307Y-56062070D01*
X129503163Y-55999170D01*
X129556517Y-55949623D01*
X129612913Y-55909453D01*
X129674897Y-55874684D01*
X129688976Y-55867640D01*
X129772821Y-55829264D01*
X129842590Y-55807125D01*
X129917766Y-55796888D01*
X130017831Y-55794219D01*
X130019014Y-55794216D01*
X130185207Y-55803494D01*
X130321529Y-55834961D01*
X130438952Y-55892689D01*
X130548444Y-55980748D01*
X130564774Y-55996736D01*
X130604602Y-56039568D01*
X130643611Y-56088935D01*
X130684041Y-56149094D01*
X130728131Y-56224304D01*
X130778118Y-56318820D01*
X130836244Y-56436900D01*
X130904745Y-56582802D01*
X130985861Y-56760783D01*
X131081832Y-56975100D01*
X131095751Y-57006381D01*
X131149457Y-57121504D01*
X131204333Y-57229434D01*
X131254777Y-57319760D01*
X131295187Y-57382072D01*
X131303704Y-57392806D01*
X131344574Y-57443664D01*
X131368195Y-57479109D01*
X131370722Y-57488698D01*
X131346015Y-57489695D01*
X131290926Y-57484031D01*
X131239615Y-57476464D01*
X131166496Y-57466642D01*
X131122801Y-57468770D01*
X131094394Y-57484866D01*
X131081272Y-57499062D01*
X131048814Y-57554924D01*
X131013229Y-57643051D01*
X130978039Y-57751526D01*
X130946769Y-57868436D01*
X130922939Y-57981862D01*
X130910247Y-58077554D01*
X130897883Y-58240776D01*
X131029691Y-58368956D01*
X131146662Y-58466124D01*
X131279127Y-58542085D01*
X131435928Y-58600778D01*
X131625908Y-58646143D01*
X131670071Y-58654209D01*
X131854117Y-58675189D01*
X132050537Y-58678385D01*
X132241788Y-58664351D01*
X132410330Y-58633643D01*
X132422595Y-58630404D01*
X132596315Y-58568260D01*
X132763739Y-58480633D01*
X132915124Y-58374304D01*
X133040729Y-58256058D01*
X133126446Y-58140339D01*
X133172785Y-58042260D01*
X133209785Y-57929635D01*
X133233809Y-57817551D01*
X133241223Y-57721092D01*
X133237111Y-57681157D01*
X133224645Y-57620764D01*
X133215875Y-57578082D01*
X133215245Y-57574988D01*
X133170178Y-57449378D01*
X133091007Y-57324697D01*
X132987103Y-57212160D01*
X132867841Y-57122982D01*
X132813532Y-57094317D01*
X132719763Y-57064550D01*
X132602360Y-57046336D01*
X132475629Y-57039956D01*
X132353874Y-57045697D01*
X132251403Y-57063841D01*
X132202366Y-57082187D01*
X132144988Y-57107861D01*
X132101331Y-57120880D01*
X132096253Y-57121281D01*
X132068770Y-57132437D01*
X132066176Y-57140034D01*
X132048309Y-57162655D01*
X132015912Y-57182168D01*
X131974613Y-57208237D01*
X131913219Y-57254842D01*
X131844500Y-57312251D01*
X131839598Y-57316552D01*
X131727066Y-57400270D01*
X131624179Y-57442867D01*
X131526355Y-57445574D01*
X131451098Y-57421015D01*
X131406953Y-57393460D01*
X131363537Y-57350701D01*
X131317785Y-57287772D01*
X131266630Y-57199707D01*
X131207008Y-57081543D01*
X131135851Y-56928313D01*
X131106672Y-56863278D01*
X131052410Y-56743439D01*
X130998615Y-56628015D01*
X130950484Y-56527939D01*
X130913217Y-56454140D01*
X130903871Y-56436844D01*
X130871855Y-56373409D01*
X130854179Y-56326247D01*
X130853618Y-56308392D01*
X130850209Y-56295782D01*
X130841227Y-56294720D01*
X130819682Y-56283777D01*
X130819591Y-56277965D01*
X130816463Y-56238810D01*
X130798058Y-56193803D01*
X130774038Y-56163807D01*
X130765257Y-56160683D01*
X130751331Y-56151689D01*
X130754711Y-56146672D01*
X130753254Y-56119403D01*
X130726602Y-56071267D01*
X130682274Y-56011825D01*
X130627790Y-55950640D01*
X130570669Y-55897275D01*
X130540870Y-55874732D01*
X130367605Y-55782292D01*
X130186664Y-55731306D01*
X130003723Y-55721117D01*
X129824456Y-55751067D01*
X129654540Y-55820498D01*
X129499651Y-55928752D01*
X129423222Y-56004270D01*
X129386358Y-56050757D01*
X129344997Y-56114468D01*
X129296696Y-56200000D01*
X129239013Y-56311948D01*
X129169507Y-56454907D01*
X129085733Y-56633473D01*
X129065088Y-56678117D01*
X128975309Y-56872226D01*
X128901656Y-57029717D01*
X128841729Y-57154629D01*
X128793127Y-57250998D01*
X128753451Y-57322865D01*
X128720300Y-57374267D01*
X128691274Y-57409242D01*
X128663972Y-57431830D01*
X128635994Y-57446068D01*
X128604939Y-57455996D01*
X128602312Y-57456708D01*
X128510191Y-57469145D01*
X128421725Y-57452153D01*
X128327943Y-57402584D01*
X128229818Y-57325988D01*
X128056647Y-57197260D01*
X127882584Y-57111949D01*
X127704511Y-57068847D01*
X127553599Y-57064138D01*
X127444309Y-57073379D01*
X127360397Y-57089783D01*
X127282613Y-57118415D01*
X127210041Y-57154493D01*
X127067700Y-57253922D01*
X126956578Y-57380534D01*
X126878704Y-57527687D01*
X126836107Y-57688740D01*
X126830813Y-57857052D01*
X126127718Y-57857052D01*
X126043099Y-57606321D01*
X125981028Y-57344359D01*
X125976923Y-57321463D01*
X125952940Y-57091202D01*
X125959206Y-56860841D01*
X125993637Y-56636626D01*
X126054147Y-56424805D01*
X126138653Y-56231624D01*
X126245070Y-56063329D01*
X126371314Y-55926167D01*
X126466408Y-55854507D01*
X126513841Y-55830870D01*
X126595795Y-55796776D01*
X126704211Y-55755295D01*
X126831028Y-55709497D01*
X126968185Y-55662451D01*
X126987857Y-55655905D01*
X127231519Y-55572044D01*
X127447358Y-55489970D01*
X127642622Y-55405451D01*
X127824563Y-55314253D01*
X128000430Y-55212143D01*
X128177476Y-55094888D01*
X128362948Y-54958255D01*
X128564099Y-54798011D01*
X128788178Y-54609922D01*
X128807077Y-54593747D01*
X128984261Y-54443674D01*
X129134500Y-54320923D01*
X129263168Y-54221970D01*
X129375641Y-54143290D01*
X129477294Y-54081360D01*
X129573502Y-54032654D01*
X129669642Y-53993650D01*
X129771089Y-53960821D01*
X129773523Y-53960112D01*
X129951296Y-53931497D01*
X130141153Y-53944753D01*
G37*
G36*
X134019742Y-99567900D02*
G01*
X120589857Y-99567900D01*
X120589857Y-99470582D01*
X134019742Y-99470582D01*
X134019742Y-99567900D01*
G37*
G36*
X134733407Y-95204810D02*
G01*
X134607840Y-95204810D01*
X134585820Y-95010174D01*
X134295476Y-95010174D01*
X134295476Y-95997963D01*
X134490112Y-96019983D01*
X134490112Y-96145550D01*
X133808886Y-96145550D01*
X133808886Y-96019983D01*
X134003522Y-95997963D01*
X134003522Y-95010174D01*
X133713179Y-95010174D01*
X133691159Y-95204810D01*
X133565591Y-95204810D01*
X133565591Y-94847977D01*
X134733407Y-94847977D01*
X134733407Y-95204810D01*
G37*
G36*
X124725872Y-97407499D02*
G01*
X124531236Y-97430089D01*
X124531236Y-98428841D01*
X124624499Y-98442847D01*
X124676803Y-98451535D01*
X124705121Y-98461586D01*
X124717551Y-98479165D01*
X124722190Y-98510434D01*
X124722796Y-98517677D01*
X124727831Y-98578501D01*
X124044646Y-98578501D01*
X124044646Y-98521223D01*
X124046384Y-98487751D01*
X124056179Y-98467136D01*
X124080909Y-98454680D01*
X124127447Y-98445681D01*
X124162239Y-98440850D01*
X124239282Y-98430536D01*
X124239282Y-97430089D01*
X124044646Y-97407499D01*
X124044646Y-97280927D01*
X124725872Y-97280927D01*
X124725872Y-97407499D01*
G37*
G36*
X127950709Y-89274539D02*
G01*
X128083344Y-89410425D01*
X128083344Y-91624227D01*
X127950709Y-91760112D01*
X127818075Y-91895997D01*
X126793164Y-91895997D01*
X126659710Y-91761846D01*
X126526255Y-91627695D01*
X126526255Y-91595061D01*
X126623573Y-91595061D01*
X126724478Y-91696870D01*
X126825382Y-91798679D01*
X127782407Y-91798679D01*
X127884216Y-91697775D01*
X127986026Y-91596871D01*
X127986026Y-89439532D01*
X127767930Y-89219752D01*
X126843353Y-89219752D01*
X126623573Y-89437848D01*
X126623573Y-91595061D01*
X126526255Y-91595061D01*
X126526255Y-89405562D01*
X126660406Y-89272108D01*
X126794558Y-89138654D01*
X127818075Y-89138654D01*
X127950709Y-89274539D01*
G37*
G36*
X128671419Y-88534582D02*
G01*
X129105183Y-88968569D01*
X129105183Y-92067104D01*
X128236047Y-92934056D01*
X126371947Y-92934056D01*
X125930072Y-92491962D01*
X125488197Y-92049867D01*
X125488197Y-91676502D01*
X126380278Y-91676502D01*
X126554363Y-91851129D01*
X126728448Y-92025755D01*
X127880044Y-92025755D01*
X128046572Y-91859793D01*
X128213101Y-91693831D01*
X128213101Y-89341929D01*
X127864931Y-88992677D01*
X126745729Y-88992677D01*
X126563003Y-89174884D01*
X126380278Y-89357090D01*
X126380278Y-91676502D01*
X125488197Y-91676502D01*
X125488197Y-88984346D01*
X125930291Y-88542471D01*
X126372386Y-88100595D01*
X128237656Y-88100595D01*
X128671419Y-88534582D01*
G37*
G36*
X129316038Y-88862582D02*
G01*
X129316038Y-92147599D01*
X128817187Y-92646255D01*
X128318336Y-93144912D01*
X126270466Y-93144912D01*
X125782623Y-92646157D01*
X125294779Y-92147402D01*
X125294761Y-92098541D01*
X125374659Y-92098541D01*
X125848981Y-92573067D01*
X126323303Y-93047594D01*
X128286299Y-93047594D01*
X128752344Y-92581278D01*
X129218389Y-92114963D01*
X129240301Y-88909039D01*
X128771410Y-88439938D01*
X128302519Y-87970838D01*
X126307496Y-87970838D01*
X125841078Y-88437048D01*
X125374659Y-88903259D01*
X125374659Y-92098541D01*
X125294761Y-92098541D01*
X125293561Y-88854610D01*
X126275047Y-87873520D01*
X128338294Y-87873520D01*
X129316038Y-88862582D01*
G37*
G36*
X132381556Y-97637760D02*
G01*
X132255988Y-97637760D01*
X132233968Y-97443124D01*
X131943625Y-97443124D01*
X131943625Y-98428841D01*
X132036888Y-98442847D01*
X132089191Y-98451535D01*
X132117509Y-98461586D01*
X132129939Y-98479165D01*
X132134578Y-98510434D01*
X132135185Y-98517677D01*
X132140219Y-98578501D01*
X131455076Y-98578501D01*
X131460110Y-98517677D01*
X131464223Y-98483417D01*
X131474729Y-98463914D01*
X131499723Y-98453002D01*
X131547303Y-98444519D01*
X131558407Y-98442847D01*
X131651671Y-98428841D01*
X131651671Y-97443124D01*
X131362902Y-97443124D01*
X131340312Y-97637760D01*
X131213739Y-97637760D01*
X131213739Y-97280927D01*
X132381556Y-97280927D01*
X132381556Y-97637760D01*
G37*
G36*
X131067762Y-97405434D02*
G01*
X130881236Y-97435014D01*
X130876950Y-97931893D01*
X130872663Y-98428773D01*
X130966158Y-98442813D01*
X131018541Y-98451506D01*
X131046929Y-98461536D01*
X131059406Y-98479046D01*
X131064059Y-98510179D01*
X131064687Y-98517677D01*
X131069721Y-98578501D01*
X130386536Y-98578501D01*
X130386536Y-98521223D01*
X130388274Y-98487751D01*
X130398069Y-98467136D01*
X130422799Y-98454680D01*
X130469337Y-98445681D01*
X130504129Y-98440850D01*
X130581172Y-98430536D01*
X130581172Y-97430587D01*
X130487909Y-97416581D01*
X130435675Y-97407940D01*
X130407843Y-97398255D01*
X130396730Y-97381695D01*
X130394653Y-97352429D01*
X130394646Y-97345806D01*
X130394646Y-97289037D01*
X131067762Y-97280269D01*
X131067762Y-97405434D01*
G37*
G36*
X127580534Y-94973544D02*
G01*
X127483216Y-94984555D01*
X127385898Y-94995565D01*
X127385898Y-95488502D01*
X127386413Y-95633017D01*
X127387910Y-95756305D01*
X127390317Y-95856076D01*
X127393562Y-95930037D01*
X127397572Y-95975897D01*
X127401731Y-95991225D01*
X127426062Y-95998688D01*
X127470407Y-96006795D01*
X127499049Y-96010661D01*
X127580534Y-96020312D01*
X127580534Y-96145550D01*
X126897350Y-96145550D01*
X126902384Y-96084727D01*
X126906497Y-96050467D01*
X126917002Y-96030964D01*
X126941996Y-96020052D01*
X126989577Y-96011569D01*
X127000681Y-96009897D01*
X127093944Y-95995891D01*
X127093944Y-94997636D01*
X127000681Y-94983630D01*
X126948377Y-94974942D01*
X126920059Y-94964891D01*
X126907629Y-94947313D01*
X126902990Y-94916043D01*
X126902384Y-94908801D01*
X126897350Y-94847977D01*
X127580534Y-94847977D01*
X127580534Y-94973544D01*
G37*
G36*
X132186920Y-95204810D02*
G01*
X132059150Y-95204810D01*
X132048835Y-95127766D01*
X132040983Y-95072114D01*
X132031021Y-95037521D01*
X132012091Y-95018991D01*
X131977334Y-95011531D01*
X131919891Y-95010146D01*
X131887365Y-95010174D01*
X131748989Y-95010174D01*
X131748989Y-95997239D01*
X131927405Y-96019531D01*
X131927405Y-96145550D01*
X131262398Y-96145550D01*
X131262398Y-96019531D01*
X131351607Y-96008385D01*
X131440815Y-95997239D01*
X131440815Y-95010174D01*
X131303257Y-95010174D01*
X131235780Y-95010042D01*
X131193545Y-95013562D01*
X131169431Y-95026603D01*
X131156315Y-95055039D01*
X131147075Y-95104739D01*
X131140951Y-95143986D01*
X131132357Y-95183190D01*
X131116395Y-95200438D01*
X131082148Y-95204714D01*
X131067028Y-95204810D01*
X131002884Y-95204810D01*
X131002884Y-94847977D01*
X132186920Y-94847977D01*
X132186920Y-95204810D01*
G37*
G36*
X135966102Y-95188590D02*
G01*
X135838819Y-95188590D01*
X135811747Y-95018284D01*
X135572641Y-95013795D01*
X135333535Y-95009307D01*
X135333535Y-95400663D01*
X135483567Y-95395999D01*
X135633599Y-95391336D01*
X135648045Y-95306183D01*
X135657548Y-95256855D01*
X135668665Y-95231572D01*
X135687893Y-95222307D01*
X135716979Y-95221029D01*
X135771466Y-95221029D01*
X135771466Y-95707619D01*
X135715256Y-95707619D01*
X135681846Y-95705940D01*
X135663842Y-95695381D01*
X135654404Y-95667659D01*
X135648288Y-95626521D01*
X135637530Y-95545423D01*
X135333535Y-95545423D01*
X135333535Y-95984221D01*
X135572641Y-95979732D01*
X135811747Y-95975244D01*
X135825283Y-95890091D01*
X135838819Y-95804937D01*
X135966102Y-95804937D01*
X135966102Y-96145550D01*
X134846945Y-96145550D01*
X134846945Y-96019983D01*
X135041581Y-95997963D01*
X135041581Y-94997636D01*
X134948318Y-94983630D01*
X134896015Y-94974942D01*
X134867696Y-94964891D01*
X134855266Y-94947313D01*
X134850627Y-94916043D01*
X134850021Y-94908801D01*
X134844987Y-94847977D01*
X135966102Y-94847977D01*
X135966102Y-95188590D01*
G37*
G36*
X122844391Y-95188590D02*
G01*
X122716968Y-95188590D01*
X122694676Y-95010174D01*
X122210794Y-95010174D01*
X122219934Y-95391336D01*
X122511658Y-95391336D01*
X122528770Y-95310238D01*
X122540677Y-95262002D01*
X122554550Y-95237096D01*
X122577376Y-95226802D01*
X122597818Y-95224057D01*
X122649755Y-95218974D01*
X122649755Y-95707619D01*
X122594508Y-95707619D01*
X122561645Y-95705858D01*
X122543838Y-95695055D01*
X122534309Y-95666934D01*
X122528107Y-95626521D01*
X122516953Y-95545423D01*
X122211824Y-95545423D01*
X122211824Y-95983354D01*
X122694676Y-95983354D01*
X122705822Y-95894146D01*
X122716968Y-95804937D01*
X122844391Y-95804937D01*
X122844391Y-96145550D01*
X121723276Y-96145550D01*
X121728310Y-96084727D01*
X121732423Y-96050467D01*
X121742928Y-96030964D01*
X121767922Y-96020052D01*
X121815502Y-96011569D01*
X121826607Y-96009897D01*
X121919870Y-95995891D01*
X121919870Y-94997636D01*
X121826607Y-94983630D01*
X121774303Y-94974942D01*
X121745985Y-94964891D01*
X121733555Y-94947313D01*
X121728916Y-94916043D01*
X121728310Y-94908801D01*
X121723276Y-94847977D01*
X122844391Y-94847977D01*
X122844391Y-95188590D01*
G37*
G36*
X127564314Y-97621540D02*
G01*
X127436891Y-97621540D01*
X127414599Y-97443124D01*
X126930718Y-97443124D01*
X126935287Y-97633705D01*
X126939857Y-97824286D01*
X127231582Y-97824286D01*
X127248693Y-97743188D01*
X127260600Y-97694952D01*
X127274474Y-97670046D01*
X127297300Y-97659752D01*
X127317741Y-97657007D01*
X127369678Y-97651924D01*
X127369678Y-98140570D01*
X127314999Y-98140570D01*
X127282468Y-98138783D01*
X127264871Y-98127899D01*
X127255522Y-98099633D01*
X127249562Y-98059471D01*
X127238804Y-97978373D01*
X126931747Y-97978373D01*
X126931747Y-98416304D01*
X127414599Y-98416304D01*
X127436891Y-98237888D01*
X127564314Y-98237888D01*
X127564314Y-98578501D01*
X126445157Y-98578501D01*
X126445157Y-98521223D01*
X126446894Y-98487751D01*
X126456690Y-98467136D01*
X126481420Y-98454680D01*
X126527958Y-98445681D01*
X126562750Y-98440850D01*
X126639793Y-98430536D01*
X126639793Y-97430587D01*
X126546530Y-97416581D01*
X126494296Y-97407940D01*
X126466464Y-97398255D01*
X126455350Y-97381695D01*
X126453274Y-97352429D01*
X126453267Y-97345806D01*
X126453267Y-97289037D01*
X127008791Y-97284769D01*
X127564314Y-97280501D01*
X127564314Y-97621540D01*
G37*
G36*
X123115023Y-97614533D02*
G01*
X123185677Y-97712900D01*
X123254626Y-97808912D01*
X123318160Y-97897399D01*
X123372570Y-97973196D01*
X123414145Y-98031133D01*
X123432354Y-98056524D01*
X123509397Y-98164007D01*
X123509397Y-97430089D01*
X123314761Y-97407499D01*
X123314761Y-97280927D01*
X123898669Y-97280927D01*
X123898669Y-97407499D01*
X123704033Y-97430089D01*
X123704033Y-98578501D01*
X123586441Y-98577802D01*
X123468848Y-98577104D01*
X123178611Y-98165590D01*
X123104982Y-98061428D01*
X123035771Y-97963957D01*
X122973617Y-97876862D01*
X122921162Y-97803826D01*
X122881046Y-97748535D01*
X122855908Y-97714672D01*
X122850746Y-97708083D01*
X122813118Y-97662089D01*
X122812535Y-98045465D01*
X122811951Y-98428841D01*
X122905215Y-98442847D01*
X122957518Y-98451535D01*
X122985836Y-98461586D01*
X122998266Y-98479165D01*
X123002905Y-98510434D01*
X123003512Y-98517677D01*
X123008546Y-98578501D01*
X122422679Y-98578501D01*
X122422679Y-98521223D01*
X122424417Y-98487751D01*
X122434212Y-98467136D01*
X122458942Y-98454680D01*
X122505481Y-98445681D01*
X122540272Y-98440850D01*
X122617315Y-98430536D01*
X122617315Y-97430587D01*
X122524052Y-97416581D01*
X122471818Y-97407940D01*
X122443986Y-97398255D01*
X122432873Y-97381695D01*
X122430796Y-97352429D01*
X122430789Y-97345806D01*
X122430789Y-97289037D01*
X122652763Y-97284531D01*
X122874736Y-97280025D01*
X123115023Y-97614533D01*
G37*
G36*
X133192539Y-97406947D02*
G01*
X133102102Y-97418246D01*
X133046036Y-97428517D01*
X133020163Y-97441314D01*
X133019009Y-97448499D01*
X133030048Y-97468464D01*
X133055269Y-97510155D01*
X133091260Y-97568044D01*
X133134609Y-97636604D01*
X133148947Y-97659063D01*
X133197455Y-97734495D01*
X133231795Y-97785914D01*
X133255180Y-97816697D01*
X133270822Y-97830222D01*
X133281936Y-97829865D01*
X133291734Y-97819004D01*
X133295573Y-97813150D01*
X133313395Y-97785017D01*
X133344086Y-97736264D01*
X133383321Y-97673773D01*
X133426213Y-97605321D01*
X133532821Y-97435014D01*
X133443779Y-97420224D01*
X133354736Y-97405434D01*
X133354736Y-97280927D01*
X133922424Y-97280927D01*
X133922424Y-97406947D01*
X133745510Y-97429051D01*
X133558232Y-97719762D01*
X133370955Y-98010474D01*
X133370955Y-98430536D01*
X133447999Y-98440850D01*
X133508477Y-98449902D01*
X133543599Y-98459988D01*
X133560241Y-98475807D01*
X133565277Y-98502059D01*
X133565591Y-98521223D01*
X133565591Y-98578501D01*
X132882407Y-98578501D01*
X132887441Y-98517677D01*
X132891554Y-98483417D01*
X132902059Y-98463914D01*
X132927054Y-98453002D01*
X132974634Y-98444519D01*
X132985738Y-98442847D01*
X133079001Y-98428841D01*
X133079001Y-98027159D01*
X132883357Y-97728073D01*
X132687713Y-97428986D01*
X132599513Y-97417967D01*
X132511313Y-97406947D01*
X132511313Y-97280927D01*
X133192539Y-97280927D01*
X133192539Y-97406947D01*
G37*
G36*
X126347839Y-97405434D02*
G01*
X126256004Y-97420224D01*
X126164170Y-97435014D01*
X125951380Y-98002702D01*
X125738590Y-98570391D01*
X125596909Y-98575081D01*
X125527582Y-98576583D01*
X125483936Y-98574793D01*
X125459288Y-98568648D01*
X125446955Y-98557085D01*
X125443991Y-98550752D01*
X125435809Y-98529256D01*
X125417546Y-98481053D01*
X125390578Y-98409784D01*
X125356283Y-98319089D01*
X125316036Y-98212609D01*
X125271216Y-98093985D01*
X125227547Y-97978373D01*
X125022339Y-97435014D01*
X124930875Y-97420224D01*
X124839410Y-97405434D01*
X124839410Y-97280927D01*
X125504416Y-97280927D01*
X125504416Y-97406947D01*
X125415208Y-97418093D01*
X125366442Y-97425841D01*
X125334040Y-97434160D01*
X125326000Y-97439347D01*
X125331478Y-97461042D01*
X125346732Y-97506955D01*
X125369989Y-97572468D01*
X125399477Y-97652962D01*
X125433424Y-97743820D01*
X125470057Y-97840425D01*
X125507605Y-97938158D01*
X125544295Y-98032403D01*
X125578355Y-98118541D01*
X125608013Y-98191955D01*
X125631496Y-98248027D01*
X125647033Y-98282139D01*
X125652641Y-98290451D01*
X125660493Y-98273307D01*
X125677598Y-98230508D01*
X125702161Y-98166899D01*
X125732384Y-98087323D01*
X125766470Y-97996625D01*
X125802623Y-97899649D01*
X125839046Y-97801238D01*
X125873942Y-97706239D01*
X125905515Y-97619493D01*
X125931967Y-97545846D01*
X125951502Y-97490142D01*
X125962323Y-97457225D01*
X125963806Y-97451540D01*
X125950950Y-97440081D01*
X125914745Y-97427037D01*
X125877469Y-97418228D01*
X125826768Y-97407328D01*
X125800191Y-97395858D01*
X125789951Y-97377419D01*
X125788261Y-97345612D01*
X125788261Y-97289037D01*
X126347839Y-97280161D01*
X126347839Y-97405434D01*
G37*
G36*
X120022169Y-94864197D02*
G01*
X119958025Y-94864197D01*
X119916332Y-94862025D01*
X119896132Y-94849519D01*
X119886506Y-94817697D01*
X119884102Y-94803373D01*
X119875379Y-94746356D01*
X119867031Y-94708234D01*
X119853120Y-94685241D01*
X119827712Y-94673614D01*
X119784870Y-94669587D01*
X119718659Y-94669395D01*
X119673137Y-94669561D01*
X119486920Y-94669561D01*
X119486920Y-95325364D01*
X119486736Y-95489882D01*
X119486548Y-95624929D01*
X119486903Y-95733470D01*
X119488346Y-95818471D01*
X119491423Y-95882895D01*
X119496680Y-95929708D01*
X119504664Y-95961873D01*
X119515919Y-95982356D01*
X119530993Y-95994120D01*
X119550430Y-96000131D01*
X119574778Y-96003353D01*
X119604582Y-96006751D01*
X119612622Y-96007924D01*
X119655707Y-96016314D01*
X119675602Y-96029971D01*
X119681264Y-96058531D01*
X119681556Y-96082097D01*
X119681556Y-96145550D01*
X118984110Y-96145550D01*
X118984110Y-96082097D01*
X118985945Y-96042153D01*
X118997420Y-96022055D01*
X119027490Y-96012167D01*
X119053043Y-96007924D01*
X119084240Y-96004042D01*
X119109850Y-96001049D01*
X119130418Y-95995979D01*
X119146491Y-95985868D01*
X119158615Y-95967753D01*
X119167335Y-95938667D01*
X119173198Y-95895647D01*
X119176750Y-95835728D01*
X119178536Y-95755946D01*
X119179102Y-95653335D01*
X119178995Y-95524931D01*
X119178760Y-95367771D01*
X119178746Y-95325364D01*
X119178746Y-94669561D01*
X118807163Y-94669561D01*
X118797384Y-94730384D01*
X118786565Y-94795588D01*
X118777036Y-94835200D01*
X118764545Y-94855592D01*
X118744839Y-94863136D01*
X118713665Y-94864202D01*
X118708066Y-94864197D01*
X118643497Y-94864197D01*
X118643497Y-94491144D01*
X120022169Y-94491144D01*
X120022169Y-94864197D01*
G37*
G36*
X120797637Y-94908801D02*
G01*
X120793524Y-94943060D01*
X120783018Y-94962564D01*
X120758024Y-94973475D01*
X120710444Y-94981958D01*
X120699340Y-94983630D01*
X120606077Y-94997636D01*
X120606077Y-95383226D01*
X121108886Y-95383226D01*
X121108886Y-94997636D01*
X121015623Y-94983630D01*
X120963320Y-94974942D01*
X120935002Y-94964891D01*
X120922571Y-94947313D01*
X120917932Y-94916043D01*
X120917326Y-94908801D01*
X120912292Y-94847977D01*
X121597435Y-94847977D01*
X121592401Y-94908801D01*
X121588287Y-94943060D01*
X121577782Y-94962564D01*
X121552788Y-94973475D01*
X121505208Y-94981958D01*
X121494103Y-94983630D01*
X121400840Y-94997636D01*
X121400840Y-95995891D01*
X121494103Y-96009897D01*
X121546407Y-96018585D01*
X121574725Y-96028636D01*
X121587155Y-96046215D01*
X121591794Y-96077484D01*
X121592401Y-96084727D01*
X121597435Y-96145550D01*
X120914250Y-96145550D01*
X120914250Y-96020312D01*
X120995735Y-96010661D01*
X121045876Y-96003251D01*
X121082797Y-95995128D01*
X121093053Y-95991225D01*
X121099150Y-95971895D01*
X121104078Y-95925739D01*
X121107446Y-95858363D01*
X121108865Y-95775372D01*
X121108886Y-95763431D01*
X121108886Y-95545423D01*
X120606077Y-95545423D01*
X120606077Y-95995891D01*
X120699340Y-96009897D01*
X120751643Y-96018585D01*
X120779961Y-96028636D01*
X120792391Y-96046215D01*
X120797030Y-96077484D01*
X120797637Y-96084727D01*
X120802671Y-96145550D01*
X120119487Y-96145550D01*
X120119487Y-96019983D01*
X120314123Y-95997963D01*
X120314123Y-94997636D01*
X120220860Y-94983630D01*
X120168556Y-94974942D01*
X120140238Y-94964891D01*
X120127808Y-94947313D01*
X120123169Y-94916043D01*
X120122562Y-94908801D01*
X120117528Y-94847977D01*
X120802671Y-94847977D01*
X120797637Y-94908801D01*
G37*
G36*
X125955491Y-94908801D02*
G01*
X125951378Y-94943060D01*
X125940873Y-94962564D01*
X125915879Y-94973475D01*
X125868298Y-94981958D01*
X125857194Y-94983630D01*
X125763931Y-94997636D01*
X125763931Y-95383226D01*
X126267770Y-95383226D01*
X126263201Y-95192645D01*
X126258631Y-95002064D01*
X126169423Y-94985061D01*
X126118598Y-94974313D01*
X126091460Y-94962511D01*
X126079759Y-94942909D01*
X126075243Y-94908765D01*
X126075181Y-94908017D01*
X126070147Y-94847977D01*
X126755289Y-94847977D01*
X126750255Y-94908801D01*
X126746142Y-94943060D01*
X126735637Y-94962564D01*
X126710642Y-94973475D01*
X126663062Y-94981958D01*
X126651958Y-94983630D01*
X126558695Y-94997636D01*
X126558695Y-95995891D01*
X126651958Y-96009897D01*
X126704261Y-96018585D01*
X126732580Y-96028636D01*
X126745010Y-96046215D01*
X126749649Y-96077484D01*
X126750255Y-96084727D01*
X126755289Y-96145550D01*
X126072105Y-96145550D01*
X126072105Y-96020312D01*
X126153589Y-96010661D01*
X126203730Y-96003251D01*
X126240651Y-95995128D01*
X126250907Y-95991225D01*
X126257005Y-95971895D01*
X126261932Y-95925739D01*
X126265300Y-95858363D01*
X126266720Y-95775372D01*
X126266741Y-95763431D01*
X126266741Y-95545423D01*
X125763931Y-95545423D01*
X125763931Y-95995891D01*
X125857194Y-96009897D01*
X125909498Y-96018585D01*
X125937816Y-96028636D01*
X125950246Y-96046215D01*
X125954885Y-96077484D01*
X125955491Y-96084727D01*
X125960525Y-96145550D01*
X125277341Y-96145550D01*
X125277341Y-96019983D01*
X125471977Y-95997963D01*
X125471977Y-94997636D01*
X125378714Y-94983630D01*
X125326411Y-94974942D01*
X125298092Y-94964891D01*
X125285662Y-94947313D01*
X125281023Y-94916043D01*
X125280417Y-94908801D01*
X125275383Y-94847977D01*
X125960525Y-94847977D01*
X125955491Y-94908801D01*
G37*
G36*
X133107264Y-95094721D02*
G01*
X133144829Y-95191256D01*
X133190141Y-95307949D01*
X133239277Y-95434688D01*
X133288319Y-95561362D01*
X133330158Y-95669607D01*
X133456403Y-95996537D01*
X133547492Y-96010220D01*
X133599039Y-96018860D01*
X133626703Y-96029124D01*
X133638694Y-96047376D01*
X133643218Y-96079977D01*
X133643614Y-96084727D01*
X133648648Y-96145550D01*
X132963505Y-96145550D01*
X132968539Y-96085107D01*
X132972838Y-96050809D01*
X132983874Y-96031054D01*
X133009780Y-96019361D01*
X133058692Y-96009249D01*
X133065221Y-96008064D01*
X133156869Y-95991464D01*
X133066443Y-95764388D01*
X132573222Y-95764388D01*
X132534158Y-95860407D01*
X132513748Y-95913590D01*
X132499611Y-95956194D01*
X132495093Y-95976762D01*
X132510106Y-95991321D01*
X132550404Y-96004759D01*
X132580246Y-96010568D01*
X132629683Y-96019505D01*
X132655553Y-96030730D01*
X132666386Y-96051263D01*
X132670434Y-96084793D01*
X132675468Y-96145550D01*
X132105821Y-96145550D01*
X132105821Y-96021044D01*
X132198589Y-96006254D01*
X132291356Y-95991464D01*
X132443410Y-95598366D01*
X132641070Y-95598366D01*
X132656197Y-95603162D01*
X132697213Y-95607038D01*
X132757573Y-95609556D01*
X132819487Y-95610301D01*
X132891181Y-95609290D01*
X132949121Y-95606546D01*
X132986760Y-95602508D01*
X132997903Y-95598366D01*
X132992550Y-95576285D01*
X132978079Y-95531819D01*
X132956870Y-95471301D01*
X132931302Y-95401064D01*
X132903756Y-95327439D01*
X132876613Y-95256759D01*
X132852252Y-95195356D01*
X132833054Y-95149562D01*
X132821398Y-95125708D01*
X132819487Y-95123711D01*
X132811186Y-95137951D01*
X132794472Y-95176450D01*
X132771725Y-95232875D01*
X132745323Y-95300895D01*
X132717649Y-95374177D01*
X132691081Y-95446388D01*
X132668000Y-95511198D01*
X132650787Y-95562273D01*
X132641821Y-95593282D01*
X132641070Y-95598366D01*
X132443410Y-95598366D01*
X132510943Y-95423775D01*
X132730530Y-94856087D01*
X133010614Y-94846765D01*
X133107264Y-95094721D01*
G37*
G36*
X124514754Y-94471281D02*
G01*
X124653739Y-94496758D01*
X124782921Y-94543761D01*
X124867308Y-94591686D01*
X124958036Y-94672379D01*
X125031650Y-94779047D01*
X125087471Y-94909692D01*
X125124817Y-95062320D01*
X125143009Y-95234935D01*
X125142742Y-95399446D01*
X125124022Y-95581351D01*
X125085550Y-95737711D01*
X125026866Y-95869061D01*
X124947509Y-95975935D01*
X124847020Y-96058869D01*
X124724938Y-96118397D01*
X124580802Y-96155055D01*
X124482577Y-96166362D01*
X124403149Y-96168587D01*
X124318196Y-96165756D01*
X124255502Y-96159645D01*
X124110730Y-96125119D01*
X123987202Y-96066612D01*
X123884782Y-95983927D01*
X123803334Y-95876867D01*
X123742723Y-95745235D01*
X123702812Y-95588835D01*
X123683467Y-95407469D01*
X123681451Y-95326457D01*
X123682115Y-95310238D01*
X124004752Y-95310238D01*
X124010472Y-95479117D01*
X124029283Y-95620494D01*
X124061951Y-95736875D01*
X124109240Y-95830766D01*
X124171917Y-95904670D01*
X124191561Y-95921510D01*
X124271466Y-95966065D01*
X124365768Y-95987612D01*
X124465337Y-95985476D01*
X124561045Y-95958982D01*
X124579895Y-95950212D01*
X124660113Y-95892551D01*
X124723898Y-95808277D01*
X124771673Y-95696680D01*
X124800175Y-95578879D01*
X124815885Y-95450958D01*
X124820479Y-95313704D01*
X124814541Y-95175941D01*
X124798655Y-95046497D01*
X124773405Y-94934198D01*
X124753767Y-94878153D01*
X124715993Y-94811566D01*
X124663144Y-94748022D01*
X124604173Y-94696781D01*
X124550495Y-94667887D01*
X124467958Y-94651495D01*
X124377481Y-94650671D01*
X124292987Y-94664746D01*
X124246072Y-94682477D01*
X124168082Y-94735446D01*
X124106383Y-94807267D01*
X124060090Y-94900250D01*
X124028312Y-95016704D01*
X124010164Y-95158938D01*
X124004752Y-95310238D01*
X123682115Y-95310238D01*
X123689049Y-95140748D01*
X123713779Y-94981086D01*
X123756187Y-94845638D01*
X123816819Y-94732574D01*
X123882190Y-94653600D01*
X123980443Y-94577096D01*
X124098809Y-94520235D01*
X124231305Y-94483395D01*
X124371948Y-94466952D01*
X124514754Y-94471281D01*
G37*
G36*
X128180662Y-97289543D02*
G01*
X128325631Y-97290148D01*
X128442263Y-97292052D01*
X128534658Y-97295980D01*
X128606911Y-97302659D01*
X128663121Y-97312812D01*
X128707387Y-97327166D01*
X128743805Y-97346446D01*
X128776473Y-97371377D01*
X128807253Y-97400441D01*
X128869720Y-97483576D01*
X128901918Y-97575487D01*
X128903476Y-97672362D01*
X128874024Y-97770391D01*
X128847885Y-97818125D01*
X128809164Y-97867055D01*
X128763697Y-97908189D01*
X128745166Y-97920144D01*
X128687533Y-97951123D01*
X128749306Y-98046699D01*
X128784623Y-98107228D01*
X128824267Y-98184224D01*
X128861187Y-98263777D01*
X128870947Y-98286709D01*
X128930814Y-98431143D01*
X129005834Y-98441154D01*
X129065681Y-98450145D01*
X129100225Y-98460374D01*
X129116401Y-98476674D01*
X129121148Y-98503881D01*
X129121402Y-98521694D01*
X129121402Y-98579442D01*
X128908370Y-98574917D01*
X128695337Y-98570391D01*
X128601124Y-98344514D01*
X128551674Y-98231152D01*
X128508338Y-98145192D01*
X128468094Y-98082910D01*
X128427920Y-98040581D01*
X128384793Y-98014483D01*
X128335690Y-98000890D01*
X128320549Y-97998828D01*
X128245540Y-97990374D01*
X128245540Y-98428841D01*
X128338803Y-98442847D01*
X128391107Y-98451535D01*
X128419425Y-98461586D01*
X128431855Y-98479165D01*
X128436494Y-98510434D01*
X128437100Y-98517677D01*
X128442134Y-98578501D01*
X127758950Y-98578501D01*
X127758950Y-98521223D01*
X127760688Y-98487751D01*
X127770483Y-98467136D01*
X127795213Y-98454680D01*
X127841751Y-98445681D01*
X127876543Y-98440850D01*
X127953586Y-98430536D01*
X127953586Y-97852050D01*
X128245540Y-97852050D01*
X128374059Y-97846214D01*
X128442679Y-97841667D01*
X128488113Y-97833953D01*
X128519607Y-97820612D01*
X128544638Y-97800864D01*
X128589156Y-97739821D01*
X128610700Y-97667754D01*
X128609315Y-97593382D01*
X128585044Y-97525421D01*
X128543026Y-97476433D01*
X128514043Y-97458630D01*
X128477347Y-97448367D01*
X128423747Y-97443842D01*
X128373110Y-97443124D01*
X128245540Y-97443124D01*
X128245540Y-97852050D01*
X127953586Y-97852050D01*
X127953586Y-97430587D01*
X127860323Y-97416581D01*
X127808089Y-97407940D01*
X127780257Y-97398255D01*
X127769144Y-97381695D01*
X127767067Y-97352429D01*
X127767060Y-97345806D01*
X127767060Y-97289037D01*
X128180662Y-97289543D01*
G37*
G36*
X128421963Y-94842796D02*
G01*
X128516638Y-94852980D01*
X128593403Y-94872863D01*
X128659328Y-94904787D01*
X128721484Y-94951096D01*
X128767228Y-94994017D01*
X128833861Y-95072493D01*
X128881856Y-95158664D01*
X128913181Y-95258474D01*
X128929808Y-95377868D01*
X128933857Y-95496764D01*
X128923399Y-95662982D01*
X128891806Y-95804659D01*
X128838746Y-95922146D01*
X128763890Y-96015790D01*
X128666907Y-96085939D01*
X128547468Y-96132943D01*
X128405240Y-96157151D01*
X128304655Y-96160859D01*
X128173774Y-96153057D01*
X128064357Y-96130707D01*
X128053566Y-96127404D01*
X127947286Y-96077469D01*
X127853792Y-96001632D01*
X127779205Y-95905736D01*
X127741310Y-95829267D01*
X127725937Y-95786351D01*
X127715290Y-95744985D01*
X127708509Y-95697743D01*
X127704733Y-95637202D01*
X127703103Y-95555936D01*
X127702803Y-95496764D01*
X128010355Y-95496764D01*
X128011477Y-95604810D01*
X128015733Y-95687207D01*
X128024457Y-95750695D01*
X128038985Y-95802015D01*
X128060651Y-95847905D01*
X128088626Y-95891981D01*
X128134708Y-95936704D01*
X128199898Y-95973418D01*
X128270898Y-95995591D01*
X128306885Y-95999217D01*
X128358420Y-95992887D01*
X128414033Y-95976938D01*
X128420201Y-95974470D01*
X128491793Y-95934156D01*
X128546273Y-95878346D01*
X128585136Y-95803651D01*
X128609878Y-95706681D01*
X128621994Y-95584044D01*
X128623778Y-95512983D01*
X128618815Y-95367886D01*
X128601115Y-95250481D01*
X128569598Y-95158183D01*
X128523180Y-95088411D01*
X128460777Y-95038581D01*
X128416066Y-95017505D01*
X128321288Y-94996653D01*
X128232207Y-95006511D01*
X128152862Y-95045392D01*
X128087293Y-95111611D01*
X128053867Y-95168741D01*
X128036694Y-95207350D01*
X128024744Y-95242140D01*
X128017077Y-95280207D01*
X128012751Y-95328646D01*
X128010825Y-95394552D01*
X128010358Y-95485019D01*
X128010355Y-95496764D01*
X127702803Y-95496764D01*
X127703108Y-95401071D01*
X127705069Y-95330468D01*
X127709532Y-95277616D01*
X127717341Y-95235176D01*
X127729342Y-95195810D01*
X127740919Y-95165577D01*
X127803186Y-95051632D01*
X127889212Y-94959748D01*
X127998488Y-94890460D01*
X128006341Y-94886770D01*
X128052478Y-94866637D01*
X128092635Y-94853279D01*
X128135532Y-94845317D01*
X128189891Y-94841371D01*
X128264433Y-94840063D01*
X128302309Y-94839969D01*
X128421963Y-94842796D01*
G37*
G36*
X130456676Y-94474329D02*
G01*
X130622735Y-94501903D01*
X130771754Y-94541974D01*
X130824467Y-94558539D01*
X130824467Y-94880416D01*
X130752214Y-94880416D01*
X130707364Y-94878904D01*
X130684823Y-94869369D01*
X130674462Y-94844319D01*
X130670022Y-94819593D01*
X130658675Y-94750682D01*
X130649055Y-94707161D01*
X130636735Y-94682565D01*
X130617293Y-94670432D01*
X130586302Y-94664301D01*
X130561407Y-94660963D01*
X130449089Y-94650004D01*
X130347466Y-94648702D01*
X130262898Y-94656745D01*
X130201745Y-94673822D01*
X130191486Y-94679096D01*
X130122577Y-94733286D01*
X130082860Y-94799551D01*
X130070253Y-94880416D01*
X130078739Y-94948688D01*
X130106167Y-95006549D01*
X130155487Y-95056539D01*
X130229650Y-95101197D01*
X130331610Y-95143063D01*
X130402756Y-95166484D01*
X130542406Y-95214368D01*
X130652972Y-95263767D01*
X130737796Y-95317105D01*
X130800221Y-95376804D01*
X130843589Y-95445289D01*
X130864948Y-95501593D01*
X130889378Y-95630295D01*
X130886302Y-95752826D01*
X130857455Y-95865394D01*
X130804572Y-95964206D01*
X130729389Y-96045472D01*
X130633641Y-96105400D01*
X130579178Y-96125999D01*
X130449694Y-96154627D01*
X130305738Y-96167882D01*
X130161962Y-96164680D01*
X130118912Y-96160071D01*
X130041304Y-96147031D01*
X129953961Y-96128048D01*
X129887782Y-96110607D01*
X129770189Y-96075946D01*
X129770189Y-95723839D01*
X129912387Y-95723839D01*
X129923691Y-95829395D01*
X129931049Y-95883451D01*
X129943007Y-95922075D01*
X129964515Y-95947868D01*
X130000523Y-95963436D01*
X130055981Y-95971381D01*
X130135840Y-95974309D01*
X130200010Y-95974747D01*
X130284660Y-95974410D01*
X130344584Y-95972118D01*
X130387486Y-95966710D01*
X130421071Y-95957026D01*
X130453043Y-95941908D01*
X130466022Y-95934695D01*
X130537431Y-95877302D01*
X130581721Y-95802809D01*
X130597380Y-95713787D01*
X130597392Y-95711122D01*
X130584850Y-95626319D01*
X130548823Y-95558709D01*
X130510411Y-95524044D01*
X130479543Y-95508511D01*
X130425633Y-95485939D01*
X130356447Y-95459435D01*
X130284658Y-95433791D01*
X130164006Y-95390363D01*
X130069753Y-95351788D01*
X129996747Y-95315384D01*
X129939835Y-95278472D01*
X129893864Y-95238371D01*
X129879291Y-95222960D01*
X129822781Y-95137824D01*
X129787132Y-95035372D01*
X129773563Y-94924108D01*
X129783294Y-94812534D01*
X129808450Y-94729304D01*
X129863029Y-94639094D01*
X129942195Y-94567347D01*
X130043546Y-94514530D01*
X130164678Y-94481109D01*
X130303189Y-94467553D01*
X130456676Y-94474329D01*
G37*
G36*
X122053682Y-96927784D02*
G01*
X122349691Y-96932204D01*
X122354608Y-96991061D01*
X122355584Y-97029649D01*
X122344052Y-97048477D01*
X122311352Y-97058146D01*
X122297839Y-97060550D01*
X122244035Y-97070122D01*
X122195869Y-97079154D01*
X122192480Y-97079820D01*
X122148806Y-97088460D01*
X122143750Y-97667229D01*
X122142233Y-97831012D01*
X122140370Y-97965869D01*
X122137494Y-98075315D01*
X122132937Y-98162860D01*
X122126032Y-98232019D01*
X122116111Y-98286302D01*
X122102505Y-98329224D01*
X122084548Y-98364296D01*
X122061571Y-98395032D01*
X122032907Y-98424944D01*
X121997889Y-98457544D01*
X121992597Y-98462380D01*
X121921487Y-98518872D01*
X121850776Y-98554822D01*
X121811875Y-98567482D01*
X121724053Y-98585808D01*
X121620114Y-98597998D01*
X121512802Y-98603300D01*
X121414856Y-98600965D01*
X121357805Y-98594226D01*
X121214360Y-98556933D01*
X121096366Y-98501393D01*
X121004513Y-98428120D01*
X120939493Y-98337625D01*
X120909413Y-98261143D01*
X120901647Y-98229302D01*
X120895447Y-98192553D01*
X120890646Y-98147063D01*
X120887079Y-98088995D01*
X120884579Y-98014515D01*
X120882980Y-97919788D01*
X120882115Y-97800978D01*
X120881817Y-97654250D01*
X120881811Y-97624840D01*
X120881811Y-97086909D01*
X120845317Y-97079425D01*
X120804348Y-97071742D01*
X120753168Y-97062998D01*
X120747999Y-97062161D01*
X120708795Y-97053567D01*
X120691547Y-97037606D01*
X120687271Y-97003359D01*
X120687175Y-96988238D01*
X120687175Y-96924095D01*
X121384621Y-96924095D01*
X121384621Y-96988238D01*
X121382449Y-97029931D01*
X121369943Y-97050131D01*
X121338121Y-97059757D01*
X121323797Y-97062161D01*
X121272818Y-97070789D01*
X121229714Y-97078771D01*
X121226479Y-97079425D01*
X121189985Y-97086909D01*
X121190075Y-97609685D01*
X121190659Y-97762405D01*
X121192297Y-97896938D01*
X121194905Y-98010398D01*
X121198397Y-98099904D01*
X121202688Y-98162570D01*
X121207374Y-98194432D01*
X121238251Y-98261047D01*
X121288804Y-98325571D01*
X121349351Y-98377427D01*
X121397855Y-98402471D01*
X121444391Y-98412642D01*
X121509414Y-98419825D01*
X121579009Y-98422493D01*
X121580322Y-98422490D01*
X121692784Y-98413366D01*
X121781477Y-98385569D01*
X121850377Y-98337237D01*
X121899824Y-98272824D01*
X121944199Y-98197338D01*
X121954241Y-97087394D01*
X121916781Y-97079667D01*
X121875053Y-97071801D01*
X121823466Y-97062966D01*
X121818497Y-97062161D01*
X121779374Y-97053606D01*
X121762103Y-97037738D01*
X121757778Y-97003679D01*
X121757673Y-96987872D01*
X121757673Y-96923363D01*
X122053682Y-96927784D01*
G37*
G36*
X129904482Y-97279488D02*
G01*
X129940496Y-97285707D01*
X130027546Y-97302488D01*
X130087843Y-97316950D01*
X130126287Y-97333877D01*
X130147778Y-97358051D01*
X130157215Y-97394258D01*
X130159497Y-97447279D01*
X130159461Y-97499491D01*
X130159461Y-97653980D01*
X130095675Y-97653980D01*
X130059928Y-97652470D01*
X130037420Y-97643526D01*
X130023383Y-97620528D01*
X130013050Y-97576853D01*
X130005125Y-97528226D01*
X129998556Y-97493094D01*
X129987750Y-97470086D01*
X129966297Y-97455725D01*
X129927788Y-97446531D01*
X129865812Y-97439025D01*
X129835068Y-97435921D01*
X129732803Y-97435073D01*
X129649946Y-97453761D01*
X129589074Y-97490543D01*
X129552760Y-97543978D01*
X129543114Y-97599363D01*
X129551157Y-97649417D01*
X129577594Y-97691804D01*
X129625886Y-97729190D01*
X129699493Y-97764243D01*
X129801878Y-97799628D01*
X129803871Y-97800243D01*
X129880169Y-97824826D01*
X129951013Y-97849567D01*
X130006813Y-97871017D01*
X130031239Y-97881950D01*
X130114301Y-97941299D01*
X130174620Y-98020937D01*
X130210222Y-98116232D01*
X130219131Y-98222556D01*
X130208952Y-98298711D01*
X130172124Y-98393397D01*
X130108647Y-98473188D01*
X130022361Y-98534269D01*
X129938580Y-98567354D01*
X129841067Y-98585700D01*
X129724610Y-98593603D01*
X129600939Y-98591180D01*
X129481781Y-98578549D01*
X129400575Y-98561964D01*
X129341397Y-98545761D01*
X129294237Y-98531561D01*
X129268190Y-98522124D01*
X129266762Y-98521350D01*
X129260173Y-98502012D01*
X129254960Y-98457662D01*
X129251797Y-98395719D01*
X129251160Y-98349535D01*
X129251160Y-98187363D01*
X129320093Y-98192351D01*
X129389027Y-98197338D01*
X129403270Y-98297363D01*
X129411082Y-98345833D01*
X129421997Y-98378865D01*
X129441661Y-98399430D01*
X129475719Y-98410502D01*
X129529816Y-98415050D01*
X129609598Y-98416048D01*
X129628788Y-98416083D01*
X129742015Y-98410022D01*
X129827071Y-98390688D01*
X129885870Y-98356951D01*
X129920321Y-98307679D01*
X129932336Y-98241742D01*
X129932386Y-98236466D01*
X129926508Y-98184765D01*
X129906047Y-98143413D01*
X129866756Y-98108842D01*
X129804393Y-98077483D01*
X129714712Y-98045768D01*
X129700189Y-98041236D01*
X129571928Y-97998387D01*
X129471913Y-97956626D01*
X129396188Y-97913150D01*
X129340795Y-97865152D01*
X129301775Y-97809827D01*
X129275171Y-97744370D01*
X129273507Y-97738771D01*
X129259207Y-97642846D01*
X129268527Y-97545744D01*
X129299309Y-97456601D01*
X129349394Y-97384553D01*
X129359509Y-97374810D01*
X129433649Y-97326789D01*
X129531456Y-97292289D01*
X129646690Y-97272268D01*
X129773112Y-97267682D01*
X129904482Y-97279488D01*
G37*
D14*
%TO.C,J3*%
X144551600Y-47218400D02*
X144551600Y-75006400D01*
X137337600Y-47218400D02*
X144551600Y-47218400D01*
X144551600Y-75006400D02*
X137337600Y-75006400D01*
X137337600Y-75006400D02*
X137337600Y-47218400D01*
D15*
X135903080Y-50678080D02*
G75*
G03*
X135903080Y-50678080I-100000J0D01*
G01*
D14*
%TO.C,J4*%
X144547000Y-76123600D02*
X144547000Y-103911600D01*
X137333000Y-76123600D02*
X144547000Y-76123600D01*
X144547000Y-103911600D02*
X137333000Y-103911600D01*
X137333000Y-103911600D02*
X137333000Y-76123600D01*
D15*
X135898480Y-79583280D02*
G75*
G03*
X135898480Y-79583280I-100000J0D01*
G01*
D14*
%TO.C,J1*%
X98857000Y-47167600D02*
X98857000Y-74955600D01*
X91643000Y-47167600D02*
X98857000Y-47167600D01*
X98857000Y-74955600D02*
X91643000Y-74955600D01*
X91643000Y-74955600D02*
X91643000Y-47167600D01*
D15*
X90208480Y-50627280D02*
G75*
G03*
X90208480Y-50627280I-100000J0D01*
G01*
%TD*%
M02*
