M48
; DRILL file {KiCad 7.0.7} date Tue Sep 12 23:40:53 2023
; FORMAT={-:-/ absolute / inch / decimal}
; #@! TF.CreationDate,2023-09-12T23:40:53-05:00
; #@! TF.GenerationSoftware,Kicad,Pcbnew,7.0.7
; #@! TF.FileFunction,Plated,1,2,PTH
FMAT,2
INCH
; #@! TA.AperFunction,Plated,PTH,ComponentDrill
T1C0.0220
%
G90
G05
T1
X3.6986Y-3.144
X3.699Y-3.194
X3.699Y-3.244
X3.699Y-3.294
X3.699Y-3.344
X3.699Y-3.394
X3.699Y-3.444
X3.699Y-3.494
X3.699Y-3.544
X3.699Y-3.594
X3.699Y-3.644
X3.699Y-3.694
X3.699Y-3.744
X3.699Y-3.794
X3.699Y-3.844
X3.699Y-3.894
X3.699Y-3.944
X3.6996Y-2.004
X3.7Y-2.054
X3.7Y-2.104
X3.7Y-2.154
X3.7Y-2.204
X3.7Y-2.254
X3.7Y-2.304
X3.7Y-2.354
X3.7Y-2.404
X3.7Y-2.454
X3.7Y-2.504
X3.7Y-2.554
X3.7Y-2.604
X3.7Y-2.654
X3.7Y-2.704
X3.7Y-2.754
X3.7Y-2.804
X3.799Y-3.194
X3.799Y-3.244
X3.799Y-3.294
X3.799Y-3.344
X3.799Y-3.394
X3.799Y-3.444
X3.799Y-3.494
X3.799Y-3.544
X3.799Y-3.594
X3.799Y-3.644
X3.799Y-3.694
X3.799Y-3.744
X3.799Y-3.794
X3.799Y-3.844
X3.799Y-3.894
X3.799Y-3.944
X3.7994Y-3.144
X3.8Y-2.054
X3.8Y-2.104
X3.8Y-2.154
X3.8Y-2.204
X3.8Y-2.254
X3.8Y-2.304
X3.8Y-2.354
X3.8Y-2.404
X3.8Y-2.454
X3.8Y-2.504
X3.8Y-2.554
X3.8Y-2.604
X3.8Y-2.654
X3.8Y-2.704
X3.8Y-2.754
X3.8Y-2.804
X3.8004Y-2.004
X5.4984Y-3.144
X5.4986Y-2.006
X5.4988Y-3.194
X5.4988Y-3.244
X5.4988Y-3.294
X5.4988Y-3.344
X5.4988Y-3.394
X5.4988Y-3.444
X5.4988Y-3.494
X5.4988Y-3.544
X5.4988Y-3.594
X5.4988Y-3.644
X5.4988Y-3.694
X5.4988Y-3.744
X5.4988Y-3.794
X5.4988Y-3.844
X5.4988Y-3.894
X5.4988Y-3.944
X5.499Y-2.056
X5.499Y-2.106
X5.499Y-2.156
X5.499Y-2.206
X5.499Y-2.256
X5.499Y-2.306
X5.499Y-2.356
X5.499Y-2.406
X5.499Y-2.456
X5.499Y-2.506
X5.499Y-2.556
X5.499Y-2.606
X5.499Y-2.656
X5.499Y-2.706
X5.499Y-2.756
X5.499Y-2.806
X5.5988Y-3.194
X5.5988Y-3.244
X5.5988Y-3.294
X5.5988Y-3.344
X5.5988Y-3.394
X5.5988Y-3.444
X5.5988Y-3.494
X5.5988Y-3.544
X5.5988Y-3.594
X5.5988Y-3.644
X5.5988Y-3.694
X5.5988Y-3.744
X5.5988Y-3.794
X5.5988Y-3.844
X5.5988Y-3.894
X5.5988Y-3.944
X5.599Y-2.056
X5.599Y-2.106
X5.599Y-2.156
X5.599Y-2.206
X5.599Y-2.256
X5.599Y-2.306
X5.599Y-2.356
X5.599Y-2.406
X5.599Y-2.456
X5.599Y-2.506
X5.599Y-2.556
X5.599Y-2.606
X5.599Y-2.656
X5.599Y-2.706
X5.599Y-2.756
X5.599Y-2.806
X5.5992Y-3.144
X5.5994Y-2.006
T0
M30
