%TF.GenerationSoftware,KiCad,Pcbnew,7.0.7*%
%TF.CreationDate,2023-09-12T23:40:55-05:00*%
%TF.ProjectId,Temps_South,54656d70-735f-4536-9f75-74682e6b6963,B*%
%TF.SameCoordinates,Original*%
%TF.FileFunction,Profile,NP*%
%FSLAX46Y46*%
G04 Gerber Fmt 4.6, Leading zero omitted, Abs format (unit mm)*
G04 Created by KiCad (PCBNEW 7.0.7) date 2023-09-12 23:40:55*
%MOMM*%
%LPD*%
G01*
G04 APERTURE LIST*
%ADD10C,0.150000*%
%TA.AperFunction,Profile*%
%ADD11C,0.100000*%
%TD*%
G04 APERTURE END LIST*
D10*
X114014762Y-43292420D02*
X113538572Y-43292420D01*
X113538572Y-43292420D02*
X113490953Y-43768610D01*
X113490953Y-43768610D02*
X113538572Y-43720991D01*
X113538572Y-43720991D02*
X113633810Y-43673372D01*
X113633810Y-43673372D02*
X113871905Y-43673372D01*
X113871905Y-43673372D02*
X113967143Y-43720991D01*
X113967143Y-43720991D02*
X114014762Y-43768610D01*
X114014762Y-43768610D02*
X114062381Y-43863848D01*
X114062381Y-43863848D02*
X114062381Y-44101943D01*
X114062381Y-44101943D02*
X114014762Y-44197181D01*
X114014762Y-44197181D02*
X113967143Y-44244801D01*
X113967143Y-44244801D02*
X113871905Y-44292420D01*
X113871905Y-44292420D02*
X113633810Y-44292420D01*
X113633810Y-44292420D02*
X113538572Y-44244801D01*
X113538572Y-44244801D02*
X113490953Y-44197181D01*
X114395715Y-43292420D02*
X115014762Y-43292420D01*
X115014762Y-43292420D02*
X114681429Y-43673372D01*
X114681429Y-43673372D02*
X114824286Y-43673372D01*
X114824286Y-43673372D02*
X114919524Y-43720991D01*
X114919524Y-43720991D02*
X114967143Y-43768610D01*
X114967143Y-43768610D02*
X115014762Y-43863848D01*
X115014762Y-43863848D02*
X115014762Y-44101943D01*
X115014762Y-44101943D02*
X114967143Y-44197181D01*
X114967143Y-44197181D02*
X114919524Y-44244801D01*
X114919524Y-44244801D02*
X114824286Y-44292420D01*
X114824286Y-44292420D02*
X114538572Y-44292420D01*
X114538572Y-44292420D02*
X114443334Y-44244801D01*
X114443334Y-44244801D02*
X114395715Y-44197181D01*
X115443334Y-44197181D02*
X115490953Y-44244801D01*
X115490953Y-44244801D02*
X115443334Y-44292420D01*
X115443334Y-44292420D02*
X115395715Y-44244801D01*
X115395715Y-44244801D02*
X115443334Y-44197181D01*
X115443334Y-44197181D02*
X115443334Y-44292420D01*
X115824286Y-43292420D02*
X116443333Y-43292420D01*
X116443333Y-43292420D02*
X116110000Y-43673372D01*
X116110000Y-43673372D02*
X116252857Y-43673372D01*
X116252857Y-43673372D02*
X116348095Y-43720991D01*
X116348095Y-43720991D02*
X116395714Y-43768610D01*
X116395714Y-43768610D02*
X116443333Y-43863848D01*
X116443333Y-43863848D02*
X116443333Y-44101943D01*
X116443333Y-44101943D02*
X116395714Y-44197181D01*
X116395714Y-44197181D02*
X116348095Y-44244801D01*
X116348095Y-44244801D02*
X116252857Y-44292420D01*
X116252857Y-44292420D02*
X115967143Y-44292420D01*
X115967143Y-44292420D02*
X115871905Y-44244801D01*
X115871905Y-44244801D02*
X115824286Y-44197181D01*
X117300476Y-43625753D02*
X117300476Y-44292420D01*
X117062381Y-43244801D02*
X116824286Y-43959086D01*
X116824286Y-43959086D02*
X117443333Y-43959086D01*
X118014762Y-43292420D02*
X118110000Y-43292420D01*
X118110000Y-43292420D02*
X118205238Y-43340039D01*
X118205238Y-43340039D02*
X118252857Y-43387658D01*
X118252857Y-43387658D02*
X118300476Y-43482896D01*
X118300476Y-43482896D02*
X118348095Y-43673372D01*
X118348095Y-43673372D02*
X118348095Y-43911467D01*
X118348095Y-43911467D02*
X118300476Y-44101943D01*
X118300476Y-44101943D02*
X118252857Y-44197181D01*
X118252857Y-44197181D02*
X118205238Y-44244801D01*
X118205238Y-44244801D02*
X118110000Y-44292420D01*
X118110000Y-44292420D02*
X118014762Y-44292420D01*
X118014762Y-44292420D02*
X117919524Y-44244801D01*
X117919524Y-44244801D02*
X117871905Y-44197181D01*
X117871905Y-44197181D02*
X117824286Y-44101943D01*
X117824286Y-44101943D02*
X117776667Y-43911467D01*
X117776667Y-43911467D02*
X117776667Y-43673372D01*
X117776667Y-43673372D02*
X117824286Y-43482896D01*
X117824286Y-43482896D02*
X117871905Y-43387658D01*
X117871905Y-43387658D02*
X117919524Y-43340039D01*
X117919524Y-43340039D02*
X118014762Y-43292420D01*
X118967143Y-43292420D02*
X119062381Y-43292420D01*
X119062381Y-43292420D02*
X119157619Y-43340039D01*
X119157619Y-43340039D02*
X119205238Y-43387658D01*
X119205238Y-43387658D02*
X119252857Y-43482896D01*
X119252857Y-43482896D02*
X119300476Y-43673372D01*
X119300476Y-43673372D02*
X119300476Y-43911467D01*
X119300476Y-43911467D02*
X119252857Y-44101943D01*
X119252857Y-44101943D02*
X119205238Y-44197181D01*
X119205238Y-44197181D02*
X119157619Y-44244801D01*
X119157619Y-44244801D02*
X119062381Y-44292420D01*
X119062381Y-44292420D02*
X118967143Y-44292420D01*
X118967143Y-44292420D02*
X118871905Y-44244801D01*
X118871905Y-44244801D02*
X118824286Y-44197181D01*
X118824286Y-44197181D02*
X118776667Y-44101943D01*
X118776667Y-44101943D02*
X118729048Y-43911467D01*
X118729048Y-43911467D02*
X118729048Y-43673372D01*
X118729048Y-43673372D02*
X118776667Y-43482896D01*
X118776667Y-43482896D02*
X118824286Y-43387658D01*
X118824286Y-43387658D02*
X118871905Y-43340039D01*
X118871905Y-43340039D02*
X118967143Y-43292420D01*
X120490953Y-44292420D02*
X120490953Y-43625753D01*
X120490953Y-43720991D02*
X120538572Y-43673372D01*
X120538572Y-43673372D02*
X120633810Y-43625753D01*
X120633810Y-43625753D02*
X120776667Y-43625753D01*
X120776667Y-43625753D02*
X120871905Y-43673372D01*
X120871905Y-43673372D02*
X120919524Y-43768610D01*
X120919524Y-43768610D02*
X120919524Y-44292420D01*
X120919524Y-43768610D02*
X120967143Y-43673372D01*
X120967143Y-43673372D02*
X121062381Y-43625753D01*
X121062381Y-43625753D02*
X121205238Y-43625753D01*
X121205238Y-43625753D02*
X121300477Y-43673372D01*
X121300477Y-43673372D02*
X121348096Y-43768610D01*
X121348096Y-43768610D02*
X121348096Y-44292420D01*
X121824286Y-44292420D02*
X121824286Y-43625753D01*
X121824286Y-43720991D02*
X121871905Y-43673372D01*
X121871905Y-43673372D02*
X121967143Y-43625753D01*
X121967143Y-43625753D02*
X122110000Y-43625753D01*
X122110000Y-43625753D02*
X122205238Y-43673372D01*
X122205238Y-43673372D02*
X122252857Y-43768610D01*
X122252857Y-43768610D02*
X122252857Y-44292420D01*
X122252857Y-43768610D02*
X122300476Y-43673372D01*
X122300476Y-43673372D02*
X122395714Y-43625753D01*
X122395714Y-43625753D02*
X122538571Y-43625753D01*
X122538571Y-43625753D02*
X122633810Y-43673372D01*
X122633810Y-43673372D02*
X122681429Y-43768610D01*
X122681429Y-43768610D02*
X122681429Y-44292420D01*
D11*
X144780000Y-46490000D02*
X144780000Y-44401181D01*
X91440000Y-46490000D02*
X91440000Y-44401181D01*
X144780000Y-44987601D02*
X91440000Y-44987601D01*
X144780000Y-44987601D02*
X91440000Y-44987601D01*
X144780000Y-44987601D02*
X143653496Y-45574022D01*
X144780000Y-44987601D02*
X143653496Y-44401180D01*
X91440000Y-44987601D02*
X92566504Y-44401180D01*
X91440000Y-44987601D02*
X92566504Y-45574022D01*
D10*
X146612219Y-79660237D02*
X146612219Y-80136427D01*
X146612219Y-80136427D02*
X147088409Y-80184046D01*
X147088409Y-80184046D02*
X147040790Y-80136427D01*
X147040790Y-80136427D02*
X146993171Y-80041189D01*
X146993171Y-80041189D02*
X146993171Y-79803094D01*
X146993171Y-79803094D02*
X147040790Y-79707856D01*
X147040790Y-79707856D02*
X147088409Y-79660237D01*
X147088409Y-79660237D02*
X147183647Y-79612618D01*
X147183647Y-79612618D02*
X147421742Y-79612618D01*
X147421742Y-79612618D02*
X147516980Y-79660237D01*
X147516980Y-79660237D02*
X147564600Y-79707856D01*
X147564600Y-79707856D02*
X147612219Y-79803094D01*
X147612219Y-79803094D02*
X147612219Y-80041189D01*
X147612219Y-80041189D02*
X147564600Y-80136427D01*
X147564600Y-80136427D02*
X147516980Y-80184046D01*
X146612219Y-79279284D02*
X146612219Y-78612618D01*
X146612219Y-78612618D02*
X147612219Y-79041189D01*
X147516980Y-78231665D02*
X147564600Y-78184046D01*
X147564600Y-78184046D02*
X147612219Y-78231665D01*
X147612219Y-78231665D02*
X147564600Y-78279284D01*
X147564600Y-78279284D02*
X147516980Y-78231665D01*
X147516980Y-78231665D02*
X147612219Y-78231665D01*
X147612219Y-77231666D02*
X147612219Y-77803094D01*
X147612219Y-77517380D02*
X146612219Y-77517380D01*
X146612219Y-77517380D02*
X146755076Y-77612618D01*
X146755076Y-77612618D02*
X146850314Y-77707856D01*
X146850314Y-77707856D02*
X146897933Y-77803094D01*
X146612219Y-76326904D02*
X146612219Y-76803094D01*
X146612219Y-76803094D02*
X147088409Y-76850713D01*
X147088409Y-76850713D02*
X147040790Y-76803094D01*
X147040790Y-76803094D02*
X146993171Y-76707856D01*
X146993171Y-76707856D02*
X146993171Y-76469761D01*
X146993171Y-76469761D02*
X147040790Y-76374523D01*
X147040790Y-76374523D02*
X147088409Y-76326904D01*
X147088409Y-76326904D02*
X147183647Y-76279285D01*
X147183647Y-76279285D02*
X147421742Y-76279285D01*
X147421742Y-76279285D02*
X147516980Y-76326904D01*
X147516980Y-76326904D02*
X147564600Y-76374523D01*
X147564600Y-76374523D02*
X147612219Y-76469761D01*
X147612219Y-76469761D02*
X147612219Y-76707856D01*
X147612219Y-76707856D02*
X147564600Y-76803094D01*
X147564600Y-76803094D02*
X147516980Y-76850713D01*
X146612219Y-75660237D02*
X146612219Y-75564999D01*
X146612219Y-75564999D02*
X146659838Y-75469761D01*
X146659838Y-75469761D02*
X146707457Y-75422142D01*
X146707457Y-75422142D02*
X146802695Y-75374523D01*
X146802695Y-75374523D02*
X146993171Y-75326904D01*
X146993171Y-75326904D02*
X147231266Y-75326904D01*
X147231266Y-75326904D02*
X147421742Y-75374523D01*
X147421742Y-75374523D02*
X147516980Y-75422142D01*
X147516980Y-75422142D02*
X147564600Y-75469761D01*
X147564600Y-75469761D02*
X147612219Y-75564999D01*
X147612219Y-75564999D02*
X147612219Y-75660237D01*
X147612219Y-75660237D02*
X147564600Y-75755475D01*
X147564600Y-75755475D02*
X147516980Y-75803094D01*
X147516980Y-75803094D02*
X147421742Y-75850713D01*
X147421742Y-75850713D02*
X147231266Y-75898332D01*
X147231266Y-75898332D02*
X146993171Y-75898332D01*
X146993171Y-75898332D02*
X146802695Y-75850713D01*
X146802695Y-75850713D02*
X146707457Y-75803094D01*
X146707457Y-75803094D02*
X146659838Y-75755475D01*
X146659838Y-75755475D02*
X146612219Y-75660237D01*
X146612219Y-74707856D02*
X146612219Y-74612618D01*
X146612219Y-74612618D02*
X146659838Y-74517380D01*
X146659838Y-74517380D02*
X146707457Y-74469761D01*
X146707457Y-74469761D02*
X146802695Y-74422142D01*
X146802695Y-74422142D02*
X146993171Y-74374523D01*
X146993171Y-74374523D02*
X147231266Y-74374523D01*
X147231266Y-74374523D02*
X147421742Y-74422142D01*
X147421742Y-74422142D02*
X147516980Y-74469761D01*
X147516980Y-74469761D02*
X147564600Y-74517380D01*
X147564600Y-74517380D02*
X147612219Y-74612618D01*
X147612219Y-74612618D02*
X147612219Y-74707856D01*
X147612219Y-74707856D02*
X147564600Y-74803094D01*
X147564600Y-74803094D02*
X147516980Y-74850713D01*
X147516980Y-74850713D02*
X147421742Y-74898332D01*
X147421742Y-74898332D02*
X147231266Y-74945951D01*
X147231266Y-74945951D02*
X146993171Y-74945951D01*
X146993171Y-74945951D02*
X146802695Y-74898332D01*
X146802695Y-74898332D02*
X146707457Y-74850713D01*
X146707457Y-74850713D02*
X146659838Y-74803094D01*
X146659838Y-74803094D02*
X146612219Y-74707856D01*
X147612219Y-73184046D02*
X146945552Y-73184046D01*
X147040790Y-73184046D02*
X146993171Y-73136427D01*
X146993171Y-73136427D02*
X146945552Y-73041189D01*
X146945552Y-73041189D02*
X146945552Y-72898332D01*
X146945552Y-72898332D02*
X146993171Y-72803094D01*
X146993171Y-72803094D02*
X147088409Y-72755475D01*
X147088409Y-72755475D02*
X147612219Y-72755475D01*
X147088409Y-72755475D02*
X146993171Y-72707856D01*
X146993171Y-72707856D02*
X146945552Y-72612618D01*
X146945552Y-72612618D02*
X146945552Y-72469761D01*
X146945552Y-72469761D02*
X146993171Y-72374522D01*
X146993171Y-72374522D02*
X147088409Y-72326903D01*
X147088409Y-72326903D02*
X147612219Y-72326903D01*
X147612219Y-71850713D02*
X146945552Y-71850713D01*
X147040790Y-71850713D02*
X146993171Y-71803094D01*
X146993171Y-71803094D02*
X146945552Y-71707856D01*
X146945552Y-71707856D02*
X146945552Y-71564999D01*
X146945552Y-71564999D02*
X146993171Y-71469761D01*
X146993171Y-71469761D02*
X147088409Y-71422142D01*
X147088409Y-71422142D02*
X147612219Y-71422142D01*
X147088409Y-71422142D02*
X146993171Y-71374523D01*
X146993171Y-71374523D02*
X146945552Y-71279285D01*
X146945552Y-71279285D02*
X146945552Y-71136428D01*
X146945552Y-71136428D02*
X146993171Y-71041189D01*
X146993171Y-71041189D02*
X147088409Y-70993570D01*
X147088409Y-70993570D02*
X147612219Y-70993570D01*
D11*
X145280000Y-104140000D02*
X148893820Y-104140000D01*
X145280000Y-46990000D02*
X148893820Y-46990000D01*
X148307400Y-104140000D02*
X148307400Y-46990000D01*
X148307400Y-104140000D02*
X148307400Y-46990000D01*
X148307400Y-104140000D02*
X147720979Y-103013496D01*
X148307400Y-104140000D02*
X148893821Y-103013496D01*
X148307400Y-46990000D02*
X148893821Y-48116504D01*
X148307400Y-46990000D02*
X147720979Y-48116504D01*
X91440000Y-46990000D02*
X144780000Y-46990000D01*
X144780000Y-104140000D01*
X91440000Y-104140000D01*
X91440000Y-46990000D01*
M02*
