%TF.GenerationSoftware,KiCad,Pcbnew,7.0.7*%
%TF.CreationDate,2023-09-14T15:53:42-04:00*%
%TF.ProjectId,Heater_South_DCT_HSK,48656174-6572-45f5-936f-7574685f4443,rev?*%
%TF.SameCoordinates,Original*%
%TF.FileFunction,Legend,Top*%
%TF.FilePolarity,Positive*%
%FSLAX46Y46*%
G04 Gerber Fmt 4.6, Leading zero omitted, Abs format (unit mm)*
G04 Created by KiCad (PCBNEW 7.0.7) date 2023-09-14 15:53:42*
%MOMM*%
%LPD*%
G01*
G04 APERTURE LIST*
%ADD10C,0.150000*%
%ADD11C,0.400000*%
%ADD12C,0.200000*%
%ADD13C,0.127000*%
%TA.AperFunction,Profile*%
%ADD14C,0.100000*%
%TD*%
G04 APERTURE END LIST*
D10*
X148615400Y-72390000D02*
G75*
G03*
X148615400Y-72390000I-25400J0D01*
G01*
X103200200Y-89890600D02*
G75*
G03*
X103200200Y-89890600I-25400J0D01*
G01*
X103200200Y-54864000D02*
G75*
G03*
X103200200Y-54864000I-25400J0D01*
G01*
D11*
X142131047Y-93589224D02*
X142131047Y-92160653D01*
X144631047Y-92874939D02*
X142131047Y-92874939D01*
X144631047Y-90970177D02*
X144512000Y-91208272D01*
X144512000Y-91208272D02*
X144392952Y-91327319D01*
X144392952Y-91327319D02*
X144154857Y-91446367D01*
X144154857Y-91446367D02*
X143440571Y-91446367D01*
X143440571Y-91446367D02*
X143202476Y-91327319D01*
X143202476Y-91327319D02*
X143083428Y-91208272D01*
X143083428Y-91208272D02*
X142964380Y-90970177D01*
X142964380Y-90970177D02*
X142964380Y-90613034D01*
X142964380Y-90613034D02*
X143083428Y-90374938D01*
X143083428Y-90374938D02*
X143202476Y-90255891D01*
X143202476Y-90255891D02*
X143440571Y-90136843D01*
X143440571Y-90136843D02*
X144154857Y-90136843D01*
X144154857Y-90136843D02*
X144392952Y-90255891D01*
X144392952Y-90255891D02*
X144512000Y-90374938D01*
X144512000Y-90374938D02*
X144631047Y-90613034D01*
X144631047Y-90613034D02*
X144631047Y-90970177D01*
X144631047Y-87160652D02*
X142131047Y-87160652D01*
X142131047Y-87160652D02*
X142131047Y-86565414D01*
X142131047Y-86565414D02*
X142250095Y-86208271D01*
X142250095Y-86208271D02*
X142488190Y-85970176D01*
X142488190Y-85970176D02*
X142726285Y-85851129D01*
X142726285Y-85851129D02*
X143202476Y-85732081D01*
X143202476Y-85732081D02*
X143559619Y-85732081D01*
X143559619Y-85732081D02*
X144035809Y-85851129D01*
X144035809Y-85851129D02*
X144273904Y-85970176D01*
X144273904Y-85970176D02*
X144512000Y-86208271D01*
X144512000Y-86208271D02*
X144631047Y-86565414D01*
X144631047Y-86565414D02*
X144631047Y-87160652D01*
X144392952Y-83232081D02*
X144512000Y-83351129D01*
X144512000Y-83351129D02*
X144631047Y-83708271D01*
X144631047Y-83708271D02*
X144631047Y-83946367D01*
X144631047Y-83946367D02*
X144512000Y-84303510D01*
X144512000Y-84303510D02*
X144273904Y-84541605D01*
X144273904Y-84541605D02*
X144035809Y-84660652D01*
X144035809Y-84660652D02*
X143559619Y-84779700D01*
X143559619Y-84779700D02*
X143202476Y-84779700D01*
X143202476Y-84779700D02*
X142726285Y-84660652D01*
X142726285Y-84660652D02*
X142488190Y-84541605D01*
X142488190Y-84541605D02*
X142250095Y-84303510D01*
X142250095Y-84303510D02*
X142131047Y-83946367D01*
X142131047Y-83946367D02*
X142131047Y-83708271D01*
X142131047Y-83708271D02*
X142250095Y-83351129D01*
X142250095Y-83351129D02*
X142369142Y-83232081D01*
X142131047Y-82517795D02*
X142131047Y-81089224D01*
X144631047Y-81803510D02*
X142131047Y-81803510D01*
X144631047Y-78351128D02*
X142131047Y-78351128D01*
X143321523Y-78351128D02*
X143321523Y-76922557D01*
X144631047Y-76922557D02*
X142131047Y-76922557D01*
X144512000Y-75851128D02*
X144631047Y-75493985D01*
X144631047Y-75493985D02*
X144631047Y-74898747D01*
X144631047Y-74898747D02*
X144512000Y-74660652D01*
X144512000Y-74660652D02*
X144392952Y-74541604D01*
X144392952Y-74541604D02*
X144154857Y-74422557D01*
X144154857Y-74422557D02*
X143916761Y-74422557D01*
X143916761Y-74422557D02*
X143678666Y-74541604D01*
X143678666Y-74541604D02*
X143559619Y-74660652D01*
X143559619Y-74660652D02*
X143440571Y-74898747D01*
X143440571Y-74898747D02*
X143321523Y-75374938D01*
X143321523Y-75374938D02*
X143202476Y-75613033D01*
X143202476Y-75613033D02*
X143083428Y-75732080D01*
X143083428Y-75732080D02*
X142845333Y-75851128D01*
X142845333Y-75851128D02*
X142607238Y-75851128D01*
X142607238Y-75851128D02*
X142369142Y-75732080D01*
X142369142Y-75732080D02*
X142250095Y-75613033D01*
X142250095Y-75613033D02*
X142131047Y-75374938D01*
X142131047Y-75374938D02*
X142131047Y-74779699D01*
X142131047Y-74779699D02*
X142250095Y-74422557D01*
X144631047Y-73351128D02*
X142131047Y-73351128D01*
X144631047Y-71922557D02*
X143202476Y-72993986D01*
X142131047Y-71922557D02*
X143559619Y-73351128D01*
X113213523Y-89976490D02*
X113213523Y-90809823D01*
X114523047Y-90809823D02*
X112023047Y-90809823D01*
X112023047Y-90809823D02*
X112023047Y-89619347D01*
X114523047Y-88666966D02*
X112856380Y-88666966D01*
X113332571Y-88666966D02*
X113094476Y-88547919D01*
X113094476Y-88547919D02*
X112975428Y-88428871D01*
X112975428Y-88428871D02*
X112856380Y-88190776D01*
X112856380Y-88190776D02*
X112856380Y-87952681D01*
X114523047Y-86762205D02*
X114404000Y-87000300D01*
X114404000Y-87000300D02*
X114284952Y-87119347D01*
X114284952Y-87119347D02*
X114046857Y-87238395D01*
X114046857Y-87238395D02*
X113332571Y-87238395D01*
X113332571Y-87238395D02*
X113094476Y-87119347D01*
X113094476Y-87119347D02*
X112975428Y-87000300D01*
X112975428Y-87000300D02*
X112856380Y-86762205D01*
X112856380Y-86762205D02*
X112856380Y-86405062D01*
X112856380Y-86405062D02*
X112975428Y-86166966D01*
X112975428Y-86166966D02*
X113094476Y-86047919D01*
X113094476Y-86047919D02*
X113332571Y-85928871D01*
X113332571Y-85928871D02*
X114046857Y-85928871D01*
X114046857Y-85928871D02*
X114284952Y-86047919D01*
X114284952Y-86047919D02*
X114404000Y-86166966D01*
X114404000Y-86166966D02*
X114523047Y-86405062D01*
X114523047Y-86405062D02*
X114523047Y-86762205D01*
X114523047Y-84857442D02*
X112856380Y-84857442D01*
X113094476Y-84857442D02*
X112975428Y-84738395D01*
X112975428Y-84738395D02*
X112856380Y-84500300D01*
X112856380Y-84500300D02*
X112856380Y-84143157D01*
X112856380Y-84143157D02*
X112975428Y-83905061D01*
X112975428Y-83905061D02*
X113213523Y-83786014D01*
X113213523Y-83786014D02*
X114523047Y-83786014D01*
X113213523Y-83786014D02*
X112975428Y-83666966D01*
X112975428Y-83666966D02*
X112856380Y-83428871D01*
X112856380Y-83428871D02*
X112856380Y-83071728D01*
X112856380Y-83071728D02*
X112975428Y-82833633D01*
X112975428Y-82833633D02*
X113213523Y-82714585D01*
X113213523Y-82714585D02*
X114523047Y-82714585D01*
X114523047Y-79619347D02*
X112023047Y-79619347D01*
X112023047Y-79619347D02*
X112023047Y-79024109D01*
X112023047Y-79024109D02*
X112142095Y-78666966D01*
X112142095Y-78666966D02*
X112380190Y-78428871D01*
X112380190Y-78428871D02*
X112618285Y-78309824D01*
X112618285Y-78309824D02*
X113094476Y-78190776D01*
X113094476Y-78190776D02*
X113451619Y-78190776D01*
X113451619Y-78190776D02*
X113927809Y-78309824D01*
X113927809Y-78309824D02*
X114165904Y-78428871D01*
X114165904Y-78428871D02*
X114404000Y-78666966D01*
X114404000Y-78666966D02*
X114523047Y-79024109D01*
X114523047Y-79024109D02*
X114523047Y-79619347D01*
X114284952Y-75690776D02*
X114404000Y-75809824D01*
X114404000Y-75809824D02*
X114523047Y-76166966D01*
X114523047Y-76166966D02*
X114523047Y-76405062D01*
X114523047Y-76405062D02*
X114404000Y-76762205D01*
X114404000Y-76762205D02*
X114165904Y-77000300D01*
X114165904Y-77000300D02*
X113927809Y-77119347D01*
X113927809Y-77119347D02*
X113451619Y-77238395D01*
X113451619Y-77238395D02*
X113094476Y-77238395D01*
X113094476Y-77238395D02*
X112618285Y-77119347D01*
X112618285Y-77119347D02*
X112380190Y-77000300D01*
X112380190Y-77000300D02*
X112142095Y-76762205D01*
X112142095Y-76762205D02*
X112023047Y-76405062D01*
X112023047Y-76405062D02*
X112023047Y-76166966D01*
X112023047Y-76166966D02*
X112142095Y-75809824D01*
X112142095Y-75809824D02*
X112261142Y-75690776D01*
X112023047Y-74976490D02*
X112023047Y-73547919D01*
X114523047Y-74262205D02*
X112023047Y-74262205D01*
D10*
X109462219Y-113439533D02*
X110176504Y-113439533D01*
X110176504Y-113439533D02*
X110319361Y-113487152D01*
X110319361Y-113487152D02*
X110414600Y-113582390D01*
X110414600Y-113582390D02*
X110462219Y-113725247D01*
X110462219Y-113725247D02*
X110462219Y-113820485D01*
X109557457Y-113010961D02*
X109509838Y-112963342D01*
X109509838Y-112963342D02*
X109462219Y-112868104D01*
X109462219Y-112868104D02*
X109462219Y-112630009D01*
X109462219Y-112630009D02*
X109509838Y-112534771D01*
X109509838Y-112534771D02*
X109557457Y-112487152D01*
X109557457Y-112487152D02*
X109652695Y-112439533D01*
X109652695Y-112439533D02*
X109747933Y-112439533D01*
X109747933Y-112439533D02*
X109890790Y-112487152D01*
X109890790Y-112487152D02*
X110462219Y-113058580D01*
X110462219Y-113058580D02*
X110462219Y-112439533D01*
D12*
X110894600Y-101836314D02*
X110942219Y-101693457D01*
X110942219Y-101693457D02*
X110942219Y-101455362D01*
X110942219Y-101455362D02*
X110894600Y-101360124D01*
X110894600Y-101360124D02*
X110846980Y-101312505D01*
X110846980Y-101312505D02*
X110751742Y-101264886D01*
X110751742Y-101264886D02*
X110656504Y-101264886D01*
X110656504Y-101264886D02*
X110561266Y-101312505D01*
X110561266Y-101312505D02*
X110513647Y-101360124D01*
X110513647Y-101360124D02*
X110466028Y-101455362D01*
X110466028Y-101455362D02*
X110418409Y-101645838D01*
X110418409Y-101645838D02*
X110370790Y-101741076D01*
X110370790Y-101741076D02*
X110323171Y-101788695D01*
X110323171Y-101788695D02*
X110227933Y-101836314D01*
X110227933Y-101836314D02*
X110132695Y-101836314D01*
X110132695Y-101836314D02*
X110037457Y-101788695D01*
X110037457Y-101788695D02*
X109989838Y-101741076D01*
X109989838Y-101741076D02*
X109942219Y-101645838D01*
X109942219Y-101645838D02*
X109942219Y-101407743D01*
X109942219Y-101407743D02*
X109989838Y-101264886D01*
X110942219Y-100836314D02*
X109942219Y-100836314D01*
X110418409Y-100836314D02*
X110418409Y-100264886D01*
X110942219Y-100264886D02*
X109942219Y-100264886D01*
X110418409Y-99455362D02*
X110466028Y-99312505D01*
X110466028Y-99312505D02*
X110513647Y-99264886D01*
X110513647Y-99264886D02*
X110608885Y-99217267D01*
X110608885Y-99217267D02*
X110751742Y-99217267D01*
X110751742Y-99217267D02*
X110846980Y-99264886D01*
X110846980Y-99264886D02*
X110894600Y-99312505D01*
X110894600Y-99312505D02*
X110942219Y-99407743D01*
X110942219Y-99407743D02*
X110942219Y-99788695D01*
X110942219Y-99788695D02*
X109942219Y-99788695D01*
X109942219Y-99788695D02*
X109942219Y-99455362D01*
X109942219Y-99455362D02*
X109989838Y-99360124D01*
X109989838Y-99360124D02*
X110037457Y-99312505D01*
X110037457Y-99312505D02*
X110132695Y-99264886D01*
X110132695Y-99264886D02*
X110227933Y-99264886D01*
X110227933Y-99264886D02*
X110323171Y-99312505D01*
X110323171Y-99312505D02*
X110370790Y-99360124D01*
X110370790Y-99360124D02*
X110418409Y-99455362D01*
X110418409Y-99455362D02*
X110418409Y-99788695D01*
X110037457Y-98836314D02*
X109989838Y-98788695D01*
X109989838Y-98788695D02*
X109942219Y-98693457D01*
X109942219Y-98693457D02*
X109942219Y-98455362D01*
X109942219Y-98455362D02*
X109989838Y-98360124D01*
X109989838Y-98360124D02*
X110037457Y-98312505D01*
X110037457Y-98312505D02*
X110132695Y-98264886D01*
X110132695Y-98264886D02*
X110227933Y-98264886D01*
X110227933Y-98264886D02*
X110370790Y-98312505D01*
X110370790Y-98312505D02*
X110942219Y-98883933D01*
X110942219Y-98883933D02*
X110942219Y-98264886D01*
D10*
X153134979Y-98148733D02*
X153849264Y-98148733D01*
X153849264Y-98148733D02*
X153992121Y-98196352D01*
X153992121Y-98196352D02*
X154087360Y-98291590D01*
X154087360Y-98291590D02*
X154134979Y-98434447D01*
X154134979Y-98434447D02*
X154134979Y-98529685D01*
X153134979Y-97767780D02*
X153134979Y-97148733D01*
X153134979Y-97148733D02*
X153515931Y-97482066D01*
X153515931Y-97482066D02*
X153515931Y-97339209D01*
X153515931Y-97339209D02*
X153563550Y-97243971D01*
X153563550Y-97243971D02*
X153611169Y-97196352D01*
X153611169Y-97196352D02*
X153706407Y-97148733D01*
X153706407Y-97148733D02*
X153944502Y-97148733D01*
X153944502Y-97148733D02*
X154039740Y-97196352D01*
X154039740Y-97196352D02*
X154087360Y-97243971D01*
X154087360Y-97243971D02*
X154134979Y-97339209D01*
X154134979Y-97339209D02*
X154134979Y-97624923D01*
X154134979Y-97624923D02*
X154087360Y-97720161D01*
X154087360Y-97720161D02*
X154039740Y-97767780D01*
D12*
X146512379Y-89640476D02*
X145512379Y-89640476D01*
X145988569Y-89640476D02*
X145988569Y-89069048D01*
X146512379Y-89069048D02*
X145512379Y-89069048D01*
X146464760Y-88211905D02*
X146512379Y-88307143D01*
X146512379Y-88307143D02*
X146512379Y-88497619D01*
X146512379Y-88497619D02*
X146464760Y-88592857D01*
X146464760Y-88592857D02*
X146369521Y-88640476D01*
X146369521Y-88640476D02*
X145988569Y-88640476D01*
X145988569Y-88640476D02*
X145893331Y-88592857D01*
X145893331Y-88592857D02*
X145845712Y-88497619D01*
X145845712Y-88497619D02*
X145845712Y-88307143D01*
X145845712Y-88307143D02*
X145893331Y-88211905D01*
X145893331Y-88211905D02*
X145988569Y-88164286D01*
X145988569Y-88164286D02*
X146083807Y-88164286D01*
X146083807Y-88164286D02*
X146179045Y-88640476D01*
X146512379Y-87307143D02*
X145988569Y-87307143D01*
X145988569Y-87307143D02*
X145893331Y-87354762D01*
X145893331Y-87354762D02*
X145845712Y-87450000D01*
X145845712Y-87450000D02*
X145845712Y-87640476D01*
X145845712Y-87640476D02*
X145893331Y-87735714D01*
X146464760Y-87307143D02*
X146512379Y-87402381D01*
X146512379Y-87402381D02*
X146512379Y-87640476D01*
X146512379Y-87640476D02*
X146464760Y-87735714D01*
X146464760Y-87735714D02*
X146369521Y-87783333D01*
X146369521Y-87783333D02*
X146274283Y-87783333D01*
X146274283Y-87783333D02*
X146179045Y-87735714D01*
X146179045Y-87735714D02*
X146131426Y-87640476D01*
X146131426Y-87640476D02*
X146131426Y-87402381D01*
X146131426Y-87402381D02*
X146083807Y-87307143D01*
X145845712Y-86973809D02*
X145845712Y-86592857D01*
X145512379Y-86830952D02*
X146369521Y-86830952D01*
X146369521Y-86830952D02*
X146464760Y-86783333D01*
X146464760Y-86783333D02*
X146512379Y-86688095D01*
X146512379Y-86688095D02*
X146512379Y-86592857D01*
X146464760Y-85878571D02*
X146512379Y-85973809D01*
X146512379Y-85973809D02*
X146512379Y-86164285D01*
X146512379Y-86164285D02*
X146464760Y-86259523D01*
X146464760Y-86259523D02*
X146369521Y-86307142D01*
X146369521Y-86307142D02*
X145988569Y-86307142D01*
X145988569Y-86307142D02*
X145893331Y-86259523D01*
X145893331Y-86259523D02*
X145845712Y-86164285D01*
X145845712Y-86164285D02*
X145845712Y-85973809D01*
X145845712Y-85973809D02*
X145893331Y-85878571D01*
X145893331Y-85878571D02*
X145988569Y-85830952D01*
X145988569Y-85830952D02*
X146083807Y-85830952D01*
X146083807Y-85830952D02*
X146179045Y-86307142D01*
X146512379Y-85402380D02*
X145845712Y-85402380D01*
X146036188Y-85402380D02*
X145940950Y-85354761D01*
X145940950Y-85354761D02*
X145893331Y-85307142D01*
X145893331Y-85307142D02*
X145845712Y-85211904D01*
X145845712Y-85211904D02*
X145845712Y-85116666D01*
X146464760Y-84069046D02*
X146512379Y-83926189D01*
X146512379Y-83926189D02*
X146512379Y-83688094D01*
X146512379Y-83688094D02*
X146464760Y-83592856D01*
X146464760Y-83592856D02*
X146417140Y-83545237D01*
X146417140Y-83545237D02*
X146321902Y-83497618D01*
X146321902Y-83497618D02*
X146226664Y-83497618D01*
X146226664Y-83497618D02*
X146131426Y-83545237D01*
X146131426Y-83545237D02*
X146083807Y-83592856D01*
X146083807Y-83592856D02*
X146036188Y-83688094D01*
X146036188Y-83688094D02*
X145988569Y-83878570D01*
X145988569Y-83878570D02*
X145940950Y-83973808D01*
X145940950Y-83973808D02*
X145893331Y-84021427D01*
X145893331Y-84021427D02*
X145798093Y-84069046D01*
X145798093Y-84069046D02*
X145702855Y-84069046D01*
X145702855Y-84069046D02*
X145607617Y-84021427D01*
X145607617Y-84021427D02*
X145559998Y-83973808D01*
X145559998Y-83973808D02*
X145512379Y-83878570D01*
X145512379Y-83878570D02*
X145512379Y-83640475D01*
X145512379Y-83640475D02*
X145559998Y-83497618D01*
X146512379Y-82926189D02*
X146464760Y-83021427D01*
X146464760Y-83021427D02*
X146417140Y-83069046D01*
X146417140Y-83069046D02*
X146321902Y-83116665D01*
X146321902Y-83116665D02*
X146036188Y-83116665D01*
X146036188Y-83116665D02*
X145940950Y-83069046D01*
X145940950Y-83069046D02*
X145893331Y-83021427D01*
X145893331Y-83021427D02*
X145845712Y-82926189D01*
X145845712Y-82926189D02*
X145845712Y-82783332D01*
X145845712Y-82783332D02*
X145893331Y-82688094D01*
X145893331Y-82688094D02*
X145940950Y-82640475D01*
X145940950Y-82640475D02*
X146036188Y-82592856D01*
X146036188Y-82592856D02*
X146321902Y-82592856D01*
X146321902Y-82592856D02*
X146417140Y-82640475D01*
X146417140Y-82640475D02*
X146464760Y-82688094D01*
X146464760Y-82688094D02*
X146512379Y-82783332D01*
X146512379Y-82783332D02*
X146512379Y-82926189D01*
X145845712Y-81735713D02*
X146512379Y-81735713D01*
X145845712Y-82164284D02*
X146369521Y-82164284D01*
X146369521Y-82164284D02*
X146464760Y-82116665D01*
X146464760Y-82116665D02*
X146512379Y-82021427D01*
X146512379Y-82021427D02*
X146512379Y-81878570D01*
X146512379Y-81878570D02*
X146464760Y-81783332D01*
X146464760Y-81783332D02*
X146417140Y-81735713D01*
X145845712Y-81402379D02*
X145845712Y-81021427D01*
X145512379Y-81259522D02*
X146369521Y-81259522D01*
X146369521Y-81259522D02*
X146464760Y-81211903D01*
X146464760Y-81211903D02*
X146512379Y-81116665D01*
X146512379Y-81116665D02*
X146512379Y-81021427D01*
X146512379Y-80688093D02*
X145512379Y-80688093D01*
X146512379Y-80259522D02*
X145988569Y-80259522D01*
X145988569Y-80259522D02*
X145893331Y-80307141D01*
X145893331Y-80307141D02*
X145845712Y-80402379D01*
X145845712Y-80402379D02*
X145845712Y-80545236D01*
X145845712Y-80545236D02*
X145893331Y-80640474D01*
X145893331Y-80640474D02*
X145940950Y-80688093D01*
D10*
X109462219Y-78412933D02*
X110176504Y-78412933D01*
X110176504Y-78412933D02*
X110319361Y-78460552D01*
X110319361Y-78460552D02*
X110414600Y-78555790D01*
X110414600Y-78555790D02*
X110462219Y-78698647D01*
X110462219Y-78698647D02*
X110462219Y-78793885D01*
X110462219Y-77412933D02*
X110462219Y-77984361D01*
X110462219Y-77698647D02*
X109462219Y-77698647D01*
X109462219Y-77698647D02*
X109605076Y-77793885D01*
X109605076Y-77793885D02*
X109700314Y-77889123D01*
X109700314Y-77889123D02*
X109747933Y-77984361D01*
D12*
X110911600Y-66809714D02*
X110959219Y-66666857D01*
X110959219Y-66666857D02*
X110959219Y-66428762D01*
X110959219Y-66428762D02*
X110911600Y-66333524D01*
X110911600Y-66333524D02*
X110863980Y-66285905D01*
X110863980Y-66285905D02*
X110768742Y-66238286D01*
X110768742Y-66238286D02*
X110673504Y-66238286D01*
X110673504Y-66238286D02*
X110578266Y-66285905D01*
X110578266Y-66285905D02*
X110530647Y-66333524D01*
X110530647Y-66333524D02*
X110483028Y-66428762D01*
X110483028Y-66428762D02*
X110435409Y-66619238D01*
X110435409Y-66619238D02*
X110387790Y-66714476D01*
X110387790Y-66714476D02*
X110340171Y-66762095D01*
X110340171Y-66762095D02*
X110244933Y-66809714D01*
X110244933Y-66809714D02*
X110149695Y-66809714D01*
X110149695Y-66809714D02*
X110054457Y-66762095D01*
X110054457Y-66762095D02*
X110006838Y-66714476D01*
X110006838Y-66714476D02*
X109959219Y-66619238D01*
X109959219Y-66619238D02*
X109959219Y-66381143D01*
X109959219Y-66381143D02*
X110006838Y-66238286D01*
X110959219Y-65809714D02*
X109959219Y-65809714D01*
X110435409Y-65809714D02*
X110435409Y-65238286D01*
X110959219Y-65238286D02*
X109959219Y-65238286D01*
X110435409Y-64428762D02*
X110483028Y-64285905D01*
X110483028Y-64285905D02*
X110530647Y-64238286D01*
X110530647Y-64238286D02*
X110625885Y-64190667D01*
X110625885Y-64190667D02*
X110768742Y-64190667D01*
X110768742Y-64190667D02*
X110863980Y-64238286D01*
X110863980Y-64238286D02*
X110911600Y-64285905D01*
X110911600Y-64285905D02*
X110959219Y-64381143D01*
X110959219Y-64381143D02*
X110959219Y-64762095D01*
X110959219Y-64762095D02*
X109959219Y-64762095D01*
X109959219Y-64762095D02*
X109959219Y-64428762D01*
X109959219Y-64428762D02*
X110006838Y-64333524D01*
X110006838Y-64333524D02*
X110054457Y-64285905D01*
X110054457Y-64285905D02*
X110149695Y-64238286D01*
X110149695Y-64238286D02*
X110244933Y-64238286D01*
X110244933Y-64238286D02*
X110340171Y-64285905D01*
X110340171Y-64285905D02*
X110387790Y-64333524D01*
X110387790Y-64333524D02*
X110435409Y-64428762D01*
X110435409Y-64428762D02*
X110435409Y-64762095D01*
X110959219Y-63238286D02*
X110959219Y-63809714D01*
X110959219Y-63524000D02*
X109959219Y-63524000D01*
X109959219Y-63524000D02*
X110102076Y-63619238D01*
X110102076Y-63619238D02*
X110197314Y-63714476D01*
X110197314Y-63714476D02*
X110244933Y-63809714D01*
%TO.C,G\u002A\u002A\u002A*%
G36*
X140803510Y-53815508D02*
G01*
X140928996Y-53838124D01*
X140961496Y-53853162D01*
X140982219Y-53894945D01*
X141002020Y-53997794D01*
X141021490Y-54168659D01*
X141041220Y-54414490D01*
X141061798Y-54742238D01*
X141083817Y-55158852D01*
X141098600Y-55468075D01*
X141116802Y-55868336D01*
X141133389Y-56247573D01*
X141147771Y-56591145D01*
X141159358Y-56884408D01*
X141167560Y-57112721D01*
X141171787Y-57261442D01*
X141172232Y-57295323D01*
X141177019Y-57446955D01*
X141205798Y-57535555D01*
X141281747Y-57598289D01*
X141398344Y-57657887D01*
X141540926Y-57738830D01*
X141608761Y-57814843D01*
X141623787Y-57893314D01*
X141636639Y-57988427D01*
X141661361Y-58020680D01*
X141720915Y-58007828D01*
X141857494Y-57971604D01*
X142052098Y-57917234D01*
X142285721Y-57849944D01*
X142339443Y-57834226D01*
X142599056Y-57757132D01*
X142780616Y-57698351D01*
X142902341Y-57648427D01*
X142982452Y-57597904D01*
X143039167Y-57537327D01*
X143090706Y-57457239D01*
X143101650Y-57438637D01*
X143202676Y-57297157D01*
X143348551Y-57129095D01*
X143500857Y-56977346D01*
X143845133Y-56725078D01*
X144218721Y-56561855D01*
X144609212Y-56485623D01*
X145004200Y-56494329D01*
X145391279Y-56585916D01*
X145758043Y-56758332D01*
X146092084Y-57009522D01*
X146380997Y-57337432D01*
X146468407Y-57468725D01*
X146520293Y-57543524D01*
X146582355Y-57602437D01*
X146673026Y-57654618D01*
X146810742Y-57709226D01*
X147013936Y-57775415D01*
X147199675Y-57831940D01*
X147437713Y-57902269D01*
X147642947Y-57960548D01*
X147795362Y-58001262D01*
X147874945Y-58018898D01*
X147879291Y-58019211D01*
X147921983Y-57976363D01*
X147936213Y-57893314D01*
X147958020Y-57801693D01*
X148037962Y-57725265D01*
X148153578Y-57661812D01*
X148370942Y-57556209D01*
X148430612Y-56021734D01*
X148446714Y-55622301D01*
X148463180Y-55240277D01*
X148479253Y-54891318D01*
X148494179Y-54591080D01*
X148507201Y-54355218D01*
X148517563Y-54199388D01*
X148519915Y-54171910D01*
X148549548Y-53856560D01*
X148856589Y-53871318D01*
X149163630Y-53886075D01*
X149246351Y-55689626D01*
X149265471Y-56103937D01*
X149283301Y-56485401D01*
X149299296Y-56822753D01*
X149312913Y-57104729D01*
X149323608Y-57320063D01*
X149330838Y-57457490D01*
X149334024Y-57505701D01*
X149382016Y-57513189D01*
X149497652Y-57517665D01*
X149564419Y-57518225D01*
X149789862Y-57518225D01*
X149789862Y-58420000D01*
X149789862Y-59321776D01*
X149564419Y-59321776D01*
X149428640Y-59324277D01*
X149345570Y-59330603D01*
X149334024Y-59334300D01*
X149330674Y-59385435D01*
X149323331Y-59525399D01*
X149312539Y-59742928D01*
X149298841Y-60026755D01*
X149282782Y-60365617D01*
X149264905Y-60748247D01*
X149246351Y-61150375D01*
X149163630Y-62953925D01*
X148856589Y-62968683D01*
X148549548Y-62983441D01*
X148519915Y-62668091D01*
X148510445Y-62537831D01*
X148498101Y-62323095D01*
X148483639Y-62039539D01*
X148467815Y-61702819D01*
X148451384Y-61328589D01*
X148435102Y-60932507D01*
X148430612Y-60818267D01*
X148370942Y-59283792D01*
X148153578Y-59178188D01*
X148017429Y-59101645D01*
X147952891Y-59028613D01*
X147936222Y-58931829D01*
X147936213Y-58928599D01*
X147936213Y-58784613D01*
X147254412Y-58989004D01*
X146572610Y-59193396D01*
X146411263Y-59445455D01*
X146139949Y-59782458D01*
X145812489Y-60045361D01*
X145442885Y-60230119D01*
X145045143Y-60332683D01*
X144633265Y-60349008D01*
X144221255Y-60275046D01*
X143930075Y-60162501D01*
X143685611Y-60010871D01*
X143437262Y-59800723D01*
X143343748Y-59698926D01*
X143727929Y-59698926D01*
X143771057Y-59758451D01*
X143883554Y-59837440D01*
X144040089Y-59922622D01*
X144215332Y-60000726D01*
X144383952Y-60058483D01*
X144440458Y-60072218D01*
X144802525Y-60099461D01*
X145181310Y-60041687D01*
X145515779Y-59918859D01*
X145687979Y-59829027D01*
X145786518Y-59755586D01*
X145831866Y-59680588D01*
X145841420Y-59633316D01*
X145874151Y-59530525D01*
X145957956Y-59497046D01*
X145982232Y-59496169D01*
X146055839Y-59480616D01*
X146123306Y-59423126D01*
X146200518Y-59305578D01*
X146279528Y-59157004D01*
X146371123Y-58964919D01*
X146422762Y-58810437D01*
X146424221Y-58799838D01*
X146683748Y-58799838D01*
X146687463Y-58846829D01*
X146714238Y-58865469D01*
X146787516Y-58857021D01*
X146930741Y-58822749D01*
X146962155Y-58814842D01*
X147110465Y-58764702D01*
X147176708Y-58704523D01*
X147184734Y-58664546D01*
X147167445Y-58604699D01*
X147098996Y-58576838D01*
X146964650Y-58570296D01*
X146800300Y-58588125D01*
X146712937Y-58651639D01*
X146684152Y-58775881D01*
X146683748Y-58799838D01*
X146424221Y-58799838D01*
X146445163Y-58647683D01*
X146449051Y-58431526D01*
X146448573Y-58420000D01*
X147435227Y-58420000D01*
X147438130Y-58562946D01*
X147445552Y-58653637D01*
X147451352Y-58670494D01*
X147503850Y-58655759D01*
X147580001Y-58631114D01*
X148192254Y-58631114D01*
X148197878Y-58806879D01*
X148216260Y-58912181D01*
X148249553Y-58961707D01*
X148285331Y-58971085D01*
X148309584Y-58922601D01*
X148326667Y-58783207D01*
X148335395Y-58570296D01*
X148578947Y-58570296D01*
X148607765Y-58933511D01*
X148617504Y-59082924D01*
X148629928Y-59314532D01*
X148644200Y-59610393D01*
X148659484Y-59952569D01*
X148674945Y-60323117D01*
X148687693Y-60649389D01*
X148707680Y-61165588D01*
X148725452Y-61590257D01*
X148741756Y-61932022D01*
X148757335Y-62199505D01*
X148772936Y-62401333D01*
X148789303Y-62546128D01*
X148807180Y-62642516D01*
X148827315Y-62699121D01*
X148850450Y-62724566D01*
X148867312Y-62728482D01*
X148908595Y-62701484D01*
X148931347Y-62609457D01*
X148939385Y-62435851D01*
X148939519Y-62415365D01*
X148942241Y-62285577D01*
X148949289Y-62071378D01*
X148960034Y-61788433D01*
X148973848Y-61452407D01*
X148990104Y-61078964D01*
X149008172Y-60683769D01*
X149013334Y-60574241D01*
X149031687Y-60180498D01*
X149048421Y-59808418D01*
X149062918Y-59472773D01*
X149074560Y-59188333D01*
X149082730Y-58969872D01*
X149086811Y-58832159D01*
X149087149Y-58808265D01*
X149088482Y-58570296D01*
X148833714Y-58570296D01*
X148578947Y-58570296D01*
X148335395Y-58570296D01*
X148335735Y-58561991D01*
X148336966Y-58420000D01*
X149338975Y-58420000D01*
X149339825Y-58685883D01*
X149344012Y-58867540D01*
X149353993Y-58980938D01*
X149372225Y-59042047D01*
X149401164Y-59066833D01*
X149439172Y-59071282D01*
X149480077Y-59065759D01*
X149508024Y-59038542D01*
X149525470Y-58973664D01*
X149534871Y-58855158D01*
X149538685Y-58667055D01*
X149539369Y-58420000D01*
X149538519Y-58154118D01*
X149534332Y-57972461D01*
X149524351Y-57859063D01*
X149506119Y-57797954D01*
X149477180Y-57773168D01*
X149439172Y-57768718D01*
X149398267Y-57774242D01*
X149370320Y-57801459D01*
X149352874Y-57866337D01*
X149343473Y-57984843D01*
X149339659Y-58172946D01*
X149338975Y-58420000D01*
X148336966Y-58420000D01*
X148337002Y-58415826D01*
X148335389Y-58269705D01*
X148578947Y-58269705D01*
X148833714Y-58269705D01*
X149088482Y-58269705D01*
X149087149Y-58031736D01*
X149084454Y-57921918D01*
X149077480Y-57726795D01*
X149066843Y-57461136D01*
X149053161Y-57139714D01*
X149037052Y-56777300D01*
X149019132Y-56388664D01*
X149013334Y-56265760D01*
X148994880Y-55867350D01*
X148978067Y-55486420D01*
X148963525Y-55138632D01*
X148951880Y-54839653D01*
X148943761Y-54605146D01*
X148939797Y-54450775D01*
X148939519Y-54424636D01*
X148932634Y-54242758D01*
X148911383Y-54143971D01*
X148871950Y-54111723D01*
X148867312Y-54111519D01*
X148841846Y-54121443D01*
X148819861Y-54156963D01*
X148800613Y-54226704D01*
X148783357Y-54339291D01*
X148767348Y-54503347D01*
X148751840Y-54727497D01*
X148736089Y-55020366D01*
X148719349Y-55390576D01*
X148700876Y-55846754D01*
X148687693Y-56190612D01*
X148672745Y-56571197D01*
X148657257Y-56938772D01*
X148642067Y-57275395D01*
X148628009Y-57563127D01*
X148615920Y-57784027D01*
X148607765Y-57906490D01*
X148578947Y-58269705D01*
X148335389Y-58269705D01*
X148334201Y-58162128D01*
X148324848Y-57996361D01*
X148307522Y-57906386D01*
X148280802Y-57880069D01*
X148274379Y-57881318D01*
X148238958Y-57938712D01*
X148213927Y-58086699D01*
X148198606Y-58329589D01*
X148197235Y-58370196D01*
X148192254Y-58631114D01*
X147580001Y-58631114D01*
X147620089Y-58618140D01*
X147704590Y-58589701D01*
X147849847Y-58531397D01*
X147916978Y-58475588D01*
X147926434Y-58407091D01*
X147877060Y-58324897D01*
X147747066Y-58258075D01*
X147685720Y-58238151D01*
X147550517Y-58198470D01*
X147463371Y-58173978D01*
X147447752Y-58170268D01*
X147440607Y-58214902D01*
X147436072Y-58329855D01*
X147435227Y-58420000D01*
X146448573Y-58420000D01*
X146438176Y-58169283D01*
X146417464Y-58051249D01*
X146687959Y-58051249D01*
X146703735Y-58142125D01*
X146735881Y-58221933D01*
X146799734Y-58259247D01*
X146926388Y-58269530D01*
X146960245Y-58269705D01*
X147101775Y-58262542D01*
X147168378Y-58234187D01*
X147184734Y-58176018D01*
X147152553Y-58104489D01*
X147045002Y-58046386D01*
X146957854Y-58018809D01*
X146795654Y-57981498D01*
X146710784Y-57989838D01*
X146687959Y-58051249D01*
X146417464Y-58051249D01*
X146401669Y-57961235D01*
X146327448Y-57763495D01*
X146203425Y-57532174D01*
X146199590Y-57525595D01*
X146072299Y-57307520D01*
X145885041Y-57490372D01*
X145697784Y-57673224D01*
X145815026Y-57904807D01*
X145916255Y-58210998D01*
X145928794Y-58535815D01*
X145852687Y-58851352D01*
X145813352Y-58938501D01*
X145754377Y-59074539D01*
X145730575Y-59171751D01*
X145738204Y-59200441D01*
X145777167Y-59273030D01*
X145773432Y-59375671D01*
X145729680Y-59448378D01*
X145652414Y-59447781D01*
X145604405Y-59420128D01*
X145539560Y-59391801D01*
X145442590Y-59405471D01*
X145286237Y-59465037D01*
X145284196Y-59465914D01*
X144946292Y-59558449D01*
X144597649Y-59556090D01*
X144273469Y-59464909D01*
X144023906Y-59357550D01*
X143875918Y-59499332D01*
X143782395Y-59602025D01*
X143731210Y-59683688D01*
X143727929Y-59698926D01*
X143343748Y-59698926D01*
X143221103Y-59565418D01*
X143106838Y-59401177D01*
X143052925Y-59314109D01*
X142997718Y-59249257D01*
X142922655Y-59196802D01*
X142809172Y-59146922D01*
X142638708Y-59089799D01*
X142392700Y-59015613D01*
X142359277Y-59005706D01*
X142120953Y-58936312D01*
X141915622Y-58878793D01*
X141763259Y-58838582D01*
X141683836Y-58821113D01*
X141679448Y-58820789D01*
X141637699Y-58863647D01*
X141623787Y-58946687D01*
X141602888Y-59036465D01*
X141525787Y-59111805D01*
X141398344Y-59182114D01*
X141172900Y-59291643D01*
X141171567Y-59569727D01*
X141168858Y-59690178D01*
X141161844Y-59895460D01*
X141151150Y-60170329D01*
X141137398Y-60499540D01*
X141121211Y-60867850D01*
X141103212Y-61260013D01*
X141097752Y-61375819D01*
X141079658Y-61757553D01*
X141063128Y-62106873D01*
X141048752Y-62411255D01*
X141037121Y-62658173D01*
X141028825Y-62835101D01*
X141024454Y-62929517D01*
X141023937Y-62941401D01*
X140978616Y-62967519D01*
X140866601Y-62979847D01*
X140720252Y-62979681D01*
X140571930Y-62968316D01*
X140453994Y-62947049D01*
X140398806Y-62917175D01*
X140398517Y-62916352D01*
X140391649Y-62851889D01*
X140381942Y-62700459D01*
X140370041Y-62475230D01*
X140356591Y-62189371D01*
X140342238Y-61856051D01*
X140327625Y-61488439D01*
X140324312Y-61400868D01*
X140309139Y-61011409D01*
X140293549Y-60638936D01*
X140278307Y-60299731D01*
X140264175Y-60010074D01*
X140251919Y-59786247D01*
X140242301Y-59644530D01*
X140241458Y-59634892D01*
X140213051Y-59321776D01*
X139991595Y-59321776D01*
X139770139Y-59321776D01*
X139770139Y-58420000D01*
X140020632Y-58420000D01*
X140021481Y-58685883D01*
X140025669Y-58867540D01*
X140035650Y-58980938D01*
X140053882Y-59042047D01*
X140082820Y-59066833D01*
X140120829Y-59071282D01*
X140161734Y-59065759D01*
X140189681Y-59038542D01*
X140207127Y-58973664D01*
X140216528Y-58855158D01*
X140220342Y-58667055D01*
X140220610Y-58570296D01*
X140471519Y-58570296D01*
X140472852Y-58808265D01*
X140475546Y-58918082D01*
X140482521Y-59113206D01*
X140493158Y-59378865D01*
X140506839Y-59700287D01*
X140522949Y-60062701D01*
X140540869Y-60451336D01*
X140546667Y-60574241D01*
X140565121Y-60972651D01*
X140581934Y-61353581D01*
X140596476Y-61701368D01*
X140608121Y-62000348D01*
X140616240Y-62234855D01*
X140620204Y-62389225D01*
X140620482Y-62415365D01*
X140627315Y-62597001D01*
X140648449Y-62695712D01*
X140687756Y-62728227D01*
X140692975Y-62728482D01*
X140738899Y-62693421D01*
X140771795Y-62580300D01*
X140792200Y-62415365D01*
X140801607Y-62281130D01*
X140813698Y-62063709D01*
X140827674Y-61780053D01*
X140842735Y-61447112D01*
X140858079Y-61081836D01*
X140872032Y-60724537D01*
X140887069Y-60339132D01*
X140902675Y-59965409D01*
X140918019Y-59621416D01*
X140932270Y-59325202D01*
X140944597Y-59094814D01*
X140953366Y-58958561D01*
X140982934Y-58570296D01*
X140727227Y-58570296D01*
X140471519Y-58570296D01*
X140220610Y-58570296D01*
X140221026Y-58420000D01*
X141222998Y-58420000D01*
X141225771Y-58674766D01*
X141235026Y-58841581D01*
X141252175Y-58932565D01*
X141278626Y-58959836D01*
X141285622Y-58958561D01*
X141316875Y-58912275D01*
X141336858Y-58791705D01*
X141346715Y-58587013D01*
X141348245Y-58420000D01*
X141348035Y-58407420D01*
X141622272Y-58407420D01*
X141653316Y-58488774D01*
X141783981Y-58566978D01*
X141836707Y-58587216D01*
X141973341Y-58633660D01*
X142068472Y-58662494D01*
X142087200Y-58666538D01*
X142089089Y-58662772D01*
X142375267Y-58662772D01*
X142408916Y-58741813D01*
X142521270Y-58798512D01*
X142563137Y-58810635D01*
X142733985Y-58852321D01*
X142828761Y-58859577D01*
X142867179Y-58827376D01*
X142868952Y-58750690D01*
X142867056Y-58733117D01*
X142847915Y-58648830D01*
X142797089Y-58605295D01*
X142686394Y-58585517D01*
X142613235Y-58580076D01*
X142468422Y-58575958D01*
X142397740Y-58593855D01*
X142376009Y-58642521D01*
X142375267Y-58662772D01*
X142089089Y-58662772D01*
X142108605Y-58623865D01*
X142122213Y-58510392D01*
X142124774Y-58420000D01*
X143113611Y-58420000D01*
X143122946Y-58675822D01*
X143158836Y-58880783D01*
X143233109Y-59077745D01*
X143357592Y-59309571D01*
X143360411Y-59314406D01*
X143487702Y-59532480D01*
X143674959Y-59349629D01*
X143862217Y-59166777D01*
X143833588Y-59110227D01*
X144289794Y-59110227D01*
X144305531Y-59196900D01*
X144416785Y-59263547D01*
X144546991Y-59306000D01*
X144609130Y-59298475D01*
X144628335Y-59227779D01*
X144629705Y-59151790D01*
X144930296Y-59151790D01*
X144934847Y-59265626D01*
X144945991Y-59320804D01*
X144947870Y-59321776D01*
X145002221Y-59306996D01*
X145111070Y-59270992D01*
X145123215Y-59266776D01*
X145247171Y-59200079D01*
X145272713Y-59117723D01*
X145201047Y-59014798D01*
X145188035Y-59002691D01*
X145074322Y-58941892D01*
X144984921Y-58971888D01*
X144935430Y-59083654D01*
X144930296Y-59151790D01*
X144629705Y-59151790D01*
X144601319Y-59008789D01*
X144526561Y-58943820D01*
X144421029Y-58965907D01*
X144371966Y-59002691D01*
X144289794Y-59110227D01*
X143833588Y-59110227D01*
X143744974Y-58935194D01*
X143646879Y-58636551D01*
X143645173Y-58598444D01*
X143890085Y-58598444D01*
X143899691Y-58669266D01*
X143954926Y-58807183D01*
X144031626Y-58990753D01*
X144157341Y-58865037D01*
X144245490Y-58742059D01*
X144250626Y-58654809D01*
X144171836Y-58586906D01*
X144048210Y-58570296D01*
X143936473Y-58573374D01*
X143890085Y-58598444D01*
X143645173Y-58598444D01*
X143637765Y-58433010D01*
X144456196Y-58433010D01*
X144479920Y-58546592D01*
X144557586Y-58660293D01*
X144704433Y-58745293D01*
X144764214Y-58767515D01*
X144811961Y-58754242D01*
X144902884Y-58721491D01*
X144968407Y-58673580D01*
X145304769Y-58673580D01*
X145334813Y-58784944D01*
X145388500Y-58853627D01*
X145469730Y-58934533D01*
X145516590Y-58970927D01*
X145517720Y-58971085D01*
X145547118Y-58929857D01*
X145596202Y-58827724D01*
X145609184Y-58797349D01*
X145662940Y-58661885D01*
X145668654Y-58595042D01*
X145615932Y-58572586D01*
X145511790Y-58570296D01*
X145365477Y-58598088D01*
X145304769Y-58673580D01*
X144968407Y-58673580D01*
X145030996Y-58627815D01*
X145093990Y-58489455D01*
X145091698Y-58337214D01*
X145023954Y-58201894D01*
X144906145Y-58119750D01*
X144758157Y-58101736D01*
X145312820Y-58101736D01*
X145315670Y-58199753D01*
X145407186Y-58258146D01*
X145511790Y-58269705D01*
X145625611Y-58262803D01*
X145680799Y-58245903D01*
X145681776Y-58243046D01*
X145664172Y-58183968D01*
X145620379Y-58069981D01*
X145605075Y-58032818D01*
X145528375Y-57849248D01*
X145402660Y-57974964D01*
X145312820Y-58101736D01*
X144758157Y-58101736D01*
X144734703Y-58098881D01*
X144589013Y-58157706D01*
X144489401Y-58275868D01*
X144456196Y-58433010D01*
X143637765Y-58433010D01*
X143632455Y-58314444D01*
X143648488Y-58242135D01*
X143890313Y-58242135D01*
X143937505Y-58266759D01*
X144048210Y-58269705D01*
X144194848Y-58243487D01*
X144250626Y-58185192D01*
X144238415Y-58081998D01*
X144157341Y-57974964D01*
X144031626Y-57849248D01*
X143954926Y-58032818D01*
X143899238Y-58172074D01*
X143890313Y-58242135D01*
X143648488Y-58242135D01*
X143701969Y-58000937D01*
X143736534Y-57919014D01*
X143797616Y-57761938D01*
X143818991Y-57670090D01*
X144212924Y-57670090D01*
X144329850Y-57794552D01*
X144412491Y-57881181D01*
X144460327Y-57912651D01*
X144509628Y-57904426D01*
X144550459Y-57888605D01*
X144612249Y-57813409D01*
X144629705Y-57688210D01*
X144626576Y-57576185D01*
X144617654Y-57559862D01*
X144927290Y-57559862D01*
X144927747Y-57657785D01*
X144944281Y-57771516D01*
X144971930Y-57860576D01*
X144992920Y-57885835D01*
X145069421Y-57910324D01*
X145125572Y-57890733D01*
X145189369Y-57836102D01*
X145270179Y-57731242D01*
X145253831Y-57647076D01*
X145139167Y-57578990D01*
X145123215Y-57573225D01*
X145011159Y-57535808D01*
X144949679Y-57518386D01*
X144947870Y-57518225D01*
X144927290Y-57559862D01*
X144617654Y-57559862D01*
X144601295Y-57529931D01*
X144530014Y-57539905D01*
X144394656Y-57594158D01*
X144212924Y-57670090D01*
X143818991Y-57670090D01*
X143829988Y-57622838D01*
X143831504Y-57576723D01*
X143840986Y-57489510D01*
X143912630Y-57469680D01*
X143936723Y-57471504D01*
X144050656Y-57457393D01*
X144205094Y-57408322D01*
X144279014Y-57376534D01*
X144585064Y-57284685D01*
X144915530Y-57278176D01*
X145242259Y-57357048D01*
X145286532Y-57375092D01*
X145536095Y-57482451D01*
X145684083Y-57340669D01*
X145777743Y-57236704D01*
X145828868Y-57152273D01*
X145832071Y-57136252D01*
X145790179Y-57085197D01*
X145679661Y-57008519D01*
X145523261Y-56921723D01*
X145501654Y-56910952D01*
X145308058Y-56822790D01*
X145147995Y-56773868D01*
X144974243Y-56753603D01*
X144787749Y-56750950D01*
X144527057Y-56761917D01*
X144319641Y-56798685D01*
X144121790Y-56873339D01*
X143889793Y-56997962D01*
X143885764Y-57000312D01*
X143755136Y-57087165D01*
X143709346Y-57148920D01*
X143722944Y-57182588D01*
X143771287Y-57278015D01*
X143778028Y-57327851D01*
X143740364Y-57398792D01*
X143653554Y-57416745D01*
X143556871Y-57375857D01*
X143542588Y-57362944D01*
X143492411Y-57354720D01*
X143424176Y-57425044D01*
X143360312Y-57525764D01*
X143234814Y-57758629D01*
X143159753Y-57955889D01*
X143123297Y-58160437D01*
X143113613Y-58415164D01*
X143113611Y-58420000D01*
X142124774Y-58420000D01*
X142121871Y-58277054D01*
X142114449Y-58186363D01*
X142111640Y-58178200D01*
X142375267Y-58178200D01*
X142388106Y-58236441D01*
X142443363Y-58261722D01*
X142566145Y-58262666D01*
X142613235Y-58259925D01*
X142758401Y-58245143D01*
X142831557Y-58213924D01*
X142860889Y-58149272D01*
X142867056Y-58106884D01*
X142874293Y-58021638D01*
X142856160Y-57981543D01*
X142790870Y-57979986D01*
X142656639Y-58010353D01*
X142597846Y-58025159D01*
X142450994Y-58074278D01*
X142384627Y-58133120D01*
X142375267Y-58178200D01*
X142111640Y-58178200D01*
X142108649Y-58169507D01*
X142056126Y-58184234D01*
X141940076Y-58221791D01*
X141858156Y-58249365D01*
X141690627Y-58326443D01*
X141622272Y-58407420D01*
X141348035Y-58407420D01*
X141343906Y-58160198D01*
X141330127Y-57990411D01*
X141305763Y-57900802D01*
X141285622Y-57881440D01*
X141257000Y-57896664D01*
X141237981Y-57973010D01*
X141227156Y-58122596D01*
X141223117Y-58357541D01*
X141222998Y-58420000D01*
X140221026Y-58420000D01*
X140220546Y-58269705D01*
X140471519Y-58269705D01*
X140727227Y-58269705D01*
X140982934Y-58269705D01*
X140953366Y-57881440D01*
X140943485Y-57725816D01*
X140930931Y-57488103D01*
X140916534Y-57186352D01*
X140901127Y-56838609D01*
X140885540Y-56462924D01*
X140872032Y-56115464D01*
X140852562Y-55610210D01*
X140835246Y-55196280D01*
X140819298Y-54864845D01*
X140803927Y-54607075D01*
X140788344Y-54414141D01*
X140771761Y-54277214D01*
X140753389Y-54187463D01*
X140732438Y-54136059D01*
X140708121Y-54114174D01*
X140692975Y-54111519D01*
X140651582Y-54138182D01*
X140628761Y-54229324D01*
X140620638Y-54401673D01*
X140620482Y-54424636D01*
X140617760Y-54554424D01*
X140610712Y-54768623D01*
X140599967Y-55051568D01*
X140586153Y-55387594D01*
X140569897Y-55761037D01*
X140551829Y-56156232D01*
X140546667Y-56265760D01*
X140528313Y-56659503D01*
X140511579Y-57031583D01*
X140497083Y-57367228D01*
X140485441Y-57651667D01*
X140477270Y-57870129D01*
X140473190Y-58007842D01*
X140472852Y-58031736D01*
X140471519Y-58269705D01*
X140220546Y-58269705D01*
X140220176Y-58154118D01*
X140215989Y-57972461D01*
X140206008Y-57859063D01*
X140187776Y-57797954D01*
X140158837Y-57773168D01*
X140120829Y-57768718D01*
X140079924Y-57774242D01*
X140051977Y-57801459D01*
X140034531Y-57866337D01*
X140025129Y-57984843D01*
X140021316Y-58172946D01*
X140020632Y-58420000D01*
X139770139Y-58420000D01*
X139770139Y-57518225D01*
X139990663Y-57518225D01*
X140211188Y-57518225D01*
X140239794Y-57230158D01*
X140249041Y-57106379D01*
X140261127Y-56898029D01*
X140275299Y-56620671D01*
X140290806Y-56289867D01*
X140306895Y-55921180D01*
X140322813Y-55530171D01*
X140326355Y-55439133D01*
X140342539Y-55059017D01*
X140360313Y-54710078D01*
X140378788Y-54405242D01*
X140397074Y-54157433D01*
X140414283Y-53979578D01*
X140429525Y-53884602D01*
X140434049Y-53873551D01*
X140514233Y-53834837D01*
X140651322Y-53814951D01*
X140803510Y-53815508D01*
G37*
D13*
%TO.C,J2*%
X109144000Y-86156600D02*
X109144000Y-113944600D01*
X101930000Y-86156600D02*
X109144000Y-86156600D01*
X109144000Y-113944600D02*
X101930000Y-113944600D01*
X101930000Y-113944600D02*
X101930000Y-86156600D01*
D12*
X100495480Y-89616280D02*
G75*
G03*
X100495480Y-89616280I-100000J0D01*
G01*
D13*
%TO.C,J3*%
X154660800Y-68656000D02*
X154660800Y-96444000D01*
X147446800Y-68656000D02*
X154660800Y-68656000D01*
X154660800Y-96444000D02*
X147446800Y-96444000D01*
X147446800Y-96444000D02*
X147446800Y-68656000D01*
D12*
X146012280Y-72115680D02*
G75*
G03*
X146012280Y-72115680I-100000J0D01*
G01*
%TO.C,G\u002A\u002A\u002A*%
G36*
X151486994Y-112535300D02*
G01*
X138057109Y-112535300D01*
X138057109Y-112437982D01*
X151486994Y-112437982D01*
X151486994Y-112535300D01*
G37*
G36*
X152200659Y-108172210D02*
G01*
X152075092Y-108172210D01*
X152053072Y-107977574D01*
X151762728Y-107977574D01*
X151762728Y-108965363D01*
X151957364Y-108987383D01*
X151957364Y-109112950D01*
X151276138Y-109112950D01*
X151276138Y-108987383D01*
X151470774Y-108965363D01*
X151470774Y-107977574D01*
X151180431Y-107977574D01*
X151158411Y-108172210D01*
X151032843Y-108172210D01*
X151032843Y-107815377D01*
X152200659Y-107815377D01*
X152200659Y-108172210D01*
G37*
G36*
X142193124Y-110374899D02*
G01*
X141998488Y-110397489D01*
X141998488Y-111396241D01*
X142091751Y-111410247D01*
X142144055Y-111418935D01*
X142172373Y-111428986D01*
X142184803Y-111446565D01*
X142189442Y-111477834D01*
X142190048Y-111485077D01*
X142195083Y-111545901D01*
X141511898Y-111545901D01*
X141511898Y-111488623D01*
X141513636Y-111455151D01*
X141523431Y-111434536D01*
X141548161Y-111422080D01*
X141594699Y-111413081D01*
X141629491Y-111408250D01*
X141706534Y-111397936D01*
X141706534Y-110397489D01*
X141511898Y-110374899D01*
X141511898Y-110248327D01*
X142193124Y-110248327D01*
X142193124Y-110374899D01*
G37*
G36*
X145417961Y-102241939D02*
G01*
X145550596Y-102377825D01*
X145550596Y-104591627D01*
X145417961Y-104727512D01*
X145285327Y-104863397D01*
X144260416Y-104863397D01*
X144126962Y-104729246D01*
X143993507Y-104595095D01*
X143993507Y-104562461D01*
X144090825Y-104562461D01*
X144191730Y-104664270D01*
X144292634Y-104766079D01*
X145249659Y-104766079D01*
X145351468Y-104665175D01*
X145453278Y-104564271D01*
X145453278Y-102406932D01*
X145235182Y-102187152D01*
X144310605Y-102187152D01*
X144090825Y-102405248D01*
X144090825Y-104562461D01*
X143993507Y-104562461D01*
X143993507Y-102372962D01*
X144127658Y-102239508D01*
X144261810Y-102106054D01*
X145285327Y-102106054D01*
X145417961Y-102241939D01*
G37*
G36*
X146138671Y-101501982D02*
G01*
X146572435Y-101935969D01*
X146572435Y-105034504D01*
X145703299Y-105901456D01*
X143839199Y-105901456D01*
X143397324Y-105459362D01*
X142955449Y-105017267D01*
X142955449Y-104643902D01*
X143847530Y-104643902D01*
X144021615Y-104818529D01*
X144195700Y-104993155D01*
X145347296Y-104993155D01*
X145513824Y-104827193D01*
X145680353Y-104661231D01*
X145680353Y-102309329D01*
X145332183Y-101960077D01*
X144212981Y-101960077D01*
X144030255Y-102142284D01*
X143847530Y-102324490D01*
X143847530Y-104643902D01*
X142955449Y-104643902D01*
X142955449Y-101951746D01*
X143397543Y-101509871D01*
X143839638Y-101067995D01*
X145704908Y-101067995D01*
X146138671Y-101501982D01*
G37*
G36*
X146783290Y-101829982D02*
G01*
X146783290Y-105114999D01*
X146284439Y-105613655D01*
X145785588Y-106112312D01*
X143737718Y-106112312D01*
X143249875Y-105613557D01*
X142762031Y-105114802D01*
X142762013Y-105065941D01*
X142841911Y-105065941D01*
X143316233Y-105540467D01*
X143790555Y-106014994D01*
X145753551Y-106014994D01*
X146219596Y-105548678D01*
X146685641Y-105082363D01*
X146707553Y-101876439D01*
X146238662Y-101407338D01*
X145769771Y-100938238D01*
X143774748Y-100938238D01*
X143308330Y-101404448D01*
X142841911Y-101870659D01*
X142841911Y-105065941D01*
X142762013Y-105065941D01*
X142760813Y-101822010D01*
X143742299Y-100840920D01*
X145805546Y-100840920D01*
X146783290Y-101829982D01*
G37*
G36*
X149848808Y-110605160D02*
G01*
X149723240Y-110605160D01*
X149701220Y-110410524D01*
X149410877Y-110410524D01*
X149410877Y-111396241D01*
X149504140Y-111410247D01*
X149556443Y-111418935D01*
X149584761Y-111428986D01*
X149597191Y-111446565D01*
X149601830Y-111477834D01*
X149602437Y-111485077D01*
X149607471Y-111545901D01*
X148922328Y-111545901D01*
X148927362Y-111485077D01*
X148931475Y-111450817D01*
X148941981Y-111431314D01*
X148966975Y-111420402D01*
X149014555Y-111411919D01*
X149025659Y-111410247D01*
X149118923Y-111396241D01*
X149118923Y-110410524D01*
X148830154Y-110410524D01*
X148807564Y-110605160D01*
X148680991Y-110605160D01*
X148680991Y-110248327D01*
X149848808Y-110248327D01*
X149848808Y-110605160D01*
G37*
G36*
X148535014Y-110372834D02*
G01*
X148348488Y-110402414D01*
X148344202Y-110899293D01*
X148339915Y-111396173D01*
X148433410Y-111410213D01*
X148485793Y-111418906D01*
X148514181Y-111428936D01*
X148526658Y-111446446D01*
X148531311Y-111477579D01*
X148531939Y-111485077D01*
X148536973Y-111545901D01*
X147853788Y-111545901D01*
X147853788Y-111488623D01*
X147855526Y-111455151D01*
X147865321Y-111434536D01*
X147890051Y-111422080D01*
X147936589Y-111413081D01*
X147971381Y-111408250D01*
X148048424Y-111397936D01*
X148048424Y-110397987D01*
X147955161Y-110383981D01*
X147902927Y-110375340D01*
X147875095Y-110365655D01*
X147863982Y-110349095D01*
X147861905Y-110319829D01*
X147861898Y-110313206D01*
X147861898Y-110256437D01*
X148535014Y-110247669D01*
X148535014Y-110372834D01*
G37*
G36*
X145047786Y-107940944D02*
G01*
X144950468Y-107951955D01*
X144853150Y-107962965D01*
X144853150Y-108455902D01*
X144853665Y-108600417D01*
X144855162Y-108723705D01*
X144857569Y-108823476D01*
X144860814Y-108897437D01*
X144864824Y-108943297D01*
X144868983Y-108958625D01*
X144893314Y-108966088D01*
X144937659Y-108974195D01*
X144966301Y-108978061D01*
X145047786Y-108987712D01*
X145047786Y-109112950D01*
X144364602Y-109112950D01*
X144369636Y-109052127D01*
X144373749Y-109017867D01*
X144384254Y-108998364D01*
X144409248Y-108987452D01*
X144456829Y-108978969D01*
X144467933Y-108977297D01*
X144561196Y-108963291D01*
X144561196Y-107965036D01*
X144467933Y-107951030D01*
X144415629Y-107942342D01*
X144387311Y-107932291D01*
X144374881Y-107914713D01*
X144370242Y-107883443D01*
X144369636Y-107876201D01*
X144364602Y-107815377D01*
X145047786Y-107815377D01*
X145047786Y-107940944D01*
G37*
G36*
X149654172Y-108172210D02*
G01*
X149526402Y-108172210D01*
X149516087Y-108095166D01*
X149508235Y-108039514D01*
X149498273Y-108004921D01*
X149479343Y-107986391D01*
X149444586Y-107978931D01*
X149387143Y-107977546D01*
X149354617Y-107977574D01*
X149216241Y-107977574D01*
X149216241Y-108964639D01*
X149394657Y-108986931D01*
X149394657Y-109112950D01*
X148729650Y-109112950D01*
X148729650Y-108986931D01*
X148818859Y-108975785D01*
X148908067Y-108964639D01*
X148908067Y-107977574D01*
X148770509Y-107977574D01*
X148703032Y-107977442D01*
X148660797Y-107980962D01*
X148636683Y-107994003D01*
X148623567Y-108022439D01*
X148614327Y-108072139D01*
X148608203Y-108111386D01*
X148599609Y-108150590D01*
X148583647Y-108167838D01*
X148549400Y-108172114D01*
X148534280Y-108172210D01*
X148470136Y-108172210D01*
X148470136Y-107815377D01*
X149654172Y-107815377D01*
X149654172Y-108172210D01*
G37*
G36*
X153433354Y-108155990D02*
G01*
X153306071Y-108155990D01*
X153278999Y-107985684D01*
X153039893Y-107981195D01*
X152800787Y-107976707D01*
X152800787Y-108368063D01*
X152950819Y-108363399D01*
X153100851Y-108358736D01*
X153115297Y-108273583D01*
X153124800Y-108224255D01*
X153135917Y-108198972D01*
X153155145Y-108189707D01*
X153184231Y-108188429D01*
X153238718Y-108188429D01*
X153238718Y-108675019D01*
X153182508Y-108675019D01*
X153149098Y-108673340D01*
X153131094Y-108662781D01*
X153121656Y-108635059D01*
X153115540Y-108593921D01*
X153104782Y-108512823D01*
X152800787Y-108512823D01*
X152800787Y-108951621D01*
X153039893Y-108947132D01*
X153278999Y-108942644D01*
X153292535Y-108857491D01*
X153306071Y-108772337D01*
X153433354Y-108772337D01*
X153433354Y-109112950D01*
X152314197Y-109112950D01*
X152314197Y-108987383D01*
X152508833Y-108965363D01*
X152508833Y-107965036D01*
X152415570Y-107951030D01*
X152363267Y-107942342D01*
X152334948Y-107932291D01*
X152322518Y-107914713D01*
X152317879Y-107883443D01*
X152317273Y-107876201D01*
X152312239Y-107815377D01*
X153433354Y-107815377D01*
X153433354Y-108155990D01*
G37*
G36*
X140311643Y-108155990D02*
G01*
X140184220Y-108155990D01*
X140161928Y-107977574D01*
X139678046Y-107977574D01*
X139687186Y-108358736D01*
X139978910Y-108358736D01*
X139996022Y-108277638D01*
X140007929Y-108229402D01*
X140021802Y-108204496D01*
X140044628Y-108194202D01*
X140065070Y-108191457D01*
X140117007Y-108186374D01*
X140117007Y-108675019D01*
X140061760Y-108675019D01*
X140028897Y-108673258D01*
X140011090Y-108662455D01*
X140001561Y-108634334D01*
X139995359Y-108593921D01*
X139984205Y-108512823D01*
X139679076Y-108512823D01*
X139679076Y-108950754D01*
X140161928Y-108950754D01*
X140173074Y-108861546D01*
X140184220Y-108772337D01*
X140311643Y-108772337D01*
X140311643Y-109112950D01*
X139190528Y-109112950D01*
X139195562Y-109052127D01*
X139199675Y-109017867D01*
X139210180Y-108998364D01*
X139235174Y-108987452D01*
X139282754Y-108978969D01*
X139293859Y-108977297D01*
X139387122Y-108963291D01*
X139387122Y-107965036D01*
X139293859Y-107951030D01*
X139241555Y-107942342D01*
X139213237Y-107932291D01*
X139200807Y-107914713D01*
X139196168Y-107883443D01*
X139195562Y-107876201D01*
X139190528Y-107815377D01*
X140311643Y-107815377D01*
X140311643Y-108155990D01*
G37*
G36*
X145031566Y-110588940D02*
G01*
X144904143Y-110588940D01*
X144881851Y-110410524D01*
X144397970Y-110410524D01*
X144402539Y-110601105D01*
X144407109Y-110791686D01*
X144698834Y-110791686D01*
X144715945Y-110710588D01*
X144727852Y-110662352D01*
X144741726Y-110637446D01*
X144764552Y-110627152D01*
X144784993Y-110624407D01*
X144836930Y-110619324D01*
X144836930Y-111107970D01*
X144782251Y-111107970D01*
X144749720Y-111106183D01*
X144732123Y-111095299D01*
X144722774Y-111067033D01*
X144716814Y-111026871D01*
X144706056Y-110945773D01*
X144398999Y-110945773D01*
X144398999Y-111383704D01*
X144881851Y-111383704D01*
X144904143Y-111205288D01*
X145031566Y-111205288D01*
X145031566Y-111545901D01*
X143912409Y-111545901D01*
X143912409Y-111488623D01*
X143914146Y-111455151D01*
X143923942Y-111434536D01*
X143948672Y-111422080D01*
X143995210Y-111413081D01*
X144030002Y-111408250D01*
X144107045Y-111397936D01*
X144107045Y-110397987D01*
X144013782Y-110383981D01*
X143961548Y-110375340D01*
X143933716Y-110365655D01*
X143922602Y-110349095D01*
X143920526Y-110319829D01*
X143920519Y-110313206D01*
X143920519Y-110256437D01*
X144476043Y-110252169D01*
X145031566Y-110247901D01*
X145031566Y-110588940D01*
G37*
G36*
X140582275Y-110581933D02*
G01*
X140652929Y-110680300D01*
X140721878Y-110776312D01*
X140785412Y-110864799D01*
X140839822Y-110940596D01*
X140881397Y-110998533D01*
X140899606Y-111023924D01*
X140976649Y-111131407D01*
X140976649Y-110397489D01*
X140782013Y-110374899D01*
X140782013Y-110248327D01*
X141365921Y-110248327D01*
X141365921Y-110374899D01*
X141171285Y-110397489D01*
X141171285Y-111545901D01*
X141053693Y-111545202D01*
X140936100Y-111544504D01*
X140645863Y-111132990D01*
X140572234Y-111028828D01*
X140503023Y-110931357D01*
X140440869Y-110844262D01*
X140388414Y-110771226D01*
X140348298Y-110715935D01*
X140323160Y-110682072D01*
X140317998Y-110675483D01*
X140280370Y-110629489D01*
X140279787Y-111012865D01*
X140279203Y-111396241D01*
X140372467Y-111410247D01*
X140424770Y-111418935D01*
X140453088Y-111428986D01*
X140465518Y-111446565D01*
X140470157Y-111477834D01*
X140470764Y-111485077D01*
X140475798Y-111545901D01*
X139889931Y-111545901D01*
X139889931Y-111488623D01*
X139891669Y-111455151D01*
X139901464Y-111434536D01*
X139926194Y-111422080D01*
X139972733Y-111413081D01*
X140007524Y-111408250D01*
X140084567Y-111397936D01*
X140084567Y-110397987D01*
X139991304Y-110383981D01*
X139939070Y-110375340D01*
X139911238Y-110365655D01*
X139900125Y-110349095D01*
X139898048Y-110319829D01*
X139898041Y-110313206D01*
X139898041Y-110256437D01*
X140120015Y-110251931D01*
X140341988Y-110247425D01*
X140582275Y-110581933D01*
G37*
G36*
X150659791Y-110374347D02*
G01*
X150569354Y-110385646D01*
X150513288Y-110395917D01*
X150487415Y-110408714D01*
X150486261Y-110415899D01*
X150497300Y-110435864D01*
X150522521Y-110477555D01*
X150558512Y-110535444D01*
X150601861Y-110604004D01*
X150616199Y-110626463D01*
X150664707Y-110701895D01*
X150699047Y-110753314D01*
X150722432Y-110784097D01*
X150738074Y-110797622D01*
X150749188Y-110797265D01*
X150758986Y-110786404D01*
X150762825Y-110780550D01*
X150780647Y-110752417D01*
X150811338Y-110703664D01*
X150850573Y-110641173D01*
X150893465Y-110572721D01*
X151000073Y-110402414D01*
X150911031Y-110387624D01*
X150821988Y-110372834D01*
X150821988Y-110248327D01*
X151389676Y-110248327D01*
X151389676Y-110374347D01*
X151212762Y-110396451D01*
X151025484Y-110687162D01*
X150838207Y-110977874D01*
X150838207Y-111397936D01*
X150915251Y-111408250D01*
X150975729Y-111417302D01*
X151010851Y-111427388D01*
X151027493Y-111443207D01*
X151032529Y-111469459D01*
X151032843Y-111488623D01*
X151032843Y-111545901D01*
X150349659Y-111545901D01*
X150354693Y-111485077D01*
X150358806Y-111450817D01*
X150369311Y-111431314D01*
X150394306Y-111420402D01*
X150441886Y-111411919D01*
X150452990Y-111410247D01*
X150546253Y-111396241D01*
X150546253Y-110994559D01*
X150350609Y-110695473D01*
X150154965Y-110396386D01*
X150066765Y-110385367D01*
X149978565Y-110374347D01*
X149978565Y-110248327D01*
X150659791Y-110248327D01*
X150659791Y-110374347D01*
G37*
G36*
X143815091Y-110372834D02*
G01*
X143723256Y-110387624D01*
X143631422Y-110402414D01*
X143418632Y-110970102D01*
X143205842Y-111537791D01*
X143064161Y-111542481D01*
X142994834Y-111543983D01*
X142951188Y-111542193D01*
X142926540Y-111536048D01*
X142914207Y-111524485D01*
X142911243Y-111518152D01*
X142903061Y-111496656D01*
X142884798Y-111448453D01*
X142857830Y-111377184D01*
X142823535Y-111286489D01*
X142783288Y-111180009D01*
X142738468Y-111061385D01*
X142694799Y-110945773D01*
X142489591Y-110402414D01*
X142398127Y-110387624D01*
X142306662Y-110372834D01*
X142306662Y-110248327D01*
X142971668Y-110248327D01*
X142971668Y-110374347D01*
X142882460Y-110385493D01*
X142833694Y-110393241D01*
X142801292Y-110401560D01*
X142793252Y-110406747D01*
X142798730Y-110428442D01*
X142813984Y-110474355D01*
X142837241Y-110539868D01*
X142866729Y-110620362D01*
X142900676Y-110711220D01*
X142937309Y-110807825D01*
X142974857Y-110905558D01*
X143011547Y-110999803D01*
X143045607Y-111085941D01*
X143075265Y-111159355D01*
X143098748Y-111215427D01*
X143114285Y-111249539D01*
X143119893Y-111257851D01*
X143127745Y-111240707D01*
X143144850Y-111197908D01*
X143169413Y-111134299D01*
X143199636Y-111054723D01*
X143233722Y-110964025D01*
X143269875Y-110867049D01*
X143306298Y-110768638D01*
X143341194Y-110673639D01*
X143372767Y-110586893D01*
X143399219Y-110513246D01*
X143418754Y-110457542D01*
X143429575Y-110424625D01*
X143431058Y-110418940D01*
X143418202Y-110407481D01*
X143381997Y-110394437D01*
X143344721Y-110385628D01*
X143294020Y-110374728D01*
X143267443Y-110363258D01*
X143257203Y-110344819D01*
X143255513Y-110313012D01*
X143255513Y-110256437D01*
X143815091Y-110247561D01*
X143815091Y-110372834D01*
G37*
G36*
X137489421Y-107831597D02*
G01*
X137425277Y-107831597D01*
X137383584Y-107829425D01*
X137363384Y-107816919D01*
X137353758Y-107785097D01*
X137351354Y-107770773D01*
X137342631Y-107713756D01*
X137334283Y-107675634D01*
X137320372Y-107652641D01*
X137294964Y-107641014D01*
X137252122Y-107636987D01*
X137185911Y-107636795D01*
X137140389Y-107636961D01*
X136954172Y-107636961D01*
X136954172Y-108292764D01*
X136953988Y-108457282D01*
X136953800Y-108592329D01*
X136954155Y-108700870D01*
X136955598Y-108785871D01*
X136958675Y-108850295D01*
X136963932Y-108897108D01*
X136971916Y-108929273D01*
X136983171Y-108949756D01*
X136998245Y-108961520D01*
X137017682Y-108967531D01*
X137042030Y-108970753D01*
X137071834Y-108974151D01*
X137079874Y-108975324D01*
X137122959Y-108983714D01*
X137142854Y-108997371D01*
X137148516Y-109025931D01*
X137148808Y-109049497D01*
X137148808Y-109112950D01*
X136451362Y-109112950D01*
X136451362Y-109049497D01*
X136453197Y-109009553D01*
X136464672Y-108989455D01*
X136494742Y-108979567D01*
X136520295Y-108975324D01*
X136551492Y-108971442D01*
X136577102Y-108968449D01*
X136597670Y-108963379D01*
X136613743Y-108953268D01*
X136625867Y-108935153D01*
X136634587Y-108906067D01*
X136640450Y-108863047D01*
X136644002Y-108803128D01*
X136645788Y-108723346D01*
X136646354Y-108620735D01*
X136646247Y-108492331D01*
X136646012Y-108335171D01*
X136645998Y-108292764D01*
X136645998Y-107636961D01*
X136274415Y-107636961D01*
X136264636Y-107697784D01*
X136253817Y-107762988D01*
X136244288Y-107802600D01*
X136231797Y-107822992D01*
X136212091Y-107830536D01*
X136180917Y-107831602D01*
X136175318Y-107831597D01*
X136110749Y-107831597D01*
X136110749Y-107458544D01*
X137489421Y-107458544D01*
X137489421Y-107831597D01*
G37*
G36*
X138264889Y-107876201D02*
G01*
X138260776Y-107910460D01*
X138250270Y-107929964D01*
X138225276Y-107940875D01*
X138177696Y-107949358D01*
X138166592Y-107951030D01*
X138073329Y-107965036D01*
X138073329Y-108350626D01*
X138576138Y-108350626D01*
X138576138Y-107965036D01*
X138482875Y-107951030D01*
X138430572Y-107942342D01*
X138402254Y-107932291D01*
X138389823Y-107914713D01*
X138385184Y-107883443D01*
X138384578Y-107876201D01*
X138379544Y-107815377D01*
X139064687Y-107815377D01*
X139059653Y-107876201D01*
X139055539Y-107910460D01*
X139045034Y-107929964D01*
X139020040Y-107940875D01*
X138972460Y-107949358D01*
X138961355Y-107951030D01*
X138868092Y-107965036D01*
X138868092Y-108963291D01*
X138961355Y-108977297D01*
X139013659Y-108985985D01*
X139041977Y-108996036D01*
X139054407Y-109013615D01*
X139059046Y-109044884D01*
X139059653Y-109052127D01*
X139064687Y-109112950D01*
X138381502Y-109112950D01*
X138381502Y-108987712D01*
X138462987Y-108978061D01*
X138513128Y-108970651D01*
X138550049Y-108962528D01*
X138560305Y-108958625D01*
X138566402Y-108939295D01*
X138571330Y-108893139D01*
X138574698Y-108825763D01*
X138576117Y-108742772D01*
X138576138Y-108730831D01*
X138576138Y-108512823D01*
X138073329Y-108512823D01*
X138073329Y-108963291D01*
X138166592Y-108977297D01*
X138218895Y-108985985D01*
X138247213Y-108996036D01*
X138259643Y-109013615D01*
X138264282Y-109044884D01*
X138264889Y-109052127D01*
X138269923Y-109112950D01*
X137586739Y-109112950D01*
X137586739Y-108987383D01*
X137781375Y-108965363D01*
X137781375Y-107965036D01*
X137688112Y-107951030D01*
X137635808Y-107942342D01*
X137607490Y-107932291D01*
X137595060Y-107914713D01*
X137590421Y-107883443D01*
X137589814Y-107876201D01*
X137584780Y-107815377D01*
X138269923Y-107815377D01*
X138264889Y-107876201D01*
G37*
G36*
X143422743Y-107876201D02*
G01*
X143418630Y-107910460D01*
X143408125Y-107929964D01*
X143383131Y-107940875D01*
X143335550Y-107949358D01*
X143324446Y-107951030D01*
X143231183Y-107965036D01*
X143231183Y-108350626D01*
X143735022Y-108350626D01*
X143730453Y-108160045D01*
X143725883Y-107969464D01*
X143636675Y-107952461D01*
X143585850Y-107941713D01*
X143558712Y-107929911D01*
X143547011Y-107910309D01*
X143542495Y-107876165D01*
X143542433Y-107875417D01*
X143537399Y-107815377D01*
X144222541Y-107815377D01*
X144217507Y-107876201D01*
X144213394Y-107910460D01*
X144202889Y-107929964D01*
X144177894Y-107940875D01*
X144130314Y-107949358D01*
X144119210Y-107951030D01*
X144025947Y-107965036D01*
X144025947Y-108963291D01*
X144119210Y-108977297D01*
X144171513Y-108985985D01*
X144199832Y-108996036D01*
X144212262Y-109013615D01*
X144216901Y-109044884D01*
X144217507Y-109052127D01*
X144222541Y-109112950D01*
X143539357Y-109112950D01*
X143539357Y-108987712D01*
X143620841Y-108978061D01*
X143670982Y-108970651D01*
X143707903Y-108962528D01*
X143718159Y-108958625D01*
X143724257Y-108939295D01*
X143729184Y-108893139D01*
X143732552Y-108825763D01*
X143733972Y-108742772D01*
X143733993Y-108730831D01*
X143733993Y-108512823D01*
X143231183Y-108512823D01*
X143231183Y-108963291D01*
X143324446Y-108977297D01*
X143376750Y-108985985D01*
X143405068Y-108996036D01*
X143417498Y-109013615D01*
X143422137Y-109044884D01*
X143422743Y-109052127D01*
X143427777Y-109112950D01*
X142744593Y-109112950D01*
X142744593Y-108987383D01*
X142939229Y-108965363D01*
X142939229Y-107965036D01*
X142845966Y-107951030D01*
X142793663Y-107942342D01*
X142765344Y-107932291D01*
X142752914Y-107914713D01*
X142748275Y-107883443D01*
X142747669Y-107876201D01*
X142742635Y-107815377D01*
X143427777Y-107815377D01*
X143422743Y-107876201D01*
G37*
G36*
X150574516Y-108062121D02*
G01*
X150612081Y-108158656D01*
X150657393Y-108275349D01*
X150706529Y-108402088D01*
X150755571Y-108528762D01*
X150797410Y-108637007D01*
X150923655Y-108963937D01*
X151014744Y-108977620D01*
X151066291Y-108986260D01*
X151093955Y-108996524D01*
X151105946Y-109014776D01*
X151110470Y-109047377D01*
X151110866Y-109052127D01*
X151115900Y-109112950D01*
X150430757Y-109112950D01*
X150435791Y-109052507D01*
X150440090Y-109018209D01*
X150451126Y-108998454D01*
X150477032Y-108986761D01*
X150525944Y-108976649D01*
X150532473Y-108975464D01*
X150624121Y-108958864D01*
X150533695Y-108731788D01*
X150040474Y-108731788D01*
X150001410Y-108827807D01*
X149981000Y-108880990D01*
X149966863Y-108923594D01*
X149962345Y-108944162D01*
X149977358Y-108958721D01*
X150017656Y-108972159D01*
X150047498Y-108977968D01*
X150096935Y-108986905D01*
X150122805Y-108998130D01*
X150133638Y-109018663D01*
X150137686Y-109052193D01*
X150142720Y-109112950D01*
X149573073Y-109112950D01*
X149573073Y-108988444D01*
X149665841Y-108973654D01*
X149758608Y-108958864D01*
X149910662Y-108565766D01*
X150108322Y-108565766D01*
X150123449Y-108570562D01*
X150164465Y-108574438D01*
X150224825Y-108576956D01*
X150286739Y-108577701D01*
X150358433Y-108576690D01*
X150416373Y-108573946D01*
X150454012Y-108569908D01*
X150465155Y-108565766D01*
X150459802Y-108543685D01*
X150445331Y-108499219D01*
X150424122Y-108438701D01*
X150398554Y-108368464D01*
X150371008Y-108294839D01*
X150343865Y-108224159D01*
X150319504Y-108162756D01*
X150300306Y-108116962D01*
X150288650Y-108093108D01*
X150286739Y-108091111D01*
X150278438Y-108105351D01*
X150261724Y-108143850D01*
X150238977Y-108200275D01*
X150212575Y-108268295D01*
X150184901Y-108341577D01*
X150158333Y-108413788D01*
X150135252Y-108478598D01*
X150118039Y-108529673D01*
X150109073Y-108560682D01*
X150108322Y-108565766D01*
X149910662Y-108565766D01*
X149978195Y-108391175D01*
X150197782Y-107823487D01*
X150477866Y-107814165D01*
X150574516Y-108062121D01*
G37*
G36*
X141982006Y-107438681D02*
G01*
X142120991Y-107464158D01*
X142250173Y-107511161D01*
X142334560Y-107559086D01*
X142425288Y-107639779D01*
X142498902Y-107746447D01*
X142554723Y-107877092D01*
X142592069Y-108029720D01*
X142610261Y-108202335D01*
X142609994Y-108366846D01*
X142591274Y-108548751D01*
X142552802Y-108705111D01*
X142494118Y-108836461D01*
X142414761Y-108943335D01*
X142314272Y-109026269D01*
X142192190Y-109085797D01*
X142048054Y-109122455D01*
X141949829Y-109133762D01*
X141870401Y-109135987D01*
X141785448Y-109133156D01*
X141722754Y-109127045D01*
X141577982Y-109092519D01*
X141454454Y-109034012D01*
X141352034Y-108951327D01*
X141270586Y-108844267D01*
X141209975Y-108712635D01*
X141170064Y-108556235D01*
X141150719Y-108374869D01*
X141148703Y-108293857D01*
X141149367Y-108277638D01*
X141472004Y-108277638D01*
X141477724Y-108446517D01*
X141496535Y-108587894D01*
X141529203Y-108704275D01*
X141576492Y-108798166D01*
X141639169Y-108872070D01*
X141658813Y-108888910D01*
X141738718Y-108933465D01*
X141833020Y-108955012D01*
X141932589Y-108952876D01*
X142028297Y-108926382D01*
X142047147Y-108917612D01*
X142127365Y-108859951D01*
X142191150Y-108775677D01*
X142238925Y-108664080D01*
X142267427Y-108546279D01*
X142283137Y-108418358D01*
X142287731Y-108281104D01*
X142281793Y-108143341D01*
X142265907Y-108013897D01*
X142240657Y-107901598D01*
X142221019Y-107845553D01*
X142183245Y-107778966D01*
X142130396Y-107715422D01*
X142071425Y-107664181D01*
X142017747Y-107635287D01*
X141935210Y-107618895D01*
X141844733Y-107618071D01*
X141760239Y-107632146D01*
X141713324Y-107649877D01*
X141635334Y-107702846D01*
X141573635Y-107774667D01*
X141527342Y-107867650D01*
X141495564Y-107984104D01*
X141477416Y-108126338D01*
X141472004Y-108277638D01*
X141149367Y-108277638D01*
X141156301Y-108108148D01*
X141181031Y-107948486D01*
X141223439Y-107813038D01*
X141284071Y-107699974D01*
X141349442Y-107621000D01*
X141447695Y-107544496D01*
X141566061Y-107487635D01*
X141698557Y-107450795D01*
X141839200Y-107434352D01*
X141982006Y-107438681D01*
G37*
G36*
X145647914Y-110256943D02*
G01*
X145792883Y-110257548D01*
X145909515Y-110259452D01*
X146001910Y-110263380D01*
X146074163Y-110270059D01*
X146130373Y-110280212D01*
X146174639Y-110294566D01*
X146211057Y-110313846D01*
X146243725Y-110338777D01*
X146274505Y-110367841D01*
X146336972Y-110450976D01*
X146369170Y-110542887D01*
X146370728Y-110639762D01*
X146341276Y-110737791D01*
X146315137Y-110785525D01*
X146276416Y-110834455D01*
X146230949Y-110875589D01*
X146212418Y-110887544D01*
X146154785Y-110918523D01*
X146216558Y-111014099D01*
X146251875Y-111074628D01*
X146291519Y-111151624D01*
X146328439Y-111231177D01*
X146338199Y-111254109D01*
X146398066Y-111398543D01*
X146473086Y-111408554D01*
X146532933Y-111417545D01*
X146567477Y-111427774D01*
X146583653Y-111444074D01*
X146588400Y-111471281D01*
X146588654Y-111489094D01*
X146588654Y-111546842D01*
X146375622Y-111542317D01*
X146162589Y-111537791D01*
X146068376Y-111311914D01*
X146018926Y-111198552D01*
X145975590Y-111112592D01*
X145935346Y-111050310D01*
X145895172Y-111007981D01*
X145852045Y-110981883D01*
X145802942Y-110968290D01*
X145787801Y-110966228D01*
X145712792Y-110957774D01*
X145712792Y-111396241D01*
X145806055Y-111410247D01*
X145858359Y-111418935D01*
X145886677Y-111428986D01*
X145899107Y-111446565D01*
X145903746Y-111477834D01*
X145904352Y-111485077D01*
X145909386Y-111545901D01*
X145226202Y-111545901D01*
X145226202Y-111488623D01*
X145227940Y-111455151D01*
X145237735Y-111434536D01*
X145262465Y-111422080D01*
X145309003Y-111413081D01*
X145343795Y-111408250D01*
X145420838Y-111397936D01*
X145420838Y-110819450D01*
X145712792Y-110819450D01*
X145841311Y-110813614D01*
X145909931Y-110809067D01*
X145955365Y-110801353D01*
X145986859Y-110788012D01*
X146011890Y-110768264D01*
X146056408Y-110707221D01*
X146077952Y-110635154D01*
X146076567Y-110560782D01*
X146052296Y-110492821D01*
X146010278Y-110443833D01*
X145981295Y-110426030D01*
X145944599Y-110415767D01*
X145890999Y-110411242D01*
X145840362Y-110410524D01*
X145712792Y-110410524D01*
X145712792Y-110819450D01*
X145420838Y-110819450D01*
X145420838Y-110397987D01*
X145327575Y-110383981D01*
X145275341Y-110375340D01*
X145247509Y-110365655D01*
X145236396Y-110349095D01*
X145234319Y-110319829D01*
X145234312Y-110313206D01*
X145234312Y-110256437D01*
X145647914Y-110256943D01*
G37*
G36*
X145889215Y-107810196D02*
G01*
X145983890Y-107820380D01*
X146060655Y-107840263D01*
X146126580Y-107872187D01*
X146188736Y-107918496D01*
X146234480Y-107961417D01*
X146301113Y-108039893D01*
X146349108Y-108126064D01*
X146380433Y-108225874D01*
X146397060Y-108345268D01*
X146401109Y-108464164D01*
X146390651Y-108630382D01*
X146359058Y-108772059D01*
X146305998Y-108889546D01*
X146231142Y-108983190D01*
X146134159Y-109053339D01*
X146014720Y-109100343D01*
X145872492Y-109124551D01*
X145771907Y-109128259D01*
X145641026Y-109120457D01*
X145531609Y-109098107D01*
X145520818Y-109094804D01*
X145414538Y-109044869D01*
X145321044Y-108969032D01*
X145246457Y-108873136D01*
X145208562Y-108796667D01*
X145193189Y-108753751D01*
X145182542Y-108712385D01*
X145175761Y-108665143D01*
X145171985Y-108604602D01*
X145170355Y-108523336D01*
X145170055Y-108464164D01*
X145477607Y-108464164D01*
X145478729Y-108572210D01*
X145482985Y-108654607D01*
X145491709Y-108718095D01*
X145506237Y-108769415D01*
X145527903Y-108815305D01*
X145555878Y-108859381D01*
X145601960Y-108904104D01*
X145667150Y-108940818D01*
X145738150Y-108962991D01*
X145774137Y-108966617D01*
X145825672Y-108960287D01*
X145881285Y-108944338D01*
X145887453Y-108941870D01*
X145959045Y-108901556D01*
X146013525Y-108845746D01*
X146052388Y-108771051D01*
X146077130Y-108674081D01*
X146089246Y-108551444D01*
X146091030Y-108480383D01*
X146086067Y-108335286D01*
X146068367Y-108217881D01*
X146036850Y-108125583D01*
X145990432Y-108055811D01*
X145928029Y-108005981D01*
X145883318Y-107984905D01*
X145788540Y-107964053D01*
X145699459Y-107973911D01*
X145620114Y-108012792D01*
X145554545Y-108079011D01*
X145521119Y-108136141D01*
X145503946Y-108174750D01*
X145491996Y-108209540D01*
X145484329Y-108247607D01*
X145480003Y-108296046D01*
X145478077Y-108361952D01*
X145477610Y-108452419D01*
X145477607Y-108464164D01*
X145170055Y-108464164D01*
X145170360Y-108368471D01*
X145172321Y-108297868D01*
X145176784Y-108245016D01*
X145184593Y-108202576D01*
X145196594Y-108163210D01*
X145208171Y-108132977D01*
X145270438Y-108019032D01*
X145356464Y-107927148D01*
X145465740Y-107857860D01*
X145473593Y-107854170D01*
X145519730Y-107834037D01*
X145559887Y-107820679D01*
X145602784Y-107812717D01*
X145657143Y-107808771D01*
X145731685Y-107807463D01*
X145769561Y-107807369D01*
X145889215Y-107810196D01*
G37*
G36*
X147923928Y-107441729D02*
G01*
X148089987Y-107469303D01*
X148239006Y-107509374D01*
X148291719Y-107525939D01*
X148291719Y-107847816D01*
X148219466Y-107847816D01*
X148174616Y-107846304D01*
X148152075Y-107836769D01*
X148141714Y-107811719D01*
X148137274Y-107786993D01*
X148125927Y-107718082D01*
X148116307Y-107674561D01*
X148103987Y-107649965D01*
X148084545Y-107637832D01*
X148053554Y-107631701D01*
X148028659Y-107628363D01*
X147916341Y-107617404D01*
X147814718Y-107616102D01*
X147730150Y-107624145D01*
X147668997Y-107641222D01*
X147658738Y-107646496D01*
X147589829Y-107700686D01*
X147550112Y-107766951D01*
X147537505Y-107847816D01*
X147545991Y-107916088D01*
X147573419Y-107973949D01*
X147622739Y-108023939D01*
X147696902Y-108068597D01*
X147798862Y-108110463D01*
X147870008Y-108133884D01*
X148009658Y-108181768D01*
X148120224Y-108231167D01*
X148205048Y-108284505D01*
X148267473Y-108344204D01*
X148310841Y-108412689D01*
X148332200Y-108468993D01*
X148356630Y-108597695D01*
X148353554Y-108720226D01*
X148324707Y-108832794D01*
X148271824Y-108931606D01*
X148196641Y-109012872D01*
X148100893Y-109072800D01*
X148046430Y-109093399D01*
X147916946Y-109122027D01*
X147772990Y-109135282D01*
X147629214Y-109132080D01*
X147586164Y-109127471D01*
X147508556Y-109114431D01*
X147421213Y-109095448D01*
X147355034Y-109078007D01*
X147237441Y-109043346D01*
X147237441Y-108691239D01*
X147379639Y-108691239D01*
X147390943Y-108796795D01*
X147398301Y-108850851D01*
X147410259Y-108889475D01*
X147431767Y-108915268D01*
X147467775Y-108930836D01*
X147523233Y-108938781D01*
X147603092Y-108941709D01*
X147667262Y-108942147D01*
X147751912Y-108941810D01*
X147811836Y-108939518D01*
X147854738Y-108934110D01*
X147888323Y-108924426D01*
X147920295Y-108909308D01*
X147933274Y-108902095D01*
X148004683Y-108844702D01*
X148048973Y-108770209D01*
X148064632Y-108681187D01*
X148064644Y-108678522D01*
X148052102Y-108593719D01*
X148016075Y-108526109D01*
X147977663Y-108491444D01*
X147946795Y-108475911D01*
X147892885Y-108453339D01*
X147823699Y-108426835D01*
X147751910Y-108401191D01*
X147631258Y-108357763D01*
X147537005Y-108319188D01*
X147463999Y-108282784D01*
X147407087Y-108245872D01*
X147361116Y-108205771D01*
X147346543Y-108190360D01*
X147290033Y-108105224D01*
X147254384Y-108002772D01*
X147240815Y-107891508D01*
X147250546Y-107779934D01*
X147275702Y-107696704D01*
X147330281Y-107606494D01*
X147409447Y-107534747D01*
X147510798Y-107481930D01*
X147631930Y-107448509D01*
X147770441Y-107434953D01*
X147923928Y-107441729D01*
G37*
G36*
X139520934Y-109895184D02*
G01*
X139816943Y-109899604D01*
X139821860Y-109958461D01*
X139822836Y-109997049D01*
X139811304Y-110015877D01*
X139778604Y-110025546D01*
X139765091Y-110027950D01*
X139711287Y-110037522D01*
X139663121Y-110046554D01*
X139659732Y-110047220D01*
X139616058Y-110055860D01*
X139611002Y-110634629D01*
X139609485Y-110798412D01*
X139607622Y-110933269D01*
X139604746Y-111042715D01*
X139600189Y-111130260D01*
X139593284Y-111199419D01*
X139583363Y-111253702D01*
X139569757Y-111296624D01*
X139551800Y-111331696D01*
X139528823Y-111362432D01*
X139500159Y-111392344D01*
X139465141Y-111424944D01*
X139459849Y-111429780D01*
X139388739Y-111486272D01*
X139318028Y-111522222D01*
X139279127Y-111534882D01*
X139191305Y-111553208D01*
X139087366Y-111565398D01*
X138980054Y-111570700D01*
X138882108Y-111568365D01*
X138825057Y-111561626D01*
X138681612Y-111524333D01*
X138563618Y-111468793D01*
X138471765Y-111395520D01*
X138406745Y-111305025D01*
X138376665Y-111228543D01*
X138368899Y-111196702D01*
X138362699Y-111159953D01*
X138357898Y-111114463D01*
X138354331Y-111056395D01*
X138351831Y-110981915D01*
X138350232Y-110887188D01*
X138349367Y-110768378D01*
X138349069Y-110621650D01*
X138349063Y-110592240D01*
X138349063Y-110054309D01*
X138312569Y-110046825D01*
X138271600Y-110039142D01*
X138220420Y-110030398D01*
X138215251Y-110029561D01*
X138176047Y-110020967D01*
X138158799Y-110005006D01*
X138154523Y-109970759D01*
X138154427Y-109955638D01*
X138154427Y-109891495D01*
X138851873Y-109891495D01*
X138851873Y-109955638D01*
X138849701Y-109997331D01*
X138837195Y-110017531D01*
X138805373Y-110027157D01*
X138791049Y-110029561D01*
X138740070Y-110038189D01*
X138696966Y-110046171D01*
X138693731Y-110046825D01*
X138657237Y-110054309D01*
X138657327Y-110577085D01*
X138657911Y-110729805D01*
X138659549Y-110864338D01*
X138662157Y-110977798D01*
X138665649Y-111067304D01*
X138669940Y-111129970D01*
X138674626Y-111161832D01*
X138705503Y-111228447D01*
X138756056Y-111292971D01*
X138816603Y-111344827D01*
X138865107Y-111369871D01*
X138911643Y-111380042D01*
X138976666Y-111387225D01*
X139046261Y-111389893D01*
X139047574Y-111389890D01*
X139160036Y-111380766D01*
X139248729Y-111352969D01*
X139317629Y-111304637D01*
X139367076Y-111240224D01*
X139411451Y-111164738D01*
X139421493Y-110054794D01*
X139384033Y-110047067D01*
X139342305Y-110039201D01*
X139290718Y-110030366D01*
X139285749Y-110029561D01*
X139246626Y-110021006D01*
X139229355Y-110005138D01*
X139225030Y-109971079D01*
X139224925Y-109955272D01*
X139224925Y-109890763D01*
X139520934Y-109895184D01*
G37*
G36*
X147371734Y-110246888D02*
G01*
X147407748Y-110253107D01*
X147494798Y-110269888D01*
X147555095Y-110284350D01*
X147593539Y-110301277D01*
X147615030Y-110325451D01*
X147624467Y-110361658D01*
X147626749Y-110414679D01*
X147626713Y-110466891D01*
X147626713Y-110621380D01*
X147562927Y-110621380D01*
X147527180Y-110619870D01*
X147504672Y-110610926D01*
X147490635Y-110587928D01*
X147480302Y-110544253D01*
X147472377Y-110495626D01*
X147465808Y-110460494D01*
X147455002Y-110437486D01*
X147433549Y-110423125D01*
X147395040Y-110413931D01*
X147333064Y-110406425D01*
X147302320Y-110403321D01*
X147200055Y-110402473D01*
X147117198Y-110421161D01*
X147056326Y-110457943D01*
X147020012Y-110511378D01*
X147010366Y-110566763D01*
X147018409Y-110616817D01*
X147044846Y-110659204D01*
X147093138Y-110696590D01*
X147166745Y-110731643D01*
X147269130Y-110767028D01*
X147271123Y-110767643D01*
X147347421Y-110792226D01*
X147418265Y-110816967D01*
X147474065Y-110838417D01*
X147498491Y-110849350D01*
X147581553Y-110908699D01*
X147641872Y-110988337D01*
X147677474Y-111083632D01*
X147686383Y-111189956D01*
X147676204Y-111266111D01*
X147639376Y-111360797D01*
X147575899Y-111440588D01*
X147489613Y-111501669D01*
X147405832Y-111534754D01*
X147308319Y-111553100D01*
X147191862Y-111561003D01*
X147068191Y-111558580D01*
X146949033Y-111545949D01*
X146867827Y-111529364D01*
X146808649Y-111513161D01*
X146761489Y-111498961D01*
X146735442Y-111489524D01*
X146734014Y-111488750D01*
X146727425Y-111469412D01*
X146722212Y-111425062D01*
X146719049Y-111363119D01*
X146718412Y-111316935D01*
X146718412Y-111154763D01*
X146787345Y-111159751D01*
X146856279Y-111164738D01*
X146870522Y-111264763D01*
X146878334Y-111313233D01*
X146889249Y-111346265D01*
X146908913Y-111366830D01*
X146942971Y-111377902D01*
X146997068Y-111382450D01*
X147076850Y-111383448D01*
X147096040Y-111383483D01*
X147209267Y-111377422D01*
X147294323Y-111358088D01*
X147353122Y-111324351D01*
X147387573Y-111275079D01*
X147399588Y-111209142D01*
X147399638Y-111203866D01*
X147393760Y-111152165D01*
X147373299Y-111110813D01*
X147334008Y-111076242D01*
X147271645Y-111044883D01*
X147181964Y-111013168D01*
X147167441Y-111008636D01*
X147039180Y-110965787D01*
X146939165Y-110924026D01*
X146863440Y-110880550D01*
X146808047Y-110832552D01*
X146769027Y-110777227D01*
X146742423Y-110711770D01*
X146740759Y-110706171D01*
X146726459Y-110610246D01*
X146735779Y-110513144D01*
X146766561Y-110424001D01*
X146816646Y-110351953D01*
X146826761Y-110342210D01*
X146900901Y-110294189D01*
X146998708Y-110259689D01*
X147113942Y-110239668D01*
X147240364Y-110235082D01*
X147371734Y-110246888D01*
G37*
D13*
%TO.C,J1*%
X109144000Y-51130000D02*
X109144000Y-78918000D01*
X101930000Y-51130000D02*
X109144000Y-51130000D01*
X109144000Y-78918000D02*
X101930000Y-78918000D01*
X101930000Y-78918000D02*
X101930000Y-51130000D01*
D12*
X100495480Y-54589680D02*
G75*
G03*
X100495480Y-54589680I-100000J0D01*
G01*
%TD*%
D14*
X101600000Y-50800000D02*
X154940000Y-50800000D01*
X154940000Y-114300000D01*
X101600000Y-114300000D01*
X101600000Y-50800000D01*
M02*
