M48
; DRILL file {KiCad 7.0.7} date Thu 14 Sep 2023 03:53:36 PM EDT
; FORMAT={-:-/ absolute / inch / decimal}
; #@! TF.CreationDate,2023-09-14T15:53:36-04:00
; #@! TF.GenerationSoftware,Kicad,Pcbnew,7.0.7
; #@! TF.FileFunction,Plated,1,2,PTH
FMAT,2
INCH
; #@! TA.AperFunction,Plated,PTH,ViaDrill
T1C0.0157
; #@! TA.AperFunction,Plated,PTH,ComponentDrill
T2C0.0220
%
G90
G05
T1
X4.4589Y-3.264
X5.0237Y-3.0711
X5.0709Y-3.05
X5.1948Y-2.1602
X5.1969Y-3.264
X5.228Y-4.187
X5.2717Y-3.1971
X5.3938Y-2.953
X5.398Y-2.197
X5.5267Y-3.0247
X5.7387Y-3.864
X5.838Y-3.8191
X5.8572Y-2.5188
T2
X4.1046Y-2.16
X4.1046Y-3.539
X4.105Y-2.21
X4.105Y-2.26
X4.105Y-2.31
X4.105Y-2.36
X4.105Y-2.41
X4.105Y-2.46
X4.105Y-2.51
X4.105Y-2.56
X4.105Y-2.61
X4.105Y-2.66
X4.105Y-2.71
X4.105Y-2.76
X4.105Y-2.81
X4.105Y-2.86
X4.105Y-2.91
X4.105Y-2.96
X4.105Y-3.589
X4.105Y-3.639
X4.105Y-3.689
X4.105Y-3.739
X4.105Y-3.789
X4.105Y-3.839
X4.105Y-3.889
X4.105Y-3.939
X4.105Y-3.989
X4.105Y-4.039
X4.105Y-4.089
X4.105Y-4.139
X4.105Y-4.189
X4.105Y-4.239
X4.105Y-4.289
X4.105Y-4.339
X4.205Y-2.21
X4.205Y-2.26
X4.205Y-2.31
X4.205Y-2.36
X4.205Y-2.41
X4.205Y-2.46
X4.205Y-2.51
X4.205Y-2.56
X4.205Y-2.61
X4.205Y-2.66
X4.205Y-2.71
X4.205Y-2.76
X4.205Y-2.81
X4.205Y-2.86
X4.205Y-2.91
X4.205Y-2.96
X4.205Y-3.589
X4.205Y-3.639
X4.205Y-3.689
X4.205Y-3.739
X4.205Y-3.789
X4.205Y-3.839
X4.205Y-3.889
X4.205Y-3.939
X4.205Y-3.989
X4.205Y-4.039
X4.205Y-4.089
X4.205Y-4.139
X4.205Y-4.189
X4.205Y-4.239
X4.205Y-4.289
X4.205Y-4.339
X4.2054Y-2.16
X4.2054Y-3.539
X5.8966Y-2.85
X5.897Y-2.9
X5.897Y-2.95
X5.897Y-3.0
X5.897Y-3.05
X5.897Y-3.1
X5.897Y-3.15
X5.897Y-3.2
X5.897Y-3.25
X5.897Y-3.3
X5.897Y-3.35
X5.897Y-3.4
X5.897Y-3.45
X5.897Y-3.5
X5.897Y-3.55
X5.897Y-3.6
X5.897Y-3.65
X5.997Y-2.9
X5.997Y-2.95
X5.997Y-3.0
X5.997Y-3.05
X5.997Y-3.1
X5.997Y-3.15
X5.997Y-3.2
X5.997Y-3.25
X5.997Y-3.3
X5.997Y-3.35
X5.997Y-3.4
X5.997Y-3.45
X5.997Y-3.5
X5.997Y-3.55
X5.997Y-3.6
X5.997Y-3.65
X5.9974Y-2.85
T0
M30
