%TF.GenerationSoftware,KiCad,Pcbnew,7.0.7*%
%TF.CreationDate,2023-09-14T15:53:42-04:00*%
%TF.ProjectId,Heater_South_DCT_HSK,48656174-6572-45f5-936f-7574685f4443,rev?*%
%TF.SameCoordinates,Original*%
%TF.FileFunction,Legend,Bot*%
%TF.FilePolarity,Positive*%
%FSLAX46Y46*%
G04 Gerber Fmt 4.6, Leading zero omitted, Abs format (unit mm)*
G04 Created by KiCad (PCBNEW 7.0.7) date 2023-09-14 15:53:42*
%MOMM*%
%LPD*%
G01*
G04 APERTURE LIST*
%ADD10C,0.150000*%
%ADD11C,0.500000*%
%ADD12C,0.300000*%
%TA.AperFunction,Profile*%
%ADD13C,0.100000*%
%TD*%
G04 APERTURE END LIST*
D10*
X103200200Y-89890600D02*
G75*
G03*
X103200200Y-89890600I-25400J0D01*
G01*
X103200200Y-54864000D02*
G75*
G03*
X103200200Y-54864000I-25400J0D01*
G01*
X148615400Y-72390000D02*
G75*
G03*
X148615400Y-72390000I-25400J0D01*
G01*
D11*
X151784332Y-59421676D02*
X151284332Y-59588342D01*
X151284332Y-59588342D02*
X150450999Y-59588342D01*
X150450999Y-59588342D02*
X150117665Y-59421676D01*
X150117665Y-59421676D02*
X149950999Y-59255009D01*
X149950999Y-59255009D02*
X149784332Y-58921676D01*
X149784332Y-58921676D02*
X149784332Y-58588342D01*
X149784332Y-58588342D02*
X149950999Y-58255009D01*
X149950999Y-58255009D02*
X150117665Y-58088342D01*
X150117665Y-58088342D02*
X150450999Y-57921676D01*
X150450999Y-57921676D02*
X151117665Y-57755009D01*
X151117665Y-57755009D02*
X151450999Y-57588342D01*
X151450999Y-57588342D02*
X151617665Y-57421676D01*
X151617665Y-57421676D02*
X151784332Y-57088342D01*
X151784332Y-57088342D02*
X151784332Y-56755009D01*
X151784332Y-56755009D02*
X151617665Y-56421676D01*
X151617665Y-56421676D02*
X151450999Y-56255009D01*
X151450999Y-56255009D02*
X151117665Y-56088342D01*
X151117665Y-56088342D02*
X150284332Y-56088342D01*
X150284332Y-56088342D02*
X149784332Y-56255009D01*
X147784332Y-59588342D02*
X148117666Y-59421676D01*
X148117666Y-59421676D02*
X148284332Y-59255009D01*
X148284332Y-59255009D02*
X148450999Y-58921676D01*
X148450999Y-58921676D02*
X148450999Y-57921676D01*
X148450999Y-57921676D02*
X148284332Y-57588342D01*
X148284332Y-57588342D02*
X148117666Y-57421676D01*
X148117666Y-57421676D02*
X147784332Y-57255009D01*
X147784332Y-57255009D02*
X147284332Y-57255009D01*
X147284332Y-57255009D02*
X146950999Y-57421676D01*
X146950999Y-57421676D02*
X146784332Y-57588342D01*
X146784332Y-57588342D02*
X146617666Y-57921676D01*
X146617666Y-57921676D02*
X146617666Y-58921676D01*
X146617666Y-58921676D02*
X146784332Y-59255009D01*
X146784332Y-59255009D02*
X146950999Y-59421676D01*
X146950999Y-59421676D02*
X147284332Y-59588342D01*
X147284332Y-59588342D02*
X147784332Y-59588342D01*
X143617665Y-57255009D02*
X143617665Y-59588342D01*
X145117665Y-57255009D02*
X145117665Y-59088342D01*
X145117665Y-59088342D02*
X144950999Y-59421676D01*
X144950999Y-59421676D02*
X144617665Y-59588342D01*
X144617665Y-59588342D02*
X144117665Y-59588342D01*
X144117665Y-59588342D02*
X143784332Y-59421676D01*
X143784332Y-59421676D02*
X143617665Y-59255009D01*
X142450998Y-57255009D02*
X141117665Y-57255009D01*
X141950998Y-56088342D02*
X141950998Y-59088342D01*
X141950998Y-59088342D02*
X141784332Y-59421676D01*
X141784332Y-59421676D02*
X141450998Y-59588342D01*
X141450998Y-59588342D02*
X141117665Y-59588342D01*
X139950998Y-59588342D02*
X139950998Y-56088342D01*
X138450998Y-59588342D02*
X138450998Y-57755009D01*
X138450998Y-57755009D02*
X138617665Y-57421676D01*
X138617665Y-57421676D02*
X138950998Y-57255009D01*
X138950998Y-57255009D02*
X139450998Y-57255009D01*
X139450998Y-57255009D02*
X139784332Y-57421676D01*
X139784332Y-57421676D02*
X139950998Y-57588342D01*
D12*
X154212527Y-105179193D02*
X154212527Y-103879193D01*
X154212527Y-104498241D02*
X153469670Y-104498241D01*
X153469670Y-105179193D02*
X153469670Y-103879193D01*
X152355384Y-105117289D02*
X152479193Y-105179193D01*
X152479193Y-105179193D02*
X152726812Y-105179193D01*
X152726812Y-105179193D02*
X152850622Y-105117289D01*
X152850622Y-105117289D02*
X152912526Y-104993479D01*
X152912526Y-104993479D02*
X152912526Y-104498241D01*
X152912526Y-104498241D02*
X152850622Y-104374431D01*
X152850622Y-104374431D02*
X152726812Y-104312527D01*
X152726812Y-104312527D02*
X152479193Y-104312527D01*
X152479193Y-104312527D02*
X152355384Y-104374431D01*
X152355384Y-104374431D02*
X152293479Y-104498241D01*
X152293479Y-104498241D02*
X152293479Y-104622050D01*
X152293479Y-104622050D02*
X152912526Y-104745860D01*
X151179193Y-105179193D02*
X151179193Y-104498241D01*
X151179193Y-104498241D02*
X151241098Y-104374431D01*
X151241098Y-104374431D02*
X151364907Y-104312527D01*
X151364907Y-104312527D02*
X151612526Y-104312527D01*
X151612526Y-104312527D02*
X151736336Y-104374431D01*
X151179193Y-105117289D02*
X151303002Y-105179193D01*
X151303002Y-105179193D02*
X151612526Y-105179193D01*
X151612526Y-105179193D02*
X151736336Y-105117289D01*
X151736336Y-105117289D02*
X151798240Y-104993479D01*
X151798240Y-104993479D02*
X151798240Y-104869669D01*
X151798240Y-104869669D02*
X151736336Y-104745860D01*
X151736336Y-104745860D02*
X151612526Y-104683955D01*
X151612526Y-104683955D02*
X151303002Y-104683955D01*
X151303002Y-104683955D02*
X151179193Y-104622050D01*
X150745860Y-104312527D02*
X150250622Y-104312527D01*
X150560146Y-103879193D02*
X150560146Y-104993479D01*
X150560146Y-104993479D02*
X150498241Y-105117289D01*
X150498241Y-105117289D02*
X150374431Y-105179193D01*
X150374431Y-105179193D02*
X150250622Y-105179193D01*
X149322051Y-105117289D02*
X149445860Y-105179193D01*
X149445860Y-105179193D02*
X149693479Y-105179193D01*
X149693479Y-105179193D02*
X149817289Y-105117289D01*
X149817289Y-105117289D02*
X149879193Y-104993479D01*
X149879193Y-104993479D02*
X149879193Y-104498241D01*
X149879193Y-104498241D02*
X149817289Y-104374431D01*
X149817289Y-104374431D02*
X149693479Y-104312527D01*
X149693479Y-104312527D02*
X149445860Y-104312527D01*
X149445860Y-104312527D02*
X149322051Y-104374431D01*
X149322051Y-104374431D02*
X149260146Y-104498241D01*
X149260146Y-104498241D02*
X149260146Y-104622050D01*
X149260146Y-104622050D02*
X149879193Y-104745860D01*
X148703003Y-105179193D02*
X148703003Y-104312527D01*
X148703003Y-104560146D02*
X148641098Y-104436336D01*
X148641098Y-104436336D02*
X148579193Y-104374431D01*
X148579193Y-104374431D02*
X148455384Y-104312527D01*
X148455384Y-104312527D02*
X148331574Y-104312527D01*
X146969669Y-105117289D02*
X146783955Y-105179193D01*
X146783955Y-105179193D02*
X146474431Y-105179193D01*
X146474431Y-105179193D02*
X146350622Y-105117289D01*
X146350622Y-105117289D02*
X146288717Y-105055384D01*
X146288717Y-105055384D02*
X146226812Y-104931574D01*
X146226812Y-104931574D02*
X146226812Y-104807765D01*
X146226812Y-104807765D02*
X146288717Y-104683955D01*
X146288717Y-104683955D02*
X146350622Y-104622050D01*
X146350622Y-104622050D02*
X146474431Y-104560146D01*
X146474431Y-104560146D02*
X146722050Y-104498241D01*
X146722050Y-104498241D02*
X146845860Y-104436336D01*
X146845860Y-104436336D02*
X146907765Y-104374431D01*
X146907765Y-104374431D02*
X146969669Y-104250622D01*
X146969669Y-104250622D02*
X146969669Y-104126812D01*
X146969669Y-104126812D02*
X146907765Y-104003003D01*
X146907765Y-104003003D02*
X146845860Y-103941098D01*
X146845860Y-103941098D02*
X146722050Y-103879193D01*
X146722050Y-103879193D02*
X146412527Y-103879193D01*
X146412527Y-103879193D02*
X146226812Y-103941098D01*
X145483955Y-105179193D02*
X145607765Y-105117289D01*
X145607765Y-105117289D02*
X145669670Y-105055384D01*
X145669670Y-105055384D02*
X145731574Y-104931574D01*
X145731574Y-104931574D02*
X145731574Y-104560146D01*
X145731574Y-104560146D02*
X145669670Y-104436336D01*
X145669670Y-104436336D02*
X145607765Y-104374431D01*
X145607765Y-104374431D02*
X145483955Y-104312527D01*
X145483955Y-104312527D02*
X145298241Y-104312527D01*
X145298241Y-104312527D02*
X145174432Y-104374431D01*
X145174432Y-104374431D02*
X145112527Y-104436336D01*
X145112527Y-104436336D02*
X145050622Y-104560146D01*
X145050622Y-104560146D02*
X145050622Y-104931574D01*
X145050622Y-104931574D02*
X145112527Y-105055384D01*
X145112527Y-105055384D02*
X145174432Y-105117289D01*
X145174432Y-105117289D02*
X145298241Y-105179193D01*
X145298241Y-105179193D02*
X145483955Y-105179193D01*
X143936337Y-104312527D02*
X143936337Y-105179193D01*
X144493480Y-104312527D02*
X144493480Y-104993479D01*
X144493480Y-104993479D02*
X144431575Y-105117289D01*
X144431575Y-105117289D02*
X144307765Y-105179193D01*
X144307765Y-105179193D02*
X144122051Y-105179193D01*
X144122051Y-105179193D02*
X143998242Y-105117289D01*
X143998242Y-105117289D02*
X143936337Y-105055384D01*
X143503004Y-104312527D02*
X143007766Y-104312527D01*
X143317290Y-103879193D02*
X143317290Y-104993479D01*
X143317290Y-104993479D02*
X143255385Y-105117289D01*
X143255385Y-105117289D02*
X143131575Y-105179193D01*
X143131575Y-105179193D02*
X143007766Y-105179193D01*
X142574433Y-105179193D02*
X142574433Y-103879193D01*
X142017290Y-105179193D02*
X142017290Y-104498241D01*
X142017290Y-104498241D02*
X142079195Y-104374431D01*
X142079195Y-104374431D02*
X142203004Y-104312527D01*
X142203004Y-104312527D02*
X142388718Y-104312527D01*
X142388718Y-104312527D02*
X142512528Y-104374431D01*
X142512528Y-104374431D02*
X142574433Y-104436336D01*
X139664910Y-105179193D02*
X140098243Y-104560146D01*
X140407767Y-105179193D02*
X140407767Y-103879193D01*
X140407767Y-103879193D02*
X139912529Y-103879193D01*
X139912529Y-103879193D02*
X139788719Y-103941098D01*
X139788719Y-103941098D02*
X139726814Y-104003003D01*
X139726814Y-104003003D02*
X139664910Y-104126812D01*
X139664910Y-104126812D02*
X139664910Y-104312527D01*
X139664910Y-104312527D02*
X139726814Y-104436336D01*
X139726814Y-104436336D02*
X139788719Y-104498241D01*
X139788719Y-104498241D02*
X139912529Y-104560146D01*
X139912529Y-104560146D02*
X140407767Y-104560146D01*
X138612529Y-105117289D02*
X138736338Y-105179193D01*
X138736338Y-105179193D02*
X138983957Y-105179193D01*
X138983957Y-105179193D02*
X139107767Y-105117289D01*
X139107767Y-105117289D02*
X139169671Y-104993479D01*
X139169671Y-104993479D02*
X139169671Y-104498241D01*
X139169671Y-104498241D02*
X139107767Y-104374431D01*
X139107767Y-104374431D02*
X138983957Y-104312527D01*
X138983957Y-104312527D02*
X138736338Y-104312527D01*
X138736338Y-104312527D02*
X138612529Y-104374431D01*
X138612529Y-104374431D02*
X138550624Y-104498241D01*
X138550624Y-104498241D02*
X138550624Y-104622050D01*
X138550624Y-104622050D02*
X139169671Y-104745860D01*
X138117290Y-104312527D02*
X137807766Y-105179193D01*
X137807766Y-105179193D02*
X137498243Y-104312527D01*
X135579195Y-104498241D02*
X135393481Y-104560146D01*
X135393481Y-104560146D02*
X135331576Y-104622050D01*
X135331576Y-104622050D02*
X135269672Y-104745860D01*
X135269672Y-104745860D02*
X135269672Y-104931574D01*
X135269672Y-104931574D02*
X135331576Y-105055384D01*
X135331576Y-105055384D02*
X135393481Y-105117289D01*
X135393481Y-105117289D02*
X135517291Y-105179193D01*
X135517291Y-105179193D02*
X136012529Y-105179193D01*
X136012529Y-105179193D02*
X136012529Y-103879193D01*
X136012529Y-103879193D02*
X135579195Y-103879193D01*
X135579195Y-103879193D02*
X135455386Y-103941098D01*
X135455386Y-103941098D02*
X135393481Y-104003003D01*
X135393481Y-104003003D02*
X135331576Y-104126812D01*
X135331576Y-104126812D02*
X135331576Y-104250622D01*
X135331576Y-104250622D02*
X135393481Y-104374431D01*
X135393481Y-104374431D02*
X135455386Y-104436336D01*
X135455386Y-104436336D02*
X135579195Y-104498241D01*
X135579195Y-104498241D02*
X136012529Y-104498241D01*
X153964908Y-107272193D02*
X153964908Y-105972193D01*
X153964908Y-105972193D02*
X153655384Y-105972193D01*
X153655384Y-105972193D02*
X153469670Y-106034098D01*
X153469670Y-106034098D02*
X153345860Y-106157908D01*
X153345860Y-106157908D02*
X153283955Y-106281717D01*
X153283955Y-106281717D02*
X153222051Y-106529336D01*
X153222051Y-106529336D02*
X153222051Y-106715050D01*
X153222051Y-106715050D02*
X153283955Y-106962669D01*
X153283955Y-106962669D02*
X153345860Y-107086479D01*
X153345860Y-107086479D02*
X153469670Y-107210289D01*
X153469670Y-107210289D02*
X153655384Y-107272193D01*
X153655384Y-107272193D02*
X153964908Y-107272193D01*
X152169670Y-107210289D02*
X152293479Y-107272193D01*
X152293479Y-107272193D02*
X152541098Y-107272193D01*
X152541098Y-107272193D02*
X152664908Y-107210289D01*
X152664908Y-107210289D02*
X152726812Y-107086479D01*
X152726812Y-107086479D02*
X152726812Y-106591241D01*
X152726812Y-106591241D02*
X152664908Y-106467431D01*
X152664908Y-106467431D02*
X152541098Y-106405527D01*
X152541098Y-106405527D02*
X152293479Y-106405527D01*
X152293479Y-106405527D02*
X152169670Y-106467431D01*
X152169670Y-106467431D02*
X152107765Y-106591241D01*
X152107765Y-106591241D02*
X152107765Y-106715050D01*
X152107765Y-106715050D02*
X152726812Y-106838860D01*
X151550622Y-106405527D02*
X151550622Y-107272193D01*
X151550622Y-106529336D02*
X151488717Y-106467431D01*
X151488717Y-106467431D02*
X151364907Y-106405527D01*
X151364907Y-106405527D02*
X151179193Y-106405527D01*
X151179193Y-106405527D02*
X151055384Y-106467431D01*
X151055384Y-106467431D02*
X150993479Y-106591241D01*
X150993479Y-106591241D02*
X150993479Y-107272193D01*
X150374432Y-106405527D02*
X150374432Y-107272193D01*
X150374432Y-106529336D02*
X150312527Y-106467431D01*
X150312527Y-106467431D02*
X150188717Y-106405527D01*
X150188717Y-106405527D02*
X150003003Y-106405527D01*
X150003003Y-106405527D02*
X149879194Y-106467431D01*
X149879194Y-106467431D02*
X149817289Y-106591241D01*
X149817289Y-106591241D02*
X149817289Y-107272193D01*
X149198242Y-107272193D02*
X149198242Y-106405527D01*
X149198242Y-105972193D02*
X149260146Y-106034098D01*
X149260146Y-106034098D02*
X149198242Y-106096003D01*
X149198242Y-106096003D02*
X149136337Y-106034098D01*
X149136337Y-106034098D02*
X149198242Y-105972193D01*
X149198242Y-105972193D02*
X149198242Y-106096003D01*
X148641098Y-107210289D02*
X148517289Y-107272193D01*
X148517289Y-107272193D02*
X148269670Y-107272193D01*
X148269670Y-107272193D02*
X148145860Y-107210289D01*
X148145860Y-107210289D02*
X148083956Y-107086479D01*
X148083956Y-107086479D02*
X148083956Y-107024574D01*
X148083956Y-107024574D02*
X148145860Y-106900765D01*
X148145860Y-106900765D02*
X148269670Y-106838860D01*
X148269670Y-106838860D02*
X148455384Y-106838860D01*
X148455384Y-106838860D02*
X148579194Y-106776955D01*
X148579194Y-106776955D02*
X148641098Y-106653146D01*
X148641098Y-106653146D02*
X148641098Y-106591241D01*
X148641098Y-106591241D02*
X148579194Y-106467431D01*
X148579194Y-106467431D02*
X148455384Y-106405527D01*
X148455384Y-106405527D02*
X148269670Y-106405527D01*
X148269670Y-106405527D02*
X148145860Y-106467431D01*
X146536337Y-107272193D02*
X146536337Y-105972193D01*
X146536337Y-106591241D02*
X145793480Y-106591241D01*
X145793480Y-107272193D02*
X145793480Y-105972193D01*
X145174432Y-107148384D02*
X145112527Y-107210289D01*
X145112527Y-107210289D02*
X145174432Y-107272193D01*
X145174432Y-107272193D02*
X145236336Y-107210289D01*
X145236336Y-107210289D02*
X145174432Y-107148384D01*
X145174432Y-107148384D02*
X145174432Y-107272193D01*
X142822051Y-107148384D02*
X142883955Y-107210289D01*
X142883955Y-107210289D02*
X143069670Y-107272193D01*
X143069670Y-107272193D02*
X143193479Y-107272193D01*
X143193479Y-107272193D02*
X143379193Y-107210289D01*
X143379193Y-107210289D02*
X143503003Y-107086479D01*
X143503003Y-107086479D02*
X143564908Y-106962669D01*
X143564908Y-106962669D02*
X143626812Y-106715050D01*
X143626812Y-106715050D02*
X143626812Y-106529336D01*
X143626812Y-106529336D02*
X143564908Y-106281717D01*
X143564908Y-106281717D02*
X143503003Y-106157908D01*
X143503003Y-106157908D02*
X143379193Y-106034098D01*
X143379193Y-106034098D02*
X143193479Y-105972193D01*
X143193479Y-105972193D02*
X143069670Y-105972193D01*
X143069670Y-105972193D02*
X142883955Y-106034098D01*
X142883955Y-106034098D02*
X142822051Y-106096003D01*
X141707765Y-107272193D02*
X141707765Y-106591241D01*
X141707765Y-106591241D02*
X141769670Y-106467431D01*
X141769670Y-106467431D02*
X141893479Y-106405527D01*
X141893479Y-106405527D02*
X142141098Y-106405527D01*
X142141098Y-106405527D02*
X142264908Y-106467431D01*
X141707765Y-107210289D02*
X141831574Y-107272193D01*
X141831574Y-107272193D02*
X142141098Y-107272193D01*
X142141098Y-107272193D02*
X142264908Y-107210289D01*
X142264908Y-107210289D02*
X142326812Y-107086479D01*
X142326812Y-107086479D02*
X142326812Y-106962669D01*
X142326812Y-106962669D02*
X142264908Y-106838860D01*
X142264908Y-106838860D02*
X142141098Y-106776955D01*
X142141098Y-106776955D02*
X141831574Y-106776955D01*
X141831574Y-106776955D02*
X141707765Y-106715050D01*
X140903003Y-107272193D02*
X141026813Y-107210289D01*
X141026813Y-107210289D02*
X141088718Y-107086479D01*
X141088718Y-107086479D02*
X141088718Y-105972193D01*
X139850623Y-107272193D02*
X139850623Y-105972193D01*
X139850623Y-107210289D02*
X139974432Y-107272193D01*
X139974432Y-107272193D02*
X140222051Y-107272193D01*
X140222051Y-107272193D02*
X140345861Y-107210289D01*
X140345861Y-107210289D02*
X140407766Y-107148384D01*
X140407766Y-107148384D02*
X140469670Y-107024574D01*
X140469670Y-107024574D02*
X140469670Y-106653146D01*
X140469670Y-106653146D02*
X140407766Y-106529336D01*
X140407766Y-106529336D02*
X140345861Y-106467431D01*
X140345861Y-106467431D02*
X140222051Y-106405527D01*
X140222051Y-106405527D02*
X139974432Y-106405527D01*
X139974432Y-106405527D02*
X139850623Y-106467431D01*
X138736338Y-107210289D02*
X138860147Y-107272193D01*
X138860147Y-107272193D02*
X139107766Y-107272193D01*
X139107766Y-107272193D02*
X139231576Y-107210289D01*
X139231576Y-107210289D02*
X139293480Y-107086479D01*
X139293480Y-107086479D02*
X139293480Y-106591241D01*
X139293480Y-106591241D02*
X139231576Y-106467431D01*
X139231576Y-106467431D02*
X139107766Y-106405527D01*
X139107766Y-106405527D02*
X138860147Y-106405527D01*
X138860147Y-106405527D02*
X138736338Y-106467431D01*
X138736338Y-106467431D02*
X138674433Y-106591241D01*
X138674433Y-106591241D02*
X138674433Y-106715050D01*
X138674433Y-106715050D02*
X139293480Y-106838860D01*
X138117290Y-107272193D02*
X138117290Y-106405527D01*
X138117290Y-106653146D02*
X138055385Y-106529336D01*
X138055385Y-106529336D02*
X137993480Y-106467431D01*
X137993480Y-106467431D02*
X137869671Y-106405527D01*
X137869671Y-106405527D02*
X137745861Y-106405527D01*
X137126813Y-107272193D02*
X137250623Y-107210289D01*
X137250623Y-107210289D02*
X137312528Y-107148384D01*
X137312528Y-107148384D02*
X137374432Y-107024574D01*
X137374432Y-107024574D02*
X137374432Y-106653146D01*
X137374432Y-106653146D02*
X137312528Y-106529336D01*
X137312528Y-106529336D02*
X137250623Y-106467431D01*
X137250623Y-106467431D02*
X137126813Y-106405527D01*
X137126813Y-106405527D02*
X136941099Y-106405527D01*
X136941099Y-106405527D02*
X136817290Y-106467431D01*
X136817290Y-106467431D02*
X136755385Y-106529336D01*
X136755385Y-106529336D02*
X136693480Y-106653146D01*
X136693480Y-106653146D02*
X136693480Y-107024574D01*
X136693480Y-107024574D02*
X136755385Y-107148384D01*
X136755385Y-107148384D02*
X136817290Y-107210289D01*
X136817290Y-107210289D02*
X136941099Y-107272193D01*
X136941099Y-107272193D02*
X137126813Y-107272193D01*
X136136338Y-106405527D02*
X136136338Y-107272193D01*
X136136338Y-106529336D02*
X136074433Y-106467431D01*
X136074433Y-106467431D02*
X135950623Y-106405527D01*
X135950623Y-106405527D02*
X135764909Y-106405527D01*
X135764909Y-106405527D02*
X135641100Y-106467431D01*
X135641100Y-106467431D02*
X135579195Y-106591241D01*
X135579195Y-106591241D02*
X135579195Y-107272193D01*
X150529194Y-108065193D02*
X150405384Y-108065193D01*
X150405384Y-108065193D02*
X150281575Y-108127098D01*
X150281575Y-108127098D02*
X150219670Y-108189003D01*
X150219670Y-108189003D02*
X150157765Y-108312812D01*
X150157765Y-108312812D02*
X150095860Y-108560431D01*
X150095860Y-108560431D02*
X150095860Y-108869955D01*
X150095860Y-108869955D02*
X150157765Y-109117574D01*
X150157765Y-109117574D02*
X150219670Y-109241384D01*
X150219670Y-109241384D02*
X150281575Y-109303289D01*
X150281575Y-109303289D02*
X150405384Y-109365193D01*
X150405384Y-109365193D02*
X150529194Y-109365193D01*
X150529194Y-109365193D02*
X150653003Y-109303289D01*
X150653003Y-109303289D02*
X150714908Y-109241384D01*
X150714908Y-109241384D02*
X150776813Y-109117574D01*
X150776813Y-109117574D02*
X150838717Y-108869955D01*
X150838717Y-108869955D02*
X150838717Y-108560431D01*
X150838717Y-108560431D02*
X150776813Y-108312812D01*
X150776813Y-108312812D02*
X150714908Y-108189003D01*
X150714908Y-108189003D02*
X150653003Y-108127098D01*
X150653003Y-108127098D02*
X150529194Y-108065193D01*
X149476813Y-109365193D02*
X149229194Y-109365193D01*
X149229194Y-109365193D02*
X149105384Y-109303289D01*
X149105384Y-109303289D02*
X149043480Y-109241384D01*
X149043480Y-109241384D02*
X148919670Y-109055669D01*
X148919670Y-109055669D02*
X148857765Y-108808050D01*
X148857765Y-108808050D02*
X148857765Y-108312812D01*
X148857765Y-108312812D02*
X148919670Y-108189003D01*
X148919670Y-108189003D02*
X148981575Y-108127098D01*
X148981575Y-108127098D02*
X149105384Y-108065193D01*
X149105384Y-108065193D02*
X149353003Y-108065193D01*
X149353003Y-108065193D02*
X149476813Y-108127098D01*
X149476813Y-108127098D02*
X149538718Y-108189003D01*
X149538718Y-108189003D02*
X149600622Y-108312812D01*
X149600622Y-108312812D02*
X149600622Y-108622336D01*
X149600622Y-108622336D02*
X149538718Y-108746146D01*
X149538718Y-108746146D02*
X149476813Y-108808050D01*
X149476813Y-108808050D02*
X149353003Y-108869955D01*
X149353003Y-108869955D02*
X149105384Y-108869955D01*
X149105384Y-108869955D02*
X148981575Y-108808050D01*
X148981575Y-108808050D02*
X148919670Y-108746146D01*
X148919670Y-108746146D02*
X148857765Y-108622336D01*
X147372051Y-108003289D02*
X148486337Y-109674717D01*
X146691099Y-108065193D02*
X146567289Y-108065193D01*
X146567289Y-108065193D02*
X146443480Y-108127098D01*
X146443480Y-108127098D02*
X146381575Y-108189003D01*
X146381575Y-108189003D02*
X146319670Y-108312812D01*
X146319670Y-108312812D02*
X146257765Y-108560431D01*
X146257765Y-108560431D02*
X146257765Y-108869955D01*
X146257765Y-108869955D02*
X146319670Y-109117574D01*
X146319670Y-109117574D02*
X146381575Y-109241384D01*
X146381575Y-109241384D02*
X146443480Y-109303289D01*
X146443480Y-109303289D02*
X146567289Y-109365193D01*
X146567289Y-109365193D02*
X146691099Y-109365193D01*
X146691099Y-109365193D02*
X146814908Y-109303289D01*
X146814908Y-109303289D02*
X146876813Y-109241384D01*
X146876813Y-109241384D02*
X146938718Y-109117574D01*
X146938718Y-109117574D02*
X147000622Y-108869955D01*
X147000622Y-108869955D02*
X147000622Y-108560431D01*
X147000622Y-108560431D02*
X146938718Y-108312812D01*
X146938718Y-108312812D02*
X146876813Y-108189003D01*
X146876813Y-108189003D02*
X146814908Y-108127098D01*
X146814908Y-108127098D02*
X146691099Y-108065193D01*
X145638718Y-109365193D02*
X145391099Y-109365193D01*
X145391099Y-109365193D02*
X145267289Y-109303289D01*
X145267289Y-109303289D02*
X145205385Y-109241384D01*
X145205385Y-109241384D02*
X145081575Y-109055669D01*
X145081575Y-109055669D02*
X145019670Y-108808050D01*
X145019670Y-108808050D02*
X145019670Y-108312812D01*
X145019670Y-108312812D02*
X145081575Y-108189003D01*
X145081575Y-108189003D02*
X145143480Y-108127098D01*
X145143480Y-108127098D02*
X145267289Y-108065193D01*
X145267289Y-108065193D02*
X145514908Y-108065193D01*
X145514908Y-108065193D02*
X145638718Y-108127098D01*
X145638718Y-108127098D02*
X145700623Y-108189003D01*
X145700623Y-108189003D02*
X145762527Y-108312812D01*
X145762527Y-108312812D02*
X145762527Y-108622336D01*
X145762527Y-108622336D02*
X145700623Y-108746146D01*
X145700623Y-108746146D02*
X145638718Y-108808050D01*
X145638718Y-108808050D02*
X145514908Y-108869955D01*
X145514908Y-108869955D02*
X145267289Y-108869955D01*
X145267289Y-108869955D02*
X145143480Y-108808050D01*
X145143480Y-108808050D02*
X145081575Y-108746146D01*
X145081575Y-108746146D02*
X145019670Y-108622336D01*
X143533956Y-108003289D02*
X144648242Y-109674717D01*
X143162527Y-108189003D02*
X143100623Y-108127098D01*
X143100623Y-108127098D02*
X142976813Y-108065193D01*
X142976813Y-108065193D02*
X142667289Y-108065193D01*
X142667289Y-108065193D02*
X142543480Y-108127098D01*
X142543480Y-108127098D02*
X142481575Y-108189003D01*
X142481575Y-108189003D02*
X142419670Y-108312812D01*
X142419670Y-108312812D02*
X142419670Y-108436622D01*
X142419670Y-108436622D02*
X142481575Y-108622336D01*
X142481575Y-108622336D02*
X143224432Y-109365193D01*
X143224432Y-109365193D02*
X142419670Y-109365193D01*
X141614909Y-108065193D02*
X141491099Y-108065193D01*
X141491099Y-108065193D02*
X141367290Y-108127098D01*
X141367290Y-108127098D02*
X141305385Y-108189003D01*
X141305385Y-108189003D02*
X141243480Y-108312812D01*
X141243480Y-108312812D02*
X141181575Y-108560431D01*
X141181575Y-108560431D02*
X141181575Y-108869955D01*
X141181575Y-108869955D02*
X141243480Y-109117574D01*
X141243480Y-109117574D02*
X141305385Y-109241384D01*
X141305385Y-109241384D02*
X141367290Y-109303289D01*
X141367290Y-109303289D02*
X141491099Y-109365193D01*
X141491099Y-109365193D02*
X141614909Y-109365193D01*
X141614909Y-109365193D02*
X141738718Y-109303289D01*
X141738718Y-109303289D02*
X141800623Y-109241384D01*
X141800623Y-109241384D02*
X141862528Y-109117574D01*
X141862528Y-109117574D02*
X141924432Y-108869955D01*
X141924432Y-108869955D02*
X141924432Y-108560431D01*
X141924432Y-108560431D02*
X141862528Y-108312812D01*
X141862528Y-108312812D02*
X141800623Y-108189003D01*
X141800623Y-108189003D02*
X141738718Y-108127098D01*
X141738718Y-108127098D02*
X141614909Y-108065193D01*
X140686337Y-108189003D02*
X140624433Y-108127098D01*
X140624433Y-108127098D02*
X140500623Y-108065193D01*
X140500623Y-108065193D02*
X140191099Y-108065193D01*
X140191099Y-108065193D02*
X140067290Y-108127098D01*
X140067290Y-108127098D02*
X140005385Y-108189003D01*
X140005385Y-108189003D02*
X139943480Y-108312812D01*
X139943480Y-108312812D02*
X139943480Y-108436622D01*
X139943480Y-108436622D02*
X140005385Y-108622336D01*
X140005385Y-108622336D02*
X140748242Y-109365193D01*
X140748242Y-109365193D02*
X139943480Y-109365193D01*
X139510147Y-108065193D02*
X138705385Y-108065193D01*
X138705385Y-108065193D02*
X139138719Y-108560431D01*
X139138719Y-108560431D02*
X138953004Y-108560431D01*
X138953004Y-108560431D02*
X138829195Y-108622336D01*
X138829195Y-108622336D02*
X138767290Y-108684241D01*
X138767290Y-108684241D02*
X138705385Y-108808050D01*
X138705385Y-108808050D02*
X138705385Y-109117574D01*
X138705385Y-109117574D02*
X138767290Y-109241384D01*
X138767290Y-109241384D02*
X138829195Y-109303289D01*
X138829195Y-109303289D02*
X138953004Y-109365193D01*
X138953004Y-109365193D02*
X139324433Y-109365193D01*
X139324433Y-109365193D02*
X139448242Y-109303289D01*
X139448242Y-109303289D02*
X139510147Y-109241384D01*
%TO.C,G\u002A\u002A\u002A*%
G36*
X150724800Y-95929085D02*
G01*
X150530164Y-95929085D01*
X150530164Y-69069314D01*
X150724800Y-69069314D01*
X150724800Y-95929085D01*
G37*
G36*
X141998619Y-95271918D02*
G01*
X141803983Y-95293938D01*
X141609347Y-95315959D01*
X141609347Y-95896645D01*
X143584925Y-95896645D01*
X143606945Y-95702009D01*
X143628966Y-95507373D01*
X143880100Y-95507373D01*
X143880100Y-96869825D01*
X143628966Y-96869825D01*
X143606945Y-96675189D01*
X143584925Y-96480553D01*
X141609347Y-96480553D01*
X141609347Y-97061240D01*
X141803983Y-97083260D01*
X141998619Y-97105281D01*
X141998619Y-97356415D01*
X141284954Y-97356415D01*
X141284954Y-95020783D01*
X141998619Y-95020783D01*
X141998619Y-95271918D01*
G37*
G36*
X146449178Y-76368165D02*
G01*
X148450071Y-76368165D01*
X148470700Y-76214078D01*
X148480362Y-76144495D01*
X148498359Y-76051418D01*
X148523272Y-76001959D01*
X148564502Y-75982368D01*
X148631445Y-75978893D01*
X148746001Y-75978893D01*
X148746001Y-77345262D01*
X148624353Y-77335193D01*
X148609868Y-77333981D01*
X148547329Y-77324703D01*
X148512172Y-77299843D01*
X148492070Y-77243206D01*
X148474694Y-77138599D01*
X148446682Y-76952073D01*
X146449178Y-76952073D01*
X146403998Y-77341345D01*
X146150854Y-77341345D01*
X146150854Y-75978893D01*
X146403998Y-75978893D01*
X146449178Y-76368165D01*
G37*
G36*
X135786081Y-78479122D02*
G01*
X135883804Y-78479158D01*
X136881314Y-79454846D01*
X137878823Y-80430533D01*
X137878823Y-84526272D01*
X136881510Y-85523974D01*
X135884197Y-86521677D01*
X129314163Y-86521677D01*
X127336039Y-84566189D01*
X127336039Y-84494638D01*
X127530675Y-84494638D01*
X128468876Y-85432420D01*
X129407077Y-86370203D01*
X135818925Y-86326379D01*
X137684187Y-84462199D01*
X137684187Y-80536207D01*
X135786081Y-78638919D01*
X129395517Y-78638919D01*
X127530675Y-80504593D01*
X127530675Y-84494638D01*
X127336039Y-84494638D01*
X127336039Y-80439694D01*
X128317130Y-79458208D01*
X129298220Y-78476722D01*
X135786081Y-78479122D01*
G37*
G36*
X134779121Y-80942111D02*
G01*
X134844390Y-80942111D01*
X135112692Y-81209020D01*
X135380994Y-81475928D01*
X135380994Y-83525750D01*
X135109224Y-83791019D01*
X134837453Y-84056288D01*
X130409849Y-84056288D01*
X129866307Y-83525750D01*
X129866307Y-83425461D01*
X130028504Y-83425461D01*
X130248284Y-83643556D01*
X130468063Y-83861652D01*
X134782741Y-83861652D01*
X134984550Y-83658033D01*
X135186358Y-83454414D01*
X135186358Y-81540365D01*
X134982740Y-81338556D01*
X134779121Y-81136747D01*
X130464695Y-81136747D01*
X130246600Y-81356527D01*
X130028504Y-81576307D01*
X130028504Y-83425461D01*
X129866307Y-83425461D01*
X129866307Y-81478716D01*
X130133216Y-81210413D01*
X130400124Y-80942111D01*
X134779121Y-80942111D01*
G37*
G36*
X134942004Y-78865994D02*
G01*
X135688734Y-78865994D01*
X136572923Y-79749745D01*
X137457112Y-80633495D01*
X137457112Y-84361694D01*
X135723208Y-86099966D01*
X129526137Y-86099966D01*
X128658163Y-85232439D01*
X127790190Y-84364912D01*
X127790190Y-83619463D01*
X129574353Y-83619463D01*
X129923606Y-83967633D01*
X130272858Y-84315802D01*
X134976662Y-84315802D01*
X135308586Y-83982745D01*
X135640509Y-83649688D01*
X135640509Y-81346497D01*
X135291257Y-80998327D01*
X134942004Y-80650157D01*
X130303180Y-80650157D01*
X129938767Y-81015607D01*
X129574353Y-81381058D01*
X129574353Y-83619463D01*
X127790190Y-83619463D01*
X127790190Y-80634372D01*
X128673941Y-79750183D01*
X129557691Y-78865994D01*
X134942004Y-78865994D01*
G37*
G36*
X146864519Y-90570224D02*
G01*
X146475247Y-90615404D01*
X146475247Y-91192942D01*
X148446682Y-91192942D01*
X148474694Y-91006415D01*
X148478038Y-90984207D01*
X148495004Y-90889046D01*
X148516827Y-90839058D01*
X148555834Y-90818047D01*
X148624353Y-90809821D01*
X148746001Y-90799753D01*
X148746001Y-92170038D01*
X148624353Y-92159970D01*
X148609868Y-92158757D01*
X148547329Y-92149479D01*
X148512172Y-92124619D01*
X148492070Y-92067983D01*
X148474694Y-91963376D01*
X148446682Y-91776850D01*
X146475247Y-91776850D01*
X146475247Y-92357536D01*
X146669883Y-92379557D01*
X146864519Y-92401577D01*
X146864519Y-92652712D01*
X146150854Y-92652712D01*
X146150854Y-90317079D01*
X146864519Y-90317079D01*
X146864519Y-90570224D01*
G37*
G36*
X148746001Y-90029042D02*
G01*
X148624353Y-90018974D01*
X148609357Y-90017718D01*
X148547091Y-90008413D01*
X148512072Y-89983459D01*
X148492012Y-89926683D01*
X148474625Y-89821916D01*
X148446545Y-89634927D01*
X147452786Y-89643500D01*
X146459028Y-89652073D01*
X146399868Y-90025125D01*
X146149538Y-90025125D01*
X146167074Y-88678893D01*
X146280611Y-88678893D01*
X146293858Y-88678907D01*
X146352389Y-88683060D01*
X146385510Y-88705286D01*
X146404880Y-88760951D01*
X146422161Y-88865419D01*
X146450173Y-89051945D01*
X148450071Y-89051945D01*
X148470700Y-88897859D01*
X148480362Y-88828275D01*
X148498359Y-88735198D01*
X148523272Y-88685739D01*
X148564502Y-88666148D01*
X148631445Y-88662673D01*
X148746001Y-88662673D01*
X148746001Y-90029042D01*
G37*
G36*
X143880100Y-83050668D02*
G01*
X143629623Y-83050668D01*
X143610321Y-82887699D01*
X143602590Y-82830414D01*
X143586376Y-82741725D01*
X143571449Y-82693063D01*
X143540794Y-82684745D01*
X143449073Y-82676725D01*
X143301151Y-82670235D01*
X143101610Y-82665421D01*
X142855033Y-82662426D01*
X142566004Y-82661396D01*
X141580129Y-82661396D01*
X141558109Y-82856032D01*
X141536088Y-83050668D01*
X141284954Y-83050668D01*
X141284954Y-81684300D01*
X141406601Y-81694368D01*
X141421086Y-81695580D01*
X141483625Y-81704858D01*
X141518782Y-81729719D01*
X141538884Y-81786355D01*
X141556260Y-81890962D01*
X141584272Y-82077488D01*
X143580782Y-82077488D01*
X143608794Y-81890962D01*
X143612138Y-81868754D01*
X143629104Y-81773593D01*
X143650927Y-81723604D01*
X143689934Y-81702594D01*
X143758453Y-81694368D01*
X143880100Y-81684300D01*
X143880100Y-83050668D01*
G37*
G36*
X141998619Y-90023656D02*
G01*
X141998427Y-90053897D01*
X141989875Y-90122391D01*
X141955379Y-90154314D01*
X141876971Y-90171502D01*
X141798478Y-90183751D01*
X141699077Y-90202230D01*
X141642206Y-90228462D01*
X141616123Y-90276691D01*
X141609084Y-90361161D01*
X141609347Y-90496114D01*
X141609347Y-90771230D01*
X143583478Y-90771230D01*
X143605770Y-90592814D01*
X143628061Y-90414397D01*
X143880100Y-90414397D01*
X143880100Y-91744410D01*
X143628061Y-91744410D01*
X143605770Y-91565994D01*
X143583478Y-91387578D01*
X141609347Y-91387578D01*
X141609347Y-91664330D01*
X141609291Y-91729383D01*
X141612062Y-91844268D01*
X141626982Y-91913783D01*
X141664041Y-91951643D01*
X141733227Y-91971567D01*
X141844532Y-91987271D01*
X141998619Y-92007900D01*
X141998619Y-92263440D01*
X141284954Y-92263440D01*
X141284954Y-89895368D01*
X141998619Y-89895368D01*
X141998619Y-90023656D01*
G37*
G36*
X141406601Y-97589642D02*
G01*
X141421086Y-97590855D01*
X141483625Y-97600133D01*
X141518782Y-97624993D01*
X141538884Y-97681630D01*
X141556260Y-97786237D01*
X141584272Y-97972763D01*
X143584925Y-97972763D01*
X143606945Y-97778127D01*
X143628966Y-97583491D01*
X143880100Y-97583491D01*
X143880100Y-99821805D01*
X143198874Y-99821805D01*
X143198874Y-99567239D01*
X143369181Y-99540167D01*
X143539487Y-99513095D01*
X143557441Y-98556671D01*
X142679845Y-98556671D01*
X142679845Y-99164660D01*
X142842042Y-99186176D01*
X142924318Y-99198409D01*
X142979761Y-99217284D01*
X143000880Y-99253293D01*
X143004238Y-99320112D01*
X143004238Y-99432533D01*
X142031058Y-99432533D01*
X142031058Y-99323558D01*
X142033613Y-99265387D01*
X142052144Y-99226930D01*
X142102710Y-99204696D01*
X142201365Y-99185690D01*
X142371671Y-99156798D01*
X142380998Y-98856735D01*
X142390326Y-98556671D01*
X141607613Y-98556671D01*
X141625567Y-99513095D01*
X141795873Y-99540167D01*
X141966180Y-99567239D01*
X141966180Y-99821805D01*
X141284954Y-99821805D01*
X141284954Y-97579574D01*
X141406601Y-97589642D01*
G37*
G36*
X143880100Y-73578382D02*
G01*
X143198874Y-73578382D01*
X143198874Y-73323536D01*
X143377291Y-73301244D01*
X143555707Y-73278953D01*
X143555707Y-72313248D01*
X142679845Y-72313248D01*
X142679845Y-72923507D01*
X142842042Y-72945815D01*
X142922867Y-72958218D01*
X142979110Y-72977277D01*
X143000715Y-73012891D01*
X143004238Y-73078616D01*
X143004238Y-73189110D01*
X142026948Y-73189110D01*
X142037113Y-73085236D01*
X142042604Y-73044353D01*
X142063192Y-72998701D01*
X142113003Y-72970954D01*
X142209475Y-72947140D01*
X142371671Y-72912917D01*
X142371671Y-72329468D01*
X141990509Y-72320328D01*
X141609347Y-72311189D01*
X141609347Y-73278953D01*
X141787763Y-73301244D01*
X141966180Y-73323536D01*
X141966180Y-73578382D01*
X141284954Y-73578382D01*
X141284954Y-71336152D01*
X141406601Y-71346220D01*
X141421086Y-71347432D01*
X141483625Y-71356710D01*
X141518782Y-71381571D01*
X141538884Y-71438207D01*
X141556260Y-71542814D01*
X141584272Y-71729340D01*
X143580782Y-71729340D01*
X143608794Y-71542814D01*
X143612138Y-71520605D01*
X143629104Y-71425445D01*
X143650927Y-71375456D01*
X143689934Y-71354446D01*
X143758453Y-71346220D01*
X143880100Y-71336152D01*
X143880100Y-73578382D01*
G37*
G36*
X148746001Y-83018229D02*
G01*
X148064775Y-83018229D01*
X148064775Y-82763383D01*
X148421607Y-82718799D01*
X148421607Y-81753095D01*
X147545745Y-81753095D01*
X147545745Y-82367208D01*
X147707942Y-82388724D01*
X147788266Y-82400645D01*
X147844798Y-82419342D01*
X147866565Y-82454536D01*
X147870139Y-82519598D01*
X147870139Y-82628957D01*
X146892848Y-82628957D01*
X146903013Y-82525083D01*
X146908504Y-82484200D01*
X146929092Y-82438548D01*
X146978903Y-82410801D01*
X147075375Y-82386987D01*
X147237572Y-82352764D01*
X147237572Y-81769314D01*
X146856410Y-81760175D01*
X146475247Y-81751036D01*
X146475247Y-82718799D01*
X146653664Y-82741091D01*
X146832080Y-82763383D01*
X146832080Y-83018229D01*
X146150002Y-83018229D01*
X146158538Y-81907182D01*
X146167074Y-80796134D01*
X146280611Y-80796134D01*
X146293858Y-80796148D01*
X146352389Y-80800301D01*
X146385510Y-80822528D01*
X146404880Y-80878192D01*
X146422161Y-80982661D01*
X146450173Y-81169187D01*
X148450071Y-81169187D01*
X148470700Y-81015100D01*
X148480362Y-80945517D01*
X148498359Y-80852440D01*
X148523272Y-80802981D01*
X148564502Y-80783389D01*
X148631445Y-80779915D01*
X148746001Y-80779915D01*
X148746001Y-83018229D01*
G37*
G36*
X148746001Y-73906692D02*
G01*
X148624353Y-73896624D01*
X148609868Y-73895411D01*
X148547329Y-73886133D01*
X148512172Y-73861273D01*
X148492070Y-73804636D01*
X148474694Y-73700030D01*
X148446682Y-73513503D01*
X146913178Y-73515837D01*
X147005165Y-73591093D01*
X147018343Y-73601417D01*
X147086069Y-73651692D01*
X147196652Y-73731925D01*
X147342724Y-73836835D01*
X147516914Y-73961142D01*
X147711856Y-74099565D01*
X147920179Y-74246823D01*
X148743207Y-74827297D01*
X148746001Y-75297667D01*
X146449178Y-75297667D01*
X146403998Y-75686939D01*
X146150854Y-75686939D01*
X146150854Y-74519123D01*
X146403998Y-74519123D01*
X146449178Y-74908395D01*
X147917014Y-74908395D01*
X147702048Y-74754308D01*
X147651266Y-74717891D01*
X147535391Y-74634741D01*
X147383798Y-74525921D01*
X147206823Y-74398853D01*
X147014800Y-74260954D01*
X146818066Y-74119647D01*
X146149050Y-73639073D01*
X146167074Y-72751179D01*
X146280611Y-72751179D01*
X146293858Y-72751193D01*
X146352389Y-72755346D01*
X146385510Y-72777572D01*
X146404880Y-72833237D01*
X146422161Y-72937705D01*
X146450173Y-73124231D01*
X148450071Y-73124231D01*
X148470700Y-72970145D01*
X148480362Y-72900562D01*
X148498359Y-72807484D01*
X148523272Y-72758025D01*
X148564502Y-72738434D01*
X148631445Y-72734959D01*
X148746001Y-72734959D01*
X148746001Y-73906692D01*
G37*
G36*
X146424933Y-93088626D02*
G01*
X146446972Y-93265026D01*
X147045145Y-93656314D01*
X147643317Y-94047603D01*
X148446682Y-94047603D01*
X148474694Y-93861077D01*
X148478038Y-93838869D01*
X148495004Y-93743708D01*
X148516827Y-93693719D01*
X148555834Y-93672709D01*
X148624353Y-93664483D01*
X148746001Y-93654415D01*
X148746001Y-95020783D01*
X148631445Y-95020783D01*
X148593118Y-95020154D01*
X148540614Y-95010082D01*
X148508975Y-94976799D01*
X148488804Y-94906555D01*
X148470700Y-94785598D01*
X148450071Y-94631511D01*
X147609947Y-94631511D01*
X147028524Y-95006065D01*
X146447101Y-95380620D01*
X146424997Y-95557534D01*
X146402893Y-95734449D01*
X146150854Y-95734449D01*
X146150854Y-94599072D01*
X146399868Y-94599072D01*
X146429448Y-94777158D01*
X146459028Y-94955243D01*
X146799641Y-94742026D01*
X146936546Y-94656242D01*
X147061527Y-94577773D01*
X147159034Y-94516390D01*
X147215299Y-94480746D01*
X147227007Y-94473069D01*
X147248730Y-94453472D01*
X147249444Y-94431245D01*
X147222394Y-94399960D01*
X147160827Y-94353191D01*
X147057989Y-94284511D01*
X146907126Y-94187494D01*
X146862208Y-94158819D01*
X146725088Y-94072121D01*
X146609309Y-94000139D01*
X146525927Y-93949697D01*
X146485998Y-93927618D01*
X146471628Y-93929926D01*
X146446034Y-93981673D01*
X146425492Y-94093805D01*
X146402893Y-94274678D01*
X146150854Y-94274678D01*
X146150854Y-92912226D01*
X146402893Y-92912226D01*
X146424933Y-93088626D01*
G37*
G36*
X141317393Y-65305733D02*
G01*
X141317403Y-65316931D01*
X141315271Y-65379278D01*
X141300184Y-65418690D01*
X141259399Y-65443672D01*
X141180175Y-65462730D01*
X141049768Y-65484369D01*
X140928121Y-65503927D01*
X140928121Y-66247092D01*
X142239728Y-66247092D01*
X142324541Y-66247121D01*
X142638862Y-66247591D01*
X142895669Y-66247805D01*
X143100891Y-66246672D01*
X143260456Y-66243100D01*
X143380294Y-66235997D01*
X143466334Y-66224271D01*
X143524505Y-66206830D01*
X143560736Y-66182583D01*
X143580957Y-66150437D01*
X143591097Y-66109300D01*
X143597084Y-66058081D01*
X143604848Y-65995687D01*
X143613333Y-65944581D01*
X143633109Y-65884441D01*
X143673305Y-65861490D01*
X143753194Y-65857820D01*
X143880100Y-65857820D01*
X143880100Y-67252712D01*
X143753194Y-67252712D01*
X143706061Y-67252128D01*
X143648941Y-67240805D01*
X143621627Y-67201014D01*
X143604848Y-67114844D01*
X143602501Y-67098764D01*
X143595706Y-67039157D01*
X143589262Y-66990461D01*
X143577240Y-66951586D01*
X143553711Y-66921439D01*
X143512746Y-66898928D01*
X143448415Y-66882961D01*
X143354790Y-66872446D01*
X143225942Y-66866292D01*
X143055940Y-66863406D01*
X142838857Y-66862697D01*
X142568763Y-66863072D01*
X142239728Y-66863440D01*
X140928121Y-66863440D01*
X140928121Y-67235874D01*
X140927789Y-67326918D01*
X140928174Y-67459341D01*
X140936228Y-67545024D01*
X140959482Y-67595841D01*
X141005467Y-67623662D01*
X141081711Y-67640359D01*
X141195745Y-67657804D01*
X141224393Y-67662613D01*
X141288038Y-67681864D01*
X141313049Y-67722264D01*
X141317393Y-67805650D01*
X141317393Y-67933938D01*
X140571288Y-67933938D01*
X140571288Y-65176594D01*
X141317393Y-65176594D01*
X141317393Y-65305733D01*
G37*
G36*
X146429448Y-77751350D02*
G01*
X146459028Y-77934279D01*
X147545745Y-78344695D01*
X147776969Y-78432033D01*
X148014217Y-78521673D01*
X148227177Y-78602166D01*
X148408567Y-78670757D01*
X148551106Y-78724692D01*
X148647512Y-78761219D01*
X148690503Y-78777583D01*
X148703169Y-78783510D01*
X148726296Y-78808176D01*
X148738586Y-78857473D01*
X148742166Y-78944765D01*
X148739162Y-79083418D01*
X148729781Y-79366781D01*
X147594404Y-79792361D01*
X146459028Y-80217940D01*
X146429448Y-80401609D01*
X146399868Y-80585279D01*
X146149322Y-80585279D01*
X146158198Y-80025700D01*
X146167074Y-79466122D01*
X146280224Y-79466122D01*
X146343837Y-79469503D01*
X146380715Y-79489983D01*
X146403655Y-79543136D01*
X146425455Y-79644538D01*
X146443074Y-79719090D01*
X146469162Y-79791500D01*
X146492079Y-79817212D01*
X146503450Y-79814246D01*
X146569284Y-79792604D01*
X146680692Y-79753534D01*
X146827986Y-79700630D01*
X147001477Y-79637485D01*
X147191476Y-79567693D01*
X147388297Y-79494847D01*
X147582250Y-79422541D01*
X147763646Y-79354368D01*
X147922798Y-79293922D01*
X148050016Y-79244797D01*
X148135613Y-79210586D01*
X148169901Y-79194882D01*
X148153277Y-79183667D01*
X148085053Y-79152593D01*
X147972909Y-79105626D01*
X147826081Y-79046311D01*
X147653805Y-78978191D01*
X147465316Y-78904811D01*
X147269849Y-78829715D01*
X147076640Y-78756448D01*
X146894923Y-78688555D01*
X146733935Y-78629579D01*
X146602910Y-78583065D01*
X146511084Y-78552557D01*
X146467693Y-78541601D01*
X146457320Y-78557680D01*
X146440681Y-78622484D01*
X146425185Y-78720017D01*
X146402893Y-78898433D01*
X146150854Y-78898433D01*
X146150854Y-77568420D01*
X146399868Y-77568420D01*
X146429448Y-77751350D01*
G37*
G36*
X141406601Y-68134725D02*
G01*
X141421086Y-68135938D01*
X141483625Y-68145216D01*
X141518782Y-68170076D01*
X141538884Y-68226713D01*
X141556260Y-68331320D01*
X141584272Y-68517846D01*
X143584925Y-68517846D01*
X143606945Y-68323210D01*
X143628966Y-68128574D01*
X143880100Y-68128574D01*
X143880100Y-69494942D01*
X143758453Y-69484874D01*
X143743968Y-69483661D01*
X143681429Y-69474383D01*
X143646272Y-69449523D01*
X143626170Y-69392887D01*
X143608794Y-69288280D01*
X143580782Y-69101754D01*
X142679845Y-69101754D01*
X142679845Y-70107373D01*
X143115862Y-70107373D01*
X143139743Y-70107331D01*
X143305726Y-70104492D01*
X143440478Y-70097756D01*
X143532789Y-70087901D01*
X143571449Y-70075707D01*
X143579256Y-70055194D01*
X143595501Y-69981353D01*
X143610321Y-69881071D01*
X143629623Y-69718101D01*
X143880100Y-69718101D01*
X143880100Y-71084470D01*
X143758453Y-71074402D01*
X143743968Y-71073189D01*
X143681429Y-71063911D01*
X143646272Y-71039051D01*
X143626170Y-70982414D01*
X143608794Y-70877807D01*
X143580782Y-70691281D01*
X141584272Y-70691281D01*
X141556260Y-70877807D01*
X141552916Y-70900016D01*
X141535950Y-70995176D01*
X141514127Y-71045165D01*
X141475120Y-71066175D01*
X141406601Y-71074402D01*
X141284954Y-71084470D01*
X141284954Y-69714185D01*
X141406601Y-69724253D01*
X141421086Y-69725465D01*
X141483625Y-69734743D01*
X141518782Y-69759604D01*
X141538884Y-69816240D01*
X141556260Y-69920847D01*
X141584272Y-70107373D01*
X142355452Y-70107373D01*
X142355452Y-69101754D01*
X141584272Y-69101754D01*
X141556260Y-69288280D01*
X141552916Y-69310488D01*
X141535950Y-69405649D01*
X141514127Y-69455637D01*
X141475120Y-69476648D01*
X141406601Y-69484874D01*
X141284954Y-69494942D01*
X141284954Y-68124657D01*
X141406601Y-68134725D01*
G37*
G36*
X141406601Y-78450434D02*
G01*
X141421086Y-78451647D01*
X141483625Y-78460925D01*
X141518782Y-78485785D01*
X141538884Y-78542422D01*
X141556260Y-78647028D01*
X141584272Y-78833555D01*
X143584925Y-78833555D01*
X143606945Y-78638919D01*
X143628966Y-78444283D01*
X143880100Y-78444283D01*
X143880100Y-79810651D01*
X143758453Y-79800583D01*
X143743968Y-79799370D01*
X143681429Y-79790092D01*
X143646272Y-79765232D01*
X143626170Y-79708596D01*
X143608794Y-79603989D01*
X143580782Y-79417463D01*
X142679845Y-79417463D01*
X142679845Y-80423082D01*
X143115862Y-80423082D01*
X143139743Y-80423040D01*
X143305726Y-80420201D01*
X143440478Y-80413465D01*
X143532789Y-80403610D01*
X143571449Y-80391415D01*
X143579256Y-80370903D01*
X143595501Y-80297061D01*
X143610321Y-80196779D01*
X143629623Y-80033810D01*
X143880100Y-80033810D01*
X143880100Y-81400178D01*
X143758453Y-81390110D01*
X143743968Y-81388898D01*
X143681429Y-81379620D01*
X143646272Y-81354760D01*
X143626170Y-81298123D01*
X143608794Y-81193516D01*
X143580782Y-81006990D01*
X141584272Y-81006990D01*
X141556260Y-81193516D01*
X141552916Y-81215725D01*
X141535950Y-81310885D01*
X141514127Y-81360874D01*
X141475120Y-81381884D01*
X141406601Y-81390110D01*
X141284954Y-81400178D01*
X141284954Y-80029894D01*
X141405034Y-80039962D01*
X141406529Y-80040087D01*
X141474818Y-80049118D01*
X141514021Y-80072521D01*
X141537626Y-80126797D01*
X141559121Y-80228446D01*
X141593127Y-80406862D01*
X141974289Y-80416002D01*
X142355452Y-80425141D01*
X142355452Y-79417463D01*
X141584272Y-79417463D01*
X141556260Y-79603989D01*
X141552916Y-79626197D01*
X141535950Y-79721358D01*
X141514127Y-79771346D01*
X141475120Y-79792357D01*
X141406601Y-79800583D01*
X141284954Y-79810651D01*
X141284954Y-78440366D01*
X141406601Y-78450434D01*
G37*
G36*
X143880100Y-93240536D02*
G01*
X143758586Y-93230468D01*
X143691525Y-93222373D01*
X143650460Y-93200707D01*
X143628009Y-93148966D01*
X143610135Y-93050093D01*
X143598518Y-92990409D01*
X143571642Y-92909812D01*
X143542524Y-92879787D01*
X143501387Y-92888822D01*
X143416180Y-92917096D01*
X143309813Y-92957916D01*
X143117776Y-93036045D01*
X143117776Y-94022486D01*
X143344851Y-94112912D01*
X143571927Y-94203338D01*
X143605128Y-94020043D01*
X143607497Y-94006984D01*
X143627722Y-93909161D01*
X143651107Y-93857349D01*
X143690617Y-93835277D01*
X143759214Y-93826679D01*
X143880100Y-93816611D01*
X143880100Y-95186896D01*
X143758453Y-95176828D01*
X143748954Y-95176037D01*
X143683751Y-95166988D01*
X143647247Y-95143007D01*
X143626719Y-95087678D01*
X143609440Y-94984584D01*
X143582074Y-94802407D01*
X142928214Y-94549917D01*
X142711724Y-94466238D01*
X142458376Y-94368155D01*
X142204898Y-94269882D01*
X141971512Y-94179259D01*
X141778442Y-94104128D01*
X141282530Y-93910828D01*
X141291852Y-93630744D01*
X141295252Y-93528574D01*
X141836422Y-93528574D01*
X141840416Y-93532396D01*
X141888123Y-93555708D01*
X141979711Y-93594105D01*
X142102518Y-93642827D01*
X142243878Y-93697113D01*
X142391127Y-93752205D01*
X142531602Y-93803340D01*
X142652637Y-93845759D01*
X142741569Y-93874701D01*
X142785732Y-93885406D01*
X142794016Y-93863121D01*
X142802091Y-93787842D01*
X142807579Y-93671962D01*
X142809602Y-93528574D01*
X142808112Y-93404747D01*
X142803076Y-93284027D01*
X142795324Y-93201995D01*
X142785732Y-93171741D01*
X142775563Y-93173242D01*
X142713546Y-93191174D01*
X142611395Y-93225601D01*
X142481776Y-93271763D01*
X142337353Y-93324898D01*
X142190789Y-93380247D01*
X142054750Y-93433050D01*
X141941900Y-93478545D01*
X141864902Y-93511973D01*
X141836422Y-93528574D01*
X141295252Y-93528574D01*
X141301173Y-93350660D01*
X142436550Y-92911486D01*
X142785732Y-92776420D01*
X143571927Y-92472313D01*
X143631087Y-92101243D01*
X143880100Y-92101243D01*
X143880100Y-93240536D01*
G37*
G36*
X142403937Y-75256535D02*
G01*
X142766669Y-75295225D01*
X143079470Y-75375046D01*
X143342733Y-75496268D01*
X143556853Y-75659164D01*
X143722223Y-75864004D01*
X143839237Y-76111061D01*
X143908290Y-76400604D01*
X143920511Y-76525992D01*
X143926174Y-76695899D01*
X143921724Y-76854755D01*
X143899109Y-77051204D01*
X143825794Y-77339476D01*
X143706738Y-77583641D01*
X143540870Y-77784619D01*
X143327121Y-77943332D01*
X143064421Y-78060700D01*
X142751701Y-78137644D01*
X142387891Y-78175084D01*
X142058870Y-78175618D01*
X141713640Y-78139235D01*
X141408384Y-78064542D01*
X141147093Y-77952901D01*
X140933758Y-77805672D01*
X140772371Y-77624217D01*
X140676521Y-77455443D01*
X140582516Y-77197079D01*
X140531561Y-76919108D01*
X140523238Y-76644563D01*
X140890341Y-76644563D01*
X140891990Y-76825517D01*
X140924774Y-76990591D01*
X140982562Y-77097947D01*
X141085043Y-77215889D01*
X141212131Y-77321586D01*
X141345305Y-77397134D01*
X141457395Y-77436410D01*
X141681994Y-77486910D01*
X141940882Y-77518682D01*
X142216407Y-77530559D01*
X142490916Y-77521371D01*
X142746757Y-77489950D01*
X142982359Y-77432946D01*
X143205554Y-77337396D01*
X143374101Y-77209826D01*
X143489424Y-77049391D01*
X143506964Y-77011691D01*
X143559951Y-76820275D01*
X143564223Y-76621136D01*
X143521129Y-76432532D01*
X143432019Y-76272723D01*
X143398340Y-76233435D01*
X143250531Y-76108081D01*
X143062750Y-76013502D01*
X142829988Y-75948167D01*
X142547233Y-75910545D01*
X142209475Y-75899105D01*
X141906876Y-75909929D01*
X141622408Y-75946225D01*
X141389500Y-76009780D01*
X141203534Y-76102367D01*
X141059892Y-76225764D01*
X140953953Y-76381745D01*
X140918491Y-76475574D01*
X140890341Y-76644563D01*
X140523238Y-76644563D01*
X140522903Y-76633497D01*
X140555790Y-76352211D01*
X140629470Y-76087219D01*
X140743191Y-75850487D01*
X140896200Y-75653981D01*
X141054147Y-75523238D01*
X141280276Y-75401974D01*
X141551171Y-75317159D01*
X141870495Y-75267699D01*
X142209475Y-75253829D01*
X142241914Y-75252502D01*
X142403937Y-75256535D01*
G37*
G36*
X148746001Y-84773869D02*
G01*
X148624353Y-84763801D01*
X148609868Y-84762589D01*
X148547329Y-84753311D01*
X148512172Y-84728450D01*
X148492070Y-84671814D01*
X148474694Y-84567207D01*
X148446682Y-84380681D01*
X147569747Y-84380681D01*
X147586656Y-84530698D01*
X147590780Y-84560981D01*
X147617965Y-84659187D01*
X147670162Y-84745441D01*
X147754819Y-84825789D01*
X147879383Y-84906276D01*
X148051304Y-84992948D01*
X148278028Y-85091849D01*
X148729781Y-85280274D01*
X148738833Y-85706340D01*
X148747884Y-86132405D01*
X148632387Y-86132405D01*
X148596761Y-86131896D01*
X148542348Y-86122403D01*
X148509747Y-86090050D01*
X148489289Y-86020962D01*
X148471307Y-85901268D01*
X148451286Y-85751229D01*
X148162417Y-85631495D01*
X148116553Y-85611975D01*
X147957447Y-85538134D01*
X147803455Y-85458847D01*
X147682397Y-85388213D01*
X147491246Y-85264666D01*
X147429287Y-85379932D01*
X147405378Y-85416994D01*
X147323110Y-85507929D01*
X147225249Y-85585370D01*
X147129781Y-85637648D01*
X146933723Y-85696553D01*
X146739973Y-85693437D01*
X146556152Y-85629041D01*
X146389881Y-85504106D01*
X146331753Y-85442547D01*
X146281892Y-85377210D01*
X146243332Y-85304374D01*
X146214624Y-85215843D01*
X146194317Y-85103423D01*
X146180960Y-84958916D01*
X146173103Y-84774127D01*
X146170845Y-84635821D01*
X146475247Y-84635821D01*
X146476683Y-84737095D01*
X146485733Y-84844294D01*
X146506259Y-84917687D01*
X146541866Y-84975653D01*
X146639841Y-85059689D01*
X146775764Y-85108231D01*
X146924508Y-85111001D01*
X147068641Y-85067912D01*
X147190727Y-84978877D01*
X147230224Y-84928815D01*
X147256905Y-84865827D01*
X147272334Y-84774958D01*
X147281428Y-84637718D01*
X147293100Y-84380681D01*
X146475247Y-84380681D01*
X146475247Y-84635821D01*
X146170845Y-84635821D01*
X146169295Y-84540862D01*
X146168086Y-84250924D01*
X146167074Y-83423721D01*
X146280611Y-83423721D01*
X146293858Y-83423735D01*
X146352389Y-83427888D01*
X146385510Y-83450114D01*
X146404880Y-83505778D01*
X146422161Y-83610247D01*
X146450173Y-83796773D01*
X147293100Y-83796773D01*
X148450071Y-83796773D01*
X148470700Y-83642686D01*
X148480362Y-83573103D01*
X148498359Y-83480026D01*
X148523272Y-83430567D01*
X148564502Y-83410976D01*
X148631445Y-83407501D01*
X148746001Y-83407501D01*
X148746001Y-84773869D01*
G37*
G36*
X142700872Y-83295807D02*
G01*
X142863403Y-83299066D01*
X142984486Y-83306618D01*
X143078969Y-83320181D01*
X143161702Y-83341475D01*
X143247533Y-83372221D01*
X143400472Y-83448010D01*
X143592263Y-83597185D01*
X143743938Y-83784173D01*
X143843807Y-83996732D01*
X143850414Y-84018314D01*
X143895113Y-84237149D01*
X143910718Y-84498911D01*
X143903301Y-84700081D01*
X143854886Y-84984536D01*
X143760878Y-85223415D01*
X143620579Y-85417381D01*
X143433291Y-85567093D01*
X143198318Y-85673212D01*
X142914963Y-85736399D01*
X142582527Y-85757314D01*
X142344735Y-85749217D01*
X142105948Y-85715963D01*
X141906327Y-85653312D01*
X141733985Y-85557323D01*
X141577034Y-85424056D01*
X141491192Y-85332568D01*
X141398574Y-85208257D01*
X141334725Y-85076407D01*
X141294959Y-84922877D01*
X141274592Y-84733527D01*
X141269835Y-84532176D01*
X141582305Y-84532176D01*
X141624010Y-84721732D01*
X141666161Y-84811155D01*
X141765821Y-84935960D01*
X141905366Y-85028796D01*
X142089961Y-85091831D01*
X142324772Y-85127230D01*
X142614966Y-85137157D01*
X142757088Y-85133588D01*
X143002361Y-85109356D01*
X143196302Y-85059872D01*
X143345692Y-84982146D01*
X143457311Y-84873187D01*
X143537939Y-84730003D01*
X143542875Y-84717666D01*
X143574774Y-84606440D01*
X143587434Y-84503370D01*
X143580182Y-84431397D01*
X143535836Y-84289397D01*
X143462407Y-84159016D01*
X143372961Y-84066852D01*
X143284810Y-84010903D01*
X143193029Y-83967570D01*
X143090390Y-83938515D01*
X142963414Y-83921066D01*
X142798619Y-83912554D01*
X142582527Y-83910311D01*
X142559038Y-83910316D01*
X142378103Y-83911250D01*
X142246292Y-83915102D01*
X142149414Y-83923754D01*
X142073280Y-83939088D01*
X142003699Y-83962988D01*
X141926482Y-83997334D01*
X141812222Y-84064186D01*
X141679784Y-84195324D01*
X141602021Y-84354014D01*
X141582305Y-84532176D01*
X141269835Y-84532176D01*
X141268938Y-84494219D01*
X141269126Y-84418466D01*
X141271742Y-84269383D01*
X141279633Y-84160665D01*
X141295558Y-84074871D01*
X141322274Y-83994557D01*
X141362540Y-83902283D01*
X141369919Y-83886576D01*
X141508495Y-83668024D01*
X141692263Y-83495973D01*
X141920154Y-83371438D01*
X141980619Y-83348284D01*
X142059352Y-83324283D01*
X142144231Y-83308664D01*
X142249935Y-83299738D01*
X142391141Y-83295816D01*
X142582527Y-83295207D01*
X142700872Y-83295807D01*
G37*
G36*
X143810214Y-87665164D02*
G01*
X143845096Y-87797523D01*
X143883062Y-87972208D01*
X143909142Y-88127424D01*
X143918359Y-88213525D01*
X143924763Y-88501076D01*
X143898253Y-88788988D01*
X143840998Y-89047957D01*
X143799799Y-89156883D01*
X143679944Y-89348379D01*
X143517412Y-89498744D01*
X143319787Y-89604510D01*
X143094652Y-89662204D01*
X142849590Y-89668357D01*
X142592185Y-89619497D01*
X142479577Y-89576778D01*
X142342607Y-89490042D01*
X142223209Y-89365192D01*
X142116533Y-89195544D01*
X142017735Y-88974412D01*
X141921967Y-88695113D01*
X141875125Y-88552820D01*
X141791393Y-88348901D01*
X141702077Y-88200574D01*
X141602097Y-88101934D01*
X141486375Y-88047079D01*
X141349832Y-88030106D01*
X141188101Y-88055320D01*
X141055571Y-88134754D01*
X140947192Y-88272573D01*
X140936643Y-88293090D01*
X140902490Y-88415397D01*
X140886404Y-88584533D01*
X140889008Y-88787779D01*
X140910926Y-89012414D01*
X140917601Y-89062204D01*
X140929864Y-89124186D01*
X140954129Y-89163071D01*
X141003321Y-89187710D01*
X141090364Y-89206951D01*
X141228185Y-89229645D01*
X141277638Y-89238525D01*
X141327738Y-89259246D01*
X141346807Y-89304329D01*
X141349832Y-89394028D01*
X141349832Y-89538535D01*
X140706077Y-89538535D01*
X140672947Y-89433108D01*
X140592806Y-89135070D01*
X140537657Y-88802952D01*
X140524106Y-88495979D01*
X140551218Y-88218957D01*
X140618059Y-87976692D01*
X140723694Y-87773990D01*
X140867188Y-87615658D01*
X141047607Y-87506501D01*
X141214067Y-87456189D01*
X141437215Y-87436726D01*
X141659744Y-87463864D01*
X141864647Y-87535162D01*
X142034919Y-87648182D01*
X142065742Y-87677329D01*
X142145943Y-87769271D01*
X142219768Y-87883095D01*
X142292575Y-88029107D01*
X142369726Y-88217612D01*
X142456581Y-88458917D01*
X142507869Y-88602494D01*
X142560877Y-88740866D01*
X142606021Y-88848687D01*
X142637087Y-88910422D01*
X142706418Y-88987246D01*
X142841637Y-89059300D01*
X143011243Y-89084385D01*
X143016573Y-89084361D01*
X143194617Y-89053042D01*
X143343603Y-88964463D01*
X143458389Y-88821644D01*
X143472815Y-88795686D01*
X143503052Y-88731743D01*
X143522419Y-88664573D01*
X143533235Y-88578768D01*
X143537819Y-88458920D01*
X143538493Y-88289621D01*
X143537617Y-88161280D01*
X143531762Y-88001563D01*
X143515871Y-87890647D01*
X143484735Y-87818631D01*
X143433149Y-87775615D01*
X143355902Y-87751699D01*
X143247789Y-87736982D01*
X143036678Y-87714374D01*
X143036678Y-87429979D01*
X143740892Y-87429979D01*
X143810214Y-87665164D01*
G37*
G36*
X145595718Y-69264143D02*
G01*
X145664212Y-69272694D01*
X145696134Y-69307190D01*
X145713322Y-69385598D01*
X145714995Y-69395937D01*
X145732483Y-69498297D01*
X145747849Y-69580234D01*
X145762818Y-69653222D01*
X146838680Y-69653222D01*
X146897499Y-69653235D01*
X147190955Y-69653830D01*
X147428575Y-69655560D01*
X147618030Y-69658759D01*
X147766990Y-69663759D01*
X147883126Y-69670893D01*
X147974106Y-69680494D01*
X148047603Y-69692894D01*
X148111285Y-69708426D01*
X148264250Y-69768586D01*
X148445239Y-69898627D01*
X148591786Y-70082333D01*
X148702866Y-70318321D01*
X148777451Y-70605210D01*
X148790929Y-70719313D01*
X148795600Y-70915204D01*
X148784995Y-71129829D01*
X148760616Y-71337706D01*
X148723963Y-71513351D01*
X148698644Y-71591153D01*
X148626744Y-71732574D01*
X148513759Y-71874794D01*
X148504087Y-71885378D01*
X148438887Y-71955415D01*
X148379063Y-72012743D01*
X148317592Y-72058696D01*
X148247447Y-72094611D01*
X148161604Y-72121822D01*
X148053037Y-72141665D01*
X147914720Y-72155475D01*
X147739629Y-72164589D01*
X147520738Y-72170340D01*
X147251023Y-72174066D01*
X146923457Y-72177101D01*
X145765919Y-72187213D01*
X145748640Y-72274560D01*
X145747308Y-72281339D01*
X145729244Y-72377671D01*
X145710099Y-72485278D01*
X145705292Y-72512304D01*
X145685953Y-72577704D01*
X145648297Y-72600768D01*
X145571122Y-72598816D01*
X145453408Y-72588982D01*
X145444567Y-71996965D01*
X145435725Y-71404947D01*
X145564744Y-71404947D01*
X145596358Y-71405156D01*
X145664476Y-71413806D01*
X145696212Y-71448348D01*
X145713322Y-71526594D01*
X145714931Y-71536533D01*
X145732601Y-71639706D01*
X145748334Y-71723162D01*
X145763788Y-71798083D01*
X147983676Y-71777999D01*
X148134648Y-71689249D01*
X148263473Y-71590355D01*
X148360138Y-71452555D01*
X148415732Y-71275168D01*
X148433979Y-71050245D01*
X148433985Y-71047618D01*
X148428650Y-70908429D01*
X148414284Y-70778382D01*
X148393942Y-70685311D01*
X148343853Y-70588302D01*
X148240142Y-70467209D01*
X148111094Y-70366102D01*
X147977863Y-70304349D01*
X147914140Y-70294976D01*
X147788807Y-70286395D01*
X147609796Y-70279411D01*
X147382875Y-70274195D01*
X147113810Y-70270918D01*
X146808369Y-70269751D01*
X145762818Y-70269570D01*
X145747849Y-70342558D01*
X145746541Y-70349029D01*
X145730577Y-70435237D01*
X145713322Y-70537194D01*
X145708513Y-70565842D01*
X145689262Y-70629487D01*
X145648862Y-70654498D01*
X145565476Y-70658842D01*
X145437189Y-70658842D01*
X145437189Y-69263950D01*
X145565476Y-69263950D01*
X145595718Y-69264143D01*
G37*
G36*
X148380438Y-86393194D02*
G01*
X148504323Y-86399520D01*
X148593024Y-86409946D01*
X148631700Y-86423125D01*
X148633248Y-86425981D01*
X148652121Y-86478075D01*
X148680521Y-86572394D01*
X148712927Y-86690750D01*
X148746097Y-86853163D01*
X148771359Y-87091478D01*
X148776205Y-87338821D01*
X148760400Y-87571735D01*
X148723708Y-87766761D01*
X148657538Y-87934322D01*
X148535376Y-88106894D01*
X148375794Y-88233848D01*
X148186422Y-88307504D01*
X148034111Y-88327862D01*
X147821464Y-88310044D01*
X147630873Y-88238841D01*
X147471598Y-88118203D01*
X147352900Y-87952079D01*
X147331034Y-87903227D01*
X147288133Y-87791627D01*
X147238652Y-87649939D01*
X147189486Y-87497343D01*
X147188256Y-87493356D01*
X147117486Y-87288587D01*
X147047380Y-87141372D01*
X146972607Y-87044788D01*
X146887833Y-86991914D01*
X146787725Y-86975828D01*
X146676955Y-86995120D01*
X146570086Y-87067748D01*
X146496522Y-87189493D01*
X146459146Y-87355206D01*
X146460842Y-87559736D01*
X146467050Y-87621225D01*
X146482062Y-87745176D01*
X146500450Y-87822195D01*
X146529172Y-87865100D01*
X146575187Y-87886712D01*
X146645452Y-87899850D01*
X146742706Y-87915701D01*
X146830055Y-87936366D01*
X146876052Y-87964440D01*
X146893939Y-88009456D01*
X146896959Y-88080951D01*
X146896959Y-88208523D01*
X146587982Y-88208523D01*
X146483558Y-88208595D01*
X146377515Y-88204030D01*
X146305102Y-88185157D01*
X146256753Y-88142175D01*
X146222900Y-88065287D01*
X146193975Y-87944692D01*
X146160413Y-87770592D01*
X146147976Y-87698565D01*
X146124363Y-87435825D01*
X146133535Y-87182981D01*
X146173578Y-86952512D01*
X146242577Y-86756898D01*
X146338619Y-86608619D01*
X146358106Y-86588388D01*
X146502201Y-86488219D01*
X146680487Y-86426655D01*
X146874691Y-86408015D01*
X147066542Y-86436615D01*
X147077739Y-86439943D01*
X147208654Y-86493151D01*
X147319304Y-86571190D01*
X147415300Y-86681977D01*
X147502252Y-86833427D01*
X147585773Y-87033456D01*
X147671472Y-87289978D01*
X147680536Y-87319025D01*
X147743966Y-87498386D01*
X147806684Y-87623113D01*
X147875826Y-87701694D01*
X147958529Y-87742617D01*
X148061932Y-87754372D01*
X148072484Y-87754272D01*
X148204358Y-87730242D01*
X148302902Y-87661340D01*
X148370376Y-87543743D01*
X148409043Y-87373630D01*
X148421165Y-87147176D01*
X148421096Y-87108796D01*
X148419100Y-86949233D01*
X148410003Y-86841039D01*
X148387860Y-86772923D01*
X148346729Y-86733595D01*
X148280665Y-86711764D01*
X148183726Y-86696140D01*
X147983676Y-86667654D01*
X147963726Y-86391920D01*
X148288070Y-86391920D01*
X148380438Y-86393194D01*
G37*
%TD*%
D13*
X101600000Y-50800000D02*
X154940000Y-50800000D01*
X154940000Y-114300000D01*
X101600000Y-114300000D01*
X101600000Y-50800000D01*
M02*
