%TF.GenerationSoftware,KiCad,Pcbnew,7.0.7*%
%TF.CreationDate,2023-09-14T15:50:44-04:00*%
%TF.ProjectId,Temps_North_DCT_HSK,54656d70-735f-44e6-9f72-74685f444354,B*%
%TF.SameCoordinates,Original*%
%TF.FileFunction,Drillmap*%
%TF.FilePolarity,Positive*%
%FSLAX45Y45*%
G04 Gerber Fmt 4.5, Leading zero omitted, Abs format (unit mm)*
G04 Created by KiCad (PCBNEW 7.0.7) date 2023-09-14 15:50:44*
%MOMM*%
%LPD*%
G01*
G04 APERTURE LIST*
%ADD10C,0.100000*%
%ADD11C,0.200000*%
%ADD12C,0.320000*%
G04 APERTURE END LIST*
D10*
X10160000Y-5080000D02*
X15494000Y-5080000D01*
X15494000Y-11430000D01*
X10160000Y-11430000D01*
X10160000Y-5080000D01*
D11*
D12*
X12667000Y-6190000D02*
X12987000Y-6510000D01*
X12987000Y-6190000D02*
X12667000Y-6510000D01*
X12667000Y-10000000D02*
X12987000Y-10320000D01*
X12987000Y-10000000D02*
X12667000Y-10320000D01*
D11*
X10415777Y-11746484D02*
X10415777Y-11546484D01*
X10415777Y-11546484D02*
X10463396Y-11546484D01*
X10463396Y-11546484D02*
X10491967Y-11556008D01*
X10491967Y-11556008D02*
X10511015Y-11575055D01*
X10511015Y-11575055D02*
X10520539Y-11594103D01*
X10520539Y-11594103D02*
X10530063Y-11632198D01*
X10530063Y-11632198D02*
X10530063Y-11660769D01*
X10530063Y-11660769D02*
X10520539Y-11698865D01*
X10520539Y-11698865D02*
X10511015Y-11717912D01*
X10511015Y-11717912D02*
X10491967Y-11736960D01*
X10491967Y-11736960D02*
X10463396Y-11746484D01*
X10463396Y-11746484D02*
X10415777Y-11746484D01*
X10615777Y-11746484D02*
X10615777Y-11613150D01*
X10615777Y-11651246D02*
X10625301Y-11632198D01*
X10625301Y-11632198D02*
X10634824Y-11622674D01*
X10634824Y-11622674D02*
X10653872Y-11613150D01*
X10653872Y-11613150D02*
X10672920Y-11613150D01*
X10739586Y-11746484D02*
X10739586Y-11613150D01*
X10739586Y-11546484D02*
X10730063Y-11556008D01*
X10730063Y-11556008D02*
X10739586Y-11565531D01*
X10739586Y-11565531D02*
X10749110Y-11556008D01*
X10749110Y-11556008D02*
X10739586Y-11546484D01*
X10739586Y-11546484D02*
X10739586Y-11565531D01*
X10863396Y-11746484D02*
X10844348Y-11736960D01*
X10844348Y-11736960D02*
X10834824Y-11717912D01*
X10834824Y-11717912D02*
X10834824Y-11546484D01*
X10968158Y-11746484D02*
X10949110Y-11736960D01*
X10949110Y-11736960D02*
X10939586Y-11717912D01*
X10939586Y-11717912D02*
X10939586Y-11546484D01*
X11196729Y-11746484D02*
X11196729Y-11546484D01*
X11196729Y-11546484D02*
X11263396Y-11689341D01*
X11263396Y-11689341D02*
X11330062Y-11546484D01*
X11330062Y-11546484D02*
X11330062Y-11746484D01*
X11511015Y-11746484D02*
X11511015Y-11641722D01*
X11511015Y-11641722D02*
X11501491Y-11622674D01*
X11501491Y-11622674D02*
X11482443Y-11613150D01*
X11482443Y-11613150D02*
X11444348Y-11613150D01*
X11444348Y-11613150D02*
X11425301Y-11622674D01*
X11511015Y-11736960D02*
X11491967Y-11746484D01*
X11491967Y-11746484D02*
X11444348Y-11746484D01*
X11444348Y-11746484D02*
X11425301Y-11736960D01*
X11425301Y-11736960D02*
X11415777Y-11717912D01*
X11415777Y-11717912D02*
X11415777Y-11698865D01*
X11415777Y-11698865D02*
X11425301Y-11679817D01*
X11425301Y-11679817D02*
X11444348Y-11670293D01*
X11444348Y-11670293D02*
X11491967Y-11670293D01*
X11491967Y-11670293D02*
X11511015Y-11660769D01*
X11606253Y-11613150D02*
X11606253Y-11813150D01*
X11606253Y-11622674D02*
X11625301Y-11613150D01*
X11625301Y-11613150D02*
X11663396Y-11613150D01*
X11663396Y-11613150D02*
X11682443Y-11622674D01*
X11682443Y-11622674D02*
X11691967Y-11632198D01*
X11691967Y-11632198D02*
X11701491Y-11651246D01*
X11701491Y-11651246D02*
X11701491Y-11708388D01*
X11701491Y-11708388D02*
X11691967Y-11727436D01*
X11691967Y-11727436D02*
X11682443Y-11736960D01*
X11682443Y-11736960D02*
X11663396Y-11746484D01*
X11663396Y-11746484D02*
X11625301Y-11746484D01*
X11625301Y-11746484D02*
X11606253Y-11736960D01*
X11787205Y-11727436D02*
X11796729Y-11736960D01*
X11796729Y-11736960D02*
X11787205Y-11746484D01*
X11787205Y-11746484D02*
X11777682Y-11736960D01*
X11777682Y-11736960D02*
X11787205Y-11727436D01*
X11787205Y-11727436D02*
X11787205Y-11746484D01*
X11787205Y-11622674D02*
X11796729Y-11632198D01*
X11796729Y-11632198D02*
X11787205Y-11641722D01*
X11787205Y-11641722D02*
X11777682Y-11632198D01*
X11777682Y-11632198D02*
X11787205Y-11622674D01*
X11787205Y-11622674D02*
X11787205Y-11641722D01*
X9955000Y-11975000D02*
X10155000Y-12175000D01*
X10155000Y-11975000D02*
X9955000Y-12175000D01*
X10396729Y-11966484D02*
X10520539Y-11966484D01*
X10520539Y-11966484D02*
X10453872Y-12042674D01*
X10453872Y-12042674D02*
X10482444Y-12042674D01*
X10482444Y-12042674D02*
X10501491Y-12052198D01*
X10501491Y-12052198D02*
X10511015Y-12061722D01*
X10511015Y-12061722D02*
X10520539Y-12080769D01*
X10520539Y-12080769D02*
X10520539Y-12128388D01*
X10520539Y-12128388D02*
X10511015Y-12147436D01*
X10511015Y-12147436D02*
X10501491Y-12156960D01*
X10501491Y-12156960D02*
X10482444Y-12166484D01*
X10482444Y-12166484D02*
X10425301Y-12166484D01*
X10425301Y-12166484D02*
X10406253Y-12156960D01*
X10406253Y-12156960D02*
X10396729Y-12147436D01*
X10606253Y-12147436D02*
X10615777Y-12156960D01*
X10615777Y-12156960D02*
X10606253Y-12166484D01*
X10606253Y-12166484D02*
X10596729Y-12156960D01*
X10596729Y-12156960D02*
X10606253Y-12147436D01*
X10606253Y-12147436D02*
X10606253Y-12166484D01*
X10691967Y-11985531D02*
X10701491Y-11976008D01*
X10701491Y-11976008D02*
X10720539Y-11966484D01*
X10720539Y-11966484D02*
X10768158Y-11966484D01*
X10768158Y-11966484D02*
X10787205Y-11976008D01*
X10787205Y-11976008D02*
X10796729Y-11985531D01*
X10796729Y-11985531D02*
X10806253Y-12004579D01*
X10806253Y-12004579D02*
X10806253Y-12023627D01*
X10806253Y-12023627D02*
X10796729Y-12052198D01*
X10796729Y-12052198D02*
X10682444Y-12166484D01*
X10682444Y-12166484D02*
X10806253Y-12166484D01*
X10930063Y-11966484D02*
X10949110Y-11966484D01*
X10949110Y-11966484D02*
X10968158Y-11976008D01*
X10968158Y-11976008D02*
X10977682Y-11985531D01*
X10977682Y-11985531D02*
X10987205Y-12004579D01*
X10987205Y-12004579D02*
X10996729Y-12042674D01*
X10996729Y-12042674D02*
X10996729Y-12090293D01*
X10996729Y-12090293D02*
X10987205Y-12128388D01*
X10987205Y-12128388D02*
X10977682Y-12147436D01*
X10977682Y-12147436D02*
X10968158Y-12156960D01*
X10968158Y-12156960D02*
X10949110Y-12166484D01*
X10949110Y-12166484D02*
X10930063Y-12166484D01*
X10930063Y-12166484D02*
X10911015Y-12156960D01*
X10911015Y-12156960D02*
X10901491Y-12147436D01*
X10901491Y-12147436D02*
X10891967Y-12128388D01*
X10891967Y-12128388D02*
X10882444Y-12090293D01*
X10882444Y-12090293D02*
X10882444Y-12042674D01*
X10882444Y-12042674D02*
X10891967Y-12004579D01*
X10891967Y-12004579D02*
X10901491Y-11985531D01*
X10901491Y-11985531D02*
X10911015Y-11976008D01*
X10911015Y-11976008D02*
X10930063Y-11966484D01*
X11120539Y-11966484D02*
X11139586Y-11966484D01*
X11139586Y-11966484D02*
X11158634Y-11976008D01*
X11158634Y-11976008D02*
X11168158Y-11985531D01*
X11168158Y-11985531D02*
X11177682Y-12004579D01*
X11177682Y-12004579D02*
X11187205Y-12042674D01*
X11187205Y-12042674D02*
X11187205Y-12090293D01*
X11187205Y-12090293D02*
X11177682Y-12128388D01*
X11177682Y-12128388D02*
X11168158Y-12147436D01*
X11168158Y-12147436D02*
X11158634Y-12156960D01*
X11158634Y-12156960D02*
X11139586Y-12166484D01*
X11139586Y-12166484D02*
X11120539Y-12166484D01*
X11120539Y-12166484D02*
X11101491Y-12156960D01*
X11101491Y-12156960D02*
X11091967Y-12147436D01*
X11091967Y-12147436D02*
X11082444Y-12128388D01*
X11082444Y-12128388D02*
X11072920Y-12090293D01*
X11072920Y-12090293D02*
X11072920Y-12042674D01*
X11072920Y-12042674D02*
X11082444Y-12004579D01*
X11082444Y-12004579D02*
X11091967Y-11985531D01*
X11091967Y-11985531D02*
X11101491Y-11976008D01*
X11101491Y-11976008D02*
X11120539Y-11966484D01*
X11272920Y-12166484D02*
X11272920Y-12033150D01*
X11272920Y-12052198D02*
X11282443Y-12042674D01*
X11282443Y-12042674D02*
X11301491Y-12033150D01*
X11301491Y-12033150D02*
X11330063Y-12033150D01*
X11330063Y-12033150D02*
X11349110Y-12042674D01*
X11349110Y-12042674D02*
X11358634Y-12061722D01*
X11358634Y-12061722D02*
X11358634Y-12166484D01*
X11358634Y-12061722D02*
X11368158Y-12042674D01*
X11368158Y-12042674D02*
X11387205Y-12033150D01*
X11387205Y-12033150D02*
X11415777Y-12033150D01*
X11415777Y-12033150D02*
X11434824Y-12042674D01*
X11434824Y-12042674D02*
X11444348Y-12061722D01*
X11444348Y-12061722D02*
X11444348Y-12166484D01*
X11539586Y-12166484D02*
X11539586Y-12033150D01*
X11539586Y-12052198D02*
X11549110Y-12042674D01*
X11549110Y-12042674D02*
X11568158Y-12033150D01*
X11568158Y-12033150D02*
X11596729Y-12033150D01*
X11596729Y-12033150D02*
X11615777Y-12042674D01*
X11615777Y-12042674D02*
X11625301Y-12061722D01*
X11625301Y-12061722D02*
X11625301Y-12166484D01*
X11625301Y-12061722D02*
X11634824Y-12042674D01*
X11634824Y-12042674D02*
X11653872Y-12033150D01*
X11653872Y-12033150D02*
X11682443Y-12033150D01*
X11682443Y-12033150D02*
X11701491Y-12042674D01*
X11701491Y-12042674D02*
X11711015Y-12061722D01*
X11711015Y-12061722D02*
X11711015Y-12166484D01*
X12101491Y-11956960D02*
X11930063Y-12214103D01*
X12358634Y-11966484D02*
X12377682Y-11966484D01*
X12377682Y-11966484D02*
X12396729Y-11976008D01*
X12396729Y-11976008D02*
X12406253Y-11985531D01*
X12406253Y-11985531D02*
X12415777Y-12004579D01*
X12415777Y-12004579D02*
X12425301Y-12042674D01*
X12425301Y-12042674D02*
X12425301Y-12090293D01*
X12425301Y-12090293D02*
X12415777Y-12128388D01*
X12415777Y-12128388D02*
X12406253Y-12147436D01*
X12406253Y-12147436D02*
X12396729Y-12156960D01*
X12396729Y-12156960D02*
X12377682Y-12166484D01*
X12377682Y-12166484D02*
X12358634Y-12166484D01*
X12358634Y-12166484D02*
X12339586Y-12156960D01*
X12339586Y-12156960D02*
X12330063Y-12147436D01*
X12330063Y-12147436D02*
X12320539Y-12128388D01*
X12320539Y-12128388D02*
X12311015Y-12090293D01*
X12311015Y-12090293D02*
X12311015Y-12042674D01*
X12311015Y-12042674D02*
X12320539Y-12004579D01*
X12320539Y-12004579D02*
X12330063Y-11985531D01*
X12330063Y-11985531D02*
X12339586Y-11976008D01*
X12339586Y-11976008D02*
X12358634Y-11966484D01*
X12511015Y-12147436D02*
X12520539Y-12156960D01*
X12520539Y-12156960D02*
X12511015Y-12166484D01*
X12511015Y-12166484D02*
X12501491Y-12156960D01*
X12501491Y-12156960D02*
X12511015Y-12147436D01*
X12511015Y-12147436D02*
X12511015Y-12166484D01*
X12711015Y-12166484D02*
X12596729Y-12166484D01*
X12653872Y-12166484D02*
X12653872Y-11966484D01*
X12653872Y-11966484D02*
X12634825Y-11995055D01*
X12634825Y-11995055D02*
X12615777Y-12014103D01*
X12615777Y-12014103D02*
X12596729Y-12023627D01*
X12787206Y-11985531D02*
X12796729Y-11976008D01*
X12796729Y-11976008D02*
X12815777Y-11966484D01*
X12815777Y-11966484D02*
X12863396Y-11966484D01*
X12863396Y-11966484D02*
X12882444Y-11976008D01*
X12882444Y-11976008D02*
X12891967Y-11985531D01*
X12891967Y-11985531D02*
X12901491Y-12004579D01*
X12901491Y-12004579D02*
X12901491Y-12023627D01*
X12901491Y-12023627D02*
X12891967Y-12052198D01*
X12891967Y-12052198D02*
X12777682Y-12166484D01*
X12777682Y-12166484D02*
X12901491Y-12166484D01*
X13072920Y-11966484D02*
X13034825Y-11966484D01*
X13034825Y-11966484D02*
X13015777Y-11976008D01*
X13015777Y-11976008D02*
X13006253Y-11985531D01*
X13006253Y-11985531D02*
X12987206Y-12014103D01*
X12987206Y-12014103D02*
X12977682Y-12052198D01*
X12977682Y-12052198D02*
X12977682Y-12128388D01*
X12977682Y-12128388D02*
X12987206Y-12147436D01*
X12987206Y-12147436D02*
X12996729Y-12156960D01*
X12996729Y-12156960D02*
X13015777Y-12166484D01*
X13015777Y-12166484D02*
X13053872Y-12166484D01*
X13053872Y-12166484D02*
X13072920Y-12156960D01*
X13072920Y-12156960D02*
X13082444Y-12147436D01*
X13082444Y-12147436D02*
X13091967Y-12128388D01*
X13091967Y-12128388D02*
X13091967Y-12080769D01*
X13091967Y-12080769D02*
X13082444Y-12061722D01*
X13082444Y-12061722D02*
X13072920Y-12052198D01*
X13072920Y-12052198D02*
X13053872Y-12042674D01*
X13053872Y-12042674D02*
X13015777Y-12042674D01*
X13015777Y-12042674D02*
X12996729Y-12052198D01*
X12996729Y-12052198D02*
X12987206Y-12061722D01*
X12987206Y-12061722D02*
X12977682Y-12080769D01*
X13215777Y-11966484D02*
X13234825Y-11966484D01*
X13234825Y-11966484D02*
X13253872Y-11976008D01*
X13253872Y-11976008D02*
X13263396Y-11985531D01*
X13263396Y-11985531D02*
X13272920Y-12004579D01*
X13272920Y-12004579D02*
X13282444Y-12042674D01*
X13282444Y-12042674D02*
X13282444Y-12090293D01*
X13282444Y-12090293D02*
X13272920Y-12128388D01*
X13272920Y-12128388D02*
X13263396Y-12147436D01*
X13263396Y-12147436D02*
X13253872Y-12156960D01*
X13253872Y-12156960D02*
X13234825Y-12166484D01*
X13234825Y-12166484D02*
X13215777Y-12166484D01*
X13215777Y-12166484D02*
X13196729Y-12156960D01*
X13196729Y-12156960D02*
X13187206Y-12147436D01*
X13187206Y-12147436D02*
X13177682Y-12128388D01*
X13177682Y-12128388D02*
X13168158Y-12090293D01*
X13168158Y-12090293D02*
X13168158Y-12042674D01*
X13168158Y-12042674D02*
X13177682Y-12004579D01*
X13177682Y-12004579D02*
X13187206Y-11985531D01*
X13187206Y-11985531D02*
X13196729Y-11976008D01*
X13196729Y-11976008D02*
X13215777Y-11966484D01*
X13358634Y-11966484D02*
X13358634Y-12004579D01*
X13434825Y-11966484D02*
X13434825Y-12004579D01*
X13730063Y-12242674D02*
X13720539Y-12233150D01*
X13720539Y-12233150D02*
X13701491Y-12204579D01*
X13701491Y-12204579D02*
X13691968Y-12185531D01*
X13691968Y-12185531D02*
X13682444Y-12156960D01*
X13682444Y-12156960D02*
X13672920Y-12109341D01*
X13672920Y-12109341D02*
X13672920Y-12071246D01*
X13672920Y-12071246D02*
X13682444Y-12023627D01*
X13682444Y-12023627D02*
X13691968Y-11995055D01*
X13691968Y-11995055D02*
X13701491Y-11976008D01*
X13701491Y-11976008D02*
X13720539Y-11947436D01*
X13720539Y-11947436D02*
X13730063Y-11937912D01*
X13796729Y-11985531D02*
X13806253Y-11976008D01*
X13806253Y-11976008D02*
X13825301Y-11966484D01*
X13825301Y-11966484D02*
X13872920Y-11966484D01*
X13872920Y-11966484D02*
X13891968Y-11976008D01*
X13891968Y-11976008D02*
X13901491Y-11985531D01*
X13901491Y-11985531D02*
X13911015Y-12004579D01*
X13911015Y-12004579D02*
X13911015Y-12023627D01*
X13911015Y-12023627D02*
X13901491Y-12052198D01*
X13901491Y-12052198D02*
X13787206Y-12166484D01*
X13787206Y-12166484D02*
X13911015Y-12166484D01*
X14149110Y-12166484D02*
X14149110Y-11966484D01*
X14234825Y-12166484D02*
X14234825Y-12061722D01*
X14234825Y-12061722D02*
X14225301Y-12042674D01*
X14225301Y-12042674D02*
X14206253Y-12033150D01*
X14206253Y-12033150D02*
X14177682Y-12033150D01*
X14177682Y-12033150D02*
X14158634Y-12042674D01*
X14158634Y-12042674D02*
X14149110Y-12052198D01*
X14358634Y-12166484D02*
X14339587Y-12156960D01*
X14339587Y-12156960D02*
X14330063Y-12147436D01*
X14330063Y-12147436D02*
X14320539Y-12128388D01*
X14320539Y-12128388D02*
X14320539Y-12071246D01*
X14320539Y-12071246D02*
X14330063Y-12052198D01*
X14330063Y-12052198D02*
X14339587Y-12042674D01*
X14339587Y-12042674D02*
X14358634Y-12033150D01*
X14358634Y-12033150D02*
X14387206Y-12033150D01*
X14387206Y-12033150D02*
X14406253Y-12042674D01*
X14406253Y-12042674D02*
X14415777Y-12052198D01*
X14415777Y-12052198D02*
X14425301Y-12071246D01*
X14425301Y-12071246D02*
X14425301Y-12128388D01*
X14425301Y-12128388D02*
X14415777Y-12147436D01*
X14415777Y-12147436D02*
X14406253Y-12156960D01*
X14406253Y-12156960D02*
X14387206Y-12166484D01*
X14387206Y-12166484D02*
X14358634Y-12166484D01*
X14539587Y-12166484D02*
X14520539Y-12156960D01*
X14520539Y-12156960D02*
X14511015Y-12137912D01*
X14511015Y-12137912D02*
X14511015Y-11966484D01*
X14691968Y-12156960D02*
X14672920Y-12166484D01*
X14672920Y-12166484D02*
X14634825Y-12166484D01*
X14634825Y-12166484D02*
X14615777Y-12156960D01*
X14615777Y-12156960D02*
X14606253Y-12137912D01*
X14606253Y-12137912D02*
X14606253Y-12061722D01*
X14606253Y-12061722D02*
X14615777Y-12042674D01*
X14615777Y-12042674D02*
X14634825Y-12033150D01*
X14634825Y-12033150D02*
X14672920Y-12033150D01*
X14672920Y-12033150D02*
X14691968Y-12042674D01*
X14691968Y-12042674D02*
X14701491Y-12061722D01*
X14701491Y-12061722D02*
X14701491Y-12080769D01*
X14701491Y-12080769D02*
X14606253Y-12099817D01*
X14777682Y-12156960D02*
X14796730Y-12166484D01*
X14796730Y-12166484D02*
X14834825Y-12166484D01*
X14834825Y-12166484D02*
X14853872Y-12156960D01*
X14853872Y-12156960D02*
X14863396Y-12137912D01*
X14863396Y-12137912D02*
X14863396Y-12128388D01*
X14863396Y-12128388D02*
X14853872Y-12109341D01*
X14853872Y-12109341D02*
X14834825Y-12099817D01*
X14834825Y-12099817D02*
X14806253Y-12099817D01*
X14806253Y-12099817D02*
X14787206Y-12090293D01*
X14787206Y-12090293D02*
X14777682Y-12071246D01*
X14777682Y-12071246D02*
X14777682Y-12061722D01*
X14777682Y-12061722D02*
X14787206Y-12042674D01*
X14787206Y-12042674D02*
X14806253Y-12033150D01*
X14806253Y-12033150D02*
X14834825Y-12033150D01*
X14834825Y-12033150D02*
X14853872Y-12042674D01*
X14930063Y-12242674D02*
X14939587Y-12233150D01*
X14939587Y-12233150D02*
X14958634Y-12204579D01*
X14958634Y-12204579D02*
X14968158Y-12185531D01*
X14968158Y-12185531D02*
X14977682Y-12156960D01*
X14977682Y-12156960D02*
X14987206Y-12109341D01*
X14987206Y-12109341D02*
X14987206Y-12071246D01*
X14987206Y-12071246D02*
X14977682Y-12023627D01*
X14977682Y-12023627D02*
X14968158Y-11995055D01*
X14968158Y-11995055D02*
X14958634Y-11976008D01*
X14958634Y-11976008D02*
X14939587Y-11947436D01*
X14939587Y-11947436D02*
X14930063Y-11937912D01*
X15291968Y-12242674D02*
X15282444Y-12233150D01*
X15282444Y-12233150D02*
X15263396Y-12204579D01*
X15263396Y-12204579D02*
X15253872Y-12185531D01*
X15253872Y-12185531D02*
X15244349Y-12156960D01*
X15244349Y-12156960D02*
X15234825Y-12109341D01*
X15234825Y-12109341D02*
X15234825Y-12071246D01*
X15234825Y-12071246D02*
X15244349Y-12023627D01*
X15244349Y-12023627D02*
X15253872Y-11995055D01*
X15253872Y-11995055D02*
X15263396Y-11976008D01*
X15263396Y-11976008D02*
X15282444Y-11947436D01*
X15282444Y-11947436D02*
X15291968Y-11937912D01*
X15368158Y-12033150D02*
X15368158Y-12166484D01*
X15368158Y-12052198D02*
X15377682Y-12042674D01*
X15377682Y-12042674D02*
X15396730Y-12033150D01*
X15396730Y-12033150D02*
X15425301Y-12033150D01*
X15425301Y-12033150D02*
X15444349Y-12042674D01*
X15444349Y-12042674D02*
X15453872Y-12061722D01*
X15453872Y-12061722D02*
X15453872Y-12166484D01*
X15577682Y-12166484D02*
X15558634Y-12156960D01*
X15558634Y-12156960D02*
X15549111Y-12147436D01*
X15549111Y-12147436D02*
X15539587Y-12128388D01*
X15539587Y-12128388D02*
X15539587Y-12071246D01*
X15539587Y-12071246D02*
X15549111Y-12052198D01*
X15549111Y-12052198D02*
X15558634Y-12042674D01*
X15558634Y-12042674D02*
X15577682Y-12033150D01*
X15577682Y-12033150D02*
X15606253Y-12033150D01*
X15606253Y-12033150D02*
X15625301Y-12042674D01*
X15625301Y-12042674D02*
X15634825Y-12052198D01*
X15634825Y-12052198D02*
X15644349Y-12071246D01*
X15644349Y-12071246D02*
X15644349Y-12128388D01*
X15644349Y-12128388D02*
X15634825Y-12147436D01*
X15634825Y-12147436D02*
X15625301Y-12156960D01*
X15625301Y-12156960D02*
X15606253Y-12166484D01*
X15606253Y-12166484D02*
X15577682Y-12166484D01*
X15701492Y-12033150D02*
X15777682Y-12033150D01*
X15730063Y-11966484D02*
X15730063Y-12137912D01*
X15730063Y-12137912D02*
X15739587Y-12156960D01*
X15739587Y-12156960D02*
X15758634Y-12166484D01*
X15758634Y-12166484D02*
X15777682Y-12166484D01*
X15996730Y-12033150D02*
X15996730Y-12233150D01*
X15996730Y-12042674D02*
X16015777Y-12033150D01*
X16015777Y-12033150D02*
X16053873Y-12033150D01*
X16053873Y-12033150D02*
X16072920Y-12042674D01*
X16072920Y-12042674D02*
X16082444Y-12052198D01*
X16082444Y-12052198D02*
X16091968Y-12071246D01*
X16091968Y-12071246D02*
X16091968Y-12128388D01*
X16091968Y-12128388D02*
X16082444Y-12147436D01*
X16082444Y-12147436D02*
X16072920Y-12156960D01*
X16072920Y-12156960D02*
X16053873Y-12166484D01*
X16053873Y-12166484D02*
X16015777Y-12166484D01*
X16015777Y-12166484D02*
X15996730Y-12156960D01*
X16206253Y-12166484D02*
X16187206Y-12156960D01*
X16187206Y-12156960D02*
X16177682Y-12137912D01*
X16177682Y-12137912D02*
X16177682Y-11966484D01*
X16368158Y-12166484D02*
X16368158Y-12061722D01*
X16368158Y-12061722D02*
X16358634Y-12042674D01*
X16358634Y-12042674D02*
X16339587Y-12033150D01*
X16339587Y-12033150D02*
X16301492Y-12033150D01*
X16301492Y-12033150D02*
X16282444Y-12042674D01*
X16368158Y-12156960D02*
X16349111Y-12166484D01*
X16349111Y-12166484D02*
X16301492Y-12166484D01*
X16301492Y-12166484D02*
X16282444Y-12156960D01*
X16282444Y-12156960D02*
X16272920Y-12137912D01*
X16272920Y-12137912D02*
X16272920Y-12118865D01*
X16272920Y-12118865D02*
X16282444Y-12099817D01*
X16282444Y-12099817D02*
X16301492Y-12090293D01*
X16301492Y-12090293D02*
X16349111Y-12090293D01*
X16349111Y-12090293D02*
X16368158Y-12080769D01*
X16434825Y-12033150D02*
X16511015Y-12033150D01*
X16463396Y-11966484D02*
X16463396Y-12137912D01*
X16463396Y-12137912D02*
X16472920Y-12156960D01*
X16472920Y-12156960D02*
X16491968Y-12166484D01*
X16491968Y-12166484D02*
X16511015Y-12166484D01*
X16653873Y-12156960D02*
X16634825Y-12166484D01*
X16634825Y-12166484D02*
X16596730Y-12166484D01*
X16596730Y-12166484D02*
X16577682Y-12156960D01*
X16577682Y-12156960D02*
X16568158Y-12137912D01*
X16568158Y-12137912D02*
X16568158Y-12061722D01*
X16568158Y-12061722D02*
X16577682Y-12042674D01*
X16577682Y-12042674D02*
X16596730Y-12033150D01*
X16596730Y-12033150D02*
X16634825Y-12033150D01*
X16634825Y-12033150D02*
X16653873Y-12042674D01*
X16653873Y-12042674D02*
X16663396Y-12061722D01*
X16663396Y-12061722D02*
X16663396Y-12080769D01*
X16663396Y-12080769D02*
X16568158Y-12099817D01*
X16834825Y-12166484D02*
X16834825Y-11966484D01*
X16834825Y-12156960D02*
X16815777Y-12166484D01*
X16815777Y-12166484D02*
X16777682Y-12166484D01*
X16777682Y-12166484D02*
X16758634Y-12156960D01*
X16758634Y-12156960D02*
X16749111Y-12147436D01*
X16749111Y-12147436D02*
X16739587Y-12128388D01*
X16739587Y-12128388D02*
X16739587Y-12071246D01*
X16739587Y-12071246D02*
X16749111Y-12052198D01*
X16749111Y-12052198D02*
X16758634Y-12042674D01*
X16758634Y-12042674D02*
X16777682Y-12033150D01*
X16777682Y-12033150D02*
X16815777Y-12033150D01*
X16815777Y-12033150D02*
X16834825Y-12042674D01*
X16911016Y-12242674D02*
X16920539Y-12233150D01*
X16920539Y-12233150D02*
X16939587Y-12204579D01*
X16939587Y-12204579D02*
X16949111Y-12185531D01*
X16949111Y-12185531D02*
X16958635Y-12156960D01*
X16958635Y-12156960D02*
X16968158Y-12109341D01*
X16968158Y-12109341D02*
X16968158Y-12071246D01*
X16968158Y-12071246D02*
X16958635Y-12023627D01*
X16958635Y-12023627D02*
X16949111Y-11995055D01*
X16949111Y-11995055D02*
X16939587Y-11976008D01*
X16939587Y-11976008D02*
X16920539Y-11947436D01*
X16920539Y-11947436D02*
X16911016Y-11937912D01*
M02*
