M48
; DRILL file {KiCad 7.0.7} date Thu 14 Sep 2023 05:32:05 PM EDT
; FORMAT={-:-/ absolute / inch / decimal}
; #@! TF.CreationDate,2023-09-14T17:32:05-04:00
; #@! TF.GenerationSoftware,Kicad,Pcbnew,7.0.7
; #@! TF.FileFunction,Plated,1,2,PTH
FMAT,2
INCH
; #@! TA.AperFunction,Plated,PTH,ComponentDrill
T1C0.0220
%
G90
G05
T1
X4.104Y-2.159
X4.1044Y-2.209
X4.1044Y-2.259
X4.1044Y-2.309
X4.1044Y-2.359
X4.1044Y-2.409
X4.1044Y-2.459
X4.1044Y-2.509
X4.1044Y-2.559
X4.1044Y-2.609
X4.1044Y-2.659
X4.1044Y-2.709
X4.1044Y-2.759
X4.1044Y-2.809
X4.1044Y-2.859
X4.1044Y-2.909
X4.1044Y-2.959
X4.1046Y-3.54
X4.105Y-3.59
X4.105Y-3.64
X4.105Y-3.69
X4.105Y-3.74
X4.105Y-3.79
X4.105Y-3.84
X4.105Y-3.89
X4.105Y-3.94
X4.105Y-3.99
X4.105Y-4.04
X4.105Y-4.09
X4.105Y-4.14
X4.105Y-4.19
X4.105Y-4.24
X4.105Y-4.29
X4.105Y-4.34
X4.2044Y-2.209
X4.2044Y-2.259
X4.2044Y-2.309
X4.2044Y-2.359
X4.2044Y-2.409
X4.2044Y-2.459
X4.2044Y-2.509
X4.2044Y-2.559
X4.2044Y-2.609
X4.2044Y-2.659
X4.2044Y-2.709
X4.2044Y-2.759
X4.2044Y-2.809
X4.2044Y-2.859
X4.2044Y-2.909
X4.2044Y-2.959
X4.2048Y-2.159
X4.205Y-3.59
X4.205Y-3.64
X4.205Y-3.69
X4.205Y-3.74
X4.205Y-3.79
X4.205Y-3.84
X4.205Y-3.89
X4.205Y-3.94
X4.205Y-3.99
X4.205Y-4.04
X4.205Y-4.09
X4.205Y-4.14
X4.205Y-4.19
X4.205Y-4.24
X4.205Y-4.29
X4.205Y-4.34
X4.2054Y-3.54
X5.8946Y-2.159
X5.8946Y-3.54
X5.895Y-2.209
X5.895Y-2.259
X5.895Y-2.309
X5.895Y-2.359
X5.895Y-2.409
X5.895Y-2.459
X5.895Y-2.509
X5.895Y-2.559
X5.895Y-2.609
X5.895Y-2.659
X5.895Y-2.709
X5.895Y-2.759
X5.895Y-2.809
X5.895Y-2.859
X5.895Y-2.909
X5.895Y-2.959
X5.895Y-3.59
X5.895Y-3.64
X5.895Y-3.69
X5.895Y-3.74
X5.895Y-3.79
X5.895Y-3.84
X5.895Y-3.89
X5.895Y-3.94
X5.895Y-3.99
X5.895Y-4.04
X5.895Y-4.09
X5.895Y-4.14
X5.895Y-4.19
X5.895Y-4.24
X5.895Y-4.29
X5.895Y-4.34
X5.995Y-2.209
X5.995Y-2.259
X5.995Y-2.309
X5.995Y-2.359
X5.995Y-2.409
X5.995Y-2.459
X5.995Y-2.509
X5.995Y-2.559
X5.995Y-2.609
X5.995Y-2.659
X5.995Y-2.709
X5.995Y-2.759
X5.995Y-2.809
X5.995Y-2.859
X5.995Y-2.909
X5.995Y-2.959
X5.995Y-3.59
X5.995Y-3.64
X5.995Y-3.69
X5.995Y-3.74
X5.995Y-3.79
X5.995Y-3.84
X5.995Y-3.89
X5.995Y-3.94
X5.995Y-3.99
X5.995Y-4.04
X5.995Y-4.09
X5.995Y-4.14
X5.995Y-4.19
X5.995Y-4.24
X5.995Y-4.29
X5.995Y-4.34
X5.9954Y-2.159
X5.9954Y-3.54
T0
M30
