%TF.GenerationSoftware,KiCad,Pcbnew,7.0.7*%
%TF.CreationDate,2023-09-08T13:56:03-04:00*%
%TF.ProjectId,Temps_North_DCT_HSK,54656d70-735f-44e6-9f72-74685f444354,B*%
%TF.SameCoordinates,Original*%
%TF.FileFunction,Copper,L2,Bot*%
%TF.FilePolarity,Positive*%
%FSLAX46Y46*%
G04 Gerber Fmt 4.6, Leading zero omitted, Abs format (unit mm)*
G04 Created by KiCad (PCBNEW 7.0.7) date 2023-09-08 13:56:03*
%MOMM*%
%LPD*%
G01*
G04 APERTURE LIST*
%TA.AperFunction,ComponentPad*%
%ADD10R,0.940800X0.940800*%
%TD*%
%TA.AperFunction,ComponentPad*%
%ADD11C,0.940800*%
%TD*%
%TA.AperFunction,ComponentPad*%
%ADD12C,0.890000*%
%TD*%
%TA.AperFunction,Conductor*%
%ADD13C,0.127000*%
%TD*%
G04 APERTURE END LIST*
D10*
%TO.P,J2,1,Pin_1*%
%TO.N,/TD2_1*%
X93944440Y-79857600D03*
D11*
%TO.P,J2,2,Pin_2*%
%TO.N,/TD2_2*%
X96504760Y-79857600D03*
%TO.P,J2,3,Pin_3*%
%TO.N,/TD2_3*%
X93954600Y-81127600D03*
%TO.P,J2,4,Pin_4*%
%TO.N,/TD2_4*%
X96494600Y-81127600D03*
%TO.P,J2,5,Pin_5*%
%TO.N,/TD2_5*%
X93954600Y-82397600D03*
%TO.P,J2,6,Pin_6*%
%TO.N,/TD2_6*%
X96494600Y-82397600D03*
%TO.P,J2,7,Pin_7*%
%TO.N,/TD2_7*%
X93954600Y-83667600D03*
%TO.P,J2,8,Pin_8*%
%TO.N,/TD2_8*%
X96494600Y-83667600D03*
%TO.P,J2,9,Pin_9*%
%TO.N,/TD2_9*%
X93954600Y-84937600D03*
%TO.P,J2,10,Pin_10*%
%TO.N,/TD2_10*%
X96494600Y-84937600D03*
%TO.P,J2,11,Pin_11*%
%TO.N,/TD2_11*%
X93954600Y-86207600D03*
%TO.P,J2,12,Pin_12*%
%TO.N,unconnected-(J2-Pad12)*%
X96494600Y-86207600D03*
%TO.P,J2,13,Pin_13*%
%TO.N,/TD2_13*%
X93954600Y-87477600D03*
%TO.P,J2,14,Pin_14*%
%TO.N,/TD2_14*%
X96494600Y-87477600D03*
%TO.P,J2,15,Pin_15*%
%TO.N,/TD2_15*%
X93954600Y-88747600D03*
%TO.P,J2,16,Pin_16*%
%TO.N,/TD2_16*%
X96494600Y-88747600D03*
%TO.P,J2,17,Pin_17*%
%TO.N,/TD2_17*%
X93954600Y-90017600D03*
%TO.P,J2,18,Pin_18*%
%TO.N,/TD2_18*%
X96494600Y-90017600D03*
%TO.P,J2,19,Pin_19*%
%TO.N,/TD2_19*%
X93954600Y-91287600D03*
%TO.P,J2,20,Pin_20*%
%TO.N,/TD2_20*%
X96494600Y-91287600D03*
%TO.P,J2,21,Pin_21*%
%TO.N,/TD2_21*%
X93954600Y-92557600D03*
%TO.P,J2,22,Pin_22*%
%TO.N,/TD2_22*%
X96494600Y-92557600D03*
%TO.P,J2,23,Pin_23*%
%TO.N,/TD2_23*%
X93954600Y-93827600D03*
%TO.P,J2,24,Pin_24*%
%TO.N,/TD2_24*%
X96494600Y-93827600D03*
%TO.P,J2,25,Pin_25*%
%TO.N,/TD2_25*%
X93954600Y-95097600D03*
%TO.P,J2,26,Pin_26*%
%TO.N,/TD2_26*%
X96494600Y-95097600D03*
%TO.P,J2,27,Pin_27*%
%TO.N,/TD2_27*%
X93954600Y-96367600D03*
%TO.P,J2,28,Pin_28*%
%TO.N,/TD2_28*%
X96494600Y-96367600D03*
%TO.P,J2,29,Pin_29*%
%TO.N,/TD2_29*%
X93954600Y-97637600D03*
%TO.P,J2,30,Pin_30*%
%TO.N,/TD2_30*%
X96494600Y-97637600D03*
%TO.P,J2,31,Pin_31*%
%TO.N,/TD2_31*%
X93954600Y-98907600D03*
%TO.P,J2,32,Pin_32*%
%TO.N,/TD2_32*%
X96494600Y-98907600D03*
%TO.P,J2,33,Pin_33*%
%TO.N,/TD2_33*%
X93954600Y-100177600D03*
%TO.P,J2,34,Pin_34*%
%TO.N,/TD2_34*%
X96494600Y-100177600D03*
%TD*%
D10*
%TO.P,J3,1,Pin_1*%
%TO.N,/TD1_1*%
X139664440Y-50952400D03*
D11*
%TO.P,J3,2,Pin_2*%
%TO.N,/TD1_2*%
X142224760Y-50952400D03*
%TO.P,J3,3,Pin_3*%
%TO.N,/TD1_3*%
X139674600Y-52222400D03*
%TO.P,J3,4,Pin_4*%
%TO.N,/TD1_4*%
X142214600Y-52222400D03*
%TO.P,J3,5,Pin_5*%
%TO.N,/TD1_5*%
X139674600Y-53492400D03*
%TO.P,J3,6,Pin_6*%
%TO.N,/TD1_6*%
X142214600Y-53492400D03*
%TO.P,J3,7,Pin_7*%
%TO.N,/TD1_7*%
X139674600Y-54762400D03*
%TO.P,J3,8,Pin_8*%
%TO.N,/TD1_8*%
X142214600Y-54762400D03*
%TO.P,J3,9,Pin_9*%
%TO.N,/TD1_9*%
X139674600Y-56032400D03*
%TO.P,J3,10,Pin_10*%
%TO.N,/TD1_10*%
X142214600Y-56032400D03*
%TO.P,J3,11,Pin_11*%
%TO.N,/TD1_11*%
X139674600Y-57302400D03*
%TO.P,J3,12,Pin_12*%
%TO.N,/TD1_12*%
X142214600Y-57302400D03*
%TO.P,J3,13,Pin_13*%
%TO.N,/TD1_13*%
X139674600Y-58572400D03*
%TO.P,J3,14,Pin_14*%
%TO.N,/TD1_14*%
X142214600Y-58572400D03*
%TO.P,J3,15,Pin_15*%
%TO.N,/TD1_15*%
X139674600Y-59842400D03*
%TO.P,J3,16,Pin_16*%
%TO.N,/TD1_16*%
X142214600Y-59842400D03*
%TO.P,J3,17,Pin_17*%
%TO.N,/TD1_17*%
X139674600Y-61112400D03*
%TO.P,J3,18,Pin_18*%
%TO.N,/TD1_18*%
X142214600Y-61112400D03*
%TO.P,J3,19,Pin_19*%
%TO.N,/TD1_19*%
X139674600Y-62382400D03*
%TO.P,J3,20,Pin_20*%
%TO.N,/TD1_20*%
X142214600Y-62382400D03*
%TO.P,J3,21,Pin_21*%
%TO.N,/TD1_21*%
X139674600Y-63652400D03*
%TO.P,J3,22,Pin_22*%
%TO.N,/TD1_22*%
X142214600Y-63652400D03*
%TO.P,J3,23,Pin_23*%
%TO.N,/TD1_23*%
X139674600Y-64922400D03*
%TO.P,J3,24,Pin_24*%
%TO.N,/TD1_24*%
X142214600Y-64922400D03*
%TO.P,J3,25,Pin_25*%
%TO.N,/TD1_25*%
X139674600Y-66192400D03*
%TO.P,J3,26,Pin_26*%
%TO.N,/TD1_26*%
X142214600Y-66192400D03*
%TO.P,J3,27,Pin_27*%
%TO.N,/TD1_27*%
X139674600Y-67462400D03*
%TO.P,J3,28,Pin_28*%
%TO.N,/TD1_28*%
X142214600Y-67462400D03*
%TO.P,J3,29,Pin_29*%
%TO.N,/TD1_29*%
X139674600Y-68732400D03*
%TO.P,J3,30,Pin_30*%
%TO.N,/TD1_30*%
X142214600Y-68732400D03*
%TO.P,J3,31,Pin_31*%
%TO.N,/TD1_31*%
X139674600Y-70002400D03*
%TO.P,J3,32,Pin_32*%
%TO.N,/TD1_32*%
X142214600Y-70002400D03*
%TO.P,J3,33,Pin_33*%
%TO.N,/TD1_33*%
X139674600Y-71272400D03*
%TO.P,J3,34,Pin_34*%
%TO.N,/TD1_34*%
X142214600Y-71272400D03*
%TD*%
D10*
%TO.P,J4,1,Pin_1*%
%TO.N,/TD2_1*%
X139659840Y-79857600D03*
D11*
%TO.P,J4,2,Pin_2*%
%TO.N,/TD2_2*%
X142220160Y-79857600D03*
%TO.P,J4,3,Pin_3*%
%TO.N,/TD2_3*%
X139670000Y-81127600D03*
%TO.P,J4,4,Pin_4*%
%TO.N,/TD2_4*%
X142210000Y-81127600D03*
%TO.P,J4,5,Pin_5*%
%TO.N,/TD2_5*%
X139670000Y-82397600D03*
%TO.P,J4,6,Pin_6*%
%TO.N,/TD2_6*%
X142210000Y-82397600D03*
%TO.P,J4,7,Pin_7*%
%TO.N,/TD2_7*%
X139670000Y-83667600D03*
%TO.P,J4,8,Pin_8*%
%TO.N,/TD2_8*%
X142210000Y-83667600D03*
%TO.P,J4,9,Pin_9*%
%TO.N,/TD2_10*%
X139670000Y-84937600D03*
%TO.P,J4,10,Pin_10*%
%TO.N,/TD2_9*%
X142210000Y-84937600D03*
%TO.P,J4,11,Pin_11*%
%TO.N,unconnected-(J4-Pad11)*%
X139670000Y-86207600D03*
%TO.P,J4,12,Pin_12*%
%TO.N,/TD2_11*%
X142210000Y-86207600D03*
%TO.P,J4,13,Pin_13*%
%TO.N,/TD2_13*%
X139670000Y-87477600D03*
%TO.P,J4,14,Pin_14*%
%TO.N,/TD2_14*%
X142210000Y-87477600D03*
%TO.P,J4,15,Pin_15*%
%TO.N,/TD2_15*%
X139670000Y-88747600D03*
%TO.P,J4,16,Pin_16*%
%TO.N,/TD2_16*%
X142210000Y-88747600D03*
%TO.P,J4,17,Pin_17*%
%TO.N,/TD2_17*%
X139670000Y-90017600D03*
%TO.P,J4,18,Pin_18*%
%TO.N,/TD2_18*%
X142210000Y-90017600D03*
%TO.P,J4,19,Pin_19*%
%TO.N,/TD2_19*%
X139670000Y-91287600D03*
%TO.P,J4,20,Pin_20*%
%TO.N,/TD2_20*%
X142210000Y-91287600D03*
%TO.P,J4,21,Pin_21*%
%TO.N,/TD2_21*%
X139670000Y-92557600D03*
%TO.P,J4,22,Pin_22*%
%TO.N,/TD2_22*%
X142210000Y-92557600D03*
%TO.P,J4,23,Pin_23*%
%TO.N,/TD2_23*%
X139670000Y-93827600D03*
%TO.P,J4,24,Pin_24*%
%TO.N,/TD2_24*%
X142210000Y-93827600D03*
%TO.P,J4,25,Pin_25*%
%TO.N,/TD2_25*%
X139670000Y-95097600D03*
%TO.P,J4,26,Pin_26*%
%TO.N,/TD2_26*%
X142210000Y-95097600D03*
%TO.P,J4,27,Pin_27*%
%TO.N,/TD2_27*%
X139670000Y-96367600D03*
%TO.P,J4,28,Pin_28*%
%TO.N,/TD2_28*%
X142210000Y-96367600D03*
%TO.P,J4,29,Pin_29*%
%TO.N,/TD2_29*%
X139670000Y-97637600D03*
%TO.P,J4,30,Pin_30*%
%TO.N,/TD2_30*%
X142210000Y-97637600D03*
%TO.P,J4,31,Pin_31*%
%TO.N,/TD2_31*%
X139670000Y-98907600D03*
%TO.P,J4,32,Pin_32*%
%TO.N,/TD2_32*%
X142210000Y-98907600D03*
%TO.P,J4,33,Pin_33*%
%TO.N,/TD2_33*%
X139670000Y-100177600D03*
%TO.P,J4,34,Pin_34*%
%TO.N,/TD2_34*%
X142210000Y-100177600D03*
%TD*%
D10*
%TO.P,J1,1,Pin_1*%
%TO.N,/TD1_1*%
X93969840Y-50901600D03*
D11*
%TO.P,J1,2,Pin_2*%
%TO.N,/TD1_2*%
X96530160Y-50901600D03*
%TO.P,J1,3,Pin_3*%
%TO.N,/TD1_3*%
X93980000Y-52171600D03*
%TO.P,J1,4,Pin_4*%
%TO.N,/TD1_4*%
X96520000Y-52171600D03*
%TO.P,J1,5,Pin_5*%
%TO.N,/TD1_5*%
X93980000Y-53441600D03*
%TO.P,J1,6,Pin_6*%
%TO.N,/TD1_6*%
X96520000Y-53441600D03*
%TO.P,J1,7,Pin_7*%
%TO.N,/TD1_7*%
X93980000Y-54711600D03*
%TO.P,J1,8,Pin_8*%
%TO.N,/TD1_8*%
X96520000Y-54711600D03*
%TO.P,J1,9,Pin_9*%
%TO.N,/TD1_9*%
X93980000Y-55981600D03*
%TO.P,J1,10,Pin_10*%
%TO.N,/TD1_10*%
X96520000Y-55981600D03*
%TO.P,J1,11,Pin_11*%
%TO.N,/TD1_11*%
X93980000Y-57251600D03*
%TO.P,J1,12,Pin_12*%
%TO.N,/TD1_12*%
X96520000Y-57251600D03*
%TO.P,J1,13,Pin_13*%
%TO.N,/TD1_13*%
X93980000Y-58521600D03*
%TO.P,J1,14,Pin_14*%
%TO.N,/TD1_14*%
X96520000Y-58521600D03*
%TO.P,J1,15,Pin_15*%
%TO.N,/TD1_15*%
X93980000Y-59791600D03*
%TO.P,J1,16,Pin_16*%
%TO.N,/TD1_16*%
X96520000Y-59791600D03*
%TO.P,J1,17,Pin_17*%
%TO.N,/TD1_17*%
X93980000Y-61061600D03*
%TO.P,J1,18,Pin_18*%
%TO.N,/TD1_18*%
X96520000Y-61061600D03*
%TO.P,J1,19,Pin_19*%
%TO.N,/TD1_19*%
X93980000Y-62331600D03*
%TO.P,J1,20,Pin_20*%
%TO.N,/TD1_20*%
X96520000Y-62331600D03*
%TO.P,J1,21,Pin_21*%
%TO.N,/TD1_21*%
X93980000Y-63601600D03*
%TO.P,J1,22,Pin_22*%
%TO.N,/TD1_22*%
X96520000Y-63601600D03*
%TO.P,J1,23,Pin_23*%
%TO.N,/TD1_23*%
X93980000Y-64871600D03*
%TO.P,J1,24,Pin_24*%
%TO.N,/TD1_24*%
X96520000Y-64871600D03*
%TO.P,J1,25,Pin_25*%
%TO.N,/TD1_25*%
X93980000Y-66141600D03*
%TO.P,J1,26,Pin_26*%
%TO.N,/TD1_26*%
X96520000Y-66141600D03*
%TO.P,J1,27,Pin_27*%
%TO.N,/TD1_27*%
X93980000Y-67411600D03*
%TO.P,J1,28,Pin_28*%
%TO.N,/TD1_28*%
X96520000Y-67411600D03*
%TO.P,J1,29,Pin_29*%
%TO.N,/TD1_29*%
X93980000Y-68681600D03*
%TO.P,J1,30,Pin_30*%
%TO.N,/TD1_30*%
X96520000Y-68681600D03*
%TO.P,J1,31,Pin_31*%
%TO.N,/TD1_31*%
X93980000Y-69951600D03*
D12*
%TO.P,J1,32,Pin_32*%
%TO.N,/TD1_32*%
X96520000Y-69951600D03*
D11*
%TO.P,J1,33,Pin_33*%
%TO.N,/TD1_33*%
X93980000Y-71221600D03*
D12*
%TO.P,J1,34,Pin_34*%
%TO.N,/TD1_34*%
X96520000Y-71221600D03*
%TD*%
D13*
%TO.N,/TD2_9*%
X94607400Y-85587600D02*
X139280200Y-85587600D01*
X139280200Y-85587600D02*
X140085446Y-85582354D01*
X93977400Y-84957600D02*
X94607400Y-85587600D01*
X140085446Y-85582354D02*
X141608046Y-85582354D01*
X141608046Y-85582354D02*
X142232800Y-84957600D01*
%TO.N,/TD2_10*%
X96494600Y-84937600D02*
X139670000Y-84937600D01*
%TO.N,/TD2_11*%
X93954600Y-86207600D02*
X94584600Y-86837600D01*
X140062646Y-86832354D02*
X141585246Y-86832354D01*
X94584600Y-86837600D02*
X139257400Y-86837600D01*
X139257400Y-86837600D02*
X140062646Y-86832354D01*
X141585246Y-86832354D02*
X142210000Y-86207600D01*
%TD*%
M02*
