%TF.GenerationSoftware,KiCad,Pcbnew,7.0.7*%
%TF.CreationDate,2023-09-14T15:50:50-04:00*%
%TF.ProjectId,Temps_North_DCT_HSK,54656d70-735f-44e6-9f72-74685f444354,B*%
%TF.SameCoordinates,Original*%
%TF.FileFunction,AssemblyDrawing,Top*%
%FSLAX46Y46*%
G04 Gerber Fmt 4.6, Leading zero omitted, Abs format (unit mm)*
G04 Created by KiCad (PCBNEW 7.0.7) date 2023-09-14 15:50:50*
%MOMM*%
%LPD*%
G01*
G04 APERTURE LIST*
%ADD10C,0.150000*%
G04 APERTURE END LIST*
D10*
X127508095Y-68154819D02*
X127508095Y-67154819D01*
X127508095Y-67631009D02*
X128079523Y-67631009D01*
X128079523Y-68154819D02*
X128079523Y-67154819D01*
X129079523Y-68154819D02*
X128508095Y-68154819D01*
X128793809Y-68154819D02*
X128793809Y-67154819D01*
X128793809Y-67154819D02*
X128698571Y-67297676D01*
X128698571Y-67297676D02*
X128603333Y-67392914D01*
X128603333Y-67392914D02*
X128508095Y-67440533D01*
X126936666Y-63954819D02*
X126603333Y-63478628D01*
X126365238Y-63954819D02*
X126365238Y-62954819D01*
X126365238Y-62954819D02*
X126746190Y-62954819D01*
X126746190Y-62954819D02*
X126841428Y-63002438D01*
X126841428Y-63002438D02*
X126889047Y-63050057D01*
X126889047Y-63050057D02*
X126936666Y-63145295D01*
X126936666Y-63145295D02*
X126936666Y-63288152D01*
X126936666Y-63288152D02*
X126889047Y-63383390D01*
X126889047Y-63383390D02*
X126841428Y-63431009D01*
X126841428Y-63431009D02*
X126746190Y-63478628D01*
X126746190Y-63478628D02*
X126365238Y-63478628D01*
X127365238Y-63431009D02*
X127698571Y-63431009D01*
X127841428Y-63954819D02*
X127365238Y-63954819D01*
X127365238Y-63954819D02*
X127365238Y-62954819D01*
X127365238Y-62954819D02*
X127841428Y-62954819D01*
X128603333Y-63431009D02*
X128270000Y-63431009D01*
X128270000Y-63954819D02*
X128270000Y-62954819D01*
X128270000Y-62954819D02*
X128746190Y-62954819D01*
X129270000Y-62954819D02*
X129270000Y-63192914D01*
X129031905Y-63097676D02*
X129270000Y-63192914D01*
X129270000Y-63192914D02*
X129508095Y-63097676D01*
X129127143Y-63383390D02*
X129270000Y-63192914D01*
X129270000Y-63192914D02*
X129412857Y-63383390D01*
X130031905Y-62954819D02*
X130031905Y-63192914D01*
X129793810Y-63097676D02*
X130031905Y-63192914D01*
X130031905Y-63192914D02*
X130270000Y-63097676D01*
X129889048Y-63383390D02*
X130031905Y-63192914D01*
X130031905Y-63192914D02*
X130174762Y-63383390D01*
X127508095Y-106254819D02*
X127508095Y-105254819D01*
X127508095Y-105731009D02*
X128079523Y-105731009D01*
X128079523Y-106254819D02*
X128079523Y-105254819D01*
X128508095Y-105350057D02*
X128555714Y-105302438D01*
X128555714Y-105302438D02*
X128650952Y-105254819D01*
X128650952Y-105254819D02*
X128889047Y-105254819D01*
X128889047Y-105254819D02*
X128984285Y-105302438D01*
X128984285Y-105302438D02*
X129031904Y-105350057D01*
X129031904Y-105350057D02*
X129079523Y-105445295D01*
X129079523Y-105445295D02*
X129079523Y-105540533D01*
X129079523Y-105540533D02*
X129031904Y-105683390D01*
X129031904Y-105683390D02*
X128460476Y-106254819D01*
X128460476Y-106254819D02*
X129079523Y-106254819D01*
M02*
