%TF.GenerationSoftware,KiCad,Pcbnew,7.0.7*%
%TF.CreationDate,2023-09-14T17:32:12-04:00*%
%TF.ProjectId,Temps_North_DCT_HSK,54656d70-735f-44e6-9f72-74685f444354,B*%
%TF.SameCoordinates,Original*%
%TF.FileFunction,Legend,Top*%
%TF.FilePolarity,Positive*%
%FSLAX46Y46*%
G04 Gerber Fmt 4.6, Leading zero omitted, Abs format (unit mm)*
G04 Created by KiCad (PCBNEW 7.0.7) date 2023-09-14 17:32:12*
%MOMM*%
%LPD*%
G01*
G04 APERTURE LIST*
%ADD10C,0.254000*%
%ADD11C,0.400000*%
%ADD12C,0.200000*%
%ADD13C,0.150000*%
%ADD14C,0.127000*%
G04 APERTURE END LIST*
D10*
X148920200Y-54838600D02*
G75*
G03*
X148920200Y-54838600I-25400J0D01*
G01*
X103454200Y-54813200D02*
G75*
G03*
X103454200Y-54813200I-25400J0D01*
G01*
X148920200Y-89916000D02*
G75*
G03*
X148920200Y-89916000I-25400J0D01*
G01*
X103454200Y-89916000D02*
G75*
G03*
X103454200Y-89916000I-25400J0D01*
G01*
D11*
X141701147Y-93502381D02*
X141701147Y-92073810D01*
X144201147Y-92788096D02*
X141701147Y-92788096D01*
X144201147Y-90883334D02*
X144082100Y-91121429D01*
X144082100Y-91121429D02*
X143963052Y-91240476D01*
X143963052Y-91240476D02*
X143724957Y-91359524D01*
X143724957Y-91359524D02*
X143010671Y-91359524D01*
X143010671Y-91359524D02*
X142772576Y-91240476D01*
X142772576Y-91240476D02*
X142653528Y-91121429D01*
X142653528Y-91121429D02*
X142534480Y-90883334D01*
X142534480Y-90883334D02*
X142534480Y-90526191D01*
X142534480Y-90526191D02*
X142653528Y-90288095D01*
X142653528Y-90288095D02*
X142772576Y-90169048D01*
X142772576Y-90169048D02*
X143010671Y-90050000D01*
X143010671Y-90050000D02*
X143724957Y-90050000D01*
X143724957Y-90050000D02*
X143963052Y-90169048D01*
X143963052Y-90169048D02*
X144082100Y-90288095D01*
X144082100Y-90288095D02*
X144201147Y-90526191D01*
X144201147Y-90526191D02*
X144201147Y-90883334D01*
X144201147Y-87073809D02*
X141701147Y-87073809D01*
X141701147Y-87073809D02*
X141701147Y-86478571D01*
X141701147Y-86478571D02*
X141820195Y-86121428D01*
X141820195Y-86121428D02*
X142058290Y-85883333D01*
X142058290Y-85883333D02*
X142296385Y-85764286D01*
X142296385Y-85764286D02*
X142772576Y-85645238D01*
X142772576Y-85645238D02*
X143129719Y-85645238D01*
X143129719Y-85645238D02*
X143605909Y-85764286D01*
X143605909Y-85764286D02*
X143844004Y-85883333D01*
X143844004Y-85883333D02*
X144082100Y-86121428D01*
X144082100Y-86121428D02*
X144201147Y-86478571D01*
X144201147Y-86478571D02*
X144201147Y-87073809D01*
X143963052Y-83145238D02*
X144082100Y-83264286D01*
X144082100Y-83264286D02*
X144201147Y-83621428D01*
X144201147Y-83621428D02*
X144201147Y-83859524D01*
X144201147Y-83859524D02*
X144082100Y-84216667D01*
X144082100Y-84216667D02*
X143844004Y-84454762D01*
X143844004Y-84454762D02*
X143605909Y-84573809D01*
X143605909Y-84573809D02*
X143129719Y-84692857D01*
X143129719Y-84692857D02*
X142772576Y-84692857D01*
X142772576Y-84692857D02*
X142296385Y-84573809D01*
X142296385Y-84573809D02*
X142058290Y-84454762D01*
X142058290Y-84454762D02*
X141820195Y-84216667D01*
X141820195Y-84216667D02*
X141701147Y-83859524D01*
X141701147Y-83859524D02*
X141701147Y-83621428D01*
X141701147Y-83621428D02*
X141820195Y-83264286D01*
X141820195Y-83264286D02*
X141939242Y-83145238D01*
X141701147Y-82430952D02*
X141701147Y-81002381D01*
X144201147Y-81716667D02*
X141701147Y-81716667D01*
X144201147Y-78264285D02*
X141701147Y-78264285D01*
X142891623Y-78264285D02*
X142891623Y-76835714D01*
X144201147Y-76835714D02*
X141701147Y-76835714D01*
X144082100Y-75764285D02*
X144201147Y-75407142D01*
X144201147Y-75407142D02*
X144201147Y-74811904D01*
X144201147Y-74811904D02*
X144082100Y-74573809D01*
X144082100Y-74573809D02*
X143963052Y-74454761D01*
X143963052Y-74454761D02*
X143724957Y-74335714D01*
X143724957Y-74335714D02*
X143486861Y-74335714D01*
X143486861Y-74335714D02*
X143248766Y-74454761D01*
X143248766Y-74454761D02*
X143129719Y-74573809D01*
X143129719Y-74573809D02*
X143010671Y-74811904D01*
X143010671Y-74811904D02*
X142891623Y-75288095D01*
X142891623Y-75288095D02*
X142772576Y-75526190D01*
X142772576Y-75526190D02*
X142653528Y-75645237D01*
X142653528Y-75645237D02*
X142415433Y-75764285D01*
X142415433Y-75764285D02*
X142177338Y-75764285D01*
X142177338Y-75764285D02*
X141939242Y-75645237D01*
X141939242Y-75645237D02*
X141820195Y-75526190D01*
X141820195Y-75526190D02*
X141701147Y-75288095D01*
X141701147Y-75288095D02*
X141701147Y-74692856D01*
X141701147Y-74692856D02*
X141820195Y-74335714D01*
X144201147Y-73264285D02*
X141701147Y-73264285D01*
X144201147Y-71835714D02*
X142772576Y-72907143D01*
X141701147Y-71835714D02*
X143129719Y-73264285D01*
D12*
X111196219Y-101718857D02*
X110196219Y-101718857D01*
X110196219Y-101718857D02*
X111196219Y-101147429D01*
X111196219Y-101147429D02*
X110196219Y-101147429D01*
X110196219Y-100814095D02*
X110196219Y-100242667D01*
X111196219Y-100528381D02*
X110196219Y-100528381D01*
X110672409Y-99576000D02*
X110720028Y-99433143D01*
X110720028Y-99433143D02*
X110767647Y-99385524D01*
X110767647Y-99385524D02*
X110862885Y-99337905D01*
X110862885Y-99337905D02*
X111005742Y-99337905D01*
X111005742Y-99337905D02*
X111100980Y-99385524D01*
X111100980Y-99385524D02*
X111148600Y-99433143D01*
X111148600Y-99433143D02*
X111196219Y-99528381D01*
X111196219Y-99528381D02*
X111196219Y-99909333D01*
X111196219Y-99909333D02*
X110196219Y-99909333D01*
X110196219Y-99909333D02*
X110196219Y-99576000D01*
X110196219Y-99576000D02*
X110243838Y-99480762D01*
X110243838Y-99480762D02*
X110291457Y-99433143D01*
X110291457Y-99433143D02*
X110386695Y-99385524D01*
X110386695Y-99385524D02*
X110481933Y-99385524D01*
X110481933Y-99385524D02*
X110577171Y-99433143D01*
X110577171Y-99433143D02*
X110624790Y-99480762D01*
X110624790Y-99480762D02*
X110672409Y-99576000D01*
X110672409Y-99576000D02*
X110672409Y-99909333D01*
X110291457Y-98956952D02*
X110243838Y-98909333D01*
X110243838Y-98909333D02*
X110196219Y-98814095D01*
X110196219Y-98814095D02*
X110196219Y-98576000D01*
X110196219Y-98576000D02*
X110243838Y-98480762D01*
X110243838Y-98480762D02*
X110291457Y-98433143D01*
X110291457Y-98433143D02*
X110386695Y-98385524D01*
X110386695Y-98385524D02*
X110481933Y-98385524D01*
X110481933Y-98385524D02*
X110624790Y-98433143D01*
X110624790Y-98433143D02*
X111196219Y-99004571D01*
X111196219Y-99004571D02*
X111196219Y-98385524D01*
X146553019Y-101718856D02*
X145553019Y-101718856D01*
X145553019Y-101718856D02*
X146553019Y-101147428D01*
X146553019Y-101147428D02*
X145553019Y-101147428D01*
X145553019Y-100814094D02*
X145553019Y-100242666D01*
X146553019Y-100528380D02*
X145553019Y-100528380D01*
X146029209Y-99575999D02*
X146076828Y-99433142D01*
X146076828Y-99433142D02*
X146124447Y-99385523D01*
X146124447Y-99385523D02*
X146219685Y-99337904D01*
X146219685Y-99337904D02*
X146362542Y-99337904D01*
X146362542Y-99337904D02*
X146457780Y-99385523D01*
X146457780Y-99385523D02*
X146505400Y-99433142D01*
X146505400Y-99433142D02*
X146553019Y-99528380D01*
X146553019Y-99528380D02*
X146553019Y-99909332D01*
X146553019Y-99909332D02*
X145553019Y-99909332D01*
X145553019Y-99909332D02*
X145553019Y-99575999D01*
X145553019Y-99575999D02*
X145600638Y-99480761D01*
X145600638Y-99480761D02*
X145648257Y-99433142D01*
X145648257Y-99433142D02*
X145743495Y-99385523D01*
X145743495Y-99385523D02*
X145838733Y-99385523D01*
X145838733Y-99385523D02*
X145933971Y-99433142D01*
X145933971Y-99433142D02*
X145981590Y-99480761D01*
X145981590Y-99480761D02*
X146029209Y-99575999D01*
X146029209Y-99575999D02*
X146029209Y-99909332D01*
X145648257Y-98956951D02*
X145600638Y-98909332D01*
X145600638Y-98909332D02*
X145553019Y-98814094D01*
X145553019Y-98814094D02*
X145553019Y-98575999D01*
X145553019Y-98575999D02*
X145600638Y-98480761D01*
X145600638Y-98480761D02*
X145648257Y-98433142D01*
X145648257Y-98433142D02*
X145743495Y-98385523D01*
X145743495Y-98385523D02*
X145838733Y-98385523D01*
X145838733Y-98385523D02*
X145981590Y-98433142D01*
X145981590Y-98433142D02*
X146553019Y-99004570D01*
X146553019Y-99004570D02*
X146553019Y-98385523D01*
D11*
X112716623Y-89579247D02*
X112716623Y-90412580D01*
X114026147Y-90412580D02*
X111526147Y-90412580D01*
X111526147Y-90412580D02*
X111526147Y-89222104D01*
X114026147Y-88269723D02*
X112359480Y-88269723D01*
X112835671Y-88269723D02*
X112597576Y-88150676D01*
X112597576Y-88150676D02*
X112478528Y-88031628D01*
X112478528Y-88031628D02*
X112359480Y-87793533D01*
X112359480Y-87793533D02*
X112359480Y-87555438D01*
X114026147Y-86364962D02*
X113907100Y-86603057D01*
X113907100Y-86603057D02*
X113788052Y-86722104D01*
X113788052Y-86722104D02*
X113549957Y-86841152D01*
X113549957Y-86841152D02*
X112835671Y-86841152D01*
X112835671Y-86841152D02*
X112597576Y-86722104D01*
X112597576Y-86722104D02*
X112478528Y-86603057D01*
X112478528Y-86603057D02*
X112359480Y-86364962D01*
X112359480Y-86364962D02*
X112359480Y-86007819D01*
X112359480Y-86007819D02*
X112478528Y-85769723D01*
X112478528Y-85769723D02*
X112597576Y-85650676D01*
X112597576Y-85650676D02*
X112835671Y-85531628D01*
X112835671Y-85531628D02*
X113549957Y-85531628D01*
X113549957Y-85531628D02*
X113788052Y-85650676D01*
X113788052Y-85650676D02*
X113907100Y-85769723D01*
X113907100Y-85769723D02*
X114026147Y-86007819D01*
X114026147Y-86007819D02*
X114026147Y-86364962D01*
X114026147Y-84460199D02*
X112359480Y-84460199D01*
X112597576Y-84460199D02*
X112478528Y-84341152D01*
X112478528Y-84341152D02*
X112359480Y-84103057D01*
X112359480Y-84103057D02*
X112359480Y-83745914D01*
X112359480Y-83745914D02*
X112478528Y-83507818D01*
X112478528Y-83507818D02*
X112716623Y-83388771D01*
X112716623Y-83388771D02*
X114026147Y-83388771D01*
X112716623Y-83388771D02*
X112478528Y-83269723D01*
X112478528Y-83269723D02*
X112359480Y-83031628D01*
X112359480Y-83031628D02*
X112359480Y-82674485D01*
X112359480Y-82674485D02*
X112478528Y-82436390D01*
X112478528Y-82436390D02*
X112716623Y-82317342D01*
X112716623Y-82317342D02*
X114026147Y-82317342D01*
X114026147Y-79222104D02*
X111526147Y-79222104D01*
X111526147Y-79222104D02*
X111526147Y-78626866D01*
X111526147Y-78626866D02*
X111645195Y-78269723D01*
X111645195Y-78269723D02*
X111883290Y-78031628D01*
X111883290Y-78031628D02*
X112121385Y-77912581D01*
X112121385Y-77912581D02*
X112597576Y-77793533D01*
X112597576Y-77793533D02*
X112954719Y-77793533D01*
X112954719Y-77793533D02*
X113430909Y-77912581D01*
X113430909Y-77912581D02*
X113669004Y-78031628D01*
X113669004Y-78031628D02*
X113907100Y-78269723D01*
X113907100Y-78269723D02*
X114026147Y-78626866D01*
X114026147Y-78626866D02*
X114026147Y-79222104D01*
X113788052Y-75293533D02*
X113907100Y-75412581D01*
X113907100Y-75412581D02*
X114026147Y-75769723D01*
X114026147Y-75769723D02*
X114026147Y-76007819D01*
X114026147Y-76007819D02*
X113907100Y-76364962D01*
X113907100Y-76364962D02*
X113669004Y-76603057D01*
X113669004Y-76603057D02*
X113430909Y-76722104D01*
X113430909Y-76722104D02*
X112954719Y-76841152D01*
X112954719Y-76841152D02*
X112597576Y-76841152D01*
X112597576Y-76841152D02*
X112121385Y-76722104D01*
X112121385Y-76722104D02*
X111883290Y-76603057D01*
X111883290Y-76603057D02*
X111645195Y-76364962D01*
X111645195Y-76364962D02*
X111526147Y-76007819D01*
X111526147Y-76007819D02*
X111526147Y-75769723D01*
X111526147Y-75769723D02*
X111645195Y-75412581D01*
X111645195Y-75412581D02*
X111764242Y-75293533D01*
X111526147Y-74579247D02*
X111526147Y-73150676D01*
X114026147Y-73864962D02*
X111526147Y-73864962D01*
D12*
X146553019Y-66641457D02*
X145553019Y-66641457D01*
X145553019Y-66641457D02*
X146553019Y-66070029D01*
X146553019Y-66070029D02*
X145553019Y-66070029D01*
X145553019Y-65736695D02*
X145553019Y-65165267D01*
X146553019Y-65450981D02*
X145553019Y-65450981D01*
X146029209Y-64498600D02*
X146076828Y-64355743D01*
X146076828Y-64355743D02*
X146124447Y-64308124D01*
X146124447Y-64308124D02*
X146219685Y-64260505D01*
X146219685Y-64260505D02*
X146362542Y-64260505D01*
X146362542Y-64260505D02*
X146457780Y-64308124D01*
X146457780Y-64308124D02*
X146505400Y-64355743D01*
X146505400Y-64355743D02*
X146553019Y-64450981D01*
X146553019Y-64450981D02*
X146553019Y-64831933D01*
X146553019Y-64831933D02*
X145553019Y-64831933D01*
X145553019Y-64831933D02*
X145553019Y-64498600D01*
X145553019Y-64498600D02*
X145600638Y-64403362D01*
X145600638Y-64403362D02*
X145648257Y-64355743D01*
X145648257Y-64355743D02*
X145743495Y-64308124D01*
X145743495Y-64308124D02*
X145838733Y-64308124D01*
X145838733Y-64308124D02*
X145933971Y-64355743D01*
X145933971Y-64355743D02*
X145981590Y-64403362D01*
X145981590Y-64403362D02*
X146029209Y-64498600D01*
X146029209Y-64498600D02*
X146029209Y-64831933D01*
X146553019Y-63308124D02*
X146553019Y-63879552D01*
X146553019Y-63593838D02*
X145553019Y-63593838D01*
X145553019Y-63593838D02*
X145695876Y-63689076D01*
X145695876Y-63689076D02*
X145791114Y-63784314D01*
X145791114Y-63784314D02*
X145838733Y-63879552D01*
X111196219Y-66641457D02*
X110196219Y-66641457D01*
X110196219Y-66641457D02*
X111196219Y-66070029D01*
X111196219Y-66070029D02*
X110196219Y-66070029D01*
X110196219Y-65736695D02*
X110196219Y-65165267D01*
X111196219Y-65450981D02*
X110196219Y-65450981D01*
X110672409Y-64498600D02*
X110720028Y-64355743D01*
X110720028Y-64355743D02*
X110767647Y-64308124D01*
X110767647Y-64308124D02*
X110862885Y-64260505D01*
X110862885Y-64260505D02*
X111005742Y-64260505D01*
X111005742Y-64260505D02*
X111100980Y-64308124D01*
X111100980Y-64308124D02*
X111148600Y-64355743D01*
X111148600Y-64355743D02*
X111196219Y-64450981D01*
X111196219Y-64450981D02*
X111196219Y-64831933D01*
X111196219Y-64831933D02*
X110196219Y-64831933D01*
X110196219Y-64831933D02*
X110196219Y-64498600D01*
X110196219Y-64498600D02*
X110243838Y-64403362D01*
X110243838Y-64403362D02*
X110291457Y-64355743D01*
X110291457Y-64355743D02*
X110386695Y-64308124D01*
X110386695Y-64308124D02*
X110481933Y-64308124D01*
X110481933Y-64308124D02*
X110577171Y-64355743D01*
X110577171Y-64355743D02*
X110624790Y-64403362D01*
X110624790Y-64403362D02*
X110672409Y-64498600D01*
X110672409Y-64498600D02*
X110672409Y-64831933D01*
X111196219Y-63308124D02*
X111196219Y-63879552D01*
X111196219Y-63593838D02*
X110196219Y-63593838D01*
X110196219Y-63593838D02*
X110339076Y-63689076D01*
X110339076Y-63689076D02*
X110434314Y-63784314D01*
X110434314Y-63784314D02*
X110481933Y-63879552D01*
D13*
X109940219Y-113464933D02*
X110654504Y-113464933D01*
X110654504Y-113464933D02*
X110797361Y-113512552D01*
X110797361Y-113512552D02*
X110892600Y-113607790D01*
X110892600Y-113607790D02*
X110940219Y-113750647D01*
X110940219Y-113750647D02*
X110940219Y-113845885D01*
X110035457Y-113036361D02*
X109987838Y-112988742D01*
X109987838Y-112988742D02*
X109940219Y-112893504D01*
X109940219Y-112893504D02*
X109940219Y-112655409D01*
X109940219Y-112655409D02*
X109987838Y-112560171D01*
X109987838Y-112560171D02*
X110035457Y-112512552D01*
X110035457Y-112512552D02*
X110130695Y-112464933D01*
X110130695Y-112464933D02*
X110225933Y-112464933D01*
X110225933Y-112464933D02*
X110368790Y-112512552D01*
X110368790Y-112512552D02*
X110940219Y-113083980D01*
X110940219Y-113083980D02*
X110940219Y-112464933D01*
X145809619Y-52530333D02*
X146523904Y-52530333D01*
X146523904Y-52530333D02*
X146666761Y-52577952D01*
X146666761Y-52577952D02*
X146762000Y-52673190D01*
X146762000Y-52673190D02*
X146809619Y-52816047D01*
X146809619Y-52816047D02*
X146809619Y-52911285D01*
X145809619Y-52149380D02*
X145809619Y-51530333D01*
X145809619Y-51530333D02*
X146190571Y-51863666D01*
X146190571Y-51863666D02*
X146190571Y-51720809D01*
X146190571Y-51720809D02*
X146238190Y-51625571D01*
X146238190Y-51625571D02*
X146285809Y-51577952D01*
X146285809Y-51577952D02*
X146381047Y-51530333D01*
X146381047Y-51530333D02*
X146619142Y-51530333D01*
X146619142Y-51530333D02*
X146714380Y-51577952D01*
X146714380Y-51577952D02*
X146762000Y-51625571D01*
X146762000Y-51625571D02*
X146809619Y-51720809D01*
X146809619Y-51720809D02*
X146809619Y-52006523D01*
X146809619Y-52006523D02*
X146762000Y-52101761D01*
X146762000Y-52101761D02*
X146714380Y-52149380D01*
X146038219Y-113464933D02*
X146752504Y-113464933D01*
X146752504Y-113464933D02*
X146895361Y-113512552D01*
X146895361Y-113512552D02*
X146990600Y-113607790D01*
X146990600Y-113607790D02*
X147038219Y-113750647D01*
X147038219Y-113750647D02*
X147038219Y-113845885D01*
X146371552Y-112560171D02*
X147038219Y-112560171D01*
X145990600Y-112798266D02*
X146704885Y-113036361D01*
X146704885Y-113036361D02*
X146704885Y-112417314D01*
X109940219Y-52530333D02*
X110654504Y-52530333D01*
X110654504Y-52530333D02*
X110797361Y-52577952D01*
X110797361Y-52577952D02*
X110892600Y-52673190D01*
X110892600Y-52673190D02*
X110940219Y-52816047D01*
X110940219Y-52816047D02*
X110940219Y-52911285D01*
X110940219Y-51530333D02*
X110940219Y-52101761D01*
X110940219Y-51816047D02*
X109940219Y-51816047D01*
X109940219Y-51816047D02*
X110083076Y-51911285D01*
X110083076Y-51911285D02*
X110178314Y-52006523D01*
X110178314Y-52006523D02*
X110225933Y-52101761D01*
D14*
%TO.C,J2*%
X109144000Y-86182000D02*
X109144000Y-113970000D01*
X101930000Y-86182000D02*
X109144000Y-86182000D01*
X109144000Y-113970000D02*
X101930000Y-113970000D01*
X101930000Y-113970000D02*
X101930000Y-86182000D01*
D12*
X100495480Y-89641680D02*
G75*
G03*
X100495480Y-89641680I-100000J0D01*
G01*
%TO.C,G\u002A\u002A\u002A*%
G36*
X144459142Y-113322700D02*
G01*
X131029257Y-113322700D01*
X131029257Y-113225382D01*
X144459142Y-113225382D01*
X144459142Y-113322700D01*
G37*
G36*
X145172807Y-108959610D02*
G01*
X145047240Y-108959610D01*
X145025220Y-108764974D01*
X144734876Y-108764974D01*
X144734876Y-109752763D01*
X144929512Y-109774783D01*
X144929512Y-109900350D01*
X144248286Y-109900350D01*
X144248286Y-109774783D01*
X144442922Y-109752763D01*
X144442922Y-108764974D01*
X144152579Y-108764974D01*
X144130559Y-108959610D01*
X144004991Y-108959610D01*
X144004991Y-108602777D01*
X145172807Y-108602777D01*
X145172807Y-108959610D01*
G37*
G36*
X135165272Y-111162299D02*
G01*
X134970636Y-111184889D01*
X134970636Y-112183641D01*
X135063899Y-112197647D01*
X135116203Y-112206335D01*
X135144521Y-112216386D01*
X135156951Y-112233965D01*
X135161590Y-112265234D01*
X135162196Y-112272477D01*
X135167231Y-112333301D01*
X134484046Y-112333301D01*
X134484046Y-112276023D01*
X134485784Y-112242551D01*
X134495579Y-112221936D01*
X134520309Y-112209480D01*
X134566847Y-112200481D01*
X134601639Y-112195650D01*
X134678682Y-112185336D01*
X134678682Y-111184889D01*
X134484046Y-111162299D01*
X134484046Y-111035727D01*
X135165272Y-111035727D01*
X135165272Y-111162299D01*
G37*
G36*
X138390109Y-103029339D02*
G01*
X138522744Y-103165225D01*
X138522744Y-105379027D01*
X138390109Y-105514912D01*
X138257475Y-105650797D01*
X137232564Y-105650797D01*
X137099110Y-105516646D01*
X136965655Y-105382495D01*
X136965655Y-105349861D01*
X137062973Y-105349861D01*
X137163878Y-105451670D01*
X137264782Y-105553479D01*
X138221807Y-105553479D01*
X138323616Y-105452575D01*
X138425426Y-105351671D01*
X138425426Y-103194332D01*
X138207330Y-102974552D01*
X137282753Y-102974552D01*
X137062973Y-103192648D01*
X137062973Y-105349861D01*
X136965655Y-105349861D01*
X136965655Y-103160362D01*
X137099806Y-103026908D01*
X137233958Y-102893454D01*
X138257475Y-102893454D01*
X138390109Y-103029339D01*
G37*
G36*
X139110819Y-102289382D02*
G01*
X139544583Y-102723369D01*
X139544583Y-105821904D01*
X138675447Y-106688856D01*
X136811347Y-106688856D01*
X136369472Y-106246762D01*
X135927597Y-105804667D01*
X135927597Y-105431302D01*
X136819678Y-105431302D01*
X136993763Y-105605929D01*
X137167848Y-105780555D01*
X138319444Y-105780555D01*
X138485972Y-105614593D01*
X138652501Y-105448631D01*
X138652501Y-103096729D01*
X138304331Y-102747477D01*
X137185129Y-102747477D01*
X137002403Y-102929684D01*
X136819678Y-103111890D01*
X136819678Y-105431302D01*
X135927597Y-105431302D01*
X135927597Y-102739146D01*
X136369691Y-102297271D01*
X136811786Y-101855395D01*
X138677056Y-101855395D01*
X139110819Y-102289382D01*
G37*
G36*
X139755438Y-102617382D02*
G01*
X139755438Y-105902399D01*
X139256587Y-106401055D01*
X138757736Y-106899712D01*
X136709866Y-106899712D01*
X136222023Y-106400957D01*
X135734179Y-105902202D01*
X135734161Y-105853341D01*
X135814059Y-105853341D01*
X136288381Y-106327867D01*
X136762703Y-106802394D01*
X138725699Y-106802394D01*
X139191744Y-106336078D01*
X139657789Y-105869763D01*
X139679701Y-102663839D01*
X139210810Y-102194738D01*
X138741919Y-101725638D01*
X136746896Y-101725638D01*
X136280478Y-102191848D01*
X135814059Y-102658059D01*
X135814059Y-105853341D01*
X135734161Y-105853341D01*
X135732961Y-102609410D01*
X136714447Y-101628320D01*
X138777694Y-101628320D01*
X139755438Y-102617382D01*
G37*
G36*
X142820956Y-111392560D02*
G01*
X142695388Y-111392560D01*
X142673368Y-111197924D01*
X142383025Y-111197924D01*
X142383025Y-112183641D01*
X142476288Y-112197647D01*
X142528591Y-112206335D01*
X142556909Y-112216386D01*
X142569339Y-112233965D01*
X142573978Y-112265234D01*
X142574585Y-112272477D01*
X142579619Y-112333301D01*
X141894476Y-112333301D01*
X141899510Y-112272477D01*
X141903623Y-112238217D01*
X141914129Y-112218714D01*
X141939123Y-112207802D01*
X141986703Y-112199319D01*
X141997807Y-112197647D01*
X142091071Y-112183641D01*
X142091071Y-111197924D01*
X141802302Y-111197924D01*
X141779712Y-111392560D01*
X141653139Y-111392560D01*
X141653139Y-111035727D01*
X142820956Y-111035727D01*
X142820956Y-111392560D01*
G37*
G36*
X141507162Y-111160234D02*
G01*
X141320636Y-111189814D01*
X141316350Y-111686693D01*
X141312063Y-112183573D01*
X141405558Y-112197613D01*
X141457941Y-112206306D01*
X141486329Y-112216336D01*
X141498806Y-112233846D01*
X141503459Y-112264979D01*
X141504087Y-112272477D01*
X141509121Y-112333301D01*
X140825936Y-112333301D01*
X140825936Y-112276023D01*
X140827674Y-112242551D01*
X140837469Y-112221936D01*
X140862199Y-112209480D01*
X140908737Y-112200481D01*
X140943529Y-112195650D01*
X141020572Y-112185336D01*
X141020572Y-111185387D01*
X140927309Y-111171381D01*
X140875075Y-111162740D01*
X140847243Y-111153055D01*
X140836130Y-111136495D01*
X140834053Y-111107229D01*
X140834046Y-111100606D01*
X140834046Y-111043837D01*
X141507162Y-111035069D01*
X141507162Y-111160234D01*
G37*
G36*
X138019934Y-108728344D02*
G01*
X137922616Y-108739355D01*
X137825298Y-108750365D01*
X137825298Y-109243302D01*
X137825813Y-109387817D01*
X137827310Y-109511105D01*
X137829717Y-109610876D01*
X137832962Y-109684837D01*
X137836972Y-109730697D01*
X137841131Y-109746025D01*
X137865462Y-109753488D01*
X137909807Y-109761595D01*
X137938449Y-109765461D01*
X138019934Y-109775112D01*
X138019934Y-109900350D01*
X137336750Y-109900350D01*
X137341784Y-109839527D01*
X137345897Y-109805267D01*
X137356402Y-109785764D01*
X137381396Y-109774852D01*
X137428977Y-109766369D01*
X137440081Y-109764697D01*
X137533344Y-109750691D01*
X137533344Y-108752436D01*
X137440081Y-108738430D01*
X137387777Y-108729742D01*
X137359459Y-108719691D01*
X137347029Y-108702113D01*
X137342390Y-108670843D01*
X137341784Y-108663601D01*
X137336750Y-108602777D01*
X138019934Y-108602777D01*
X138019934Y-108728344D01*
G37*
G36*
X142626320Y-108959610D02*
G01*
X142498550Y-108959610D01*
X142488235Y-108882566D01*
X142480383Y-108826914D01*
X142470421Y-108792321D01*
X142451491Y-108773791D01*
X142416734Y-108766331D01*
X142359291Y-108764946D01*
X142326765Y-108764974D01*
X142188389Y-108764974D01*
X142188389Y-109752039D01*
X142366805Y-109774331D01*
X142366805Y-109900350D01*
X141701798Y-109900350D01*
X141701798Y-109774331D01*
X141791007Y-109763185D01*
X141880215Y-109752039D01*
X141880215Y-108764974D01*
X141742657Y-108764974D01*
X141675180Y-108764842D01*
X141632945Y-108768362D01*
X141608831Y-108781403D01*
X141595715Y-108809839D01*
X141586475Y-108859539D01*
X141580351Y-108898786D01*
X141571757Y-108937990D01*
X141555795Y-108955238D01*
X141521548Y-108959514D01*
X141506428Y-108959610D01*
X141442284Y-108959610D01*
X141442284Y-108602777D01*
X142626320Y-108602777D01*
X142626320Y-108959610D01*
G37*
G36*
X146405502Y-108943390D02*
G01*
X146278219Y-108943390D01*
X146251147Y-108773084D01*
X146012041Y-108768595D01*
X145772935Y-108764107D01*
X145772935Y-109155463D01*
X145922967Y-109150799D01*
X146072999Y-109146136D01*
X146087445Y-109060983D01*
X146096948Y-109011655D01*
X146108065Y-108986372D01*
X146127293Y-108977107D01*
X146156379Y-108975829D01*
X146210866Y-108975829D01*
X146210866Y-109462419D01*
X146154656Y-109462419D01*
X146121246Y-109460740D01*
X146103242Y-109450181D01*
X146093804Y-109422459D01*
X146087688Y-109381321D01*
X146076930Y-109300223D01*
X145772935Y-109300223D01*
X145772935Y-109739021D01*
X146012041Y-109734532D01*
X146251147Y-109730044D01*
X146264683Y-109644891D01*
X146278219Y-109559737D01*
X146405502Y-109559737D01*
X146405502Y-109900350D01*
X145286345Y-109900350D01*
X145286345Y-109774783D01*
X145480981Y-109752763D01*
X145480981Y-108752436D01*
X145387718Y-108738430D01*
X145335415Y-108729742D01*
X145307096Y-108719691D01*
X145294666Y-108702113D01*
X145290027Y-108670843D01*
X145289421Y-108663601D01*
X145284387Y-108602777D01*
X146405502Y-108602777D01*
X146405502Y-108943390D01*
G37*
G36*
X133283791Y-108943390D02*
G01*
X133156368Y-108943390D01*
X133134076Y-108764974D01*
X132650194Y-108764974D01*
X132659334Y-109146136D01*
X132951058Y-109146136D01*
X132968170Y-109065038D01*
X132980077Y-109016802D01*
X132993950Y-108991896D01*
X133016776Y-108981602D01*
X133037218Y-108978857D01*
X133089155Y-108973774D01*
X133089155Y-109462419D01*
X133033908Y-109462419D01*
X133001045Y-109460658D01*
X132983238Y-109449855D01*
X132973709Y-109421734D01*
X132967507Y-109381321D01*
X132956353Y-109300223D01*
X132651224Y-109300223D01*
X132651224Y-109738154D01*
X133134076Y-109738154D01*
X133145222Y-109648946D01*
X133156368Y-109559737D01*
X133283791Y-109559737D01*
X133283791Y-109900350D01*
X132162676Y-109900350D01*
X132167710Y-109839527D01*
X132171823Y-109805267D01*
X132182328Y-109785764D01*
X132207322Y-109774852D01*
X132254902Y-109766369D01*
X132266007Y-109764697D01*
X132359270Y-109750691D01*
X132359270Y-108752436D01*
X132266007Y-108738430D01*
X132213703Y-108729742D01*
X132185385Y-108719691D01*
X132172955Y-108702113D01*
X132168316Y-108670843D01*
X132167710Y-108663601D01*
X132162676Y-108602777D01*
X133283791Y-108602777D01*
X133283791Y-108943390D01*
G37*
G36*
X138003714Y-111376340D02*
G01*
X137876291Y-111376340D01*
X137853999Y-111197924D01*
X137370118Y-111197924D01*
X137374687Y-111388505D01*
X137379257Y-111579086D01*
X137670982Y-111579086D01*
X137688093Y-111497988D01*
X137700000Y-111449752D01*
X137713874Y-111424846D01*
X137736700Y-111414552D01*
X137757141Y-111411807D01*
X137809078Y-111406724D01*
X137809078Y-111895370D01*
X137754399Y-111895370D01*
X137721868Y-111893583D01*
X137704271Y-111882699D01*
X137694922Y-111854433D01*
X137688962Y-111814271D01*
X137678204Y-111733173D01*
X137371147Y-111733173D01*
X137371147Y-112171104D01*
X137853999Y-112171104D01*
X137876291Y-111992688D01*
X138003714Y-111992688D01*
X138003714Y-112333301D01*
X136884557Y-112333301D01*
X136884557Y-112276023D01*
X136886294Y-112242551D01*
X136896090Y-112221936D01*
X136920820Y-112209480D01*
X136967358Y-112200481D01*
X137002150Y-112195650D01*
X137079193Y-112185336D01*
X137079193Y-111185387D01*
X136985930Y-111171381D01*
X136933696Y-111162740D01*
X136905864Y-111153055D01*
X136894750Y-111136495D01*
X136892674Y-111107229D01*
X136892667Y-111100606D01*
X136892667Y-111043837D01*
X137448191Y-111039569D01*
X138003714Y-111035301D01*
X138003714Y-111376340D01*
G37*
G36*
X133554423Y-111369333D02*
G01*
X133625077Y-111467700D01*
X133694026Y-111563712D01*
X133757560Y-111652199D01*
X133811970Y-111727996D01*
X133853545Y-111785933D01*
X133871754Y-111811324D01*
X133948797Y-111918807D01*
X133948797Y-111184889D01*
X133754161Y-111162299D01*
X133754161Y-111035727D01*
X134338069Y-111035727D01*
X134338069Y-111162299D01*
X134143433Y-111184889D01*
X134143433Y-112333301D01*
X134025841Y-112332602D01*
X133908248Y-112331904D01*
X133618011Y-111920390D01*
X133544382Y-111816228D01*
X133475171Y-111718757D01*
X133413017Y-111631662D01*
X133360562Y-111558626D01*
X133320446Y-111503335D01*
X133295308Y-111469472D01*
X133290146Y-111462883D01*
X133252518Y-111416889D01*
X133251935Y-111800265D01*
X133251351Y-112183641D01*
X133344615Y-112197647D01*
X133396918Y-112206335D01*
X133425236Y-112216386D01*
X133437666Y-112233965D01*
X133442305Y-112265234D01*
X133442912Y-112272477D01*
X133447946Y-112333301D01*
X132862079Y-112333301D01*
X132862079Y-112276023D01*
X132863817Y-112242551D01*
X132873612Y-112221936D01*
X132898342Y-112209480D01*
X132944881Y-112200481D01*
X132979672Y-112195650D01*
X133056715Y-112185336D01*
X133056715Y-111185387D01*
X132963452Y-111171381D01*
X132911218Y-111162740D01*
X132883386Y-111153055D01*
X132872273Y-111136495D01*
X132870196Y-111107229D01*
X132870189Y-111100606D01*
X132870189Y-111043837D01*
X133092163Y-111039331D01*
X133314136Y-111034825D01*
X133554423Y-111369333D01*
G37*
G36*
X143631939Y-111161747D02*
G01*
X143541502Y-111173046D01*
X143485436Y-111183317D01*
X143459563Y-111196114D01*
X143458409Y-111203299D01*
X143469448Y-111223264D01*
X143494669Y-111264955D01*
X143530660Y-111322844D01*
X143574009Y-111391404D01*
X143588347Y-111413863D01*
X143636855Y-111489295D01*
X143671195Y-111540714D01*
X143694580Y-111571497D01*
X143710222Y-111585022D01*
X143721336Y-111584665D01*
X143731134Y-111573804D01*
X143734973Y-111567950D01*
X143752795Y-111539817D01*
X143783486Y-111491064D01*
X143822721Y-111428573D01*
X143865613Y-111360121D01*
X143972221Y-111189814D01*
X143883179Y-111175024D01*
X143794136Y-111160234D01*
X143794136Y-111035727D01*
X144361824Y-111035727D01*
X144361824Y-111161747D01*
X144184910Y-111183851D01*
X143997632Y-111474562D01*
X143810355Y-111765274D01*
X143810355Y-112185336D01*
X143887399Y-112195650D01*
X143947877Y-112204702D01*
X143982999Y-112214788D01*
X143999641Y-112230607D01*
X144004677Y-112256859D01*
X144004991Y-112276023D01*
X144004991Y-112333301D01*
X143321807Y-112333301D01*
X143326841Y-112272477D01*
X143330954Y-112238217D01*
X143341459Y-112218714D01*
X143366454Y-112207802D01*
X143414034Y-112199319D01*
X143425138Y-112197647D01*
X143518401Y-112183641D01*
X143518401Y-111781959D01*
X143322757Y-111482873D01*
X143127113Y-111183786D01*
X143038913Y-111172767D01*
X142950713Y-111161747D01*
X142950713Y-111035727D01*
X143631939Y-111035727D01*
X143631939Y-111161747D01*
G37*
G36*
X136787239Y-111160234D02*
G01*
X136695404Y-111175024D01*
X136603570Y-111189814D01*
X136390780Y-111757502D01*
X136177990Y-112325191D01*
X136036309Y-112329881D01*
X135966982Y-112331383D01*
X135923336Y-112329593D01*
X135898688Y-112323448D01*
X135886355Y-112311885D01*
X135883391Y-112305552D01*
X135875209Y-112284056D01*
X135856946Y-112235853D01*
X135829978Y-112164584D01*
X135795683Y-112073889D01*
X135755436Y-111967409D01*
X135710616Y-111848785D01*
X135666947Y-111733173D01*
X135461739Y-111189814D01*
X135370275Y-111175024D01*
X135278810Y-111160234D01*
X135278810Y-111035727D01*
X135943816Y-111035727D01*
X135943816Y-111161747D01*
X135854608Y-111172893D01*
X135805842Y-111180641D01*
X135773440Y-111188960D01*
X135765400Y-111194147D01*
X135770878Y-111215842D01*
X135786132Y-111261755D01*
X135809389Y-111327268D01*
X135838877Y-111407762D01*
X135872824Y-111498620D01*
X135909457Y-111595225D01*
X135947005Y-111692958D01*
X135983695Y-111787203D01*
X136017755Y-111873341D01*
X136047413Y-111946755D01*
X136070896Y-112002827D01*
X136086433Y-112036939D01*
X136092041Y-112045251D01*
X136099893Y-112028107D01*
X136116998Y-111985308D01*
X136141561Y-111921699D01*
X136171784Y-111842123D01*
X136205870Y-111751425D01*
X136242023Y-111654449D01*
X136278446Y-111556038D01*
X136313342Y-111461039D01*
X136344915Y-111374293D01*
X136371367Y-111300646D01*
X136390902Y-111244942D01*
X136401723Y-111212025D01*
X136403206Y-111206340D01*
X136390350Y-111194881D01*
X136354145Y-111181837D01*
X136316869Y-111173028D01*
X136266168Y-111162128D01*
X136239591Y-111150658D01*
X136229351Y-111132219D01*
X136227661Y-111100412D01*
X136227661Y-111043837D01*
X136787239Y-111034961D01*
X136787239Y-111160234D01*
G37*
G36*
X130461569Y-108618997D02*
G01*
X130397425Y-108618997D01*
X130355732Y-108616825D01*
X130335532Y-108604319D01*
X130325906Y-108572497D01*
X130323502Y-108558173D01*
X130314779Y-108501156D01*
X130306431Y-108463034D01*
X130292520Y-108440041D01*
X130267112Y-108428414D01*
X130224270Y-108424387D01*
X130158059Y-108424195D01*
X130112537Y-108424361D01*
X129926320Y-108424361D01*
X129926320Y-109080164D01*
X129926136Y-109244682D01*
X129925948Y-109379729D01*
X129926303Y-109488270D01*
X129927746Y-109573271D01*
X129930823Y-109637695D01*
X129936080Y-109684508D01*
X129944064Y-109716673D01*
X129955319Y-109737156D01*
X129970393Y-109748920D01*
X129989830Y-109754931D01*
X130014178Y-109758153D01*
X130043982Y-109761551D01*
X130052022Y-109762724D01*
X130095107Y-109771114D01*
X130115002Y-109784771D01*
X130120664Y-109813331D01*
X130120956Y-109836897D01*
X130120956Y-109900350D01*
X129423510Y-109900350D01*
X129423510Y-109836897D01*
X129425345Y-109796953D01*
X129436820Y-109776855D01*
X129466890Y-109766967D01*
X129492443Y-109762724D01*
X129523640Y-109758842D01*
X129549250Y-109755849D01*
X129569818Y-109750779D01*
X129585891Y-109740668D01*
X129598015Y-109722553D01*
X129606735Y-109693467D01*
X129612598Y-109650447D01*
X129616150Y-109590528D01*
X129617936Y-109510746D01*
X129618502Y-109408135D01*
X129618395Y-109279731D01*
X129618160Y-109122571D01*
X129618146Y-109080164D01*
X129618146Y-108424361D01*
X129246563Y-108424361D01*
X129236784Y-108485184D01*
X129225965Y-108550388D01*
X129216436Y-108590000D01*
X129203945Y-108610392D01*
X129184239Y-108617936D01*
X129153065Y-108619002D01*
X129147466Y-108618997D01*
X129082897Y-108618997D01*
X129082897Y-108245944D01*
X130461569Y-108245944D01*
X130461569Y-108618997D01*
G37*
G36*
X131237037Y-108663601D02*
G01*
X131232924Y-108697860D01*
X131222418Y-108717364D01*
X131197424Y-108728275D01*
X131149844Y-108736758D01*
X131138740Y-108738430D01*
X131045477Y-108752436D01*
X131045477Y-109138026D01*
X131548286Y-109138026D01*
X131548286Y-108752436D01*
X131455023Y-108738430D01*
X131402720Y-108729742D01*
X131374402Y-108719691D01*
X131361971Y-108702113D01*
X131357332Y-108670843D01*
X131356726Y-108663601D01*
X131351692Y-108602777D01*
X132036835Y-108602777D01*
X132031801Y-108663601D01*
X132027687Y-108697860D01*
X132017182Y-108717364D01*
X131992188Y-108728275D01*
X131944608Y-108736758D01*
X131933503Y-108738430D01*
X131840240Y-108752436D01*
X131840240Y-109750691D01*
X131933503Y-109764697D01*
X131985807Y-109773385D01*
X132014125Y-109783436D01*
X132026555Y-109801015D01*
X132031194Y-109832284D01*
X132031801Y-109839527D01*
X132036835Y-109900350D01*
X131353650Y-109900350D01*
X131353650Y-109775112D01*
X131435135Y-109765461D01*
X131485276Y-109758051D01*
X131522197Y-109749928D01*
X131532453Y-109746025D01*
X131538550Y-109726695D01*
X131543478Y-109680539D01*
X131546846Y-109613163D01*
X131548265Y-109530172D01*
X131548286Y-109518231D01*
X131548286Y-109300223D01*
X131045477Y-109300223D01*
X131045477Y-109750691D01*
X131138740Y-109764697D01*
X131191043Y-109773385D01*
X131219361Y-109783436D01*
X131231791Y-109801015D01*
X131236430Y-109832284D01*
X131237037Y-109839527D01*
X131242071Y-109900350D01*
X130558887Y-109900350D01*
X130558887Y-109774783D01*
X130753523Y-109752763D01*
X130753523Y-108752436D01*
X130660260Y-108738430D01*
X130607956Y-108729742D01*
X130579638Y-108719691D01*
X130567208Y-108702113D01*
X130562569Y-108670843D01*
X130561962Y-108663601D01*
X130556928Y-108602777D01*
X131242071Y-108602777D01*
X131237037Y-108663601D01*
G37*
G36*
X136394891Y-108663601D02*
G01*
X136390778Y-108697860D01*
X136380273Y-108717364D01*
X136355279Y-108728275D01*
X136307698Y-108736758D01*
X136296594Y-108738430D01*
X136203331Y-108752436D01*
X136203331Y-109138026D01*
X136707170Y-109138026D01*
X136702601Y-108947445D01*
X136698031Y-108756864D01*
X136608823Y-108739861D01*
X136557998Y-108729113D01*
X136530860Y-108717311D01*
X136519159Y-108697709D01*
X136514643Y-108663565D01*
X136514581Y-108662817D01*
X136509547Y-108602777D01*
X137194689Y-108602777D01*
X137189655Y-108663601D01*
X137185542Y-108697860D01*
X137175037Y-108717364D01*
X137150042Y-108728275D01*
X137102462Y-108736758D01*
X137091358Y-108738430D01*
X136998095Y-108752436D01*
X136998095Y-109750691D01*
X137091358Y-109764697D01*
X137143661Y-109773385D01*
X137171980Y-109783436D01*
X137184410Y-109801015D01*
X137189049Y-109832284D01*
X137189655Y-109839527D01*
X137194689Y-109900350D01*
X136511505Y-109900350D01*
X136511505Y-109775112D01*
X136592989Y-109765461D01*
X136643130Y-109758051D01*
X136680051Y-109749928D01*
X136690307Y-109746025D01*
X136696405Y-109726695D01*
X136701332Y-109680539D01*
X136704700Y-109613163D01*
X136706120Y-109530172D01*
X136706141Y-109518231D01*
X136706141Y-109300223D01*
X136203331Y-109300223D01*
X136203331Y-109750691D01*
X136296594Y-109764697D01*
X136348898Y-109773385D01*
X136377216Y-109783436D01*
X136389646Y-109801015D01*
X136394285Y-109832284D01*
X136394891Y-109839527D01*
X136399925Y-109900350D01*
X135716741Y-109900350D01*
X135716741Y-109774783D01*
X135911377Y-109752763D01*
X135911377Y-108752436D01*
X135818114Y-108738430D01*
X135765811Y-108729742D01*
X135737492Y-108719691D01*
X135725062Y-108702113D01*
X135720423Y-108670843D01*
X135719817Y-108663601D01*
X135714783Y-108602777D01*
X136399925Y-108602777D01*
X136394891Y-108663601D01*
G37*
G36*
X143546664Y-108849521D02*
G01*
X143584229Y-108946056D01*
X143629541Y-109062749D01*
X143678677Y-109189488D01*
X143727719Y-109316162D01*
X143769558Y-109424407D01*
X143895803Y-109751337D01*
X143986892Y-109765020D01*
X144038439Y-109773660D01*
X144066103Y-109783924D01*
X144078094Y-109802176D01*
X144082618Y-109834777D01*
X144083014Y-109839527D01*
X144088048Y-109900350D01*
X143402905Y-109900350D01*
X143407939Y-109839907D01*
X143412238Y-109805609D01*
X143423274Y-109785854D01*
X143449180Y-109774161D01*
X143498092Y-109764049D01*
X143504621Y-109762864D01*
X143596269Y-109746264D01*
X143505843Y-109519188D01*
X143012622Y-109519188D01*
X142973558Y-109615207D01*
X142953148Y-109668390D01*
X142939011Y-109710994D01*
X142934493Y-109731562D01*
X142949506Y-109746121D01*
X142989804Y-109759559D01*
X143019646Y-109765368D01*
X143069083Y-109774305D01*
X143094953Y-109785530D01*
X143105786Y-109806063D01*
X143109834Y-109839593D01*
X143114868Y-109900350D01*
X142545221Y-109900350D01*
X142545221Y-109775844D01*
X142637989Y-109761054D01*
X142730756Y-109746264D01*
X142882810Y-109353166D01*
X143080470Y-109353166D01*
X143095597Y-109357962D01*
X143136613Y-109361838D01*
X143196973Y-109364356D01*
X143258887Y-109365101D01*
X143330581Y-109364090D01*
X143388521Y-109361346D01*
X143426160Y-109357308D01*
X143437303Y-109353166D01*
X143431950Y-109331085D01*
X143417479Y-109286619D01*
X143396270Y-109226101D01*
X143370702Y-109155864D01*
X143343156Y-109082239D01*
X143316013Y-109011559D01*
X143291652Y-108950156D01*
X143272454Y-108904362D01*
X143260798Y-108880508D01*
X143258887Y-108878511D01*
X143250586Y-108892751D01*
X143233872Y-108931250D01*
X143211125Y-108987675D01*
X143184723Y-109055695D01*
X143157049Y-109128977D01*
X143130481Y-109201188D01*
X143107400Y-109265998D01*
X143090187Y-109317073D01*
X143081221Y-109348082D01*
X143080470Y-109353166D01*
X142882810Y-109353166D01*
X142950343Y-109178575D01*
X143169930Y-108610887D01*
X143450014Y-108601565D01*
X143546664Y-108849521D01*
G37*
G36*
X134954154Y-108226081D02*
G01*
X135093139Y-108251558D01*
X135222321Y-108298561D01*
X135306708Y-108346486D01*
X135397436Y-108427179D01*
X135471050Y-108533847D01*
X135526871Y-108664492D01*
X135564217Y-108817120D01*
X135582409Y-108989735D01*
X135582142Y-109154246D01*
X135563422Y-109336151D01*
X135524950Y-109492511D01*
X135466266Y-109623861D01*
X135386909Y-109730735D01*
X135286420Y-109813669D01*
X135164338Y-109873197D01*
X135020202Y-109909855D01*
X134921977Y-109921162D01*
X134842549Y-109923387D01*
X134757596Y-109920556D01*
X134694902Y-109914445D01*
X134550130Y-109879919D01*
X134426602Y-109821412D01*
X134324182Y-109738727D01*
X134242734Y-109631667D01*
X134182123Y-109500035D01*
X134142212Y-109343635D01*
X134122867Y-109162269D01*
X134120851Y-109081257D01*
X134121515Y-109065038D01*
X134444152Y-109065038D01*
X134449872Y-109233917D01*
X134468683Y-109375294D01*
X134501351Y-109491675D01*
X134548640Y-109585566D01*
X134611317Y-109659470D01*
X134630961Y-109676310D01*
X134710866Y-109720865D01*
X134805168Y-109742412D01*
X134904737Y-109740276D01*
X135000445Y-109713782D01*
X135019295Y-109705012D01*
X135099513Y-109647351D01*
X135163298Y-109563077D01*
X135211073Y-109451480D01*
X135239575Y-109333679D01*
X135255285Y-109205758D01*
X135259879Y-109068504D01*
X135253941Y-108930741D01*
X135238055Y-108801297D01*
X135212805Y-108688998D01*
X135193167Y-108632953D01*
X135155393Y-108566366D01*
X135102544Y-108502822D01*
X135043573Y-108451581D01*
X134989895Y-108422687D01*
X134907358Y-108406295D01*
X134816881Y-108405471D01*
X134732387Y-108419546D01*
X134685472Y-108437277D01*
X134607482Y-108490246D01*
X134545783Y-108562067D01*
X134499490Y-108655050D01*
X134467712Y-108771504D01*
X134449564Y-108913738D01*
X134444152Y-109065038D01*
X134121515Y-109065038D01*
X134128449Y-108895548D01*
X134153179Y-108735886D01*
X134195587Y-108600438D01*
X134256219Y-108487374D01*
X134321590Y-108408400D01*
X134419843Y-108331896D01*
X134538209Y-108275035D01*
X134670705Y-108238195D01*
X134811348Y-108221752D01*
X134954154Y-108226081D01*
G37*
G36*
X138620062Y-111044343D02*
G01*
X138765031Y-111044948D01*
X138881663Y-111046852D01*
X138974058Y-111050780D01*
X139046311Y-111057459D01*
X139102521Y-111067612D01*
X139146787Y-111081966D01*
X139183205Y-111101246D01*
X139215873Y-111126177D01*
X139246653Y-111155241D01*
X139309120Y-111238376D01*
X139341318Y-111330287D01*
X139342876Y-111427162D01*
X139313424Y-111525191D01*
X139287285Y-111572925D01*
X139248564Y-111621855D01*
X139203097Y-111662989D01*
X139184566Y-111674944D01*
X139126933Y-111705923D01*
X139188706Y-111801499D01*
X139224023Y-111862028D01*
X139263667Y-111939024D01*
X139300587Y-112018577D01*
X139310347Y-112041509D01*
X139370214Y-112185943D01*
X139445234Y-112195954D01*
X139505081Y-112204945D01*
X139539625Y-112215174D01*
X139555801Y-112231474D01*
X139560548Y-112258681D01*
X139560802Y-112276494D01*
X139560802Y-112334242D01*
X139347770Y-112329717D01*
X139134737Y-112325191D01*
X139040524Y-112099314D01*
X138991074Y-111985952D01*
X138947738Y-111899992D01*
X138907494Y-111837710D01*
X138867320Y-111795381D01*
X138824193Y-111769283D01*
X138775090Y-111755690D01*
X138759949Y-111753628D01*
X138684940Y-111745174D01*
X138684940Y-112183641D01*
X138778203Y-112197647D01*
X138830507Y-112206335D01*
X138858825Y-112216386D01*
X138871255Y-112233965D01*
X138875894Y-112265234D01*
X138876500Y-112272477D01*
X138881534Y-112333301D01*
X138198350Y-112333301D01*
X138198350Y-112276023D01*
X138200088Y-112242551D01*
X138209883Y-112221936D01*
X138234613Y-112209480D01*
X138281151Y-112200481D01*
X138315943Y-112195650D01*
X138392986Y-112185336D01*
X138392986Y-111606850D01*
X138684940Y-111606850D01*
X138813459Y-111601014D01*
X138882079Y-111596467D01*
X138927513Y-111588753D01*
X138959007Y-111575412D01*
X138984038Y-111555664D01*
X139028556Y-111494621D01*
X139050100Y-111422554D01*
X139048715Y-111348182D01*
X139024444Y-111280221D01*
X138982426Y-111231233D01*
X138953443Y-111213430D01*
X138916747Y-111203167D01*
X138863147Y-111198642D01*
X138812510Y-111197924D01*
X138684940Y-111197924D01*
X138684940Y-111606850D01*
X138392986Y-111606850D01*
X138392986Y-111185387D01*
X138299723Y-111171381D01*
X138247489Y-111162740D01*
X138219657Y-111153055D01*
X138208544Y-111136495D01*
X138206467Y-111107229D01*
X138206460Y-111100606D01*
X138206460Y-111043837D01*
X138620062Y-111044343D01*
G37*
G36*
X138861363Y-108597596D02*
G01*
X138956038Y-108607780D01*
X139032803Y-108627663D01*
X139098728Y-108659587D01*
X139160884Y-108705896D01*
X139206628Y-108748817D01*
X139273261Y-108827293D01*
X139321256Y-108913464D01*
X139352581Y-109013274D01*
X139369208Y-109132668D01*
X139373257Y-109251564D01*
X139362799Y-109417782D01*
X139331206Y-109559459D01*
X139278146Y-109676946D01*
X139203290Y-109770590D01*
X139106307Y-109840739D01*
X138986868Y-109887743D01*
X138844640Y-109911951D01*
X138744055Y-109915659D01*
X138613174Y-109907857D01*
X138503757Y-109885507D01*
X138492966Y-109882204D01*
X138386686Y-109832269D01*
X138293192Y-109756432D01*
X138218605Y-109660536D01*
X138180710Y-109584067D01*
X138165337Y-109541151D01*
X138154690Y-109499785D01*
X138147909Y-109452543D01*
X138144133Y-109392002D01*
X138142503Y-109310736D01*
X138142203Y-109251564D01*
X138449755Y-109251564D01*
X138450877Y-109359610D01*
X138455133Y-109442007D01*
X138463857Y-109505495D01*
X138478385Y-109556815D01*
X138500051Y-109602705D01*
X138528026Y-109646781D01*
X138574108Y-109691504D01*
X138639298Y-109728218D01*
X138710298Y-109750391D01*
X138746285Y-109754017D01*
X138797820Y-109747687D01*
X138853433Y-109731738D01*
X138859601Y-109729270D01*
X138931193Y-109688956D01*
X138985673Y-109633146D01*
X139024536Y-109558451D01*
X139049278Y-109461481D01*
X139061394Y-109338844D01*
X139063178Y-109267783D01*
X139058215Y-109122686D01*
X139040515Y-109005281D01*
X139008998Y-108912983D01*
X138962580Y-108843211D01*
X138900177Y-108793381D01*
X138855466Y-108772305D01*
X138760688Y-108751453D01*
X138671607Y-108761311D01*
X138592262Y-108800192D01*
X138526693Y-108866411D01*
X138493267Y-108923541D01*
X138476094Y-108962150D01*
X138464144Y-108996940D01*
X138456477Y-109035007D01*
X138452151Y-109083446D01*
X138450225Y-109149352D01*
X138449758Y-109239819D01*
X138449755Y-109251564D01*
X138142203Y-109251564D01*
X138142508Y-109155871D01*
X138144469Y-109085268D01*
X138148932Y-109032416D01*
X138156741Y-108989976D01*
X138168742Y-108950610D01*
X138180319Y-108920377D01*
X138242586Y-108806432D01*
X138328612Y-108714548D01*
X138437888Y-108645260D01*
X138445741Y-108641570D01*
X138491878Y-108621437D01*
X138532035Y-108608079D01*
X138574932Y-108600117D01*
X138629291Y-108596171D01*
X138703833Y-108594863D01*
X138741709Y-108594769D01*
X138861363Y-108597596D01*
G37*
G36*
X140896076Y-108229129D02*
G01*
X141062135Y-108256703D01*
X141211154Y-108296774D01*
X141263867Y-108313339D01*
X141263867Y-108635216D01*
X141191614Y-108635216D01*
X141146764Y-108633704D01*
X141124223Y-108624169D01*
X141113862Y-108599119D01*
X141109422Y-108574393D01*
X141098075Y-108505482D01*
X141088455Y-108461961D01*
X141076135Y-108437365D01*
X141056693Y-108425232D01*
X141025702Y-108419101D01*
X141000807Y-108415763D01*
X140888489Y-108404804D01*
X140786866Y-108403502D01*
X140702298Y-108411545D01*
X140641145Y-108428622D01*
X140630886Y-108433896D01*
X140561977Y-108488086D01*
X140522260Y-108554351D01*
X140509653Y-108635216D01*
X140518139Y-108703488D01*
X140545567Y-108761349D01*
X140594887Y-108811339D01*
X140669050Y-108855997D01*
X140771010Y-108897863D01*
X140842156Y-108921284D01*
X140981806Y-108969168D01*
X141092372Y-109018567D01*
X141177196Y-109071905D01*
X141239621Y-109131604D01*
X141282989Y-109200089D01*
X141304348Y-109256393D01*
X141328778Y-109385095D01*
X141325702Y-109507626D01*
X141296855Y-109620194D01*
X141243972Y-109719006D01*
X141168789Y-109800272D01*
X141073041Y-109860200D01*
X141018578Y-109880799D01*
X140889094Y-109909427D01*
X140745138Y-109922682D01*
X140601362Y-109919480D01*
X140558312Y-109914871D01*
X140480704Y-109901831D01*
X140393361Y-109882848D01*
X140327182Y-109865407D01*
X140209589Y-109830746D01*
X140209589Y-109478639D01*
X140351787Y-109478639D01*
X140363091Y-109584195D01*
X140370449Y-109638251D01*
X140382407Y-109676875D01*
X140403915Y-109702668D01*
X140439923Y-109718236D01*
X140495381Y-109726181D01*
X140575240Y-109729109D01*
X140639410Y-109729547D01*
X140724060Y-109729210D01*
X140783984Y-109726918D01*
X140826886Y-109721510D01*
X140860471Y-109711826D01*
X140892443Y-109696708D01*
X140905422Y-109689495D01*
X140976831Y-109632102D01*
X141021121Y-109557609D01*
X141036780Y-109468587D01*
X141036792Y-109465922D01*
X141024250Y-109381119D01*
X140988223Y-109313509D01*
X140949811Y-109278844D01*
X140918943Y-109263311D01*
X140865033Y-109240739D01*
X140795847Y-109214235D01*
X140724058Y-109188591D01*
X140603406Y-109145163D01*
X140509153Y-109106588D01*
X140436147Y-109070184D01*
X140379235Y-109033272D01*
X140333264Y-108993171D01*
X140318691Y-108977760D01*
X140262181Y-108892624D01*
X140226532Y-108790172D01*
X140212963Y-108678908D01*
X140222694Y-108567334D01*
X140247850Y-108484104D01*
X140302429Y-108393894D01*
X140381595Y-108322147D01*
X140482946Y-108269330D01*
X140604078Y-108235909D01*
X140742589Y-108222353D01*
X140896076Y-108229129D01*
G37*
G36*
X132493082Y-110682584D02*
G01*
X132789091Y-110687004D01*
X132794008Y-110745861D01*
X132794984Y-110784449D01*
X132783452Y-110803277D01*
X132750752Y-110812946D01*
X132737239Y-110815350D01*
X132683435Y-110824922D01*
X132635269Y-110833954D01*
X132631880Y-110834620D01*
X132588206Y-110843260D01*
X132583150Y-111422029D01*
X132581633Y-111585812D01*
X132579770Y-111720669D01*
X132576894Y-111830115D01*
X132572337Y-111917660D01*
X132565432Y-111986819D01*
X132555511Y-112041102D01*
X132541905Y-112084024D01*
X132523948Y-112119096D01*
X132500971Y-112149832D01*
X132472307Y-112179744D01*
X132437289Y-112212344D01*
X132431997Y-112217180D01*
X132360887Y-112273672D01*
X132290176Y-112309622D01*
X132251275Y-112322282D01*
X132163453Y-112340608D01*
X132059514Y-112352798D01*
X131952202Y-112358100D01*
X131854256Y-112355765D01*
X131797205Y-112349026D01*
X131653760Y-112311733D01*
X131535766Y-112256193D01*
X131443913Y-112182920D01*
X131378893Y-112092425D01*
X131348813Y-112015943D01*
X131341047Y-111984102D01*
X131334847Y-111947353D01*
X131330046Y-111901863D01*
X131326479Y-111843795D01*
X131323979Y-111769315D01*
X131322380Y-111674588D01*
X131321515Y-111555778D01*
X131321217Y-111409050D01*
X131321211Y-111379640D01*
X131321211Y-110841709D01*
X131284717Y-110834225D01*
X131243748Y-110826542D01*
X131192568Y-110817798D01*
X131187399Y-110816961D01*
X131148195Y-110808367D01*
X131130947Y-110792406D01*
X131126671Y-110758159D01*
X131126575Y-110743038D01*
X131126575Y-110678895D01*
X131824021Y-110678895D01*
X131824021Y-110743038D01*
X131821849Y-110784731D01*
X131809343Y-110804931D01*
X131777521Y-110814557D01*
X131763197Y-110816961D01*
X131712218Y-110825589D01*
X131669114Y-110833571D01*
X131665879Y-110834225D01*
X131629385Y-110841709D01*
X131629475Y-111364485D01*
X131630059Y-111517205D01*
X131631697Y-111651738D01*
X131634305Y-111765198D01*
X131637797Y-111854704D01*
X131642088Y-111917370D01*
X131646774Y-111949232D01*
X131677651Y-112015847D01*
X131728204Y-112080371D01*
X131788751Y-112132227D01*
X131837255Y-112157271D01*
X131883791Y-112167442D01*
X131948814Y-112174625D01*
X132018409Y-112177293D01*
X132019722Y-112177290D01*
X132132184Y-112168166D01*
X132220877Y-112140369D01*
X132289777Y-112092037D01*
X132339224Y-112027624D01*
X132383599Y-111952138D01*
X132393641Y-110842194D01*
X132356181Y-110834467D01*
X132314453Y-110826601D01*
X132262866Y-110817766D01*
X132257897Y-110816961D01*
X132218774Y-110808406D01*
X132201503Y-110792538D01*
X132197178Y-110758479D01*
X132197073Y-110742672D01*
X132197073Y-110678163D01*
X132493082Y-110682584D01*
G37*
G36*
X140343882Y-111034288D02*
G01*
X140379896Y-111040507D01*
X140466946Y-111057288D01*
X140527243Y-111071750D01*
X140565687Y-111088677D01*
X140587178Y-111112851D01*
X140596615Y-111149058D01*
X140598897Y-111202079D01*
X140598861Y-111254291D01*
X140598861Y-111408780D01*
X140535075Y-111408780D01*
X140499328Y-111407270D01*
X140476820Y-111398326D01*
X140462783Y-111375328D01*
X140452450Y-111331653D01*
X140444525Y-111283026D01*
X140437956Y-111247894D01*
X140427150Y-111224886D01*
X140405697Y-111210525D01*
X140367188Y-111201331D01*
X140305212Y-111193825D01*
X140274468Y-111190721D01*
X140172203Y-111189873D01*
X140089346Y-111208561D01*
X140028474Y-111245343D01*
X139992160Y-111298778D01*
X139982514Y-111354163D01*
X139990557Y-111404217D01*
X140016994Y-111446604D01*
X140065286Y-111483990D01*
X140138893Y-111519043D01*
X140241278Y-111554428D01*
X140243271Y-111555043D01*
X140319569Y-111579626D01*
X140390413Y-111604367D01*
X140446213Y-111625817D01*
X140470639Y-111636750D01*
X140553701Y-111696099D01*
X140614020Y-111775737D01*
X140649622Y-111871032D01*
X140658531Y-111977356D01*
X140648352Y-112053511D01*
X140611524Y-112148197D01*
X140548047Y-112227988D01*
X140461761Y-112289069D01*
X140377980Y-112322154D01*
X140280467Y-112340500D01*
X140164010Y-112348403D01*
X140040339Y-112345980D01*
X139921181Y-112333349D01*
X139839975Y-112316764D01*
X139780797Y-112300561D01*
X139733637Y-112286361D01*
X139707590Y-112276924D01*
X139706162Y-112276150D01*
X139699573Y-112256812D01*
X139694360Y-112212462D01*
X139691197Y-112150519D01*
X139690560Y-112104335D01*
X139690560Y-111942163D01*
X139759493Y-111947151D01*
X139828427Y-111952138D01*
X139842670Y-112052163D01*
X139850482Y-112100633D01*
X139861397Y-112133665D01*
X139881061Y-112154230D01*
X139915119Y-112165302D01*
X139969216Y-112169850D01*
X140048998Y-112170848D01*
X140068188Y-112170883D01*
X140181415Y-112164822D01*
X140266471Y-112145488D01*
X140325270Y-112111751D01*
X140359721Y-112062479D01*
X140371736Y-111996542D01*
X140371786Y-111991266D01*
X140365908Y-111939565D01*
X140345447Y-111898213D01*
X140306156Y-111863642D01*
X140243793Y-111832283D01*
X140154112Y-111800568D01*
X140139589Y-111796036D01*
X140011328Y-111753187D01*
X139911313Y-111711426D01*
X139835588Y-111667950D01*
X139780195Y-111619952D01*
X139741175Y-111564627D01*
X139714571Y-111499170D01*
X139712907Y-111493571D01*
X139698607Y-111397646D01*
X139707927Y-111300544D01*
X139738709Y-111211401D01*
X139788794Y-111139353D01*
X139798909Y-111129610D01*
X139873049Y-111081589D01*
X139970856Y-111047089D01*
X140086090Y-111027068D01*
X140212512Y-111022482D01*
X140343882Y-111034288D01*
G37*
D14*
%TO.C,J3*%
X154610000Y-51104600D02*
X154610000Y-78892600D01*
X147396000Y-51104600D02*
X154610000Y-51104600D01*
X154610000Y-78892600D02*
X147396000Y-78892600D01*
X147396000Y-78892600D02*
X147396000Y-51104600D01*
D12*
X145961480Y-54564280D02*
G75*
G03*
X145961480Y-54564280I-100000J0D01*
G01*
%TO.C,G\u002A\u002A\u002A*%
G36*
X139263974Y-63265406D02*
G01*
X138956914Y-63265406D01*
X138956914Y-62205957D01*
X139263974Y-61899081D01*
X139263974Y-63265406D01*
G37*
G36*
X139884235Y-63265406D02*
G01*
X139503481Y-63265406D01*
X139503481Y-61766953D01*
X139884235Y-61766953D01*
X139884235Y-63265406D01*
G37*
G36*
X140863757Y-62565309D02*
G01*
X141020357Y-62721819D01*
X141020357Y-63265406D01*
X140707156Y-63265406D01*
X140707156Y-62408799D01*
X140863757Y-62565309D01*
G37*
G36*
X138686702Y-63265406D02*
G01*
X138379642Y-63265406D01*
X138379833Y-62993658D01*
X138380025Y-62721910D01*
X138533363Y-62567056D01*
X138686702Y-62412203D01*
X138686702Y-63265406D01*
G37*
G36*
X140140889Y-61906301D02*
G01*
X140153872Y-61918362D01*
X140173385Y-61937245D01*
X140198416Y-61961953D01*
X140227955Y-61991488D01*
X140260990Y-62024855D01*
X140292047Y-62056489D01*
X140443085Y-62210919D01*
X140443085Y-63265406D01*
X140129883Y-63265406D01*
X140129883Y-62583733D01*
X140129933Y-62482890D01*
X140130078Y-62388126D01*
X140130313Y-62300021D01*
X140130635Y-62219157D01*
X140131038Y-62146117D01*
X140131517Y-62081481D01*
X140132068Y-62025833D01*
X140132686Y-61979753D01*
X140133366Y-61943823D01*
X140134104Y-61918626D01*
X140134895Y-61904742D01*
X140135447Y-61902059D01*
X140140889Y-61906301D01*
G37*
G36*
X139843818Y-63733029D02*
G01*
X139991050Y-63733087D01*
X140133927Y-63733182D01*
X140270378Y-63733314D01*
X140398333Y-63733482D01*
X140496588Y-63733650D01*
X141310611Y-63735207D01*
X140503770Y-64161485D01*
X140411020Y-64210486D01*
X140321242Y-64257916D01*
X140235035Y-64303458D01*
X140152999Y-64346794D01*
X140075734Y-64387609D01*
X140003839Y-64425585D01*
X139937914Y-64460406D01*
X139878557Y-64491755D01*
X139826370Y-64519317D01*
X139781950Y-64542773D01*
X139745897Y-64561808D01*
X139718812Y-64576104D01*
X139701293Y-64585346D01*
X139693940Y-64589216D01*
X139693749Y-64589315D01*
X139688035Y-64586705D01*
X139672029Y-64578724D01*
X139646325Y-64565678D01*
X139611522Y-64547877D01*
X139568215Y-64525628D01*
X139517001Y-64499241D01*
X139458476Y-64469022D01*
X139393237Y-64435282D01*
X139321881Y-64398327D01*
X139245003Y-64358467D01*
X139163201Y-64316010D01*
X139077072Y-64271264D01*
X138987211Y-64224537D01*
X138894215Y-64176138D01*
X138869056Y-64163038D01*
X138047544Y-63735207D01*
X138865054Y-63733650D01*
X138984834Y-63733451D01*
X139114744Y-63733289D01*
X139252715Y-63733163D01*
X139396677Y-63733074D01*
X139544561Y-63733023D01*
X139694298Y-63733007D01*
X139843818Y-63733029D01*
G37*
G36*
X139820440Y-63406661D02*
G01*
X139962227Y-63406685D01*
X140100305Y-63406723D01*
X140234184Y-63406775D01*
X140363376Y-63406841D01*
X140487390Y-63406920D01*
X140605737Y-63407011D01*
X140717928Y-63407114D01*
X140823472Y-63407228D01*
X140921881Y-63407352D01*
X141012664Y-63407486D01*
X141095332Y-63407628D01*
X141169395Y-63407780D01*
X141234364Y-63407939D01*
X141289748Y-63408105D01*
X141335060Y-63408277D01*
X141369808Y-63408456D01*
X141393504Y-63408639D01*
X141405657Y-63408827D01*
X141407253Y-63408925D01*
X141405624Y-63415378D01*
X141401212Y-63431095D01*
X141394733Y-63453566D01*
X141388474Y-63474943D01*
X141379089Y-63506810D01*
X141369444Y-63539571D01*
X141361012Y-63568227D01*
X141357508Y-63580142D01*
X141345321Y-63621595D01*
X139672518Y-63621595D01*
X139502772Y-63621593D01*
X139344880Y-63621583D01*
X139198414Y-63621563D01*
X139062944Y-63621530D01*
X138938042Y-63621482D01*
X138823279Y-63621416D01*
X138718227Y-63621329D01*
X138622458Y-63621218D01*
X138535542Y-63621081D01*
X138457052Y-63620914D01*
X138386558Y-63620716D01*
X138323632Y-63620482D01*
X138267845Y-63620212D01*
X138218769Y-63619901D01*
X138175975Y-63619547D01*
X138139035Y-63619148D01*
X138107520Y-63618700D01*
X138081001Y-63618201D01*
X138059050Y-63617648D01*
X138041238Y-63617038D01*
X138027137Y-63616369D01*
X138016318Y-63615638D01*
X138008352Y-63614842D01*
X138002812Y-63613978D01*
X137999267Y-63613044D01*
X137997291Y-63612036D01*
X137996453Y-63610953D01*
X137996418Y-63610848D01*
X137993146Y-63599377D01*
X137987754Y-63579610D01*
X137980874Y-63553956D01*
X137973141Y-63524823D01*
X137965187Y-63494618D01*
X137957646Y-63465751D01*
X137951150Y-63440629D01*
X137946334Y-63421661D01*
X137943830Y-63411255D01*
X137943617Y-63410055D01*
X137949676Y-63409770D01*
X137967529Y-63409492D01*
X137996684Y-63409221D01*
X138036653Y-63408958D01*
X138086946Y-63408704D01*
X138147074Y-63408460D01*
X138216546Y-63408228D01*
X138294873Y-63408007D01*
X138381566Y-63407800D01*
X138476135Y-63407607D01*
X138578091Y-63407428D01*
X138686942Y-63407266D01*
X138802201Y-63407121D01*
X138923378Y-63406993D01*
X139049983Y-63406884D01*
X139181525Y-63406795D01*
X139317517Y-63406727D01*
X139457467Y-63406680D01*
X139600887Y-63406656D01*
X139675435Y-63406653D01*
X139820440Y-63406661D01*
G37*
G36*
X139717930Y-52257635D02*
G01*
X139780887Y-52258117D01*
X139842176Y-52259044D01*
X139900532Y-52260413D01*
X139954687Y-52262222D01*
X140003373Y-52264469D01*
X140045323Y-52267152D01*
X140079270Y-52270269D01*
X140103947Y-52273817D01*
X140118086Y-52277795D01*
X140120211Y-52279189D01*
X140120651Y-52285769D01*
X140120969Y-52304382D01*
X140121167Y-52334779D01*
X140121247Y-52376713D01*
X140121209Y-52429933D01*
X140121056Y-52494192D01*
X140120788Y-52569240D01*
X140120408Y-52654830D01*
X140119917Y-52750712D01*
X140119317Y-52856637D01*
X140118608Y-52972358D01*
X140117793Y-53097625D01*
X140116873Y-53232190D01*
X140115849Y-53375803D01*
X140114724Y-53528218D01*
X140113497Y-53689183D01*
X140112172Y-53858452D01*
X140110750Y-54035775D01*
X140109231Y-54220904D01*
X140107618Y-54413590D01*
X140106227Y-54576990D01*
X140086563Y-56869347D01*
X140125111Y-57050512D01*
X140163660Y-57231677D01*
X140168020Y-57176407D01*
X140168405Y-57166181D01*
X140168902Y-57144122D01*
X140169506Y-57110680D01*
X140170210Y-57066304D01*
X140171010Y-57011443D01*
X140171901Y-56946545D01*
X140172877Y-56872061D01*
X140173934Y-56788440D01*
X140175065Y-56696130D01*
X140176267Y-56595582D01*
X140177533Y-56487243D01*
X140178858Y-56371563D01*
X140180238Y-56248992D01*
X140181667Y-56119979D01*
X140183139Y-55984973D01*
X140184651Y-55844422D01*
X140186195Y-55698777D01*
X140187768Y-55548487D01*
X140189364Y-55394000D01*
X140190978Y-55235765D01*
X140192604Y-55074233D01*
X140194113Y-54922587D01*
X140195753Y-54757206D01*
X140197383Y-54594153D01*
X140198996Y-54433906D01*
X140200588Y-54276942D01*
X140202153Y-54123741D01*
X140203687Y-53974781D01*
X140205183Y-53830541D01*
X140206637Y-53691499D01*
X140208044Y-53558134D01*
X140209398Y-53430924D01*
X140210695Y-53310348D01*
X140211929Y-53196884D01*
X140213095Y-53091011D01*
X140214187Y-52993208D01*
X140215201Y-52903953D01*
X140216132Y-52823724D01*
X140216974Y-52753000D01*
X140217722Y-52692260D01*
X140218371Y-52641982D01*
X140218916Y-52602645D01*
X140219352Y-52574727D01*
X140219619Y-52560904D01*
X140223392Y-52397770D01*
X140291785Y-52408356D01*
X140412179Y-52427034D01*
X140521190Y-52444052D01*
X140619584Y-52459555D01*
X140708128Y-52473683D01*
X140787589Y-52486580D01*
X140858733Y-52498388D01*
X140922327Y-52509250D01*
X140979137Y-52519307D01*
X141029930Y-52528703D01*
X141075472Y-52537580D01*
X141116530Y-52546080D01*
X141153871Y-52554346D01*
X141188260Y-52562521D01*
X141220466Y-52570746D01*
X141251253Y-52579164D01*
X141281389Y-52587918D01*
X141311640Y-52597150D01*
X141317596Y-52599012D01*
X141448510Y-52644024D01*
X141569720Y-52694162D01*
X141683069Y-52750374D01*
X141790402Y-52813604D01*
X141893563Y-52884798D01*
X141932325Y-52914350D01*
X142055685Y-53013712D01*
X142171237Y-53112573D01*
X142278242Y-53210229D01*
X142375956Y-53305977D01*
X142463639Y-53399115D01*
X142540548Y-53488940D01*
X142547152Y-53497132D01*
X142641842Y-53623521D01*
X142731827Y-53760252D01*
X142816563Y-53906109D01*
X142895507Y-54059880D01*
X142968115Y-54220350D01*
X143033844Y-54386304D01*
X143092151Y-54556528D01*
X143142493Y-54729808D01*
X143184324Y-54904930D01*
X143190565Y-54934869D01*
X143202422Y-54994561D01*
X143212870Y-55050933D01*
X143222129Y-55105743D01*
X143230418Y-55160753D01*
X143237957Y-55217721D01*
X143244966Y-55278408D01*
X143251664Y-55344573D01*
X143258272Y-55417978D01*
X143265008Y-55500381D01*
X143271065Y-55579695D01*
X143274029Y-55614302D01*
X143278456Y-55658961D01*
X143284105Y-55711562D01*
X143290734Y-55769993D01*
X143298101Y-55832143D01*
X143305966Y-55895901D01*
X143314086Y-55959156D01*
X143317098Y-55981943D01*
X143325552Y-56045495D01*
X143334257Y-56111165D01*
X143342916Y-56176687D01*
X143351229Y-56239794D01*
X143358899Y-56298217D01*
X143365626Y-56349690D01*
X143371112Y-56391945D01*
X143372488Y-56402616D01*
X143377735Y-56442468D01*
X143384357Y-56491288D01*
X143392126Y-56547498D01*
X143400814Y-56609523D01*
X143410192Y-56675787D01*
X143420033Y-56744712D01*
X143430108Y-56814724D01*
X143440190Y-56884246D01*
X143450050Y-56951701D01*
X143459461Y-57015513D01*
X143468194Y-57074106D01*
X143476021Y-57125905D01*
X143482715Y-57169331D01*
X143488046Y-57202811D01*
X143489777Y-57213245D01*
X143497021Y-57251226D01*
X143505877Y-57287167D01*
X143516976Y-57322200D01*
X143530945Y-57357460D01*
X143548412Y-57394080D01*
X143570007Y-57433194D01*
X143596357Y-57475935D01*
X143628092Y-57523438D01*
X143665840Y-57576836D01*
X143710229Y-57637262D01*
X143761889Y-57705851D01*
X143765568Y-57710691D01*
X143821827Y-57784782D01*
X143872798Y-57852220D01*
X143919389Y-57914289D01*
X143962507Y-57972273D01*
X144003061Y-58027454D01*
X144041958Y-58081117D01*
X144080107Y-58134545D01*
X144118416Y-58189021D01*
X144157792Y-58245830D01*
X144199144Y-58306253D01*
X144243380Y-58371575D01*
X144291408Y-58443079D01*
X144344135Y-58522050D01*
X144402470Y-58609769D01*
X144415106Y-58628800D01*
X144493568Y-58747121D01*
X144565657Y-58856172D01*
X144631869Y-58956863D01*
X144692705Y-59050104D01*
X144748663Y-59136805D01*
X144800242Y-59217874D01*
X144847940Y-59294223D01*
X144892257Y-59366760D01*
X144933690Y-59436395D01*
X144972739Y-59504038D01*
X145009903Y-59570598D01*
X145045681Y-59636986D01*
X145080570Y-59704110D01*
X145115070Y-59772881D01*
X145149681Y-59844208D01*
X145184899Y-59919002D01*
X145221225Y-59998170D01*
X145259157Y-60082624D01*
X145299194Y-60173273D01*
X145341834Y-60271026D01*
X145387576Y-60376794D01*
X145436920Y-60491486D01*
X145438741Y-60495725D01*
X145467339Y-60562466D01*
X145496125Y-60629937D01*
X145524442Y-60696579D01*
X145551632Y-60760832D01*
X145577037Y-60821134D01*
X145599998Y-60875925D01*
X145619859Y-60923645D01*
X145635960Y-60962733D01*
X145644573Y-60983950D01*
X145668660Y-61044078D01*
X145693995Y-61107754D01*
X145720060Y-61173642D01*
X145746335Y-61240406D01*
X145772301Y-61306708D01*
X145797439Y-61371212D01*
X145821229Y-61432582D01*
X145843152Y-61489481D01*
X145862688Y-61540572D01*
X145879320Y-61584518D01*
X145892526Y-61619983D01*
X145901788Y-61645631D01*
X145903040Y-61649229D01*
X145918868Y-61697214D01*
X145936519Y-61754357D01*
X145955189Y-61817816D01*
X145974075Y-61884750D01*
X145992372Y-61952318D01*
X146009277Y-62017679D01*
X146022056Y-62069821D01*
X146048578Y-62181484D01*
X146032877Y-62209119D01*
X146010106Y-62247844D01*
X145985296Y-62287229D01*
X145957656Y-62328334D01*
X145926394Y-62372222D01*
X145890718Y-62419952D01*
X145849836Y-62472586D01*
X145802959Y-62531186D01*
X145749292Y-62596811D01*
X145693859Y-62663568D01*
X145664256Y-62699176D01*
X145633874Y-62736009D01*
X145604784Y-62771534D01*
X145579060Y-62803217D01*
X145558774Y-62828525D01*
X145555669Y-62832451D01*
X145545304Y-62844590D01*
X145527991Y-62863678D01*
X145504628Y-62888795D01*
X145476114Y-62919018D01*
X145443348Y-62953425D01*
X145407229Y-62991095D01*
X145368656Y-63031105D01*
X145328527Y-63072535D01*
X145287743Y-63114462D01*
X145247201Y-63155964D01*
X145207800Y-63196120D01*
X145170440Y-63234007D01*
X145136020Y-63268704D01*
X145105438Y-63299289D01*
X145079593Y-63324840D01*
X145059384Y-63344436D01*
X145045710Y-63357154D01*
X145039471Y-63362073D01*
X145039213Y-63362066D01*
X145037838Y-63355881D01*
X145034650Y-63339089D01*
X145029918Y-63313186D01*
X145023911Y-63279670D01*
X145016900Y-63240038D01*
X145009154Y-63195787D01*
X145006310Y-63179429D01*
X144981362Y-63037001D01*
X144957832Y-62905558D01*
X144935456Y-62783914D01*
X144913968Y-62670889D01*
X144893103Y-62565298D01*
X144872597Y-62465959D01*
X144852185Y-62371689D01*
X144831601Y-62281306D01*
X144810581Y-62193625D01*
X144788859Y-62107464D01*
X144766171Y-62021641D01*
X144742252Y-61934972D01*
X144716836Y-61846275D01*
X144689660Y-61754366D01*
X144679715Y-61721329D01*
X144666067Y-61676251D01*
X144653391Y-61634672D01*
X144641395Y-61595829D01*
X144629789Y-61558956D01*
X144618282Y-61523287D01*
X144606584Y-61488059D01*
X144594404Y-61452506D01*
X144581450Y-61415862D01*
X144567433Y-61377363D01*
X144552062Y-61336244D01*
X144535045Y-61291740D01*
X144516093Y-61243085D01*
X144494914Y-61189516D01*
X144471217Y-61130265D01*
X144444713Y-61064570D01*
X144415109Y-60991664D01*
X144382116Y-60910783D01*
X144345443Y-60821161D01*
X144304799Y-60722034D01*
X144259893Y-60612637D01*
X144239624Y-60563278D01*
X144194390Y-60453100D01*
X144153540Y-60353576D01*
X144116761Y-60264008D01*
X144083742Y-60183700D01*
X144054171Y-60111956D01*
X144027734Y-60048081D01*
X144004121Y-59991376D01*
X143983019Y-59941147D01*
X143964115Y-59896697D01*
X143947099Y-59857330D01*
X143931656Y-59822348D01*
X143917477Y-59791057D01*
X143904247Y-59762760D01*
X143891656Y-59736760D01*
X143879391Y-59712361D01*
X143867139Y-59688867D01*
X143854589Y-59665582D01*
X143841429Y-59641809D01*
X143827347Y-59616852D01*
X143812029Y-59590014D01*
X143795165Y-59560600D01*
X143776442Y-59527913D01*
X143772013Y-59520161D01*
X143730811Y-59448172D01*
X143694680Y-59385482D01*
X143662717Y-59330662D01*
X143634020Y-59282280D01*
X143607684Y-59238904D01*
X143582807Y-59199104D01*
X143558487Y-59161447D01*
X143533819Y-59124504D01*
X143507901Y-59086842D01*
X143479829Y-59047030D01*
X143448702Y-59003637D01*
X143428539Y-58975778D01*
X143384788Y-58916000D01*
X143345839Y-58864134D01*
X143309741Y-58817833D01*
X143274542Y-58774748D01*
X143238290Y-58732532D01*
X143199035Y-58688839D01*
X143154823Y-58641321D01*
X143119945Y-58604591D01*
X143065225Y-58547610D01*
X143017558Y-58498773D01*
X142975761Y-58457114D01*
X142938653Y-58421664D01*
X142905051Y-58391455D01*
X142873773Y-58365519D01*
X142843638Y-58342888D01*
X142813463Y-58322595D01*
X142782066Y-58303670D01*
X142748266Y-58285147D01*
X142710880Y-58266056D01*
X142699975Y-58260658D01*
X142617261Y-58221576D01*
X142540498Y-58189078D01*
X142466155Y-58161944D01*
X142390701Y-58138951D01*
X142310605Y-58118876D01*
X142257447Y-58107436D01*
X142203726Y-58096797D01*
X142155926Y-58088179D01*
X142111732Y-58081377D01*
X142068829Y-58076184D01*
X142024902Y-58072397D01*
X141977635Y-58069809D01*
X141924712Y-58068216D01*
X141863819Y-58067413D01*
X141803360Y-58067198D01*
X141747148Y-58067210D01*
X141701543Y-58067389D01*
X141664867Y-58067821D01*
X141635445Y-58068594D01*
X141611601Y-58069795D01*
X141591659Y-58071512D01*
X141573942Y-58073831D01*
X141556775Y-58076841D01*
X141538481Y-58080629D01*
X141536218Y-58081121D01*
X141431340Y-58109392D01*
X141324531Y-58148607D01*
X141217463Y-58197965D01*
X141111810Y-58256670D01*
X141009244Y-58323921D01*
X140974325Y-58349376D01*
X140917075Y-58394266D01*
X140854583Y-58446809D01*
X140789077Y-58504910D01*
X140722782Y-58566469D01*
X140657926Y-58629391D01*
X140596736Y-58691579D01*
X140541439Y-58750934D01*
X140510117Y-58786528D01*
X140485626Y-58815719D01*
X140456633Y-58851210D01*
X140425986Y-58889461D01*
X140396533Y-58926932D01*
X140381665Y-58946200D01*
X140334820Y-59006489D01*
X140292628Y-59058654D01*
X140253147Y-59104933D01*
X140214436Y-59147562D01*
X140174551Y-59188779D01*
X140150434Y-59212610D01*
X140090718Y-59269174D01*
X140037142Y-59316403D01*
X139988758Y-59354990D01*
X139944614Y-59385628D01*
X139903761Y-59409010D01*
X139865249Y-59425831D01*
X139852159Y-59430292D01*
X139832699Y-59436085D01*
X139815037Y-59440207D01*
X139796437Y-59442935D01*
X139774162Y-59444544D01*
X139745477Y-59445310D01*
X139707647Y-59445509D01*
X139701218Y-59445507D01*
X139649630Y-59444830D01*
X139609343Y-59442839D01*
X139579437Y-59439473D01*
X139564893Y-59436457D01*
X139513149Y-59417757D01*
X139458480Y-59388729D01*
X139402711Y-59350374D01*
X139389869Y-59340298D01*
X139350175Y-59306681D01*
X139305382Y-59265834D01*
X139257881Y-59220167D01*
X139210063Y-59172094D01*
X139164317Y-59124024D01*
X139123034Y-59078370D01*
X139088605Y-59037542D01*
X139083868Y-59031589D01*
X139036312Y-58971350D01*
X138995223Y-58919631D01*
X138959575Y-58875219D01*
X138928344Y-58836902D01*
X138900503Y-58803468D01*
X138875026Y-58773705D01*
X138850888Y-58746401D01*
X138827062Y-58720344D01*
X138802522Y-58694321D01*
X138776244Y-58667121D01*
X138769998Y-58660727D01*
X138677542Y-58569125D01*
X138587402Y-58485604D01*
X138500298Y-58410766D01*
X138416951Y-58345214D01*
X138338082Y-58289550D01*
X138288418Y-58258275D01*
X138197462Y-58206842D01*
X138111754Y-58164417D01*
X138029232Y-58130139D01*
X137947835Y-58103147D01*
X137870546Y-58083655D01*
X137848650Y-58079017D01*
X137829484Y-58075327D01*
X137811270Y-58072477D01*
X137792232Y-58070358D01*
X137770592Y-58068861D01*
X137744572Y-58067878D01*
X137712395Y-58067300D01*
X137672283Y-58067019D01*
X137622459Y-58066926D01*
X137596639Y-58066916D01*
X137512443Y-58067508D01*
X137438023Y-58069494D01*
X137370925Y-58073140D01*
X137308693Y-58078712D01*
X137248874Y-58086476D01*
X137189013Y-58096698D01*
X137126655Y-58109644D01*
X137062354Y-58124836D01*
X136968079Y-58151246D01*
X136873732Y-58183558D01*
X136781774Y-58220696D01*
X136694665Y-58261588D01*
X136614866Y-58305161D01*
X136544837Y-58350340D01*
X136543775Y-58351094D01*
X136519301Y-58370192D01*
X136488051Y-58397213D01*
X136451335Y-58430834D01*
X136410463Y-58469734D01*
X136366746Y-58512589D01*
X136321494Y-58558077D01*
X136276017Y-58604877D01*
X136231625Y-58651665D01*
X136189628Y-58697120D01*
X136151337Y-58739919D01*
X136118061Y-58778740D01*
X136108188Y-58790718D01*
X136074871Y-58832793D01*
X136036916Y-58882701D01*
X135995973Y-58938117D01*
X135953694Y-58996714D01*
X135911730Y-59056167D01*
X135871731Y-59114150D01*
X135835348Y-59168338D01*
X135804233Y-59216405D01*
X135791670Y-59236594D01*
X135775389Y-59263576D01*
X135754965Y-59298018D01*
X135731255Y-59338428D01*
X135705114Y-59383311D01*
X135677399Y-59431175D01*
X135648964Y-59480527D01*
X135620666Y-59529874D01*
X135593362Y-59577723D01*
X135567906Y-59622581D01*
X135545155Y-59662956D01*
X135525965Y-59697353D01*
X135511192Y-59724281D01*
X135501691Y-59742246D01*
X135501096Y-59743428D01*
X135493408Y-59759868D01*
X135481469Y-59786842D01*
X135465628Y-59823494D01*
X135446237Y-59868972D01*
X135423646Y-59922422D01*
X135398205Y-59982989D01*
X135370267Y-60049818D01*
X135340181Y-60122058D01*
X135308299Y-60198852D01*
X135274971Y-60279348D01*
X135240547Y-60362690D01*
X135205379Y-60448026D01*
X135169818Y-60534502D01*
X135134214Y-60621262D01*
X135098917Y-60707454D01*
X135064279Y-60792222D01*
X135030651Y-60874714D01*
X134998383Y-60954075D01*
X134967826Y-61029451D01*
X134939330Y-61099988D01*
X134913247Y-61164832D01*
X134889928Y-61223129D01*
X134869722Y-61274025D01*
X134852981Y-61316666D01*
X134840056Y-61350199D01*
X134831297Y-61373768D01*
X134830154Y-61376987D01*
X134783352Y-61514915D01*
X134736981Y-61660394D01*
X134691779Y-61810750D01*
X134648484Y-61963312D01*
X134607834Y-62115408D01*
X134570567Y-62264364D01*
X134537422Y-62407508D01*
X134511029Y-62532638D01*
X134498324Y-62597323D01*
X134484008Y-62672054D01*
X134468461Y-62754757D01*
X134452062Y-62843358D01*
X134435190Y-62935782D01*
X134418227Y-63029957D01*
X134401551Y-63123807D01*
X134385541Y-63215258D01*
X134377063Y-63264340D01*
X134359833Y-63364604D01*
X134142017Y-63147381D01*
X134097738Y-63103062D01*
X134054927Y-63059907D01*
X134014615Y-63018977D01*
X133977834Y-62981332D01*
X133945615Y-62948032D01*
X133918989Y-62920139D01*
X133898987Y-62898713D01*
X133886640Y-62884813D01*
X133886276Y-62884376D01*
X133816928Y-62800602D01*
X133754949Y-62725577D01*
X133699822Y-62658633D01*
X133651031Y-62599101D01*
X133608060Y-62546312D01*
X133570393Y-62499597D01*
X133537513Y-62458289D01*
X133508905Y-62421718D01*
X133484051Y-62389217D01*
X133462437Y-62360115D01*
X133443546Y-62333746D01*
X133426861Y-62309440D01*
X133411867Y-62286528D01*
X133398047Y-62264342D01*
X133384886Y-62242214D01*
X133371867Y-62219475D01*
X133368971Y-62214325D01*
X133349505Y-62179614D01*
X133380595Y-62051766D01*
X133395391Y-61991520D01*
X133409271Y-61936560D01*
X133422680Y-61885553D01*
X133436063Y-61837164D01*
X133449865Y-61790060D01*
X133464529Y-61742906D01*
X133480502Y-61694368D01*
X133498227Y-61643112D01*
X133518149Y-61587804D01*
X133540713Y-61527110D01*
X133566363Y-61459696D01*
X133595545Y-61384228D01*
X133628702Y-61299372D01*
X133646456Y-61254163D01*
X133678848Y-61171952D01*
X133708660Y-61096716D01*
X133736585Y-61026778D01*
X133763319Y-60960464D01*
X133789556Y-60896097D01*
X133815990Y-60832003D01*
X133843315Y-60766506D01*
X133872227Y-60697931D01*
X133903420Y-60624602D01*
X133937588Y-60544844D01*
X133975426Y-60456981D01*
X134011760Y-60372901D01*
X134056082Y-60270716D01*
X134097439Y-60176071D01*
X134136315Y-60088100D01*
X134173192Y-60005940D01*
X134208553Y-59928726D01*
X134242881Y-59855594D01*
X134276658Y-59785679D01*
X134310368Y-59718117D01*
X134344493Y-59652044D01*
X134379515Y-59586595D01*
X134415919Y-59520906D01*
X134454187Y-59454113D01*
X134494800Y-59385352D01*
X134538244Y-59313758D01*
X134584999Y-59238466D01*
X134635549Y-59158613D01*
X134690377Y-59073333D01*
X134749966Y-58981764D01*
X134814798Y-58883040D01*
X134885356Y-58776297D01*
X134962123Y-58660671D01*
X135000099Y-58603594D01*
X135061287Y-58511792D01*
X135116519Y-58429215D01*
X135166545Y-58354796D01*
X135212117Y-58287470D01*
X135253984Y-58226170D01*
X135292896Y-58169831D01*
X135329605Y-58117388D01*
X135364860Y-58067773D01*
X135387677Y-58036175D01*
X136021421Y-58036175D01*
X136024492Y-58039245D01*
X136027562Y-58036175D01*
X136024492Y-58033104D01*
X136021421Y-58036175D01*
X135387677Y-58036175D01*
X135391064Y-58031484D01*
X136034392Y-58031484D01*
X136039581Y-58033102D01*
X136039901Y-58033104D01*
X136046928Y-58030460D01*
X136063315Y-58023037D01*
X136087458Y-58011601D01*
X136117756Y-57996918D01*
X136152608Y-57979751D01*
X136176375Y-57967909D01*
X136250996Y-57930913D01*
X136328937Y-57892911D01*
X136408946Y-57854476D01*
X136489768Y-57816182D01*
X136494215Y-57814103D01*
X140430955Y-57814103D01*
X140431385Y-57814651D01*
X140437774Y-57813243D01*
X140453406Y-57807183D01*
X140476504Y-57797237D01*
X140505289Y-57784172D01*
X140537982Y-57768755D01*
X140538817Y-57768354D01*
X140635127Y-57723019D01*
X140723228Y-57683653D01*
X140805221Y-57649550D01*
X140883208Y-57620003D01*
X140959290Y-57594306D01*
X141035569Y-57571753D01*
X141114144Y-57551637D01*
X141197118Y-57533252D01*
X141286591Y-57515891D01*
X141293641Y-57514607D01*
X141367384Y-57501728D01*
X141432155Y-57491628D01*
X141490874Y-57484021D01*
X141546462Y-57478621D01*
X141601839Y-57475142D01*
X141659927Y-57473298D01*
X141720454Y-57472800D01*
X141854159Y-57476951D01*
X141985618Y-57489064D01*
X142112954Y-57508827D01*
X142234286Y-57535931D01*
X142347737Y-57570064D01*
X142381031Y-57582031D01*
X142418070Y-57596565D01*
X142464833Y-57615990D01*
X142520046Y-57639725D01*
X142582439Y-57667186D01*
X142650739Y-57697791D01*
X142723675Y-57730958D01*
X142799975Y-57766103D01*
X142878367Y-57802644D01*
X142957579Y-57839998D01*
X143036339Y-57877582D01*
X143113375Y-57914814D01*
X143187417Y-57951111D01*
X143197412Y-57956056D01*
X143239143Y-57976660D01*
X143277359Y-57995406D01*
X143310666Y-58011620D01*
X143337666Y-58024626D01*
X143356965Y-58033749D01*
X143367167Y-58038314D01*
X143368343Y-58038712D01*
X143371578Y-58034810D01*
X143371041Y-58031987D01*
X143364589Y-58024402D01*
X143348964Y-58011016D01*
X143325347Y-57992636D01*
X143294918Y-57970068D01*
X143258857Y-57944121D01*
X143218346Y-57915600D01*
X143174565Y-57885312D01*
X143128693Y-57854064D01*
X143081912Y-57822663D01*
X143035403Y-57791916D01*
X142990345Y-57762630D01*
X142947919Y-57735612D01*
X142909306Y-57711668D01*
X142875686Y-57691605D01*
X142859647Y-57682459D01*
X142752313Y-57624917D01*
X142642827Y-57570659D01*
X142533057Y-57520461D01*
X142424870Y-57475104D01*
X142320135Y-57435366D01*
X142220719Y-57402025D01*
X142128491Y-57375862D01*
X142118076Y-57373261D01*
X142056977Y-57358648D01*
X142004376Y-57347182D01*
X141957241Y-57338502D01*
X141912537Y-57332244D01*
X141867234Y-57328044D01*
X141818298Y-57325538D01*
X141762697Y-57324364D01*
X141708172Y-57324142D01*
X141656862Y-57324287D01*
X141615377Y-57324729D01*
X141581257Y-57325624D01*
X141552046Y-57327132D01*
X141525284Y-57329408D01*
X141498515Y-57332610D01*
X141469279Y-57336896D01*
X141442942Y-57341133D01*
X141399621Y-57348744D01*
X141351814Y-57357944D01*
X141304574Y-57367714D01*
X141262955Y-57377035D01*
X141252565Y-57379531D01*
X141218652Y-57388434D01*
X141177750Y-57400119D01*
X141131800Y-57413943D01*
X141082742Y-57429266D01*
X141032518Y-57445448D01*
X140983069Y-57461847D01*
X140936337Y-57477823D01*
X140894262Y-57492736D01*
X140858785Y-57505943D01*
X140831848Y-57516806D01*
X140819433Y-57522508D01*
X140783031Y-57542772D01*
X140739610Y-57570115D01*
X140691095Y-57603198D01*
X140639416Y-57640687D01*
X140586498Y-57681244D01*
X140559767Y-57702587D01*
X140520605Y-57734343D01*
X140490020Y-57759272D01*
X140467020Y-57778242D01*
X140450608Y-57792122D01*
X140439790Y-57801780D01*
X140433572Y-57808084D01*
X140430958Y-57811902D01*
X140430955Y-57814103D01*
X136494215Y-57814103D01*
X136570148Y-57778600D01*
X136648833Y-57742304D01*
X136724569Y-57707866D01*
X136796102Y-57675860D01*
X136862177Y-57646857D01*
X136921540Y-57621432D01*
X136972938Y-57600155D01*
X137015116Y-57583602D01*
X137029009Y-57578473D01*
X137143036Y-57542395D01*
X137264620Y-57513209D01*
X137390892Y-57491315D01*
X137518983Y-57477111D01*
X137646023Y-57470996D01*
X137769144Y-57473370D01*
X137779833Y-57474008D01*
X137917112Y-57486355D01*
X138057361Y-57505966D01*
X138197134Y-57532180D01*
X138332985Y-57564334D01*
X138461467Y-57601769D01*
X138483239Y-57608915D01*
X138526626Y-57623827D01*
X138568291Y-57639105D01*
X138610305Y-57655621D01*
X138654741Y-57674245D01*
X138703670Y-57695847D01*
X138759164Y-57721298D01*
X138823296Y-57751469D01*
X138829571Y-57754450D01*
X138865320Y-57771189D01*
X138897316Y-57785684D01*
X138923920Y-57797235D01*
X138943497Y-57805139D01*
X138954408Y-57808693D01*
X138956058Y-57808682D01*
X138953645Y-57802846D01*
X138942639Y-57790797D01*
X138924346Y-57773601D01*
X138900068Y-57752320D01*
X138871110Y-57728019D01*
X138838776Y-57701761D01*
X138804370Y-57674610D01*
X138769195Y-57647629D01*
X138734556Y-57621882D01*
X138701756Y-57598434D01*
X138680560Y-57583937D01*
X138644214Y-57560381D01*
X138610710Y-57540547D01*
X138577320Y-57523149D01*
X138541315Y-57506899D01*
X138499964Y-57490510D01*
X138450539Y-57472694D01*
X138428771Y-57465180D01*
X138331860Y-57433083D01*
X138243199Y-57406108D01*
X138160192Y-57383619D01*
X138080240Y-57364980D01*
X138000744Y-57349556D01*
X137919107Y-57336710D01*
X137885275Y-57332152D01*
X137803952Y-57324472D01*
X137716509Y-57321201D01*
X137627037Y-57322259D01*
X137539624Y-57327566D01*
X137458360Y-57337039D01*
X137433500Y-57341081D01*
X137339183Y-57359635D01*
X137247018Y-57381944D01*
X137155225Y-57408635D01*
X137062025Y-57440338D01*
X136965637Y-57477679D01*
X136864282Y-57521286D01*
X136756180Y-57571787D01*
X136696953Y-57600859D01*
X136622393Y-57638769D01*
X136552961Y-57675839D01*
X136486633Y-57713322D01*
X136421387Y-57752472D01*
X136355202Y-57794543D01*
X136286055Y-57840788D01*
X136211923Y-57892461D01*
X136130785Y-57950816D01*
X136121216Y-57957791D01*
X136086382Y-57983530D01*
X136061013Y-58003093D01*
X136044378Y-58017156D01*
X136035747Y-58026394D01*
X136034392Y-58031484D01*
X135391064Y-58031484D01*
X135399412Y-58019923D01*
X135434011Y-57972769D01*
X135469408Y-57925248D01*
X135506353Y-57876293D01*
X135545596Y-57824838D01*
X135579062Y-57781272D01*
X135637700Y-57704553D01*
X135688859Y-57636268D01*
X135733071Y-57575537D01*
X135770871Y-57521482D01*
X135802789Y-57473226D01*
X135829359Y-57429891D01*
X135851112Y-57390598D01*
X135868581Y-57354470D01*
X135882299Y-57320629D01*
X135892798Y-57288196D01*
X135900610Y-57256294D01*
X135902185Y-57248404D01*
X135905130Y-57231495D01*
X135909598Y-57203800D01*
X135915389Y-57166691D01*
X135922300Y-57121543D01*
X135930131Y-57069729D01*
X135938678Y-57012623D01*
X135947742Y-56951599D01*
X135957119Y-56888031D01*
X135966609Y-56823292D01*
X135976010Y-56758756D01*
X135985120Y-56695796D01*
X135993738Y-56635788D01*
X136001662Y-56580103D01*
X136008690Y-56530116D01*
X136014621Y-56487201D01*
X136019253Y-56452731D01*
X136021361Y-56436392D01*
X136024714Y-56410076D01*
X136029470Y-56373225D01*
X136035414Y-56327481D01*
X136042333Y-56274483D01*
X136050011Y-56215873D01*
X136058233Y-56153291D01*
X136066786Y-56088379D01*
X136075454Y-56022776D01*
X136076794Y-56012649D01*
X136091971Y-55895075D01*
X136105011Y-55787825D01*
X136115868Y-55691311D01*
X136124495Y-55605946D01*
X136130848Y-55532143D01*
X136131879Y-55518283D01*
X136136646Y-55453313D01*
X136140902Y-55398363D01*
X136144881Y-55351193D01*
X136148818Y-55309563D01*
X136152946Y-55271233D01*
X136157500Y-55233963D01*
X136162714Y-55195514D01*
X136168822Y-55153645D01*
X136172652Y-55128317D01*
X136204823Y-54945846D01*
X136245125Y-54768166D01*
X136294142Y-54593426D01*
X136352460Y-54419777D01*
X136420663Y-54245368D01*
X136499336Y-54068349D01*
X136523951Y-54016760D01*
X136607977Y-53856590D01*
X136701545Y-53703206D01*
X136804157Y-53557281D01*
X136915317Y-53419492D01*
X137034527Y-53290513D01*
X137117625Y-53210311D01*
X137152561Y-53178698D01*
X137193536Y-53142587D01*
X137238808Y-53103433D01*
X137286633Y-53062694D01*
X137335270Y-53021827D01*
X137382976Y-52982289D01*
X137428008Y-52945538D01*
X137468623Y-52913030D01*
X137503079Y-52886224D01*
X137522944Y-52871381D01*
X137602604Y-52816421D01*
X137683203Y-52767191D01*
X137766876Y-52722656D01*
X137855758Y-52681785D01*
X137951985Y-52643543D01*
X138057693Y-52606898D01*
X138092840Y-52595663D01*
X138129415Y-52584656D01*
X138168643Y-52573835D01*
X138211317Y-52563050D01*
X138258231Y-52552152D01*
X138310177Y-52540991D01*
X138367948Y-52529417D01*
X138432339Y-52517283D01*
X138504141Y-52504437D01*
X138584149Y-52490730D01*
X138673155Y-52476014D01*
X138771953Y-52460138D01*
X138881335Y-52442954D01*
X139002095Y-52424311D01*
X139002973Y-52424176D01*
X139174927Y-52397823D01*
X139176513Y-52419682D01*
X139176689Y-52427289D01*
X139176986Y-52446663D01*
X139177399Y-52477288D01*
X139177924Y-52518651D01*
X139178554Y-52570235D01*
X139179284Y-52631526D01*
X139180108Y-52702010D01*
X139181020Y-52781171D01*
X139182017Y-52868493D01*
X139183091Y-52963464D01*
X139184237Y-53065566D01*
X139185450Y-53174286D01*
X139186724Y-53289108D01*
X139188054Y-53409518D01*
X139189434Y-53535001D01*
X139190859Y-53665041D01*
X139192323Y-53799124D01*
X139193821Y-53936734D01*
X139195347Y-54077358D01*
X139196895Y-54220479D01*
X139198461Y-54365583D01*
X139200039Y-54512155D01*
X139201622Y-54659680D01*
X139203206Y-54807644D01*
X139204786Y-54955530D01*
X139206355Y-55102825D01*
X139207907Y-55249013D01*
X139209439Y-55393580D01*
X139210943Y-55536009D01*
X139212416Y-55675788D01*
X139213850Y-55812400D01*
X139215240Y-55945330D01*
X139216582Y-56074064D01*
X139217869Y-56198087D01*
X139219096Y-56316884D01*
X139220258Y-56429939D01*
X139221348Y-56536739D01*
X139222362Y-56636767D01*
X139223294Y-56729509D01*
X139224138Y-56814451D01*
X139224889Y-56891076D01*
X139225542Y-56958871D01*
X139226090Y-57017320D01*
X139226529Y-57065909D01*
X139226853Y-57104121D01*
X139227056Y-57131443D01*
X139227133Y-57147360D01*
X139227133Y-57148260D01*
X139227360Y-57179288D01*
X139227988Y-57205074D01*
X139228932Y-57223566D01*
X139230107Y-57232712D01*
X139230664Y-57233259D01*
X139232805Y-57226580D01*
X139237147Y-57209403D01*
X139243340Y-57183244D01*
X139251032Y-57149619D01*
X139259874Y-57110046D01*
X139269515Y-57066039D01*
X139272639Y-57051604D01*
X139311079Y-56873485D01*
X139291377Y-54577678D01*
X139289952Y-54410452D01*
X139288574Y-54246360D01*
X139287246Y-54085830D01*
X139285971Y-53929286D01*
X139284751Y-53777155D01*
X139283590Y-53629864D01*
X139282490Y-53487839D01*
X139281455Y-53351505D01*
X139280487Y-53221290D01*
X139279590Y-53097619D01*
X139278766Y-52980919D01*
X139278018Y-52871615D01*
X139277350Y-52770135D01*
X139276763Y-52676904D01*
X139276262Y-52592348D01*
X139275849Y-52516894D01*
X139275527Y-52450968D01*
X139275298Y-52394997D01*
X139275167Y-52349406D01*
X139275135Y-52314621D01*
X139275207Y-52291070D01*
X139275383Y-52279177D01*
X139275501Y-52277739D01*
X139285424Y-52273657D01*
X139306353Y-52270040D01*
X139337020Y-52266888D01*
X139376159Y-52264198D01*
X139422503Y-52261967D01*
X139474783Y-52260194D01*
X139531734Y-52258877D01*
X139592086Y-52258013D01*
X139654574Y-52257599D01*
X139717930Y-52257635D01*
G37*
G36*
X141931157Y-58133376D02*
G01*
X141965956Y-58138879D01*
X142008167Y-58147390D01*
X142055691Y-58158401D01*
X142106432Y-58171404D01*
X142158293Y-58185893D01*
X142209176Y-58201358D01*
X142248301Y-58214276D01*
X142343407Y-58248976D01*
X142430602Y-58285276D01*
X142511721Y-58324338D01*
X142588597Y-58367324D01*
X142663065Y-58415395D01*
X142736960Y-58469713D01*
X142812116Y-58531440D01*
X142890368Y-58601736D01*
X142949845Y-58658493D01*
X143007862Y-58716470D01*
X143062955Y-58774684D01*
X143116560Y-58834853D01*
X143170112Y-58898696D01*
X143225050Y-58967933D01*
X143282808Y-59044283D01*
X143344824Y-59129464D01*
X143353498Y-59141590D01*
X143456070Y-59291085D01*
X143551763Y-59442903D01*
X143641527Y-59598819D01*
X143726310Y-59760604D01*
X143807061Y-59930033D01*
X143884729Y-60108879D01*
X143927003Y-60213230D01*
X143946416Y-60261995D01*
X143968579Y-60317144D01*
X143991663Y-60374158D01*
X144013839Y-60428517D01*
X144032289Y-60473321D01*
X144121750Y-60692601D01*
X144204440Y-60902407D01*
X144280582Y-61103358D01*
X144350401Y-61296075D01*
X144414121Y-61481178D01*
X144471968Y-61659288D01*
X144524165Y-61831024D01*
X144526979Y-61840647D01*
X144542487Y-61893459D01*
X144560202Y-61953220D01*
X144578786Y-62015454D01*
X144596903Y-62075685D01*
X144613214Y-62129435D01*
X144615983Y-62138496D01*
X144653067Y-62261566D01*
X144685709Y-62374016D01*
X144714094Y-62476602D01*
X144738408Y-62570082D01*
X144758838Y-62655211D01*
X144775569Y-62732746D01*
X144788787Y-62803445D01*
X144798679Y-62868062D01*
X144802099Y-62895398D01*
X144804149Y-62916922D01*
X144804808Y-62932727D01*
X144803967Y-62939800D01*
X144803719Y-62939922D01*
X144797094Y-62937554D01*
X144781474Y-62931074D01*
X144759059Y-62921418D01*
X144732049Y-62909524D01*
X144726528Y-62907066D01*
X144655740Y-62876445D01*
X144580506Y-62845614D01*
X144504506Y-62816001D01*
X144431417Y-62789033D01*
X144364919Y-62766137D01*
X144355029Y-62762912D01*
X144287079Y-62741087D01*
X144228496Y-62722625D01*
X144177026Y-62706904D01*
X144130419Y-62693303D01*
X144086420Y-62681199D01*
X144042779Y-62669972D01*
X143997243Y-62658999D01*
X143947560Y-62647660D01*
X143897509Y-62636642D01*
X143820893Y-62620034D01*
X143754712Y-62605853D01*
X143697418Y-62593831D01*
X143647464Y-62583699D01*
X143603301Y-62575188D01*
X143563381Y-62568030D01*
X143526158Y-62561957D01*
X143490082Y-62556699D01*
X143453606Y-62551988D01*
X143415182Y-62547556D01*
X143373263Y-62543134D01*
X143338660Y-62539669D01*
X143306696Y-62537300D01*
X143264396Y-62535354D01*
X143213699Y-62533832D01*
X143156544Y-62532734D01*
X143094869Y-62532059D01*
X143030614Y-62531808D01*
X142965718Y-62531981D01*
X142902119Y-62532578D01*
X142841757Y-62533598D01*
X142786570Y-62535043D01*
X142738498Y-62536912D01*
X142699479Y-62539205D01*
X142693834Y-62539641D01*
X142635048Y-62544603D01*
X142581026Y-62549585D01*
X142532921Y-62554452D01*
X142491890Y-62559071D01*
X142459086Y-62563308D01*
X142435664Y-62567030D01*
X142422779Y-62570101D01*
X142420667Y-62571320D01*
X142418376Y-62577861D01*
X142412704Y-62595236D01*
X142403932Y-62622557D01*
X142392341Y-62658934D01*
X142378212Y-62703478D01*
X142361828Y-62755300D01*
X142343468Y-62813511D01*
X142323415Y-62877221D01*
X142301950Y-62945543D01*
X142279354Y-63017586D01*
X142270182Y-63046864D01*
X142122883Y-63517195D01*
X141973753Y-63517195D01*
X141900839Y-63481883D01*
X141870973Y-63467546D01*
X141849034Y-63457735D01*
X141831906Y-63451595D01*
X141816477Y-63448268D01*
X141799631Y-63446900D01*
X141778255Y-63446632D01*
X141772654Y-63446636D01*
X141744792Y-63447077D01*
X141724744Y-63448966D01*
X141708054Y-63453272D01*
X141690263Y-63460962D01*
X141678012Y-63467183D01*
X141646664Y-63486493D01*
X141614883Y-63511183D01*
X141586244Y-63538117D01*
X141564322Y-63564161D01*
X141559963Y-63570722D01*
X141551244Y-63583055D01*
X141545065Y-63588620D01*
X141544032Y-63588468D01*
X141543958Y-63581047D01*
X141547518Y-63565106D01*
X141553786Y-63543531D01*
X141561836Y-63519207D01*
X141570742Y-63495018D01*
X141579578Y-63473850D01*
X141583390Y-63465869D01*
X141608541Y-63426665D01*
X141640821Y-63392272D01*
X141677632Y-63364853D01*
X141716378Y-63346571D01*
X141731837Y-63342300D01*
X141779344Y-63337837D01*
X141828712Y-63343571D01*
X141876196Y-63358770D01*
X141910153Y-63377148D01*
X141925967Y-63386333D01*
X141937669Y-63390656D01*
X141941453Y-63390136D01*
X141943573Y-63383837D01*
X141948888Y-63366442D01*
X141957201Y-63338631D01*
X141968315Y-63301085D01*
X141982033Y-63254484D01*
X141998158Y-63199509D01*
X142016493Y-63136839D01*
X142036840Y-63067156D01*
X142059004Y-62991139D01*
X142082787Y-62909470D01*
X142107991Y-62822828D01*
X142134421Y-62731894D01*
X142161878Y-62637348D01*
X142190167Y-62539872D01*
X142219090Y-62440144D01*
X142248449Y-62338847D01*
X142278049Y-62236659D01*
X142307691Y-62134262D01*
X142337180Y-62032335D01*
X142366318Y-61931560D01*
X142394908Y-61832617D01*
X142422752Y-61736186D01*
X142449655Y-61642947D01*
X142475419Y-61553581D01*
X142499847Y-61468769D01*
X142522742Y-61389191D01*
X142543907Y-61315526D01*
X142563146Y-61248457D01*
X142580260Y-61188662D01*
X142595054Y-61136823D01*
X142607329Y-61093620D01*
X142616890Y-61059733D01*
X142623539Y-61035843D01*
X142627079Y-61022630D01*
X142627622Y-61020092D01*
X142625164Y-61025494D01*
X142618342Y-61041733D01*
X142607383Y-61068251D01*
X142592512Y-61104491D01*
X142573955Y-61149897D01*
X142551939Y-61203912D01*
X142526689Y-61265979D01*
X142498431Y-61335542D01*
X142467392Y-61412043D01*
X142433797Y-61494927D01*
X142397873Y-61583636D01*
X142359845Y-61677614D01*
X142319940Y-61776304D01*
X142278383Y-61879149D01*
X142235401Y-61985593D01*
X142196534Y-62081906D01*
X142152312Y-62191511D01*
X142109233Y-62298275D01*
X142067529Y-62401620D01*
X142027433Y-62500970D01*
X141989177Y-62595750D01*
X141952994Y-62685382D01*
X141919116Y-62769292D01*
X141887777Y-62846902D01*
X141859210Y-62917636D01*
X141833645Y-62980918D01*
X141811318Y-63036173D01*
X141792459Y-63082823D01*
X141777303Y-63120293D01*
X141766081Y-63148007D01*
X141759026Y-63165387D01*
X141756495Y-63171569D01*
X141745612Y-63197487D01*
X141243460Y-62692556D01*
X141169055Y-62617742D01*
X141090867Y-62539130D01*
X141010083Y-62457912D01*
X140927889Y-62375281D01*
X140845471Y-62292429D01*
X140764015Y-62210549D01*
X140684708Y-62130833D01*
X140608737Y-62054473D01*
X140537287Y-61982663D01*
X140471544Y-61916594D01*
X140412696Y-61857459D01*
X140386796Y-61831436D01*
X140032285Y-61475246D01*
X140042322Y-61435328D01*
X140048111Y-61402587D01*
X140051575Y-61362270D01*
X140052718Y-61318287D01*
X140051543Y-61274552D01*
X140048054Y-61234977D01*
X140042254Y-61203474D01*
X140042111Y-61202941D01*
X140019719Y-61141415D01*
X139987638Y-61084718D01*
X139956498Y-61045304D01*
X139915860Y-61006549D01*
X139873077Y-60977599D01*
X139826159Y-60957652D01*
X139773118Y-60945900D01*
X139711964Y-60941541D01*
X139700000Y-60941479D01*
X139634432Y-60945167D01*
X139577650Y-60956194D01*
X139528120Y-60975232D01*
X139484309Y-61002957D01*
X139444686Y-61040042D01*
X139426305Y-61061873D01*
X139390617Y-61117102D01*
X139364761Y-61178880D01*
X139348959Y-61246103D01*
X139343435Y-61317671D01*
X139348411Y-61392481D01*
X139353346Y-61422828D01*
X139362882Y-61473097D01*
X139279643Y-61560149D01*
X139266427Y-61573790D01*
X139245041Y-61595627D01*
X139215985Y-61625157D01*
X139179758Y-61661877D01*
X139136859Y-61705281D01*
X139087787Y-61754867D01*
X139033044Y-61810130D01*
X138973127Y-61870567D01*
X138908537Y-61935674D01*
X138839773Y-62004947D01*
X138767334Y-62077883D01*
X138691720Y-62153977D01*
X138613431Y-62232726D01*
X138532966Y-62313627D01*
X138450825Y-62396174D01*
X138424157Y-62422965D01*
X137651910Y-63198731D01*
X137213312Y-62111313D01*
X137168777Y-62000937D01*
X137125464Y-61893666D01*
X137083595Y-61790049D01*
X137043394Y-61690638D01*
X137005085Y-61595984D01*
X136968892Y-61506635D01*
X136935038Y-61423144D01*
X136903747Y-61346060D01*
X136875242Y-61275934D01*
X136849748Y-61213317D01*
X136827487Y-61158759D01*
X136808683Y-61112810D01*
X136793560Y-61076021D01*
X136782342Y-61048943D01*
X136775252Y-61032126D01*
X136772514Y-61026121D01*
X136772494Y-61026116D01*
X136773993Y-61032079D01*
X136778714Y-61049158D01*
X136786462Y-61076672D01*
X136797040Y-61113941D01*
X136810251Y-61160283D01*
X136825898Y-61215018D01*
X136843786Y-61277465D01*
X136863717Y-61346943D01*
X136885494Y-61422772D01*
X136908922Y-61504270D01*
X136933804Y-61590756D01*
X136959943Y-61681551D01*
X136987142Y-61775973D01*
X137015205Y-61873341D01*
X137043936Y-61972974D01*
X137073137Y-62074192D01*
X137102613Y-62176315D01*
X137132166Y-62278660D01*
X137161601Y-62380547D01*
X137190720Y-62481296D01*
X137219327Y-62580226D01*
X137247225Y-62676655D01*
X137274218Y-62769903D01*
X137300109Y-62859290D01*
X137324702Y-62944134D01*
X137347800Y-63023755D01*
X137369207Y-63097471D01*
X137388725Y-63164603D01*
X137406159Y-63224468D01*
X137421311Y-63276387D01*
X137433986Y-63319679D01*
X137443986Y-63353662D01*
X137451116Y-63377656D01*
X137455177Y-63390981D01*
X137456074Y-63393592D01*
X137461723Y-63391750D01*
X137474421Y-63384617D01*
X137487087Y-63376568D01*
X137531749Y-63353718D01*
X137581197Y-63341518D01*
X137619017Y-63339100D01*
X137669562Y-63344662D01*
X137714878Y-63361311D01*
X137754908Y-63388996D01*
X137789594Y-63427664D01*
X137818880Y-63477264D01*
X137842709Y-63537743D01*
X137845490Y-63546692D01*
X137851665Y-63568299D01*
X137855729Y-63584831D01*
X137856958Y-63593271D01*
X137856802Y-63593720D01*
X137852475Y-63590279D01*
X137843465Y-63579140D01*
X137833585Y-63565378D01*
X137795518Y-63520761D01*
X137748253Y-63483916D01*
X137717049Y-63466437D01*
X137694986Y-63456295D01*
X137676639Y-63450316D01*
X137657041Y-63447436D01*
X137631221Y-63446590D01*
X137624365Y-63446571D01*
X137602686Y-63446783D01*
X137585626Y-63447991D01*
X137570125Y-63451051D01*
X137553125Y-63456820D01*
X137531565Y-63466155D01*
X137502388Y-63479911D01*
X137498265Y-63481883D01*
X137424455Y-63517195D01*
X137349754Y-63517195D01*
X137317978Y-63517008D01*
X137296407Y-63516256D01*
X137282969Y-63514654D01*
X137275589Y-63511916D01*
X137272196Y-63507757D01*
X137271723Y-63506448D01*
X137258401Y-63463555D01*
X137242985Y-63414077D01*
X137225805Y-63359060D01*
X137207191Y-63299554D01*
X137187473Y-63236606D01*
X137166981Y-63171264D01*
X137146045Y-63104576D01*
X137124994Y-63037591D01*
X137104159Y-62971357D01*
X137083869Y-62906921D01*
X137064455Y-62845333D01*
X137046246Y-62787639D01*
X137029573Y-62734888D01*
X137014765Y-62688129D01*
X137002152Y-62648409D01*
X136992064Y-62616776D01*
X136984832Y-62594279D01*
X136980785Y-62581965D01*
X136980078Y-62579998D01*
X136975417Y-62573400D01*
X136966603Y-62568585D01*
X136951108Y-62564718D01*
X136926402Y-62560961D01*
X136920100Y-62560144D01*
X136852380Y-62552176D01*
X136785408Y-62545716D01*
X136717038Y-62540652D01*
X136645124Y-62536872D01*
X136567520Y-62534265D01*
X136482080Y-62532719D01*
X136386659Y-62532123D01*
X136380681Y-62532116D01*
X136300455Y-62532270D01*
X136228524Y-62533050D01*
X136163128Y-62534658D01*
X136102505Y-62537296D01*
X136044894Y-62541166D01*
X135988533Y-62546471D01*
X135931661Y-62553413D01*
X135872517Y-62562193D01*
X135809339Y-62573015D01*
X135740366Y-62586081D01*
X135663837Y-62601592D01*
X135577989Y-62619752D01*
X135533019Y-62629455D01*
X135481087Y-62640855D01*
X135431011Y-62652119D01*
X135384549Y-62662829D01*
X135343460Y-62672571D01*
X135309502Y-62680929D01*
X135284434Y-62687487D01*
X135272195Y-62691082D01*
X135250344Y-62698063D01*
X135219916Y-62707553D01*
X135184105Y-62718565D01*
X135146111Y-62730114D01*
X135123335Y-62736970D01*
X135015360Y-62771782D01*
X134898963Y-62813964D01*
X134775235Y-62863111D01*
X134713346Y-62889149D01*
X134679223Y-62903741D01*
X134648686Y-62916775D01*
X134623649Y-62927434D01*
X134606024Y-62934906D01*
X134597724Y-62938375D01*
X134597648Y-62938405D01*
X134593978Y-62937345D01*
X134592318Y-62929826D01*
X134592768Y-62914848D01*
X134595430Y-62891412D01*
X134600402Y-62858517D01*
X134607787Y-62815164D01*
X134612933Y-62786392D01*
X134627045Y-62712962D01*
X134643135Y-62638153D01*
X134661646Y-62560244D01*
X134683018Y-62477510D01*
X134707694Y-62388231D01*
X134736117Y-62290684D01*
X134762632Y-62202978D01*
X134778020Y-62152494D01*
X134794517Y-62097888D01*
X134811061Y-62042710D01*
X134826592Y-61990504D01*
X134840047Y-61944818D01*
X134845346Y-61926624D01*
X134907075Y-61719911D01*
X134970311Y-61520896D01*
X135036368Y-61325770D01*
X135106559Y-61130723D01*
X135182196Y-60931946D01*
X135228429Y-60815067D01*
X135276392Y-60695416D01*
X135320107Y-60586502D01*
X135359858Y-60487651D01*
X135395933Y-60398186D01*
X135428617Y-60317431D01*
X135458197Y-60244710D01*
X135461724Y-60236095D01*
X136909514Y-60236095D01*
X136911614Y-60240696D01*
X136917955Y-60249055D01*
X136929066Y-60261729D01*
X136945471Y-60279271D01*
X136967698Y-60302237D01*
X136996272Y-60331182D01*
X137031720Y-60366662D01*
X137074569Y-60409231D01*
X137125344Y-60459445D01*
X137163550Y-60497138D01*
X137409435Y-60739561D01*
X137576731Y-60698249D01*
X137666937Y-60676539D01*
X137747929Y-60658311D01*
X137822122Y-60643085D01*
X137891927Y-60630380D01*
X137959758Y-60619718D01*
X137998058Y-60614423D01*
X138033547Y-60610711D01*
X138076632Y-60607737D01*
X138125053Y-60605517D01*
X138176548Y-60604066D01*
X138228858Y-60603401D01*
X138279721Y-60603536D01*
X138326877Y-60604487D01*
X138368065Y-60606268D01*
X138401025Y-60608897D01*
X138419559Y-60611543D01*
X138511589Y-60631193D01*
X138614392Y-60656488D01*
X138695696Y-60678371D01*
X138799878Y-60707308D01*
X138769390Y-60715327D01*
X138668703Y-60744920D01*
X138578329Y-60778302D01*
X138496658Y-60816312D01*
X138422080Y-60859789D01*
X138352984Y-60909572D01*
X138288351Y-60965938D01*
X138227876Y-61027517D01*
X138173172Y-61092213D01*
X138123029Y-61161852D01*
X138076238Y-61238259D01*
X138031589Y-61323259D01*
X137987872Y-61418678D01*
X137987042Y-61420604D01*
X137950358Y-61510046D01*
X137918250Y-61597781D01*
X137890187Y-61685892D01*
X137865639Y-61776461D01*
X137844073Y-61871570D01*
X137824960Y-61973303D01*
X137807767Y-62083741D01*
X137796633Y-62167001D01*
X137792858Y-62198300D01*
X137788664Y-62235325D01*
X137784267Y-62275926D01*
X137779882Y-62317959D01*
X137775722Y-62359275D01*
X137772003Y-62397728D01*
X137768940Y-62431171D01*
X137766747Y-62457457D01*
X137765638Y-62474439D01*
X137765547Y-62477797D01*
X137768624Y-62484912D01*
X137775067Y-62483321D01*
X137780338Y-62474726D01*
X137782464Y-62466976D01*
X137787412Y-62448417D01*
X137794899Y-62420124D01*
X137804641Y-62383170D01*
X137816357Y-62338631D01*
X137829763Y-62287581D01*
X137844578Y-62231095D01*
X137860518Y-62170247D01*
X137875999Y-62111085D01*
X137895449Y-62036813D01*
X137912170Y-61973271D01*
X137926513Y-61919298D01*
X137938826Y-61873734D01*
X137949460Y-61835418D01*
X137958764Y-61803190D01*
X137967087Y-61775888D01*
X137974780Y-61752353D01*
X137982191Y-61731424D01*
X137989670Y-61711939D01*
X137997567Y-61692740D01*
X138006231Y-61672664D01*
X138011946Y-61659707D01*
X138064479Y-61545074D01*
X138115461Y-61441988D01*
X138165312Y-61349875D01*
X138214454Y-61268157D01*
X138263306Y-61196261D01*
X138312291Y-61133610D01*
X138361829Y-61079630D01*
X138412341Y-61033743D01*
X138464248Y-60995376D01*
X138517970Y-60963951D01*
X138522393Y-60961703D01*
X138548542Y-60948858D01*
X138583580Y-60932086D01*
X138625179Y-60912464D01*
X138671012Y-60891066D01*
X138718750Y-60868967D01*
X138766064Y-60847245D01*
X138810627Y-60826972D01*
X138850110Y-60809226D01*
X138882184Y-60795082D01*
X138895502Y-60789363D01*
X138939842Y-60769984D01*
X138973495Y-60753599D01*
X138997444Y-60739370D01*
X139012673Y-60726461D01*
X139020163Y-60714034D01*
X139020187Y-60713615D01*
X140378023Y-60713615D01*
X140380302Y-60720502D01*
X140384278Y-60726867D01*
X140391225Y-60733436D01*
X140402417Y-60740935D01*
X140419126Y-60750089D01*
X140442626Y-60761625D01*
X140474190Y-60776268D01*
X140515092Y-60794744D01*
X140539610Y-60805722D01*
X140625110Y-60844226D01*
X140701551Y-60879240D01*
X140768567Y-60910584D01*
X140825789Y-60938082D01*
X140872849Y-60961555D01*
X140909379Y-60980825D01*
X140935010Y-60995716D01*
X140940787Y-60999483D01*
X141001555Y-61046968D01*
X141061450Y-61106319D01*
X141120531Y-61177616D01*
X141178855Y-61260937D01*
X141236481Y-61356359D01*
X141293469Y-61463961D01*
X141301550Y-61480309D01*
X141326688Y-61531699D01*
X141348360Y-61576527D01*
X141367104Y-61616309D01*
X141383457Y-61652564D01*
X141397955Y-61686810D01*
X141411138Y-61720564D01*
X141423541Y-61755344D01*
X141435702Y-61792668D01*
X141448158Y-61834055D01*
X141461448Y-61881021D01*
X141476107Y-61935084D01*
X141492673Y-61997764D01*
X141511684Y-62070576D01*
X141514978Y-62083225D01*
X141535852Y-62163411D01*
X141553855Y-62232533D01*
X141569212Y-62291411D01*
X141582148Y-62340867D01*
X141592891Y-62381721D01*
X141601666Y-62414795D01*
X141608700Y-62440908D01*
X141614218Y-62460882D01*
X141618447Y-62475538D01*
X141621613Y-62485697D01*
X141623942Y-62492179D01*
X141625660Y-62495806D01*
X141626993Y-62497398D01*
X141628169Y-62497776D01*
X141629180Y-62497756D01*
X141631616Y-62492121D01*
X141632273Y-62477022D01*
X141631125Y-62456303D01*
X141616566Y-62306466D01*
X141600670Y-62168751D01*
X141583422Y-62043065D01*
X141564809Y-61929320D01*
X141544816Y-61827424D01*
X141523428Y-61737288D01*
X141507852Y-61681907D01*
X141482734Y-61605001D01*
X141453277Y-61525239D01*
X141420565Y-61445035D01*
X141385683Y-61366802D01*
X141349714Y-61292955D01*
X141313745Y-61225906D01*
X141278858Y-61168070D01*
X141272877Y-61158974D01*
X141205159Y-61067028D01*
X141131530Y-60985583D01*
X141051457Y-60914266D01*
X140964413Y-60852702D01*
X140869865Y-60800515D01*
X140767285Y-60757331D01*
X140656141Y-60722776D01*
X140655048Y-60722490D01*
X140599870Y-60708044D01*
X140636625Y-60696691D01*
X140664948Y-60688394D01*
X140702258Y-60678114D01*
X140745572Y-60666613D01*
X140791903Y-60654653D01*
X140838269Y-60642995D01*
X140881682Y-60632400D01*
X140919160Y-60623629D01*
X140945957Y-60617799D01*
X140986800Y-60611297D01*
X141037794Y-60606214D01*
X141096867Y-60602747D01*
X141112475Y-60602162D01*
X141186751Y-60601089D01*
X141260895Y-60603033D01*
X141336442Y-60608207D01*
X141414925Y-60616825D01*
X141497878Y-60629099D01*
X141586835Y-60645242D01*
X141683329Y-60665468D01*
X141788893Y-60689990D01*
X141846349Y-60704126D01*
X141987596Y-60739447D01*
X142238376Y-60493375D01*
X142284621Y-60447911D01*
X142328303Y-60404798D01*
X142368620Y-60364839D01*
X142404769Y-60328837D01*
X142435948Y-60297596D01*
X142461355Y-60271919D01*
X142480187Y-60252610D01*
X142491641Y-60240472D01*
X142494914Y-60236545D01*
X142497592Y-60228885D01*
X142491685Y-60229253D01*
X142490333Y-60229755D01*
X142483418Y-60234083D01*
X142467612Y-60244948D01*
X142443929Y-60261623D01*
X142413384Y-60283384D01*
X142376990Y-60309505D01*
X142335762Y-60339260D01*
X142290715Y-60371924D01*
X142242862Y-60406772D01*
X142242669Y-60406913D01*
X142194715Y-60441880D01*
X142149510Y-60474792D01*
X142108078Y-60504906D01*
X142071444Y-60531479D01*
X142040633Y-60553769D01*
X142016669Y-60571033D01*
X142000578Y-60582529D01*
X141993399Y-60587506D01*
X141987300Y-60589663D01*
X141977679Y-60589883D01*
X141962911Y-60587869D01*
X141941367Y-60583322D01*
X141911423Y-60575943D01*
X141871452Y-60565433D01*
X141867692Y-60564427D01*
X141779004Y-60541299D01*
X141699603Y-60522117D01*
X141627263Y-60506556D01*
X141559752Y-60494294D01*
X141494844Y-60485008D01*
X141430308Y-60478375D01*
X141363916Y-60474072D01*
X141293438Y-60471777D01*
X141223864Y-60471160D01*
X141126855Y-60472613D01*
X141038703Y-60477247D01*
X140956296Y-60485475D01*
X140876526Y-60497712D01*
X140796280Y-60514371D01*
X140712450Y-60535865D01*
X140690401Y-60542090D01*
X140614253Y-60565375D01*
X140548084Y-60588598D01*
X140492221Y-60611581D01*
X140446990Y-60634142D01*
X140412719Y-60656103D01*
X140389734Y-60677285D01*
X140378363Y-60697508D01*
X140378023Y-60713615D01*
X139020187Y-60713615D01*
X139020898Y-60701251D01*
X139015861Y-60687274D01*
X139015687Y-60686936D01*
X139001057Y-60669065D01*
X138975583Y-60649734D01*
X138940548Y-60629426D01*
X138897236Y-60608625D01*
X138846930Y-60587817D01*
X138790913Y-60567484D01*
X138730469Y-60548112D01*
X138666880Y-60530184D01*
X138601431Y-60514186D01*
X138535404Y-60500600D01*
X138509843Y-60496071D01*
X138455450Y-60487530D01*
X138404565Y-60481050D01*
X138354061Y-60476404D01*
X138300808Y-60473360D01*
X138241679Y-60471689D01*
X138173543Y-60471161D01*
X138170841Y-60471160D01*
X138096888Y-60471821D01*
X138029935Y-60474026D01*
X137967505Y-60478113D01*
X137907123Y-60484415D01*
X137846313Y-60493269D01*
X137782600Y-60505010D01*
X137713508Y-60519974D01*
X137636562Y-60538495D01*
X137593568Y-60549402D01*
X137550822Y-60560265D01*
X137511341Y-60570057D01*
X137476886Y-60578361D01*
X137449212Y-60584761D01*
X137430080Y-60588840D01*
X137421615Y-60590181D01*
X137414038Y-60587651D01*
X137399536Y-60579580D01*
X137377687Y-60565678D01*
X137348067Y-60545655D01*
X137310252Y-60519221D01*
X137263818Y-60486085D01*
X137208342Y-60445958D01*
X137166334Y-60415332D01*
X137118216Y-60380235D01*
X137072892Y-60347317D01*
X137031369Y-60317299D01*
X136994656Y-60290904D01*
X136963760Y-60268854D01*
X136939690Y-60251872D01*
X136923453Y-60240679D01*
X136916057Y-60235997D01*
X136915938Y-60235947D01*
X136911131Y-60234697D01*
X136909514Y-60236095D01*
X135461724Y-60236095D01*
X135482901Y-60184373D01*
X139351190Y-60184373D01*
X139351268Y-60188233D01*
X139360510Y-60186602D01*
X139360698Y-60186540D01*
X139369681Y-60183889D01*
X139388560Y-60178540D01*
X139415384Y-60171037D01*
X139448204Y-60161926D01*
X139485068Y-60151751D01*
X139494269Y-60149220D01*
X139552133Y-60133668D01*
X139599994Y-60121678D01*
X139639510Y-60112954D01*
X139672340Y-60107202D01*
X139700143Y-60104126D01*
X139724575Y-60103429D01*
X139744702Y-60104559D01*
X139763266Y-60107368D01*
X139791286Y-60112942D01*
X139826399Y-60120707D01*
X139866242Y-60130085D01*
X139908450Y-60140502D01*
X139950662Y-60151381D01*
X139990513Y-60162147D01*
X140025642Y-60172224D01*
X140038508Y-60176140D01*
X140062055Y-60182898D01*
X140076557Y-60185519D01*
X140081765Y-60183655D01*
X140077434Y-60176958D01*
X140063317Y-60165080D01*
X140039167Y-60147674D01*
X140004737Y-60124392D01*
X139999177Y-60120706D01*
X139947145Y-60087536D01*
X139901961Y-60061841D01*
X139861408Y-60042806D01*
X139823273Y-60029615D01*
X139785340Y-60021451D01*
X139745396Y-60017499D01*
X139717190Y-60016802D01*
X139669870Y-60018516D01*
X139629222Y-60024587D01*
X139590070Y-60036137D01*
X139549540Y-60053214D01*
X139525324Y-60065404D01*
X139498635Y-60080319D01*
X139470767Y-60097048D01*
X139443011Y-60114677D01*
X139416663Y-60132293D01*
X139393013Y-60148983D01*
X139373356Y-60163835D01*
X139358984Y-60175936D01*
X139351190Y-60184373D01*
X135482901Y-60184373D01*
X135484959Y-60179347D01*
X135509189Y-60120666D01*
X135531174Y-60067991D01*
X135551199Y-60020645D01*
X135569551Y-59977953D01*
X135586516Y-59939239D01*
X135602380Y-59903826D01*
X135617430Y-59871038D01*
X135631951Y-59840200D01*
X135646230Y-59810635D01*
X135660554Y-59781667D01*
X135675208Y-59752620D01*
X135690478Y-59722818D01*
X135692518Y-59718863D01*
X135762809Y-59587148D01*
X135834584Y-59461896D01*
X135878864Y-59390136D01*
X136881189Y-59390136D01*
X136884972Y-59397892D01*
X136895671Y-59413842D01*
X136912313Y-59436765D01*
X136933924Y-59465443D01*
X136959532Y-59498656D01*
X136988162Y-59535185D01*
X137018841Y-59573809D01*
X137050595Y-59613310D01*
X137082451Y-59652467D01*
X137113436Y-59690062D01*
X137142576Y-59724875D01*
X137168897Y-59755685D01*
X137191427Y-59781275D01*
X137206287Y-59797400D01*
X137285573Y-59873185D01*
X137368110Y-59937219D01*
X137454214Y-59989676D01*
X137544202Y-60030734D01*
X137638391Y-60060566D01*
X137707180Y-60074896D01*
X137769866Y-60083714D01*
X137840901Y-60090969D01*
X137917301Y-60096547D01*
X137996080Y-60100335D01*
X138074253Y-60102218D01*
X138148835Y-60102083D01*
X138216842Y-60099816D01*
X138266498Y-60096200D01*
X138408379Y-60076374D01*
X138550425Y-60044316D01*
X138692701Y-60000008D01*
X138730334Y-59985396D01*
X139202888Y-59985396D01*
X139205406Y-59986005D01*
X139212267Y-59983943D01*
X139226719Y-59978667D01*
X139237647Y-59974448D01*
X139252654Y-59969351D01*
X139277533Y-59961810D01*
X139310247Y-59952381D01*
X139348755Y-59941615D01*
X139391021Y-59930066D01*
X139435004Y-59918288D01*
X139478665Y-59906833D01*
X139519968Y-59896255D01*
X139556871Y-59887107D01*
X139578122Y-59882053D01*
X139641400Y-59869984D01*
X139698189Y-59865086D01*
X139751844Y-59867187D01*
X139782906Y-59871555D01*
X139808348Y-59876634D01*
X139842091Y-59884259D01*
X139882078Y-59893882D01*
X139926250Y-59904959D01*
X139972551Y-59916941D01*
X140018923Y-59929283D01*
X140063308Y-59941438D01*
X140103648Y-59952860D01*
X140137885Y-59963002D01*
X140163963Y-59971318D01*
X140178086Y-59976504D01*
X140200218Y-59985602D01*
X140213387Y-59990271D01*
X140219862Y-59991054D01*
X140221910Y-59988491D01*
X140222001Y-59986992D01*
X140217044Y-59980732D01*
X140203222Y-59969081D01*
X140182113Y-59953120D01*
X140155291Y-59933929D01*
X140124333Y-59912587D01*
X140090815Y-59890174D01*
X140056313Y-59867771D01*
X140022403Y-59846456D01*
X140011612Y-59839947D01*
X140375023Y-59839947D01*
X140376043Y-59840961D01*
X140385366Y-59847557D01*
X140402970Y-59858437D01*
X140426288Y-59872131D01*
X140452751Y-59887168D01*
X140479791Y-59902076D01*
X140504839Y-59915384D01*
X140515285Y-59920715D01*
X140633585Y-59973830D01*
X140759700Y-60018786D01*
X140891849Y-60055087D01*
X141028249Y-60082239D01*
X141155464Y-60098663D01*
X141182438Y-60100350D01*
X141219160Y-60101361D01*
X141263112Y-60101732D01*
X141311781Y-60101499D01*
X141362650Y-60100698D01*
X141413205Y-60099367D01*
X141460931Y-60097540D01*
X141503312Y-60095254D01*
X141530077Y-60093261D01*
X141595542Y-60086995D01*
X141651226Y-60080327D01*
X141699626Y-60072852D01*
X141743245Y-60064167D01*
X141784580Y-60053868D01*
X141798633Y-60049906D01*
X141879624Y-60020636D01*
X141960591Y-59980149D01*
X142040094Y-59929431D01*
X142116690Y-59869465D01*
X142188936Y-59801236D01*
X142231556Y-59754466D01*
X142259040Y-59722048D01*
X142288963Y-59686010D01*
X142320369Y-59647571D01*
X142352306Y-59607951D01*
X142383819Y-59568368D01*
X142413954Y-59530042D01*
X142441758Y-59494191D01*
X142466275Y-59462036D01*
X142486553Y-59434795D01*
X142501638Y-59413688D01*
X142510574Y-59399934D01*
X142512669Y-59395196D01*
X142511830Y-59391867D01*
X142508561Y-59391792D01*
X142501732Y-59395845D01*
X142490215Y-59404904D01*
X142472880Y-59419844D01*
X142448598Y-59441542D01*
X142422656Y-59465042D01*
X142358484Y-59522379D01*
X142294728Y-59577492D01*
X142232813Y-59629228D01*
X142174161Y-59676434D01*
X142120198Y-59717958D01*
X142072348Y-59752646D01*
X142042662Y-59772625D01*
X141972833Y-59813474D01*
X141898577Y-59848518D01*
X141818953Y-59877963D01*
X141733017Y-59902016D01*
X141639829Y-59920884D01*
X141538446Y-59934772D01*
X141427926Y-59943889D01*
X141307328Y-59948439D01*
X141238370Y-59949071D01*
X141135924Y-59948293D01*
X141043950Y-59945838D01*
X140960741Y-59941611D01*
X140884587Y-59935518D01*
X140813782Y-59927464D01*
X140790062Y-59924180D01*
X140732087Y-59914878D01*
X140668214Y-59903090D01*
X140602288Y-59889627D01*
X140538148Y-59875300D01*
X140479638Y-59860919D01*
X140443485Y-59851081D01*
X140409404Y-59841828D01*
X140386704Y-59836898D01*
X140375280Y-59836277D01*
X140375023Y-59839947D01*
X140011612Y-59839947D01*
X139990661Y-59827310D01*
X139979424Y-59820787D01*
X139905003Y-59784892D01*
X139828049Y-59760973D01*
X139748875Y-59749094D01*
X139667796Y-59749322D01*
X139648289Y-59751163D01*
X139593550Y-59759577D01*
X139543008Y-59772680D01*
X139493243Y-59791700D01*
X139440834Y-59817865D01*
X139405179Y-59838414D01*
X139363477Y-59864023D01*
X139324327Y-59889143D01*
X139288800Y-59912986D01*
X139257963Y-59934761D01*
X139232884Y-59953679D01*
X139214633Y-59968950D01*
X139204278Y-59979786D01*
X139202888Y-59985396D01*
X138730334Y-59985396D01*
X138806686Y-59955750D01*
X138838229Y-59941701D01*
X138872054Y-59925404D01*
X138906270Y-59907907D01*
X138938987Y-59890262D01*
X138968315Y-59873519D01*
X138992364Y-59858728D01*
X139009244Y-59846940D01*
X139017065Y-59839205D01*
X139017267Y-59838724D01*
X139016378Y-59833385D01*
X139008417Y-59835108D01*
X138993734Y-59839902D01*
X138969270Y-59846753D01*
X138937252Y-59855125D01*
X138899904Y-59864480D01*
X138859452Y-59874282D01*
X138818120Y-59883994D01*
X138778135Y-59893078D01*
X138741722Y-59900998D01*
X138711105Y-59907216D01*
X138704164Y-59908526D01*
X138655558Y-59917250D01*
X138611409Y-59924513D01*
X138569891Y-59930446D01*
X138529178Y-59935181D01*
X138487444Y-59938847D01*
X138442863Y-59941578D01*
X138393607Y-59943504D01*
X138337852Y-59944757D01*
X138273771Y-59945469D01*
X138199538Y-59945769D01*
X138186194Y-59945789D01*
X138121724Y-59945821D01*
X138067978Y-59945716D01*
X138023398Y-59945411D01*
X137986427Y-59944846D01*
X137955508Y-59943960D01*
X137929081Y-59942693D01*
X137905589Y-59940982D01*
X137883475Y-59938768D01*
X137861181Y-59935989D01*
X137837148Y-59932585D01*
X137833075Y-59931983D01*
X137748250Y-59918215D01*
X137672273Y-59902972D01*
X137603289Y-59885400D01*
X137539445Y-59864644D01*
X137478885Y-59839850D01*
X137419756Y-59810165D01*
X137360202Y-59774733D01*
X137298370Y-59732700D01*
X137232405Y-59683212D01*
X137160452Y-59625415D01*
X137151402Y-59617942D01*
X137122967Y-59594084D01*
X137090899Y-59566642D01*
X137056865Y-59537098D01*
X137022531Y-59506931D01*
X136989565Y-59477622D01*
X136959635Y-59450651D01*
X136934406Y-59427499D01*
X136915547Y-59409646D01*
X136906219Y-59400230D01*
X136892519Y-59387664D01*
X136883867Y-59384539D01*
X136881189Y-59390136D01*
X135878864Y-59390136D01*
X135909721Y-59340129D01*
X135990096Y-59218865D01*
X136077586Y-59095123D01*
X136129434Y-59024908D01*
X136170007Y-58971273D01*
X136206519Y-58924426D01*
X136240937Y-58882112D01*
X136275227Y-58842074D01*
X136311358Y-58802058D01*
X136351295Y-58759807D01*
X136397007Y-58713066D01*
X136432302Y-58677659D01*
X136500273Y-58611125D01*
X136562444Y-58553177D01*
X136620407Y-58502593D01*
X136675754Y-58458147D01*
X136730076Y-58418618D01*
X136784964Y-58382781D01*
X136842011Y-58349413D01*
X136897622Y-58319916D01*
X136982840Y-58279623D01*
X137074250Y-58241890D01*
X137168624Y-58207818D01*
X137262731Y-58178506D01*
X137353340Y-58155054D01*
X137423954Y-58140761D01*
X137457166Y-58135169D01*
X137478926Y-58132443D01*
X137489897Y-58133418D01*
X137490742Y-58138926D01*
X137482122Y-58149800D01*
X137464700Y-58166876D01*
X137453260Y-58177656D01*
X137423518Y-58206800D01*
X137388474Y-58243014D01*
X137350454Y-58283740D01*
X137311783Y-58326423D01*
X137274785Y-58368504D01*
X137241788Y-58407426D01*
X137221013Y-58433069D01*
X137183713Y-58482879D01*
X137143273Y-58541282D01*
X137101372Y-58605570D01*
X137059690Y-58673037D01*
X137019904Y-58740977D01*
X136983695Y-58806685D01*
X136957125Y-58858469D01*
X136942637Y-58888670D01*
X136933069Y-58911128D01*
X136927450Y-58928881D01*
X136924810Y-58944963D01*
X136924177Y-58961527D01*
X136926510Y-58990160D01*
X136932765Y-59020451D01*
X136941824Y-59048846D01*
X136952571Y-59071791D01*
X136962985Y-59085028D01*
X136982697Y-59098406D01*
X137012941Y-59115155D01*
X137052574Y-59134829D01*
X137100453Y-59156982D01*
X137155437Y-59181168D01*
X137216382Y-59206940D01*
X137282147Y-59233852D01*
X137351588Y-59261458D01*
X137423564Y-59289311D01*
X137496931Y-59316966D01*
X137570548Y-59343977D01*
X137643271Y-59369897D01*
X137713959Y-59394279D01*
X137781469Y-59416678D01*
X137844658Y-59436648D01*
X137902384Y-59453741D01*
X137918744Y-59458319D01*
X137996245Y-59478756D01*
X138068583Y-59495718D01*
X138137776Y-59509405D01*
X138205843Y-59520019D01*
X138274804Y-59527763D01*
X138346678Y-59532837D01*
X138423484Y-59535443D01*
X138507241Y-59535783D01*
X138599970Y-59534059D01*
X138658473Y-59532200D01*
X138736250Y-59529373D01*
X138802530Y-59526846D01*
X138858095Y-59524577D01*
X138903726Y-59522523D01*
X138940205Y-59520644D01*
X138968311Y-59518897D01*
X138988827Y-59517240D01*
X139002534Y-59515633D01*
X139010213Y-59514032D01*
X139011912Y-59513302D01*
X139012815Y-59507219D01*
X139011276Y-59491318D01*
X139007229Y-59465225D01*
X139000608Y-59428566D01*
X138991347Y-59380966D01*
X138979378Y-59322052D01*
X138969199Y-59273150D01*
X138958156Y-59220617D01*
X138947790Y-59171530D01*
X138938395Y-59127263D01*
X138930266Y-59089192D01*
X138923696Y-59058692D01*
X138918980Y-59037139D01*
X138916410Y-59025907D01*
X138916148Y-59024908D01*
X138916738Y-59021271D01*
X138922692Y-59024182D01*
X138934391Y-59034023D01*
X138952220Y-59051176D01*
X138976562Y-59076025D01*
X139007801Y-59108950D01*
X139046318Y-59150336D01*
X139092499Y-59200565D01*
X139096343Y-59204766D01*
X139145269Y-59257655D01*
X139187837Y-59302159D01*
X139225430Y-59339429D01*
X139259431Y-59370615D01*
X139291226Y-59396866D01*
X139322198Y-59419334D01*
X139353731Y-59439167D01*
X139387209Y-59457516D01*
X139419822Y-59473559D01*
X139502653Y-59506109D01*
X139587521Y-59526835D01*
X139673536Y-59535838D01*
X139759809Y-59533223D01*
X139845449Y-59519092D01*
X139929567Y-59493550D01*
X140011273Y-59456698D01*
X140089676Y-59408641D01*
X140110669Y-59393377D01*
X140136282Y-59372969D01*
X140163366Y-59349013D01*
X140193353Y-59320112D01*
X140227678Y-59284867D01*
X140267774Y-59241880D01*
X140282246Y-59226055D01*
X140326726Y-59177543D01*
X140366591Y-59134716D01*
X140401314Y-59098107D01*
X140430371Y-59068250D01*
X140453236Y-59045678D01*
X140469385Y-59030926D01*
X140478293Y-59024527D01*
X140479952Y-59025072D01*
X140478728Y-59032212D01*
X140475230Y-59050047D01*
X140469729Y-59077254D01*
X140462496Y-59112515D01*
X140453803Y-59154507D01*
X140443920Y-59201909D01*
X140433120Y-59253400D01*
X140429826Y-59269048D01*
X140418931Y-59321397D01*
X140409079Y-59369990D01*
X140400514Y-59413517D01*
X140393484Y-59450669D01*
X140388233Y-59480136D01*
X140385009Y-59500609D01*
X140384056Y-59510779D01*
X140384251Y-59511625D01*
X140389122Y-59513562D01*
X140400286Y-59515460D01*
X140418469Y-59517359D01*
X140444399Y-59519302D01*
X140478803Y-59521332D01*
X140522409Y-59523489D01*
X140575944Y-59525816D01*
X140640136Y-59528355D01*
X140715711Y-59531147D01*
X140734792Y-59531830D01*
X140834054Y-59534632D01*
X140925005Y-59535443D01*
X141009332Y-59533979D01*
X141088723Y-59529958D01*
X141164864Y-59523095D01*
X141239442Y-59513106D01*
X141314144Y-59499708D01*
X141390658Y-59482618D01*
X141470671Y-59461550D01*
X141555869Y-59436223D01*
X141647939Y-59406352D01*
X141748570Y-59371653D01*
X141803360Y-59352140D01*
X141891366Y-59320083D01*
X141975686Y-59288502D01*
X142055529Y-59257737D01*
X142130100Y-59228126D01*
X142198604Y-59200008D01*
X142260248Y-59173722D01*
X142314239Y-59149606D01*
X142359782Y-59127999D01*
X142396084Y-59109241D01*
X142422350Y-59093669D01*
X142437787Y-59081624D01*
X142438161Y-59081228D01*
X142448290Y-59065280D01*
X142458353Y-59041116D01*
X142467117Y-59012746D01*
X142473350Y-58984182D01*
X142475818Y-58959434D01*
X142475822Y-58958686D01*
X142472331Y-58935877D01*
X142461802Y-58904439D01*
X142444144Y-58864198D01*
X142419270Y-58814979D01*
X142387091Y-58756605D01*
X142347518Y-58688900D01*
X142302385Y-58614794D01*
X142240237Y-58520302D01*
X142172406Y-58428894D01*
X142097214Y-58338494D01*
X142012982Y-58247026D01*
X141967277Y-58200568D01*
X141944415Y-58177320D01*
X141925719Y-58157401D01*
X141912454Y-58142235D01*
X141905884Y-58133246D01*
X141905865Y-58131388D01*
X141931157Y-58133376D01*
G37*
D14*
%TO.C,J4*%
X154610000Y-86182000D02*
X154610000Y-113970000D01*
X147396000Y-86182000D02*
X154610000Y-86182000D01*
X154610000Y-113970000D02*
X147396000Y-113970000D01*
X147396000Y-113970000D02*
X147396000Y-86182000D01*
D12*
X145961480Y-89641680D02*
G75*
G03*
X145961480Y-89641680I-100000J0D01*
G01*
D14*
%TO.C,J1*%
X109128760Y-51104600D02*
X109128760Y-78892600D01*
X101914760Y-51104600D02*
X109128760Y-51104600D01*
X109128760Y-78892600D02*
X101914760Y-78892600D01*
X101914760Y-78892600D02*
X101914760Y-51104600D01*
D12*
X100480240Y-54564280D02*
G75*
G03*
X100480240Y-54564280I-100000J0D01*
G01*
%TD*%
M02*
