%TF.GenerationSoftware,KiCad,Pcbnew,7.0.7*%
%TF.CreationDate,2023-09-14T15:50:49-04:00*%
%TF.ProjectId,Temps_North_DCT_HSK,54656d70-735f-44e6-9f72-74685f444354,B*%
%TF.SameCoordinates,Original*%
%TF.FileFunction,Copper,L2,Bot*%
%TF.FilePolarity,Positive*%
%FSLAX46Y46*%
G04 Gerber Fmt 4.6, Leading zero omitted, Abs format (unit mm)*
G04 Created by KiCad (PCBNEW 7.0.7) date 2023-09-14 15:50:49*
%MOMM*%
%LPD*%
G01*
G04 APERTURE LIST*
%TA.AperFunction,ComponentPad*%
%ADD10R,0.940800X0.940800*%
%TD*%
%TA.AperFunction,ComponentPad*%
%ADD11C,0.940800*%
%TD*%
%TA.AperFunction,ComponentPad*%
%ADD12C,0.890000*%
%TD*%
%TA.AperFunction,Conductor*%
%ADD13C,0.200000*%
%TD*%
G04 APERTURE END LIST*
D10*
%TO.P,J2,1,Pin_1*%
%TO.N,/TD2_1*%
X104256840Y-89916000D03*
D11*
%TO.P,J2,2,Pin_2*%
%TO.N,/TD2_2*%
X106817160Y-89916000D03*
%TO.P,J2,3,Pin_3*%
%TO.N,unconnected-(J2-Pin_3-Pad3)*%
X104267000Y-91186000D03*
%TO.P,J2,4,Pin_4*%
%TO.N,unconnected-(J2-Pin_4-Pad4)*%
X106807000Y-91186000D03*
%TO.P,J2,5,Pin_5*%
%TO.N,/TD2_5*%
X104267000Y-92456000D03*
%TO.P,J2,6,Pin_6*%
%TO.N,/TD2_6*%
X106807000Y-92456000D03*
%TO.P,J2,7,Pin_7*%
%TO.N,unconnected-(J2-Pin_7-Pad7)*%
X104267000Y-93726000D03*
%TO.P,J2,8,Pin_8*%
%TO.N,unconnected-(J2-Pin_8-Pad8)*%
X106807000Y-93726000D03*
%TO.P,J2,9,Pin_9*%
%TO.N,/TD2_9*%
X104267000Y-94996000D03*
%TO.P,J2,10,Pin_10*%
%TO.N,/TD2_10*%
X106807000Y-94996000D03*
%TO.P,J2,11,Pin_11*%
%TO.N,/TD2_11*%
X104267000Y-96266000D03*
%TO.P,J2,12,Pin_12*%
%TO.N,unconnected-(J2-Pin_12-Pad12)*%
X106807000Y-96266000D03*
%TO.P,J2,13,Pin_13*%
%TO.N,unconnected-(J2-Pin_13-Pad13)*%
X104267000Y-97536000D03*
%TO.P,J2,14,Pin_14*%
%TO.N,unconnected-(J2-Pin_14-Pad14)*%
X106807000Y-97536000D03*
%TO.P,J2,15,Pin_15*%
%TO.N,unconnected-(J2-Pin_15-Pad15)*%
X104267000Y-98806000D03*
%TO.P,J2,16,Pin_16*%
%TO.N,unconnected-(J2-Pin_16-Pad16)*%
X106807000Y-98806000D03*
%TO.P,J2,17,Pin_17*%
%TO.N,unconnected-(J2-Pin_17-Pad17)*%
X104267000Y-100076000D03*
%TO.P,J2,18,Pin_18*%
%TO.N,unconnected-(J2-Pin_18-Pad18)*%
X106807000Y-100076000D03*
%TO.P,J2,19,Pin_19*%
%TO.N,unconnected-(J2-Pin_19-Pad19)*%
X104267000Y-101346000D03*
%TO.P,J2,20,Pin_20*%
%TO.N,unconnected-(J2-Pin_20-Pad20)*%
X106807000Y-101346000D03*
%TO.P,J2,21,Pin_21*%
%TO.N,unconnected-(J2-Pin_21-Pad21)*%
X104267000Y-102616000D03*
%TO.P,J2,22,Pin_22*%
%TO.N,unconnected-(J2-Pin_22-Pad22)*%
X106807000Y-102616000D03*
%TO.P,J2,23,Pin_23*%
%TO.N,unconnected-(J2-Pin_23-Pad23)*%
X104267000Y-103886000D03*
%TO.P,J2,24,Pin_24*%
%TO.N,unconnected-(J2-Pin_24-Pad24)*%
X106807000Y-103886000D03*
%TO.P,J2,25,Pin_25*%
%TO.N,unconnected-(J2-Pin_25-Pad25)*%
X104267000Y-105156000D03*
%TO.P,J2,26,Pin_26*%
%TO.N,unconnected-(J2-Pin_26-Pad26)*%
X106807000Y-105156000D03*
%TO.P,J2,27,Pin_27*%
%TO.N,unconnected-(J2-Pin_27-Pad27)*%
X104267000Y-106426000D03*
%TO.P,J2,28,Pin_28*%
%TO.N,unconnected-(J2-Pin_28-Pad28)*%
X106807000Y-106426000D03*
%TO.P,J2,29,Pin_29*%
%TO.N,unconnected-(J2-Pin_29-Pad29)*%
X104267000Y-107696000D03*
%TO.P,J2,30,Pin_30*%
%TO.N,unconnected-(J2-Pin_30-Pad30)*%
X106807000Y-107696000D03*
%TO.P,J2,31,Pin_31*%
%TO.N,unconnected-(J2-Pin_31-Pad31)*%
X104267000Y-108966000D03*
%TO.P,J2,32,Pin_32*%
%TO.N,unconnected-(J2-Pin_32-Pad32)*%
X106807000Y-108966000D03*
%TO.P,J2,33,Pin_33*%
%TO.N,unconnected-(J2-Pin_33-Pad33)*%
X104267000Y-110236000D03*
%TO.P,J2,34,Pin_34*%
%TO.N,unconnected-(J2-Pin_34-Pad34)*%
X106807000Y-110236000D03*
%TD*%
D10*
%TO.P,J3,1,Pin_1*%
%TO.N,/TD1_1+*%
X149722840Y-54838600D03*
D11*
%TO.P,J3,2,Pin_2*%
%TO.N,/TD1_1-*%
X152283160Y-54838600D03*
%TO.P,J3,3,Pin_3*%
%TO.N,unconnected-(J3-Pin_3-Pad3)*%
X149733000Y-56108600D03*
%TO.P,J3,4,Pin_4*%
%TO.N,unconnected-(J3-Pin_4-Pad4)*%
X152273000Y-56108600D03*
%TO.P,J3,5,Pin_5*%
%TO.N,/TD1_5*%
X149733000Y-57378600D03*
%TO.P,J3,6,Pin_6*%
%TO.N,/TD1_6*%
X152273000Y-57378600D03*
%TO.P,J3,7,Pin_7*%
%TO.N,unconnected-(J3-Pin_7-Pad7)*%
X149733000Y-58648600D03*
%TO.P,J3,8,Pin_8*%
%TO.N,unconnected-(J3-Pin_8-Pad8)*%
X152273000Y-58648600D03*
%TO.P,J3,9,Pin_9*%
%TO.N,/TD1_9*%
X149733000Y-59918600D03*
%TO.P,J3,10,Pin_10*%
%TO.N,/TD1_10*%
X152273000Y-59918600D03*
%TO.P,J3,11,Pin_11*%
%TO.N,unconnected-(J3-Pin_11-Pad11)*%
X149733000Y-61188600D03*
%TO.P,J3,12,Pin_12*%
%TO.N,unconnected-(J3-Pin_12-Pad12)*%
X152273000Y-61188600D03*
%TO.P,J3,13,Pin_13*%
%TO.N,/TD1_13*%
X149733000Y-62458600D03*
%TO.P,J3,14,Pin_14*%
%TO.N,/TD1_14*%
X152273000Y-62458600D03*
%TO.P,J3,15,Pin_15*%
%TO.N,unconnected-(J3-Pin_15-Pad15)*%
X149733000Y-63728600D03*
%TO.P,J3,16,Pin_16*%
%TO.N,unconnected-(J3-Pin_16-Pad16)*%
X152273000Y-63728600D03*
%TO.P,J3,17,Pin_17*%
%TO.N,/TD1_17*%
X149733000Y-64998600D03*
%TO.P,J3,18,Pin_18*%
%TO.N,/TD1_18*%
X152273000Y-64998600D03*
%TO.P,J3,19,Pin_19*%
%TO.N,unconnected-(J3-Pin_19-Pad19)*%
X149733000Y-66268600D03*
%TO.P,J3,20,Pin_20*%
%TO.N,unconnected-(J3-Pin_20-Pad20)*%
X152273000Y-66268600D03*
%TO.P,J3,21,Pin_21*%
%TO.N,/TD1_21*%
X149733000Y-67538600D03*
%TO.P,J3,22,Pin_22*%
%TO.N,/TD1_22*%
X152273000Y-67538600D03*
%TO.P,J3,23,Pin_23*%
%TO.N,unconnected-(J3-Pin_23-Pad23)*%
X149733000Y-68808600D03*
%TO.P,J3,24,Pin_24*%
%TO.N,unconnected-(J3-Pin_24-Pad24)*%
X152273000Y-68808600D03*
%TO.P,J3,25,Pin_25*%
%TO.N,/TD1_25*%
X149733000Y-70078600D03*
%TO.P,J3,26,Pin_26*%
%TO.N,/TD1_26*%
X152273000Y-70078600D03*
%TO.P,J3,27,Pin_27*%
%TO.N,unconnected-(J3-Pin_27-Pad27)*%
X149733000Y-71348600D03*
%TO.P,J3,28,Pin_28*%
%TO.N,unconnected-(J3-Pin_28-Pad28)*%
X152273000Y-71348600D03*
%TO.P,J3,29,Pin_29*%
%TO.N,/TD1_29*%
X149733000Y-72618600D03*
%TO.P,J3,30,Pin_30*%
%TO.N,/TD1_30*%
X152273000Y-72618600D03*
%TO.P,J3,31,Pin_31*%
%TO.N,unconnected-(J3-Pin_31-Pad31)*%
X149733000Y-73888600D03*
%TO.P,J3,32,Pin_32*%
%TO.N,unconnected-(J3-Pin_32-Pad32)*%
X152273000Y-73888600D03*
%TO.P,J3,33,Pin_33*%
%TO.N,/TD1_33*%
X149733000Y-75158600D03*
%TO.P,J3,34,Pin_34*%
%TO.N,/TD1_34*%
X152273000Y-75158600D03*
%TD*%
D10*
%TO.P,J4,1,Pin_1*%
%TO.N,/TD2_1*%
X149722840Y-89916000D03*
D11*
%TO.P,J4,2,Pin_2*%
%TO.N,/TD2_2*%
X152283160Y-89916000D03*
%TO.P,J4,3,Pin_3*%
%TO.N,unconnected-(J4-Pin_3-Pad3)*%
X149733000Y-91186000D03*
%TO.P,J4,4,Pin_4*%
%TO.N,unconnected-(J4-Pin_4-Pad4)*%
X152273000Y-91186000D03*
%TO.P,J4,5,Pin_5*%
%TO.N,/TD2_5*%
X149733000Y-92456000D03*
%TO.P,J4,6,Pin_6*%
%TO.N,/TD2_6*%
X152273000Y-92456000D03*
%TO.P,J4,7,Pin_7*%
%TO.N,unconnected-(J4-Pin_7-Pad7)*%
X149733000Y-93726000D03*
%TO.P,J4,8,Pin_8*%
%TO.N,unconnected-(J4-Pin_8-Pad8)*%
X152273000Y-93726000D03*
%TO.P,J4,9,Pin_9*%
%TO.N,/TD2_10*%
X149733000Y-94996000D03*
%TO.P,J4,10,Pin_10*%
%TO.N,/TD2_9*%
X152273000Y-94996000D03*
%TO.P,J4,11,Pin_11*%
%TO.N,unconnected-(J4-Pin_11-Pad11)*%
X149733000Y-96266000D03*
%TO.P,J4,12,Pin_12*%
%TO.N,/TD2_11*%
X152273000Y-96266000D03*
%TO.P,J4,13,Pin_13*%
%TO.N,unconnected-(J4-Pin_13-Pad13)*%
X149733000Y-97536000D03*
%TO.P,J4,14,Pin_14*%
%TO.N,unconnected-(J4-Pin_14-Pad14)*%
X152273000Y-97536000D03*
%TO.P,J4,15,Pin_15*%
%TO.N,unconnected-(J4-Pin_15-Pad15)*%
X149733000Y-98806000D03*
%TO.P,J4,16,Pin_16*%
%TO.N,unconnected-(J4-Pin_16-Pad16)*%
X152273000Y-98806000D03*
%TO.P,J4,17,Pin_17*%
%TO.N,unconnected-(J4-Pin_17-Pad17)*%
X149733000Y-100076000D03*
%TO.P,J4,18,Pin_18*%
%TO.N,unconnected-(J4-Pin_18-Pad18)*%
X152273000Y-100076000D03*
%TO.P,J4,19,Pin_19*%
%TO.N,unconnected-(J4-Pin_19-Pad19)*%
X149733000Y-101346000D03*
%TO.P,J4,20,Pin_20*%
%TO.N,unconnected-(J4-Pin_20-Pad20)*%
X152273000Y-101346000D03*
%TO.P,J4,21,Pin_21*%
%TO.N,unconnected-(J4-Pin_21-Pad21)*%
X149733000Y-102616000D03*
%TO.P,J4,22,Pin_22*%
%TO.N,unconnected-(J4-Pin_22-Pad22)*%
X152273000Y-102616000D03*
%TO.P,J4,23,Pin_23*%
%TO.N,unconnected-(J4-Pin_23-Pad23)*%
X149733000Y-103886000D03*
%TO.P,J4,24,Pin_24*%
%TO.N,unconnected-(J4-Pin_24-Pad24)*%
X152273000Y-103886000D03*
%TO.P,J4,25,Pin_25*%
%TO.N,unconnected-(J4-Pin_25-Pad25)*%
X149733000Y-105156000D03*
%TO.P,J4,26,Pin_26*%
%TO.N,unconnected-(J4-Pin_26-Pad26)*%
X152273000Y-105156000D03*
%TO.P,J4,27,Pin_27*%
%TO.N,unconnected-(J4-Pin_27-Pad27)*%
X149733000Y-106426000D03*
%TO.P,J4,28,Pin_28*%
%TO.N,unconnected-(J4-Pin_28-Pad28)*%
X152273000Y-106426000D03*
%TO.P,J4,29,Pin_29*%
%TO.N,unconnected-(J4-Pin_29-Pad29)*%
X149733000Y-107696000D03*
%TO.P,J4,30,Pin_30*%
%TO.N,unconnected-(J4-Pin_30-Pad30)*%
X152273000Y-107696000D03*
%TO.P,J4,31,Pin_31*%
%TO.N,unconnected-(J4-Pin_31-Pad31)*%
X149733000Y-108966000D03*
%TO.P,J4,32,Pin_32*%
%TO.N,unconnected-(J4-Pin_32-Pad32)*%
X152273000Y-108966000D03*
%TO.P,J4,33,Pin_33*%
%TO.N,unconnected-(J4-Pin_33-Pad33)*%
X149733000Y-110236000D03*
%TO.P,J4,34,Pin_34*%
%TO.N,unconnected-(J4-Pin_34-Pad34)*%
X152273000Y-110236000D03*
%TD*%
D10*
%TO.P,J1,1,Pin_1*%
%TO.N,/TD1_1+*%
X104241600Y-54838600D03*
D11*
%TO.P,J1,2,Pin_2*%
%TO.N,/TD1_1-*%
X106801920Y-54838600D03*
%TO.P,J1,3,Pin_3*%
%TO.N,unconnected-(J1-Pin_3-Pad3)*%
X104251760Y-56108600D03*
%TO.P,J1,4,Pin_4*%
%TO.N,unconnected-(J1-Pin_4-Pad4)*%
X106791760Y-56108600D03*
%TO.P,J1,5,Pin_5*%
%TO.N,/TD1_5*%
X104251760Y-57378600D03*
%TO.P,J1,6,Pin_6*%
%TO.N,/TD1_6*%
X106791760Y-57378600D03*
%TO.P,J1,7,Pin_7*%
%TO.N,unconnected-(J1-Pin_7-Pad7)*%
X104251760Y-58648600D03*
%TO.P,J1,8,Pin_8*%
%TO.N,unconnected-(J1-Pin_8-Pad8)*%
X106791760Y-58648600D03*
%TO.P,J1,9,Pin_9*%
%TO.N,/TD1_9*%
X104251760Y-59918600D03*
%TO.P,J1,10,Pin_10*%
%TO.N,/TD1_10*%
X106791760Y-59918600D03*
%TO.P,J1,11,Pin_11*%
%TO.N,unconnected-(J1-Pin_11-Pad11)*%
X104251760Y-61188600D03*
%TO.P,J1,12,Pin_12*%
%TO.N,unconnected-(J1-Pin_12-Pad12)*%
X106791760Y-61188600D03*
%TO.P,J1,13,Pin_13*%
%TO.N,/TD1_13*%
X104251760Y-62458600D03*
%TO.P,J1,14,Pin_14*%
%TO.N,/TD1_14*%
X106791760Y-62458600D03*
%TO.P,J1,15,Pin_15*%
%TO.N,unconnected-(J1-Pin_15-Pad15)*%
X104251760Y-63728600D03*
%TO.P,J1,16,Pin_16*%
%TO.N,unconnected-(J1-Pin_16-Pad16)*%
X106791760Y-63728600D03*
%TO.P,J1,17,Pin_17*%
%TO.N,/TD1_17*%
X104251760Y-64998600D03*
%TO.P,J1,18,Pin_18*%
%TO.N,/TD1_18*%
X106791760Y-64998600D03*
%TO.P,J1,19,Pin_19*%
%TO.N,unconnected-(J1-Pin_19-Pad19)*%
X104251760Y-66268600D03*
%TO.P,J1,20,Pin_20*%
%TO.N,unconnected-(J1-Pin_20-Pad20)*%
X106791760Y-66268600D03*
%TO.P,J1,21,Pin_21*%
%TO.N,/TD1_21*%
X104251760Y-67538600D03*
%TO.P,J1,22,Pin_22*%
%TO.N,/TD1_22*%
X106791760Y-67538600D03*
%TO.P,J1,23,Pin_23*%
%TO.N,unconnected-(J1-Pin_23-Pad23)*%
X104251760Y-68808600D03*
%TO.P,J1,24,Pin_24*%
%TO.N,unconnected-(J1-Pin_24-Pad24)*%
X106791760Y-68808600D03*
%TO.P,J1,25,Pin_25*%
%TO.N,/TD1_25*%
X104251760Y-70078600D03*
%TO.P,J1,26,Pin_26*%
%TO.N,/TD1_26*%
X106791760Y-70078600D03*
%TO.P,J1,27,Pin_27*%
%TO.N,unconnected-(J1-Pin_27-Pad27)*%
X104251760Y-71348600D03*
%TO.P,J1,28,Pin_28*%
%TO.N,unconnected-(J1-Pin_28-Pad28)*%
X106791760Y-71348600D03*
%TO.P,J1,29,Pin_29*%
%TO.N,/TD1_29*%
X104251760Y-72618600D03*
%TO.P,J1,30,Pin_30*%
%TO.N,/TD1_30*%
X106791760Y-72618600D03*
%TO.P,J1,31,Pin_31*%
%TO.N,unconnected-(J1-Pin_31-Pad31)*%
X104251760Y-73888600D03*
D12*
%TO.P,J1,32,Pin_32*%
%TO.N,unconnected-(J1-Pin_32-Pad32)*%
X106791760Y-73888600D03*
D11*
%TO.P,J1,33,Pin_33*%
%TO.N,/TD1_33*%
X104251760Y-75158600D03*
D12*
%TO.P,J1,34,Pin_34*%
%TO.N,/TD1_34*%
X106791760Y-75158600D03*
%TD*%
D13*
%TO.N,/TD1_6*%
X152437200Y-57424200D02*
X151430000Y-56417000D01*
X150003486Y-53019400D02*
X111130000Y-53019400D01*
X151430000Y-56417000D02*
X151430000Y-54445914D01*
X151430000Y-54445914D02*
X150003486Y-53019400D01*
X106776000Y-57373400D02*
X106742600Y-57373400D01*
X111130000Y-53019400D02*
X106776000Y-57373400D01*
%TO.N,/TD1_10*%
X113030000Y-53619400D02*
X150037800Y-53619400D01*
X150037800Y-53619400D02*
X151030000Y-54611600D01*
X106742600Y-59913400D02*
X106742600Y-59906800D01*
X106742600Y-59906800D02*
X113030000Y-53619400D01*
X151030000Y-54611600D02*
X151030000Y-58557000D01*
X151030000Y-58557000D02*
X152437200Y-59964200D01*
%TO.N,/TD1_14*%
X151830000Y-52119400D02*
X107630000Y-52119400D01*
X105430000Y-54319400D02*
X105430000Y-61140800D01*
X153330000Y-53619400D02*
X151830000Y-52119400D01*
X152437200Y-62504200D02*
X153330000Y-61611400D01*
X105430000Y-61140800D02*
X106742600Y-62453400D01*
X153330000Y-61611400D02*
X153330000Y-53619400D01*
X107630000Y-52119400D02*
X105430000Y-54319400D01*
%TO.N,/TD1_18*%
X106430000Y-77619400D02*
X138130000Y-77619400D01*
X105130000Y-76319400D02*
X106430000Y-77619400D01*
X154130000Y-77219400D02*
X154130000Y-66737000D01*
X154130000Y-66737000D02*
X152437200Y-65044200D01*
X139830000Y-79319400D02*
X152030000Y-79319400D01*
X152030000Y-79319400D02*
X154130000Y-77219400D01*
X105130000Y-66606000D02*
X105130000Y-76319400D01*
X138130000Y-77619400D02*
X139830000Y-79319400D01*
X106742600Y-64993400D02*
X105130000Y-66606000D01*
%TO.N,/TD1_22*%
X153730000Y-68877000D02*
X152437200Y-67584200D01*
X105630000Y-75819400D02*
X106530000Y-76719400D01*
X105630000Y-68646000D02*
X105630000Y-75819400D01*
X140330000Y-78619400D02*
X151630000Y-78619400D01*
X151630000Y-78619400D02*
X153730000Y-76519400D01*
X138430000Y-76719400D02*
X140330000Y-78619400D01*
X153730000Y-76519400D02*
X153730000Y-68877000D01*
X106530000Y-76719400D02*
X138430000Y-76719400D01*
X106742600Y-67533400D02*
X105630000Y-68646000D01*
%TO.N,/TD1_26*%
X106742600Y-70073400D02*
X134484000Y-70073400D01*
X141730000Y-77319400D02*
X149223200Y-77319400D01*
X151592400Y-70124200D02*
X152437200Y-70124200D01*
X134484000Y-70073400D02*
X141730000Y-77319400D01*
X150930000Y-70786600D02*
X151592400Y-70124200D01*
X149223200Y-77319400D02*
X150930000Y-75612600D01*
X150930000Y-75612600D02*
X150930000Y-70786600D01*
%TO.N,/TD1_30*%
X152437200Y-72664200D02*
X152091000Y-72664200D01*
X151330000Y-75898400D02*
X149509000Y-77719400D01*
X149509000Y-77719400D02*
X141230000Y-77719400D01*
X152091000Y-72664200D02*
X151330000Y-73425200D01*
X141230000Y-77719400D02*
X136124000Y-72613400D01*
X151330000Y-73425200D02*
X151330000Y-75898400D01*
X136124000Y-72613400D02*
X106742600Y-72613400D01*
%TO.N,/TD1_34*%
X152437200Y-76712200D02*
X151030000Y-78119400D01*
X151030000Y-78119400D02*
X140630000Y-78119400D01*
X152437200Y-75204200D02*
X152437200Y-76712200D01*
X137664000Y-75153400D02*
X106742600Y-75153400D01*
X140630000Y-78119400D02*
X137664000Y-75153400D01*
%TO.N,/TD2_2*%
X106716780Y-89974600D02*
X106749420Y-89974600D01*
X106886780Y-89804600D02*
X106716780Y-89974600D01*
X150214580Y-87757000D02*
X152432180Y-89974600D01*
X106749420Y-89974600D02*
X108967020Y-87757000D01*
X108967020Y-87757000D02*
X150214580Y-87757000D01*
%TO.N,/TD2_6*%
X106792400Y-92433400D02*
X106792400Y-92530600D01*
X151028400Y-91051200D02*
X151028400Y-89154000D01*
X151028400Y-89154000D02*
X150495000Y-88620600D01*
X152215200Y-92530600D02*
X152507800Y-92530600D01*
X150495000Y-88620600D02*
X110605200Y-88620600D01*
X110605200Y-88620600D02*
X106792400Y-92433400D01*
X152507800Y-92530600D02*
X151028400Y-91051200D01*
%TO.N,/TD1_1-*%
X106752760Y-54833400D02*
X106816000Y-54833400D01*
X109130000Y-52519400D02*
X151430000Y-52519400D01*
X152447360Y-53536760D02*
X152447360Y-54884200D01*
X106816000Y-54833400D02*
X109130000Y-52519400D01*
X151430000Y-52519400D02*
X152447360Y-53536760D01*
%TD*%
M02*
